<?xml version="1.0" encoding="UTF-8" standalone="no" ?>
<!DOCTYPE svg PUBLIC "-//W3C//DTD SVG 1.1//EN" "http://www.w3.org/Graphics/SVG/1.1/DTD/svg11.dtd">
<svg xmlns="http://www.w3.org/2000/svg" xmlns:xlink="http://www.w3.org/1999/xlink" version="1.1" width="1280" height="1024" viewBox="0 0 1280 1024" xml:space="preserve">
<desc>Created with Fabric.js 5.3.0</desc>
<defs>
</defs>
<g transform="matrix(1 0 0 1 640 512)" id="background-logo"  >
<rect style="stroke: none; stroke-width: 0; stroke-dasharray: none; stroke-linecap: butt; stroke-dashoffset: 0; stroke-linejoin: miter; stroke-miterlimit: 4; fill: rgb(232,237,243); fill-rule: nonzero; opacity: 1;"  paint-order="stroke"  x="-640" y="-512" rx="0" ry="0" width="1280" height="1024" />
</g>
<g transform="matrix(4.550051480365579 0 0 4.550051480365579 655.3964735796341 399.01745219576105)" id="logo-logo"  >
<g style=""  paint-order="stroke"   >
		<g transform="matrix(0.9279432350925164 0 0 0.9279432350925164 0 0)"  >
<path style="stroke: none; stroke-width: 1; stroke-dasharray: none; stroke-linecap: butt; stroke-dashoffset: 0; stroke-linejoin: miter; stroke-miterlimit: 4; fill: rgb(84,84,85); fill-rule: evenodd; opacity: 1;"  paint-order="stroke"  transform=" translate(-297.60546875, -421.0542518584924)" d="M 369.7832031 348.2944336 C 374.87304689999996 350.3422852 378.75390619999996 353.2617188 380.70117189999996 356.3608399 C 371.07812499999994 350.8603516 359.1757813 349.0610352 347.2753906 354.26757819999995 C 347.2753906 354.26757819999995 336.2324218 334.7314453999999 321.18359369999996 340.67138679999994 C 247.29931639999995 369.83642589999994 294.8637695 422.75830089999994 328.10156249999994 407.1289062999999 C 280.45263669999997 400.7070312999999 310.77148439999996 341.7602539999999 338.08593749999994 364.4311523999999 C 338.08593749999994 364.4311523999999 332.74023439999996 371.2236328999999 330.09765619999996 380.8754882999999 C 319.84960929999994 418.3066405999999 389.1582031 449.0903320999999 419.30468749999994 448.5405273999999 C 388.32617189999996 432.73388679999994 370.1972655999999 423.24951179999994 350.64453119999996 394.1123046999999 C 361.23828119999996 393.79589839999994 372.03515619999996 402.5346679999999 374.0566406 412.8535155999999 L 374.046875 412.7963866999999 C 381.0800781 419.4404296999999 388.65625 424.7182616999999 396.8164063 429.5493163999999 C 403.35937509999997 404.8183593999999 407.3769532 374.2465819999999 383.45117189999996 358.0727538999999 C 383.45117189999996 358.0727538999999 386.17187499999994 352.6171874999999 392.28710939999996 354.6557616999999 C 397.14257819999995 356.2739257999999 405.14062499999994 363.4628905999999 408.90820319999995 373.49902339999994 C 412.28710949999993 382.49609369999996 411.81054699999993 396.49560539999993 404.74414069999995 403.34912109999993 C 420.9257812999999 396.52197269999994 423.97070319999995 372.4604491999999 415.42773449999993 358.7617187999999 C 405.9394531 343.550293 386.9453125 326.3964844 369.7832031 348.2944336 L 369.7832031 348.2944336 z M 325.125 477.3579102 L 322.59375 504.2182618 L 300.2597656 504.2182618 L 297.5380859 462.4067384 C 307.9121094 464.3491211 318.1113281 469.3754883 325.125 477.3579102 L 325.125 477.3579102 z M 241.9550781 481.7739258 L 244.0698242 504.21826169999997 L 266.40576169999997 504.21826169999997 L 268.9941406 464.4409179 C 258.5922852 467.8725586 249.5673828 473.987793 241.9550781 481.7739258 L 241.9550781 481.7739258 z M 171 440.737793 C 181.0649414 430.09521490000003 191.1650391 419.4951172 205.0625 413.6430664 C 191.3710937 441.6918945 189.9882812 469.3217773 195.7724609 504.2182617 L 217.4487304 504.2182617 C 259.0415038 421.0327148 348.5332031 455.8930664 340.1699218 504.2182617 C 347.3945312 504.2182617 354.6210937 504.2182617 361.8457031 504.2182617 C 364.9375 492.8588867 366.9082031 482.2592773 367.9375 472.35595700000005 C 361.8378906 473.83154290000004 355.4257812 474.0541992 349.2421875 473.03271480000006 C 329.9804687 469.8491210000001 315.6132812 455.1225585000001 318.2246094 434.79833980000006 C 319.4296875 425.41650390000007 325.27734380000004 417.6235351000001 333.640625 415.09277340000006 C 332.8945312 414.1860351000001 332.1757812 413.26220700000005 331.4882812 412.32031250000006 C 297.32226560000004 428.38330080000003 264.3867187 390.63623050000007 278.9790039 364.98535160000006 C 234.6801758 365.2299805 187.2895508 391.8701172 171 440.737793 L 171 440.737793 z M 400.7832031 431.3891602 C 409.5703125 436.1372071 416.25 439.307129 424.2109375 440.916504 C 416.4472656 435.6157227 408.8359375 429.5014649 401.9902344 422.7612306 C 401.546875 425.6157227 401.1445313 428.4916992 400.7832031 431.3891602 L 400.7832031 431.3891602 z M 363.1640625 386.3647461 C 357.7285156 388.409668 351.7539062 384.96044919999997 350.8066406 379.230957 C 356.2421875 377.1855469 362.2167969 380.6357422 363.1640625 386.3647461 L 363.1640625 386.3647461 z M 367.5292969 440.4311523 C 365.79101560000004 443.5141601 363.7324219 446.2260742 361.34765630000004 448.3100586 C 351.9355469 456.5375977 336.25781250000006 450.9672852 334.0761719 440.4907227 C 333.21875 436.3813477 336.0097657 432.9653321 339.60546880000004 435.0200196 C 343.2011719 437.0737305 345.59765630000004 437.41650400000003 344.5703126 432.4516602 C 343.54296880000004 427.487793 353.7050782 422.2670899 341.99804700000004 420.5454102 C 332.62890640000006 419.1679688 325.53515640000006 426.0639649 324.3125001 435.5805665 C 319.9375001 469.6411134 372.1035157 479.8979493 389.4257814 449.35693369999996 C 381.96875 446.9819336 374.5449219 443.9487305 367.5292969 440.4311523 L 367.5292969 440.4311523 z" stroke-linecap="round" />
</g>
</g>
</g>
<g transform="matrix(1.9211538461538462 0 0 1.9211538461538462 652.6390137748399 876.9692016646342)" id="text-logo"  >
<g style=""  paint-order="stroke"   >
		<g transform="matrix(1 0 0 1 0 0)" id="text-logo-path-0"  >
<path style="stroke: none; stroke-width: 0; stroke-dasharray: none; stroke-linecap: butt; stroke-dashoffset: 0; stroke-linejoin: miter; stroke-miterlimit: 4; fill: rgb(21,53,61); fill-rule: nonzero; opacity: 1;"  paint-order="stroke"  transform=" translate(-72.16499999999999, 45.59)" d="M 41.16 -20.97 L 70.99 -61.22 L 60.18 0 L 77.11 0 L 93.27 -91.18 L 75.03 -91.18 L 46.76 -53.15 L 32.04 -91.18 L 13.81 -91.18 L -2.34 0 L 14.59 0 L 25.4 -61.35 Z M 113.59 0 L 130.52 0 L 146.67 -91.18 L 129.74 -91.18 Z" stroke-linecap="round" />
</g>
</g>
</g>
<g transform="matrix(1.9211538461538462 0 0 1.9211538461538462 435.77896515777076 876.9692016646342)" id="tagline-da3c636c-e08a-4079-88ce-855155a5f383-logo"  >
<g style=""  paint-order="stroke"   >
		<g transform="matrix(1 0 0 1 0 0)" id="tagline-da3c636c-e08a-4079-88ce-855155a5f383-logo-path-0"  >
<path style="stroke: none; stroke-width: 0; stroke-dasharray: none; stroke-linecap: butt; stroke-dashoffset: 0; stroke-linejoin: miter; stroke-miterlimit: 4; fill: rgb(21,53,61); fill-rule: nonzero; opacity: 1;"  paint-order="stroke"  transform=" translate(-40.50999999999999, 45.59)" d="M 17.19 0 L 34.13 0 L 47.81 -76.85 L 67.22 -76.85 L 69.82 -91.18 L 13.81 -91.18 L 11.2 -76.85 L 30.87 -76.85 Z" stroke-linecap="round" />
</g>
</g>
</g>
</svg>