<svg xmlns="http://www.w3.org/2000/svg" viewBox="0 0 354787 385010" width="37" height="40">
  <path d="M 171394 374033 C 160421,374033 149384,369464 142069,362149 C 132893,353005 129235,341115 130134,328313 L 68725 293559 C 61410,299961 51335,304533 41261,304533 C 30224,304533 19251,299961 11936,292645 C 3658,284414 0,274355 0,263380 C 0,252406 4556,241432 11936,234116 C 16492,229543 22010,226799 27464,224056 L 27464 153638 C 22010,151810 16492,148151 11936,143579 C 3658,135348 0,125289 0,114314 C 0,103340 3658,92366 10973,84136 C 19251,76819 29325,72247 40298,72247 C 50437,72247 59548,75905 66928,81392 L 129235 45726 C 127439,32923 131995,21034 141171,11888 C 149384,3658 159523,0 170496,0 C 181468,0 192505,4573 199821,11888 C 208997,21034 213553,34752 211756,47555 L 272267 82306 C 279582,75905 289656,72247 298833,72247 C 309805,72247 320842,76819 328157,84136 C 336435,92366 340093,102426 340093,113400 C 340093,124374 335473,135348 328157,142664 C 324500,146323 318083,150895 310768,153638 L 310768 223142 C 318083,224971 323602,228629 328157,232286 C 336435,240517 340093,250577 340093,261551 C 340093,272525 335473,283499 328157,290816 C 319944,299046 309805,302704 298833,302704 C 287860,302704 277721,299046 270406,291730 L 210858 325567 C 212654,338368 208099,351176 198922,360320 C 192505,369464 182431,374033 171394,374033 Z" fill="#FFFFFF" transform="translate(5518,5490)"/>
  <path d="M 176913 9145 C 186088,9145 196163,12803 203543,20119 C 212654,29265 216377,42068 213617,54871 L 280545 93280 C 286962,85965 296073,82306 305250,82306 C 314425,82306 324500,85965 331880,93280 C 339194,100597 342852,109741 342852,119801 C 342852,129861 339194,139006 331880,146323 C 326361,151810 319944,155467 313527,157297 L 313527 234116 C 320842,235945 326361,237774 331880,243261 C 339194,250577 342852,259722 342852,269782 C 342852,279842 339194,288986 331880,296303 C 324500,303619 315324,307277 305250,307277 C 296073,307277 285999,303619 278684,296303 C 277785,295388 277785,295388 277785,294473 L 212654 331969 C 215414,343859 211756,357572 202580,365805 C 195265,373120 186088,376778 176014,376778 C 165939,376778 156764,373120 149449,365805 C 141171,357572 136615,344770 139374,332880 L 73345 292645 L 72446 293559 C 65067,300875 55955,304533 45816,304533 C 36705,304533 26566,300875 19251,293559 C 12834,287158 9176,277098 9176,267953 C 9176,257893 12834,248748 20149,241432 C 24769,236859 30288,233201 36705,232286 L 36705 155467 C 30288,153638 24769,150895 20149,146323 C 12834,138092 9176,128946 9176,118887 C 9176,108827 12834,99682 20149,92366 C 27529,85965 36705,82306 45816,82306 C 54993,82306 64168,85965 71484,92366 L 139374 53042 C 136615,41153 140272,28350 149449,20119 C 157662,12803 166838,9145 176913,9145 Z M 176913 0 C 165042,0 153106,4573 143930,13718 C 134754,22863 130198,35666 130198,48469 L 72446 81392 C 65067,75905 55955,73161 45816,73161 C 33945,73161 22010,77734 13732,86879 C 4621,96024 0,106998 0,119801 C 0,131690 4621,143579 13732,152724 C 17454,156382 22909,160040 27529,161869 L 27529 225885 C 22010,228629 17454,231372 13732,235030 C 4621,244176 0,255150 0,267953 C 0,279842 4621,291730 13732,300875 C 22909,310020 33945,314593 46779,314593 C 56853,314593 66928,310935 75206,305448 L 131096 337455 C 131096,350257 135652,362147 144829,371291 C 154004,380435 165042,385011 177875,385011 C 189746,385011 201682,380435 210857,371291 C 220034,362147 225488,348428 224589,335627 L 278684 304533 C 286962,310935 297036,314593 308008,314593 C 319944,314593 331880,310020 340991,300875 C 350168,291730 354787,280756 354787,267953 C 354787,256064 350168,244176 340991,235030 C 336435,230458 331880,227714 325463,224971 L 325463 161869 C 330917,159126 336435,155467 340991,150895 C 350168,141750 354787,130775 354787,117972 C 354787,106084 350168,94195 340991,85050 C 331880,75905 320842,71332 308008,71332 C 297934,71332 288758,74075 280545,80477 L 224589 48469 C 225488,34752 220932,21948 210857,11888 C 200783,4573 188848,0 176913,0 Z" fill="#FFFFFF"/>
  <path d="M 304350 223141 L 304350 146322 C 311666,144493 318083,140835 322703,135348 C 330018,128032 333676,118887 333676,108827 C 333676,98768 330018,89622 322703,82306 C 308008,67674 285100,67674 270406,82306 L 203542 45725 C 206237,33837 202579,20119 193404,10974 C 178773,-3658 155865,-3658 141171,10974 C 131994,20119 128337,32008 131096,43896 L 63270 83221 C 48575,69503 25667,69503 11037,84135 C 3657,90537 0,99682 0,109742 C 0,119801 3657,128946 11037,136262 C 15592,140835 21112,144493 27529,145408 L 27529 222227 C 21112,224056 15592,226800 11037,231372 C 3657,239602 0,248748 0,258807 C 0,268867 3657,278012 11037,285328 C 18352,291730 27529,295388 36704,295388 C 45816,295388 55955,291730 63270,284414 L 64168 283499 L 131096 321910 C 129235,333800 132957,345684 141171,354828 C 148486,362150 157661,365808 167736,365808 C 176912,365808 186987,362150 194366,354828 C 203542,345684 207200,332883 204441,320992 L 269507 283499 C 269507,284414 270406,284414 270406,285328 C 277785,292644 286961,296302 297036,296302 C 306212,296302 316286,292644 323601,285328 C 330916,278012 334574,268867 334574,258807 C 334574,248748 330916,239602 323601,232287 C 317184,226800 310767,224970 304350,223141 Z M 196163 305448 C 195264,304533 194366,303619 193404,302704 C 188847,298131 182430,294474 176014,293559 L 176014 229543 C 187950,228628 198922,224056 208996,217654 L 260331 246918 C 258535,253320 257572,260636 260331,267953 L 196163 305448 Z M 141171 302704 C 140272,303619 138411,305448 137512,306362 L 72446 268867 C 74243,261551 74243,254235 72446,246918 L 123781 216740 C 134754,223141 146689,227714 159523,228628 L 159523 292644 C 153106,294474 146689,297217 141171,302704 Z M 44918 146322 C 52233,144493 58650,141749 63270,136262 C 64168,135348 64168,135348 65067,134434 L 109985 160040 C 104531,165527 99910,171929 96253,179244 L 93493 182903 L 95354 186561 C 99011,193877 103568,200278 109086,205765 L 63270 232287 C 57752,226800 51335,224056 44918,222227 L 44918 146322 Z M 138411 59443 C 139374,60358 140272,62186 141171,63101 C 146689,68589 153106,71332 159523,73161 L 159523 136262 C 146689,137177 134754,141749 123781,148151 L 73344 118887 C 75205,111570 75205,104255 72446,96938 L 138411 59443 Z M 193404 63101 C 194366,62186 195264,61272 195264,60358 L 260331 97852 C 257572,105169 257572,112485 259432,118887 L 210857 148151 C 200783,141749 188847,137177 176912,136262 L 176912 72246 C 182430,71332 188847,67674 193404,63101 Z M 213617 193877 C 187950,219483 147587,219483 121920,193877 C 118262,190218 115503,186561 112744,182903 C 115503,179244 118262,175587 121920,171929 C 147587,146322 187950,146322 213617,171929 C 217274,175587 220034,179244 222793,182903 C 219071,186561 216376,190218 213617,193877 Z M 270406 232287 C 269507,232287 270406,232287 270406,232287 L 224589 206680 C 224589,206680 225488,206680 225488,205765 C 231006,200278 235626,193877 239284,186561 L 241080 182903 L 239284 179244 C 235626,171929 231006,165527 225488,160040 L 269507 134434 C 270406,135348 270406,135348 271369,136262 C 275924,140835 282341,144493 288758,146322 L 288758 223141 C 280544,224056 275026,227714 270406,232287 Z M 282341 96024 C 290619,87793 302490,87793 310767,96024 C 314425,99682 316286,105169 316286,109742 C 316286,115229 314425,119801 310767,123459 C 307110,127117 301592,129861 296073,128946 C 290619,128946 285998,127117 282341,123459 C 275924,117057 274127,106998 279581,98768 C 280544,97852 281443,96938 282341,96024 Z M 153106 22863 C 161320,14632 173255,14632 181533,22863 C 187950,29264 188847,38409 185190,45725 C 184292,47555 182430,49384 181533,51212 C 173255,59443 161320,59443 153106,51212 C 151245,49384 149449,47555 148486,44811 C 145790,37495 147587,28350 153106,22863 Z M 17454 109742 C 17454,104255 19251,99682 22908,96024 C 31186,87793 43121,87793 51335,96024 C 52233,96938 53196,97852 54094,98768 C 59613,106998 58650,117057 51335,124374 C 47677,128032 42158,130775 36704,129861 C 31186,129861 26566,128032 22908,124374 C 19251,120716 17454,115229 17454,109742 Z M 22908 272525 C 19251,268867 17454,263380 17454,258807 C 17454,253320 19251,248748 22908,245090 C 26566,241431 31186,239602 36704,239602 C 42158,239602 47677,241431 51335,245090 C 57752,251491 58650,261551 54094,268867 C 53196,270696 52233,271610 51335,273440 C 43121,280756 31186,280756 22908,272525 Z M 181533 342944 C 173255,351171 161320,351171 153106,342944 C 147587,337458 145790,329225 148486,320992 C 149449,318252 151245,316424 153106,314595 C 161320,306362 173255,306362 181533,314595 C 183329,316424 184292,318252 185190,320081 C 188847,328308 187950,337458 181533,342944 Z M 310767 272525 C 302490,280756 290619,280756 282341,272525 C 281443,270696 279581,269782 278683,267953 C 274127,260636 275924,250577 282341,244175 C 285998,240517 290619,238688 296073,238688 C 301592,238688 307110,240517 310767,244175 C 314425,247833 316286,253320 316286,257893 C 316286,264294 314425,268867 310767,272525 Z M 189746 182903 C 189746,194791 180570,203936 168699,203936 C 156763,203936 147587,194791 147587,182903 C 147587,171014 156763,161869 168699,161869 C 179672,161869 189746,171014 189746,182903 Z" fill="#2D5967" transform="translate(9176,9147)"/>
</svg>