<svg xmlns="http://www.w3.org/2000/svg" viewBox="0 0 385010 376898" width="40" height="40">
  <path d="M 225417 369685 C 206481,369685 192056,354355 192056,336323 C 192056,325498 197466,315584 205583,309270 L 201072 293041 C 193859,293942 186647,294844 179434,294844 C 142467,294844 108201,278614 84760,249761 L 77541 255171 C 78446,257876 78446,260581 78446,264187 C 78446,283122 63116,298451 44180,298451 C 25250,298451 9920,283122 9920,264187 C 9920,245252 25250,229924 44180,229924 C 51399,229924 59510,232629 64919,237138 L 72132 231728 C 62218,213694 57707,193857 57707,174021 C 57707,165906 58611,156889 60415,148774 L 46888 144266 C 42377,149676 35164,152381 28857,152381 C 15330,152381 3606,140659 3606,127134 C 3606,113610 15330,101888 28857,101888 C 41478,101888 52297,110904 54100,123527 L 67627 126233 C 72132,116314 77541,106396 84760,97379 L 73935 87461 C 65824,92871 57707,95576 47786,95576 C 21644,95576 0,73936 0,47788 C 0,21640 21644,0 47786,0 C 73935,0 95579,21640 95579,47788 C 95579,55903 93776,64018 89265,72133 L 100083 82051 C 122626,62214 150578,52296 180333,52296 C 206481,52296 230827,60411 251566,75739 L 258778 67625 C 256071,62214 254267,56804 254267,50493 C 254267,30656 270502,15328 289438,15328 C 308368,15328 324602,31558 324602,50493 C 324602,69428 309272,85658 289438,85658 C 284022,85658 279518,84756 275007,82051 L 268699 89265 C 290336,111806 302060,141561 302060,173119 C 302060,183037 301155,192956 298454,203776 L 309272 207383 C 316485,197464 328209,192054 339926,192054 C 361570,192054 378703,209186 378703,230826 C 378703,252466 361570,269597 339926,269597 C 318288,269597 301155,252466 301155,230826 C 301155,229924 301155,229022 301155,228121 L 290336 224514 C 276810,253367 253369,275007 223614,286729 L 228125 302057 C 246156,302959 260582,317387 260582,335419 C 259683,354355 244353,369685 225417,369685 Z" fill="#FFFFFF" transform="translate(4511,4512)"/>
  <path d="M 52297 9017 C 76643,9017 95579,28853 95579,52297 C 95579,61314 92871,70330 87462,76641 L 103690 91970 C 124429,72133 152381,60411 183939,60411 C 210992,60411 236236,69428 256071,85658 L 267794 72133 C 264188,66724 262385,61314 262385,55002 C 262385,37870 275911,24345 293038,24345 C 310171,24345 323698,37870 323698,55002 C 323698,72133 310171,85658 293038,85658 C 287629,85658 282219,83855 276810,81150 L 265086 93773 C 286730,114512 300257,144267 300257,176726 C 300257,188448 298454,199268 295746,210088 L 313777 216400 C 320091,206481 330910,200170 342634,200170 C 361570,200170 376893,215498 376893,234433 C 376893,253368 361570,268696 342634,268696 C 323698,268696 308368,253368 308368,234433 C 308368,232630 308368,230826 308368,229023 L 290336 222711 C 277714,253368 251566,276811 220008,287631 L 226316 311074 C 227220,311074 227220,311074 228119,311074 C 244353,311074 256975,324601 256975,339924 C 256975,355254 246156,369679 229922,369679 C 213694,369679 201072,356159 201072,340829 C 201072,330010 207386,320995 215497,315585 L 209189 292140 C 201072,293943 192954,294844 183939,294844 C 146067,294844 111807,276811 90169,247958 L 76643 256975 C 77541,260581 78446,264188 78446,267795 C 78446,284024 64919,297550 48691,297550 C 32463,297550 18936,284024 18936,267795 C 18936,251565 32463,238040 48691,238040 C 56802,238040 64021,241646 69430,246155 L 82951 237138 C 73036,220006 66722,199268 66722,177628 C 66722,167710 67627,158693 70329,149677 L 50494 143365 C 46888,148774 40574,152381 33361,152381 C 21638,152381 12622,143365 12622,131643 C 12622,119922 21638,110905 33361,110905 C 45085,110905 54100,119922 54100,131643 L 73935 137955 C 78446,125331 85658,113610 93776,103692 L 79344 87462 C 72132,92872 63116,96478 53196,96478 C 28850,95576 9016,76641 9016,52297 C 9016,28853 28850,9017 52297,9017 Z M 52297 0 C 23441,0 0,23443 0,52297 C 0,73937 13527,92872 32463,100986 C 16228,101889 3606,114512 3606,130741 C 3606,146971 17133,160496 33361,160496 C 40574,160496 47786,157791 53196,153283 L 60415 155087 C 59510,162300 58605,169513 58605,177628 C 58605,197465 63116,216400 72132,233531 L 70329 234433 C 64021,229924 56802,228121 49589,228121 C 27952,228121 10819,245253 10819,266892 C 10819,288533 27952,306566 48691,306566 C 69430,306566 87462,289434 87462,267795 C 87462,265991 87462,263286 86557,260581 L 88360 259679 C 112705,287631 146971,302959 183939,302959 C 190253,302959 196561,302960 201970,301156 L 204678 310173 C 196561,317389 191151,328207 191151,339026 C 191151,359765 208284,376898 229024,376898 C 249763,376898 266896,359765 266896,339026 C 266896,320090 252464,303861 233528,301156 L 230827 292140 C 257874,280418 281321,259679 294841,232630 L 298454 234433 C 298454,257876 318288,276811 341729,276811 C 365176,276811 385011,257876 385011,233531 C 385011,210088 365176,190251 341729,190251 C 329107,190251 317383,195661 309272,204678 L 304761 202875 C 306565,193858 307469,184842 307469,175825 C 307469,144267 296651,115413 275911,92872 L 277714 91068 C 282219,92872 286730,93773 291235,93773 C 312879,93773 330910,75740 330910,54100 C 330910,32460 312879,14427 291235,14427 C 269597,14427 251566,32460 251566,54100 C 251566,59510 252464,64920 255172,70330 L 253369 73035 C 232630,58608 208284,51395 183040,51395 C 154184,51395 125334,61314 103690,80248 L 99185 74838 C 102791,67625 104594,59510 104594,51395 C 104594,23443 81147,0 52297,0 Z M 52297 104593 C 61313,104593 70329,102790 77541,98282 L 82951 102790 C 77541,110003 73036,117216 69430,125331 L 63116 123528 C 61313,115413 55904,109102 48691,104593 C 49589,104593 51393,104593 52297,104593 Z" fill="#FFFFFF"/>
  <path d="M 334516 192054 C 321894,192054 311980,198366 305666,208284 L 287635 201973 C 290336,191153 292140,180332 292140,168611 C 292140,136151 278619,106396 256975,85658 L 268699 72133 C 273203,74838 278613,76641 284927,76641 C 302060,76641 315587,63116 315587,45984 C 315587,28853 302060,15328 284927,15328 C 267794,15328 254274,28853 254274,45984 C 254274,52297 256077,58608 259683,63116 L 247960 76641 C 228125,61313 202875,51394 175828,51394 C 145168,51394 116318,63116 95579,82953 L 79351 68526 C 83855,61313 87462,53198 87462,44181 C 86563,19836 67627,0 43282,0 C 18936,0 0,19836 0,43280 C 0,66723 19841,86559 43282,86559 C 53202,86559 62218,82953 69430,77543 L 85658 92871 C 77547,102789 70329,114511 65824,127134 L 45989 120823 C 45989,110003 36069,100085 25250,100085 C 13527,100085 4511,109101 4511,120823 C 4511,132544 13527,141561 25250,141561 C 32463,141561 38771,137954 42383,132544 L 62218 138856 C 60415,147873 58611,157791 58611,166808 C 58611,188448 64919,208284 74840,226318 L 61313 235334 C 55904,229924 48691,227219 40574,227219 C 24346,227219 10819,240745 10819,256974 C 10819,273204 24346,286729 40574,286729 C 56808,286729 70329,273204 70329,256974 C 70329,253368 69430,249761 68525,246154 L 82052 237138 C 103696,265089 137057,284024 175828,284024 C 184844,284024 192961,283123 201072,281319 L 207386 304763 C 198370,310172 192961,319188 192961,330007 C 192961,346241 206481,358863 221811,358863 C 238039,358863 250667,345336 250667,330007 C 250667,314683 237141,301156 221811,301156 C 220913,301156 220913,301156 220008,301156 L 213694 277713 C 245252,266893 270502,243449 284029,212793 L 302060 219104 C 302060,220907 302060,222711 302060,224514 C 302060,243449 317390,258778 336319,258778 C 355256,258778 370585,243449 370585,224514 C 370585,205580 353453,192054 334516,192054 Z M 266896 45984 C 266896,36067 275007,28853 284029,28853 C 293044,28853 301155,36968 301155,45984 C 301155,55001 293943,63116 284927,63116 C 275007,63116 266896,55903 266896,45984 Z M 32463 121724 C 32463,126233 28857,128938 25250,128938 C 21644,128938 18038,126233 18038,121724 C 18038,117216 21644,114511 25250,114511 C 28857,114511 32463,118118 32463,121724 Z M 56808 258778 C 56808,267794 49596,275909 40574,275909 C 31558,275909 24346,268696 24346,258778 C 24346,248859 31558,241646 40574,241646 C 49596,241646 56808,249761 56808,258778 Z M 237141 331810 C 237141,340832 229928,348044 220913,348044 C 211891,348044 204678,340832 204678,331810 C 204678,322794 211891,315582 220913,315582 C 229928,315582 237141,322794 237141,331810 Z M 72138 174922 L 120823 174922 C 121728,210087 134349,242548 155987,269597 C 110004,261482 74840,222711 72138,174922 Z M 155089 66723 C 133451,93773 120823,126233 119924,161398 L 72138 161398 C 74840,114511 110004,75740 155089,66723 Z M 278613 162299 L 229928 162299 C 229023,127134 216402,94675 194764,67625 C 240747,75740 275911,114511 278613,162299 Z M 133451 162299 C 135254,125331 149679,91969 174923,65821 C 200173,91969 214598,126233 216402,162299 L 133451 162299 Z M 133451 174922 L 216402 174922 C 214598,210989 200173,245252 174923,271401 C 149679,245252 135254,211891 133451,174922 Z M 229928 174922 L 278613 174922 C 275911,221809 240747,261482 194764,269597 C 216402,243449 229023,210087 229928,174922 Z M 43282 73035 C 27053,73035 13527,59510 13527,43280 C 13527,27050 27053,13525 43282,13525 C 59510,13525 73036,27050 73036,43280 C 73036,59510 60415,73035 43282,73035 Z M 334516 247056 C 322799,247056 313784,238039 313784,226318 C 313784,214596 322799,205580 334516,205580 C 346240,205580 355256,214596 355256,226318 C 355256,238039 346240,247056 334516,247056 Z" fill="#2D5967" transform="translate(9022,9013)"/>
</svg>