<svg xmlns="http://www.w3.org/2000/svg" viewBox="0 0 353023 385009" width="37" height="40">
  <path d="M 834 106528 L 1675 88913 C 2515,72137 12577,57877 26842,50329 C 28516,49489 29357,47812 30198,46135 C 32713,34391 40259,24326 52002,19293 C 57039,17615 62070,15938 67101,15938 C 67942,15938 69616,15938 70457,15938 C 72972,15938 73813,15099 74654,14259 C 83040,5033 94783,0 107367,0 C 124140,0 140080,9227 147626,25164 C 148466,26842 150141,27680 151823,28520 C 156853,29358 161884,31874 166081,34391 C 186210,46973 193763,73815 182020,94785 L 175308 107367 L 169437 115755 L 161050 109883 C 140914,95624 117428,88074 93108,88074 C 65426,88074 38584,98140 16774,115755 L 0 130015 L 834 106528 Z" fill="#FFFFFF" transform="translate(80289,5033)"/>
  <path d="M 111563 8388 C 127503,8388 140920,16776 147632,31036 C 149307,33552 151829,36068 155178,36907 C 160216,37746 164406,39424 168603,41940 C 187057,53683 193763,78009 182861,97301 L 175315 109045 L 171959 114077 L 166921 110722 C 145951,96462 121631,88074 96464,88074 C 67948,88074 40266,98140 17614,116593 L 7553 124981 L 7553 111561 L 8393 93946 C 9227,78848 18455,65427 31879,58716 C 34394,57039 36910,54522 36910,51167 C 39425,40262 46137,31874 56205,26842 C 60395,25164 65426,24325 69623,24325 C 70463,24325 71298,24325 72979,24325 L 73819 24325 C 76335,24325 78850,23486 81366,20970 C 88918,13421 99820,8388 111563,8388 Z M 111563 0 C 98139,0 84722,5871 75494,15938 L 74654 15938 C 72979,15938 72138,15938 70463,15938 C 64592,15938 58721,16776 53683,19292 C 41106,25164 31879,36068 29363,49489 C 29363,50328 28523,50328 28523,51167 C 12583,59555 2522,75492 841,93107 L 0 110722 L 0 124143 L 0 141758 L 13424 130014 L 23492 121626 C 43622,104851 69623,95624 96464,95624 C 119950,95624 142602,103173 162731,116593 L 167762 119949 L 174474 124143 L 179505 117433 L 182861 112399 L 182861 111561 L 182861 110722 L 189573 100657 C 202156,77170 194604,48651 171959,34391 C 166921,31036 161891,29358 156019,27680 C 155178,27680 155178,26842 154344,26842 C 146792,10065 130018,0 111563,0 Z" fill="#FFFFFF" transform="translate(77767,0)"/>
  <path d="M 50327 194604 C 31872,194604 14258,182861 7546,165247 L 2515 151823 L 0 141755 L 9227 139240 C 32713,133370 53683,119949 69616,100657 C 87231,79686 97299,52845 97299,25164 L 97299 0 L 114913 17615 L 127496 29358 C 139239,41101 144270,57877 140914,73815 C 140914,75492 140914,77170 141754,78848 C 149307,88074 151822,101495 148466,113239 C 146785,119110 143436,124981 138398,129176 C 139239,131692 138398,133370 139239,135048 C 140914,147626 136724,160210 129171,169437 C 120784,179505 108201,185377 94783,185377 C 91427,185377 87231,184536 83881,183696 C 83040,183696 83040,183696 82200,183696 C 80525,183696 79684,184536 78010,185377 C 73813,188733 68782,191248 63745,192923 C 59555,193764 55358,194604 50327,194604 Z" fill="#FFFFFF" transform="translate(195202,185375)"/>
  <path d="M 107367 20970 L 117435 31874 L 130018 43618 C 140920,54522 145117,69620 141761,83880 C 140920,87235 141761,89752 143436,92268 C 150148,100656 152663,112399 149307,122465 C 147632,127498 145117,132531 140920,136725 C 138405,139241 137564,141758 137564,145112 C 139245,156018 135889,167761 128337,176148 C 120791,185376 109048,190406 97305,190406 C 93949,190406 90593,190406 87237,189572 C 86396,189572 85562,189572 84722,189572 C 82206,189572 80525,190406 78010,192088 C 73819,194603 69623,197118 65426,198793 C 61236,200474 57039,200474 52849,200474 C 36069,200474 20136,190406 14265,174473 L 9227 161049 L 9227 155178 L 15099 153503 C 39425,146791 61236,133370 78010,114077 C 96464,92268 106532,64587 107367,36068 L 107367 20970 Z M 98980 0 L 98980 20131 L 98980 35230 C 98980,62071 88918,88074 72138,108205 C 57039,126659 36910,139241 13424,145112 L 7553 146791 L 0 149306 L 1681 156859 L 3356 162730 L 3356 163565 L 3356 164405 L 8393 177823 C 15939,197118 34394,209702 55365,209702 C 60395,209702 65426,208861 70463,207186 C 76335,205505 81366,202990 85562,199634 C 85562,199634 86396,198793 87237,198793 C 87237,198793 87237,198793 88078,198793 C 92268,199634 95624,200474 99820,200474 C 114079,200474 127503,193762 137564,182860 C 145951,172792 150148,158534 148473,145112 C 148473,144274 148473,144274 149307,144274 C 154344,139241 157700,133370 160216,126659 C 164406,113238 161050,99817 152663,88913 C 152663,88074 151823,88074 152663,87235 C 156860,69620 150988,51167 138405,38584 L 124981 26003 L 114919 15937 L 98980 0 Z" fill="#FFFFFF" transform="translate(191005,175308)"/>
  <path d="M 102113 194599 C 97083,194599 92886,193765 88696,192084 C 83659,190409 78628,187893 74431,184537 C 73597,184537 71916,183697 70241,183697 C 69400,183697 69400,183697 68560,183697 C 65210,184537 61013,185378 57657,185378 C 44240,185378 31656,179507 23270,169439 C 14876,160211 11527,147628 13202,135047 C 13202,133370 12361,131692 11527,130014 C 7330,125820 3974,119949 1459,114077 C -1897,102334 618,89752 8171,79686 C 9005,78008 9846,76331 9005,74654 C 5649,58716 10686,41940 22429,30197 L 35847 17615 L 53461 0 L 53461 25164 C 53461,52845 63529,79686 81984,100656 C 97923,119110 118893,132531 142379,138400 L 152441 140916 L 149925 151824 L 144894 164408 C 138182,182856 120568,194599 102113,194599 Z" fill="#FFFFFF" transform="translate(2496,185374)"/>
  <path d="M 51766 20132 L 51766 35230 C 51766,63749 62668,91430 81123,113239 C 97903,132531 119708,145952 144034,152664 L 149905 154339 L 148230 161051 L 143193 173634 C 136488,189567 121389,200476 104609,200476 C 100418,200476 96222,199635 92025,198794 C 87835,197120 82804,195438 79448,192089 C 77767,190408 75252,189567 72736,189567 C 71896,189567 71061,189567 70221,189567 C 66865,190408 63509,190408 60153,190408 C 48410,190408 36667,185377 29121,176149 C 21568,167763 18212,156020 19894,145111 C 19894,141758 19053,139242 16538,136725 C 12341,132531 9825,127498 8151,122465 C 5629,112400 8151,100657 14856,92268 C 16538,89752 17372,86397 16538,83880 C 13181,68782 17372,53683 28280,43618 L 40864 31036 L 51766 20132 Z M 60153 0 L 45895 14260 L 35827 25164 L 23249 36908 C 10666,49489 4795,67943 8985,85558 C 8985,86397 8985,86397 8985,87236 C 598,98140 -1917,112400 1439,124982 C 3113,131692 7310,137564 12341,142597 L 13181 143436 C 11500,156854 15697,170278 24084,181180 C 32471,192923 45895,198794 60993,198794 C 65184,198794 68540,197960 72736,197120 C 72736,197120 72736,197120 73577,197120 C 74411,197120 74411,197120 75252,197960 C 79448,201310 85320,203832 90350,205506 C 95381,207188 100418,208022 105449,208022 C 125579,208022 144874,195438 152421,176149 L 157458 163566 L 157458 162725 L 157458 161891 L 159133 155179 L 160807 146792 L 153261 145111 L 147390 143436 C 124745,137564 104609,124982 88676,106528 C 71061,86397 61834,60394 61834,33552 L 61834 18454 L 60153 0 Z" fill="#FFFFFF" transform="translate(0,176148)"/>
  <path d="M 107367 214733 C 63745,214733 23486,187892 7546,146790 L 5871 146790 L 5871 143435 C 1675,131692 0,119949 0,107367 C 0,47812 47812,0 107367,0 C 166921,0 214733,47812 214733,107367 C 214733,119949 213052,131692 208862,143435 L 208862 146790 L 207181 146790 C 191248,187053 151823,214733 107367,214733 Z" fill="#FFFFFF" transform="translate(67706,103169)"/>
  <path d="M 111563 8388 C 168603,8388 214733,54522 214733,111561 C 214733,124143 212218,135886 208862,146790 C 194604,186214 156019,214733 111563,214733 C 67107,214733 29357,186214 14258,146790 C 10909,135886 8387,124143 8387,111561 C 8387,54522 54524,8388 111563,8388 Z M 111563 0 C 50327,0 0,50328 0,111561 C 0,124143 1681,135886 5871,147629 L 5871 154339 L 8387 154339 C 26001,195441 66267,222282 111563,222282 C 156019,222282 197119,195441 214733,154339 L 217249 154339 L 217249 146790 C 221445,135047 223120,122465 223120,110722 C 223120,50328 172793,0 111563,0 Z" fill="#FFFFFF" transform="translate(63509,98977)"/>
  <path d="M 88912 79686 C 114079,79686 139239,87235 159369,102334 L 164406 105689 L 167762 100656 L 174467 88074 C 184536,68781 178664,44457 160209,32713 C 156019,30197 151823,28519 146792,27680 C 144276,27680 141754,25164 140080,22648 C 133368,8388 119109,0 104011,0 C 93108,0 82200,5033 73813,13421 C 72138,15937 68782,16776 65426,16776 C 59555,15937 54524,16776 48653,19292 C 38584,23486 31872,32713 29357,43618 C 28516,46973 26842,49489 24326,50328 C 10902,57039 2515,70459 841,85558 L 0 103173 L 0 116593 L 10068 108205 C 32713,89752 60395,79686 88912,79686 Z M 13418 86396 C 14258,75492 20130,66265 30198,61233 C 36069,57877 40259,52005 41940,45295 C 43615,38584 47812,32713 54524,30197 C 57039,29358 60395,28519 62911,28519 C 63751,28519 64586,28519 64586,28519 C 71298,29358 78010,26842 83040,21809 C 88912,15937 95624,12582 104011,12582 C 114913,12582 124981,18454 129177,28519 C 132527,34390 137564,39424 144276,40262 C 147626,41101 150982,41940 153497,44457 C 166921,52845 171118,69620 163565,83041 L 160209 88913 C 138405,75492 114079,67943 88071,67943 C 61230,67943 34388,76331 12583,91429 L 13418 86396 Z" fill="#2C5967" transform="translate(85320,8389)"/>
  <path d="M 135049 71298 C 133374,68781 132533,65427 133374,62910 C 136730,47812 132533,32713 121631,22648 L 109048 10904 L 98980 0 L 98980 15098 C 98980,43618 88078,71298 69623,93107 C 52849,112399 31879,126659 6712,132531 L 0 134206 L 1681 140077 L 6712 153501 C 13424,169441 28523,179502 45296,179502 C 49493,179502 53683,178668 57880,177827 C 62077,176146 67107,174471 70463,171115 C 72979,169441 76335,168600 79691,169441 C 94790,172790 110723,167759 120791,156017 C 128337,147630 131693,135887 130018,124985 C 130018,121626 130852,119110 133374,116593 C 137564,112399 140080,107367 141761,102334 C 144276,91429 141761,80525 135049,71298 Z M 129177 98140 C 128337,101495 126662,104850 124147,107367 C 119109,112399 116594,119110 117435,125819 C 118275,133371 115760,141758 110723,147630 C 104011,156017 93108,159373 82206,156857 C 75494,155176 68782,156857 62911,161047 C 60395,162729 57039,164403 53683,166085 C 38584,171115 22651,163569 17614,149305 L 15099 143433 C 39425,135887 61236,121626 77169,101495 C 94790,80525 105692,55361 108207,28519 L 111563 31874 C 119109,39424 122465,50328 119950,61233 C 118275,67943 119950,74654 124147,80525 C 130018,84719 131693,92268 129177,98140 Z" fill="#2C5967" transform="translate(200233,196281)"/>
  <path d="M 72778 93107 C 54323,71298 44261,43618 43421,15098 L 43421 0 L 33353 10904 L 20776 23486 C 9867,34391 5677,49489 9033,63749 C 9867,67104 9033,69621 7352,72137 C 640,80525 -1876,92268 1480,102334 C 3162,107367 5677,112399 9867,116593 C 12383,119110 13223,121626 13223,124985 C 10708,135887 14064,147630 21610,156017 C 31678,167759 47617,172790 62716,169441 C 66066,168600 69422,169441 71944,171115 C 76134,173631 80330,176146 84521,177827 C 88717,179502 92908,179502 97104,179502 C 113878,179502 129817,169441 135689,152660 L 140719 140077 L 142401 133371 L 136529 131690 C 111362,126659 89558,112399 72778,93107 Z M 123946 148470 C 118074,162729 102135,170275 87877,166085 C 84521,165244 82005,163569 78649,161047 C 74459,157698 69422,156017 65232,156017 C 63551,156017 61876,156017 60195,156857 C 49292,159373 38390,156017 31678,147630 C 26647,141758 24132,133371 24966,125819 C 25807,119110 23291,112399 18260,107367 C 15739,104850 14064,101495 13223,98140 C 11548,91429 12383,84719 16579,78848 C 20776,73814 22451,66265 20776,59555 C 18260,48651 21610,37746 29163,30197 L 32519 28519 C 35034,55361 45936,80525 63551,101495 C 80330,120787 101301,135046 125627,143433 L 123946 148470 Z" fill="#2C5967" transform="translate(8345,196281)"/>
  <path d="M 200475 138403 C 204672,127498 206346,115755 206346,103173 C 206346,46135 160216,0 103176,0 C 46137,0 0,46135 0,103173 C 0,115755 2515,127498 5871,138403 C 20136,177827 58721,206346 103176,206346 C 147632,206346 186217,177827 200475,138403 Z M 141761 131692 L 130018 143436 L 125821 147630 C 120791,163567 113238,177827 103176,190408 C 93108,177827 85562,163567 80525,148468 L 74654 142597 L 62911 130854 L 57880 125821 L 15099 125821 C 13424,118271 11743,110722 11743,103173 C 11743,95624 12583,88913 14265,81364 L 57039 81364 L 62911 75492 L 74654 63749 L 79691 58717 C 84722,42779 92268,28520 102336,15099 C 112404,28520 120791,43618 125821,59555 L 130018 63749 L 141761 75492 L 147632 81364 L 191248 81364 C 192929,88074 193763,95624 193763,103173 C 193763,110722 192929,119110 190413,125821 L 146792 125821 L 141761 131692 Z M 187892 69621 L 141761 69621 C 137564,49490 129177,30197 116594,13421 C 149307,18454 176149,40262 187892,69621 Z M 89752 13421 C 78010,30197 69623,49490 64592,69621 L 18455 69621 C 30198,40262 57039,18454 89752,13421 Z M 19295 138403 L 65426 138403 C 69623,157695 78010,176987 89752,192925 C 57880,188731 31038,166922 19295,138403 Z M 116594 192925 C 128337,176149 136730,157695 140920,138403 L 187057 138403 C 175315,166922 148473,188731 116594,192925 Z" fill="#2C5967" transform="translate(71896,107366)"/>
  <path d="M 47812 67943 C 49487,67104 51162,67104 52843,66265 L 60389 72137 L 72132 60394 L 66260 52845 C 67101,51167 67942,49489 67942,47812 L 77169 46973 L 77169 30197 L 67942 29358 C 67101,27680 67101,26003 66260,24326 L 72132 16776 L 60389 5033 L 52843 10905 C 51162,10065 49487,9227 47812,9227 L 46971 0 L 30191 0 L 29357 9227 C 27676,10065 26001,10065 24320,10905 L 16774 5033 L 5031 17615 L 10902 25164 C 10062,26842 9221,28520 9221,30197 L 0 31036 L 0 47812 L 9221 48651 C 10062,50328 10062,52006 10902,53683 L 5031 60394 L 16774 72137 L 24320 66265 C 26001,67104 27676,67943 29357,67943 L 30191 77170 L 46971 77170 L 47812 67943 Z M 38584 22648 C 47812,22648 55358,30197 55358,39424 C 55358,48651 47812,56200 38584,56200 C 29357,56200 21804,48651 21804,39424 C 21804,30197 29357,22648 38584,22648 Z" fill="#2C5967" transform="translate(136488,171956)"/>
</svg>