<svg xmlns="http://www.w3.org/2000/svg" viewBox="0 0 346509 385010" width="36" height="40">
  <path d="M 173255 0 C 144841,0 0,2753 0,55916 L 0 330923 C 0,382258 144841,385011 173255,385011 C 201675,385011 346509,382258 346509,330923 L 346509 55916 C 346509,2753 202593,0 173255,0 Z" fill="#FFFFFF"/>
  <path d="M 168667 375847 C 151252,375847 0,374012 0,326341 L 0 55005 C 0,54088 0,54088 0,53170 C 0,52252 0,51335 0,51335 C 0,13751 90747,0 168667,0 C 246587,0 337340,13751 337340,51335 C 337340,52252 337340,53170 337340,53170 C 337340,54088 337340,54088 337340,55005 L 337340 326341 C 337340,374012 186088,375847 168667,375847 Z" fill="#FFFFFF" transform="translate(4588,4581)"/>
  <path d="M 173255 9170 C 252092,9170 337346,23832 337346,55916 C 337346,56834 337346,57752 337346,57752 C 337346,58669 337346,58669 337346,59587 L 337346 330923 C 337346,366678 230089,375841 173255,375841 C 116421,375841 9170,366678 9170,330923 L 9170 59587 C 9170,58669 9170,58669 9170,57752 C 9170,56834 9170,55916 9170,55916 C 9170,23832 94424,9170 173255,9170 Z M 173255 0 C 144841,0 0,2753 0,55916 C 0,56834 0,57752 0,57752 C 0,58669 0,58669 0,59587 L 0 330923 C 0,382258 144841,385011 173255,385011 C 201675,385011 346509,382258 346509,330923 L 346509 59587 C 346509,58669 346509,58669 346509,57752 C 346509,56834 346509,55916 346509,55916 C 346509,2753 202593,0 173255,0 Z" fill="#FFFFFF"/>
  <path d="M 164085 0 C 85254,0 0,14669 0,46753 L 0 321760 C 0,357514 107251,366677 164085,366677 C 220925,366677 328177,357514 328177,321760 L 328177 46753 C 328177,14669 242922,0 164085,0 Z M 54999 26585 C 84337,19251 122838,15586 164085,15586 C 205339,15586 243840,19251 273171,26585 C 306173,34837 313508,44000 313508,46753 C 313508,49506 306173,58669 273171,66921 C 243840,73338 205339,77002 164085,77002 C 122838,77002 84337,73338 54999,66004 C 22914,57752 15586,49506 15586,46753 C 15586,44000 22914,34837 54999,26585 Z M 15586 174172 C 25667,181507 40336,188841 59586,188841 C 65086,188841 90753,187924 111839,167756 C 121002,176007 138418,188841 164085,188841 C 169590,188841 195258,187924 216337,167756 C 225507,176007 242922,188841 268590,188841 C 273171,188841 294257,187924 312590,174172 L 312590 242011 C 296092,261262 273171,262173 268590,262173 C 242005,262173 225507,243840 222754,240176 L 216337 232841 L 209921 240176 C 193423,261262 168673,262173 164085,262173 C 137506,262173 121002,243840 118256,240176 L 111839 232841 L 105422 240176 C 88918,261262 64168,262173 59586,262173 C 35748,262173 20168,247510 15586,242011 L 15586 174172 Z M 312590 153087 C 296092,172337 273171,173255 268590,173255 C 242005,173255 225507,154922 222754,151258 L 216337 143923 L 209921 151258 C 193423,172337 168673,173255 164085,173255 C 137506,173255 121002,154922 118256,151258 L 111839 143923 L 105422 151258 C 88918,172337 64168,173255 59586,173255 C 35748,173255 20168,158592 15586,153087 L 15586 67839 C 44000,85254 105422,92589 164085,92589 C 222754,92589 285094,84337 312590,67839 L 312590 153087 Z M 273171 340092 C 243840,347427 205339,351098 164085,351098 C 122838,351098 84337,347427 54999,340092 C 22003,331847 14669,323595 14669,320842 L 14669 262173 C 24750,269507 39419,276842 58669,276842 C 64168,276842 89836,275924 110921,255756 C 120085,264008 137506,276842 163174,276842 C 168673,276842 194340,275924 215420,255756 C 224589,264008 242005,276842 267672,276842 C 272260,276842 293339,275924 311672,262173 L 311672 320842 C 312590,323595 305256,332758 273171,340092 Z" fill="#2D5967" transform="translate(9169,9163)"/>
</svg>