<svg xmlns="http://www.w3.org/2000/svg" viewBox="0 0 385010 302117" width="40" height="32">
  <path d="M 377984 250129 C 376265,250129 376117,250129 373608,248191 L 372247 247190 C 371041,246278 369771,245464 368449,244751 C 366832,243808 365125,243044 363354,242454 C 361281,241774 359144,241318 356969,241094 C 355731,241016 354486,241016 353241,241094 C 345842,240991 338642,243532 332951,248261 C 331083,249699 330583,249981 329864,250129 L 328575 250129 C 326855,250129 326713,250129 324198,248191 C 319077,243968 312757,241459 306128,241023 L 306128 131590 L 308355 131590 C 315574,131295 322767,130461 329864,129081 L 333451 128362 L 339258 126861 L 340189 126861 L 340766 126861 C 344469,125584 348024,123922 351380,121907 L 353889 120476 C 355615,119366 357245,118121 358765,116748 C 360267,115445 361596,113950 362706,112301 C 364002,110658 365022,108817 365722,106853 C 366350,104979 366665,103016 366652,101040 L 366652 28690 C 366286,25359 365163,22157 363373,19321 C 361583,16491 359176,14098 356327,12340 L 353748 10613 L 351162 9253 C 345226,6475 338963,4447 332521,3228 L 329864 2586 L 329293 2586 C 327214,2156 325276,1867 323338,1579 C 318032,866 313014,359 308355,0 L 301181 0 C 296015,0 290927,0 286121,648 C 281308,1065 276521,1739 271779,2657 C 265959,3593 260242,5108 254717,7174 L 253638 7674 L 252561 8104 L 252060 8104 L 250340 8964 L 249910 8964 L 247401 10472 C 244726,12025 242306,13989 240227,16279 C 239547,16998 238925,17762 238366,18577 C 236088,21862 234888,25770 234921,29761 L 234921 31770 L 183149 8104 L 180063 6673 L 176983 8175 L 56937 66190 L 45823 71715 L 39367 74795 L 42525 81250 L 45174 86846 L 47112 90863 L 54287 90863 L 54287 241453 C 47838,242011 41716,244514 36717,248620 C 34208,250488 34060,250558 32341,250558 C 30621,250558 30474,250558 28042,248620 C 22196,243898 14893,241363 7386,241453 L 0 241453 L 0 292865 L 7174 292865 C 8605,292865 8605,292865 10684,294372 L 11262 294802 C 16992,299512 24204,302054 31622,301976 C 39047,302054 46253,299512 51989,294802 C 54428,293012 54569,292865 56295,292865 C 58015,292865 58156,292865 60665,294802 C 66389,299532 73576,302118 80993,302118 C 88418,302118 95604,299532 101328,294802 C 103837,293012 103978,292865 105698,292865 C 107425,292865 107566,292865 110004,294802 C 115734,299512 122947,302054 130371,301976 C 137847,301829 145020,299006 150591,294013 C 153100,292223 153247,292075 154967,292075 C 156687,292075 156828,292075 159266,294013 C 164996,298749 172202,301335 179633,301335 C 187064,301335 194270,298749 200000,294013 C 202509,292223 202650,292075 204376,292075 C 206096,292075 206237,292075 208676,294013 C 214406,298749 221605,301335 229043,301335 C 236473,301335 243673,298749 249410,294013 C 251919,292223 252060,292075 253780,292075 C 255500,292075 255647,292075 258085,294013 C 263815,298749 271015,301335 278452,301335 C 285883,301335 293083,298749 298813,294013 C 301322,292223 301470,292075 303190,292075 C 304909,292075 305057,292075 307495,294013 C 313225,298723 320438,301264 327856,301187 C 335286,301296 342505,298749 348223,294013 C 350732,292223 350880,292075 352599,292075 C 354319,292075 354460,292075 356969,294013 C 362693,298749 369912,301296 377336,301187 L 385011 301187 L 385011 250129 L 377984 250129 Z" fill="#FFFFFF"/>
  <path d="M 12263 69347 L 12263 224744 C 16607,225244 20810,226636 24596,228831 L 24596 65471 L 131154 14342 L 183573 39297 L 183573 25314 L 131083 0 L 11114 58303 L 0 63681 L 2650 69199 L 12263 69347 Z" fill="#2D5967" transform="translate(48980,14342)"/>
  <path d="M 12340 105987 L 12340 571 C 8104,571 4017,571 0,0 L 0 110646 C 3747,108259 7951,106674 12340,105987 Z" fill="#2D5967" transform="translate(286621,133169)"/>
  <path d="M 0 50988 L 72568 50988 L 72568 28754 C 68359,27849 64226,26579 60235,24955 L 60235 38649 L 12333 38649 L 12333 12404 L 42666 12404 C 40054,8791 38623,4460 38578,0 L 0 0 L 0 50988 Z" fill="#2D5967" transform="translate(193975,101328)"/>
  <path d="M 72857 0 L 0 0 L 0 50988 L 72857 50988 L 72857 0 Z M 60524 38649 L 12333 38649 L 12333 12404 L 60235 12404 L 60524 38649 Z" fill="#2D5967" transform="translate(92075,101328)"/>
  <path d="M 63321 72574 L 63321 0 L 0 0 L 0 72574 L 12404 72574 L 12404 41735 L 50988 41735 L 50988 72574 L 63321 72574 Z M 12404 29543 L 12404 12333 L 50988 12333 L 50988 29331 L 12404 29543 Z" fill="#2D5967" transform="translate(147652,166222)"/>
  <path d="M 362134 5948 C 361730,5602 361294,5294 360839,5018 C 359902,4255 358894,3587 357829,3009 C 355114,1482 352112,533 349012,212 L 346067 212 C 340189,212 334497,2297 330006,6089 C 328324,7630 326277,8721 324057,9247 C 323172,9324 322286,9324 321401,9247 C 319803,9285 318218,9003 316729,8425 C 315234,7848 313880,6982 312725,5878 C 308233,2079 302541,0 296663,0 C 290779,0 285088,2079 280596,5878 C 279184,7116 277554,8085 275796,8746 C 274564,9118 273281,9285 271991,9247 C 270990,9369 269982,9369 268981,9247 L 268192 9247 C 267493,9035 266819,8746 266183,8387 L 264323 7168 L 263315 6378 L 260235 4158 L 258939 3439 C 257007,2361 254928,1566 252772,1072 C 250963,680 249109,488 247254,501 C 241369,468 235665,2554 231192,6378 C 230050,7482 228703,8348 227227,8926 C 225751,9503 224172,9786 222588,9747 C 220990,9786 219399,9510 217910,8932 C 216421,8348 215061,7482 213906,6378 C 209414,2579 203728,501 197844,501 C 191966,501 186274,2579 181783,6378 C 180641,7482 179293,8348 177817,8926 C 176341,9503 174763,9786 173178,9747 C 171580,9786 169989,9510 168500,8932 C 167011,8348 165651,7482 164502,6378 C 160011,2579 154319,501 148435,501 C 142557,501 136865,2579 132373,6378 C 131237,7482 129883,8348 128408,8926 C 126932,9503 125353,9786 123768,9747 C 122126,9811 120483,9523 118962,8887 C 117948,8419 116986,7841 116094,7168 L 115093 6378 C 110614,2586 104935,507 99064,507 C 93199,507 87520,2586 83041,6378 C 80673,8547 77573,9754 74358,9754 C 71150,9754 68051,8547 65683,6378 C 61204,2586 55525,507 49654,507 C 43789,507 38110,2586 33631,6378 C 32476,7482 31115,8348 29627,8932 C 28138,9510 26547,9786 24955,9747 C 23364,9786 21792,9503 20310,8926 C 18833,8348 17486,7482 16350,6378 C 11813,2406 6019,167 0,70 L 0 12404 C 3299,12352 6488,13584 8887,15843 C 13379,19642 19071,21721 24955,21721 C 30833,21721 36525,19642 41017,15843 C 42165,14733 43526,13861 45014,13283 C 46503,12699 48094,12429 49692,12475 C 51277,12436 52856,12718 54332,13296 C 55807,13873 57155,14739 58297,15843 C 62789,19642 68481,21721 74358,21721 C 80243,21721 85935,19642 90426,15843 C 92781,13674 95861,12475 99064,12475 C 102265,12475 105352,13674 107707,15843 C 112199,19642 117890,21721 123768,21721 C 129652,21721 135338,19642 139830,15843 C 142185,13674 145271,12475 148473,12475 C 151675,12475 154755,13674 157117,15843 L 158406 16774 C 159382,17518 160415,18192 161486,18782 C 162718,19482 164014,20059 165362,20502 C 166941,21047 168577,21407 170239,21580 L 173178 21580 C 179062,21612 184767,19527 189239,15702 C 190381,14598 191729,13732 193205,13154 C 194681,12570 196259,12295 197844,12327 C 199442,12295 201034,12570 202522,13148 C 204011,13725 205371,14592 206520,15702 C 210999,19527 216697,21612 222588,21580 C 227933,21676 233143,19924 237359,16632 L 238649 15702 C 239547,14951 240504,14284 241517,13694 C 242127,13334 242775,13046 243455,12834 C 244681,12462 245971,12288 247254,12327 C 248852,12295 250437,12570 251925,13148 C 253414,13725 254775,14592 255930,15702 C 258406,17698 261191,19270 264175,20360 C 266697,21188 269341,21599 271991,21580 C 273852,21586 275700,21394 277516,21009 C 278998,20682 280435,20200 281815,19571 C 283560,18756 285216,17775 286762,16632 L 288058 15702 C 289349,14579 290798,13662 292358,12975 C 292897,12789 293449,12648 294007,12545 C 294892,12468 295778,12468 296663,12545 C 298261,12506 299846,12782 301335,13366 C 302824,13944 304184,14810 305339,15914 C 309812,19738 315516,21824 321401,21798 C 325488,21856 329518,20842 333092,18853 L 335454 17351 L 337462 15914 C 338630,14938 339907,14098 341267,13405 C 342788,12782 344424,12487 346067,12545 C 347664,12500 349256,12776 350751,13353 C 352240,13931 353600,14804 354749,15914 C 359221,19738 364920,21824 370810,21798 L 370810 9317 C 367589,9381 364470,8169 362134,5948 Z" fill="#2D5967" transform="translate(7174,247979)"/>
  <path d="M 359407 4519 C 357412,3133 355211,2068 352882,1362 C 350559,650 348140,284 345714,290 C 343853,278 342005,470 340189,862 C 336814,1599 333650,3095 330936,5238 L 329646 6168 C 327291,8337 324205,9537 321009,9537 C 317807,9537 314721,8337 312366,6168 L 310145 4590 C 308163,3165 305955,2074 303620,1362 C 301297,650 298877,284 296445,290 C 294591,278 292736,470 290927,862 C 287526,1599 284337,3095 281603,5238 C 281167,5507 280756,5822 280384,6168 C 278036,8376 274923,9582 271708,9537 C 268506,9582 265420,8369 263103,6168 L 260877 4590 C 258894,3165 256693,2074 254351,1362 C 252028,650 249615,284 247183,290 C 245322,278 243474,470 241659,862 C 238277,1580 235113,3082 232412,5238 C 231937,5488 231507,5803 231116,6168 C 228774,8376 225661,9582 222440,9537 C 219244,9582 216158,8369 213835,6168 L 211615 4590 C 209632,3165 207425,2074 205089,1362 C 202766,650 200347,284 197915,290 C 196060,278 194212,470 192396,862 C 189014,1580 185845,3082 183143,5238 C 182675,5488 182238,5803 181853,6168 C 179498,8337 176412,9537 173210,9537 C 170014,9537 166928,8337 164573,6168 L 162346 4590 C 160363,3165 158162,2074 155820,1362 C 153497,650 151085,284 148653,290 C 146798,278 144944,470 143128,862 C 139752,1599 136589,3095 133881,5238 C 133419,5507 132989,5816 132591,6168 C 130230,8337 127150,9537 123948,9537 C 120746,9537 117666,8337 115304,6168 L 113084 4590 C 111101,3165 108894,2074 106558,1362 C 104235,650 101816,284 99384,290 C 97530,278 95682,470 93866,862 C 90490,1599 87327,3095 84613,5238 C 84157,5507 83727,5816 83323,6168 C 80968,8337 77881,9537 74686,9537 C 71484,9537 68397,8337 66042,6168 L 63822 4590 C 61846,3152 59638,2062 57296,1362 C 54973,650 52554,284 50122,290 C 48293,278 46465,470 44674,862 C 41267,1580 38078,3082 35351,5238 L 34061 6168 C 31738,8369 28651,9582 25456,9537 C 22235,9582 19122,8376 16780,6168 L 14695 4590 C 12519,3043 10094,1875 7527,1150 C 5095,361 2554,-30 0,2 L 0 12405 C 3132,12373 6147,13586 8387,15781 C 12847,19631 18558,21723 24448,21659 C 30339,21710 36050,19618 40516,15781 C 42833,13573 45919,12367 49121,12405 C 52336,12360 55448,13573 57797,15781 C 62276,19567 67955,21652 73820,21652 C 79691,21652 85370,19567 89849,15781 C 92204,13586 95310,12380 98524,12405 C 101726,12367 104813,13573 107129,15781 C 111608,19605 117306,21691 123197,21659 C 129088,21723 134799,19631 139258,15781 C 141601,13573 144713,12360 147934,12405 C 151136,12367 154222,13573 156539,15781 C 161031,19573 166722,21659 172600,21659 C 178484,21659 184176,19573 188668,15781 C 191010,13573 194122,12360 197344,12405 C 200539,12367 203632,13573 205949,15781 C 210441,19573 216132,21659 222010,21659 C 227894,21659 233579,19573 238071,15781 C 240420,13573 243532,12360 246754,12405 C 249949,12367 253036,13573 255359,15781 C 259850,19573 265536,21659 271420,21659 C 277297,21659 282989,19573 287481,15781 C 289829,13573 292942,12360 296157,12405 C 299359,12367 302445,13573 304762,15781 C 309254,19573 314945,21659 320830,21659 C 326707,21659 332399,19573 336891,15781 C 339258,13606 342351,12399 345566,12399 C 348781,12399 351874,13606 354242,15781 C 358702,19631 364413,21723 370310,21659 L 370310 9537 C 367089,9595 363970,8382 361628,6168 L 359407 4519 Z" fill="#2D5967" transform="translate(7174,272502)"/>
  <path d="M 1792 100828 C 2177,101386 2607,101912 3082,102400 C 3524,102978 4031,103510 4590,103979 L 6450 105486 L 8530 106918 C 12373,109285 16525,111095 20869,112301 C 22801,112943 24880,113443 27106,113950 L 30475 114592 C 34877,115478 39337,116100 43816,116459 C 48474,116889 53210,117101 58158,117101 C 60596,117101 63105,117101 65325,117101 C 72339,116838 79320,115997 86193,114592 L 89638 113873 C 91499,113443 93296,113013 94945,112513 L 95805 112513 L 96517 112513 C 99815,111506 103011,110190 106059,108567 L 108138 107347 C 109544,106500 110865,105512 112078,104408 C 113150,103465 114112,102406 114946,101258 C 115652,100045 116185,98742 116525,97382 C 116891,96195 117083,94963 117103,93725 L 117103 23377 L 117103 22376 C 116878,20053 116114,17820 114869,15856 C 113625,13886 111930,12237 109929,11043 L 107849 9683 L 105700 8535 C 100444,5961 94875,4081 89131,2939 C 88124,2650 87091,2432 86052,2297 L 79955 1290 C 75297,648 70561,218 65614,0 L 58440 0 C 53422,0 48693,0 44098,648 C 39510,1290 35063,1720 30764,2509 C 25515,3536 20381,5050 15415,7026 L 14414 7026 L 13554 7456 L 13195 7456 L 11687 8175 L 11257 8175 L 8959 10113 C 6945,11358 5109,12879 3511,14630 C 3024,15131 2588,15683 2222,16280 C 1522,17332 945,18461 502,19648 C 156,20861 -18,22119 1,23377 L 1 93725 C -11,94963 156,96195 502,97382 C 823,98569 1253,99724 1792,100828 Z M 12187 23094 C 12187,22228 13477,21227 15563,20008 C 18399,18359 21434,17082 24597,16209 C 29275,14708 34075,13604 38939,12911 C 45645,12064 52401,11660 59158,11692 C 65948,11647 72730,12102 79455,13052 C 84460,13732 89401,14836 94226,16350 C 97300,17313 100258,18609 103043,20226 C 105052,21445 106059,22517 106059,23377 C 106059,24236 105052,25244 103043,26463 C 100265,28106 97306,29428 94226,30403 C 89388,31860 84454,32938 79455,33631 C 72730,34606 65948,35087 59158,35068 C 52395,35087 45632,34606 38939,33631 C 33934,32944 28999,31866 24167,30403 C 21062,29421 18084,28099 15274,26463 C 13336,25244 12335,24166 12335,23377 L 12187 23094 Z M 10609 38078 C 17430,41292 24674,43519 32124,44674 C 40626,46150 49238,46869 57869,46830 L 63387 46830 L 68193 46830 L 75797 46253 L 82176 45252 L 89709 43814 L 91640 42884 L 95375 41876 L 99315 40587 L 102972 39008 L 103550 39008 L 104840 38366 L 104840 58515 C 104840,59375 103833,60453 101824,61672 C 99033,63341 96049,64662 92937,65612 C 88092,67133 83125,68218 78088,68840 C 71350,69854 64542,70329 57728,70277 C 50907,70329 44098,69854 37360,68840 C 32323,68218 27356,67133 22518,65612 C 19406,64662 16416,63341 13625,61672 C 11616,60453 10609,59375 10609,58515 L 10609 38078 Z M 10609 72928 C 17385,76271 24649,78523 32124,79601 C 40633,81013 49244,81706 57869,81680 L 63817 81680 C 71530,81744 79230,81147 86841,79883 C 93148,78882 99264,76925 104981,74076 L 104981 93083 C 104981,93943 103980,94944 101971,96163 C 99174,97831 96190,99159 93078,100109 C 88240,101630 83266,102708 78236,103337 C 71491,104312 64683,104787 57869,104768 C 51054,104787 44246,104312 37501,103337 C 32426,102766 27408,101733 22518,100250 C 19406,99301 16416,97979 13625,96304 C 11616,95091 10609,94084 10609,93224 L 10609 72928 Z" fill="#2D5967" transform="translate(242023,7315)"/>
</svg>