<svg xmlns="http://www.w3.org/2000/svg" viewBox="0 0 385010 367901" width="40" height="39">
  <path d="M 154004 359159 C 126026,359159 100616,345177 85793,320709 C 47292,313721 19251,278764 19251,239441 C 19251,237693 19251,235945 19251,234197 C 6994,219342 0,200116 0,180017 C 0,159919 6994,140693 19251,125837 C 19251,124090 19251,122342 19251,120594 C 19251,80396 48126,45442 86627,38450 C 96253,23595 110241,11360 126860,5243 C 135651,1748 145277,0 154902,0 L 156635 0 C 173255,874 186409,13982 186409,31460 L 186409 327704 C 186409,344304 173255,358286 157533,359159 C 155736,359159 154902,359159 154004,359159 Z" fill="#FFFFFF" transform="translate(4364,3499)"/>
  <path d="M 158368 8739 C 159266,8739 159266,8739 160100,8739 C 174153,8739 185511,20973 185511,35829 L 185511 332070 C 185511,346925 174987,358289 160998,359162 C 160100,359162 159266,359162 158368,359162 C 131224,359162 106776,345179 92723,321585 C 56019,316342 27977,283134 27977,243810 C 27977,242062 27977,239441 27977,236819 C 15721,221089 8727,202738 8727,183513 C 8727,164288 15721,145936 27977,131081 C 27977,128459 27977,126711 27977,124090 C 27977,84766 56019,51559 93622,46315 C 102348,31459 116402,20099 133021,13108 C 140849,10486 149640,8739 158368,8739 Z M 158368 0 C 148743,0 138283,1748 129492,5243 C 112872,11360 97985,23595 88360,38450 C 49025,46315 19251,82144 19251,124090 C 19251,125838 19251,126711 19251,128459 C 6994,143315 0,163414 0,183513 C 0,203612 6994,222837 19251,238567 C 19251,239441 19251,241188 19251,242062 C 19251,283134 48126,319839 87526,327700 C 103247,352167 129492,366149 158368,366149 C 159266,366149 160100,366149 160998,366149 C 179350,365277 194238,349549 194238,330324 L 194238 35829 C 194238,16604 179350,874 160100,0 C 159266,0 159266,0 158368,0 Z" fill="#FFFFFF"/>
  <path d="M 28876 358290 C 12256,357410 0,344307 0,326828 L 0 31459 C 0,14856 13090,874 29774,0 L 31506 0 C 41131,0 49859,1748 58650,5243 C 75269,11360 89258,22721 98883,38450 C 137384,45442 166260,79522 166260,120594 C 166260,122342 166260,124090 166260,125838 C 178516,140693 185510,159918 185510,180017 C 185510,200116 178516,219341 166260,234197 C 166260,235945 166260,237693 166260,239441 C 166260,279638 137384,314591 99717,320712 C 84895,345180 59484,359162 31506,359162 C 30608,358290 29774,358290 28876,358290 Z" fill="#FFFFFF" transform="translate(195136,4375)"/>
  <path d="M 35870 8739 C 44598,8739 53389,10486 62115,13982 C 77836,20099 91890,31459 101515,47189 C 138219,52433 167095,85639 167095,124964 C 167095,127585 167095,129333 167095,131955 C 179351,146810 186345,165162 186345,184387 C 186345,203612 179351,221963 167095,236819 C 167095,239441 167095,241188 167095,243810 C 167095,282260 139117,315469 102349,321585 C 87462,343434 63014,358289 35870,358289 C 34972,358289 34138,358289 33240,358289 C 19251,357410 8727,346052 8727,331197 L 8727 35829 C 8727,20973 20085,9613 34138,8739 C 34972,8739 35870,8739 35870,8739 Z M 35870 0 C 34972,0 34138,0 34138,0 C 14888,874 0,15730 0,35829 L 0 332070 C 0,351294 14888,367022 33240,367901 C 34138,367901 34972,367901 35870,367901 C 64746,367901 90991,353046 106712,329452 C 146112,321585 174987,284881 174987,243810 C 174987,242936 174987,241188 174987,240314 C 187244,224584 194238,205359 194238,185261 C 194238,165162 187244,145062 174987,130207 C 174987,128459 174987,127585 174987,125838 C 174987,83892 146112,48063 105878,40198 C 96253,25343 81366,13108 64746,6991 C 55955,1748 45495,0 35870,0 Z" fill="#FFFFFF" transform="translate(190773,0)"/>
  <path d="M 151373 0 C 141748,0 133021,1748 123396,5243 C 107675,11360 93622,22721 83996,38450 C 47292,43694 18416,76901 18416,116224 C 18416,118846 18416,120594 18416,123216 C 6994,137197 0,155549 0,174774 C 0,193999 6994,212350 19251,227206 C 19251,229828 19251,231575 19251,234197 C 19251,272647 47292,305852 83996,311973 C 98050,335568 122497,349550 149641,349550 C 150539,349550 151373,349550 152272,349550 C 166261,348671 176784,337314 176784,322459 L 176784 27090 C 176784,12234 165426,0 151373,0 Z M 151373 329446 C 150539,329446 150539,329446 149641,329446 C 128658,329446 108509,317216 98884,297118 L 96253 292746 L 91055 292746 C 61281,290125 38501,264783 38501,234197 C 38501,231575 38501,228954 39400,225458 L 40298 220215 L 36768 216720 C 25410,205359 19251,190503 19251,174774 C 19251,159044 25410,144188 36768,132828 L 40298 129333 L 39400 124090 C 38501,120594 38501,117972 38501,115350 C 38501,84765 62180,58549 91055,56801 L 96253 56801 L 98884 52432 C 105878,39324 116402,29711 130391,24468 C 136551,21847 143545,20973 149641,20973 C 150539,20973 150539,20973 151373,20973 C 154903,20973 158432,24468 158432,27964 L 158432 120594 L 112872 120594 L 109407 117098 C 111140,113603 112038,109234 112038,105738 C 112038,90882 99782,77774 84895,77774 C 70008,77774 57752,90008 57752,105738 C 57752,121468 70008,133702 84895,133702 C 88424,133702 91890,132828 95418,131081 L 102413 138071 C 104145,139819 106776,140693 109407,140693 L 157534 140693 L 157534 166035 L 91055 166035 C 87526,155549 77002,148558 65644,148558 C 50757,148558 38501,160792 38501,176522 C 38501,192251 50757,204485 65644,204485 C 77002,204485 86627,197494 91055,187008 L 157534 187008 L 157534 211477 L 107675 211477 C 105044,211477 102413,212350 100681,214098 L 94520 218467 C 91055,216720 87526,215846 83996,215846 C 69174,215846 56917,228080 56917,243810 C 56917,259539 69174,271773 83996,271773 C 98884,271773 111140,259539 111140,243810 C 111140,239440 110306,235945 108509,232449 L 112038 228954 L 157534 228954 L 157534 323331 C 157534,326828 154903,329446 151373,329446 Z M 83996 111855 C 79633,111855 76168,108360 76168,103991 C 76168,99621 79633,96126 83996,96126 C 88424,96126 91890,99621 91890,103991 C 91890,108360 88424,111855 83996,111855 Z M 73537 174774 C 73537,179143 70008,182639 65644,182639 C 61281,182639 57752,179143 57752,174774 C 57752,170404 61281,166909 65644,166909 C 70008,166909 73537,170404 73537,174774 Z M 91890 243810 C 91890,248179 88424,251674 83996,251674 C 79633,251674 76168,248179 76168,243810 C 76168,239440 79633,235945 83996,235945 C 88424,235945 91890,239440 91890,243810 Z" fill="#2D5967" transform="translate(8727,8751)"/>
  <path d="M 177683 175648 C 177683,156423 170689,138072 158432,123216 C 158432,120594 158432,118846 158432,116225 C 158432,76901 130391,43694 92788,38450 C 84061,23595 70008,12234 53389,5243 C 44662,1748 35036,0 25411,0 C 11422,0 0,12234 0,27090 L 0 323334 C 0,338189 10524,349547 24513,350420 C 25411,350420 26310,350420 27144,350420 C 54287,350420 78799,336438 92788,312843 C 129556,307600 157534,274395 157534,235071 C 157534,233323 157534,230702 157534,228080 C 170689,213225 177683,194873 177683,175648 Z M 138283 226332 C 139182,229828 139182,232449 139182,235071 C 139182,265657 116402,290999 86627,293620 L 81430 293620 L 78799 298861 C 69174,318965 49025,331195 28042,331195 C 27144,331195 27144,331195 26310,331195 C 22780,331195 20149,327704 20149,324207 L 20149 229828 L 65645 229828 L 69174 233323 C 67377,236819 66543,241188 66543,244684 C 66543,259539 78799,272647 93687,272647 C 108509,272647 120765,260413 120765,244684 C 120765,228954 108509,216720 93687,216720 C 90157,216720 86627,217594 83163,219341 L 76168 212351 C 74436,210603 71805,209729 69174,209729 L 20149 209729 L 20149 185261 L 86627 185261 C 90157,195747 100681,202738 112039,202738 C 126925,202738 139182,190504 139182,174774 C 139182,159045 126925,146810 112039,146810 C 100681,146810 91055,153801 86627,164288 L 20149 164288 L 20149 138945 L 70008 138945 C 72639,138945 75270,138072 77002,136324 L 84061 129333 C 87526,131081 91055,131955 94521,131955 C 109407,131955 121664,119720 121664,103991 C 121664,88261 109407,76027 94521,76027 C 79633,76027 67377,88261 67377,103991 C 67377,108360 68275,111855 70008,115351 L 66543 118846 L 20149 118846 L 20149 27964 C 20149,24469 22780,20973 27144,20973 C 28042,20973 28042,20973 28876,20973 C 35036,20973 42031,21847 48126,24469 C 61281,29712 72639,39324 79633,52432 L 81430 56802 L 86627 56802 C 116402,59423 139182,84765 139182,115351 C 139182,117972 139182,120594 138283,124090 L 137385 129333 L 140914 132829 C 152272,144188 158432,159045 158432,174774 C 158432,190504 152272,205359 140914,216720 L 137385 220215 L 138283 226332 Z M 93687 236819 C 98050,236819 101515,240314 101515,244684 C 101515,249053 98050,252548 93687,252548 C 89258,252548 85793,249053 85793,244684 C 85793,240314 89258,236819 93687,236819 Z M 104146 175648 C 104146,171278 107675,167783 112039,167783 C 116402,167783 119931,171278 119931,175648 C 119931,180017 116402,183513 112039,183513 C 107675,183513 104146,180017 104146,175648 Z M 85793 104865 C 85793,100495 89258,97000 93687,97000 C 98050,97000 101515,100495 101515,104865 C 101515,109234 98050,112729 93687,112729 C 89258,112729 85793,109234 85793,104865 Z" fill="#2D5967" transform="translate(198601,7875)"/>
</svg>