<svg xmlns="http://www.w3.org/2000/svg" viewBox="0 0 385019 293040" width="40" height="31">
  <path d="M 0 0 L 23807 0 L 98755 137846 L 95098 141497 L 92338 141497 L 90542 141497 C 87782,141497 85023,142410 81366,143323 L 77708 144236 L 0 0 Z" fill="#FFFFFF" transform="translate(200141,81250)"/>
  <path d="M 29261 9129 L 101450 142410 C 100552,142410 100552,142410 99653,142410 C 95996,142410 92339,143323 89579,144236 L 16491 9129 L 29261 9129 Z M 34780 0 L 29261 0 L 15529 0 L 0 0 L 7315 13693 L 80467 148800 L 84125 155191 L 91440 152451 C 94135,151539 95996,151539 98756,151539 L 99653 151539 L 103311 151539 L 106070 148800 L 111525 144236 L 109728 136932 L 37475 4564 L 34780 0 Z" fill="#FFFFFF" transform="translate(191927,76684)"/>
  <path d="M 6353 20085 L 6353 15516 C 6353,11865 5454,8214 3658,5474 L 0 0 L 124294 0 L 116081 8214 C 113322,10954 110562,14605 108766,18256 L 107803 20996 L 6353 20996 L 6353 20085 Z" fill="#FFFFFF" transform="translate(137127,246479)"/>
  <path d="M 119738 9131 C 116081,12782 113322,16434 111525,20996 L 16427 20996 C 16427,17345 14631,12782 13732,9131 L 119738 9131 Z M 142582 0 L 120637 0 L 13732 0 L 0 0 L 5454 12782 C 6417,15522 7315,18262 8214,21914 L 9112 30127 L 17390 30127 L 112423 30127 L 117877 30127 L 120637 24647 C 122498,20996 124294,18262 127053,15522 L 142582 0 Z" fill="#FFFFFF" transform="translate(130711,241911)"/>
  <path d="M 14624 137845 C 11884,136020 8226,134193 5486,133281 L 0 131455 L 71310 0 L 95053 0 L 19193 139671 L 14624 137845 Z" fill="#FFFFFF" transform="translate(88661,80339)"/>
  <path d="M 93237 9129 L 22850 137845 C 19193,136020 16453,134194 11884,132368 L 79505 8216 L 93237 8216 M 108766 0 L 93237 0 L 79505 0 L 74050 0 L 71291 4564 L 4569 127804 L 0 137845 L 10966 141497 C 13706,142410 16453,143323 19193,145148 L 27419 150626 L 31988 141497 L 102349 12780 L 108766 0 Z" fill="#FFFFFF" transform="translate(82264,76684)"/>
  <path d="M 0 76679 L 918 65726 C 1829,52950 9144,41990 21022,35605 C 22851,25563 29248,17343 38392,13693 C 42043,11867 46618,10954 50270,10954 C 51187,10954 52098,10954 53016,10954 C 60325,3651 69469,0 79524,0 C 93231,0 105115,7303 110601,19172 C 110601,19172 110601,20083 111512,20083 C 115169,20994 118827,22823 122485,24645 C 138013,34688 143532,54772 134356,71206 L 131597 76679 L 0 76679 Z" fill="#FFFFFF" transform="translate(4568,211792)"/>
  <path d="M 84093 9129 C 95970,9129 106026,15519 111512,25563 C 112423,27385 113341,28296 115169,28296 C 118821,29214 121567,30125 125193,31954 C 138925,40168 143481,58423 136165,73028 L 134369 75768 L 10055 75768 L 10966 69377 C 11884,58423 18282,48381 28337,42907 C 30166,41990 31077,41079 31077,39256 C 32906,31036 38392,24645 45701,20997 C 47529,20997 51187,20083 54838,20083 C 55756,20083 56667,20083 57585,20083 C 57585,20083 57585,20083 58496,20083 C 60325,20083 61242,19171 62153,18258 C 67640,12780 74949,9129 84093,9129 Z M 84093 0 C 74038,0 63982,3652 56667,10955 C 56667,10955 55756,10955 54838,10955 C 50269,10955 45701,11867 41132,13694 C 31077,18258 24679,26474 21939,36516 C 10055,42907 2740,55683 911,69377 L 911 75768 L 0 85811 L 10055 85811 L 133470 85811 L 138925 85811 L 141684 81248 L 143481 78508 C 153555,60252 147138,36516 129813,25563 C 126155,23734 122498,21912 118821,20997 C 111512,7303 97799,0 84093,0 Z" fill="#FFFFFF" transform="translate(0,207230)"/>
  <path d="M 0 76679 L 963 65726 C 1861,52950 9176,41990 21047,35605 C 22908,25563 29261,17343 38437,13693 C 42095,11867 46651,10954 50308,10954 C 51206,10954 52105,10954 53067,10954 C 60383,3651 69495,0 79569,0 C 93237,0 105108,7303 110626,19172 C 110626,19172 110626,20083 111525,20083 C 115183,20994 118840,22823 122497,24645 C 138026,34688 143545,54772 134369,71206 L 131674 76679 L 0 76679 Z" fill="#FFFFFF" transform="translate(241273,211792)"/>
  <path d="M 83162 9129 C 95097,9129 105108,15519 110626,25563 C 111525,27385 112423,28296 114284,28296 C 117942,29214 120636,30125 124294,31954 C 138026,40168 142582,58423 135267,73028 L 133470 75768 L 10074 75768 L 10973 69377 C 11871,58423 18288,48381 28362,42907 C 30159,41990 31122,41079 31122,39256 C 32918,31036 38373,24645 45688,20997 C 48447,19171 52105,19171 55762,19171 C 56660,19171 57623,19171 58522,19171 C 58522,19171 58522,19171 59420,19171 C 61280,19171 62179,18258 63077,17345 C 67634,12780 74948,9129 83162,9129 Z M 83162 0 C 73152,0 63077,3652 55762,10955 C 55762,10955 54864,10955 53966,10955 C 49345,10955 44789,11867 40234,13694 C 30159,18258 23806,26474 21047,36516 C 9176,42907 1861,55683 0,69377 L 898 75768 L 0 85811 L 10074 85811 L 133470 85811 L 138925 85811 L 141684 81248 L 143545 78508 C 153555,60252 147202,36516 129813,25563 C 126155,23734 122497,21912 118840,20997 C 111525,7303 97793,0 83162,0 Z" fill="#FFFFFF" transform="translate(236717,207230)"/>
  <path d="M 0 76682 L 924 65727 C 1822,52947 9138,41992 21009,35602 C 22870,25560 29222,17345 38398,13693 C 42056,11867 46612,10954 50270,10954 C 51168,10954 52066,10954 53029,10954 C 60344,3651 69456,0 79531,0 C 93198,0 105134,7303 110588,19170 C 110588,19170 110588,20083 111486,20083 C 115144,20996 118802,22822 122459,24648 C 137988,34689 143506,54773 134330,71205 L 131635 76682 L 0 76682 Z" fill="#FFFFFF" transform="translate(121573,4568)"/>
  <path d="M 84972 9129 C 96907,9129 106917,15519 112436,25561 C 113334,27386 114233,28300 116093,29213 C 119751,30125 122446,31038 126104,32864 C 139836,41080 144392,59338 137077,73944 L 135280 76683 L 11884 76683 L 12782 70292 C 13681,59338 20098,49296 30172,43819 C 31969,42906 32931,41993 32931,40167 C 34728,31951 40246,25561 47497,21910 C 50257,20083 53914,20083 57572,20083 C 58470,20083 59433,20083 60331,20083 C 60331,20083 60331,20083 61229,20083 C 63091,20083 63989,19171 64887,18258 C 68545,12780 76758,9129 84972,9129 Z M 84972 0 C 74962,0 64887,3652 57572,10955 C 57572,10955 56674,10955 55775,10955 C 51155,10955 46599,11868 42043,13694 C 31969,18258 25616,26474 22857,36516 C 10985,42906 3658,55686 1829,69380 L 911 75769 L 0 85811 L 10023 85811 L 133419 85811 L 140734 85811 L 143493 81247 L 145354 78508 C 155364,60250 149012,36516 131622,25561 C 127965,23735 124307,21910 120649,20997 C 113334,8216 99602,0 84972,0 Z" fill="#FFFFFF" transform="translate(115169,0)"/>
  <path d="M 74050 134193 C 77707,133281 80467,132368 84124,132368 C 85023,132368 85023,132368 85921,132368 L 13732 0 L 0 0 L 74050 134193 Z" fill="#2D5967" transform="translate(207456,85805)"/>
  <path d="M 0 0 C 1797,3658 2695,7309 2695,11871 L 97793 11871 C 99590,7309 102349,3658 106006,0 L 0 0 Z" fill="#2D5967" transform="translate(144443,251035)"/>
  <path d="M 81353 0 L 67621 0 L 0 124152 C 3651,125065 7309,126890 10966,129629 L 81353 0 Z" fill="#2D5967" transform="translate(94147,85805)"/>
  <path d="M 116068 22820 C 113334,20997 109683,19168 106026,19168 C 104197,19168 103286,17346 102368,16435 C 96882,6390 86833,0 74949,0 C 66722,0 58496,3651 53010,10042 C 52098,10955 50270,11866 48441,11866 C 43872,11866 40215,11866 35646,13695 C 28331,17346 22851,23737 21022,31951 C 21022,33780 20104,34691 18282,35602 C 8227,41082 1829,51124 911,62078 L 0 68469 L 123383 68469 L 125244 65729 C 134356,49295 129800,31040 116068,22820 Z M 117929 54775 L 15535 54775 C 17364,50207 21022,46555 24679,44733 C 29248,41993 32906,38342 33817,32862 C 34728,28300 37475,24648 41132,22820 C 42955,21908 45701,21908 47530,21908 C 53010,22820 58496,20086 61236,16435 C 65805,12777 70380,10955 75860,10955 C 83175,10955 89573,14606 92313,20997 C 95059,25560 98710,29211 104197,30122 C 106026,31040 108766,31040 110595,32862 C 117929,37431 120624,46555 117929,54775 Z" fill="#2D5967" transform="translate(8226,217262)"/>
  <path d="M 115118 22820 C 112423,20997 108766,19168 105108,19168 C 103247,19168 102349,17346 101450,16435 C 95932,6390 85921,0 73986,0 C 65772,0 57559,3651 52104,10042 C 51142,10955 49346,11866 47484,11866 C 42929,11866 39271,11866 34715,13695 C 27400,17346 21881,23737 20085,31951 C 20085,33780 19186,34691 17326,35602 C 7315,41082 898,51124 0,62078 L 898 66640 L 124294 66640 L 126091 63900 C 133406,49295 128850,31040 115118,22820 Z M 116979 54775 L 14630 54775 C 16427,50207 20085,46555 23742,44733 C 28298,41993 31956,38342 32854,32862 C 33816,28300 36512,24648 40169,22820 C 42030,21908 44790,21908 46586,21908 C 52104,22820 57559,20086 60318,16435 C 64875,12777 69430,10955 73986,10955 C 81301,10955 87718,14606 90478,20997 C 93237,25560 96830,29211 102349,30122 C 104146,31040 106904,31040 108766,32862 C 116081,37431 119738,46555 116979,54775 Z" fill="#2D5967" transform="translate(245893,217262)"/>
  <path d="M 125257 66641 L 127053 63902 C 134369,49296 129813,31951 116080,22822 C 113385,20997 109728,19171 106070,19171 C 104209,19171 103311,17345 102413,16432 C 96894,6391 86884,0 74949,0 C 66735,0 58522,3652 53067,10042 C 52105,10955 50308,11868 48447,11868 C 43891,11868 40234,11868 35678,13694 C 28362,17345 22908,23735 21047,31951 C 21047,33777 20149,34690 18288,35603 C 8278,41080 1861,51122 962,62077 L 0 68466 L 125257 68466 L 125257 66641 Z M 41132 22822 C 42993,21910 45752,21910 47549,21910 C 53067,22822 58522,20083 61281,16432 C 64938,12780 69495,10955 74949,10955 C 82264,10955 88681,14607 91440,20997 C 94199,25561 97857,29213 103311,30125 C 105108,31038 107867,31038 109728,32864 C 117043,37428 120701,46557 117942,54773 L 15593 54773 C 17389,50209 21047,46557 24705,44732 C 29261,41993 32918,38341 33817,32864 C 34779,28300 37474,24648 41132,22822 Z" fill="#2D5967" transform="translate(125192,10040)"/>
</svg>