<svg xmlns="http://www.w3.org/2000/svg" viewBox="0 0 385005 201063" width="40" height="21">
  <path d="M 0 192065 L 1027 178538 C 2246,163189 7380,148417 15978,135616 C 24512,122820 36191,112425 49923,105425 C 52875,103822 55377,101570 57238,98844 C 59163,96118 60383,92991 60896,89705 C 63976,73906 72510,59676 84959,49455 C 97407,39234 113000,33657 129107,33682 C 131224,33546 133406,33546 135524,33682 L 137705 33682 C 140593,33715 143481,33147 146112,32013 C 148742,30880 151116,29207 153106,27102 C 162474,17023 174153,9373 187179,4809 C 200205,244 214066,-1098 227734,898 C 241337,2893 254299,8166 265465,16265 C 276630,24363 285614,35044 291709,47391 C 293121,50494 295303,53223 297934,55364 C 300629,57504 303773,58998 307110,59729 C 320201,62687 332456,68633 342916,77105 C 353375,85577 361717,96346 367300,108571 C 372883,120796 375578,134146 375128,147583 C 374744,161020 371214,174181 364862,186033 L 361396 192520 L 0 192065 Z" fill="#FFFFFF" transform="translate(4941,4250)"/>
  <path d="M 220483 9139 C 235498,9077 250193,13224 262962,21110 C 275732,28994 285998,40299 292608,53738 C 294405,57328 296972,60472 300180,62939 C 303324,65406 306982,67134 310896,67995 C 320201,70082 329056,73728 337077,78780 C 354787,89876 367621,107306 373011,127525 C 378337,147746 375771,169236 365824,187627 L 363579 191740 L 9882 191740 L 10524 183334 C 11551,168723 16235,154612 24256,142343 C 32277,130075 43249,120054 56212,113234 C 59805,111418 62885,108834 65260,105671 C 67698,102508 69366,98846 70136,94956 C 72125,84699 76617,75078 83098,66914 C 89643,58750 98050,52286 107611,48072 C 115889,44482 124807,42616 133791,42589 L 139823 42589 L 142389 42589 C 145790,42541 149192,41805 152336,40424 C 155480,39042 158304,37043 160678,34546 C 168314,26410 177619,19953 187885,15579 C 198216,11207 209317,9014 220483,9139 Z M 220483 0 C 208162,10 195906,2564 184613,7501 C 173319,12438 163116,19654 154710,28697 C 153170,30340 151309,31643 149256,32524 C 147139,33405 144892,33845 142646,33815 L 140914 33815 C 138668,33678 136358,33678 134048,33815 C 116915,33846 100295,39818 87013,50715 C 73794,61611 64681,76760 61345,93585 C 60832,96153 59741,98570 58137,100658 C 56596,102747 54543,104452 52233,105648 C 37860,113132 25667,124140 16812,137633 C 7893,151128 2567,166669 1347,182782 L 706 191188 L 0 201063 L 369097 201063 L 371664 196309 L 373845 192195 C 380647,179734 384433,165861 384946,151673 C 385459,137485 382636,123372 376733,110458 C 370830,97545 362039,86183 350937,77274 C 339900,68364 326938,62152 313014,59130 C 310447,58581 308008,57480 305891,55902 C 303773,54324 302040,52308 300757,49991 C 293442,34983 281956,22342 267775,13504 C 253594,4666 237230,-12 220483,0 Z" fill="#FFFFFF"/>
  <path d="M 355942 178490 L 353696 182603 L 189104 182603 C 182174,182578 175308,181185 168891,178510 C 162474,175834 156699,171919 151822,166998 C 146882,162076 143031,156243 140401,149820 C 137769,143403 136422,136531 136422,129594 L 152143 129594 C 152079,139380 155929,148793 162731,155781 C 169597,162769 178966,166760 188719,166882 L 344200 166882 C 350873,152233 352028,135677 347408,120253 C 342851,104827 332906,91564 319366,82892 C 312885,78628 305762,75535 298190,73753 C 291966,72381 286127,69634 281057,65714 C 275988,61793 271882,56796 269058,51088 C 263732,40265 255454,31160 245187,24822 C 234985,18484 223114,15170 211050,15263 C 202002,15286 193083,17191 184805,20857 C 176527,24523 169148,29870 163051,36557 C 158688,41208 153362,44786 147395,47006 C 141427,49227 135010,50030 128657,49352 C 120380,48623 111974,50007 104338,53373 C 97087,56554 90734,61441 85793,67615 C 80788,73789 77451,81068 75911,88833 C 74692,95027 72125,100873 68339,105935 C 64617,110998 59740,115148 54158,118078 C 44789,122951 36640,129863 30287,138314 C 23935,146765 19571,156525 17582,166882 L 136422 166882 C 140657,173081 145919,178465 152079,182783 L 0 182783 L 642 174377 C 1668,159766 6353,145655 14374,133386 C 22395,121119 33367,111098 46394,104278 C 49922,102462 53003,99878 55377,96715 C 57816,93552 59484,89890 60254,86000 C 62243,75743 66735,66122 73280,57958 C 79761,49794 88167,43330 97728,39116 C 107867,34713 118968,32922 129941,33907 C 133855,34337 137834,33851 141555,32487 C 145213,31123 148549,28918 151245,26047 C 158817,17852 167992,11308 178196,6826 C 188398,2344 199435,20 210600,1 C 225616,-62 240310,4086 253080,11971 C 265849,19856 276116,31161 282726,44600 C 284523,48190 287089,51333 290298,53801 C 293442,56267 297099,57995 301078,58857 C 310318,60943 319174,64590 327195,69641 C 344905,80737 357803,98167 363129,118386 C 368455,138603 365888,160093 355942,178490 Z" fill="#2D5967" transform="translate(9882,9149)"/>
</svg>