<svg xmlns="http://www.w3.org/2000/svg" viewBox="0 0 368365 385010" width="39" height="40">
  <path d="M 354614 143440 L 310261 154792 L 311704 152003 L 313822 148155 C 322466,131993 324673,113157 319995,95434 C 315317,77711 304107,62416 288617,52623 C 281635,48042 273877,44781 265715,43003 C 264688,42779 263719,42326 262885,41676 C 262051,41027 261377,40197 260909,39251 C 255788,28989 248255,20123 238957,13412 C 229659,6701 218872,2344 207521,717 C 196169,-910 184593,241 173787,4070 C 162975,7899 153260,14293 145463,22704 C 144899,23273 144219,23720 143474,24018 C 142730,24315 141934,24457 141132,24435 L 140458 24435 L 134882 24435 C 126598,24474 118410,26209 110825,29534 C 102047,33398 94334,39326 88334,46813 C 82341,54301 78241,63126 76386,72537 C 76200,73533 75776,74469 75160,75272 C 74538,76074 73742,76719 72825,77156 C 61492,83073 51867,91794 44860,102488 C 37853,113182 33701,125492 32803,138245 L 32232 146038 L 31366 157871 L 100821 157871 L 100821 194525 L 0 194525 L 0 385011 L 368365 385011 L 368365 139881 L 354614 143440 Z" fill="#FFFFFF"/>
  <path d="M 0 289579 L 142961 289579 L 142961 0 L 0 0 L 0 289579 Z M 14624 14719 L 128722 14719 L 128722 274473 L 14624 274473 L 14624 14719 Z" fill="#2C5967" transform="translate(111794,84465)"/>
  <path d="M 91588 0 L 0 0 L 0 14623 L 91588 14623 L 91588 0 Z" fill="#2C5967" transform="translate(137474,110156)"/>
  <path d="M 80621 0 L 10966 0 L 10966 12795 L 0 12795 L 0 27899 L 10966 27899 L 10966 40791 L 80621 40791 L 80621 27899 L 91588 27899 L 91588 12795 L 80621 12795 L 80621 0 Z M 65901 25590 L 26072 25590 L 26072 14623 L 66382 14623 L 65901 25590 Z" fill="#2C5967" transform="translate(137474,135842)"/>
  <path d="M 91588 0 L 0 0 L 0 14623 L 91588 14623 L 91588 0 Z" fill="#2C5967" transform="translate(137474,187120)"/>
  <path d="M 91588 0 L 0 0 L 0 14623 L 91588 14623 L 91588 0 Z" fill="#2C5967" transform="translate(137474,212805)"/>
  <path d="M 64168 0 L 0 0 L 0 14623 L 64168 14623 L 64168 0 Z" fill="#2C5967" transform="translate(36653,231084)"/>
  <path d="M 64168 0 L 0 0 L 0 14623 L 64168 14623 L 64168 0 Z" fill="#2C5967" transform="translate(36653,256770)"/>
  <path d="M 64168 0 L 0 0 L 0 14623 L 64168 14623 L 64168 0 Z" fill="#2C5967" transform="translate(36653,282361)"/>
  <path d="M 64168 0 L 0 0 L 0 14623 L 64168 14623 L 64168 0 Z" fill="#2C5967" transform="translate(36653,308047)"/>
  <path d="M 14624 0 L 0 0 L 0 14623 L 14624 14623 L 14624 0 Z" fill="#2C5967" transform="translate(265721,205398)"/>
  <path d="M 14624 0 L 0 0 L 0 14623 L 14624 14623 L 14624 0 Z" fill="#2C5967" transform="translate(265721,231084)"/>
  <path d="M 14617 0 L 0 0 L 0 14623 L 14617 14623 L 14617 0 Z" fill="#2C5967" transform="translate(291408,205398)"/>
  <path d="M 14617 0 L 0 0 L 0 14623 L 14617 14623 L 14617 0 Z" fill="#2C5967" transform="translate(291408,231084)"/>
  <path d="M 14617 0 L 0 0 L 0 14623 L 14617 14623 L 14617 0 Z" fill="#2C5967" transform="translate(291408,256770)"/>
  <path d="M 14617 0 L 0 0 L 0 14623 L 14617 14623 L 14617 0 Z" fill="#2C5967" transform="translate(291408,282361)"/>
  <path d="M 14624 0 L 0 0 L 0 14623 L 14624 14623 L 14624 0 Z" fill="#2C5967" transform="translate(316992,205398)"/>
  <path d="M 14624 0 L 0 0 L 0 14623 L 14624 14623 L 14624 0 Z" fill="#2C5967" transform="translate(316992,231084)"/>
  <path d="M 14624 0 L 0 0 L 0 14623 L 14624 14623 L 14624 0 Z" fill="#2C5967" transform="translate(316992,256770)"/>
  <path d="M 14624 0 L 0 0 L 0 14623 L 14624 14623 L 14624 0 Z" fill="#2C5967" transform="translate(316992,282361)"/>
  <path d="M 14617 0 L 0 0 L 0 14623 L 14617 14623 L 14617 0 Z" fill="#2C5967" transform="translate(291408,308047)"/>
  <path d="M 14624 0 L 0 0 L 0 14623 L 14624 14623 L 14624 0 Z" fill="#2C5967" transform="translate(265721,256770)"/>
  <path d="M 14624 0 L 0 0 L 0 14623 L 14624 14623 L 14624 0 Z" fill="#2C5967" transform="translate(265721,282361)"/>
  <path d="M 14624 0 L 0 0 L 0 14623 L 14624 14623 L 14624 0 Z" fill="#2C5967" transform="translate(265721,308047)"/>
  <path d="M 14624 0 L 0 0 L 0 14623 L 14624 14623 L 14624 0 Z" fill="#2C5967" transform="translate(316992,308047)"/>
  <path d="M 0 21262 L 0 36366 L 76964 18472 L 76964 205304 L 40310 205304 L 40310 185194 L 25687 185194 L 25687 205304 L 0 205304 L 0 220018 L 91587 220018 L 91587 212613 L 91587 205304 L 91587 0 L 0 21262 Z" fill="#2C5967" transform="translate(265721,154026)"/>
  <path d="M 64168 133821 L 49544 133821 L 49544 153925 L 14720 153925 L 14720 14719 L 89855 14719 L 89855 0 L 0 0 L 0 153925 L 0 161240 L 0 168646 L 91684 168646 L 91684 153925 L 64168 153925 L 64168 133821 Z" fill="#2C5967" transform="translate(10966,205398)"/>
  <path d="M 249936 120766 L 222517 120766 L 222517 135486 L 258888 135486 L 260902 131638 C 268263,117934 270155,101954 266209,86910 C 262269,71865 252779,58871 239643,50537 C 233714,46832 227214,44133 220406,42552 C 217756,41991 215266,40833 213135,39166 C 210999,37499 209273,35367 208092,32932 C 203741,24310 197369,16868 189521,11238 C 181674,5609 172587,1958 163026,598 C 153465,-763 143718,207 134613,3425 C 125507,6642 117313,12013 110729,19078 C 108932,20952 106738,22392 104306,23293 C 101874,24192 99269,24528 96682,24273 C 88437,23522 80140,24846 72536,28121 C 65279,31239 58887,36071 53908,42205 C 48935,48338 45521,55589 43962,63333 C 43404,65906 42287,68325 40696,70420 C 39098,72514 37064,74233 34728,75455 C 25064,80489 16851,87917 10870,97028 C 4890,106139 1347,116631 577,127501 L 0 135390 L 57719 135390 L 57719 120766 L 16350 120766 C 18006,113892 21111,107451 25456,101875 C 29806,96300 35293,91719 41555,88442 C 45900,86213 49666,83014 52567,79093 C 55474,75172 57431,70635 58297,65834 C 59330,60511 61608,55510 64958,51244 C 68301,46978 72613,43570 77541,41302 C 82796,38983 88559,38055 94276,38608 C 99102,39138 103985,38546 108541,36877 C 113097,35208 117204,32508 120540,28988 C 124801,24449 129941,20827 135646,18346 C 141357,15865 147510,14575 153735,14557 C 162154,14541 170418,16873 177586,21291 C 184760,25709 190561,32039 194334,39570 C 196503,43938 199622,47763 203472,50760 C 207315,53758 211788,55852 216556,56887 C 221779,58032 226758,60084 231276,62947 C 240734,68810 247799,77841 251219,88431 C 254639,99021 254184,110481 249936,120766 Z" fill="#2C5967" transform="translate(43198,11320)"/>
  <path d="M 31167 94 L 0 94 L 0 86678 L 18564 86678 L 18564 58972 L 31167 58972 C 39881,59622 48511,56940 55320,51467 C 58207,48630 60440,45199 61871,41411 C 63296,37623 63886,33570 63591,29532 C 63873,25481 63283,21418 61852,17616 C 60428,13814 58194,10365 55320,7501 C 48479,2098 39861,-545 31167,94 Z M 40792 40500 C 36865,42982 32238,44129 27612,43771 L 18853 43771 L 18853 14910 L 27612 14910 C 32367,14465 37141,15616 41177,18180 C 42646,19575 43776,21289 44475,23192 C 45181,25094 45431,27132 45213,29148 C 45431,31247 45155,33368 44405,35340 C 43654,37311 42448,39079 40888,40500 L 40792 40500 Z" fill="#2C5967" transform="translate(155178,251771)"/>
</svg>