<svg xmlns="http://www.w3.org/2000/svg" viewBox="0 0 355063 385010" width="37" height="40">
  <path d="M 3651 10036 C 2740,10036 911,9118 0,9118 L 1829 0 C 2740,0 3651,911 5474,911 L 3651 10036 Z" fill="#FFFFFF" transform="translate(232752,141414)"/>
  <path d="M 1829 8207 C 2740,8207 4562,9125 5474,9125 C 4562,9125 2740,9125 1829,8207 Z M 3651 0 L 0 18243 C 1829,18243 2740,19161 4562,19161 L 7302 911 C 6385,0 4562,0 3651,0 Z" fill="#FFFFFF" transform="translate(231841,137763)"/>
  <path d="M 69373 374063 L 69373 145066 L 0 145066 L 918 132290 C 2740,108573 16434,87584 37423,76636 C 41074,74814 43814,71163 44725,67512 C 48377,50180 59330,35581 75764,29197 C 82148,26457 90368,24634 97671,24634 C 99493,24634 101322,24634 102233,24634 L 103144 24634 C 106796,24634 109536,22812 112269,20983 C 124140,8214 141479,0 159734,0 C 162474,0 164297,0 167037,911 L 167037 0 L 171599 1822 C 179819,3651 187122,6385 194424,10036 L 201720 14598 C 214502,5474 229107,911 243712,911 C 258316,911 272004,5474 284786,13687 C 285697,14598 287526,15509 288437,16421 L 289348 17338 C 301213,26457 310344,39233 313995,53831 L 342287 81199 L 325860 97620 L 315818 87584 C 311255,111307 293911,131378 271092,140503 L 270181 140503 C 267441,141414 264701,142326 262879,143237 L 261968 143237 C 261050,143237 260139,144154 260139,144154 C 259228,144154 257399,145066 255576,145066 C 251925,145977 248274,145977 244623,145977 C 237321,145977 230018,145066 222716,142326 L 222716 373152 L 69373 373152 L 69373 374063 Z" fill="#FFFFFF" transform="translate(4563,6385)"/>
  <path d="M 165214 10947 C 168859,10947 171599,10947 175250,11858 L 176162 11858 C 183464,12776 190766,15509 197158,20072 L 207200 26457 C 219065,17332 233669,11858 249185,11858 C 262879,11858 276566,16421 287520,23723 C 288437,24634 290259,25545 291171,26457 C 291171,26457 292088,26457 292088,27368 C 303042,36493 312167,48357 315818,62949 L 328594 75725 L 341376 88495 L 331334 98531 L 327682 94886 L 318558 85761 C 316729,112218 299391,134112 275655,144148 C 274743,144148 274743,144148 273832,145066 C 272004,145977 269264,146888 267441,146888 C 265612,145977 264701,145977 263790,145977 C 262879,145977 262879,145977 261961,145977 C 262879,145977 262879,145977 263790,145977 C 259228,146888 253748,147799 249185,147799 C 240060,147799 230929,145977 222716,142326 L 222716 375886 L 78497 375886 L 78497 146888 L 10042 146888 L 10954 138674 C 12782,116780 25558,96708 45637,86672 C 50205,83939 53857,79376 54768,74814 C 57508,58393 67544,45617 82148,39233 C 88540,36493 94931,34670 102233,34670 C 104056,34670 104967,34670 106796,34670 C 107707,34670 107707,34670 108618,34670 C 113187,34670 117749,32841 121400,29197 C 132354,17332 148781,10947 165214,10947 Z M 261961 146888 C 261050,146888 260139,146888 260139,146888 C 260139,146888 261050,146888 261961,146888 Z M 170688 0 L 169777 1822 C 167948,1822 167037,1822 165214,1822 C 146041,1822 127785,10036 114098,23723 C 112269,25545 110447,26457 108618,26457 L 107707 26457 C 105884,26457 104056,26457 102233,26457 C 94013,26457 85800,28285 78497,31019 C 61159,38321 48377,53831 44725,72985 C 44725,75725 42903,77547 40163,78459 C 18256,90323 3651,113129 911,138674 L 0 146888 L 0 156013 L 10042 156013 L 70284 156013 L 70284 375886 L 70284 385011 L 79408 385011 L 223627 385011 L 232758 385011 L 232758 375886 L 232758 155101 C 238232,156013 243712,156924 250096,156924 C 253748,156924 258316,156924 261961,156013 C 262879,156013 263790,156013 264701,156013 C 265612,156013 265612,156013 266530,156013 C 267441,156013 268352,155101 269264,155101 C 269264,155101 269264,155101 270181,155101 C 272915,154184 274743,153273 277483,153273 L 278395 153273 C 279306,153273 279306,153273 280217,152361 C 302124,144148 318558,125905 324943,104011 L 325860 104922 L 332245 111307 L 338636 104922 L 348678 94886 L 355063 88495 L 346850 81199 L 334074 68429 L 323120 57476 C 318558,42877 309427,29197 296651,20072 L 295739 18249 C 293911,17332 292999,16421 291171,15509 C 278395,7296 263790,2740 248274,2740 C 232758,2740 218153,7296 206289,15509 L 201720 12776 C 194418,8214 186204,5474 177990,3651 L 170688 0 Z" fill="#FFFFFF"/>
  <path d="M 129614 276437 L 15516 276437 L 15516 14598 L 90362 14598 L 75757 0 L 0 0 L 0 291036 L 144219 291036 L 144219 70245 C 138739,68423 134176,66600 129614,63860 L 129614 276437 Z" fill="#2C5967" transform="translate(78498,84856)"/>
  <path d="M 0 14592 L 78497 14592 C 74846,10036 73024,5474 70284,0 L 0 0 L 0 14592 Z" fill="#2C5967" transform="translate(104967,110396)"/>
  <path d="M 10954 40144 L 81237 40144 L 81237 27374 L 92191 27374 L 92191 12776 L 81237 12776 L 81237 0 L 10954 0 L 10954 12776 L 0 12776 L 0 27374 L 10954 27374 L 10954 40144 Z M 25558 13687 L 65721 13687 L 65721 24634 L 25558 24634 L 25558 13687 Z" fill="#2C5967" transform="translate(104967,136852)"/>
  <path d="M 188026 9118 C 178901,3645 167948,0 156077,0 C 139650,0 123223,7296 112269,19154 C 108618,22805 103138,24628 97664,24628 C 89451,23717 81231,24628 73017,28279 C 58412,34664 48370,47440 44725,63860 C 43808,69334 40157,73896 35594,75719 C 15516,85755 2734,105827 911,127727 L 0 135934 L 58412 135934 L 58412 121336 L 17338 121336 C 20989,107655 30121,95791 42897,88495 C 52021,83932 57501,75719 59324,65689 C 61152,54736 68455,45617 79408,41055 C 84882,38315 90362,37404 96747,38315 C 106789,39226 116831,35581 123223,28279 C 131436,19154 144212,13681 156994,13681 C 164297,13681 171599,15509 177984,19154 C 180724,15509 183464,11858 188026,9118 Z" fill="#2C5967" transform="translate(9131,10954)"/>
  <path d="M 77586 0 L 57501 0 L 40157 30108 L 22818 0 L 1822 0 L 26469 41966 L 0 85761 L 20078 85761 L 39245 53824 L 58412 85761 L 79408 85761 L 52939 41966 L 77586 0 Z" fill="#2C5967" transform="translate(111358,252721)"/>
  <path d="M 14598 0 L 0 0 L 0 14592 L 14598 14592 L 14598 0 Z" fill="#2C5967" transform="translate(104967,187949)"/>
  <path d="M 14598 0 L 0 0 L 0 14592 L 14598 14592 L 14598 0 Z" fill="#2C5967" transform="translate(130525,187949)"/>
  <path d="M 14598 0 L 0 0 L 0 14592 L 14598 14592 L 14598 0 Z" fill="#2C5967" transform="translate(156084,187949)"/>
  <path d="M 14598 0 L 0 0 L 0 14592 L 14598 14592 L 14598 0 Z" fill="#2C5967" transform="translate(182553,187949)"/>
  <path d="M 14598 0 L 0 0 L 0 14592 L 14598 14592 L 14598 0 Z" fill="#2C5967" transform="translate(104967,213495)"/>
  <path d="M 14598 0 L 0 0 L 0 14592 L 14598 14592 L 14598 0 Z" fill="#2C5967" transform="translate(130525,213495)"/>
  <path d="M 14598 0 L 0 0 L 0 14592 L 14598 14592 L 14598 0 Z" fill="#2C5967" transform="translate(156084,213495)"/>
  <path d="M 14598 0 L 0 0 L 0 14592 L 14598 14592 L 14598 0 Z" fill="#2C5967" transform="translate(182553,213495)"/>
  <path d="M 10042 51091 L 0 61127 L 31032 92146 L 62070 61127 L 52028 51091 L 39245 63860 C 41985,36493 64804,15509 92191,15509 C 106795,15509 121400,21894 130525,31930 C 134176,35581 136916,39226 138739,43789 L 149692 32841 C 146952,28279 143301,23717 138739,19154 C 125963,7296 109529,0 91273,0 C 55679,0 25558,28279 22818,63860 L 10042 51091 Z" fill="#2C5967" transform="translate(156995,10954)"/>
  <path d="M 150610 31019 L 137827 18249 L 124134 4562 L 119571 0 L 88540 31019 L 98582 41055 L 111358 28285 C 108618,55653 85800,76636 58419,76636 C 38334,76636 20078,65689 10954,48351 L 0 59304 C 11865,78459 33772,91235 57508,91235 C 62981,91235 67544,90323 72106,89412 C 71195,89412 69372,90323 68455,90323 C 69372,90323 71195,89412 72106,89412 C 101316,83021 123223,58387 125051,27368 L 135087 37404 L 138739 41055 L 150610 31019 Z" fill="#2C5967" transform="translate(189855,56571)"/>
  <path d="M 34689 0 L 20085 0 L 0 71163 L 15516 71163 L 19167 56564 L 36512 56564 L 40163 71163 L 55679 71163 L 34689 0 Z M 33772 43795 L 21907 43795 L 28298 17332 L 33772 43795 Z" fill="#2C5967" transform="translate(220887,41055)"/>
</svg>