<svg xmlns="http://www.w3.org/2000/svg" viewBox="0 0 385010 375386" width="40" height="39">
  <path d="M 0 364881 L 0 193032 L 98011 193032 L 98011 146843 L 24596 146843 L 25398 135627 C 26316,123865 30217,112532 36730,102695 C 43249,92852 52162,84831 62641,79383 C 64746,78324 66581,76791 68006,74910 C 69424,73024 70393,70842 70836,68526 C 73203,56321 79755,45322 89367,37430 C 98980,29531 111050,25231 123499,25276 C 125161,25186 126823,25186 128484,25276 L 129999 25276 C 132059,25295 134093,24891 135979,24076 C 137872,23261 139566,22068 140959,20560 C 146914,14233 154068,9157 162012,5628 C 169950,2098 178517,186 187205,0 L 188989 0 C 201168,-26 213116,3356 223473,9754 C 233836,16158 242197,25321 247613,36223 L 248062 37109 C 251091,38206 254068,39457 256969,40850 C 258175,38546 259516,36319 260979,34176 L 262051 32842 C 263681,30718 265465,28728 267396,26874 C 267801,26444 268250,26059 268731,25719 C 270707,23954 272786,22318 274968,20823 C 275552,20425 276181,20098 276842,19848 L 279781 23319 L 277913 19225 C 279736,18102 281642,17120 283612,16286 C 284484,15933 285376,15638 286287,15394 L 288784 14682 C 290247,14092 291774,13649 293327,13347 C 296118,12821 298948,12520 301791,12462 L 303485 12462 C 306654,12474 309812,12776 312930,13347 L 315067 13347 C 318109,13976 321092,14874 323974,16017 L 324866 16017 C 327413,17114 329851,18423 332174,19937 L 333689 20913 C 336178,22626 338501,24564 340638,26701 C 342929,28979 345014,31449 346875,34086 L 348390 36223 L 350084 39066 C 351579,41915 352798,44892 353735,47966 L 374853 69058 L 360864 83657 L 354357 77156 C 353889,78998 353324,80808 352670,82585 L 352670 83477 C 352670,84279 352131,85081 351778,85883 C 350873,87808 349859,89676 348749,91485 L 348210 92377 C 347831,93128 347382,93840 346875,94514 C 345669,96221 344360,97857 342955,99410 L 342153 100206 L 340548 102079 C 339034,103504 337519,104659 335915,105904 L 334760 106796 L 332797 108310 C 330955,109452 329056,110492 327092,111422 L 326117 111865 C 325481,112308 324795,112667 324063,112937 C 321670,113906 319193,114682 316671,115247 L 314444 115869 L 310704 116498 C 311326,119430 311948,122369 312481,125392 C 313963,131205 314592,137199 314355,143192 L 314355 147376 L 245034 147376 L 245034 165176 L 344289 142127 L 344289 364618 L 0 364881 Z" fill="#FFFFFF" transform="translate(4453,6052)"/>
  <path d="M 193442 10505 C 204787,10473 215920,13611 225578,19572 C 235229,25534 243019,34074 248062,44232 L 249307 46902 C 254351,48397 259196,50489 263745,53132 C 263976,52240 264303,51374 264720,50553 C 264720,49751 265523,49039 265882,48326 C 266889,46421 268025,44573 269270,42808 L 270694 41030 C 272055,39317 273511,37681 275058,36134 L 276842 34620 C 278478,33182 280204,31848 282007,30616 L 284414 29371 C 286159,28248 288007,27292 289939,26522 C 291068,26060 292229,25675 293417,25367 C 295194,24834 296798,24212 298582,23853 C 301168,23365 303792,23095 306423,23050 L 307938 23050 C 310928,23050 313912,23346 316845,23942 L 318718 23942 C 321426,24546 324083,25380 326649,26432 L 327451 26432 C 329755,27510 331982,28729 334131,30083 L 335473 30975 C 337763,32528 339913,34280 341883,36224 L 342153 37199 C 344020,39157 345746,41236 347318,43430 C 347446,43681 347600,43918 347767,44142 L 348659 45387 C 350956,49026 352695,52985 353825,57137 L 372446 76092 L 365317 83394 L 356411 74494 C 356411,75919 355872,77253 355698,78588 C 355519,79923 355698,80719 355159,81790 C 354704,83754 354107,85692 353382,87572 C 353382,88553 352663,89619 352221,90600 C 351386,92339 350469,94033 349461,95670 C 348948,96652 348383,97601 347767,98519 C 346651,100059 345431,101516 344110,102882 C 343397,103684 342775,104570 341973,105372 C 340555,106662 339066,107881 337519,109023 L 334934 111070 C 333240,112135 331372,113027 329498,114003 L 326919 115344 C 324718,116210 322453,116897 320143,117391 C 319475,117635 318789,117846 318096,118013 C 315163,118604 312179,118905 309183,118899 C 310293,123217 311185,127581 311859,131983 C 313270,137476 313867,143142 313642,148801 L 244764 148801 L 244764 176926 L 344026 153877 L 344026 366486 L 8913 366486 L 8913 203537 L 106924 203537 L 106924 148801 L 33862 148801 L 34304 142397 C 35049,131251 38649,120477 44764,111128 C 50886,101779 59311,94155 69231,88996 C 71875,87649 74179,85724 75982,83369 C 77791,81014 79043,78280 79659,75380 C 81898,64227 87930,54191 96734,46979 C 105531,39760 116562,35801 127952,35781 L 132495 35781 L 134452 35781 C 137128,35794 139772,35255 142229,34203 C 144681,33144 146888,31591 148710,29640 C 154242,23737 160896,19001 168288,15716 C 175680,12431 183656,10659 191748,10505 L 193442 10505 Z M 193442 1605 L 191568 1605 C 182328,1894 173229,4018 164817,7849 C 156404,11686 148839,17160 142563,23942 C 141594,25007 140413,25848 139091,26419 C 137770,26984 136339,27266 134901,27234 L 133656 27234 L 128215 27234 C 114823,27247 101848,31880 91472,40344 C 81103,48807 73967,60583 71285,73692 C 70932,75418 70187,77035 69103,78428 C 68025,79820 66633,80937 65047,81700 C 53837,87527 44308,96125 37372,106675 C 30429,117217 26309,129365 25391,141948 L 24949 148358 L 24236 157881 L 98011 157881 L 98011 194816 L 0 194816 L 0 375386 L 352933 375386 L 352933 142660 L 342063 145246 L 322729 149693 C 323024,143077 322363,136455 320765,130026 C 320765,128781 320322,127446 320053,126111 L 321567 125662 C 324365,125020 327105,124161 329768,123082 L 332264 121838 L 332887 121838 C 335113,120856 337256,119694 339303,118366 L 341710 116589 L 342332 116050 C 344167,114702 345919,113246 347588,111693 L 349634 109466 L 350174 108401 C 351701,106732 353132,104980 354447,103145 C 355038,102324 355570,101458 356051,100566 L 356411 99501 C 357476,97717 358637,95670 359703,93449 C 359703,92647 360331,91935 360595,91133 L 365054 95670 L 371375 89355 L 378684 82053 L 385011 75739 L 378684 69508 L 361486 52600 C 360954,50765 360267,48981 359440,47261 L 356411 40761 L 355429 39426 L 354896 38624 C 353055,35916 350963,33388 348659,31059 L 348120 30436 C 345746,28152 343186,26066 340458,24212 L 339214 23320 C 336704,21709 334086,20285 331372,19046 C 330884,18668 330294,18449 329678,18424 C 326803,17172 323826,16184 320765,15485 L 318538 15042 C 315394,14452 312205,14093 309010,13977 L 306154 13977 C 303164,14054 300180,14381 297247,14952 C 295547,15286 293872,15761 292255,16377 L 291094 16377 L 290118 16377 L 286910 17448 C 284760,18366 282675,19438 280673,20650 L 279781 20650 L 277554 21895 C 275417,23352 273364,24924 271407,26612 L 270958 26612 L 269270 28036 C 267416,29846 265689,31777 264098,33818 L 264098 34357 C 263578,34877 263097,35441 262673,36044 C 261871,37199 261069,38361 260357,39606 C 258843,38894 257508,38451 256346,38002 C 250507,26509 241581,16871 230564,10159 C 219546,3447 206879,-69 193975,1 L 193442 1605 Z M 253677 157701 L 288245 157701 L 253677 165710 L 253677 157701 Z" fill="#FFFFFF"/>
  <path d="M 62102 0 L 0 0 L 0 14149 L 62102 14149 L 62102 0 Z" fill="#2C5967" transform="translate(33772,228370)"/>
  <path d="M 97568 37380 C 102361,37848 107206,37207 111717,35512 C 116228,33812 120290,31104 123582,27588 C 128003,22782 133355,18912 139310,16217 C 145264,13528 151707,12065 158246,11924 L 159580 11924 C 168712,11905 177663,14440 185421,19233 C 193185,24033 199448,30905 203510,39074 L 207251 46190 L 216158 37290 C 215445,35865 215356,35512 214380,33555 C 209298,23404 201470,14882 191787,8947 C 182097,3018 170938,-82 159580,2 L 157886 2 C 149769,201 141780,2029 134388,5379 C 126989,8722 120348,13522 114849,19490 C 112808,21691 110273,23378 107456,24411 C 104639,25451 101617,25804 98633,25457 C 90317,24726 81949,26099 74307,29461 C 67030,32651 60633,37553 55666,43752 C 50699,49957 47318,57266 45797,65056 C 45207,67988 43962,70754 42159,73141 C 40356,75528 38033,77479 35370,78852 C 25449,84011 17024,91628 10909,100983 C 4787,110333 1187,121100 443,132246 L 0 138657 L 61480 138657 L 61480 126375 L 13187 126375 C 14682,118463 17954,110987 22754,104513 C 27554,98045 33752,92738 40894,88997 C 45168,86802 48890,83664 51771,79827 C 54659,75990 56635,71549 57559,66840 C 58727,60981 61300,55495 65054,50842 C 68814,46197 73640,42520 79120,40139 C 84927,37630 91280,36680 97568,37380 Z" fill="#2C5967" transform="translate(33861,10504)"/>
  <path d="M 62102 0 L 0 0 L 0 14149 L 62102 14149 L 62102 0 Z" fill="#2C5967" transform="translate(33772,302767)"/>
  <path d="M 62102 0 L 0 0 L 0 14149 L 62102 14149 L 62102 0 Z" fill="#2C5967" transform="translate(33772,253114)"/>
  <path d="M 88655 0 L 0 0 L 0 14149 L 88655 14149 L 88655 0 Z" fill="#2C5967" transform="translate(131250,210653)"/>
  <path d="M 88655 0 L 0 0 L 0 14149 L 88655 14149 L 88655 0 Z" fill="#2C5967" transform="translate(131250,185827)"/>
  <path d="M 54087 0 L 38135 90 L 27714 26521 L 16664 180 L 622 180 L 18269 38893 L 0 80005 L 15952 80005 L 27085 51527 L 39027 79915 L 55063 79826 L 36621 39335 L 54087 0 Z" fill="#2C5967" transform="translate(147375,249373)"/>
  <path d="M 14162 0 L 0 0 L 0 14143 L 14162 14143 L 14162 0 Z" fill="#2C5967" transform="translate(255371,203544)"/>
  <path d="M 14162 0 L 0 0 L 0 14143 L 14162 14143 L 14162 0 Z" fill="#2C5967" transform="translate(255371,302767)"/>
  <path d="M 0 42853 L 21830 64568 L 43570 42853 L 36262 35557 L 27355 44457 C 28138,36455 31475,28922 36871,22967 C 42268,17006 49442,12938 57328,11365 C 65221,9787 73402,10788 80679,14214 C 87956,17641 93942,23314 97741,30392 L 105313 22826 C 99994,14150 92043,7400 82610,3550 C 73184,-300 62769,-1038 52887,1432 C 43006,3903 34176,9466 27676,17295 C 21176,25130 17345,34832 16748,44990 L 7302 35557 L 0 42853 Z" fill="#2C5967" transform="translate(243519,22478)"/>
  <path d="M 14162 0 L 0 0 L 0 14143 L 14162 14143 L 14162 0 Z" fill="#2C5967" transform="translate(255371,253114)"/>
  <path d="M 14162 0 L 0 0 L 0 14149 L 14162 14149 L 14162 0 Z" fill="#2C5967" transform="translate(255371,277940)"/>
  <path d="M 62012 129312 L 47844 129312 L 47844 148800 L 14168 148800 L 14168 14149 L 86871 14149 L 86871 0 L 0 0 L 0 162949 L 88655 162949 L 88655 148800 L 62012 148800 L 62012 129312 Z" fill="#2C5967" transform="translate(8913,203544)"/>
  <path d="M 14162 0 L 0 0 L 0 14149 L 14162 14149 L 14162 0 Z" fill="#2C5967" transform="translate(255371,228370)"/>
  <path d="M 0 49833 L 10690 49833 L 13097 39335 L 25481 39335 L 27888 49833 L 38937 49833 L 24596 0 L 14438 0 L 0 49833 Z M 19334 12192 L 23344 30878 L 14438 30878 L 19334 12192 Z" fill="#2C5967" transform="translate(288514,43257)"/>
  <path d="M 62102 0 L 0 0 L 0 14149 L 62102 14149 L 62102 0 Z" fill="#2C5967" transform="translate(33772,277940)"/>
  <path d="M 14162 0 L 0 0 L 0 14149 L 14162 14149 L 14162 0 Z" fill="#2C5967" transform="translate(304999,277940)"/>
  <path d="M 14162 0 L 0 0 L 0 14143 L 14162 14143 L 14162 0 Z" fill="#2C5967" transform="translate(304999,203544)"/>
  <path d="M 14162 0 L 0 0 L 0 14143 L 14162 14143 L 14162 0 Z" fill="#2C5967" transform="translate(280230,302767)"/>
  <path d="M 14162 0 L 0 0 L 0 14149 L 14162 14149 L 14162 0 Z" fill="#2C5967" transform="translate(304999,228370)"/>
  <path d="M 14162 0 L 0 0 L 0 14143 L 14162 14143 L 14162 0 Z" fill="#2C5967" transform="translate(304999,253114)"/>
  <path d="M 54620 0 L 41966 0 C 43128,3914 43840,6321 44552,9702 L 0 9702 L 0 21625 L 58008 21625 C 58387,14265 57232,6898 54620,0 Z" fill="#2C5967" transform="translate(255724,127087)"/>
  <path d="M 61749 21715 L 69058 29011 L 77965 20117 C 77201,28119 73877,35665 68481,41633 C 63090,47607 55923,51688 48030,53273 C 40137,54858 31943,53869 24660,50443 C 17370,47023 11383,41350 7578,34266 L 0 41831 C 5345,50424 13276,57097 22658,60902 C 32039,64708 42390,65439 52214,62994 C 62038,60549 70836,55056 77336,47305 C 83836,39553 87712,29935 88392,19847 L 97305 28748 L 104607 21451 L 83489 0 L 61749 21715 Z" fill="#2C5967" transform="translate(267216,54378)"/>
  <path d="M 14162 0 L 0 0 L 0 14143 L 14162 14143 L 14162 0 Z" fill="#2C5967" transform="translate(304999,302767)"/>
  <path d="M 0 35151 L 74487 17890 L 74487 198460 L 39021 198460 L 39021 178972 L 24859 178972 L 24859 198460 L 0 198460 L 0 212609 L 88655 212609 L 88655 0 L 0 20559 L 0 35151 Z" fill="#2C5967" transform="translate(255371,153877)"/>
  <path d="M 0 279800 L 137840 279800 L 137840 0 L 0 0 L 0 279800 Z M 14168 14149 L 123672 14149 L 123672 265651 L 13719 265651 L 14168 14149 Z" fill="#2C5967" transform="translate(106923,86686)"/>
  <path d="M 14162 0 L 0 0 L 0 14149 L 14162 14149 L 14162 0 Z" fill="#2C5967" transform="translate(280230,277940)"/>
  <path d="M 78054 0 L 10690 0 L 10690 12372 L 0 12372 L 0 26521 L 10690 26521 L 10690 38982 L 78054 38982 L 78054 26521 L 88655 26521 L 88655 12372 L 78054 12372 L 78054 0 Z M 63886 24827 L 24859 24827 L 24859 14149 L 63886 14149 L 63886 24827 Z" fill="#2C5967" transform="translate(131250,136257)"/>
  <path d="M 88655 0 L 0 0 L 0 14149 L 88655 14149 L 88655 0 Z" fill="#2C5967" transform="translate(131250,111423)"/>
  <path d="M 14162 0 L 0 0 L 0 14143 L 14162 14143 L 14162 0 Z" fill="#2C5967" transform="translate(280230,253114)"/>
  <path d="M 14162 0 L 0 0 L 0 14143 L 14162 14143 L 14162 0 Z" fill="#2C5967" transform="translate(280230,203544)"/>
  <path d="M 14162 0 L 0 0 L 0 14149 L 14162 14149 L 14162 0 Z" fill="#2C5967" transform="translate(280230,228370)"/>
  <path d="M 62102 0 L 0 0 L 0 14149 L 62102 14149 L 62102 0 Z" fill="#2C5967" transform="translate(33772,228370)"/>
  <path d="M 97568 37380 C 102361,37848 107206,37207 111717,35512 C 116228,33812 120290,31104 123582,27588 C 128003,22782 133355,18912 139310,16217 C 145264,13528 151707,12065 158246,11924 L 159580 11924 C 168712,11905 177663,14440 185421,19233 C 193185,24033 199448,30905 203510,39074 L 207251 46190 L 216158 37290 C 215445,35865 215356,35512 214380,33555 C 209298,23404 201470,14882 191787,8947 C 182097,3018 170938,-82 159580,2 L 157886 2 C 149769,201 141780,2029 134388,5379 C 126989,8722 120348,13522 114849,19490 C 112808,21691 110273,23378 107456,24411 C 104639,25451 101617,25804 98633,25457 C 90317,24726 81949,26099 74307,29461 C 67030,32651 60633,37553 55666,43752 C 50699,49957 47318,57266 45797,65056 C 45207,67988 43962,70754 42159,73141 C 40356,75528 38033,77479 35370,78852 C 25449,84011 17024,91628 10909,100983 C 4787,110333 1187,121100 443,132246 L 0 138657 L 61480 138657 L 61480 126375 L 13187 126375 C 14682,118463 17954,110987 22754,104513 C 27554,98045 33752,92738 40894,88997 C 45168,86802 48890,83664 51771,79827 C 54659,75990 56635,71549 57559,66840 C 58727,60981 61300,55495 65054,50842 C 68814,46197 73640,42520 79120,40139 C 84927,37630 91280,36680 97568,37380 Z" fill="#2C5967" transform="translate(33861,10504)"/>
  <path d="M 62102 0 L 0 0 L 0 14149 L 62102 14149 L 62102 0 Z" fill="#2C5967" transform="translate(33772,302767)"/>
  <path d="M 62102 0 L 0 0 L 0 14149 L 62102 14149 L 62102 0 Z" fill="#2C5967" transform="translate(33772,253114)"/>
  <path d="M 88655 0 L 0 0 L 0 14149 L 88655 14149 L 88655 0 Z" fill="#2C5967" transform="translate(131250,210653)"/>
  <path d="M 88655 0 L 0 0 L 0 14149 L 88655 14149 L 88655 0 Z" fill="#2C5967" transform="translate(131250,185827)"/>
  <path d="M 54087 0 L 38135 90 L 27714 26521 L 16664 180 L 622 180 L 18269 38893 L 0 80005 L 15952 80005 L 27085 51527 L 39027 79915 L 55063 79826 L 36621 39335 L 54087 0 Z" fill="#2C5967" transform="translate(147375,249373)"/>
  <path d="M 14162 0 L 0 0 L 0 14143 L 14162 14143 L 14162 0 Z" fill="#2C5967" transform="translate(255371,203544)"/>
  <path d="M 14162 0 L 0 0 L 0 14143 L 14162 14143 L 14162 0 Z" fill="#2C5967" transform="translate(255371,302767)"/>
  <path d="M 0 42853 L 21830 64568 L 43570 42853 L 36262 35557 L 27355 44457 C 28138,36455 31475,28922 36871,22967 C 42268,17006 49442,12938 57328,11365 C 65221,9787 73402,10788 80679,14214 C 87956,17641 93942,23314 97741,30392 L 105313 22826 C 99994,14150 92043,7400 82610,3550 C 73184,-300 62769,-1038 52887,1432 C 43006,3903 34176,9466 27676,17295 C 21176,25130 17345,34832 16748,44990 L 7302 35557 L 0 42853 Z" fill="#2C5967" transform="translate(243519,22478)"/>
  <path d="M 14162 0 L 0 0 L 0 14143 L 14162 14143 L 14162 0 Z" fill="#2C5967" transform="translate(255371,253114)"/>
  <path d="M 14162 0 L 0 0 L 0 14149 L 14162 14149 L 14162 0 Z" fill="#2C5967" transform="translate(255371,277940)"/>
  <path d="M 62012 129312 L 47844 129312 L 47844 148800 L 14168 148800 L 14168 14149 L 86871 14149 L 86871 0 L 0 0 L 0 162949 L 88655 162949 L 88655 148800 L 62012 148800 L 62012 129312 Z" fill="#2C5967" transform="translate(8913,203544)"/>
  <path d="M 14162 0 L 0 0 L 0 14149 L 14162 14149 L 14162 0 Z" fill="#2C5967" transform="translate(255371,228370)"/>
  <path d="M 0 49833 L 10690 49833 L 13097 39335 L 25481 39335 L 27888 49833 L 38937 49833 L 24596 0 L 14438 0 L 0 49833 Z M 19334 12192 L 23344 30878 L 14438 30878 L 19334 12192 Z" fill="#2C5967" transform="translate(288514,43257)"/>
  <path d="M 62102 0 L 0 0 L 0 14149 L 62102 14149 L 62102 0 Z" fill="#2C5967" transform="translate(33772,277940)"/>
  <path d="M 14162 0 L 0 0 L 0 14149 L 14162 14149 L 14162 0 Z" fill="#2C5967" transform="translate(304999,277940)"/>
  <path d="M 14162 0 L 0 0 L 0 14143 L 14162 14143 L 14162 0 Z" fill="#2C5967" transform="translate(304999,203544)"/>
  <path d="M 14162 0 L 0 0 L 0 14143 L 14162 14143 L 14162 0 Z" fill="#2C5967" transform="translate(280230,302767)"/>
  <path d="M 14162 0 L 0 0 L 0 14149 L 14162 14149 L 14162 0 Z" fill="#2C5967" transform="translate(304999,228370)"/>
  <path d="M 14162 0 L 0 0 L 0 14143 L 14162 14143 L 14162 0 Z" fill="#2C5967" transform="translate(304999,253114)"/>
  <path d="M 54620 0 L 41966 0 C 43128,3914 43840,6321 44552,9702 L 0 9702 L 0 21625 L 58008 21625 C 58387,14265 57232,6898 54620,0 Z" fill="#2C5967" transform="translate(255724,127087)"/>
  <path d="M 61749 21715 L 69058 29011 L 77965 20117 C 77201,28119 73877,35665 68481,41633 C 63090,47607 55923,51688 48030,53273 C 40137,54858 31943,53869 24660,50443 C 17370,47023 11383,41350 7578,34266 L 0 41831 C 5345,50424 13276,57097 22658,60902 C 32039,64708 42390,65439 52214,62994 C 62038,60549 70836,55056 77336,47305 C 83836,39553 87712,29935 88392,19847 L 97305 28748 L 104607 21451 L 83489 0 L 61749 21715 Z" fill="#2C5967" transform="translate(267216,54378)"/>
  <path d="M 14162 0 L 0 0 L 0 14143 L 14162 14143 L 14162 0 Z" fill="#2C5967" transform="translate(304999,302767)"/>
  <path d="M 0 35151 L 74487 17890 L 74487 198460 L 39021 198460 L 39021 178972 L 24859 178972 L 24859 198460 L 0 198460 L 0 212609 L 88655 212609 L 88655 0 L 0 20559 L 0 35151 Z" fill="#2C5967" transform="translate(255371,153877)"/>
  <path d="M 0 279800 L 137840 279800 L 137840 0 L 0 0 L 0 279800 Z M 14168 14149 L 123672 14149 L 123672 265651 L 13719 265651 L 14168 14149 Z" fill="#2C5967" transform="translate(106923,86686)"/>
  <path d="M 14162 0 L 0 0 L 0 14149 L 14162 14149 L 14162 0 Z" fill="#2C5967" transform="translate(280230,277940)"/>
  <path d="M 78054 0 L 10690 0 L 10690 12372 L 0 12372 L 0 26521 L 10690 26521 L 10690 38982 L 78054 38982 L 78054 26521 L 88655 26521 L 88655 12372 L 78054 12372 L 78054 0 Z M 63886 24827 L 24859 24827 L 24859 14149 L 63886 14149 L 63886 24827 Z" fill="#2C5967" transform="translate(131250,136257)"/>
  <path d="M 88655 0 L 0 0 L 0 14149 L 88655 14149 L 88655 0 Z" fill="#2C5967" transform="translate(131250,111423)"/>
  <path d="M 14162 0 L 0 0 L 0 14143 L 14162 14143 L 14162 0 Z" fill="#2C5967" transform="translate(280230,253114)"/>
  <path d="M 14162 0 L 0 0 L 0 14143 L 14162 14143 L 14162 0 Z" fill="#2C5967" transform="translate(280230,203544)"/>
  <path d="M 14162 0 L 0 0 L 0 14149 L 14162 14149 L 14162 0 Z" fill="#2C5967" transform="translate(280230,228370)"/>
</svg>