<svg xmlns="http://www.w3.org/2000/svg" viewBox="0 0 356904 385010" width="37" height="40">
  <path d="M 349974 112231 L 328222 90574 C 327266,87578 326104,84652 324756,81815 L 320618 75077 C 315465,66804 308657,59686 300623,54169 C 292589,48653 283503,44859 273935,43025 L 273261 43025 L 269892 42447 L 269507 42447 L 265946 42447 L 264983 42447 L 260652 42447 L 256802 42447 L 254588 38790 C 247863,27028 238155,17248 226444,10437 C 214733,3626 201431,26 187885,0 C 177189,10 166613,2220 156808,6493 C 147010,10765 138187,17008 130904,24833 C 129813,25984 128497,26896 127041,27508 C 125584,28122 124012,28423 122433,28395 L 121182 28395 C 119193,28395 117172,28395 115118,28395 C 100212,28391 85774,33549 74243,42989 C 62718,52429 54813,65570 51880,80178 C 51476,82009 50680,83731 49551,85226 C 48422,86722 46984,87954 45335,88841 C 32829,95345 22209,104962 14508,116764 C 6802,128566 2272,142154 1348,156218 L 770 163244 L 0 173255 L 1155 174795 L 1155 385011 L 123203 385011 L 123203 330532 L 291934 330532 L 291934 297517 L 280384 297517 L 280384 180570 C 291119,177474 300969,171873 309119,164225 C 317268,156577 323486,147103 327259,136583 L 333419 142646 L 340349 135620 L 349974 125995 L 356905 118968 L 349974 112231 Z" fill="#FFFFFF"/>
  <path d="M 223017 34843 L 225231 34073 L 226097 34073 L 228215 33400 L 229274 33400 L 231006 32918 L 232354 32918 L 232931 32918 L 233701 32918 C 227740,22906 219289,14611 209163,8841 C 199044,3072 187596,25 175950,0 C 166613,3 157373,1927 148813,5653 C 140253,9379 132553,14826 126187,21657 C 123864,23790 121092,25381 118083,26314 C 115066,27246 111884,27496 108765,27047 C 95335,25806 81924,29571 71105,37620 C 60280,45668 52817,57431 50148,70649 C 49467,73932 48068,77023 46060,79702 C 44045,82381 41465,84582 38501,86146 C 27592,91872 18333,100288 11595,110598 C 4857,120907 866,132767 0,145053 L 0 152175 L 38501 152175 L 38501 138989 L 13860 138989 C 15580,130255 19244,122019 24576,114889 C 29909,107759 36768,101917 44661,97793 C 49390,95336 53510,91846 56712,87580 C 59908,83314 62108,78383 63142,73152 C 64412,66620 67248,60494 71407,55298 C 75565,50101 80916,45990 87012,43314 C 93435,40436 100501,39276 107514,39945 C 112834,40505 118204,39823 123216,37952 C 128228,36082 132739,33074 136390,29165 C 141953,23138 148807,18447 156442,15440 C 164072,12433 172286,11189 180467,11800 C 188642,12410 196580,14861 203683,18968 C 210787,23074 216863,28731 221477,35517 L 222247 35517 L 223017 34843 Z" fill="#2C5A67" transform="translate(11454,11452)"/>
  <path d="M 25892 36702 C 52894,22161 82918,14120 113578,13216 L 121663 5227 L 126765 126 C 86274,-1273 46246,9019 11454,29772 L 14727 35547 L 11454 29772 L 0 36509 L 3273 42188 L 12898 41514 L 12898 78379 L 25892 78379 L 25892 36702 Z" fill="#2C5A67" transform="translate(46298,96707)"/>
  <path d="M 146881 0 C 146015,47 145142,47 144283,0 L 133984 0 L 133984 124551 L 120701 124551 L 120701 18673 L 48030 18673 L 48030 124551 L 34747 124551 L 34747 18673 L 0 18673 L 0 31956 L 21560 31956 L 21560 55153 L 0 55153 L 0 68339 L 21560 68339 L 21560 89804 L 0 89804 L 0 103087 L 21560 103087 L 21560 124551 L 0 124551 L 0 137737 L 158721 137737 L 158721 124551 L 147170 124551 L 147170 0 L 146881 0 Z M 107707 89804 L 61217 89804 L 61217 68339 L 107707 68339 L 107707 89804 Z M 107707 32052 L 107707 55249 L 61217 55249 L 61217 31956 L 107707 32052 Z M 61409 103183 L 107707 103183 L 107707 124647 L 61217 124647 L 61409 103183 Z" fill="#2C5A67" transform="translate(123300,182880)"/>
  <path d="M 72767 0 L 0 0 L 0 36287 L 13187 36287 L 13187 13283 L 59484 13283 L 59484 36383 L 37923 36383 L 37923 46201 L 37923 49666 L 72767 49666 L 72767 0 Z" fill="#2C5A67" transform="translate(85370,138795)"/>
  <path d="M 0 49281 L 72671 49281 L 72671 42255 C 66870,40891 61274,38788 56019,35998 L 13187 35998 L 13187 12898 L 30801 12898 L 29934 11647 L 29357 10877 L 25122 4043 L 23390 0 L 0 0 L 0 49281 Z" fill="#2C5A67" transform="translate(171330,139183)"/>
  <path d="M 5486 0 L 0 23871 L 10973 23871 L 5486 0 Z" fill="#FFFFFF" transform="translate(254781,92884)"/>
  <path d="M 31378 0 L 18384 0 L 0 63719 L 13668 63719 L 16748 50340 L 32533 50340 L 35613 63719 L 49763 63719 L 31378 0 Z M 24256 15882 L 29742 39752 L 19154 39752 L 24256 15882 Z" fill="#2C5A67" transform="translate(235620,77005)"/>
  <path d="M 0 54673 L 27817 82490 L 55634 54673 L 46009 45048 L 34651 56598 C 35748,46422 40054,36859 46952,29299 C 53856,21738 62981,16575 73017,14557 C 83053,12540 93468,13774 102753,18079 C 112038,22386 119706,29540 124647,38503 L 134272 28878 C 127451,17891 117319,9351 105339,4487 C 93352,-377 80133,-1314 67588,1810 C 55037,4934 43801,11958 35498,21873 C 27194,31787 22247,44080 21368,56984 L 9433 45048 L 0 54673 Z" fill="#2C5A67" transform="translate(178157,51203)"/>
  <path d="M 124936 37154 L 134561 27528 L 106456 0 L 78638 27817 L 88264 37442 L 99333 25603 C 98095,35662 93712,45073 86807,52494 C 79903,59914 70836,64966 60890,66929 C 50950,68892 40638,67666 31436,63425 C 22228,59185 14598,52146 9625,43314 L 0 52939 C 6821,63922 16941,72460 28921,77328 C 40895,82195 54107,83140 66652,80028 C 79197,76916 90433,69906 98742,60005 C 107052,50105 112013,37825 112905,24929 L 124936 37154 Z" fill="#2C5A67" transform="translate(208669,91436)"/>
  <path d="M 0 0 L 0 163630 L 75847 163630 L 75847 0 L 0 0 Z M 9625 11550 L 66029 11550 L 66029 24737 L 9818 24737 L 9625 11550 Z M 9625 36287 L 66029 36287 L 66029 49570 L 9818 49570 L 9625 36287 Z M 9625 61120 L 66029 61120 L 66029 74307 L 9818 74307 L 9625 61120 Z M 65259 149000 L 50725 149000 L 37538 126573 L 24833 149000 L 10877 149000 L 29068 118294 L 11743 89419 L 26277 89419 L 38501 109824 L 50340 89419 L 64393 89419 L 46971 118294 L 65259 149000 Z" fill="#FFFFFF" transform="translate(24256,198279)"/>
  <path d="M 0 0 L 0 190390 L 102220 190390 L 102220 0 L 0 0 Z M 89034 176915 L 13187 176915 L 13187 13283 L 89034 13283 L 89034 176915 Z" fill="#2C5A67" transform="translate(11063,184995)"/>
  <path d="M 56212 0 L 0 0 L 0 13187 L 56212 13187 L 56212 0 Z" fill="#2C5A67" transform="translate(34073,209832)"/>
  <path d="M 56212 0 L 0 0 L 0 13187 L 56212 13187 L 56212 0 Z" fill="#2C5A67" transform="translate(34073,234569)"/>
  <path d="M 56212 0 L 0 0 L 0 13187 L 56212 13187 L 56212 0 Z" fill="#2C5A67" transform="translate(34073,259399)"/>
  <path d="M 53517 0 L 39464 0 L 27624 20406 L 15401 0 L 866 0 L 18192 28491 L 0 59195 L 13957 59195 L 26662 36769 L 39849 59195 L 54383 59195 L 36095 28683 L 53517 0 Z" fill="#2C5A67" transform="translate(35126,288084)"/>
</svg>