<svg xmlns="http://www.w3.org/2000/svg" viewBox="0 0 374083 385003" width="39" height="40">
  <path d="M 109221 217929 C 49147,217929 0,168895 0,108964 C 0,49034 49147,0 109221,0 C 169296,0 218442,49034 218442,108964 C 218442,168895 170200,217929 109221,217929 Z" fill="#FFFFFF" transform="translate(89195,77180)"/>
  <path d="M 113777 9080 C 172029,9080 218448,56298 218448,113504 C 218448,170711 172029,217929 113777,217929 C 55525,217929 9106,170711 9106,113504 C 9106,55390 56436,9080 113777,9080 Z M 113777 0 C 50969,0 0,50850 0,113504 C 0,176159 50969,227009 113777,227009 C 176579,227009 227548,176159 227548,113504 C 227548,50850 176579,0 113777,0 Z" fill="#FFFFFF" transform="translate(84639,72650)"/>
  <path d="M 0 137114 L 0 61747 L 159285 61747 C 161108,61747 173845,54482 189323,36321 C 198422,25425 206616,13620 210255,4540 L 212077 0 L 216626 1816 C 220271,3632 223910,4540 227548,5449 L 233920 6357 L 232097 11804 C 225732,28149 212077,44494 206616,50850 C 200244,58114 184773,75367 170207,81724 L 170207 138019 L 0 137114 Z" fill="#FFFFFF" transform="translate(107405,242449)"/>
  <path d="M 219353 12712 C 222992,14528 227548,16344 232097,16344 C 225725,31781 212070,48126 207521,54482 C 202060,60839 184767,79907 170200,85357 L 170200 139836 L 9099 139836 L 9099 72643 L 163828 72643 C 167473,72643 181128,63563 197511,45402 C 207521,33597 215715,21793 219353,12712 Z M 214804 0 L 211159 9080 C 207521,17253 200238,29057 191138,39954 C 176572,57206 166562,62655 163828,64471 L 9099 64471 L 0 64471 L 0 73551 L 0 139836 L 0 148916 L 9099 148916 L 170200 148916 L 179306 148916 L 179306 139836 L 179306 90805 C 193866,83540 208432,67195 213893,59930 C 219353,53574 233008,36321 240285,19069 L 244841 8172 L 233008 7265 C 229364,7265 226637,6357 222992,4540 L 214804 0 Z" fill="#FFFFFF" transform="translate(102856,236088)"/>
  <path d="M 30942 62655 C 25481,62655 20021,60838 15471,58114 C 6372,52666 0,41770 0,30873 C 0,13620 13649,0 30942,0 C 48236,0 61891,13620 61891,30873 C 61891,48126 49147,62655 30942,62655 Z" fill="#FFFFFF" transform="translate(306745,184327)"/>
  <path d="M 35498 9080 C 50064,9080 61897,20885 61897,35414 C 61897,49942 50064,61747 35498,61747 C 30949,61747 26399,60839 22754,58115 C 14566,53574 9106,44494 9106,35414 C 8195,20885 20938,9080 35498,9080 Z M 35498 0 C 15478,0 0,16345 0,35414 C 0,48126 7283,59931 18205,66287 C 23666,69011 29126,70827 35498,70827 C 55525,70827 70996,54482 70996,35414 C 70996,15437 54614,0 35498,0 Z" fill="#FFFFFF" transform="translate(303087,180702)"/>
  <path d="M 0 105332 L 1822 100792 C 13649,58114 43686,21793 83733,1816 L 87378 0 L 97388 19976 L 93750 21793 C 59163,39045 33675,69919 22754,107148 L 21843 111688 L 0 105332 Z" fill="#FFFFFF" transform="translate(43699,41775)"/>
  <path d="M 91928 12713 L 97388 24517 C 61891,41770 35498,73551 24577,112597 L 11833 108964 C 23666,66287 52792,31781 91928,12713 Z M 95573 0 L 87378 4541 C 46419,25425 15471,61747 2734,106240 L 0 115321 L 9099 118045 L 21843 121677 L 30949 124401 L 33676 115321 C 43692,79908 69174,49942 101945,32689 L 109221 28149 L 105583 19977 L 100122 8172 L 95573 0 Z" fill="#FFFFFF" transform="translate(38225,35414)"/>
  <path d="M 0 129849 L 905 125309 C 16382,71735 54607,27241 104672,1816 L 108310 0 L 118320 19977 L 114682 21793 C 70085,43586 36403,84448 22754,131665 L 21843 136206 L 0 129849 Z" fill="#FFFFFF" transform="translate(5455,6360)"/>
  <path d="M 111955 11804 L 118327 24517 C 72818,47218 38225,88080 24577,137114 L 11833 133481 C 26392,79907 63713,36321 111955,11804 Z M 116504 0 L 108310 3632 C 56430,29965 18204,76275 2734,130757 L 0 139838 L 9099 142562 L 21843 145286 L 30948 148010 L 33675 138930 C 47330,92620 79184,53574 122876,31781 L 131071 28149 L 127425 19977 L 121054 8173 L 116504 0 Z" fill="#FFFFFF"/>
  <path d="M 161101 66287 L 0 66287 L 0 0 L 161101 0 L 161101 66287 Z M 13655 53576 L 148364 53576 L 148364 13618 L 13655 13618 L 13655 53576 Z" fill="#2D5967" transform="translate(111961,308738)"/>
  <path d="M 39143 78091 C 17293,78091 0,60839 0,39046 C 0,17253 17293,0 39143,0 C 60986,0 78279,17253 78279,39046 C 78279,60839 60986,78091 39143,78091 Z M 39143 13620 C 24577,13620 13655,25425 13655,39046 C 13655,52666 25488,64471 39143,64471 C 52792,64471 64624,52666 64624,39046 C 64624,25425 53703,13620 39143,13620 Z" fill="#2D5967" transform="translate(159292,147105)"/>
  <path d="M 104672 208848 C 46419,208848 0,161631 0,104424 C 0,47218 47330,0 104672,0 C 162019,0 209343,47218 209343,104424 C 209343,161631 162924,208848 104672,208848 Z M 104672 12712 C 54614,12712 12744,53574 12744,104424 C 12744,154366 53703,196136 104672,196136 C 155647,196136 196605,155274 196605,104424 C 196605,54482 155647,12712 104672,12712 Z" fill="#2D5967" transform="translate(93744,81714)"/>
  <path d="M 33682 32689 C 17293,51758 4556,59931 0,59931 L 0 73554 C 14566,73554 37320,49034 43692,41770 C 48242,36321 61897,19977 68269,3632 C 63713,3632 59163,1816 55525,0 C 51880,9080 43692,20885 33682,32689 Z" fill="#2D5967" transform="translate(266678,248809)"/>
  <path d="M 26399 0 C 11833,0 0,11804 0,26333 C 0,36321 5461,44494 13655,49034 C 17293,50850 21850,52666 26399,52666 C 40959,52666 52792,40862 52792,26333 C 52792,11804 40959,0 26399,0 Z M 26399 39046 C 19116,39046 12744,32689 12744,25425 C 12744,18161 19116,11804 26399,11804 C 33682,11804 40048,18161 40048,25425 C 39143,33597 33682,39046 26399,39046 Z" fill="#2D5967" transform="translate(312193,189779)"/>
  <path d="M 85556 11804 L 80095 0 C 41870,19069 11833,54482 0,96252 L 12744 99884 C 23666,60839 50058,29057 85556,11804 Z" fill="#2D5967" transform="translate(50071,48126)"/>
  <path d="M 107405 11804 L 101944 0 C 52791,23609 15477,67195 0,120769 L 12744 124401 C 27310,74458 61897,33597 107405,11804 Z" fill="#2D5967" transform="translate(10922,12711)"/>
</svg>