<svg xmlns="http://www.w3.org/2000/svg" viewBox="0 0 385010 385010" width="40" height="40">
  <path d="M 0 375845 L 0 57752 L 51335 57752 L 51335 0 L 162282 0 L 162282 37584 L 192505 37584 L 192505 60501 L 162282 60501 L 162282 98086 L 192505 98086 L 192505 121003 L 162282 121003 L 162282 158587 L 51335 158587 L 51335 104503 L 46779 104503 L 46779 329092 L 329120 329092 L 329120 104503 L 324564 104503 L 324564 158587 L 205339 158587 L 205339 111836 L 235627 111836 L 235627 107252 L 205339 107252 L 205339 51335 L 235627 51335 L 235627 46751 L 205339 46751 L 205339 0 L 324564 0 L 324564 57752 L 375899 57752 L 375899 375845 L 0 375845 Z" fill="#FFFFFF" transform="translate(4556,4584)"/>
  <path d="M 324499 9167 L 324499 66919 L 375834 66919 L 375834 375841 L 9176 375841 L 9176 66919 L 60511 66919 L 60511 9167 L 162282 9167 L 162282 46751 L 192505 46751 L 192505 60502 L 162282 60502 L 162282 108169 L 192505 108169 L 192505 121920 L 162282 121920 L 162282 159504 L 60511 159504 L 60511 105420 L 46779 105420 L 46779 340093 L 339194 340093 L 339194 104503 L 325398 104503 L 325398 158588 L 215413 158588 L 215413 121003 L 245701 121003 L 245701 107253 L 215413 107253 L 215413 60502 L 245701 60502 L 245701 46751 L 215413 46751 L 215413 9167 L 324499 9167 Z M 333676 0 L 324499 0 L 214515 0 L 205339 0 L 205339 9167 L 205339 46751 L 205339 55918 L 205339 60502 L 205339 108169 L 205339 117336 L 205339 121920 L 205339 159504 L 205339 168671 L 214515 168671 L 324499 168671 L 329120 168671 L 329120 330012 L 55890 330012 L 55890 167755 L 60511 167755 L 162282 167755 L 171394 167755 L 171394 158588 L 171394 130170 L 192505 130170 L 201682 130170 L 201682 121003 L 201682 107253 L 201682 98086 L 192505 98086 L 171394 98086 L 171394 69668 L 192505 69668 L 201682 69668 L 201682 60502 L 201682 46751 L 201682 37584 L 192505 37584 L 171394 37584 L 171394 9167 L 171394 0 L 162282 0 L 60511 0 L 51335 0 L 51335 9167 L 51335 57752 L 9176 57752 L 0 57752 L 0 66919 L 0 375841 L 0 385011 L 9176 385011 L 375834 385011 L 385011 385011 L 385011 375841 L 385011 66919 L 385011 57752 L 375834 57752 L 333676 57752 L 333676 9167 L 333676 0 Z" fill="#FFFFFF"/>
  <path d="M 315323 57752 L 315323 0 L 205339 0 L 205339 37585 L 235562 37585 L 235562 51335 L 205339 51335 L 205339 99003 L 235562 99003 L 235562 112753 L 205339 112753 L 205339 150338 L 315323 150338 L 315323 96253 L 329055 96253 L 329055 330925 L 37603 330925 L 37603 95336 L 51335 95336 L 51335 149421 L 153106 149421 L 153106 111837 L 183329 111837 L 183329 98086 L 153106 98086 L 153106 51335 L 183329 51335 L 183329 37585 L 153106 37585 L 153106 0 L 51335 0 L 51335 57752 L 0 57752 L 0 366680 L 366658 366680 L 366658 57752 L 315323 57752 Z M 302489 135671 L 219070 135671 L 219070 125587 L 249358 125587 L 249358 85252 L 219070 85252 L 219070 64168 L 249358 64168 L 249358 23834 L 219070 23834 L 219070 13751 L 302489 13751 L 302489 135671 Z M 139309 135671 L 64168 135671 L 64168 13751 L 138411 13751 C 139309,13751 139309,135671 139309,135671 Z M 352926 352928 L 13731 352928 L 13731 71502 L 51335 71502 L 51335 81586 L 23806 81586 L 23806 342841 L 342851 342841 L 342851 81586 L 315323 81586 L 315323 71502 L 352926 71502 L 352926 352928 Z" fill="#2D5967" transform="translate(9177,9167)"/>
</svg>