<svg xmlns="http://www.w3.org/2000/svg" viewBox="0 0 385010 349066" width="40" height="37">
  <path d="M 378081 176516 L 385011 169586 L 378081 162655 L 368840 153884 L 361910 147041 L 355108 153884 L 350424 158533 C 345996,135880 336692,114458 323152,95724 L 320008 91338 L 340606 69846 L 347536 63004 L 340606 56074 L 331879 47302 L 324564 39845 L 318532 45898 C 314168,34030 306661,23566 296779,15612 C 286961,7658 275154,2510 262642,712 C 250128,-1085 237359,534 225681,5400 C 214002,10266 203863,18197 196291,28353 L 190067 28353 C 154582,28860 120316,41210 92659,63443 L 90734 64934 C 84253,60667 77002,57816 69366,56572 C 61794,55328 53966,55719 46522,57718 C 39078,59716 32148,63278 26180,68165 C 20213,73053 15336,79156 11935,86067 C 8470,92978 6545,100540 6288,108251 C 5968,115961 7380,123644 10267,130788 C 13155,137933 17582,144375 23165,149688 C 28747,155001 35421,159063 42736,161603 L 40811 163533 L 6930 197394 L 0 204323 L 6930 211166 L 16171 220377 L 22972 227306 L 29903 220377 L 33240 217130 C 33240,217833 33240,218622 33240,219324 L 35614 228798 C 35614,229587 35614,230289 36255,230991 L 36255 231956 L 36255 232833 C 36384,233604 36576,234365 36833,235114 L 38180 239149 L 38180 239851 C 38180,240377 38180,240904 38180,241430 L 41388 250641 C 42031,252132 42608,253623 43314,255026 L 44982 258886 L 46329 261255 L 47485 263711 L 49474 267483 C 54094,275621 59356,283366 65260,290642 L 67954 293887 L 69944 295905 L 71612 298010 L 74564 301081 C 81045,307819 88167,313954 95804,319414 L 99204 321955 L 101578 323450 L 103761 325029 L 107482 327224 C 115503,332049 123973,336156 132701,339505 L 136679 340994 L 139245 341694 L 141876 342663 L 145983 343798 C 150347,345030 154710,346173 159458,347045 C 164207,347924 168763,348624 173447,349067 L 177619 349067 L 180377 349067 L 183137 349067 L 190195 349067 C 198601,349086 207007,348438 215350,347135 L 219584 346436 L 222215 345730 L 224911 345293 L 229017 344324 C 238065,342181 246856,339242 255326,335553 L 259241 333801 L 261615 332485 L 264117 331343 L 267903 329328 C 275347,325164 282534,320415 289207,315115 L 291581 313184 C 299602,317720 308650,320107 317891,320114 C 330596,320011 342852,315474 352541,307286 C 362230,299097 368776,287774 371021,275279 C 373204,262783 371021,249902 364733,238866 C 358509,227830 348563,219334 336692,214850 L 341825 209762 L 378081 176516 Z" fill="#FFFFFF"/>
  <path d="M 65067 75529 C 47869,75529 31378,68707 19186,56557 C 6994,44408 64,27919 0,10702 L 0 0 L 22909 0 L 22909 10702 C 22972,20114 26117,29242 31956,36645 C 37731,44049 45881,49307 54993,51589 C 64104,53873 73729,53050 82392,49252 C 90991,45454 98114,38897 102541,30615 L 105621 24825 L 122562 41756 L 120444 45089 C 114540,54410 106328,62087 96702,67408 C 87013,72729 76168,75522 65067,75529 Z" fill="#2C5967" transform="translate(187628,59143)"/>
  <path d="M 19315 0 L 0 0 C 4427,5202 9689,9596 15593,12983 L 22972 12983 L 22972 16667 C 27207,18344 31571,19579 36063,20352 L 36063 7105 C 30031,5819 24384,3408 19315,0 Z" fill="#2C5967" transform="translate(206943,108711)"/>
  <path d="M 127952 40176 L 118391 30702 L 109600 21404 L 102991 33070 C 98948,40268 92660,45943 85152,49218 C 77579,52494 69110,53186 61153,51188 C 53132,49190 46073,44614 40939,38167 C 35806,31720 32918,23763 32790,15526 L 32790 0 L 0 0 L 0 15526 C 0,29433 4171,43020 11935,54562 C 15208,59327 18994,63685 23293,67546 C 30223,73816 38373,78620 47164,81668 C 51399,83094 55827,84121 60254,84739 C 73665,86654 87333,84621 99590,78889 C 111910,73156 122241,63971 129364,52457 L 133406 45878 L 127952 40176 Z M 69944 75265 C 66735,75271 63463,75006 60254,74475 C 55763,73703 51399,72468 47164,70791 C 44598,69740 42159,68509 39785,67107 C 33881,63719 28619,59326 24192,54124 C 14952,43379 9818,29701 9689,15526 L 9689 9737 L 22780 9737 L 22780 15526 C 22780,23226 24705,30804 28298,37606 C 31892,44408 37090,50228 43506,54562 C 48576,57970 54223,60382 60254,61668 C 63463,62302 66735,62625 69944,62633 C 78478,62618 86884,60305 94200,55936 C 101515,51566 107482,45304 111525,37808 L 121022 47282 C 115632,55927 108059,63055 99141,67995 C 90221,72936 80211,75528 69944,75528 L 69944 75265 Z" fill="#FFFFFF" transform="translate(182751,54321)"/>
  <path d="M 101835 30878 C 96894,40125 89002,47453 79376,51704 C 69815,55955 59035,56886 48896,54350 C 38694,51814 29646,45955 23165,37701 C 16684,29447 13155,19267 13091,8772 L 13091 0 L 0 0 L 0 8772 C 64,21845 4364,34553 12256,44974 C 20149,55395 31186,62962 43763,66530 C 56340,70098 69751,69473 81943,64750 C 94135,60027 104466,51462 111332,40352 L 101835 30878 Z" fill="#2F2925" transform="translate(192441,61076)"/>
  <path d="M 55377 0 L 0 0 L 0 12983 L 55377 12983 L 55377 0 Z" fill="#2C5967" transform="translate(164977,133093)"/>
  <path d="M 55377 0 L 0 0 L 0 12983 L 55377 12983 L 55377 0 Z" fill="#2C5967" transform="translate(164977,157482)"/>
  <path d="M 55377 0 L 0 0 L 0 12983 L 55377 12983 L 55377 0 Z" fill="#2C5967" transform="translate(164977,181868)"/>
  <path d="M 52746 0 L 38951 0 L 27336 20089 L 15272 0 L 898 0 L 18032 28071 L 0 58248 L 13796 58248 L 26373 36229 L 39335 58248 L 53645 58248 L 35614 28247 L 52746 0 Z" fill="#2C5967" transform="translate(165939,210117)"/>
  <path d="M 0 1752 L 0 14733 L 2630 14733 C 10523,14733 18480,14117 26309,12891 L 24191 0 C 16170,1303 8085,1887 0,1752 Z" fill="#2C5967" transform="translate(189682,325909)"/>
  <path d="M 0 11140 C 7571,15619 15528,19462 23678,22632 L 28362 10440 C 20855,7565 13604,4075 6674,0 L 0 11140 Z" fill="#2C5967" transform="translate(114027,308102)"/>
  <path d="M 3530 0 L 0 12545 C 4235,13687 8792,14740 12834,15612 C 16876,16491 21626,17107 25796,17544 L 27208 4562 C 23293,4562 19251,3600 15272,2804 C 11358,2015 7508,1142 3530,0 Z" fill="#2C5967" transform="translate(150410,322309)"/>
  <path d="M 0 8772 C 6096,15204 12769,21074 19892,26316 L 27529 15790 C 20983,11080 14888,5796 9304,0 L 0 8772 Z" fill="#2C5967" transform="translate(83354,285995)"/>
  <path d="M 0 8072 L 3208 20701 C 11678,18442 20021,15510 28106,11929 L 22716 0 C 15401,3343 7828,6045 0,8072 Z" fill="#2C5967" transform="translate(225423,315468)"/>
  <path d="M 11358 0 L 0 6053 C 4235,13852 9176,21251 14759,28159 L 24833 19913 C 19829,13655 15272,6996 11358,0 Z" fill="#2C5967" transform="translate(59804,256784)"/>
  <path d="M 46715 62195 C 46265,60879 45881,59563 45495,58247 L 44725 55615 C 41902,45424 40298,34946 39913,24387 L 58586 43159 L 67761 33948 L 33945 0 L 0 33948 L 9176 43159 L 26758 25615 C 27143,35975 28683,46263 31186,56317 L 32020 59300 C 32020,60264 32533,61230 32854,62195 C 33239,63593 33688,64970 34201,66317 C 34394,67061 34587,67793 34907,68511 C 36383,72780 37987,76991 39913,81142 L 51719 75791 C 49987,71230 48255,66756 46715,62195 Z" fill="#2C5967" transform="translate(13796,170376)"/>
  <path d="M 44661 89301 C 53516,89301 62115,86682 69494,81776 C 76809,76869 82520,69896 85922,61737 C 89258,53578 90157,44600 88424,35940 C 86756,27278 82456,19322 76232,13078 C 70008,6833 62051,2580 53389,858 C 44725,-865 35742,19 27593,3398 C 19379,6778 12449,12501 7508,19844 C 2631,27186 0,35819 0,44650 C 0,56492 4684,67849 13091,76223 C 21432,84597 32790,89301 44661,89301 Z M 44661 12720 C 50950,12720 57046,14577 62244,18056 C 67441,21536 71548,26482 73922,32268 C 76296,38055 76938,44422 75719,50565 C 74499,56708 71484,62351 67056,66780 C 62628,71208 56982,74224 50822,75446 C 44661,76668 38308,76041 32534,73644 C 26759,71247 21817,67188 18352,61980 C 14823,56773 12962,50650 12962,44387 C 12962,35988 16299,27933 22266,21994 C 28234,16056 36255,12720 44661,12720 Z" fill="#2C5967" transform="translate(16748,65899)"/>
  <path d="M 8406 42632 C 30737,24976 58073,14706 86499,13246 C 87719,8667 89450,4228 91568,0 C 58265,468 26052,11942 0,32632 C 3208,35613 6031,38971 8406,42632 Z" fill="#2C5967" transform="translate(98691,38091)"/>
  <path d="M 11165 0 C 9048,4220 6545,8217 3593,11930 C 16555,31385 24384,53810 26309,77107 L 8791 59563 L 0 68774 L 33881 102634 L 67761 68774 L 58522 59563 L 40041 78160 C 37924,49914 27913,22828 11165,0 Z" fill="#2C5967" transform="translate(304030,100987)"/>
  <path d="M 44626 0 C 35771,0 27172,2619 19857,7525 C 12478,12431 6767,19405 3365,27564 C 29,35722 -870,44700 863,53361 C 2531,62023 6831,69978 13055,76222 C 19279,82470 27236,86718 35899,88444 C 44562,90164 53546,89278 61694,85903 C 69908,82521 76839,76799 81779,69457 C 86656,62114 89287,53481 89287,44650 C 89287,32808 84603,21451 76196,13078 C 67855,4704 56497,0 44626,0 Z M 44626 76317 C 38401,76317 32241,74460 27044,70981 C 21846,67501 17803,62555 15365,56769 C 12991,50982 12349,44615 13568,38472 C 14788,32329 17803,26686 22231,22258 C 26659,17829 32305,14813 38465,13591 C 44626,12369 50979,12997 56754,15393 C 62529,17790 67470,21849 70935,27057 C 74465,32265 76325,38387 76325,44650 C 76196,52988 72860,60953 66892,66816 C 60989,72679 52967,75967 44626,75967 L 44626 76317 Z" fill="#2C5967" transform="translate(275639,221955)"/>
  <path d="M 40619 9299 L 31378 0 L 16299 15000 L 9112 7895 L 0 17105 L 16299 33334 L 40619 9299 Z" fill="#2C5967" transform="translate(41324,96426)"/>
  <path d="M 25924 0 L 17582 8421 L 9176 0 L 0 9211 L 8406 17632 L 0 26054 L 9176 35264 L 17582 26843 L 25924 35264 L 35164 26054 L 26822 17632 L 35164 9211 L 25924 0 Z" fill="#2C5967" transform="translate(303452,249853)"/>
  <path d="M 17582 0 C 11999,4281 6161,8157 0,11577 L 6353 22897 C 13412,19014 20085,14555 26437,9562 C 23100,6765 20085,3550 17582,0 Z" fill="#2C5967" transform="translate(258855,298713)"/>
  <path d="M 642 29473 L 8535 37280 L 9241 37895 C 13989,29001 21497,21877 30673,17569 C 39785,13260 50052,11994 59934,13958 C 69880,15921 78863,21010 85665,28477 C 92467,35943 96702,45393 97729,55439 L 86435 43948 L 77644 52719 L 105044 80089 L 132379 52719 L 123588 43948 L 111012 55790 C 110049,43145 105172,31115 97023,21417 C 88810,11718 77836,4847 65516,1783 C 53196,-1280 40234,-380 28491,4356 C 16749,9093 6738,17422 0,28158 L 1091 29210 L 642 29473 Z" fill="#2C5967" transform="translate(201745,9673)"/>
  <path d="M 31186 0 L 18352 0 L 0 62985 L 0 63511 L 13539 63511 L 16491 50352 L 32148 50352 L 35228 63511 L 49088 63511 L 49088 62985 L 31186 0 Z M 24576 15790 L 29774 38773 L 19251 38773 L 24576 15790 Z" fill="#2C5967" transform="translate(228055,34760)"/>
  <path d="M 257 27633 L 9497 36405 L 22395 23509 C 23036,36073 27721,48089 35742,57811 C 43699,67532 54607,74451 66800,77563 C 78992,80674 91825,79815 103504,75111 C 115182,70407 125064,62102 131674,51405 L 123781 43598 C 118840,52854 111076,60258 101578,64693 C 92017,69128 81366,70354 71098,68185 C 60832,66016 51592,60572 44661,52671 C 37795,44771 33624,34844 32918,24387 L 45624 37019 L 54415 28247 L 27464 0 L 0 27369 L 257 27633 Z" fill="#2C5967" transform="translate(171586,49057)"/>
  <path d="M 87910 174040 L 13347 174040 L 13347 12983 L 64040 12983 C 59740,9123 55890,4765 52618,0 L 0 0 L 0 187111 L 101001 187111 L 101001 30176 C 96574,29559 92146,28531 87910,27106 L 87910 174040 Z" fill="#2C5967" transform="translate(142005,108711)"/>
</svg>