<svg xmlns="http://www.w3.org/2000/svg" viewBox="0 0 385928 385010" width="41" height="40">
  <path d="M 20168 375845 C 9170,375845 0,366675 0,355677 L 0 20167 C 0,9166 9170,0 20168,0 L 356597 0 C 367595,0 376765,9166 376765,20167 L 376765 356594 C 376765,367593 367595,376762 356597,376762 L 20168 375845 Z" fill="#FFFFFF" transform="translate(4581,4584)"/>
  <path d="M 360261 9167 C 368513,9167 375841,16500 375841,24750 L 375841 361178 C 375841,369424 368513,376759 360261,376759 L 24750 376759 C 16498,375841 9170,368513 9170,360261 L 9170 24750 C 9170,16500 16498,9167 24750,9167 L 360261 9167 Z M 360261 0 L 24750 0 C 10998,0 0,11000 0,24750 L 0 361178 C 0,374012 10998,385011 24750,385011 L 361178 385011 C 374930,385011 385928,374012 385928,360261 L 385928 24750 C 385011,11000 374012,0 360261,0 Z" fill="#FFFFFF"/>
  <path d="M 0 83419 C 0,129253 37583,166838 84337,166838 C 131090,166838 168673,129253 168673,83419 C 168673,37584 131090,0 84337,0 C 37583,0 0,37584 0,83419 Z M 154922 77002 L 141171 77002 L 141171 90752 L 154922 90752 C 151251,123753 124673,150337 90753,153087 L 90753 139337 L 77002 139337 L 77002 153087 C 43083,150337 16498,123753 12834,90752 L 25667 90752 L 25667 77002 L 12834 77002 C 16498,44001 43083,17417 77002,14667 L 77002 26584 L 90753 26584 L 90753 13750 C 124673,17417 152169,44001 154922,77002 Z" fill="#2D5967" transform="translate(109086,129255)"/>
  <path d="M 129254 13751 C 196169,13751 250257,65085 253921,129254 L 244758 120087 L 235588 130170 L 261255 155838 L 286923 130170 L 277760 120087 L 267672 130170 C 264008,57752 203504,0 129254,0 C 72421,0 21086,33917 0,85252 L 12834 90753 C 32084,44002 77920,13751 129254,13751 Z" fill="#2D5967" transform="translate(64168,76087)"/>
  <path d="M 12834 46751 L 12834 6417 C 12834,2750 10081,0 6417,0 C 2746,0 0,2750 0,6417 L 0 49501 C 0,51335 918,53168 1835,54084 L 21086 73335 C 21997,74252 23832,75168 25667,75168 C 27502,75168 29331,74252 30249,73335 C 33002,70585 33002,66002 30249,64168 L 12834 46751 Z" fill="#2D5967" transform="translate(187006,165005)"/>
  <path d="M 18333 25667 C 20168,99002 81590,158585 156757,158585 C 214509,158585 264926,124670 286012,72419 L 273178 67835 C 253927,115503 208092,145752 156757,145752 C 88918,145752 33919,92585 32084,26584 L 42172 35751 L 51335 25667 L 25667 0 L 0 25667 L 9170 35751 L 18333 25667 Z" fill="#2D5967" transform="translate(36666,193423)"/>
  <path d="M 0 314425 C 0,322677 7328,330011 15580,330011 L 352009 330011 C 360255,330011 367589,322677 367589,314425 L 367589 0 L 0 0 L 0 314425 Z M 13745 13750 L 352926 13750 L 352926 315342 C 352926,316260 352009,317177 351091,317177 L 15580 317177 C 14663,317177 13745,316260 13745,315342 L 13745 13750 Z" fill="#2D5967" transform="translate(9169,45836)"/>
  <path d="M 351091 0 L 15580 0 C 7328,0 0,7334 0,15584 L 0 26584 L 366671 26584 L 366671 15584 C 366671,7334 359343,0 351091,0 Z" fill="#2D5967" transform="translate(9169,9167)"/>
</svg>