<svg xmlns="http://www.w3.org/2000/svg" viewBox="0 0 385010 385010" width="40" height="40">
  <path d="M 236525 375845 L 236525 236506 L 292480 236506 L 292480 199838 L 81623 199838 L 81623 236506 L 139374 236506 L 139374 375845 L 0 375845 L 0 236506 L 57752 236506 L 57752 199838 L 0 199838 L 0 176004 L 176014 176004 L 176014 139337 L 117364 139337 L 117364 0 L 256674 0 L 256674 139337 L 199885 139337 L 199885 176004 L 375899 176004 L 375899 199838 L 316286 199838 L 316286 236506 L 375899 236506 L 375899 375845 L 236525 375845 Z" fill="#FFFFFF" transform="translate(4556,4584)"/>
  <path d="M 256674 9167 L 256674 139337 L 200783 139337 L 200783 185171 L 375834 185171 L 375834 200755 L 316286 200755 L 316286 246590 L 375834 246590 L 375834 375841 L 245701 375841 L 245701 245673 L 300693 245673 L 300693 199839 L 81558 199839 L 81558 245673 L 138411 245673 L 138411 375841 L 9176 375841 L 9176 245673 L 66030 245673 L 66030 199839 L 9176 199839 L 9176 184255 L 185190 184255 L 185190 138420 L 126476 138420 L 126476 9167 L 256674 9167 Z M 265850 0 L 256674 0 L 126476 0 L 117364 0 L 117364 9167 L 117364 139337 L 117364 148504 L 126476 148504 L 175116 148504 L 175116 176005 L 9176 176005 L 0 176005 L 0 185171 L 0 200755 L 0 209923 L 9176 209923 L 56853 209923 L 56853 237423 L 9176 237423 L 0 237423 L 0 246590 L 0 375841 L 0 385011 L 9176 385011 L 139309 385011 L 148486 385011 L 148486 375841 L 148486 245673 L 148486 236506 L 139309 236506 L 90734 236506 L 90734 209006 L 292415 209006 L 292415 236506 L 246600 236506 L 237423 236506 L 237423 245673 L 237423 375841 L 237423 385011 L 246600 385011 L 375834 385011 L 385011 385011 L 385011 375841 L 385011 245673 L 385011 236506 L 375834 236506 L 325398 236506 L 325398 209006 L 375834 209006 L 385011 209006 L 385011 199839 L 385011 184255 L 385011 175088 L 375834 175088 L 208996 175088 L 208996 147587 L 256674 147587 L 265850 147587 L 265850 138420 L 265850 9167 L 265850 0 Z" fill="#FFFFFF"/>
  <path d="M 366658 190672 L 366658 175088 L 190644 175088 L 190644 129254 L 247497 129254 L 247497 0 L 117299 0 L 117299 130170 L 175051 130170 L 175051 176005 L 0 176005 L 0 191589 L 56853 191589 L 56853 237423 L 0 237423 L 0 366680 L 130133 366680 L 130133 236507 L 72381 236507 L 72381 190672 L 292415 190672 L 292415 236507 L 237423 236507 L 237423 366680 L 366658 366680 L 366658 236507 L 307110 236507 L 307110 190672 L 366658 190672 Z M 114605 252090 L 114605 351093 L 15592 351093 L 15592 252090 L 114605 252090 Z M 132893 114587 L 132893 15584 L 231904 15584 L 231904 114587 L 132893 114587 Z M 351065 252090 L 351065 351093 L 252053 351093 L 252053 252090 L 351065 252090 Z" fill="#2D5967" transform="translate(9176,9167)"/>
</svg>