<svg xmlns="http://www.w3.org/2000/svg" viewBox="0 0 385928 385010" width="41" height="40">
  <path d="M 20168 375845 C 9170,375845 0,366675 0,355677 L 0 20167 C 0,9166 9170,0 20168,0 L 356597 0 C 367595,0 376765,9166 376765,20167 L 376765 356594 C 376765,367593 367595,376762 356597,376762 L 20168 375845 Z" fill="#FFFFFF" transform="translate(4581,4584)"/>
  <path d="M 360261 9167 C 368513,9167 375841,16500 375841,24750 L 375841 361178 C 375841,369424 368513,376759 360261,376759 L 24750 376759 C 16498,375841 9170,368513 9170,360261 L 9170 24750 C 9170,16500 16498,9167 24750,9167 L 360261 9167 Z M 360261 0 L 24750 0 C 10998,0 0,11000 0,24750 L 0 361178 C 0,374012 10998,385011 24750,385011 L 361178 385011 C 374930,385011 385928,374012 385928,360261 L 385928 24750 C 385011,11000 374012,0 360261,0 Z" fill="#FFFFFF"/>
  <path d="M 13751 51335 L 13751 14667 L 118249 14667 L 118249 105420 L 66004 105420 L 66004 118253 L 121920 118253 C 127419,118253 131083,113670 131083,109086 L 131083 0 L 0 0 L 0 50418 L 13751 50418 L 13751 51335 Z" fill="#2D5967" transform="translate(187006,101754)"/>
  <path d="M 132001 9167 C 132001,3667 127419,0 122838,0 L 9163 0 C 3664,0 0,4584 0,9167 L 0 17417 L 132001 17417 L 132001 9167 Z" fill="#2D5967" transform="translate(187006,73336)"/>
  <path d="M 21086 0 L 0 0 L 0 21084 L 9170 21084 C 10087,21084 11005,21084 11916,21084 L 21086 21084 L 21086 0 Z" fill="#2D5967" transform="translate(222754,132006)"/>
  <path d="M 21086 0 L 0 0 L 0 21084 L 21086 21084 L 21086 0 Z" fill="#2D5967" transform="translate(262173,132006)"/>
  <path d="M 21086 0 L 0 0 L 0 21084 L 21086 21084 L 21086 0 Z" fill="#2D5967" transform="translate(262173,169589)"/>
  <path d="M 0 0 L 0 145752 C 0,151251 4582,156757 10998,156757 L 166838 156757 C 172337,156757 177836,152169 177836,145752 L 177836 0 L 0 0 Z M 163167 143006 L 12834 143006 L 12834 12834 L 163167 12834 L 163167 143006 Z" fill="#2D5967" transform="translate(66004,192505)"/>
  <path d="M 177836 20167 L 177836 11000 C 177836,5501 173255,0 166838,0 L 10998 0 C 5499,0 0,4584 0,11000 L 0 20167 L 177836 20167 Z" fill="#2D5967" transform="translate(65086,162253)"/>
  <path d="M 0 50418 L 50417 50418 L 50417 0 L 0 0 L 0 50418 Z M 13745 13750 L 36666 13750 L 36666 36667 L 13745 36667 L 13745 13750 Z" fill="#2D5967" transform="translate(99923,216340)"/>
  <path d="M 50417 0 L 0 0 L 0 50418 L 50417 50418 L 50417 0 Z M 36666 36667 L 13745 36667 L 13745 13750 L 36666 13750 L 36666 36667 Z" fill="#2D5967" transform="translate(157675,216340)"/>
  <path d="M 0 50418 L 50417 50418 L 50417 0 L 0 0 L 0 50418 Z M 13745 13750 L 36666 13750 L 36666 36668 L 13745 36668 L 13745 13750 Z" fill="#2D5967" transform="translate(99923,273176)"/>
  <path d="M 0 50418 L 50417 50418 L 50417 0 L 0 0 L 0 50418 Z M 13745 13750 L 36666 13750 L 36666 36668 L 13745 36668 L 13745 13750 Z" fill="#2D5967" transform="translate(157675,273176)"/>
  <path d="M 19251 5500 L 918 23834 L 0 24750 L 918 25667 L 9163 33917 L 19251 24750 L 19251 54085 L 918 54085 L 918 67835 L 33002 67835 L 33002 24750 L 43083 33917 L 52252 23834 L 32084 5500 L 25667 0 L 19251 5500 Z" fill="#2D5967" transform="translate(252092,224589)"/>
  <path d="M 0 314425 C 0,322677 7328,330011 15580,330011 L 352009 330011 C 360254,330011 367589,322677 367589,314425 L 367589 0 L 0 0 L 0 314425 Z M 13745 13750 L 352926 13750 L 352926 315342 C 352926,316260 352009,317177 351091,317177 L 15580 317177 C 14662,317177 13745,316260 13745,315342 L 13745 13750 Z" fill="#2D5967" transform="translate(9170,45836)"/>
  <path d="M 351091 0 L 15580 0 C 7328,0 0,7334 0,15584 L 0 26584 L 366671 26584 L 366671 15584 C 366671,7334 359343,0 351091,0 Z" fill="#2D5967" transform="translate(9170,9167)"/>
</svg>