<svg xmlns="http://www.w3.org/2000/svg" viewBox="0 0 385010 385429" width="40" height="40">
  <path d="M 157193 294435 C 156546,292521 155307,290861 153658,289692 C 152009,288523 150032,287904 148011,287923 C 145720,287932 143519,288796 141832,290344 L 89823 335343 L 102849 267804 C 103119,266420 103080,264994 102734,263626 C 102394,262258 101752,260983 100860,259892 C 99968,258800 98845,257918 97575,257309 C 96298,256700 94912,256379 93500,256368 L 91581 256368 L 24044 269558 L 69122 217550 C 70188,216387 70932,214968 71285,213432 C 71631,211895 71580,210293 71125,208784 C 70746,207262 69989,205860 68923,204707 C 67858,203554 66517,202689 65035,202189 L 0 179650 L 65035 157193 C 66523,156686 67871,155818 68943,154668 C 70021,153518 70803,152120 71208,150598 C 71631,149080 71657,147480 71291,145948 C 70926,144416 70181,143000 69122,141833 L 24127 89825 L 91665 102848 C 92300,102935 92948,102935 93584,102848 C 94995,102833 96388,102503 97658,101882 C 98929,101261 100045,100365 100931,99258 C 101848,98178 102503,96901 102856,95526 C 103202,94151 103228,92714 102933,91328 L 89907 24043 L 141915 69122 C 143603,70671 145804,71534 148095,71543 C 150116,71550 152086,70926 153728,69758 C 155378,68591 156616,66938 157277,65032 L 179736 0 L 202272 65032 C 202907,66939 204133,68596 205763,69766 C 207399,70935 209362,71557 211371,71543 C 213694,71555 215927,70690 217634,69122 L 269643 24126 L 256616 91661 C 256237,93110 256225,94630 256578,96086 C 256924,97543 257630,98891 258625,100010 C 259510,101105 260627,101989 261897,102596 C 263168,103203 264560,103517 265972,103516 L 267807 103516 L 335421 90493 L 290343 142417 C 289297,143602 288559,145026 288194,146564 C 287834,148102 287853,149706 288257,151234 C 288662,152762 289438,154166 290516,155322 C 291594,156479 292942,157351 294437,157861 L 359465 180317 L 294437 202857 C 292929,203338 291569,204196 290491,205351 C 289406,206505 288643,207917 288257,209452 C 287847,210965 287809,212557 288161,214086 C 288508,215616 289233,217035 290260,218218 L 335338 270226 L 267807 257203 L 265889 257203 C 264470,257217 263078,257548 261807,258168 C 260537,258789 259420,259686 258541,260792 C 257611,261850 256944,263112 256597,264476 C 256250,265840 256225,267266 256533,268639 L 269559 336261 L 217550 291179 C 215863,289631 213662,288767 211371,288758 C 209349,288739 207373,289357 205724,290526 C 204075,291696 202843,293356 202188,295270 L 179652 360298 L 157193 294435 Z" fill="#FFFFFF" transform="translate(12782,13357)"/>
  <path d="M 192505 26129 L 202689 55597 L 211037 79724 C 211967,82460 213732,84835 216080,86513 C 218435,88191 221253,89086 224147,89074 C 227470,89079 230679,87861 233162,85651 L 252445 68955 L 275988 48502 L 270143 79139 L 265214 104183 C 264849,106187 264919,108248 265426,110222 C 265927,112196 266857,114038 268141,115620 C 269430,117179 271054,118436 272882,119301 C 274718,120166 276713,120620 278741,120629 L 281411 120629 L 306456 115787 L 337006 109860 L 316639 133401 L 299942 152769 C 298447,154464 297395,156502 296882,158703 C 296368,160903 296407,163197 296990,165379 C 297581,167561 298697,169565 300244,171210 C 301797,172855 303728,174091 305872,174808 L 329999 183155 L 359465 193340 L 329999 203525 L 305872 211873 C 303741,212618 301822,213872 300289,215527 C 298755,217182 297645,219187 297061,221367 C 296477,223547 296432,225838 296933,228039 C 297440,230240 298473,232284 299942,233995 L 316639 253279 L 337089 276820 L 306456 270977 L 281411 266051 C 280525,265965 279627,265965 278741,266051 C 276688,266055 274653,266517 272805,267406 C 270951,268295 269321,269587 268031,271188 C 266742,272789 265830,274658 265355,276658 C 264881,278659 264861,280739 265298,282747 L 270143 307792 L 275988 338343 L 252528 317976 L 233162 301280 C 230704,299082 227522,297864 224230,297857 C 221336,297844 218519,298740 216164,300418 C 213816,302096 212051,304471 211120,307207 L 202772 331336 L 192589 360802 L 182488 331336 L 174140 307207 C 173235,304457 171477,302067 169116,300386 C 166761,298704 163931,297819 161030,297857 C 157739,297864 154556,299082 152098,301280 L 132816 317976 L 109189 338426 L 115118 307792 L 119963 282747 C 120412,280738 120405,278652 119937,276644 C 119475,274638 118557,272761 117268,271157 C 115978,269552 114342,268259 112481,267375 C 110620,266492 108579,266039 106519,266051 L 103850 266051 L 78805 270894 L 48248 276820 L 68622 253279 L 85318 233911 C 86800,232210 87840,230171 88347,227973 C 88860,225775 88822,223486 88238,221306 C 87660,219123 86550,217118 85004,215471 C 83464,213824 81532,212587 79389,211873 L 55262 203525 L 25545 193007 L 55012 182905 L 79139 174557 C 81282,173841 83213,172604 84766,170960 C 86313,169314 87429,167311 88020,165129 C 88604,162946 88642,160653 88129,158452 C 87616,156252 86563,154213 85068,152518 L 68371 133234 L 47914 109609 L 78555 115453 L 103600 120295 C 104511,120418 105441,120418 106353,120295 C 108399,120262 110414,119779 112250,118881 C 114085,117983 115702,116691 116985,115098 C 118269,113504 119186,111648 119674,109661 C 120155,107673 120200,105604 119796,103599 L 114951 78555 L 109022 48001 L 132566 68370 L 151931 85066 C 154402,87234 157578,88422 160864,88406 C 163745,88437 166568,87558 168917,85895 C 171272,84231 173043,81867 173973,79139 L 182322 55014 L 192505 25545 L 192505 26129 Z M 192505 0 L 184574 22790 L 174474 52843 L 166125 76969 C 165740,78053 165028,78991 164085,79650 C 163141,80308 162019,80655 160864,80642 C 159567,80659 158316,80182 157360,79306 L 138077 62610 L 114534 42324 L 96253 26380 L 100840 50088 L 106770 80642 L 111614 105686 C 111755,106468 111730,107272 111537,108043 C 111338,108814 110979,109533 110479,110152 C 109984,110771 109356,111274 108643,111627 C 107931,111980 107148,112175 106353,112197 L 105185 112197 L 80140 107356 L 49589 101429 L 25879 96837 L 41741 115035 L 62108 138577 L 78805 157944 C 79383,158609 79787,159408 79979,160268 C 80165,161130 80133,162023 79889,162870 C 79690,163737 79273,164539 78670,165197 C 78074,165855 77310,166348 76469,166626 L 52259 174975 L 22792 185159 L 0 193007 L 22792 200937 L 52259 211121 L 76386 219470 C 77239,219744 78016,220233 78626,220890 C 79242,221548 79678,222352 79889,223226 C 80140,224091 80165,225006 79960,225883 C 79755,226760 79331,227570 78721,228235 L 62025 247519 L 41741 271060 L 25795 289259 L 49506 284417 L 80056 278490 L 105101 273648 L 106186 273648 C 106988,273665 107771,273852 108489,274198 C 109208,274543 109850,275039 110363,275652 C 110883,276264 111255,276991 111448,277775 C 111634,278558 111634,279376 111448,280159 L 106603 305204 L 100674 335840 L 96169 359551 L 114451 343688 L 137994 323321 L 157360 306623 C 158310,305787 159523,305313 160780,305287 C 161935,305274 163058,305621 164002,306279 C 164945,306938 165657,307876 166042,308960 L 174390 333171 L 184574 362637 L 192422 385430 L 200353 362804 L 210537 333338 L 218885 309127 C 219289,308056 220008,307132 220944,306476 C 221881,305821 222998,305464 224147,305454 C 225449,305484 226694,305989 227650,306873 L 246933 323571 L 270476 344022 L 288674 359551 L 283830 336091 L 277907 305537 L 273062 280494 C 272921,279712 272946,278907 273139,278137 C 273338,277366 273697,276646 274192,276028 C 274692,275409 275321,274906 276033,274552 C 276746,274199 277528,274005 278324,273982 L 279408 273982 L 304453 278824 L 335087 284751 L 358798 289259 L 342935 271060 L 322568 247519 L 305872 228152 C 305377,227478 305044,226701 304896,225879 C 304742,225058 304787,224213 305012,223409 C 305236,222605 305641,221862 306192,221237 C 306750,220613 307437,220123 308207,219803 L 332418 211456 L 362218 200937 L 385011 193090 L 362218 185159 L 332752 175058 L 308541 166710 C 307706,166417 306956,165920 306353,165265 C 305756,164609 305332,163814 305121,162953 C 304871,162088 304845,161173 305050,160296 C 305256,159419 305679,158610 306289,157944 L 322985 138660 L 343436 115119 L 358964 96921 L 335254 101429 L 304704 107356 L 279659 112197 L 278574 112197 C 277772,112181 276989,111993 276270,111648 C 275552,111302 274910,110807 274397,110194 C 273877,109579 273511,108851 273325,108068 C 273133,107286 273133,106470 273312,105686 L 278157 80642 L 284080 50005 L 288591 26296 L 270559 42324 L 247016 62610 L 227650 79306 C 226983,79817 226206,80164 225379,80323 C 224551,80481 223704,80446 222895,80220 C 222087,79992 221336,79581 220714,79017 C 220091,78453 219610,77752 219302,76969 L 210954 52759 L 200353 23375 L 192589 585 L 192505 0 Z" fill="#FFFFFF"/>
  <path d="M 274397 207615 C 272928,205904 271895,203859 271394,201659 C 270887,199458 270932,197168 271516,194987 C 272100,192807 273210,190802 274744,189147 C 276277,187492 278196,186238 280326,185493 L 304453 177145 L 333920 166960 L 304453 156776 L 280326 148427 C 278183,147711 276252,146475 274705,144829 C 273152,143185 272036,141181 271445,138999 C 270861,136817 270823,134523 271336,132323 C 271856,130123 272908,128084 274397,126389 L 291094 107021 L 311467 83480 L 280910 89407 L 255865 94249 L 253196 94249 C 251168,94240 249172,93787 247337,92921 C 245508,92055 243885,90799 242595,89240 C 241312,87658 240381,85816 239881,83842 C 239374,81867 239303,79808 239676,77804 L 244597 52759 L 250443 22122 L 226899 42825 L 207617 59521 C 205134,61731 201925,62950 198601,62944 C 195714,62957 192890,62061 190542,60383 C 188187,58705 186422,56330 185492,53594 L 177143 29468 L 166960 0 L 156776 29468 L 148428 53594 C 147498,56321 145727,58685 143378,60349 C 141023,62013 138206,62892 135325,62860 C 132040,62877 128857,61688 126393,59521 L 107020 42825 L 83483 22372 L 89406 52926 L 94251 77970 C 94655,79976 94610,82045 94129,84032 C 93641,86020 92723,87875 91447,89469 C 90163,91062 88546,92354 86705,93252 C 84869,94150 82854,94633 80807,94666 C 79896,94789 78966,94789 78054,94666 L 53009 89824 L 22376 83981 L 42743 107522 L 59439 126806 C 60935,128501 61987,130540 62500,132740 C 63013,134940 62975,137234 62391,139416 C 61801,141599 60684,143602 59138,145247 C 57585,146893 55653,148128 53510,148845 L 29383 157193 L 0 166876 L 29466 177145 L 53593 185493 C 55737,186207 57668,187444 59215,189091 C 60755,190737 61865,192743 62442,194926 C 63026,197106 63065,199395 62558,201594 C 62044,203791 61005,205831 59523,207532 L 42826 226899 L 22376 250440 L 52926 244513 L 77971 239672 L 80641 239672 C 82700,239659 84741,240111 86602,240995 C 88463,241879 90099,243172 91389,244777 C 92685,246382 93596,248257 94064,250265 C 94527,252271 94533,254357 94084,256368 L 89239 281411 L 83316 312051 L 106937 291596 L 126226 274900 C 128677,272702 131860,271485 135158,271477 C 138052,271439 140882,272324 143237,274006 C 145598,275688 147356,278077 148261,280827 L 156609 304954 L 166710 334420 L 176893 304954 L 185242 280827 C 186172,278091 187937,275716 190285,274038 C 192640,272360 195463,271465 198351,271477 C 201643,271485 204825,272702 207284,274900 L 226649 291596 L 250109 311968 L 244264 281411 L 239419 256368 C 238989,254359 239002,252278 239477,250278 C 239952,248278 240863,246409 242152,244808 C 243442,243207 245072,241915 246927,241026 C 248781,240138 250809,239674 252862,239672 C 253748,239585 254646,239585 255532,239672 L 280577 244597 L 311217 250440 L 290760 226899 L 274397 207615 Z M 257707 229153 C 256141,228821 254543,228653 252946,228652 C 249333,228759 245785,229648 242544,231257 C 239303,232866 236454,235157 234183,237973 C 231918,240790 230288,244063 229402,247570 C 228517,251076 228408,254733 229068,258288 L 233913 283331 L 214631 266635 C 211589,263998 207951,262148 204030,261247 C 200109,260346 196028,260423 192146,261470 C 188264,262517 184696,264503 181757,267253 C 178825,270002 176611,273431 175308,277237 L 166960 301361 L 158612 277154 C 156969,272282 153837,268050 149660,265054 C 145476,262058 140465,260450 135325,260458 C 129453,260448 123781,262586 119379,266468 L 99679 283331 L 104518 258288 C 105204,254738 105102,251081 104216,247578 C 103324,244074 101675,240809 99378,238018 C 97081,235226 94193,232977 90927,231430 C 87661,229883 84093,229077 80474,229069 C 78908,229046 77342,229186 75802,229487 L 50757 234328 L 67454 215045 C 70187,212025 72132,208372 73101,204416 C 74070,200458 74044,196322 73017,192380 C 71984,188436 69995,184812 67217,181832 C 64438,178851 60960,176609 57103,175308 L 32893 166960 L 57020 158612 C 60812,157308 64226,155093 66960,152164 C 69700,149234 71683,145678 72728,141807 C 73774,137935 73852,133866 72966,129956 C 72074,126046 70239,122414 67621,119376 L 50924 99675 L 75969 104517 C 77535,104849 79126,105016 80724,105018 C 84311,104924 87840,104062 91062,102488 C 94289,100914 97132,98665 99416,95895 C 101694,93124 103350,89896 104274,86429 C 105198,82962 105364,79337 104768,75800 L 99929 50756 L 119212 67452 C 123627,71377 129332,73546 135241,73546 C 140381,73553 145393,71946 149577,68950 C 153754,65954 156886,61722 158528,56850 L 166877 32724 L 175225 56850 C 176932,61681 180082,65873 184247,68859 C 188411,71844 193391,73480 198518,73546 C 204409,73553 210107,71417 214547,67535 L 233913 50839 L 229068 75883 C 228382,79432 228484,83089 229377,86593 C 230262,90097 231918,93361 234215,96153 C 236512,98945 239393,101194 242660,102741 C 245932,104288 249500,105094 253112,105102 C 254678,105083 256244,104944 257790,104684 L 283329 99675 L 266639 118959 C 264111,122034 262359,125666 261518,129555 C 260678,133443 260774,137476 261801,141319 C 262827,145162 264759,148705 267428,151654 C 270098,154603 273434,156874 277156,158279 L 301367 166626 L 277156 174975 C 273377,176361 269989,178639 267275,181613 C 264567,184588 262609,188173 261576,192064 C 260543,195954 260466,200037 261345,203965 C 262224,207892 264040,211550 266639,214627 L 283329 233995 L 257707 229153 Z" fill="#2D5967" transform="translate(25545,26131)"/>
  <path d="M 121214 0 L 12192 0 C 8965,22 5878,1313 3593,3594 C 1316,5875 26,8962 0,12188 L 0 121213 C 26,124439 1316,127526 3593,129808 C 5878,132088 8965,133379 12192,133401 L 121214 133401 C 124371,133293 127368,131961 129563,129687 C 131757,127413 132989,124374 132983,121213 L 132983 12188 C 132989,9027 131757,5988 129563,3714 C 127368,1440 124371,108 121214,0 Z M 122549 121213 C 122549,121568 122408,121907 122157,122157 C 121907,122408 121567,122549 121214,122549 L 12192 122549 C 11826,122550 11480,122412 11217,122163 C 10947,121915 10793,121575 10768,121213 L 10768 12188 C 10787,11818 10947,11469 11210,11207 C 11467,10945 11820,10789 12192,10769 L 121214 10769 C 121573,10790 121914,10949 122164,11213 C 122414,11477 122549,11826 122549,12188 L 122549 121213 Z" fill="#2D5967" transform="translate(125809,126385)"/>
  <path d="M 87821 0 L 0 0 L 0 23541 L 87821 23541 L 87821 0 Z" fill="#2D5967" transform="translate(148935,213122)"/>
  <path d="M 23537 0 L 0 0 L 0 23541 L 23537 23541 L 23537 0 Z" fill="#2D5967" transform="translate(148935,149517)"/>
  <path d="M 23543 0 L 0 0 L 0 23541 L 23543 23541 L 23543 0 Z" fill="#2D5967" transform="translate(180724,149517)"/>
  <path d="M 23537 0 L 0 0 L 0 23541 L 23537 23541 L 23537 0 Z" fill="#2D5967" transform="translate(148935,181319)"/>
  <path d="M 23543 0 L 0 0 L 0 23541 L 23543 23541 L 23543 0 Z" fill="#2D5967" transform="translate(180724,181319)"/>
  <path d="M 23537 0 L 0 0 L 0 23541 L 23537 23541 L 23537 0 Z" fill="#2D5967" transform="translate(212539,149517)"/>
  <path d="M 23537 0 L 0 0 L 0 23541 L 23537 23541 L 23537 0 Z" fill="#2D5967" transform="translate(212539,181319)"/>
</svg>