<svg xmlns="http://www.w3.org/2000/svg" viewBox="0 0 385010 240634" width="40" height="25">
  <path d="M 261255 231482 L 261255 209523 L 0 209523 L 0 0 L 353844 0 L 353844 111624 L 375847 111624 L 375847 231482 L 261255 231482 Z" fill="#FFFFFF" transform="translate(4582,4577)"/>
  <path d="M 353844 9149 L 353844 120773 L 375841 120773 L 375841 232395 L 270425 232395 L 270425 210437 L 261255 210437 L 85254 210437 L 84337 210437 L 73338 210437 L 64168 210437 L 41254 210437 L 9170 210437 L 9170 9149 L 41254 9149 L 63251 9149 L 72421 9149 L 83419 9149 L 85254 9149 L 306173 9149 L 353844 9149 Z M 363007 0 L 353844 0 L 307091 0 L 85254 0 L 84337 0 L 73338 0 L 64168 0 L 41254 0 L 9170 0 L 0 0 L 0 9149 L 0 209525 L 0 218676 L 9170 218676 L 41254 218676 L 63251 218676 L 72421 218676 L 83419 218676 L 85254 218676 L 260338 218676 L 260338 231484 L 260338 240634 L 269507 240634 L 375841 240634 L 385011 240634 L 385011 231484 L 385011 120773 L 385011 111624 L 375841 111624 L 363007 111624 L 363007 9149 L 363007 0 Z" fill="#FFFFFF"/>
  <path d="M 12834 187565 L 12834 12809 L 21997 12809 L 21997 0 L 0 0 L 0 200373 L 21997 200373 L 21997 187565 L 12834 187565 Z" fill="#2C5967" transform="translate(9170,9146)"/>
  <path d="M 12834 187565 L 12834 12809 L 21997 12809 L 21997 0 L 0 0 L 0 200373 L 21997 200373 L 21997 187565 L 12834 187565 Z" fill="#2C5967" transform="translate(41254,9146)"/>
  <path d="M 11916 0 L 10998 0 L 0 0 L 0 12809 L 0 187565 L 0 200373 L 10998 200373 L 11916 200373 L 187917 200373 L 187917 187565 L 11916 187565 L 11916 12809 L 267672 12809 L 267672 101559 L 280506 101559 L 280506 0 L 11916 0 Z" fill="#2C5967" transform="translate(73338,9146)"/>
  <path d="M 82501 0 L 0 0 L 0 12809 L 82501 12809 L 82501 0 Z" fill="#2C5967" transform="translate(98088,34763)"/>
  <path d="M 82501 0 L 0 0 L 0 12809 L 82501 12809 L 82501 0 Z" fill="#2C5967" transform="translate(98088,56721)"/>
  <path d="M 82501 0 L 0 0 L 0 12809 L 82501 12809 L 82501 0 Z" fill="#2C5967" transform="translate(98088,79597)"/>
  <path d="M 38501 0 L 0 0 L 0 12809 L 38501 12809 L 38501 0 Z" fill="#2C5967" transform="translate(222754,149132)"/>
  <path d="M 38501 0 L 0 0 L 0 12807 L 38501 12807 L 38501 0 Z" fill="#2C5967" transform="translate(222754,171090)"/>
  <path d="M 0 0 L 0 111622 L 105416 111622 L 105416 0 L 0 0 Z M 92582 98814 L 12834 98814 L 12834 12809 L 92582 12809 L 92582 98814 Z" fill="#2C5967" transform="translate(270425,120767)"/>
  <path d="M 9170 0 L 0 0 L 0 43002 L 9170 43002 L 9170 0 Z" fill="#2C5967" transform="translate(298839,157366)"/>
  <path d="M 15580 0 L 0 0 L 0 43002 L 9163 43002 L 9163 29277 L 15580 29277 C 21086,29277 24750,28366 27503,25619 C 30249,22873 31167,19215 31167,14639 C 31167,10064 30249,6405 27503,3660 C 24750,915 21086,0 15580,0 Z M 20168 20126 C 19251,21044 16498,21962 13751,21962 L 9163 21962 L 9163 7320 L 13751 7320 C 16498,7320 19251,8235 20168,9149 C 21086,10064 21997,11894 21997,14639 C 21997,16469 21997,18299 20168,20126 Z" fill="#2C5967" transform="translate(316261,157366)"/>
  <path d="M 0 0 L 0 56727 L 57752 56727 L 57752 0 L 0 0 Z M 44918 44833 L 12834 44833 L 12834 12809 L 44918 12809 L 44918 44833 Z" fill="#2C5967" transform="translate(270425,34763)"/>
</svg>