<svg xmlns="http://www.w3.org/2000/svg" viewBox="0 0 369690 385011" width="39" height="40">
  <path d="M 82232 16928 L 55301 81654 L 46163 68673 L 67422 17698 L 56552 13174 L 35588 63764 L 19039 66556 L 44815 4518 L 33952 0 L 0 81751 L 36640 75501 L 57996 105891 L 93006 21445 L 82232 16928 Z" fill="#2C5967" transform="translate(190602,260653)"/>
  <path d="M 43955 0 L 33085 4518 L 58862 66556 L 42319 63764 L 21156 12307 L 10293 16735 L 31738 68673 L 22600 81654 L 6346 42512 L 0 57803 L 19905 105891 L 41260 75501 L 77907 81751 L 43955 0 Z" fill="#2C5967" transform="translate(277551,260653)"/>
  <path d="M 363530 339035 L 333525 266710 C 345768,252484 352583,234389 352763,215619 C 352936,196857 346461,178633 334487,164182 C 333878,131232 323553,99192 304803,72094 C 286047,44989 259706,24032 229084,11846 C 198463,-333 164929,-3201 132684,3613 C 100440,10428 70922,26611 47847,50142 C 24772,73672 9160,103492 2974,135865 C -3212,168231 298,201708 13074,232092 C 25850,262469 47315,288399 74772,306623 C 102230,324847 134462,334549 167418,334517 C 173290,334517 179059,334517 184827,333651 L 182524 339035 L 176363 353851 L 192425 351060 L 223207 346157 L 241385 371934 L 251004 385011 L 257062 370297 L 273412 330956 L 289762 370297 L 295435 384626 L 305053 371549 L 322847 346157 L 353918 351445 L 369690 354236 L 363530 339035 Z" fill="#FFFFFF"/>
  <path d="M 184978 302775 C 178118,304033 171175,304803 164207,305085 L 164207 164274 L 196329 164274 C 198922,160135 201880,156240 205178,152634 L 164207 152634 L 164207 11829 C 178670,12458 192960,15211 206622,20004 C 221778,55566 231660,93156 235953,131573 C 239681,130162 243506,129039 247401,128205 C 243422,93156 234849,58781 221913,25965 C 243576,36360 262365,51902 276636,71230 C 290900,90563 300218,113099 303760,136861 C 308354,139607 312647,142829 316555,146480 C 314219,115737 302958,86341 284170,61893 C 265374,37451 239861,19016 210748,8858 C 181635,-1306 150192,-2757 120270,4680 C 90349,12118 63244,28121 42280,50734 C 21310,73341 7398,101575 2239,131978 C -2927,162374 891,193618 13225,221878 C 25551,250144 45854,274194 71650,291090 C 97439,307985 127598,316994 158431,317007 C 165548,316956 172651,316411 179690,315371 L 184978 302775 Z M 97555 24906 C 80775,65493 71393,108749 69853,152634 L 12147 152634 C 13218,125542 21766,99271 36839,76729 C 51912,54193 72927,36258 97555,24906 Z M 11762 164274 L 69468 164274 C 71233,208171 80640,251427 97266,292097 C 72600,280765 51552,262824 36460,240262 C 21368,217700 12814,191398 11762,164274 Z M 152566 305085 C 138924,304616 125410,302185 112461,297872 C 94051,255605 83553,210327 81487,164274 L 152566 164274 L 152566 305085 Z M 152566 152634 L 81487 152634 C 83361,106561 93865,61245 112461,19041 C 117229,17482 122080,16167 126982,15101 C 133669,13619 140451,12625 147279,12118 C 149037,12021 150808,12021 152566,12118 L 152566 152634 Z" fill="#2C5967" transform="translate(8987,8758)"/>
  <path d="M 132630 120925 C 142518,111005 149250,98370 151964,84632 C 154678,70887 153266,56641 147889,43705 C 142518,30769 133432,19712 121779,11929 C 110132,4152 96432,0 82425,0 C 68417,0 54717,4152 43070,11929 C 31417,19712 22331,30769 16960,43705 C 11589,56641 10171,70887 12885,84632 C 15600,98370 22331,111005 32219,120925 L 0 198447 L 36640 192582 L 57996 222876 L 91755 141511 C 94475,141183 97170,140702 99834,140067 L 119071 185755 L 109548 198351 L 93294 159208 L 86949 174500 L 106854 222588 L 128209 192582 L 164849 198832 L 132630 120925 Z M 35588 180461 L 19039 182963 L 41646 128523 C 45547,131257 49705,133605 54049,135543 L 35588 180461 Z M 54819 198351 L 45682 185370 L 64919 139682 C 69405,140753 73973,141427 78575,141703 L 54819 198351 Z M 81943 130063 C 70220,130063 58766,126585 49019,120072 C 39271,113559 31680,104299 27195,93468 C 22716,82636 21548,70720 23845,59221 C 26136,47729 31789,37173 40086,28889 C 48377,20604 58945,14971 70444,12692 C 81943,10421 93859,11608 104685,16106 C 115510,20604 124756,28215 131250,37968 C 137751,47729 141209,59189 141190,70912 C 141164,86525 134979,101502 123973,112577 C 112969,123652 98037,129935 82425,130063 L 81943 130063 Z M 110800 135832 C 115138,133932 119263,131577 123107,128812 L 146099 182963 L 129556 180076 L 110800 135832 Z" fill="#2C5967" transform="translate(190602,143956)"/>
  <path d="M 0 6828 L 11063 6828 L 11063 37320 L 19045 37320 L 19045 6828 L 30108 6828 L 30108 0 L 0 0 L 0 6828 Z" fill="#2C5967" transform="translate(229168,195920)"/>
  <path d="M 7983 0 L 0 0 L 0 37320 L 24333 37320 L 24333 30204 L 7983 30204 L 7983 0 Z" fill="#2C5967" transform="translate(264659,195920)"/>
  <path d="M 27201 27417 C 27304,24997 26553,22617 25083,20685 C 23114,18690 20662,17233 17967,16457 L 14021 15109 C 12436,14634 10915,13954 9503,13088 C 9118,12838 8804,12491 8586,12087 C 8368,11689 8252,11240 8252,10778 C 8252,8275 10370,7030 14695,7030 C 16376,7043 18057,7242 19700,7608 C 21510,7929 23287,8442 24987,9141 L 24987 2025 C 23454,1313 21837,799 20181,485 C 18365,183 16536,23 14695,4 C 12070,-47 9458,414 7001,1351 C 4986,2109 3247,3450 2002,5201 C 699,7062 0,9276 0,11548 C 0,13819 699,16033 2002,17894 C 3902,19890 6289,21346 8926,22129 L 12866 23477 C 14489,23862 16023,24548 17390,25491 C 17749,25742 18038,26075 18237,26460 C 18442,26845 18545,27269 18545,27705 C 18539,28321 18372,28924 18044,29451 C 17723,29977 17268,30407 16716,30689 C 15131,31459 13379,31825 11621,31748 C 7732,31677 3895,30927 269,29534 L 269 36650 C 1303,37164 2406,37517 3542,37709 C 4992,38075 6475,38332 7963,38479 L 12583 38479 C 16440,38813 20297,37754 23447,35495 C 24679,34552 25661,33326 26316,31921 C 26970,30510 27272,28970 27201,27417 Z" fill="#2C5967" transform="translate(292284,195243)"/>
</svg>