<svg xmlns="http://www.w3.org/2000/svg" viewBox="0 0 385010 308009" width="40" height="32">
  <path d="M 0 300673 L 0 21267 C 0,9533 9562,0 21304,0 L 117364 0 C 123974,0 130583,2933 134241,8800 L 154004 35201 L 357162 35201 C 368905,35201 378402,44734 378402,56468 L 378402 301411 L 0 301411 L 0 300673 Z" fill="#FFFFFF" transform="translate(3657,3666)"/>
  <path d="M 121022 7333 C 126155,7333 131994,10267 134946,14667 L 155480 42535 L 360049 42535 C 369610,42535 377695,50601 377695,60135 L 377695 300675 L 7315 300675 L 7315 24934 C 7315,15400 15401,7333 24962,7333 L 121022 7333 Z M 121022 0 L 24962 0 C 10973,0 0,11000 0,24934 L 0 300675 L 0 308009 L 7315 308009 L 377695 308009 L 385011 308009 L 385011 300675 L 385011 59401 C 385011,45468 374038,34467 360049,34467 L 159138 34467 L 140785 9533 C 135652,3667 128337,0 121022,0 Z" fill="#FFFFFF"/>
  <path d="M 352734 35201 L 148165 35201 L 127631 7333 C 124679,2933 119546,0 113706,0 L 17646 0 C 8085,0 0,8067 0,17600 L 0 293343 L 370380 293343 L 370380 52068 C 370380,42534 362295,35201 352734,35201 Z M 354209 277942 L 15401 277942 L 15401 17600 C 15401,16867 16171,15400 17646,15400 L 113706 15400 C 114412,15400 115182,15400 115182,16133 L 140849 50601 L 353504 50601 C 354209,50601 355685,51335 355685,52801 L 354209 277942 Z" fill="#2D5967" transform="translate(7316,7332)"/>
  <path d="M 22716 61602 L 38116 61602 L 38116 38867 L 61602 38867 L 61602 23467 L 38116 23467 L 38116 0 L 22716 0 L 22716 23467 L 0 23467 L 0 38867 L 22716 38867 L 22716 61602 Z" fill="#2D5967" transform="translate(44020,38132)"/>
  <path d="M 59420 24200 L 46202 0 L 33047 24200 L 12513 60868 L 0 83602 L 26437 83602 L 67505 83602 L 93878 83602 L 80724 60868 L 59420 24200 Z M 25667 68935 L 46202 32267 L 66735 68935 L 25667 68935 Z" fill="#2D5967" transform="translate(240503,139335)"/>
  <path d="M 62000 5867 C 55392,2200 48076,0 40697,0 C 37809,0 34151,0 31200,733 C 9190,5867 -4029,27867 1104,49134 C 5533,67469 21639,79935 40697,79935 C 43648,79935 47306,79935 50258,79202 C 60525,77002 69316,70402 75219,60868 C 81059,52068 82535,41068 80352,30067 C 77401,20534 70791,11733 62000,5867 Z M 62000 53534 C 58343,59401 53209,63068 46600,64535 C 44418,65268 42942,65268 40697,65268 C 29724,65268 18751,57202 16505,46201 C 13618,33001 21639,19067 34857,16134 C 37039,15400 38515,15400 40697,15400 C 45124,15400 49552,16867 53915,19067 C 59819,22734 63477,27867 64953,34467 C 66364,41068 64953,47667 62000,53534 Z" fill="#2D5967" transform="translate(155081,142271)"/>
  <path d="M 72638 7334 L 68211 0 L 59420 0 L 31571 0 L 22780 0 L 18352 7334 L 4427 31534 L 0 39602 L 4427 47668 L 18352 71869 L 22780 79202 L 31571 79202 L 59420 79202 L 68211 79202 L 72638 71869 L 86563 47668 L 90991 39602 L 87269 31534 L 72638 7334 Z M 59420 63802 L 31571 63802 L 17646 39602 L 31571 15400 L 59420 15400 L 73345 39602 L 59420 63802 Z" fill="#2D5967" transform="translate(50565,144473)"/>
</svg>