<svg xmlns="http://www.w3.org/2000/svg" viewBox="0 0 385010 385010" width="40" height="40">
  <path d="M 20117 375435 C 9581,375435 0,366817 0,355318 L 0 20113 C 0,9578 8625,0 20117,0 L 355320 0 C 366812,0 375437,8620 375437,20113 L 375437 355318 C 375437,366817 366812,375435 355320,375435 L 20117 375435 Z" fill="#FFFFFF" transform="translate(4786,4789)"/>
  <path d="M 360107 9577 C 368731,9577 375430,16281 375430,24901 L 375430 360107 C 375430,368731 368731,375430 360107,375430 L 24904 375430 C 16279,375430 9580,368731 9580,360107 L 9580 24901 C 9580,16281 16279,9577 24904,9577 L 360107 9577 Z M 360107 0 L 24904 0 C 11493,0 0,11493 0,24901 L 0 360107 C 0,373518 11493,385011 24904,385011 L 360107 385011 C 373518,385011 385011,373518 385011,360107 L 385011 24901 C 385011,11493 374474,0 360107,0 Z" fill="#FFFFFF"/>
  <path d="M 350527 0 L 15323 0 C 6699,0 0,6704 0,15323 L 0 350535 C 0,359153 6699,365858 15323,365858 L 350527 365858 C 359151,365858 365856,359153 365856,350535 L 365856 15323 C 365856,6704 359151,0 350527,0 Z M 352445 350535 C 352445,351491 351489,352447 350527,352447 L 15323 352447 C 14361,352447 13405,351491 13405,350535 L 13405 15323 C 13405,14366 14361,13408 15323,13408 L 350527 13408 C 351489,13408 352445,14366 352445,15323 L 352445 350535 Z" fill="#2D5967" transform="translate(9580,9578)"/>
  <path d="M 0 81405 L 285408 81405 L 285408 0 L 0 0 L 0 81405 Z M 14367 13409 L 271997 13409 L 271997 67999 L 14367 67999 L 14367 13409 Z" fill="#2D5967" transform="translate(49801,251886)"/>
  <path d="M 10536 21070 C 16357,21070 21073,16354 21073,10535 C 21073,4717 16357,0 10536,0 C 4716,0 0,4717 0,10535 C 0,16354 4716,21070 10536,21070 Z" fill="#2D5967" transform="translate(280615,282533)"/>
  <path d="M 132168 0 L 0 0 L 0 81407 L 132168 81407 L 132168 0 Z M 61294 14366 L 71830 14366 L 71830 68957 L 61294 68957 C 61294,67999 61294,14366 61294,14366 Z M 47889 67999 L 37352 67999 L 37352 14366 L 47889 14366 L 47889 67999 Z M 85241 14366 L 95778 14366 L 95778 68957 L 85241 68957 L 85241 14366 Z M 14367 14366 L 24904 14366 L 24904 68957 L 14367 68957 L 14367 14366 Z M 118763 67999 L 108227 67999 L 108227 14366 L 118763 14366 L 118763 67999 Z" fill="#2D5967" transform="translate(49801,49804)"/>
  <path d="M 0 81407 L 132168 81407 L 132168 0 L 0 0 L 0 81407 Z M 70874 67999 L 60337 67999 L 60337 14366 L 70874 14366 L 70874 67999 Z M 84279 14366 L 94815 14366 L 94815 68957 L 84279 68957 L 84279 14366 Z M 46926 67999 L 36390 67999 L 36390 14366 L 46926 14366 L 46926 67999 Z M 118756 67999 L 108226 67999 L 108226 14366 L 118756 14366 L 118756 67999 Z M 13405 14366 L 23941 14366 L 23941 68957 L 13405 68957 L 13405 14366 Z" fill="#2D5967" transform="translate(203042,49804)"/>
  <path d="M 132168 0 L 0 0 L 0 81408 L 132168 81408 L 132168 0 Z M 61294 13409 L 71830 13409 L 71830 68000 L 61294 68000 C 61294,67042 61294,13409 61294,13409 Z M 47889 68000 L 37352 68000 L 37352 13409 L 47889 13409 L 47889 68000 Z M 85241 13409 L 95778 13409 L 95778 68000 L 85241 68000 L 85241 13409 Z M 14367 13409 L 24904 13409 L 24904 68000 L 14367 68000 L 14367 13409 Z M 118763 68000 L 108227 68000 L 108227 13409 L 118763 13409 L 118763 68000 Z" fill="#2D5967" transform="translate(49801,152280)"/>
  <path d="M 0 81408 L 132168 81408 L 132168 0 L 0 0 L 0 81408 Z M 70874 68000 L 60337 68000 L 60337 13409 L 70874 13409 L 70874 68000 Z M 84279 13409 L 94815 13409 L 94815 68000 L 84279 68000 L 84279 13409 Z M 46926 68000 L 36390 68000 L 36390 13409 L 46926 13409 L 46926 68000 Z M 118756 68000 L 108226 68000 L 108226 13409 L 118756 13409 L 118756 68000 Z M 13405 13409 L 23941 13409 L 23941 68000 L 13405 68000 L 13405 13409 Z" fill="#2D5967" transform="translate(203042,152280)"/>
</svg>