<svg xmlns="http://www.w3.org/2000/svg" viewBox="0 0 385010 297341" width="40" height="31">
  <path d="M 85857 288308 L 71419 281076 L 71419 168103 L 37987 168103 L 49731 179853 L 36191 194313 L 0 158162 L 36191 122010 L 50629 136471 L 37090 148220 L 71419 148220 L 71419 103031 L 94007 103031 L 94007 80436 C 94007,36151 130134,0 174409,0 C 218750,0 254877,36151 254877,80436 L 254877 102127 L 277464 102127 L 277464 179853 L 293763 179853 L 282020 168103 L 296458 153643 L 332585 189794 L 296458 225945 L 282020 212388 L 294661 199736 L 277464 199736 L 277464 280171 L 263026 288308 L 85857 288308 Z" fill="#FFFFFF" transform="translate(44276,4516)"/>
  <path d="M 181660 9037 C 223242,9037 257636,43381 257636,84955 L 257636 112068 L 280223 112068 L 280223 180756 L 280223 188890 L 311858 188890 L 303709 180756 L 295559 172622 L 303709 164488 L 319944 180756 L 321805 182564 L 333547 194312 L 321805 206061 L 319944 207869 L 302810 225041 L 295559 216907 L 304607 207869 L 312757 199735 L 280223 199735 L 280223 207869 L 280223 262999 L 280223 268421 L 280223 281980 L 269379 287402 L 94007 287402 L 83162 281980 L 83162 268421 L 83162 262999 L 83162 168103 L 34394 168103 L 42479 176237 L 50629 184371 L 42479 192505 L 12705 162680 L 42479 132856 L 50629 140990 L 41581 150027 L 33496 158161 L 83162 158161 L 83162 112972 L 105749 112972 L 105749 85859 C 105749,43381 140144,9037 181660,9037 Z M 181660 0 C 134689,0 96766,37958 96766,84955 L 96766 103031 L 83162 103031 L 74114 103031 L 74114 112068 L 74114 148219 L 55185 148219 L 56982 146412 L 63270 140085 L 56982 133759 L 48832 125625 L 42479 119299 L 36191 125625 L 6353 155450 L 0 161776 L 6353 168103 L 37090 198832 L 43442 205158 L 49731 198832 L 57880 190698 L 64168 184371 L 57880 178044 L 56982 177141 L 75013 177141 L 75013 263904 L 75013 269326 L 75013 282885 L 75013 288307 L 80467 291015 L 91312 296437 L 93108 297342 L 94905 297342 L 270277 297342 L 272074 297342 L 273870 296437 L 284715 291015 L 290169 288307 L 290169 282885 L 290169 269326 L 290169 263904 L 290169 224137 L 298255 232271 L 304607 238595 L 310960 232271 L 328093 215100 L 329890 213292 L 341633 201543 L 347985 195216 L 341633 188890 L 329890 177141 L 328093 175333 L 311858 159065 L 305506 152739 L 297356 158161 L 289271 166295 L 289271 111165 L 289271 102127 L 280223 102127 L 266619 102127 L 266619 84051 C 266619,37958 228696,0 181660,0 Z M 289271 179852 L 289271 178948 L 290169 179852 L 289271 179852 Z M 289271 208773 L 291068 208773 L 289271 210581 L 289271 208773 Z" fill="#FFFFFF" transform="translate(37025,0)"/>
  <path d="M 18096 36153 C 8150,36153 0,28017 0,18076 C 0,8134 8150,0 18096,0 C 28042,0 36191,8134 36191,18076 C 36191,28017 28042,36153 18096,36153 Z" fill="#FFFFFF" transform="translate(4491,205157)"/>
  <path d="M 22587 9037 C 29838,9037 36127,15364 36127,22594 C 36127,29825 29838,36149 22587,36149 C 15336,36149 9048,29825 9048,22594 C 9048,15364 15336,9037 22587,9037 Z M 22587 0 C 9946,0 0,9942 0,22594 C 0,35250 9946,45190 22587,45190 C 35228,45190 45175,35250 45175,22594 C 44276,9942 34330,0 22587,0 Z" fill="#FFFFFF" transform="translate(0,200638)"/>
  <path d="M 18095 36153 C 8150,36153 0,28017 0,18076 C 0,8134 8150,0 18095,0 C 28042,0 36191,8134 36191,18076 C 36191,28017 28042,36153 18095,36153 Z" fill="#FFFFFF" transform="translate(37025,205157)"/>
  <path d="M 22587 9037 C 29838,9037 36127,15364 36127,22594 C 36127,29825 30737,36149 22587,36149 C 15336,36149 9048,29825 9048,22594 C 9048,15364 15336,9037 22587,9037 Z M 22587 0 C 9946,0 0,9942 0,22594 C 0,35250 9946,45190 22587,45190 C 35229,45190 45175,35250 45175,22594 C 45175,9942 35229,0 22587,0 Z" fill="#FFFFFF" transform="translate(32533,200638)"/>
  <path d="M 18032 36153 C 8085,36153 0,28017 0,18076 C 0,8134 8085,0 18032,0 C 27977,0 36127,8134 36127,18076 C 36127,28017 27977,36153 18032,36153 Z" fill="#FFFFFF" transform="translate(70521,205157)"/>
  <path d="M 22587 9037 C 29838,9037 36191,15364 36191,22594 C 36191,29825 29838,36149 22587,36149 C 15401,36149 9047,29825 9047,22594 C 9047,15364 15401,9037 22587,9037 Z M 22587 0 C 9946,0 0,9942 0,22594 C 0,35250 9946,45190 22587,45190 C 35228,45190 45174,35250 45174,22594 C 45174,9942 35228,0 22587,0 Z" fill="#FFFFFF" transform="translate(65965,200638)"/>
  <path d="M 239541 175333 L 236782 172622 L 220547 156354 L 212397 164488 L 220547 172622 L 228696 180756 L 197062 180756 L 197062 172622 L 197062 103031 L 174410 103031 L 174410 75918 C 174410,34344 140080,0 98498,0 C 56917,0 22587,34344 22587,75918 L 22587 103031 L 0 103031 L 0 140086 L 10845 140086 L 10845 113877 L 186217 113877 L 186217 249441 L 11743 249441 L 11743 168103 L 898 168103 L 898 261191 L 197959 261191 L 197959 199735 L 197959 191601 L 230493 191601 L 222344 199735 L 213296 208773 L 221445 216907 L 238579 199735 L 240440 197928 L 252182 186179 L 239541 175333 Z M 145534 103031 L 53324 103031 L 53324 75918 C 53324,50612 74115,29825 99397,29825 C 124744,29825 145534,50612 145534,75918 L 145534 103031 Z M 164528 103031 L 156378 103031 L 156378 75918 C 156378,44285 131032,18979 99397,18979 C 67762,18979 42479,44285 42479,75918 L 42479 103031 L 34330 103031 L 34330 75918 C 34330,39766 63270,10845 99397,10845 C 135588,10845 164528,39766 164528,75918 L 164528 103031 Z" fill="#2C5967" transform="translate(119289,8136)"/>
  <path d="M 186217 0 L 10845 0 L 0 0 L 0 5422 L 10845 10844 L 186217 10844 L 197061 5422 L 197061 0 L 186217 0 Z" fill="#2C5967" transform="translate(120187,277463)"/>
  <path d="M 13539 0 C 6288,0 0,6326 0,13556 C 0,20787 6288,27112 13539,27112 C 20791,27112 27079,20787 27079,13556 C 26180,6326 20791,0 13539,0 Z" fill="#2C5967" transform="translate(9048,209680)"/>
  <path d="M 13539 0 C 6288,0 0,6326 0,13556 C 0,20787 6288,27112 13539,27112 C 20791,27112 27079,20787 27079,13556 C 27079,6326 21689,0 13539,0 Z" fill="#2C5967" transform="translate(41581,209680)"/>
  <path d="M 13540 0 C 6353,0 0,6326 0,13556 C 0,20787 6353,27112 13540,27112 C 20791,27112 27144,20787 27144,13556 C 27144,6326 20791,0 13540,0 Z" fill="#2C5967" transform="translate(75012,209680)"/>
  <path d="M 0 7231 L 18929 27113 L 0 46095 L 8085 53320 L 35228 27113 L 8085 0 L 0 7231 Z" fill="#2C5967" transform="translate(144636,197025)"/>
  <path d="M 172613 36151 C 186153,36151 197895,47900 197895,61457 C 197895,75014 186153,86763 172613,86763 L 140079 86763 L 140079 97609 L 171715 97609 C 191607,97609 207842,81341 207842,61457 C 207842,41574 191607,25306 171715,25306 L 20791 25306 L 28876 17172 L 37924 8134 L 29774 0 L 0 29825 L 29774 59650 L 37924 51516 L 29774 43382 L 21689 35248 L 172613 36151 Z" fill="#2C5967" transform="translate(49730,131952)"/>
</svg>