<svg xmlns="http://www.w3.org/2000/svg" viewBox="0 0 385010 385010" width="40" height="40">
  <path d="M 355955 0 L 19892 0 C 8907,0 0,8906 0,19892 L 0 355952 C 0,366938 8907,375845 19892,375845 L 355955 375845 C 366941,375845 375847,366938 375847,355952 L 375847 19892 C 375847,8906 366941,0 355955,0 Z" fill="#FFFFFF" transform="translate(4582,4584)"/>
  <path d="M 360537 9167 C 364592,9167 368487,10780 371362,13651 C 374230,16521 375841,20416 375841,24476 L 375841 360537 C 375841,364592 374230,368487 371362,371362 C 368487,374230 364592,375841 360537,375841 L 24474 375841 C 20418,375841 16523,374230 13649,371362 C 10780,368487 9170,364592 9170,360537 L 9170 24476 C 9170,20416 10780,16521 13649,13651 C 16523,10780 20418,9167 24474,9167 L 360537 9167 Z M 360537 0 L 24474 0 C 17993,24 11781,2610 7193,7195 C 2612,11780 26,17992 0,24476 L 0 360537 C 26,367018 2612,373229 7193,377817 C 11781,382399 17993,384985 24474,385011 L 360537 385011 C 367018,384985 373229,382399 377817,377817 C 382399,373229 384985,367018 385011,360537 L 385011 24476 C 384985,17992 382399,11780 377817,7195 C 373229,2610 367018,24 360537,0 L 360537 0 Z" fill="#FFFFFF"/>
  <path d="M 351367 0 L 15304 0 C 11249,0 7354,1613 4479,4484 C 1610,7355 0,11249 0,15309 L 0 351369 C 0,355431 1610,359319 4479,362194 C 7354,365062 11249,366680 15304,366680 L 351367 366680 C 355422,366680 359317,365062 362192,362194 C 365061,359319 366671,355431 366671,351369 L 366671 15309 C 366671,11249 365061,7355 362192,4484 C 359317,1613 355422,0 351367,0 Z M 353106 351369 C 353087,351825 352894,352254 352573,352575 C 352252,352896 351823,353089 351367,353108 L 15304 353108 C 14848,353089 14419,352896 14098,352575 C 13777,352254 13584,351825 13565,351369 L 13565 15309 C 13584,14854 13777,14424 14098,14102 C 14419,13780 14848,13590 15304,13567 L 351367 13567 C 351823,13590 352252,13780 352573,14102 C 352894,14424 353087,14854 353106,15309 L 353106 351369 Z" fill="#2D5967" transform="translate(9170,9167)"/>
  <path d="M 159595 0 C 128031,0 97172,9360 70927,26897 C 44682,44433 24225,69359 12149,98522 C 66,127684 -3091,159773 3069,190732 C 9223,221690 24424,250128 46742,272448 C 69066,294768 97499,309969 128461,316123 C 159415,322283 191506,319126 220671,307043 C 249835,294967 274758,274509 292295,248263 C 309833,222018 319188,191161 319188,159596 C 319144,117284 302312,76718 272390,46798 C 242475,16879 201908,49 159595,0 Z M 159595 305625 C 130713,305625 102479,297059 78467,281015 C 54449,264969 35737,242163 24681,215479 C 13631,188796 10737,159434 16371,131107 C 22005,102780 35917,76761 56335,56338 C 76760,35916 102780,22008 131104,16373 C 159435,10739 188792,13631 215479,24683 C 242161,35735 264966,54453 281015,78467 C 297057,102481 305623,130714 305623,159596 C 305456,198273 290017,235318 262669,262668 C 235320,290019 198276,305458 159595,305625 Z" fill="#2D5967" transform="translate(32911,32908)"/>
  <path d="M 43820 208730 L 43820 25942 L 64534 46659 L 74069 37034 L 37038 0 L 0 37034 L 9535 46659 L 30255 25942 L 30255 208730 L 9535 188105 L 0 197730 L 37038 234765 L 74069 197730 L 64534 188105 L 43820 208730 Z" fill="#2D5967" transform="translate(155468,75993)"/>
  <path d="M 46657 9534 L 37121 0 L 0 37034 L 37121 74069 L 46657 64535 L 26033 43818 L 109728 43818 L 109728 30251 L 26033 30251 L 46657 9534 Z" fill="#2D5967" transform="translate(199840,155470)"/>
  <path d="M 72690 0 L 63161 9534 L 83785 30251 L 0 30251 L 0 43818 L 83785 43818 L 63161 64535 L 72690 74069 L 109818 37034 L 72690 0 Z" fill="#2D5967" transform="translate(75353,155470)"/>
</svg>