<svg xmlns="http://www.w3.org/2000/svg" viewBox="0 0 344770 385010" width="36" height="40">
  <path d="M 167756 375845 C 150616,375845 0,374465 0,325428 L 0 51885 C 0,1466 150616,0 167756,0 C 184901,0 335601,1466 335601,51885 L 335601 325428 C 335601,374465 184991,375845 167756,375845 Z" fill="#FFFFFF" transform="translate(4576,4584)"/>
  <path d="M 172337 9167 C 229178,9167 335601,19067 335601,56468 L 335601 330012 C 335601,366678 228805,375841 172337,375841 C 115869,375841 9170,366678 9170,330012 L 9170 56468 C 9170,19067 115965,9167 172337,9167 Z M 172337 0 C 143557,0 0,2750 0,56468 L 0 330012 C 0,382534 143557,385011 172337,385011 C 201123,385011 344771,382354 344771,330012 L 344771 56468 C 344771,2750 201675,0 172337,0 Z" fill="#FFFFFF"/>
  <path d="M 326438 47301 C 326438,9901 220008,0 163174,0 C 106340,0 0,9901 0,47301 L 0 320841 C 0,357507 106796,366676 163174,366676 C 219552,366676 326438,357507 326438,320841 L 326438 47301 Z M 308105 230640 C 308105,232290 301226,240540 269783,248148 C 234754,255610 198993,259116 163174,258599 C 127227,259085 91344,255519 56199,247965 C 24756,240356 18339,232106 18339,230456 L 18339 163171 C 51155,181047 121465,186455 163629,186455 C 205801,186455 276200,181047 309022,163171 L 308105 230640 Z M 308105 140621 C 308105,142270 301226,150612 269783,158130 C 234754,165591 198993,169097 163174,168579 C 127227,169066 91344,165499 56199,157946 C 24756,150429 18339,142087 18339,140437 L 18339 70585 C 51155,88919 121465,94511 163629,94511 C 205801,94511 276200,89011 309022,70585 L 308105 140621 Z M 56289 28876 C 91389,21246 127259,17709 163174,18334 C 199140,17854 235036,21546 270149,29334 C 302509,36668 308560,45835 308560,47301 C 308560,48768 302054,57752 270149,65635 C 235036,73420 199140,77111 163174,76636 C 127246,77136 91376,73475 56289,65727 C 24384,57752 18339,49134 18339,47301 C 18339,45468 24846,36760 56744,28968 L 56289 28876 Z M 270245 338166 C 235068,345725 199147,349293 163174,348799 C 127227,349287 91344,345719 56199,338166 C 24756,330652 18339,322310 18339,320841 L 18339 253190 C 51155,271066 121465,276474 163629,276474 C 205801,276474 276200,271066 309022,253190 L 309022 320841 C 309022,322490 302143,330832 270701,338352" fill="#2D5967" transform="translate(9170,9171)"/>
</svg>