<svg xmlns="http://www.w3.org/2000/svg" viewBox="0 0 385010 385010" width="40" height="40">
  <path d="M 25424 215202 L 16344 224288 L 0 207938 L 25424 182514 L 25424 168891 C 9985,164355 1816,157091 1816,148011 L 1816 29056 C 1816,4537 56295,1816 79902,1816 C 102605,1816 152548,4537 157996,25424 L 167987 25424 L 193410 0 L 209754 16344 L 200674 25424 L 375019 25424 L 375019 341421 C 375019,372299 293295,374115 276951,374115 L 26328 374115 L 26328 215202 L 25424 215202 Z" fill="#FFFFFF" transform="translate(6359,6359)"/>
  <path d="M 86262 12712 C 98980,12712 159818,13623 159818,35415 C 159818,35415 159818,35415 159818,36319 L 175250 36319 L 199769 12712 L 208849 21792 L 195232 36319 L 375931 36319 L 375931 347780 C 375931,369572 316909,375931 282399,375931 L 36319 375931 L 36319 210665 L 22703 224288 L 13623 215208 L 36319 191594 L 36319 172530 C 23607,168898 12712,163450 12712,155275 C 12712,155275 12712,36319 12712,35415 C 12712,13623 74461,12712 86262,12712 Z M 199769 0 L 193416 6359 L 172530 27239 L 167986 27239 C 158907,7264 114412,3632 86262,3632 C 55390,3632 3632,8175 3632,35415 L 3632 155275 C 3632,166171 11807,174346 27239,179794 L 27239 187962 L 6359 208849 L 0 214297 L 6359 220656 L 15439 229736 L 21792 236088 L 27239 232457 L 27239 375931 L 27239 385011 L 36319 385011 L 282399 385011 C 313277,385011 385011,381379 385011,347780 L 385011 36319 L 385011 27239 L 375931 27239 L 217024 27239 L 221561 22703 L 215208 16344 L 206128 7264 L 199769 0 Z" fill="#FFFFFF"/>
  <path d="M 13623 0 L 0 0 L 0 27240 L 13623 27240 L 13623 0 Z" fill="#2D5967" transform="translate(362308,66285)"/>
  <path d="M 13623 0 L 0 0 L 0 27240 L 13623 27240 L 13623 0 Z" fill="#2D5967" transform="translate(362308,104427)"/>
  <path d="M 905 22696 C 3632,23608 6353,25424 9080,27240 L 13616 30871 L 13616 0 L 0 0 L 0 22696 L 905 22696 Z" fill="#2D5967" transform="translate(361403,141658)"/>
  <path d="M 0 0 L 0 13616 L 6353 13616 L 6353 19975 L 19976 19975 L 19976 0 L 0 0 Z" fill="#2D5967" transform="translate(355955,36325)"/>
  <path d="M 26328 0 L 0 0 L 0 13616 L 26328 13616 L 26328 0 Z" fill="#2D5967" transform="translate(246991,36325)"/>
  <path d="M 26335 0 L 0 0 L 0 13616 L 26335 13616 L 26335 0 Z" fill="#2D5967" transform="translate(283310,36325)"/>
  <path d="M 26335 0 L 0 0 L 0 13616 L 26335 13616 L 26335 0 Z" fill="#2D5967" transform="translate(319629,36325)"/>
  <path d="M 26335 0 L 0 0 L 0 13616 L 26335 13616 L 26335 0 Z" fill="#2D5967" transform="translate(210665,36325)"/>
  <path d="M 39046 50847 L 25430 37231 L 30878 37231 L 30878 23608 L 25430 23608 L 39046 9991 L 29967 0 L 0 29967 L 29967 59933 L 39046 50847 Z" fill="#2D5967" transform="translate(169802,12711)"/>
  <path d="M 0 0 L 0 9991 L 21792 9991 L 13623 7264 C 8175,5448 3632,2727 0,0 Z" fill="#2D5967" transform="translate(187057,365939)"/>
  <path d="M 29056 0 L 0 0 L 0 13623 L 29056 13623 L 29056 0 Z" fill="#2D5967" transform="translate(107148,362307)"/>
  <path d="M 29056 0 L 0 0 L 0 13623 L 29056 13623 L 29056 0 Z" fill="#2D5967" transform="translate(147106,362307)"/>
  <path d="M 29056 0 L 0 0 L 0 13623 L 29056 13623 L 29056 0 Z" fill="#2D5967" transform="translate(67197,362307)"/>
  <path d="M 13616 0 L 0 0 L 0 19976 L 19975 19976 L 19975 6353 L 13616 6353 L 13616 0 Z" fill="#2D5967" transform="translate(36326,355955)"/>
  <path d="M 13616 0 L 0 0 L 0 30871 L 13616 30871 L 13616 0 Z" fill="#2D5967" transform="translate(36326,271509)"/>
  <path d="M 13616 0 L 0 0 L 0 30871 L 13616 30871 L 13616 0 Z" fill="#2D5967" transform="translate(36326,228824)"/>
  <path d="M 13616 0 L 0 0 L 0 30872 L 13616 30872 L 13616 0 Z" fill="#2D5967" transform="translate(36326,313276)"/>
  <path d="M 29967 0 L 0 29967 L 9080 39046 L 23608 26335 L 23608 33599 L 37231 33599 L 37231 26335 L 50854 39951 L 59933 30871 L 29967 0 Z M 29967 19975 L 30878 19975 L 29967 19975 Z" fill="#2D5967" transform="translate(12712,184330)"/>
  <path d="M 11807 101701 L 11807 78093 C 31783,86262 67197,86262 72645,86262 C 78093,86262 113507,86262 133483,78093 L 133483 93526 L 147106 88078 C 147106,88078 147106,23608 147106,22703 C 147106,905 85357,0 73550,0 C 60838,0 0,905 0,22703 C 0,23608 0,142563 0,142563 C 0,165266 66286,165266 73550,165266 C 76277,165266 83541,165266 93532,164355 L 93532 150738 C 87173,151643 80814,151643 73550,151643 C 37231,151643 16344,145284 12712,141652 L 12712 117139 C 32687,125308 68102,125308 73550,125308 C 76277,125308 83541,125308 93532,124403 L 93532 121676 L 93532 110780 C 87173,111692 80814,111692 73550,111692 C 35414,111692 14528,105333 11807,101701 Z M 71734 13623 C 105332,13623 125308,19071 130756,22703 C 125308,26335 104428,31783 71734,31783 C 38142,31783 18160,26335 12712,22703 C 18160,19071 39046,13623 71734,13623 Z M 11807 37231 C 30871,45399 63565,45399 72645,45399 C 81725,45399 114412,44495 133483,37231 L 133483 62654 C 129851,66286 108964,72645 72645,72645 C 36326,72645 14528,66286 11807,62654 L 11807 37231 Z" fill="#2D5967" transform="translate(14528,12711)"/>
  <path d="M 157091 6353 C 139836,2721 117133,0 93526,0 L 93526 13617 C 140747,13617 169803,22696 174339,27240 C 169803,32688 141652,40863 93526,40863 C 93526,43583 92621,48126 91709,54479 C 92621,54479 93526,54479 93526,54479 C 117133,54479 139836,52663 157091,48126 C 164355,46310 169803,44495 174339,42678 L 174339 79909 C 171618,85357 142563,94437 93526,94437 C 87166,94437 80814,94437 75366,93526 C 72639,98069 69007,101701 65375,106237 C 75366,108053 85350,108965 93526,108965 C 118044,108965 154364,106237 174339,96253 L 174339 130756 C 171618,136204 142563,145284 93526,145284 C 61743,145284 38135,141652 24512,137115 C 20880,138931 16344,140747 11801,142563 L 6353 145284 L 905 143468 L 0 143468 L 0 184330 C 0,206122 59022,212481 94437,212481 C 129845,212481 188873,207033 188873,184330 C 188873,184330 188873,29960 188873,29056 C 187962,18160 177971,11801 157091,6353 Z M 174339 182514 C 171618,187962 142563,197042 93526,197042 C 44494,197042 15432,187962 12712,182514 L 12712 147100 C 32687,156179 69007,159812 93526,159812 C 118044,159812 154364,157091 174339,147100 L 174339 182514 Z" fill="#2D5967" transform="translate(187968,163449)"/>
  <path d="M 0 33599 L 0 105339 C 0,108060 905,174345 75366,200680 L 78093 201592 L 80814 200680 C 155275,173441 156179,108060 156179,105339 L 156179 33599 L 78998 0 L 0 33599 Z M 140747 105339 C 140747,106244 139836,158913 83541,184337 L 83541 163450 C 81725,163450 78998,163450 77182,163450 C 75366,163450 72645,163450 70823,163450 L 70823 184337 C 14528,158913 13617,107155 13617,105339 L 13617 42678 L 70823 18166 L 70823 37231 C 72645,37231 75366,37231 77182,37231 C 78998,37231 81725,37231 83541,37231 L 83541 18166 L 140747 42678 L 140747 105339 Z" fill="#2D5967" transform="translate(117139,96252)"/>
  <path d="M 0 53574 C 0,83541 24519,107155 53574,107155 C 82636,107155 107148,82636 107148,53574 C 107148,24519 82636,0 53574,0 C 24519,0 0,23614 0,53574 Z M 93532 53574 C 93532,76277 75366,93532 53574,93532 C 31783,93532 13623,75372 13623,53574 C 13623,30878 31783,13623 53574,13623 C 75366,13623 93532,30878 93532,53574 Z" fill="#2D5967" transform="translate(140747,143467)"/>
  <path d="M 9086 12712 L 0 22703 L 19071 42678 L 52669 9080 L 43590 0 L 19071 23607 L 9086 12712 Z" fill="#2D5967" transform="translate(167986,178882)"/>
</svg>