<svg xmlns="http://www.w3.org/2000/svg" viewBox="0 0 359215 385010" width="38" height="40">
  <path d="M 221317 375751 C 208099,375751 92210,374647 92210,336884 L 92210 285639 L 88296 285363 C 78863,284535 61858,282155 61152,282065 C 59484,281789 57880,281513 56276,281237 L 56276 281327 L 51976 280506 C 51591,280416 36961,277022 36768,276932 C 27849,274455 20791,271798 15336,268770 L 14694 268404 C 12641,267306 10844,266113 9240,264829 C 8727,264374 8278,263912 7828,263546 L 10010 259330 L 6866 262718 C 5968,261897 5069,261069 4299,260152 C 3786,259420 3337,258599 2823,257861 L 6160 254376 L 2310 256853 C 1861,256122 1476,255390 1091,254652 C 449,253003 128,251168 0,249339 L 0 249153 L 0 39688 C 0,14117 52425,5133 83611,2105 C 98178,731 113385,0 129107,0 C 142069,0 155031,545 167608,1553 C 201425,4306 258149,12924 258149,39784 C 258149,40330 258149,40882 258085,41434 C 258149,41889 258149,42255 258149,42717 L 258149 90015 C 258727,90015 259241,90105 259818,90105 C 293635,92858 350359,101476 350359,128337 C 350359,128882 350359,129434 350295,129986 C 350359,130442 350359,130904 350359,131269 L 350359 337064 C 350359,374647 234472,375751 221317,375751 Z" fill="#FFFFFF" transform="translate(4556,4678)"/>
  <path d="M 133663 9170 C 146368,9170 159330,9625 171779,10633 C 218045,14393 258150,25212 258150,44276 C 258150,44828 258021,45470 258021,46015 C 258150,46387 258150,46843 258150,47209 L 258150 98909 C 260074,99005 262064,99095 263989,99275 C 310255,103035 350360,113854 350360,132918 C 350360,133470 350231,134112 350231,134664 C 350360,135030 350360,135485 350360,135851 L 350360 200295 L 350360 205153 L 350360 270605 L 350360 272902 L 350360 341652 C 350360,368782 268930,375937 225873,375937 C 182752,375937 101386,368782 101386,341652 L 101386 286101 C 98691,285915 95932,285736 93237,285460 L 93237 285549 C 83740,284722 66350,282251 66350,282251 C 63334,281789 60383,281244 57431,280692 C 57110,280602 42672,277297 42544,277208 C 34651,275007 27592,272530 22074,269418 C 22074,269418 22074,269418 22010,269321 C 19957,268224 18224,267031 16684,265843 C 16042,265381 15593,264829 15016,264284 C 14181,263456 13283,262725 12513,261897 C 11999,261166 11614,260338 11165,259606 C 10780,258964 10267,258233 9946,257591 C 9433,256122 9176,254659 9176,253189 C 9240,253189 9176,253099 9176,253010 L 9176 242467 L 9176 242191 L 9176 182052 L 9176 50879 C 9176,46843 9176,44462 9176,44366 C 9176,26309 45367,15586 88617,11364 C 103183,9901 118584,9170 133663,9170 Z M 133663 0 C 117877,0 102477,732 87719,2201 C 47741,6051 0,16594 0,44276 L 0 50783 L 0 181962 L 0 242101 L 0 252913 L 0 254197 L 64 254563 C 257,256763 706,258875 1476,260800 C 1989,262173 2631,263180 3016,263822 L 3401 264560 C 3722,265292 4363,266389 5326,267582 C 6289,268866 7380,269873 8214,270605 L 8599 270977 C 9497,271888 10074,272440 10780,272992 C 12513,274365 14438,275648 16684,276932 L 16941 277118 L 17582 277394 C 23422,280602 30673,283348 39849,285915 C 40490,286101 55377,289490 55442,289586 L 64489 291414 L 64489 291235 C 64618,291235 64618,291235 64682,291235 C 65516,291325 82328,293802 91953,294623 L 91953 341562 C 91953,381892 194238,385011 225552,385011 C 256930,385011 359215,381892 359215,341562 L 359215 272805 L 359215 270515 L 359215 205063 L 359215 200206 L 359215 135761 C 359215,135306 359215,134844 359151,134388 C 359151,133836 359215,133381 359215,132829 C 359215,104408 309741,93962 267005,90291 L 267005 47209 C 267005,46753 267005,46291 266941,45836 C 266941,45284 267005,44828 267005,44276 C 267005,15310 215478,5044 172228,1469 C 159972,552 146818,0 133663,0 Z" fill="#FFFFFF"/>
  <path d="M 11679 0 L 0 0 L 0 26585 L 11679 26585 L 11679 0 Z" fill="#2C5967" transform="translate(9176,206712)"/>
  <path d="M 0 10909 C 7251,13662 16106,16132 26566,18153 L 28876 6693 C 19058,4768 10781,2567 4171,0 L 0 10909 Z" fill="#2C5967" transform="translate(30801,262538)"/>
  <path d="M 11679 10812 L 11679 0 L 0 0 L 0 10812 C 0,17050 4300,22639 12898,27316 L 18481 17050 C 13091,14021 11679,11730 11679,10812 Z" fill="#2C5967" transform="translate(9176,242191)"/>
  <path d="M 11679 0 L 0 0 L 0 26309 L 11679 26309 L 11679 0 Z" fill="#2C5967" transform="translate(9176,64810)"/>
  <path d="M 11679 0 L 0 0 L 0 26585 L 11679 26585 L 11679 0 Z" fill="#2C5967" transform="translate(9176,135761)"/>
  <path d="M 11743 0 L 0 0 L 0 26213 L 11743 26213 L 11743 0 Z" fill="#2C5967" transform="translate(246407,64900)"/>
  <path d="M 0 11461 C 8342,12834 17389,13931 26887,14759 L 27849 3119 C 18673,2291 10010,1283 1925,0 L 0 11461 Z" fill="#2C5967" transform="translate(66351,270880)"/>
  <path d="M 0 4396 L 0 26213 L 8214 26213 C 12449,29331 18288,32084 25924,34651 L 29646 23556 C 12641,17871 11679,13013 11679,12834 L 11679 4396 L 11679 0 L 0 0 L 0 4396 Z" fill="#2C5967" transform="translate(9176,171605)"/>
  <path d="M 29646 5134 C 19700,3760 10716,2015 3016,0 L 0 11275 C 8214,13475 17582,15311 28042,16774 L 29646 5134 Z" fill="#2C5967" transform="translate(44469,197728)"/>
  <path d="M 0 366 L 0 8804 L 0 27047 L 4556 27047 C 8791,31539 15914,35389 26309,38777 L 29967 27688 C 16363,23197 12064,18795 11679,16960 L 11679 8894 L 11679 462 L 11679 0 L 0 0 L 0 366 Z" fill="#2C5967" transform="translate(9176,99916)"/>
  <path d="M 2951 0 L 0 11364 C 8149,13475 17582,15311 27977,16774 L 29582 5134 C 19636,3760 10652,2015 2951,0 Z" fill="#2C5967" transform="translate(44726,130075)"/>
  <path d="M 10074 30255 L 16556 20444 C 12962,18153 11679,16228 11679,15131 C 11679,14117 12962,12102 16556,9811 L 10074 0 C 3978,4036 642,8618 64,13572 L 0 13572 L 0 26771 L 5647 26771 C 6866,27965 8406,29152 10074,30255 Z" fill="#2C5967" transform="translate(9176,29145)"/>
  <path d="M 27785 11736 L 26950 0 C 18288,552 9176,918 0,1007 L 128 12744 C 9561,12744 18801,12378 27785,11736 Z" fill="#2C5967" transform="translate(137834,66639)"/>
  <path d="M 28555 3574 C 20085,2105 10780,917 1090,0 L 0 11640 C 9433,12468 18288,13655 26566,15035 L 28555 3574 Z" fill="#2C5967" transform="translate(173897,10908)"/>
  <path d="M 27720 1007 C 18737,462 9433,96 128,0 L 0 11736 C 9111,11826 18159,12192 26950,12744 L 27720 1007 Z" fill="#2C5967" transform="translate(138027,9163)"/>
  <path d="M 28619 11550 L 26566 0 C 18352,1373 9433,2567 0,3388 L 1027 15035 C 10781,14207 20085,13013 28619,11550 Z" fill="#2C5967" transform="translate(173704,62609)"/>
  <path d="M 29582 8066 C 22330,4954 13154,2291 2374,0 L 0 11460 C 10074,13572 18481,16042 25026,18885 L 29582 8066 Z" fill="#2C5967" transform="translate(209190,16221)"/>
  <path d="M 29710 7424 C 19571,5223 11229,2753 4685,0 L 0 10729 C 7187,13841 16363,16594 27272,18885 L 29710 7424 Z" fill="#2C5967" transform="translate(28106,53439)"/>
  <path d="M 28619 11640 L 27464 0 C 17775,918 8535,2105 0,3574 L 1989 15125 C 10267,13655 19122,12468 28619,11640 Z" fill="#2C5967" transform="translate(64618,10998)"/>
  <path d="M 28619 3484 C 19187,2657 10267,1463 2053,0 L 0 11550 C 8535,13013 17839,14207 27529,15124 L 28619 3484 Z" fill="#2C5967" transform="translate(64489,62519)"/>
  <path d="M 29710 11461 L 27207 0 C 16363,2297 7251,4954 0,8072 L 4684 18795 C 11165,16042 19507,13572 29710,11461 Z" fill="#2C5967" transform="translate(28235,16311)"/>
  <path d="M 0 20989 L 6288 30801 C 8150,29607 9818,28324 11165,27041 L 16876 27041 L 16876 13841 L 16748 13841 C 16235,8708 12705,4120 6481,0 L 64 9805 C 3850,12192 5133,14207 5133,15304 C 5133,16498 3850,18513 0,20989 Z" fill="#2C5967" transform="translate(241274,28875)"/>
  <path d="M 27657 11736 L 27593 0 C 18224,96 8984,462 0,1104 L 834 12834 C 9433,12192 18481,11826 27657,11736 Z" fill="#2C5967" transform="translate(101386,9163)"/>
  <path d="M 27721 1014 C 18545,918 9561,552 834,0 L 0 11736 C 8983,12378 18288,12744 27592,12834 L 27721 1014 Z" fill="#2C5967" transform="translate(101258,66728)"/>
  <path d="M 29646 10819 L 25026 0 C 18545,2753 10074,5230 0,7334 L 2374 18795 C 13219,16594 22395,13841 29646,10819 Z" fill="#2C5967" transform="translate(209061,53529)"/>
  <path d="M 268545 35106 C 268545,16042 228440,5223 182175,1463 C 169726,455 156763,0 144058,0 C 128979,0 113578,731 99012,2105 C 55698,6320 19571,17049 19571,35106 C 19571,35658 19636,36300 19636,36852 C 19571,37218 19571,37673 19571,38039 L 19571 40150 C 13411,39688 7380,39232 1476,38501 L 193 50141 C 6417,50873 12962,51424 19571,51880 L 19571 64990 L 19571 73794 L 19571 102394 L 19571 107251 L 19571 107803 C 13347,107341 7251,106795 1412,106154 L 0 117794 C 6289,118525 12834,119077 19571,119533 L 19571 172703 L 19571 174993 L 19571 243744 C 19571,270880 100937,278029 144058,278029 C 187115,278029 268545,270880 268545,243744 L 268545 174993 L 268545 172703 L 268545 107251 L 268545 102394 L 268545 37949 C 268545,37583 268545,37121 268417,36756 C 268545,36300 268545,35658 268545,35106 Z M 226514 258137 C 204569,263366 175308,266299 144058,266299 C 112808,266299 83419,263366 61538,258137 C 36897,252272 31314,245579 31314,243744 L 31314 190856 C 55378,205063 111011,209279 144058,209279 C 177041,209279 232675,205063 256802,190856 L 256802 243744 C 256802,245669 251283,252272 226514,258137 Z M 144058 11640 C 175308,11640 204569,14663 226514,20072 C 251412,26213 256802,33002 256802,35106 C 256802,37218 251412,44000 226514,50141 C 204569,55550 175308,58573 144058,58573 C 112808,58573 83547,55550 61538,50141 C 36705,44000 31314,37218 31314,35106 C 31314,33002 36705,26213 61538,20072 C 83547,14663 112808,11640 144058,11640 Z M 31314 51238 C 52554,64258 99589,70309 144058,70309 C 188527,70309 235498,64258 256802,51238 L 256802 107341 C 256802,109176 251219,115779 226514,121734 C 204569,126957 175308,129896 144058,129896 C 112808,129896 83419,126957 61538,121734 C 36897,115869 31314,109176 31314,107341 L 31314 51238 Z M 144058 141626 C 177041,141626 232675,137410 256802,123203 L 256802 175084 C 256802,176919 251219,183522 226514,189476 C 204569,194706 175308,197639 144058,197639 C 112808,197639 83419,194706 61538,189476 C 36897,183611 31314,176919 31314,175084 L 31314 123203 C 55378,137410 111011,141626 144058,141626 Z" fill="#2C5967" transform="translate(81815,97812)"/>
</svg>