<svg xmlns="http://www.w3.org/2000/svg" viewBox="0 0 383919 385010" width="40" height="40">
  <path d="M 19064 376450 C 14008,376450 9157,374441 5583,370867 C 2008,367293 0,362442 0,357385 L 0 148287 C 25,143246 2041,138420 5615,134864 C 9189,131308 14027,129312 19064,129312 L 66549 129312 L 66549 128762 L 70399 121795 C 78946,107876 89765,95483 102393,85127 L 104408 83477 C 107341,81093 110370,78802 113578,76693 C 114399,76052 117062,74402 117062,74402 C 119385,72813 121766,71346 124211,70002 L 129620 67068 L 133381 65235 C 138052,63035 142544,61293 146304,59735 L 148229 59093 C 163893,53373 180416,50366 197087,50201 C 200757,50201 204607,50201 208637,50201 C 208919,49720 209105,49192 209189,48643 C 210902,39671 215696,31580 222741,25771 C 229787,19962 238649,16801 247780,16834 C 249031,16743 250289,16743 251540,16834 C 252387,16897 253234,16774 254023,16473 C 254819,16172 255531,15701 256122,15092 C 261307,9501 267762,5251 274949,2705 C 282129,160 289823,-604 297369,477 C 304916,1559 312083,4455 318262,8916 C 324442,13377 329447,19272 332848,26092 C 333278,26955 333894,27709 334658,28297 C 335421,28885 336307,29291 337250,29484 C 342858,30826 348171,33187 352926,36451 C 363225,42989 370669,53182 373768,64983 C 376861,76783 375372,89318 369610,100069 L 366492 105936 L 312776 105936 C 325289,121521 334497,139488 339855,158744 C 345207,178001 346586,198144 343910,217951 C 341235,237757 334561,256814 324294,273960 C 314021,291106 300372,305985 284176,317691 L 284176 328420 C 284176,333476 282168,338321 278587,341901 C 275013,345476 270162,347484 265105,347484 L 208547 347484 L 208547 357385 C 208547,362423 206552,367261 202997,370835 C 199436,374409 194610,376431 189573,376450 L 19064 376450 Z" fill="#FFFFFF" transform="translate(4577,3979)"/>
  <path d="M 295542 9167 C 303467,9148 311231,11355 317956,15537 C 324681,19719 330097,25707 333587,32818 C 334338,34272 335403,35543 336706,36541 C 338002,37539 339504,38239 341101,38593 C 347685,40062 353839,43038 359081,47287 C 364318,51536 368501,56942 371299,63080 C 374103,69218 375438,75922 375207,82664 C 374976,89405 373185,96002 369977,101936 L 368148 105328 L 307368 105328 C 321196,120311 331656,138080 338040,157442 C 344432,176803 346594,197308 344400,217576 C 342205,237846 335692,257410 325303,274953 C 314914,292496 300893,307611 284178,319283 L 284178 332392 C 284178,336236 282650,339919 279936,342634 C 277222,345348 273532,346875 269695,346875 L 208549 346875 L 208549 361358 C 208562,363257 208202,365138 207483,366896 C 206765,368654 205706,370252 204365,371593 C 203030,372940 201439,374012 199687,374737 C 197935,375469 196055,375841 194156,375841 L 23654 375841 C 19810,375841 16127,374320 13413,371599 C 10698,368885 9171,365202 9171,361358 L 9171 152263 C 9120,150334 9460,148416 10165,146621 C 10871,144826 11936,143192 13284,141815 C 14638,140438 16249,139347 18033,138606 C 19810,137866 21722,137491 23654,137504 L 73891 137504 C 75540,134204 77369,130995 79294,127787 L 78839 127787 C 87200,114294 97730,102277 110005,92219 L 111930 90661 C 114741,88400 117795,86199 121100,84061 L 124488 81860 C 126779,80394 129076,78927 131367,77644 L 136680 74802 L 140896 72694 C 144842,70861 148782,69210 152908,67652 L 154743 67010 C 169817,61659 185679,58871 201676,58760 C 206258,58760 210839,58760 215331,59401 C 216846,57945 217872,56056 218270,53993 C 219816,46081 224065,38950 230283,33818 C 236501,28686 244303,25870 252369,25851 L 256675 25851 C 258080,25853 259473,25570 260763,25019 C 262059,24467 263227,23659 264195,22642 C 268200,18344 273057,14927 278454,12607 C 283850,10287 289671,9116 295542,9167 Z M 295542 0 C 288419,11 281373,1490 274841,4345 C 268309,7200 262444,11369 257593,16592 C 257477,16643 257355,16668 257227,16668 C 257098,16668 256977,16643 256861,16592 C 255424,16505 253986,16505 252549,16592 C 246466,16613 240453,17861 234858,20259 C 228768,22971 223365,27027 219066,32123 C 214760,37219 211667,43223 210018,49685 L 201856 49685 C 184563,49828 167417,52929 151163,58851 L 149879 58851 L 149238 58851 C 144932,60502 140626,62335 136500,64260 L 135762 64260 L 132009 66093 L 126413 69118 C 123943,70493 121466,72052 119079,73610 L 118167 74160 L 115415 75994 C 112392,78010 109364,80302 106245,82961 L 104140 84611 C 91140,95456 80026,108371 71228,122837 L 67840 128337 L 23654 128337 C 20522,128337 17429,128957 14542,130163 C 11654,131369 9030,133135 6829,135361 C 4634,137586 2895,140226 1721,143127 C 553,146029 -31,149134 1,152263 L 1 361358 C 27,367627 2529,373627 6957,378055 C 11385,382489 17391,384985 23654,385011 L 194156 385011 C 200412,384985 206406,382482 210820,378048 C 215235,373621 217718,367614 217718,361358 L 217718 356045 L 269695 356045 C 275964,356045 281983,353549 286417,349115 C 290851,344681 293347,338668 293347,332392 L 293347 323961 C 325078,300254 346312,265096 352504,225971 C 358703,186847 349385,146848 326529,114495 L 373648 114495 L 375849 110003 L 377677 106611 C 383966,94826 385577,81100 382175,68182 C 378775,55263 370619,44106 359344,36942 C 354192,33686 348519,31331 342571,29976 C 342314,29922 342077,29811 341871,29653 C 341666,29494 341499,29291 341377,29059 C 337155,20492 330635,13270 322537,8203 C 314439,3135 305097,422 295542,366 L 295542 0 Z" fill="#FFFFFF"/>
  <path d="M 15401 69302 C 26001,53925 39772,41000 55794,31400 C 71811,21801 89708,15751 108265,13659 C 111480,8471 115535,3855 120271,0 C 95996,424 72228,7004 51187,19125 C 30153,31247 12539,48512 0,69302 L 15401 69302 Z" fill="#2D5967" transform="translate(78832,59029)"/>
  <path d="M 4222 0 C 26591,24663 38623,56979 37840,90266 C 37057,123553 23511,155266 0,178847 L 0 196722 C 28119,172996 45989,139337 49904,102757 C 53812,66178 43455,29500 20996,367 L 4222 0 Z" fill="#2D5967" transform="translate(293790,114957)"/>
  <path d="M 65907 14484 C 65907,10642 64380,6958 61666,4242 C 58952,1526 55269,0 51425,0 L 0 0 L 0 12925 L 51425 12925 C 51848,12925 52252,13086 52561,13376 C 52868,13666 53048,14063 53074,14484 L 53074 165649 C 53074,166085 52901,166502 52593,166810 C 52284,167125 51861,167298 51425,167298 L 0 167298 L 0 180132 L 51425 180132 C 55269,180132 58952,178604 61666,175890 C 64380,173169 65907,169486 65907,165649 L 65907 14484 Z" fill="#2D5967" transform="translate(218264,166750)"/>
  <path d="M 0 12834 L 30525 12834 L 30525 25759 L 0 25759 L 0 38593 L 43359 38593 L 43359 0 L 0 0 L 0 12834 Z" fill="#2D5967" transform="translate(218264,189300)"/>
  <path d="M 0 25759 L 0 38593 L 43359 38593 L 43359 0 L 0 0 L 0 12925 L 30525 12925 L 30525 25759 L 0 25759 Z" fill="#2D5967" transform="translate(218264,237520)"/>
  <path d="M 43359 0 L 0 0 L 0 12834 L 30525 12834 L 30525 25667 L 0 25667 L 0 38594 L 43359 38594 L 43359 0 Z" fill="#2D5967" transform="translate(218264,285822)"/>
  <path d="M 199383 14760 C 199434,12839 199094,10928 198395,9139 C 197695,7350 196643,5720 195302,4345 C 193961,2969 192356,1876 190585,1130 C 188814,384 186915,0 184990,0 L 14488 0 C 12556,-13 10644,363 8867,1103 C 7083,1844 5472,2935 4118,4312 C 2764,5689 1706,7323 1000,9117 C 294,10912 -46,12831 5,14760 L 5 223857 C 5,227701 1526,231384 4247,234098 C 6961,236813 10644,238340 14488,238340 L 184990 238340 C 186889,238340 188769,237968 190521,237236 C 192273,236505 193864,235439 195199,234092 C 196540,232744 197599,231147 198311,229395 C 199030,227637 199396,225756 199383,223857 L 199383 14760 Z M 184990 225596 L 14488 225596 C 14270,225596 14058,225557 13853,225474 C 13654,225391 13474,225269 13320,225115 C 13166,224961 13044,224781 12961,224582 C 12877,224377 12839,224165 12839,223947 L 12839 14760 C 12858,14338 13044,13942 13352,13652 C 13660,13361 14064,13200 14488,13201 L 184990 13201 C 185401,13223 185779,13394 186068,13682 C 186357,13970 186530,14354 186549,14760 L 186549 223857 C 186549,224280 186389,224685 186100,224993 C 185811,225301 185413,225480 184990,225506 L 184990 225596 Z" fill="#2D5967" transform="translate(9173,137507)"/>
  <path d="M 154377 57934 L 154377 0 L 0 0 L 0 57934 L 154377 57934 Z M 12834 12834 L 141171 12834 L 141171 45009 L 12834 45009 L 12834 12834 Z" fill="#2D5967" transform="translate(31707,160327)"/>
  <path d="M 6417 12834 C 9965,12834 12834,9961 12834,6417 C 12834,2873 9965,0 6417,0 C 2875,0 0,2873 0,6417 C 0,9961 2875,12834 6417,12834 Z" fill="#2D5967" transform="translate(150708,182876)"/>
  <path d="M 75539 57934 L 154377 57934 L 154377 0 L 0 0 L 0 57934 L 75539 57934 Z M 12834 12834 L 141171 12834 L 141171 45009 L 12834 45009 L 12834 12834 Z" fill="#2D5967" transform="translate(31707,227889)"/>
  <path d="M 6417 12834 C 9965,12834 12834,9961 12834,6417 C 12834,2873 9965,0 6417,0 C 2875,0 0,2873 0,6417 C 0,9961 2875,12834 6417,12834 Z" fill="#2D5967" transform="translate(150708,250438)"/>
  <path d="M 154377 57845 L 154377 0 L 0 0 L 0 57845 L 154377 57845 Z M 12834 12834 L 141171 12834 L 141171 45011 L 12834 45011 L 12834 12834 Z" fill="#2D5967" transform="translate(31707,295453)"/>
  <path d="M 6417 12833 C 9965,12833 12834,9958 12834,6416 C 12834,2874 9965,0 6417,0 C 2875,0 0,2874 0,6416 C 0,9958 2875,12833 6417,12833 Z" fill="#2D5967" transform="translate(150708,318000)"/>
  <path d="M 166748 35084 C 162520,32424 157867,30502 152997,29400 C 151399,29047 149897,28346 148595,27348 C 147299,26350 146233,25079 145483,23625 C 142428,17457 137924,12123 132354,8083 C 126784,4044 120316,1418 113501,435 C 106693,-548 99743,140 93256,2439 C 86769,4738 80942,8580 76271,13633 C 75186,14777 73852,15654 72376,16195 C 70893,16735 69308,16925 67743,16750 C 59144,15976 50565,18414 43660,23594 C 36749,28774 32007,36329 30345,44800 C 30018,46374 29344,47855 28382,49139 C 27413,50422 26175,51476 24750,52226 C 17974,55822 12198,61064 7970,67471 C 3741,73877 1194,81244 552,88894 L 0 95860 L 71779 95860 C 67550,92282 64092,87885 61602,82935 L 14669 82935 C 15907,78752 17980,74862 20746,71492 C 23518,68123 26938,65343 30801,63318 C 33913,61668 36621,59348 38732,56527 C 40837,53705 42293,50452 42993,47001 C 43679,43525 45181,40263 47382,37488 C 49583,34714 52413,32506 55647,31050 C 59048,29563 62769,28963 66459,29309 C 70014,29685 73601,29226 76945,27968 C 80288,26711 83291,24690 85710,22067 C 88501,19119 91876,16782 95611,15204 C 99352,13626 103382,12841 107437,12900 C 112969,12904 118385,14450 123082,17366 C 127772,20280 131564,24449 134022,29400 C 135594,32571 137860,35346 140657,37521 C 143449,39695 146696,41212 150154,41959 C 153728,42603 157148,43909 160241,45809 C 166261,49646 170778,55447 173011,62229 C 175251,69011 175077,76358 172523,83027 L 96715 83027 C 92499,82978 88476,81264 85517,78258 C 82566,75252 80923,71199 80948,66984 L 68019 66984 C 67993,74627 71002,81967 76380,87397 C 81757,92827 89072,95903 96715,95952 L 180037 95952 L 181873 92560 C 187038,82832 188347,71516 185543,60865 C 182739,50215 176033,41010 166748,35084 Z" fill="#2D5967" transform="translate(188098,9189)"/>
</svg>