<svg xmlns="http://www.w3.org/2000/svg" viewBox="0 0 256672 256672" width="27" height="27">
  <path d="M 125282 250565 C 194475,250565 250565,194475 250565,125282 C 250565,56090 194475,0 125282,0 C 56089,0 0,56090 0,125282 C 0,194475 56089,250565 125282,250565 Z" fill="#FFFFFF" transform="translate(3054,3055)"/>
  <path d="M 128336 6109 C 152509,6109 176142,13283 196239,26707 C 216343,40137 232007,59228 241260,81564 C 250506,103895 252932,128472 248216,152182 C 243499,175892 231859,197671 214764,214765 C 197670,231860 175891,243500 152181,248216 C 128471,252933 103894,250507 81564,241260 C 59227,232007 40137,216344 26706,196240 C 13282,176142 6108,152509 6108,128337 C 6108,95919 18987,64829 41908,41908 C 64829,18988 95918,6109 128336,6109 Z M 128336 0 C 102951,0 78143,7527 57038,21631 C 35933,35729 19481,55775 9765,79222 C 57,102676 -2484,128478 2463,153375 C 7417,178266 19641,201136 37589,219084 C 55537,237032 78407,249256 103298,254210 C 128195,259157 153997,256616 177451,246907 C 200898,237192 220944,220739 235042,199634 C 249146,178529 256673,153722 256673,128337 C 256673,94302 243153,61659 219083,37590 C 195013,13520 162371,0 128336,0 L 128336 0 Z" fill="#FFFFFF"/>
  <path d="M 122227 0 C 98055,0 74422,7168 54324,20598 C 34220,34029 18557,53119 9303,75456 C 57,97786 -2369,122363 2348,146073 C 7064,169783 18704,191562 35799,208650 C 52893,225744 74672,237385 98382,242101 C 122092,246817 146669,244398 168999,235145 C 191337,225899 210427,210229 223857,190131 C 237281,170034 244455,146400 244455,122228 C 244455,106173 241292,90285 235151,75456 C 229003,60626 220000,47151 208655,35800 C 197304,24448 183829,15445 168999,9305 C 154170,3164 138275,0 122227,0 Z M 122227 234247 C 100070,234247 78413,227676 59990,215369 C 41574,203061 27213,185562 18736,165093 C 10253,144623 8039,122100 12358,100372 C 16683,78645 27348,58682 43018,43019 C 58681,27349 78644,16684 100371,12359 C 122105,8034 144628,10254 165098,18731 C 185561,27214 203060,41568 215368,59991 C 227675,78414 234246,100071 234246,122228 C 234214,151925 222401,180403 201398,201399 C 180402,222401 151924,234215 122227,234247 Z" fill="#2D5967" transform="translate(6109,6109)"/>
  <path d="M 32880 161705 L 32880 19495 L 48402 35017 L 55608 27804 L 27804 0 L 0 27804 L 7213 35017 L 22735 19495 L 22735 161705 L 7213 146182 L 0 153395 L 27804 181199 L 55608 153395 L 48402 146182 L 32880 161705 Z" fill="#2D5967" transform="translate(100532,38379)"/>
  <path d="M 57078 0 L 49872 7206 L 65394 22729 L 0 22729 L 0 32874 L 65394 32874 L 49872 48396 L 57078 55608 L 84824 27804 L 57078 0 Z" fill="#2D5967" transform="translate(37949,100533)"/>
  <path d="M 19430 22729 L 34953 7206 L 27740 0 L 0 27804 L 27740 55608 L 34953 48396 L 19430 32874 L 84824 32874 L 84824 22729 L 19430 22729 Z" fill="#2D5967" transform="translate(133900,100533)"/>
</svg>