<svg xmlns="http://www.w3.org/2000/svg" viewBox="0 0 376001 385004" width="39" height="40">
  <path d="M 23440 0 L 0 0 L 0 361563 L 23440 361563 L 23440 0 Z" fill="#FFFFFF" transform="translate(4499,11711)"/>
  <path d="M 23441 9016 L 23441 362468 L 9016 362468 L 9016 9016 L 23441 9016 Z M 32457 0 L 23441 0 L 9016 0 L 0 0 L 0 9016 L 0 362468 L 0 371484 L 9016 371484 L 23441 371484 L 32457 371484 L 32457 362468 L 32457 9016 L 32457 0 Z" fill="#FFFFFF" transform="translate(0,7213)"/>
  <path d="M 23441 0 L 0 0 L 0 361563 L 23441 361563 L 23441 0 Z" fill="#FFFFFF" transform="translate(57701,11711)"/>
  <path d="M 23441 9016 L 23441 362468 L 9016 362468 L 9016 9016 L 23441 9016 Z M 32456 0 L 23441 0 L 9016 0 L 0 0 L 0 9016 L 0 362468 L 0 371484 L 9016 371484 L 23441 371484 L 32456 371484 L 32456 362468 L 32456 9016 L 32456 0 Z" fill="#FFFFFF" transform="translate(53202,7213)"/>
  <path d="M 10709 283124 C -3716,216402 -3716,146073 11607,80249 L 29645 0 L 52188 5409 L 34150 85658 C 19725,148775 19725,215497 33251,278613 L 51283 362468 L 27842 367878 L 10709 283124 Z" fill="#FFFFFF" transform="translate(83054,9023)"/>
  <path d="M 36407 10819 L 50832 14425 L 33706 90169 C 20179,153286 20179,220906 33706,284927 L 50832 364271 L 36407 366979 L 19274 287629 C 5754,221811 5754,152381 20179,86557 L 36407 10819 Z M 30093 0 L 28289 9016 L 11163 84754 C -3268,151483 -4167,222709 11163,289432 L 28289 368782 L 30093 377798 L 39115 375995 L 53540 373287 L 62555 371484 L 60752 362468 L 43619 283124 C 29194,220008 29194,154184 43619,91973 L 60752 16228 L 62555 7213 L 53540 5410 L 39115 1803 L 30093 0 Z" fill="#FFFFFF" transform="translate(78994,3613)"/>
  <path d="M 25928 304762 C -9236,228119 -8338,139759 26827,63116 L 55683 0 L 77321 9921 L 47566 73037 C 15110,143365 15110,223614 46667,294841 L 77321 361570 L 55683 371484 L 25928 304762 Z" fill="#FFFFFF" transform="translate(109307,7213)"/>
  <path d="M 62330 12622 L 75857 18936 L 48804 78446 C 15442,149679 15442,231731 47905,303863 L 75857 366074 L 62330 372389 L 34378 310171 C 113,234433 113,147876 35277,73036 L 62330 12622 Z M 57819 0 L 54213 8117 L 27166 67627 C -8903,145168 -8903,234433 26261,312879 L 54213 375090 L 57819 383207 L 65937 379601 L 79463 373287 L 87574 369681 L 83968 361570 L 56016 299352 C 24458,229928 25363,150577 56921,82052 L 83968 22542 L 87574 14425 L 79463 10819 L 65937 4511 L 57819 0 Z" fill="#FFFFFF" transform="translate(105374,899)"/>
  <path d="M 14425 127137 C 18930,115413 24339,104595 30654,93776 L 89265 0 L 109099 12622 L 58605 94674 L 57700 95579 C 44180,104595 31558,117216 22536,130743 L 0 165908 L 14425 127137 Z" fill="#FFFFFF" transform="translate(130724,5410)"/>
  <path d="M 109099 12622 L 121721 20739 L 73935 98280 C 59510,108201 46881,120823 37866,135248 C 42377,124429 46881,113610 53195,102791 L 109099 12622 Z M 105493 0 L 100982 8117 L 45078 97382 C 38771,108201 32456,119020 28850,131642 L 0 210087 L 45078 139759 C 54094,126232 64919,114509 78439,105493 L 80243 104594 L 81147 102791 L 129838 25244 L 134343 17133 L 126232 12622 L 113604 4511 L 105493 0 Z" fill="#FFFFFF" transform="translate(112706,0)"/>
  <path d="M 0 0 L 27952 0 L 72132 71233 L 52297 83855 L 0 0 Z" fill="#FFFFFF" transform="translate(167724,295746)"/>
  <path d="M 32457 9016 L 73030 73935 L 60408 82052 L 15323 9016 L 32457 9016 Z M 37866 0 L 33361 0 L 16228 0 L 0 0 L 9016 13520 L 54094 86557 L 58605 93769 L 66722 89265 L 79345 81148 L 87462 76643 L 81147 69424 L 40574 4505 L 37866 0 Z" fill="#FFFFFF" transform="translate(160505,291235)"/>
  <path d="M 46888 210986 L 43275 208284 C 16228,185742 0,153279 0,117216 C 0,53196 52297,0 117216,0 C 182135,0 234433,52297 234433,117216 C 234433,152381 218198,185742 191151,208284 L 187545 210986 L 46888 210986 Z" fill="#FFFFFF" transform="translate(137051,82938)"/>
  <path d="M 121721 9016 C 183939,9016 234433,59510 234433,121728 C 234433,155987 219103,187545 192954,209189 L 191151 210992 L 52297 210992 L 50494 209189 C 24346,187545 9015,155987 9015,121728 C 9015,59510 59510,9016 121721,9016 Z M 121721 0 C 54999,0 0,54100 0,121728 C 0,158695 16228,192955 45078,216402 L 46881 218205 L 49589 220008 L 53195 220008 L 191151 220008 L 193853 220008 L 196560 218205 L 198364 216402 C 227220,192955 243448,158695 243448,121728 C 243448,55005 188443,0 121721,0 Z" fill="#FFFFFF" transform="translate(132553,78440)"/>
  <path d="M 14425 0 L 0 0 L 0 352554 L 14425 352554 L 14425 0 Z" fill="#2D5967" transform="translate(9022,16222)"/>
  <path d="M 14425 0 L 0 0 L 0 352548 L 14425 352548 L 14425 0 Z" fill="#2D5967" transform="translate(62224,16235)"/>
  <path d="M 25360 79344 L 41588 3606 L 27163 0 L 10935 75738 C -3490,141556 -3490,210986 10030,276810 L 27163 356154 L 41588 353453 L 24455 274102 C 10935,210088 10935,142460 25360,79344 Z" fill="#2D5967" transform="translate(88251,14425)"/>
  <path d="M 40013 65817 L 67067 6308 L 53540 0 L 26486 59510 C -8678,135248 -8678,221811 25588,296644 L 53540 358862 L 67067 352548 L 40013 291235 C 6652,219103 7557,137051 40013,65817 Z" fill="#2D5967" transform="translate(113266,12622)"/>
  <path d="M 35165 85658 L 83855 8111 L 71233 0 L 15330 89265 C 9016,99179 3606,110004 0,121721 C 8117,108194 20739,95573 35165,85658 Z" fill="#2D5967" transform="translate(150578,11724)"/>
  <path d="M 58605 64919 L 17133 0 L 0 0 L 45983 73030 L 58605 64919 Z" fill="#2D5967" transform="translate(175828,300257)"/>
  <path d="M 112705 0 C 50494,0 0,50494 0,112705 C 0,146971 15330,178529 41478,200167 L 43282 201970 L 181237 201970 L 183040 200167 C 209189,178529 224512,146971 224512,112705 C 225417,50494 174923,0 112705,0 Z M 66722 169514 L 56802 159593 L 38771 176726 C 33361,170412 29755,164104 25244,157790 L 47786 148775 L 45085 141562 L 42376 134349 L 19834 144263 C 17133,137051 15330,128940 15330,121721 L 40574 121721 L 40574 107296 L 15330 107296 C 16228,99185 17133,91068 19834,83855 L 43282 93769 L 45983 86557 L 48691 79344 L 25244 69430 C 28850,62211 33361,55904 37872,49589 L 55903 67627 L 65824 57707 L 47786 39675 C 54100,34259 60414,29755 67627,26149 L 77541 50494 L 91068 45085 L 81147 20739 C 88360,18031 95579,17133 103690,16228 L 103690 42377 L 110902 42377 L 118115 42377 L 118115 15330 C 127137,16228 135248,17133 142460,19834 L 132546 44180 L 146067 49589 L 155987 25244 C 163199,28850 169514,33361 175821,38771 L 156891 57707 L 167711 67627 L 186647 48691 C 192056,54999 196560,61313 200167,68525 L 175821 78446 L 181237 91966 L 205576 82052 C 208284,89265 209189,97382 210087,105493 L 183939 105493 L 183939 112705 L 183939 119918 L 210087 119918 C 209189,128035 208284,136153 205576,143365 L 182135 133445 L 176726 146971 L 200167 156892 C 196560,164104 192056,170412 186647,175821 L 168609 157790 L 163199 165003 L 157790 170412 L 174923 187545 L 49589 187545 L 66722 169514 Z" fill="#2D5967" transform="translate(141575,87462)"/>
  <path d="M 8182 64021 C 12693,67627 17198,69430 22607,69430 C 23512,69430 23512,69430 24411,69430 C 30725,69430 36134,65824 39740,61313 C 43347,56808 45150,51393 45150,45085 C 45150,42377 44251,38771 42448,36069 L 67692 10819 L 57772 0 L 31629 26149 C 28017,24346 24411,24346 20804,24346 C 14496,24346 9087,27952 5481,32463 C -2637,41479 -1738,55904 8182,64021 Z M 27118 40574 C 28922,41479 29820,44180 29820,45983 C 29820,47786 29820,50494 28017,51393 C 27118,53196 24411,54100 22607,54100 C 20804,54100 18103,54100 17198,52297 C 15395,51393 14496,48691 14496,46888 C 14496,45085 14496,42377 16299,41479 C 17198,39675 19906,38771 21709,38771 C 21709,38771 21709,38771 22607,38771 C 24411,38771 26214,39675 27118,40574 Z" fill="#2D5967" transform="translate(231667,155987)"/>
</svg>