<svg xmlns="http://www.w3.org/2000/svg" viewBox="0 0 256064 385010" width="27" height="40">
  <path d="M 118885 373126 C 46637,337455 3657,280756 0,218570 L 0 103343 L 47555 83226 C 47555,81391 47555,79562 47555,76822 C 47555,34754 81391,0 124371,0 C 167351,0 201194,34754 201194,76822 C 201194,78651 201194,80480 201194,83226 L 248742 103343 L 248742 218570 C 245085,280756 202105,337455 129858,373126 L 124371 375866 L 118885 373126 Z" fill="#FFFFFF" transform="translate(4575,4568)"/>
  <path d="M 128946 9144 C 168269,9144 201194,41151 201194,81391 C 201194,84138 201194,87795 200276,90535 L 248749 111570 L 248749 224057 C 245091,284414 203023,339284 132604,374949 L 128946 374949 L 126200 373120 C 54870,338373 12802,283503 9144,223139 L 9144 110658 L 57617 89624 C 57617,86878 56699,83220 56699,80480 C 56699,41151 88706,9144 128946,9144 Z M 128946 0 C 84138,0 47555,36582 47555,81391 C 47555,82309 47555,83220 47555,85049 L 5486 103343 L 0 104254 L 0 110658 L 0 222228 L 0 223139 C 3658,287160 47555,344771 121631,381353 L 124371 383182 L 128029 385011 L 131693 383182 L 134433 381353 C 208509,344771 252406,287160 256064,223139 L 256064 110658 L 256064 104254 L 250578 101508 L 208509 83220 C 208509,82309 208509,81391 208509,79562 C 209426,36582 173755,0 128946,0 Z" fill="#FFFFFF"/>
  <path d="M 191139 80480 C 191139,77734 192050,74994 192050,71336 C 192050,32007 160043,0 119803,0 C 79563,0 47555,32007 47555,72247 C 47555,74994 47555,78651 48473,81391 L 0 101514 L 0 213084 C 3658,274359 45726,329229 116145,363976 L 118891 365805 L 121631 363976 C 192967,329229 235947,274359 238687,213995 L 238687 101514 L 191139 80480 Z M 61274 72247 C 61274,40240 87795,13719 119803,13719 C 151810,13719 178331,40240 178331,72247 C 178331,73165 178331,74076 178331,75905 L 119803 51213 L 61274 74994 C 61274,74076 61274,73165 61274,72247 Z M 224974 213084 C 221317,267955 182906,317339 118891,350263 C 54871,317339 16466,267037 12808,213084 L 12808 110659 L 118891 64932 L 224974 110659 L 224974 213084 Z" fill="#2D5967" transform="translate(9144,9144)"/>
  <path d="M 0 24692 C 0,33836 5486,42069 13719,45726 L 17377 47555 L 10973 94193 L 37494 94193 L 31096 47555 L 32007 46638 C 41151,42980 48473,34747 48473,23775 C 48473,10973 37494,0 24692,0 C 11890,0 0,11884 0,24692 Z" fill="#2D5967" transform="translate(104255,163700)"/>
</svg>