<svg xmlns="http://www.w3.org/2000/svg" viewBox="0 0 385010 384092" width="40" height="40">
  <path d="M 20149 374953 C 9176,374953 0,365809 0,354830 L 0 20119 C 0,9145 9176,0 20149,0 L 355750 0 C 366723,0 375899,9145 375899,20119 L 375899 355747 C 375899,366720 366723,375864 355750,375864 L 20149 375864 L 20149 374953 Z" fill="#FFFFFF" transform="translate(4556,4571)"/>
  <path d="M 359407 9145 C 368520,9145 374936,15547 374936,24692 L 374936 46640 L 374936 360319 C 374936,368551 368520,375867 359407,375867 L 24705 375867 C 15529,374949 9176,368551 9176,359407 L 9176 24692 C 9176,15547 15529,9145 24705,9145 L 359407 9145 Z M 359407 0 L 24705 0 C 10973,0 0,10974 0,24692 L 0 360319 C 0,373120 10973,384093 24705,384093 L 360306 384093 C 374038,384093 385011,373120 385011,359407 L 385011 46640 L 385011 24692 C 384112,10974 373140,0 359407,0 Z" fill="#FFFFFF"/>
  <path d="M 15592 314592 C 14694,314592 13732,313681 13732,312763 L 13732 13718 L 352092 13718 L 352092 157297 L 352092 167356 L 352092 169185 C 357611,169185 362166,171015 365824,174672 L 365824 0 L 0 0 L 0 313681 C 0,321907 6417,328311 15592,328311 L 147266 328311 C 144507,324654 142711,320079 141812,314592 L 15592 314592 Z" fill="#2D5967" transform="translate(9113,46644)"/>
  <path d="M 365760 15547 C 365760,6401 359343,0 350231,0 L 15528 0 C 6353,0 0,6401 0,15547 L 0 27435 L 365760 27435 L 365760 15547 Z" fill="#2D5967" transform="translate(9177,9146)"/>
  <path d="M 262449 23778 L 107867 23778 L 93237 5487 C 90542,1829 86884,0 82264,0 L 13668 0 C 6353,0 0,6401 0,13718 L 0 208510 L 97857 208510 L 97857 194792 L 13668 194792 L 13668 61273 L 85922 61273 C 90542,61273 94199,59444 96894,55785 L 111525 37495 L 262449 37495 L 262449 78648 C 267005,81392 271560,85965 274320,92366 L 276181 96939 L 276181 37495 C 276181,30179 269764,23778 262449,23778 Z M 85922 47555 L 13668 47555 L 13668 13718 L 82264 13718 L 96894 32922 L 85922 47555 Z" fill="#2D5967" transform="translate(53068,107002)"/>
  <path d="M 52105 0 L 0 0 L 0 13717 L 52105 13717 L 52105 0 Z" fill="#2D5967" transform="translate(78671,130774)"/>
  <path d="M 198473 33837 L 190260 33837 L 190260 21948 L 176527 21948 L 176527 33837 L 166453 33837 L 156378 10974 C 153684,3658 146369,0 139053,0 L 138091 0 L 104274 0 C 96061,0 89644,4573 86884,12803 L 79569 33837 L 64041 33837 L 64041 26521 C 64041,17376 56725,10060 47549,10060 L 37539 10060 C 28363,10060 21047,17376 21047,26521 L 21047 33837 L 15593 33837 C 7315,33837 0,40239 0,49384 L 0 168268 C 0,176500 6417,183816 15593,183816 L 198473 183816 C 206687,183816 214002,177418 214002,168268 L 214002 49384 C 214002,41153 207585,33837 198473,33837 Z M 99718 17376 C 100616,15547 102478,13718 104274,13718 L 139952 13718 C 141749,13718 143609,14632 144507,16461 L 151823 33837 L 92403 33837 L 99718 17376 Z M 34780 26521 C 34780,24692 35678,23778 37539,23778 L 47549 23778 C 49410,23778 50309,24692 50309,26521 L 50309 33837 L 34780 33837 L 34780 26521 Z M 200270 167356 C 200270,168268 199372,169185 198473,169185 L 15593 169185 C 14631,169185 13732,168268 13732,167356 L 13732 48469 C 13732,47555 14631,46640 15593,46640 L 198473 46640 C 199372,46640 200270,47555 200270,48469 L 200270 167356 Z" fill="#2D5967" transform="translate(160935,192051)"/>
  <path d="M 49410 0 C 21946,0 0,21948 0,49383 C 0,76817 21946,98769 49410,98769 C 76810,98769 98755,76817 98755,49383 C 98755,21948 76810,0 49410,0 Z M 49410 84138 C 30160,84138 13732,68588 13732,48469 C 13732,29264 29261,12803 49410,12803 C 69495,12803 85023,28350 85023,48469 C 85023,68588 69495,84138 49410,84138 Z" fill="#2D5967" transform="translate(232290,251494)"/>
  <path d="M 6353 12803 C 9946,12803 12769,9937 12769,6401 C 12769,2866 9946,0 6353,0 C 2824,0 0,2866 0,6401 C 0,9937 2824,12803 6353,12803 Z" fill="#2D5967" transform="translate(336564,251494)"/>
  <path d="M 32021 0 L 0 0 L 0 13717 L 32021 13717 L 32021 0 Z" fill="#2D5967" transform="translate(186538,251494)"/>
  <path d="M 6417 29265 L 18288 29265 C 21945,29265 24705,26521 24705,22863 C 24705,19205 21945,16461 18288,16461 L 12769 16461 L 12769 6401 C 12769,2744 10074,0 6417,0 C 2759,0 0,2744 0,6401 L 0 23778 C 0,26521 2759,29265 6417,29265 Z" fill="#2D5967" transform="translate(275283,276187)"/>
</svg>