<svg xmlns="http://www.w3.org/2000/svg" viewBox="0 0 374566 385009" width="39" height="40">
  <path d="M 15208 315339 C 7187,315339 0,308922 0,299759 L 0 134754 C 0,127420 5390,121003 13411,119170 L 15208 119170 L 80403 119170 L 80403 98086 C 80403,60501 108958,30251 145598,29334 L 132187 15584 L 148293 0 L 185832 39417 L 185832 43085 L 183137 44001 L 146496 81586 L 130454 66002 L 142903 52251 C 119738,53168 100937,73335 100937,98086 L 100937 119170 L 167031 119170 L 167929 119170 C 172421,120087 175950,122836 178645,126504 C 180442,129253 181340,132920 180442,136587 L 180442 164088 L 180442 299759 C 180442,308011 174217,315339 165234,315339 L 15208 315339 Z" fill="#FFFFFF" transform="translate(4427,65083)"/>
  <path d="M 150923 12834 L 183970 47668 L 150923 82502 L 141106 73335 L 158046 55001 L 150025 55001 C 123267,55001 100937,77918 100937,105419 L 100937 131086 L 171458 131086 L 172356 131086 C 175949,132003 178645,133837 179543,135670 C 180377,137503 181276,140254 180377,142087 L 180377 159504 L 180377 170504 L 180377 306176 C 180377,311675 175949,317174 169661,317174 L 19635 317174 C 13347,317174 8919,312593 8919,306176 L 8919 170504 L 8919 159504 L 8919 142087 C 8919,136587 12448,132003 17838,131086 L 18737 131086 L 88423 131086 L 88423 105419 C 88423,69668 116080,41251 150923,41251 L 159843 41251 L 142004 22917 L 150923 12834 Z M 150923 0 L 144699 6417 L 134881 15583 L 128593 22000 L 134881 28417 L 138411 32084 C 104466,37584 78606,67835 78606,104503 L 78606 121003 L 18737 121003 L 17838 121003 L 16940 121003 L 16042 121003 C 7123,123753 0,132003 0,141171 L 0 158588 L 0 170504 L 0 306176 C 0,317174 8919,326344 19635,326344 L 170559 326344 C 181276,326344 190259,317174 190259,306176 L 190259 170504 L 190259 159504 L 190259 143004 C 191157,138420 190259,134754 187564,131086 C 184869,126504 179543,122836 174152,121920 L 173255 121920 L 172356 121920 L 171458 121920 L 109856 121920 L 109856 105419 C 109856,88919 119673,74252 133085,67835 L 127695 73335 L 133983 79752 L 143801 88919 L 150025 95336 L 156314 88919 L 189360 54084 L 191991 51335 L 191991 47668 L 191991 44001 L 189360 41251 L 156314 6417 L 150923 0 Z" fill="#FFFFFF" transform="translate(0,58666)"/>
  <path d="M 15144 196172 C 7123,196172 0,189755 0,180588 L 0 15583 C 0,8250 5326,1833 13412,0 L 15144 0 L 167929 0 L 168827 0 C 173255,916 176849,3667 179544,7333 C 181340,10083 182174,13750 181340,17417 L 181340 41251 L 181340 180588 C 181340,188838 175052,196172 166132,196172 L 15144 196172 Z" fill="#FFFFFF" transform="translate(189360,4584)"/>
  <path d="M 173319 9167 C 176849,10083 179543,11917 181340,14667 C 182238,16500 182238,18334 182238,21084 L 182238 38501 L 182238 45835 L 182238 185172 C 182238,190672 177747,196172 171522,196172 L 20534 196172 C 15208,196172 9818,191588 9818,185172 L 9818 45835 L 9818 37584 L 9818 20167 C 9818,14667 13411,10083 18802,9167 L 19636 9167 L 173319 9167 Z M 174217 0 L 19636 0 L 18802 0 L 17903 0 L 17005 0 C 7187,1833 0,10083 0,20167 L 0 37584 L 0 45835 L 0 185172 C 0,196172 8920,205339 19636,205339 L 170624 205339 C 181340,205339 190260,196172 190260,185172 L 190260 45835 L 190260 37584 L 190260 22001 C 191158,17417 190260,13751 187564,10083 C 184934,5500 179543,1833 174217,917 L 174217 0 Z" fill="#FFFFFF" transform="translate(183970,0)"/>
  <path d="M 13348 92586 C 13348,65085 35678,42168 62500,42168 L 70521 42168 L 53580 60502 L 63398 69668 L 96445 34834 L 63398 0 L 53580 9167 L 71419 27501 L 62500 27501 C 27657,27501 0,55918 0,91669 L 0 107253 L 13348 107253 L 13348 92586 Z" fill="#2D5967" transform="translate(88423,70585)"/>
  <path d="M 10716 157671 L 161641 157671 C 167031,157671 172357,153090 172357,146673 L 172357 0 L 0 0 L 0 147591 C 0,153090 4428,157671 10716,157671 Z M 159010 143920 L 13412 143920 L 13412 13751 L 159010 13751 L 159010 143920 Z" fill="#2D5967" transform="translate(8919,218169)"/>
  <path d="M 170624 4584 C 168827,1833 166132,0 163438,0 L 162539 0 L 9818 0 L 8920 0 C 3530,916 0,5500 0,11000 L 0 18334 L 172357 18334 L 172357 11000 C 172357,9166 172357,6417 170624,4584 Z" fill="#2D5967" transform="translate(8919,189757)"/>
  <path d="M 125898 26584 C 125898,20167 121471,15584 115183,15584 L 58073 15584 L 51784 5501 C 49987,1833 46459,0 41966,0 L 10716 0 C 4428,0 0,4584 0,11000 L 0 109084 L 125898 109084 L 125898 26584 Z M 112552 95339 L 13412 95339 L 13412 13751 L 41068 13751 L 50886 29335 L 112552 29335 L 112552 95339 Z" fill="#2D5967" transform="translate(32148,242925)"/>
  <path d="M 10716 158588 L 161704 158588 C 167031,158588 172421,154004 172421,147587 L 172421 0 L 0 0 L 0 147587 C 0,153088 5390,158588 10716,158588 Z M 159010 144838 L 13411 144838 L 13411 13751 L 159010 13751 L 159010 144838 Z" fill="#2D5967" transform="translate(193788,37582)"/>
  <path d="M 171522 5501 C 169725,2750 167031,917 163501,0 L 9818 0 L 8920 0 C 3593,917 0,5501 0,11000 L 0 18334 L 172421 18334 L 172421 11917 C 172421,9167 172421,7334 171522,5501 Z" fill="#2D5967" transform="translate(193788,9164)"/>
  <path d="M 125963 26584 C 125963,20168 121471,15584 115246,15584 L 58073 15584 L 51848 5501 C 50052,1833 46458,0 41966,0 L 10716 0 C 4491,0 0,4584 0,11000 L 0 109086 L 125963 109086 L 125963 26584 Z M 112552 95336 L 13411 95336 L 13411 13751 L 41132 13751 L 50949 29335 L 112552 29335 L 112552 95336 Z" fill="#2D5967" transform="translate(217017,63250)"/>
</svg>