<svg xmlns="http://www.w3.org/2000/svg" viewBox="0 0 385010 370033" width="40" height="39">
  <path d="M 0 361220 L 0 237878 L 14977 237878 L 14977 19383 C 14977,8810 23787,0 34356,0 L 356796 0 C 367383,0 376175,8810 376175,19383 L 376175 342720 C 376175,353295 367383,362106 356796,362106 L 0 362106 L 0 361220 Z" fill="#FFFFFF" transform="translate(4408,4405)"/>
  <path d="M 361204 8810 C 369161,8810 376219,14978 376219,23788 L 376219 347126 C 376219,355057 370060,362102 361204,362102 L 8810 362102 L 8810 246688 L 23787 246688 L 23787 23788 C 23787,14978 29954,8810 37885,8810 L 361204 8810 Z M 361204 0 L 37885 0 C 25552,0 14977,10572 14977,23788 L 14977 237878 L 8810 237878 L 0 237878 L 0 246688 L 0 361223 L 0 370034 L 8810 370034 L 361204 370034 C 374423,370034 385011,359459 385011,346246 L 385011 23788 C 385011,10572 374423,0 361204,0 Z" fill="#FFFFFF"/>
  <path d="M 0 192065 L 13219 192065 L 13219 13215 L 339213 13215 L 339213 302192 C 339213,303078 338316,303957 337417,303957 L 86326 303957 L 86326 316290 L 337417 316290 C 345374,316290 352432,310123 352432,301313 L 352432 0 L 0 0 L 0 192065 Z" fill="#2D5967" transform="translate(23787,44933)"/>
  <path d="M 337417 0 L 14098 0 C 6167,0 0,6167 0,14978 L 0 26431 L 352432 26431 L 352432 14978 C 352432,6167 345374,0 337417,0 Z" fill="#2D5967" transform="translate(23787,8810)"/>
  <path d="M 266055 36122 C 266055,29074 259895,22907 252836,22907 L 103966 22907 L 89849 5286 C 87218,1762 83689,0 79261,0 L 13212 0 C 6167,0 0,6167 0,13215 L 0 133917 L 13212 133917 L 13212 59029 L 82790 59029 C 87218,59029 90747,57267 93378,53743 L 107495 36122 L 252836 36122 L 252836 187660 L 44032 187660 L 44032 200875 L 266055 200875 L 266055 36122 Z M 82790 45814 C 81956,45814 82790,45814 82790,45814 L 13212 45814 L 13212 13215 L 79261 13215 L 93378 31717 L 82790 45814 Z" fill="#2D5967" transform="translate(66080,103082)"/>
  <path d="M 50244 0 L 0 0 L 0 13215 L 50244 13215 L 50244 0 Z" fill="#2D5967" transform="translate(90734,125987)"/>
  <path d="M 91614 0 L 0 0 L 0 114532 L 29075 114532 L 90715 114532 L 90715 0 L 91614 0 Z M 13219 101320 L 13219 13215 L 78395 13215 L 78395 101320 L 13219 101320 Z" fill="#2D5967" transform="translate(8810,246691)"/>
  <path d="M 22022 37885 C 17620,37885 14977,37006 12333,34362 C 10568,31718 8810,28196 8810,22907 C 8810,18502 9689,14978 12333,12334 C 14977,9691 17620,8810 22022,8810 C 23787,8810 24666,8810 26431,9691 C 28189,9691 29954,10572 31712,11453 L 31712 3524 C 29954,2643 29068,2643 27310,1762 C 25545,0 23787,0 22022,0 C 17620,0 13212,881 10568,2643 C 7045,4405 4402,7048 2644,10572 C 879,14097 0,17621 0,22907 C 0,30839 1758,36120 5281,40529 C 8810,44931 14091,46695 21143,46695 C 23787,46695 25545,46695 28189,45816 C 29954,44931 31712,44052 33477,43173 L 33477 35241 C 30833,36120 29068,37006 27310,37006 C 25545,37885 23787,37885 22022,37885 Z" fill="#2D5967" transform="translate(37006,281930)"/>
</svg>