<svg xmlns="http://www.w3.org/2000/svg" viewBox="0 0 379620 374265" width="40" height="39">
  <path d="M 326810 366207 L 326810 344717 L 328607 344717 L 295432 311587 C 292801,325018 288309,336658 282021,346508 C 271304,361728 259626,365309 252503,365309 C 250706,365309 248910,365309 247113,364417 C 242621,363519 237231,360836 232803,357256 L 18802 357256 C 8021,357256 0,348298 0,338448 L 0 18803 C 0,8058 8920,0 18802,0 L 337527 0 C 348306,0 356327,8953 356327,18803 L 356327 196087 L 366210 196087 L 366210 235483 L 344713 235483 L 344713 232797 L 307111 270403 L 326810 270403 L 325013 268612 L 340221 252495 L 369803 280252 L 340221 309797 L 325013 294577 L 327709 291891 L 308907 291891 L 345612 328605 L 345612 326808 L 367108 326808 L 367108 366207 L 326810 366207 Z" fill="#FFFFFF" transform="translate(4492,4478)"/>
  <path d="M 342018 8954 C 350103,8954 356327,15221 356327,23280 L 356327 25966 L 356327 34024 L 356327 204145 L 366209 204145 L 366209 234588 L 353696 234588 L 353696 225634 L 300822 278461 L 342916 278461 L 335793 272194 L 344713 263240 L 367107 284729 L 344713 307113 L 335793 298159 L 342916 290996 L 302619 290996 L 354595 342926 L 354595 334873 L 367107 334873 L 367107 365314 L 336692 365314 L 336692 352776 L 344713 352776 L 298190 306218 C 296394,321442 291902,335765 283817,348303 C 274897,360835 265914,364416 258791,364416 C 256995,364416 255198,364416 254299,363524 C 249808,362625 245316,359943 240824,356356 L 23293 356356 C 15208,356356 8984,350093 8984,342034 L 8984 34920 L 8984 25966 L 8984 23280 C 8984,15221 15208,8954 23293,8954 L 342018 8954 Z M 342018 0 L 23293 0 C 10716,0 0,10744 0,23280 L 0 25966 L 0 34024 L 0 341135 C 0,353674 10716,364416 23293,364416 L 236396 364416 C 240824,367996 246214,370685 250706,371577 C 252503,372475 255198,372475 256995,372475 C 265016,372475 277593,368895 290105,352776 C 295496,344716 299923,334873 302619,324124 L 326810 348303 L 326810 352776 L 326810 365314 L 326810 374266 L 335793 374266 L 366209 374266 L 375193 374266 L 375193 365314 L 375193 334873 L 375193 325915 L 366209 325915 L 353696 325915 L 349205 325915 L 323216 299950 L 325013 299950 L 329505 304427 L 338424 313383 L 344713 319645 L 351001 313383 L 373396 290996 L 379621 284729 L 373396 278461 L 351001 256972 L 343814 250705 L 337526 256972 L 328606 265926 L 325013 269507 L 322318 269507 L 348306 243542 L 353696 243542 L 366209 243542 L 375193 243542 L 375193 234588 L 375193 204145 L 375193 195191 L 366209 195191 L 365311 195191 L 365311 34024 L 365311 25966 L 365311 23280 C 365311,10744 354595,0 342018,0 Z" fill="#FFFFFF"/>
  <path d="M 14309 299053 C 13411,299053 12513,298161 12513,297263 L 12513 12535 L 333932 12535 L 333932 151318 L 346509 151318 L 346509 0 L 0 0 L 0 297263 C 0,305322 6224,311592 14309,311592 L 217531 311592 C 214836,308011 212205,303532 209510,299053 L 14309 299053 Z" fill="#2C5967" transform="translate(8984,44771)"/>
  <path d="M 347344 14326 C 347344,6268 341120,0 333034,0 L 14309 0 C 6224,0 0,6268 0,14326 L 0 25966 L 347344 25966 L 347344 14326 Z" fill="#2C5967" transform="translate(8984,8955)"/>
  <path d="M 252503 141469 L 254299 141469 L 263282 132516 L 263282 35815 C 263282,28652 256994,23280 249807,23280 L 102990 23280 L 89579 5372 C 86884,2686 83290,0 78798,0 L 13475 0 C 6288,0 0,5372 0,12535 L 0 197877 L 145085 197877 L 145085 189819 L 145085 185342 L 13475 185342 L 13475 58199 L 81494 58199 C 85985,58199 89579,56409 92273,52827 L 106584 34920 L 249807 34920 L 249807 133411 C 250706,136097 251604,138783 252503,141469 Z M 82392 44769 L 13475 44769 L 13475 12535 L 78798 12535 L 93172 30443 L 82392 44769 Z" fill="#2C5967" transform="translate(50116,102074)"/>
  <path d="M 50116 0 L 0 0 L 0 12535 L 50116 12535 L 50116 0 Z" fill="#2C5967" transform="translate(75205,124458)"/>
  <path d="M 150475 138783 L 98498 86851 L 138796 86851 L 131674 94014 L 140592 102968 L 162988 80584 L 140592 59095 L 131674 68049 L 138796 74316 L 96701 74316 L 149576 21489 L 149576 30443 L 162090 30443 L 162090 0 L 131674 0 L 131674 12535 L 138796 12535 L 92274 59095 C 91376,55513 91376,51931 90477,48350 C 80595,5372 60896,896 52875,896 C 35870,896 21496,19698 15272,47455 C 13475,55513 12577,64467 11678,74316 L 0 74316 L 0 86851 L 11678 86851 C 11678,95805 13475,103864 14374,111922 C 19699,136993 32277,155794 47485,159374 C 49281,159374 50179,160273 51976,160273 C 59099,160273 68083,156692 77002,144154 C 85087,131622 89579,117293 91376,102073 L 137898 148633 L 129877 148633 L 129877 161165 L 160293 161165 L 160293 130723 L 147780 130723 L 147780 138783 L 150475 138783 Z M 69880 136094 C 66286,141471 59997,147734 52875,146842 C 42993,145052 34073,129831 29582,109233 C 27785,102968 26886,94910 26886,86851 L 46586 86851 L 39400 94014 L 48382 102968 L 70778 80584 L 47485 58199 L 38501 67153 L 46586 74316 L 25988 74316 C 25988,66258 26886,58199 28683,51036 C 34073,25966 45688,15221 53773,14326 C 61794,14326 72574,24175 78799,51931 C 85986,77002 85087,112820 69880,136094 Z" fill="#2C5967" transform="translate(202323,205042)"/>
</svg>