<svg xmlns="http://www.w3.org/2000/svg" viewBox="0 0 385010 384095" width="40" height="40">
  <path d="M 20117 374949 C 9144,374949 0,365805 0,354832 L 0 20119 C 0,9145 9144,0 20117,0 L 355743 0 C 366716,0 375860,9145 375860,20119 L 375860 355743 C 375860,366723 366716,375867 355743,375867 L 20117 375867 L 20117 374949 Z" fill="#FFFFFF" transform="translate(4576,4571)"/>
  <path d="M 359407 9145 C 368551,9145 374949,15547 374949,24692 L 374949 360321 C 374949,368548 368551,375863 359407,375863 L 24692 375863 C 15548,374952 9144,368548 9144,359404 L 9144 24692 C 9144,15547 15548,9145 24692,9145 L 359407 9145 Z M 359407 0 L 24692 0 C 10973,0 0,10974 0,24692 L 0 360321 C 0,373123 10973,384096 24692,384096 L 360318 384096 C 374038,384096 385011,373123 385011,359404 L 385011 24692 C 384093,10974 373120,0 359407,0 Z" fill="#FFFFFF"/>
  <path d="M 0 48470 L 13713 48470 L 13713 12804 L 118885 12804 L 118885 102426 L 66761 102426 L 66761 116144 L 123460 116144 C 128946,116144 133515,111571 133515,106998 L 133515 0 L 0 0 L 0 48470 Z" fill="#2D5967" transform="translate(181989,104254)"/>
  <path d="M 132604 10060 C 132604,5487 128946,914 124378,0 L 123460 0 L 10062 0 L 9150 0 C 5486,914 1829,3658 918,7316 L 0 8230 L 0 16461 L 131693 16461 L 131693 10060 L 132604 10060 Z" fill="#2D5967" transform="translate(181071,76820)"/>
  <path d="M 11890 12804 L 28349 12804 L 33836 22863 L 70418 22863 L 70418 54871 L 42069 54871 L 42069 64016 L 42069 69503 L 84138 69503 L 84138 10060 L 42986 10060 L 40240 4573 C 38411,1829 35665,0 32925,0 L 8233 0 C 3658,0 0,3658 0,8231 L 0 25606 L 11890 25606 L 11890 12804 Z" fill="#2D5967" transform="translate(207592,128032)"/>
  <path d="M 0 0 L 0 147236 C 0,152722 4575,158209 10979,158209 L 165529 158209 C 171015,158209 176502,153640 176502,147236 L 176502 0 L 0 0 Z M 162789 143578 L 13719 143578 L 13719 13717 L 162789 13717 L 162789 143578 Z" fill="#2D5967" transform="translate(61268,192051)"/>
  <path d="M 176502 18291 L 176502 10974 C 176502,8231 176502,6401 175591,4573 C 173762,1829 171015,0 168275,0 L 167358 0 L 10062 0 L 9151 0 C 3658,914 0,5487 0,10974 L 0 18291 L 176502 18291 Z" fill="#2D5967" transform="translate(61268,163698)"/>
  <path d="M 911 25606 L 10055 34752 L 19199 25606 L 19199 48470 L 911 48470 L 911 62187 L 32918 62187 L 32918 25606 L 42980 34752 L 52124 25606 L 26521 0 L 911 24692 L 0 25606 L 911 25606 Z" fill="#2D5967" transform="translate(246920,231372)"/>
  <path d="M 0 312766 C 0,321910 6404,328314 15548,328314 L 351174 328314 C 359401,328314 366723,321910 366723,312766 L 366723 0 L 0 0 L 0 312766 Z M 13719 13718 L 352086 13718 L 352086 313677 C 352086,314595 351174,315506 350257,315506 L 15548 315506 C 14631,315506 13719,314595 13719,313677 L 13719 13718 Z" fill="#2D5967" transform="translate(9144,46644)"/>
  <path d="M 350257 0 L 15548 0 C 6404,0 0,6401 0,15547 L 0 27435 L 365805 27435 L 365805 15547 C 365805,6401 359407,0 350257,0 Z" fill="#2D5967" transform="translate(9144,9146)"/>
  <path d="M 117973 15547 L 59445 15547 L 53042 5487 C 51213,1829 47555,0 42980,0 L 10973 0 C 4575,0 0,4573 0,10974 L 0 108830 L 128946 108830 L 128946 26521 C 128946,21034 124371,15547 117973,15547 Z M 115227 95110 L 13719 95110 L 13719 13718 L 42069 13718 L 52130 29265 L 115227 29265 L 115227 95110 Z" fill="#2D5967" transform="translate(85049,216743)"/>
</svg>