<svg xmlns="http://www.w3.org/2000/svg" viewBox="0 0 385010 385010" width="40" height="40">
  <path d="M 0 375845 L 0 247507 L 14952 247507 L 14952 20167 C 14952,9166 23743,0 34331,0 L 356777 0 C 367364,0 376156,9166 376156,20167 L 376156 356594 C 376156,367593 367364,376762 356777,376762 L 0 376762 L 0 375845 Z" fill="#FFFFFF" transform="translate(4427,4584)"/>
  <path d="M 361204 9167 C 369161,9167 376219,15584 376219,24750 L 376219 46751 L 376219 82502 L 376219 360261 C 376219,368513 370060,375841 361204,375841 L 100424 375841 L 8791 375841 L 8791 256674 L 23806 256674 L 23806 82502 L 23806 46751 L 23806 24750 C 23806,15584 29967,9167 37860,9167 L 361204 9167 Z M 361204 0 L 37860 0 C 25539,0 14951,11000 14951,24750 L 14951 46751 L 14951 82502 L 14951 247507 L 8791 247507 L 0 247507 L 0 256674 L 0 375841 L 0 385011 L 8791 385011 L 100424 385011 L 361204 385011 C 374423,385011 385011,374012 385011,360261 L 385011 82502 L 385011 46751 L 385011 24750 C 385011,11000 374423,0 361204,0 Z" fill="#FFFFFF"/>
  <path d="M 0 199839 L 13219 199839 L 13219 13751 L 339194 13751 L 339194 314425 C 339194,315342 338297,316260 337398,316260 L 86307 316260 L 86307 329094 L 337398 329094 C 345355,329094 352413,322677 352413,313507 L 352413 0 L 0 0 L 0 199839 Z" fill="#2D5967" transform="translate(23806,46753)"/>
  <path d="M 337398 0 L 14053 0 C 6161,0 0,6417 0,15584 L 0 27501 L 352413 27501 L 352413 15584 C 352413,6417 345355,0 337398,0 Z" fill="#2D5967" transform="translate(23806,9167)"/>
  <path d="M 266042 37585 C 266042,30251 259882,23834 252823,23834 L 103953 23834 L 89836 5501 C 87205,1834 83675,0 79248,0 L 13218 0 C 6160,0 0,6417 0,13751 L 0 139337 L 13218 139337 L 13218 61419 L 82777 61419 C 87205,61419 90733,59586 93365,55918 L 107482 37585 L 252823 37585 L 252823 195256 L 44019 195256 L 44019 209006 L 266042 209006 L 266042 37585 Z M 82777 47668 C 81942,47668 82777,47668 82777,47668 L 13218 47668 L 13218 13751 L 79248 13751 L 93365 33001 L 82777 47668 Z" fill="#2D5967" transform="translate(66094,107256)"/>
  <path d="M 50244 0 L 0 0 L 0 13751 L 50244 13751 L 50244 0 Z" fill="#2D5967" transform="translate(90734,131087)"/>
  <path d="M 91633 0 L 0 0 L 0 119170 L 29068 119170 L 90734 119170 L 90734 0 L 91633 0 Z M 13219 105419 L 13219 13750 L 78414 13750 L 78414 105419 L 13219 105419 Z" fill="#2D5967" transform="translate(8791,256677)"/>
  <path d="M 29966 22918 C 31699,20167 32597,17417 32597,14667 C 32597,10084 30865,6417 28170,3667 C 25539,917 21175,0 15849,0 L 0 0 L 0 45833 L 9689 45833 L 9689 27500 L 15849 29335 L 25539 45833 L 36127 45833 L 25539 27500 C 26437,26582 29068,24751 29966,22918 Z M 21175 20167 C 19379,21084 16748,22001 13218,22001 L 8791 22001 L 8791 8250 L 13218 8250 C 16748,8250 19379,9167 21175,10084 C 22908,11000 22908,11917 22908,14667 C 22908,17417 22908,19251 21175,20167 Z" fill="#2D5967" transform="translate(38758,294259)"/>
</svg>