<svg xmlns="http://www.w3.org/2000/svg" viewBox="0 0 385010 385010" width="40" height="40">
  <path d="M 355949 0 L 19892 0 C 8907,0 0,8906 0,19892 L 0 355953 C 0,366938 8907,375845 19892,375845 L 355949 375845 C 366935,375845 375841,366938 375841,355953 L 375841 19892 C 375841,8906 366935,0 355949,0 Z" fill="#FFFFFF" transform="translate(4575,4584)"/>
  <path d="M 360537 9167 C 364592,9167 368487,10780 371362,13651 C 374230,16521 375841,20416 375841,24476 L 375841 360537 C 375841,364592 374230,368487 371362,371362 C 368487,374230 364592,375841 360537,375841 L 24474 375841 C 20418,375841 16523,374230 13648,371362 C 10780,368487 9169,364592 9169,360537 L 9169 24476 C 9169,20416 10780,16521 13648,13651 C 16523,10780 20418,9167 24474,9167 L 360537 9167 Z M 360537 0 L 24474 0 C 17993,24 11781,2610 7193,7195 C 2612,11780 25,17992 0,24476 L 0 360537 C 25,367018 2612,373229 7193,377817 C 11781,382399 17993,384985 24474,385011 L 360537 385011 C 367018,384985 373229,382399 377817,377817 C 382399,373229 384985,367018 385011,360537 L 385011 24476 C 384985,17992 382399,11780 377817,7195 C 373229,2610 367018,24 360537,0 L 360537 0 Z" fill="#FFFFFF"/>
  <path d="M 351367 0 L 15310 0 C 11249,0 7354,1613 4486,4484 C 1611,7355 0,11249 0,15309 L 0 351366 C 0,355428 1611,359323 4486,362191 C 7354,365066 11249,366676 15310,366676 L 53536 366676 C 50533,362762 48775,358033 48492,353111 L 15310 353111 C 14855,353086 14425,352900 14104,352572 C 13777,352251 13591,351822 13565,351366 L 13565 15309 C 13591,14854 13777,14424 14104,14102 C 14425,13780 14855,13589 15310,13567 L 351367 13567 C 351823,13589 352253,13780 352573,14102 C 352894,14424 353087,14854 353112,15309 L 353112 351366 C 353087,351822 352894,352251 352573,352572 C 352253,352900 351823,353086 351367,353111 L 318186 353111 C 317903,358033 316145,362762 313142,366676 L 351367 366676 C 355429,366676 359324,365066 362192,362191 C 365061,359323 366678,355428 366678,351366 L 366678 15309 C 366678,11249 365061,7355 362192,4484 C 359324,1613 355429,0 351367,0 Z" fill="#2D5967" transform="translate(9169,9171)"/>
  <path d="M 0 0 L 0 70402 C 2702,64713 7399,60212 13199,57752 L 13199 13200 L 68199 13200 L 68199 55643 L 81770 55643 L 81770 0 L 0 0 Z" fill="#2D5967" transform="translate(60138,60136)"/>
  <path d="M 0 0 L 0 56010 L 13565 56010 L 13565 13567 L 67833 13567 L 67833 56010 L 81398 56010 L 81398 0 L 0 0 Z" fill="#2D5967" transform="translate(151796,60136)"/>
  <path d="M 0 0 L 0 56010 L 13199 56010 L 13199 13200 L 68198 13200 L 68198 57385 C 74134,59770 78972,64280 81770,70035 L 81770 0 L 0 0 Z" fill="#2D5967" transform="translate(243474,60136)"/>
  <path d="M 249519 234215 L 249519 15218 C 249500,11173 247876,7303 245008,4451 C 242140,1600 238257,0 234215,0 L 15304 0 C 11262,0 7380,1600 4511,4451 C 1643,7303 20,11173 0,15218 L 0 234215 C 0,238277 1611,242172 4479,245040 C 7354,247908 11249,249525 15304,249525 L 35658 249525 C 32726,245566 30981,240863 30615,235954 L 15304 235954 C 14849,235935 14419,235742 14098,235421 C 13777,235100 13584,234670 13565,234215 L 13565 15218 C 13591,14772 13783,14352 14104,14045 C 14432,13738 14862,13567 15304,13567 L 234215 13567 C 234658,13567 235088,13738 235415,14045 C 235736,14352 235928,14772 235954,15218 L 235954 234215 C 235934,234670 235742,235100 235421,235421 C 235100,235742 234664,235935 234215,235954 L 218904 235954 C 218538,240863 216793,245566 213861,249525 L 234215 249525 C 236224,249525 238213,249128 240073,248358 C 241928,247588 243616,246465 245040,245040 C 246458,243616 247588,241928 248358,240073 C 249128,238219 249519,236223 249519,234215 Z" fill="#2D5967" transform="translate(67742,126322)"/>
  <path d="M 0 0 L 0 35567 C 3953,32638 8657,30890 13565,30526 L 13565 13566 L 31898 13566 L 31898 30526 L 45470 30526 L 45470 0 L 0 0 Z" fill="#2D5967" transform="translate(108534,167117)"/>
  <path d="M 0 0 L 0 30526 L 13662 30526 L 13662 13566 L 31808 13566 L 31808 30526 L 45470 30526 L 45470 0 L 0 0 Z" fill="#2D5967" transform="translate(169777,167117)"/>
  <path d="M 0 0 L 0 30526 L 13565 30526 L 13565 13566 L 31898 13566 L 31898 30526 C 36807,30890 41511,32638 45463,35567 L 45463 0 L 0 0 Z" fill="#2D5967" transform="translate(231109,167117)"/>
  <path d="M 168121 152719 L 168121 15217 C 168121,13211 167723,11225 166953,9373 C 166183,7520 165054,5839 163629,4425 C 162212,3010 160524,1891 158663,1132 C 156808,372 154819,-12 152811,0 L 15311 0 C 13302,-12 11313,372 9459,1132 C 7598,1891 5910,3010 4492,4425 C 3067,5839 1938,7520 1168,9373 C 398,11225 0,13211 0,15217 L 0 152719 C 0,156781 1611,160676 4486,163544 C 7354,166419 11249,168030 15311,168030 L 152811 168030 C 156873,168030 160768,166419 163636,163544 C 166511,160676 168121,156781 168121,152719 Z M 13565 152719 L 13565 15217 C 13591,14771 13783,14352 14111,14044 C 14432,13737 14862,13567 15311,13567 L 152811 13567 C 153260,13567 153690,13737 154011,14044 C 154338,14352 154531,14771 154556,15217 L 154556 152719 C 154531,153175 154345,153605 154017,153926 C 153696,154253 153266,154439 152811,154465 L 15311 154465 C 14855,154439 14425,154253 14105,153926 C 13777,153605 13591,153175 13565,152719 Z" fill="#2D5967" transform="translate(108451,207817)"/>
  <path d="M 110646 0 L 0 0 L 0 29703 L 110646 29703 L 110646 0 Z" fill="#2D5967" transform="translate(137506,317082)"/>
  <path d="M 29704 0 L 0 0 L 0 29700 L 29704 29700 L 29704 0 Z" fill="#2D5967" transform="translate(137506,236872)"/>
  <path d="M 29697 0 L 0 0 L 0 29700 L 29697 29700 L 29697 0 Z" fill="#2D5967" transform="translate(177657,236872)"/>
  <path d="M 29704 0 L 0 0 L 0 29701 L 29704 29701 L 29704 0 Z" fill="#2D5967" transform="translate(137506,276936)"/>
  <path d="M 29697 0 L 0 0 L 0 29701 L 29697 29701 L 29697 0 Z" fill="#2D5967" transform="translate(177657,276936)"/>
  <path d="M 29704 0 L 0 0 L 0 29700 L 29704 29700 L 29704 0 Z" fill="#2D5967" transform="translate(217717,236872)"/>
  <path d="M 29704 0 L 0 0 L 0 29701 L 29704 29701 L 29704 0 Z" fill="#2D5967" transform="translate(217717,276936)"/>
</svg>