<svg xmlns="http://www.w3.org/2000/svg" viewBox="0 0 385010 385010" width="40" height="40">
  <path d="M 279922 326145 L 295881 310417 L 315375 329738 C 312834,304845 304672,268896 280371,243283 C 260922,223522 234414,212128 206565,211558 C 206565,213445 206565,215243 206565,217131 C 204639,256851 194520,295759 176823,331445 C 157777,363440 138553,370094 125680,370094 C 123338,370100 121002,369889 118699,369465 C 82424,362811 60030,308260 51508,259460 C 47773,238927 45707,218130 45341,197269 L 0 197269 L 0 174890 L 45341 174890 C 45848,153260 48152,131708 52233,110452 C 64111,44038 92582,2607 126495,2607 C 146266,2607 181719,16896 200757,112700 C 203298,127125 205050,141676 206019,156287 C 206019,158175 206019,159972 206019,161859 C 234362,161278 261339,149655 281096,129505 C 305397,103622 313110,67583 315375,42779 L 295881 62191 L 279922 46464 L 326797 0 L 373678 46464 L 358175 62191 L 338405 43049 C 336140,70639 327522,112879 298056,144334 C 285241,158019 269328,168492 251630,174890 L 329794 174890 L 311653 157725 L 327163 141548 L 374134 185855 L 327342 232139 L 311384 216411 L 330968 197269 L 250270 197269 C 267987,203474 283958,213762 296875,227286 C 326617,258741 335595,301340 338136,329110 L 358175 309968 L 373678 326145 L 326797 372609 L 279922 326145 Z" fill="#FFFFFF" transform="translate(4530,6382)"/>
  <path d="M 331327 12672 L 340401 21659 L 349468 30107 L 371773 52845 L 362706 61832 L 348556 48620 L 339490 39634 C 338495,65067 332149,113508 299686,148108 C 288187,159940 274436,169399 259234,175939 C 244026,182479 227670,185971 211095,186214 L 345656 186214 L 322446 164375 L 331513 154669 L 371773 192326 L 331873 232229 L 322356 222792 L 346201 199156 L 207104 199156 C 223999,199060 240734,202346 256314,208817 C 271901,215288 285999,224810 297780,236812 C 330333,271233 337224,319853 338495,345650 L 347562 336210 L 362706 322639 L 371773 332527 L 349192 354993 L 340125 363983 L 331058 372966 L 321266 362186 L 315465 356520 L 290888 332527 L 300411 323088 L 314464 337019 L 325347 347806 C 324256,324256 318000,277973 288257,246518 C 277618,235816 264900,227354 250879,221641 C 236852,215927 221811,213078 206648,213266 C 206648,216561 206468,219886 206109,223241 C 204486,262410 194764,300831 177541,336121 C 160408,364791 143359,372068 130576,372068 C 128504,372081 126444,371901 124410,371529 C 90041,365240 68731,310327 60934,265211 C 56892,243413 54710,221317 54408,199156 L 9067 199156 L 9067 185765 L 54408 185765 C 54518,162879 56699,140050 60934,117552 C 72542,53923 99743,13480 131026,13211 C 149159,13211 182078,27231 200488,119709 C 203029,133890 204755,148203 205653,162578 C 205653,165813 206109,169138 206289,172554 C 221676,172694 236936,169749 251149,163895 C 265356,158042 278228,149401 288983,138492 C 318814,106678 324346,60304 325257,37117 L 314829 47902 L 300411 62281 L 290888 53294 L 315555 28310 L 320451 23457 L 331327 12672 Z M 331327 0 L 324891 6381 L 314105 17166 L 309112 22019 L 284452 46464 L 278010 52845 L 284452 59136 L 293975 68122 L 300411 74503 L 306847 68122 L 314194 60843 C 310999,87148 300052,111936 282726,132111 C 264887,150354 240766,161264 215176,162668 L 215176 161769 C 214175,147071 212423,132432 209914,117912 C 191055,23996 156776,4224 131391,4224 L 130666 4224 C 94392,4224 64739,46374 52323,115934 C 48537,136014 46349,156358 45790,176778 L 0 176778 L 0 208143 L 45790 208143 C 46278,227802 48312,247393 51867,266739 C 60934,316888 83785,373146 122684,380249 C 125257,380711 127868,380949 130480,380968 C 144539,380968 165394,373954 184888,340612 C 202849,304128 212975,264345 214631,223781 C 214592,223452 214592,223120 214631,222792 C 239733,224173 263392,234855 280917,252720 C 298556,272659 309933,297274 313649,323537 L 306847 316798 L 300411 310417 L 293975 316798 L 284452 325783 L 278010 332168 L 284452 338546 L 309112 362905 L 314829 368654 L 324891 378632 L 331327 385011 L 337770 378632 L 346837 369642 L 355904 360652 L 378575 338277 L 385011 331898 L 378575 325514 L 369052 316079 L 362616 309788 L 356263 316169 L 346471 325783 C 342749,290634 328151,257483 304672,230881 C 296189,221879 286377,214212 275565,208143 L 324346 208143 L 315914 216411 L 309568 222792 L 315914 229083 L 324981 238520 L 331423 244901 L 337860 238520 L 378029 198707 L 384645 192146 L 377939 185855 L 337590 147749 L 330968 141548 L 324711 148019 L 315644 157725 L 309388 164195 L 315914 170397 L 322716 176778 L 276656 176778 C 287545,170640 297427,162880 305942,153771 C 329004,127210 343166,94203 346471,59315 L 355538 68303 L 361891 74684 L 368327 68303 L 377849 59315 L 384285 53024 L 377849 46643 L 355634 24086 L 347106 15638 L 338039 6650 L 331327 0 Z" fill="#FFFFFF"/>
  <path d="M 22491 44936 L 110081 44936 L 86236 68572 L 95752 78008 L 135652 38106 L 95303 0 L 86236 9706 L 109446 31545 L 24031 31545 C 16241,34548 8201,36863 0,38465 C 7655,40024 15176,42188 22491,44936 Z" fill="#2D5967" transform="translate(236120,154223)"/>
  <path d="M 339220 323446 L 330153 332885 C 328882,307092 321991,258472 289438,224050 C 277657,212048 263552,202526 247973,196056 C 232392,189585 215651,186299 198762,186395 C 198762,181901 198762,177407 198762,173003 C 215818,173020 232700,169631 248402,163037 C 264105,156444 278311,146782 290163,134628 C 322626,100028 328972,51587 329967,26153 L 339034 35140 L 353632 49250 L 362706 40263 L 340215 17435 L 331148 8987 L 322081 0 L 311198 10785 L 306302 15638 L 281821 39813 L 291338 48801 L 305756 34421 L 316460 24266 C 315644,47453 310113,93826 280185,125641 C 269430,136550 256558,145191 242351,151044 C 228138,156898 212879,159842 197491,159702 C 197491,156287 197491,152962 196856,149727 C 195957,135351 194231,121038 191690,106858 C 173370,13930 140458,180 122318,180 C 90676,450 63469,40892 52137,104521 C 47812,127011 45540,149840 45335,172734 L 0 172734 L 0 186125 L 45335 186125 C 45585,208251 47709,230316 51681,252091 C 59574,297027 80884,352117 115157,358411 C 117191,358777 119257,358957 121323,358950 C 134106,358950 151155,351667 168295,322997 C 185517,287709 195239,249289 196856,210120 C 196856,206825 197036,203500 197401,200145 C 212558,199957 227605,202806 241626,208520 C 255647,214234 268365,222695 279011,233397 C 308753,264853 315279,311139 316094,334682 L 305217 323895 L 291338 309611 L 281821 319493 L 306391 343941 L 312199 349601 L 322260 359579 L 331327 350589 L 340394 341606 L 362706 319493 L 353632 309611 L 339220 323446 Z M 154145 314732 C 145804,328663 132931,344570 118692,341696 C 98383,338006 77342,299004 68641,248855 C 64874,228089 62904,207043 62744,185945 L 144353 185945 L 120508 209581 L 129575 219018 L 169745 179115 L 127490 139751 L 118423 149367 L 143269 172913 L 62385 172913 C 62590,151087 64688,129319 68641,107847 C 79793,45476 104184,16986 122138,16896 C 138822,16896 161403,41251 175096,109824 C 186159,171296 183708,258382 154145,314732 Z" fill="#2D5967" transform="translate(9067,13033)"/>
</svg>