<svg xmlns="http://www.w3.org/2000/svg" viewBox="0 0 385010 338173" width="40" height="36">
  <path d="M 21929 166196 C 18688,166171 15583,164868 13298,162564 C 11014,160267 9737,157155 9737,153914 L 9737 82045 L 567 56378 C -376,53382 -139,50141 1247,47324 C 2634,44507 5046,42332 7992,41247 L 120196 731 C 121525,269 122917,19 124322,0 C 126838,6 129295,789 131355,2227 C 133422,3670 134994,5704 135873,8066 L 147879 41985 L 65377 71407 L 153198 71407 L 153198 153914 C 153198,157168 151902,160293 149598,162596 C 147295,164900 144170,166196 140916,166196 L 21929 166196 Z" fill="#FFFFFF" transform="translate(110444,4588)"/>
  <path d="M 128666 9170 C 130232,9170 131759,9657 133036,10562 C 134319,11461 135288,12737 135814,14213 L 146447 43731 L 43502 80397 L 153506 80397 L 153506 158316 C 153486,160351 152665,162295 151227,163732 C 149784,165176 147839,165991 145805,166017 L 26638 166017 C 24610,165991 22672,165169 21248,163726 C 19830,162288 19028,160344 19028,158316 L 19028 85806 L 9864 59497 C 9512,58547 9358,57533 9409,56526 C 9454,55512 9704,54524 10140,53613 C 10577,52695 11186,51880 11944,51206 C 12701,50533 13580,50019 14536,49685 L 126099 9625 C 126927,9343 127793,9189 128666,9170 Z M 128666 0 C 126760,26 124867,366 123070,1014 L 10776 41068 C 6714,42640 3428,45726 1612,49685 C -287,53715 -518,58329 971,62519 L 10134 87365 L 10134 158496 C 10134,162956 11899,167236 15043,170393 C 18187,173556 22454,175340 26914,175366 L 146081 175366 C 150547,175340 154821,173556 157984,170399 C 161142,167242 162925,162962 162951,158496 L 162951 71413 L 96396 71413 L 149476 52438 L 158094 49320 L 155065 40702 L 144522 11184 C 143354,7918 141204,5089 138362,3087 C 135525,1084 132138,6 128666,0 L 128666 0 Z" fill="#FFFFFF" transform="translate(106101,0)"/>
  <path d="M 371259 212397 C 364554,212384 358066,210017 352926,205704 C 352188,204890 351277,204248 350263,203824 C 349256,203394 348159,203195 347061,203228 C 345983,203202 344918,203401 343924,203805 C 342929,204216 342031,204832 341286,205615 C 336185,209991 329678,212397 322953,212397 C 316248,212384 309754,210017 304620,205704 C 302054,203690 301316,203228 298845,203228 C 296368,203228 295637,203228 293070,205615 C 287943,209959 281456,212359 274737,212397 C 268006,212397 261506,209991 256398,205615 C 254845,204094 252753,203247 250578,203247 C 248402,203247 246317,204094 244758,205615 C 239656,209991 233150,212397 226425,212397 C 219713,212397 213219,210029 208092,205704 C 205435,203690 204794,203228 202227,203228 C 199660,203228 199018,203228 196452,205615 C 191344,209991 184844,212397 178112,212397 C 171407,212384 164919,210017 159780,205704 C 157213,203690 156481,203228 154004,203228 C 151534,203228 150796,203228 148229,205615 C 142993,209972 136390,212365 129575,212365 C 122761,212365 116158,209972 110922,205615 C 110184,204800 109273,204158 108259,203728 C 107245,203305 106154,203099 105057,203138 C 103979,203106 102907,203305 101912,203715 C 100918,204126 100019,204742 99281,205518 C 94174,209901 87673,212308 80949,212301 C 74236,212308 67743,209940 62609,205615 C 59953,203593 59311,203138 56744,203138 C 55673,203106 54601,203305 53606,203715 C 52612,204126 51713,204742 50969,205518 C 45868,209901 39361,212308 32636,212301 C 25911,212308 19405,209901 14303,205518 C 11736,203593 11095,203138 8528,203138 L 0 203138 L 0 157302 L 4588 157302 C 11294,157315 17781,159683 22921,163995 C 25488,165920 26219,166472 28786,166472 C 31353,166472 31995,165920 34561,163995 C 39797,159670 46381,157309 53170,157309 C 59959,157309 66543,159670 71779,163995 C 74435,165920 75077,166472 77644,166472 C 80211,166472 80852,165920 83419,163995 L 86814 161608 L 86814 142088 L 0 142088 L 0 96253 L 12192 96253 C 68756,96253 87090,32629 87090,10722 L 87090 0 L 108445 0 L 108445 10722 C 108772,28940 114066,46721 123755,62147 C 130852,72869 140644,81539 152150,87282 C 163649,93025 176463,95643 189297,94873 C 202079,95457 214778,92588 226065,86569 C 237359,80557 246824,71612 253465,60684 C 262500,45598 267582,28478 268224,10908 L 268224 0 L 289676 0 L 289676 10722 C 289676,32629 308008,96253 364477,96253 L 375847 96253 L 375847 142088 L 290317 142088 L 290317 158310 C 294835,157161 299558,157084 304113,158092 C 308663,159093 312917,161146 316536,164085 C 319103,166010 319835,166562 322312,166562 C 324789,166562 325610,166010 328177,164085 C 333419,159766 339996,157399 346785,157399 C 353575,157399 360158,159766 365394,164085 C 368051,166010 368693,166562 371259,166562 L 375847 166562 L 375847 212397 L 371259 212397 Z" fill="#FFFFFF" transform="translate(4582,121195)"/>
  <path d="M 290317 9439 L 290317 15580 C 290317,38680 309844,105691 369700,105691 L 375841 105691 L 375841 142364 L 290317 142364 L 290317 169860 C 294013,167717 298242,166671 302509,166838 C 308323,166774 313957,168827 318365,172613 C 320694,174782 323755,175995 326938,175995 C 330121,175995 333182,174782 335511,172613 C 339919,168827 345553,166774 351367,166838 C 357206,166774 362872,168827 367319,172613 C 369597,174827 372664,176046 375841,176001 L 375841 212673 C 370014,212731 364374,210639 359985,206802 C 357662,204607 354563,203427 351367,203504 C 349801,203465 348242,203741 346779,204306 C 345316,204871 343975,205724 342845,206802 C 338411,210594 332771,212680 326938,212680 C 321105,212680 315465,210594 311031,206802 C 309901,205724 308560,204871 307097,204306 C 305634,203741 304075,203465 302509,203504 C 299314,203427 296214,204607 293891,206802 C 289470,210588 283849,212667 278035,212667 C 272215,212667 266594,210588 262173,206802 C 259831,204672 256770,203491 253600,203491 C 250430,203491 247376,204672 245034,206802 C 240638,210626 234998,212712 229171,212673 C 223319,212712 217653,210626 213225,206802 C 210889,204678 207854,203504 204697,203504 C 201540,203504 198505,204678 196169,206802 C 191742,210594 186101,212680 180268,212680 C 174435,212680 168795,210594 164361,206802 C 163232,205724 161891,204871 160428,204306 C 158965,203741 157405,203465 155840,203504 C 152644,203427 149544,204607 147222,206802 C 142800,210588 137179,212667 131359,212667 C 125546,212667 119924,210588 115503,206802 C 113155,204672 110100,203491 106930,203491 C 103760,203491 100706,204672 98364,206802 C 93943,210588 88321,212667 82501,212667 C 76688,212667 71060,210588 66645,206802 C 64322,204607 61223,203427 58028,203504 C 56455,203465 54896,203741 53433,204306 C 51970,204871 50635,205724 49499,206802 C 45066,210594 39431,212680 33599,212680 C 27766,212680 22125,210594 17691,206802 C 16555,205724 15221,204871 13758,204306 C 12295,203741 10735,203465 9170,203504 L 9170 166838 C 14983,166754 20624,168808 25026,172613 C 27349,174782 30416,175995 33599,175995 C 36781,175995 39842,174782 42165,172613 C 46580,168827 52214,166774 58028,166838 C 63867,166774 69533,168827 73980,172613 C 75103,173717 76431,174589 77901,175167 C 79364,175751 80929,176033 82501,176001 C 85684,176046 88745,174827 91029,172613 C 92672,171336 94417,170200 96253,169218 L 96253 142364 L 9170 142364 L 9170 105691 L 16774 105691 C 76726,105691 96253,38680 96253,15580 L 96253 9439 L 108445 9439 L 108445 15580 C 108907,34625 114515,53189 124673,69302 C 132161,80685 142518,89900 154697,96015 C 166883,102130 180455,104928 194065,104132 C 207732,104826 221330,101777 233400,95315 C 245463,88860 255538,79229 262539,67467 C 272068,51688 277400,33733 278035,15310 L 278035 9163 L 290317 9163 M 299480 0 L 268866 0 L 268866 15310 C 268192,32007 263334,48274 254749,62609 C 248563,73023 239624,81526 228921,87192 C 218211,92852 206154,95444 194065,94693 C 166010,94693 145848,84702 132373,63982 C 123107,49409 118006,32578 117614,15310 L 117614 276 L 87083 276 L 87083 15580 C 87083,36300 69758,96528 16774,96528 L 0 96528 L 0 151527 L 87083 151527 L 87083 164181 L 85530 165278 C 83509,166838 83509,166838 82501,166838 C 81494,166838 81494,166838 79479,165278 C 73428,160357 65869,157674 58072,157674 C 50276,157674 42717,160357 36666,165278 C 34651,166838 34651,166838 33644,166838 C 32636,166838 32636,166838 30525,165278 C 24532,160293 16966,157598 9170,157668 L 0 157668 L 0 212673 L 9170 212673 C 10177,212673 10177,212673 12192,214136 C 18185,219199 25802,221933 33644,221837 C 41453,221920 49037,219186 54999,214136 C 57020,212673 57020,212673 58028,212673 C 59035,212673 59035,212673 61050,214136 C 67050,219186 74660,221920 82501,221837 C 90317,221933 97908,219199 103863,214136 C 105878,212673 105878,212673 106885,212673 C 107893,212673 107989,212673 110004,214136 C 116010,219116 123563,221843 131359,221843 C 139162,221843 146715,219116 152721,214136 C 154832,212673 154832,212673 155840,212673 C 156847,212673 156847,212673 158862,214136 C 164887,219109 172459,221824 180268,221824 C 188078,221824 195643,219109 201675,214136 C 203690,212673 203690,212673 204697,212673 C 205705,212673 205705,212673 207720,214136 C 213751,219109 221317,221824 229126,221824 C 236936,221824 244507,219109 250533,214136 C 252548,212673 252548,212673 253555,212673 C 254562,212673 254562,212673 256674,214136 C 262680,219116 270233,221843 278035,221843 C 285832,221843 293385,219116 299391,214136 C 301502,212673 301502,212673 302509,212673 C 303517,212673 303517,212673 305532,214136 C 311557,219109 319129,221824 326938,221824 C 334747,221824 342319,219109 348345,214136 C 350360,212673 350360,212673 351367,212673 C 352374,212673 352374,212673 354486,214136 C 360440,219199 368025,221933 375841,221837 L 385011 221837 L 385011 166838 L 375841 166838 C 374833,166838 374833,166838 372819,165278 C 366768,160357 359208,157674 351412,157674 C 343616,157674 336056,160357 330012,165278 C 327991,166838 327991,166838 326893,166838 C 325789,166838 325886,166838 323865,165278 C 317865,160306 310299,157610 302509,157668 L 299480 157668 L 299480 151437 L 385011 151437 L 385011 96432 L 369700 96432 C 316716,96432 299480,36210 299480,15490 L 299480 276 L 299480 0 Z" fill="#FFFFFF" transform="translate(0,116331)"/>
  <path d="M 9904 76644 L 9904 149340 C 9904,151368 10700,153312 12125,154750 C 13549,156193 15487,157015 17515,157041 L 136682 157041 C 138716,157015 140660,156200 142098,154756 C 143542,153319 144356,151375 144382,149340 L 144382 71421 L 34378 71421 L 137324 34755 L 127057 5051 C 126729,4108 126216,3235 125549,2491 C 124875,1746 124067,1143 123162,720 C 122257,290 121275,46 120274,7 C 119273,-37 118278,123 117342,469 L 5137 40530 C 4181,40857 3295,41371 2544,42044 C 1787,42718 1178,43539 741,44451 C 305,45362 54,46356 10,47364 C -42,48378 112,49385 459,50335 L 9904 76644 Z M 132100 144759 L 22096 144759 L 22096 110011 L 132100 110011 L 132100 144759 Z M 132100 83702 L 132100 97729 L 117983 83702 L 132100 83702 Z M 100748 83702 L 115230 98192 L 106067 98192 L 91674 83702 L 100748 83702 Z M 74439 83702 L 88921 98192 L 79758 98192 L 65269 83702 L 74439 83702 Z M 48130 83702 L 62612 98192 L 53449 98192 L 39146 83702 L 48130 83702 Z M 36303 98192 L 22096 98192 L 22096 83978 L 36303 98192 Z M 117245 13855 L 122013 27510 L 108634 32278 L 117245 13855 Z M 92682 22197 L 101203 19168 L 92040 37501 L 83512 40530 L 92682 22197 Z M 67932 31360 L 76453 28338 L 67290 46671 L 59314 49693 L 67932 31360 Z M 43182 40530 L 51614 36680 L 42444 55013 L 34013 58035 L 43182 40530 Z M 26864 45843 L 18336 64182 L 13479 50521 L 26864 45843 Z" fill="#2C5967" transform="translate(114859,9156)"/>
  <path d="M 0 12192 L 87083 12192 L 87083 39053 C 85248,40035 83502,41164 81860,42441 C 79575,44655 76508,45881 73332,45836 C 71760,45868 70194,45579 68725,45001 C 67262,44417 65933,43545 64810,42441 C 60363,38655 54697,36608 48858,36666 C 43044,36602 37410,38655 32996,42441 C 30673,44616 27612,45823 24429,45823 C 21246,45823 18179,44616 15856,42441 C 11454,38642 5814,36589 0,36666 L 0 48858 C 3177,48820 6244,50039 8522,52252 C 12981,55987 18609,58041 24429,58041 C 30243,58041 35877,55987 40330,52252 C 42614,50039 45675,48820 48858,48858 C 52066,48813 55159,50032 57476,52252 C 61916,55981 67531,58028 73332,58028 C 79133,58028 84747,55981 89194,52252 C 91517,50077 94578,48871 97761,48871 C 100943,48871 104011,50077 106334,52252 C 110774,55981 116389,58028 122190,58028 C 127990,58028 133612,55981 138052,52252 C 140368,50032 143462,48813 146670,48858 C 149846,48820 152913,50039 155192,52252 C 159625,55993 165247,58041 171054,58028 C 176880,58041 182534,55993 187000,52252 C 189303,50064 192351,48845 195528,48845 C 198698,48845 201752,50064 204056,52252 C 208522,55993 214175,58041 220001,58028 C 225809,58041 231430,55993 235864,52252 C 238187,50077 241254,48871 244430,48871 C 247613,48871 250680,50077 253003,52252 C 257444,55981 263065,58028 268866,58028 C 274667,58028 280281,55981 284722,52252 C 287038,50032 290131,48813 293340,48858 C 296516,48820 299583,50039 301861,52252 C 306321,55987 311955,58041 317769,58041 C 323582,58041 329216,55987 333676,52252 C 335954,50039 339021,48820 342197,48858 C 345406,48813 348499,50032 350815,52252 C 355236,56019 360864,58066 366671,58028 L 366671 45836 C 363495,45881 360428,44655 358150,42441 C 353703,38655 348037,36608 342197,36666 C 336384,36602 330750,38655 326342,42441 C 324012,44616 320951,45823 317769,45823 C 314586,45823 311525,44616 309196,42441 C 304787,38655 299153,36602 293340,36666 C 289053,36557 284825,37667 281148,39875 L 281148 12378 L 366671 12378 L 366671 0 L 0 0 L 0 12192 Z M 99275 12192 L 268866 12192 L 268866 45836 C 265683,45881 262616,44655 260338,42441 C 255878,38707 250251,36660 244430,36660 C 238617,36660 232983,38707 228530,42441 C 226245,44655 223184,45881 220001,45836 C 216800,45881 213700,44661 211384,42441 C 206943,38713 201328,36666 195528,36666 C 189727,36666 184112,38713 179672,42441 C 177342,44616 174281,45823 171099,45823 C 167916,45823 164855,44616 162526,42441 C 158118,38655 152477,36602 146670,36666 C 140831,36608 135165,38655 130718,42441 C 129595,43545 128260,44417 126797,45001 C 125334,45579 123768,45868 122190,45836 C 119013,45881 115946,44655 113668,42441 C 109619,39027 104563,37025 99275,36762 L 99275 12192 Z" fill="#2C5967" transform="translate(9170,246503)"/>
  <path d="M 360530 96253 C 300674,96253 281148,29242 281148,6141 L 281148 0 L 268866 0 L 268866 6141 C 268231,24564 262892,42518 253369,58297 C 246368,70059 236294,79691 224230,86152 C 212160,92608 198563,95656 184895,94969 C 171285,95765 157713,92961 145528,86846 C 133348,80730 122992,71515 115503,60132 C 105345,44019 99737,25455 99275,6417 L 99275 269 L 87083 269 L 87083 6417 C 87083,29517 67557,96522 7604,96522 L 0 96522 L 0 108714 L 366671 108714 L 366671 96253 L 360530 96253 Z M 87083 96253 L 51149 96253 C 62635,88770 72363,78889 79659,67280 C 82380,62930 84857,58431 87083,53805 L 87083 96253 Z M 99275 96253 L 99275 56096 C 101078,59741 103067,63296 105236,66735 C 113321,79145 124423,89297 137500,96253 L 99275 96253 Z M 268866 96253 L 230730 96253 C 244341,88828 255756,77952 263822,64714 C 265657,61602 267396,58483 268866,55550 L 268866 96253 Z M 281148 96253 L 281148 53805 C 283297,58470 285781,62975 288572,67280 C 295836,78882 305532,88770 316992,96253 L 281148 96253 Z" fill="#2C5967" transform="translate(9170,125777)"/>
  <path d="M 342197 7 C 336377,-32 330737,2053 326342,5872 C 323993,8009 320938,9189 317769,9189 C 314599,9189 311544,8009 309196,5872 C 304800,2053 299160,-32 293340,7 C 287487,-32 281821,2053 277387,5872 C 275058,8002 272017,9176 268866,9176 C 265709,9176 262667,8002 260338,5872 C 255904,2086 250263,0 244430,0 C 238604,0 232964,2086 228530,5872 C 227394,6956 226059,7810 224596,8374 C 223133,8939 221574,9215 220001,9176 C 216806,9253 213713,8066 211384,5872 C 206969,2092 201341,13 195528,13 C 189714,13 184086,2092 179672,5872 C 177323,8009 174269,9189 171099,9189 C 167929,9189 164874,8009 162526,5872 C 158130,2053 152490,-32 146670,7 C 140818,-32 135152,2053 130718,5872 C 129588,6969 128253,7822 126790,8387 C 125327,8952 123762,9221 122190,9176 C 120624,9215 119065,8939 117602,8374 C 116139,7810 114804,6956 113668,5872 C 109234,2086 103594,0 97761,0 C 91928,0 86287,2086 81860,5872 C 80724,6956 79389,7810 77926,8374 C 76463,8939 74904,9215 73332,9176 C 71766,9221 70200,8952 68737,8387 C 67268,7822 65933,6969 64810,5872 C 60376,2053 54710,-32 48858,7 C 43032,-32 37391,2053 32996,5872 C 30698,8047 27637,9228 24474,9176 C 21278,9253 18179,8066 15856,5872 C 11467,2041 5827,-51 0,7 L 0 12289 C 1566,12250 3125,12526 4588,13091 C 6051,13655 7386,14509 8522,15593 C 12956,19379 18596,21465 24429,21465 C 30262,21465 35896,19379 40330,15593 C 41466,14509 42800,13655 44263,13091 C 45726,12526 47286,12250 48858,12289 C 52053,12211 55153,13398 57476,15593 C 61891,19373 67518,21452 73332,21452 C 79152,21452 84773,19373 89194,15593 C 91536,13456 94591,12276 97761,12276 C 100931,12276 103985,13456 106334,15593 C 110748,19373 116376,21452 122190,21452 C 128010,21452 133631,19373 138052,15593 C 140375,13398 143474,12211 146670,12289 C 148236,12250 149795,12526 151258,13091 C 152721,13655 154062,14509 155192,15593 C 159587,19411 165227,21497 171054,21458 C 176906,21497 182572,19411 187000,15593 C 189335,13463 192371,12289 195528,12289 C 198685,12289 201720,13463 204056,15593 C 208483,19411 214149,21497 220001,21458 C 225828,21497 231468,19411 235864,15593 C 238206,13456 241261,12276 244430,12276 C 247600,12276 250661,13456 253003,15593 C 257424,19373 263046,21452 268866,21452 C 274679,21452 280301,19373 284722,15593 C 287045,13398 290144,12211 293340,12289 C 294905,12250 296465,12526 297928,13091 C 299391,13655 300732,14509 301861,15593 C 306295,19379 311936,21465 317769,21465 C 323602,21465 329242,19379 333676,15593 C 334805,14509 336146,13655 337609,13091 C 339072,12526 340632,12250 342197,12289 C 345393,12211 348492,13398 350815,15593 C 355204,19424 360845,21516 366671,21458 L 366671 9176 C 365106,9215 363546,8939 362083,8374 C 360620,7810 359286,6956 358150,5872 C 353716,2053 348050,-32 342197,7 Z" fill="#2C5967" transform="translate(9170,307546)"/>
</svg>