<svg xmlns="http://www.w3.org/2000/svg" viewBox="0 0 385010 339176" width="40" height="36">
  <path d="M 371259 329646 C 364554,329633 358066,327266 352926,322954 C 350270,321028 349628,320476 347061,320476 C 344495,320476 343853,321028 341286,322954 C 336031,327278 329441,329646 322632,329646 C 315824,329646 309228,327278 303979,322954 C 301412,321028 300674,320476 298203,320476 C 295727,320476 294995,321028 292428,322954 C 287263,327221 280788,329589 274096,329646 C 267383,329633 260896,327266 255756,322954 C 253190,321028 252458,320476 249891,320476 C 247325,320476 246683,321028 244116,322954 C 238880,327272 232296,329640 225507,329640 C 218718,329640 212141,327272 206898,322954 C 204242,321028 203600,320476 201034,320476 C 198467,320476 197825,321028 195258,322954 C 190003,327278 183406,329646 176605,329646 C 169796,329646 163199,327278 157951,322954 C 155384,321028 154646,320476 152176,320476 C 149699,320476 148967,321028 146400,322954 C 141235,327221 134760,329589 128061,329646 C 121355,329633 114868,327266 109728,322954 C 107161,321028 106430,320476 103863,320476 C 101296,320476 100655,321028 98088,322954 C 92948,327266 86461,329633 79755,329646 C 73043,329665 66543,327291 61422,322954 C 58759,321028 58117,320476 55550,320476 C 52984,320476 52342,321028 49776,322954 C 44642,327266 38148,329633 31443,329646 C 24737,329627 18249,327259 13110,322954 C 10543,321028 9901,320476 7334,320476 L 0 320476 L 0 274641 L 4588 274641 C 11294,274654 17781,277022 22921,281334 C 25488,283259 26219,283811 28786,283811 C 29864,283836 30929,283644 31924,283233 C 32918,282822 33817,282206 34561,281423 C 39663,277047 46169,274641 52894,274641 C 59606,274641 66100,277009 71227,281334 C 73890,283259 74532,283811 77098,283811 C 79665,283811 80307,283259 82874,281334 C 83958,280506 85087,279742 86262,279043 L 86262 259337 L 0 259337 L 0 213501 L 12192 213501 C 68757,213501 87090,149878 87090,127971 L 87090 117249 L 108445 117249 L 108445 127971 C 108804,146125 114098,163841 123755,179216 C 129768,188501 137879,196240 147433,201810 C 156988,207386 167717,210633 178754,211300 L 178754 131456 C 178754,130243 178273,129075 177413,128215 C 176553,127355 175392,126874 174172,126874 L 134478 126874 C 127573,126874 120951,124127 116074,119244 C 111191,114367 108445,107745 108445,100841 L 108445 64168 C 108470,57283 111223,50687 116106,45823 C 120983,40959 127593,38225 134478,38225 L 155288 38225 L 162167 24480 L 168307 24480 L 174358 12192 L 212584 12192 L 218724 0 L 232200 0 L 232200 97812 L 218724 97812 L 212584 85620 L 174449 85620 L 168307 73428 L 162167 73428 L 155288 59587 L 134478 59587 C 133265,59587 132097,60068 131237,60928 C 130377,61788 129896,62956 129896,64168 L 129896 100841 C 129896,102053 130377,103221 131237,104081 C 132097,104941 133265,105422 134478,105422 L 174172 105422 C 181064,105448 187661,108201 192524,113078 C 197388,117961 200116,124570 200116,131456 L 200116 211300 C 211140,210428 221798,206931 231192,201091 C 240587,195252 248447,187250 254107,177747 C 263142,162667 268224,145541 268866,127971 L 268866 117249 L 290317 117249 L 290317 127971 C 290317,149878 308650,213501 365118,213501 L 375847 213501 L 375847 259337 L 290317 259337 L 290317 275648 C 294822,274436 299557,274320 304120,275308 C 308676,276297 312937,278363 316537,281334 C 317275,282149 318186,282790 319200,283214 C 320214,283644 321304,283843 322401,283811 C 324878,283811 325610,283259 328177,281334 C 333419,277015 339996,274647 346786,274647 C 353575,274647 360158,277015 365394,281334 C 368051,283259 368693,283811 371259,283811 L 375847 283811 L 375847 329646 L 371259 329646 Z" fill="#FFFFFF" transform="translate(4581,4581)"/>
  <path d="M 232200 9170 L 232200 21452 L 232200 85620 L 232200 97812 L 226149 97812 L 220008 85620 L 181783 85620 L 175732 73338 L 169591 73338 L 163443 61050 L 163443 59587 L 139060 59587 C 136634,59587 134298,60550 132578,62269 C 130859,63989 129896,66318 129896,68750 L 129896 105422 C 129896,107848 130859,110184 132578,111903 C 134298,113623 136634,114586 139060,114586 L 178754 114586 C 181564,114586 184349,115144 186948,116222 C 189547,117300 191908,118878 193891,120874 C 195874,122870 197446,125231 198511,127836 C 199583,130435 200128,133227 200115,136037 L 200115 220829 C 212731,220617 225090,217191 236012,210870 C 246939,204550 256071,195547 262539,184715 C 272074,168936 277407,150976 278035,132553 L 278035 126412 L 290317 126412 L 290317 132553 C 290317,155653 309844,222665 369700,222665 L 375841 222665 L 375841 259330 L 290317 259330 L 290317 286833 C 294045,284812 298274,283894 302509,284176 C 308310,284157 313931,286204 318365,289952 C 320694,292120 323755,293327 326938,293327 C 330121,293327 333182,292120 335511,289952 C 339945,286204 345566,284157 351367,284176 C 357200,284163 362847,286204 367319,289952 C 369597,292165 372664,293385 375841,293339 L 375841 330012 C 370034,330050 364406,327997 359985,324237 C 357668,322016 354576,320797 351367,320842 C 348191,320797 345123,322016 342846,324237 C 338386,327971 332752,330018 326938,330018 C 321125,330018 315491,327971 311031,324237 C 308753,322016 305686,320797 302509,320842 C 299301,320797 296208,322016 293891,324237 C 289451,327965 283836,330012 278035,330012 C 272234,330012 266613,327965 262173,324237 C 259850,322061 256783,320855 253600,320855 C 250424,320855 247356,322061 245033,324237 C 240599,327978 234978,330025 229171,330012 C 223345,330025 217691,327978 213225,324237 C 210922,322048 207874,320829 204697,320829 C 201521,320829 198473,322048 196169,324237 C 191703,327978 186050,330025 180223,330012 C 174416,330025 168795,327978 164361,324237 C 162083,322016 159016,320797 155840,320842 C 152631,320797 149538,322016 147222,324237 C 142781,327965 137160,330012 131359,330012 C 125558,330012 119944,327965 115503,324237 C 113180,322061 110113,320855 106930,320855 C 103748,320855 100687,322061 98364,324237 C 93917,327965 88302,330012 82501,330012 C 76701,330012 71086,327965 66645,324237 C 64329,322016 61236,320797 58028,320842 C 54845,320797 51784,322016 49499,324237 C 45046,327971 39412,330018 33599,330018 C 27778,330018 22151,327971 17691,324237 C 15413,322016 12346,320797 9170,320842 L 9170 284176 C 14977,284131 20604,286185 25026,289952 C 27349,292120 30416,293327 33599,293327 C 36781,293327 39842,292120 42165,289952 C 46599,286204 52220,284157 58028,284176 C 63861,284163 69507,286204 73980,289952 C 75103,291055 76431,291921 77901,292505 C 79363,293089 80929,293372 82501,293339 C 85684,293385 88745,292165 91029,289952 C 92672,288707 94424,287603 96253,286647 L 96253 259330 L 9170 259330 L 9170 222665 L 16774 222665 C 76726,222665 96253,155653 96253,132553 L 96253 126412 L 108445 126412 L 108445 132553 C 108919,151624 114528,170213 124673,186365 C 131532,196901 140907,205564 151945,211576 C 162988,217595 175347,220772 187924,220829 L 187924 136037 C 187924,133605 186955,131276 185235,129556 C 183515,127836 181186,126867 178754,126867 L 139060 126867 C 136242,126867 133457,126316 130852,125238 C 128253,124159 125885,122581 123896,120585 C 121901,118596 120322,116229 119244,113629 C 118166,111024 117614,108239 117614,105422 L 117614 68750 C 117633,63078 119905,57649 123928,53645 C 127946,49641 133387,47395 139060,47395 L 163443 47395 L 163443 45836 L 169591 33643 L 175732 33643 L 181783 21362 L 220008 21362 L 226149 9170 L 232200 9170 Z M 241363 0 L 220463 0 L 217897 5044 L 214323 12282 L 176187 12282 L 173621 17415 L 170046 24570 L 163906 24570 L 161428 29607 L 157027 38315 L 138694 38315 C 130673,38411 123004,41658 117345,47350 C 111692,53042 108489,60729 108445,68750 L 108445 105422 C 108464,109478 109272,113495 110825,117242 L 87083 117242 L 87083 132553 C 87083,153363 69757,213495 16774,213495 L 0 213495 L 0 268500 L 87083 268500 L 87083 281148 L 85530 282251 C 83509,284176 83509,284176 82501,284176 C 81494,284176 81494,284176 79479,282617 C 73428,277695 65869,275007 58072,275007 C 50276,275007 42717,277695 36666,282617 C 34651,284176 34651,284176 33643,284176 C 32636,284176 32636,284176 30525,282617 C 24532,277631 16966,274936 9170,275007 L 0 275007 L 0 330012 L 9170 330012 C 10177,330012 10177,330012 12192,331565 C 18224,336551 25821,339245 33643,339175 C 41485,339130 49050,336307 54999,331199 C 57020,329640 57020,329640 58028,329640 C 59035,329640 59035,329640 61050,331199 C 67037,336307 74634,339130 82501,339175 C 90298,339252 97870,336551 103863,331565 C 105878,330012 105878,330012 106885,330012 C 107893,330012 107989,330012 110004,331565 C 116036,336480 123582,339162 131359,339162 C 139143,339162 146689,336480 152721,331565 C 154832,330012 154832,330012 155840,330012 C 156847,330012 156847,330012 158862,331565 C 164913,336486 172472,339175 180268,339175 C 188065,339175 195624,336486 201675,331565 C 203690,330012 203690,330012 204697,330012 C 205705,330012 205705,330012 207719,331565 C 213771,336486 221330,339175 229126,339175 C 236923,339175 244482,336486 250533,331565 C 252548,330012 252548,330012 253555,330012 C 254563,330012 254563,330012 256674,331565 C 262706,336480 270252,339162 278035,339162 C 285813,339162 293359,336480 299391,331565 C 301502,330012 301502,330012 302509,330012 C 303517,330012 303517,330012 305532,331565 C 311583,336486 319142,339175 326938,339175 C 334734,339175 342294,336486 348345,331565 C 350359,330012 350359,330012 351367,330012 C 352374,330012 352374,330012 354486,331565 C 360479,336551 368045,339252 375841,339175 L 385011 339175 L 385011 284176 L 375841 284176 C 374833,284176 374833,284176 372818,282617 C 366767,277695 359208,275007 351412,275007 C 343616,275007 336056,277695 330012,282617 C 327991,284176 327991,284176 326893,284176 C 325789,284176 325886,284176 323865,282617 C 317865,277644 310299,274949 302509,275007 L 299481 275007 L 299481 268776 L 385011 268776 L 385011 213771 L 369700 213771 C 316716,213771 299481,153638 299481,132829 L 299481 117242 L 268866 117242 L 268866 132553 C 268166,149275 263315,165567 254749,179948 C 249917,188193 243288,195232 235351,200552 C 227413,205872 218378,209324 208913,210658 L 208913 136037 C 208913,127997 205750,120277 200109,114547 C 194469,108817 186794,105538 178754,105422 L 139060 105422 L 139060 68750 L 157399 68750 L 161794 77458 L 164271 82591 L 170412 82591 L 173986 89746 L 176553 94783 L 214688 94783 L 218262 101938 L 220829 106975 L 241729 106975 L 241729 0 L 241363 0 Z M 178754 210838 C 169328,209670 160273,206430 152252,201341 C 144231,196253 137442,189444 132373,181411 C 123120,166800 118019,149942 117614,132643 L 117614 127330 C 123274,133092 130981,136390 139060,136493 L 178754 136493 L 178754 210838 Z" fill="#FFFFFF"/>
  <path d="M 36666 0 L 0 0 L 0 21362 L 36666 21362 L 36666 0 Z" fill="#FFFFFF" transform="translate(236781,29055)"/>
  <path d="M 36666 9169 L 36666 21362 L 9164 21362 L 9164 9169 L 36666 9169 Z M 45836 0 L 0 0 L 0 30525 L 45836 30525 L 45836 0 Z" fill="#FFFFFF" transform="translate(232199,24474)"/>
  <path d="M 36666 0 L 0 0 L 0 21362 L 36666 21362 L 36666 0 Z" fill="#FFFFFF" transform="translate(236781,58117)"/>
  <path d="M 36666 9163 L 36666 21355 L 9164 21355 L 9164 9163 L 36666 9163 Z M 45836 0 L 0 0 L 0 30525 L 45836 30525 L 45836 0 Z" fill="#FFFFFF" transform="translate(232199,53535)"/>
  <path d="M 0 11826 L 87083 11826 L 87083 38777 C 85254,39727 83502,40831 81859,42075 C 80756,43243 79441,44174 77977,44815 C 76508,45463 74929,45810 73332,45836 C 71759,45868 70194,45585 68731,45001 C 67261,44417 65933,43551 64810,42448 C 60337,38700 54691,36653 48858,36672 C 43050,36653 37429,38700 32995,42448 C 30672,44616 27612,45823 24429,45823 C 21246,45823 18179,44616 15856,42448 C 11435,38681 5807,36627 0,36672 L 0 48865 C 3176,48820 6243,50039 8522,52252 C 12968,56038 18634,58092 24474,58028 C 30281,58079 35915,56026 40330,52252 C 42614,50039 45681,48820 48858,48865 C 52066,48813 55159,50032 57475,52252 C 61916,55987 67531,58028 73332,58028 C 79132,58028 84747,55987 89194,52252 C 91517,50084 94578,48871 97760,48871 C 100943,48871 104010,50084 106333,52252 C 110774,55987 116389,58028 122189,58028 C 127990,58028 133611,55987 138052,52252 C 140368,50032 143461,48813 146670,48865 C 149846,48820 152913,50039 155191,52252 C 159600,56038 165240,58092 171054,58028 C 176893,58092 182559,56038 186999,52252 C 189303,50064 192358,48852 195528,48852 C 198704,48852 201752,50064 204056,52252 C 208496,56038 214162,58092 220001,58028 C 225815,58092 231456,56038 235864,52252 C 238186,50084 241254,48871 244430,48871 C 247613,48871 250680,50084 253003,52252 C 257444,55987 263065,58028 268865,58028 C 274666,58028 280281,55987 284722,52252 C 287038,50032 290131,48813 293339,48865 C 296516,48820 299583,50039 301861,52252 C 306321,55993 311955,58041 317768,58041 C 323588,58041 329216,55993 333676,52252 C 335954,50039 339021,48820 342197,48865 C 345406,48813 348499,50032 350815,52252 C 355217,56058 360857,58111 366671,58028 L 366671 45836 C 363495,45881 360428,44661 358149,42448 C 353677,38700 348030,36653 342197,36672 C 336397,36653 330775,38700 326341,42448 C 324012,44616 320951,45823 317768,45823 C 314585,45823 311525,44616 309196,42448 C 304761,38700 299140,36653 293339,36672 C 289040,36583 284812,37725 281147,39971 L 281147 12468 L 366671 12468 L 366671 0 L 0 0 L 0 11826 Z M 268865 45836 C 265683,45881 262615,44661 260338,42448 C 255878,38707 250250,36660 244430,36660 C 238617,36660 232983,38707 228530,42448 C 226245,44661 223184,45881 220001,45836 C 216800,45881 213700,44668 211383,42448 C 206943,38713 201328,36666 195528,36666 C 189726,36666 184112,38713 179672,42448 C 177342,44616 174281,45823 171099,45823 C 167916,45823 164855,44616 162526,42448 C 158092,38700 152471,36653 146670,36672 C 140837,36653 135190,38700 130717,42448 C 129594,43551 128260,44417 126797,45001 C 125334,45585 123768,45868 122189,45836 C 119013,45881 115946,44661 113668,42448 C 109632,38995 104575,36961 99275,36672 L 99275 11826 L 268865 11826 L 268865 45836 Z" fill="#2C5967" transform="translate(9169,247503)"/>
  <path d="M 360530 96253 C 300674,96253 281147,29242 281147,6141 L 281147 0 L 268865 0 L 268865 6141 C 268237,24570 262905,42525 253369,58303 C 246368,70066 236294,79691 224230,86153 C 212160,92614 198563,95662 184895,94969 C 171285,95765 157713,92967 145527,86852 C 133348,80737 122992,71522 115503,60139 C 105358,43981 99750,25398 99275,6327 L 99275 186 L 87083 186 L 87083 6327 C 87083,29428 67556,96439 7604,96439 L 0 96439 L 0 108721 L 366671 108721 L 366671 96253 L 360530 96253 Z M 263822 64720 C 265676,61762 267358,58701 268865,55550 L 268865 96439 L 230730 96439 C 244385,88995 255807,78048 263822,64720 Z M 105236 66645 C 113276,79113 124384,89309 137500,96253 L 99275 96253 L 99275 56102 C 100834,59677 103035,63161 105236,66645 Z M 79659 67287 C 82399,62949 84882,58444 87083,53812 L 87083 96253 L 51149 96253 C 62654,88796 72388,78908 79659,67287 Z M 281327 96253 L 281327 53812 C 283464,58483 285947,62988 288758,67287 C 295990,78908 305692,88796 317172,96253 L 281327 96253 Z" fill="#2C5967" transform="translate(9169,126411)"/>
  <path d="M 342197 13 C 336384,-51 330750,2002 326341,5788 C 324012,7963 320951,9170 317768,9170 C 314585,9170 311525,7963 309196,5788 C 304787,2002 299153,-51 293339,13 C 287500,-45 281834,2002 277387,5788 C 275090,7976 272036,9195 268865,9195 C 265689,9195 262635,7976 260338,5788 C 255878,2053 250250,0 244430,0 C 238617,0 232983,2053 228530,5788 C 226245,8002 223184,9221 220001,9182 C 216800,9227 213700,8008 211383,5788 C 206943,2060 201328,13 195528,13 C 189726,13 184112,2060 179672,5788 C 177342,7963 174281,9170 171099,9170 C 167916,9170 164855,7963 162526,5788 C 158117,2002 152483,-51 146670,13 C 140830,-45 135164,2002 130717,5788 C 129594,6892 128260,7765 126797,8348 C 125334,8926 123768,9214 122189,9182 C 119013,9221 115946,8002 113668,5788 C 109208,2053 103580,0 97760,0 C 91947,0 86313,2053 81859,5788 C 79575,8002 76515,9221 73332,9182 C 71759,9214 70194,8926 68731,8348 C 67261,7765 65933,6892 64810,5788 C 60363,2002 54697,-45 48858,13 C 43044,-51 37410,2002 32995,5788 C 30672,7963 27612,9170 24429,9170 C 21246,9170 18179,7963 15856,5788 C 11454,1989 5814,-70 0,13 L 0 12570 C 3176,12532 6243,13751 8522,15965 C 12981,19700 18609,21753 24429,21753 C 30243,21753 35877,19700 40330,15965 C 42614,13751 45681,12532 48858,12570 C 52066,12525 55159,13745 57475,15965 C 61916,19693 67531,21740 73332,21740 C 79132,21740 84747,19693 89194,15965 C 91517,13796 94578,12583 97760,12583 C 100943,12583 104010,13796 106333,15965 C 110774,19693 116389,21740 122189,21740 C 127990,21740 133611,19693 138052,15965 C 140368,13745 143461,12525 146670,12570 C 149846,12532 152913,13751 155191,15965 C 159625,19713 165247,21753 171054,21740 C 176880,21753 182533,19706 186999,15965 C 189303,13777 192358,12558 195528,12558 C 198704,12558 201752,13777 204056,15965 C 208522,19706 214175,21753 220001,21740 C 225809,21753 231430,19713 235864,15965 C 238186,13796 241254,12583 244430,12583 C 247613,12583 250680,13796 253003,15965 C 257444,19693 263065,21740 268865,21740 C 274666,21740 280281,19693 284722,15965 C 287038,13745 290131,12525 293339,12570 C 296516,12532 299583,13751 301861,15965 C 306321,19700 311955,21753 317768,21753 C 323588,21753 329216,19700 333676,15965 C 335954,13751 339021,12532 342197,12570 C 345406,12525 348499,13745 350815,15965 C 355236,19732 360864,21779 366671,21740 L 366671 9182 C 363495,9221 360428,8002 358149,5788 C 353703,2002 348037,-45 342197,13 Z" fill="#2C5967" transform="translate(9169,308271)"/>
  <path d="M 27503 0 L 0 0 L 0 12192 L 27503 12192 L 27503 0 Z" fill="#2C5967" transform="translate(241363,33643)"/>
  <path d="M 27503 0 L 0 0 L 0 12192 L 27503 12192 L 27503 0 Z" fill="#2C5967" transform="translate(241363,62698)"/>
  <path d="M 21452 117704 L 61140 117704 C 63572,117704 65901,118667 67621,120386 C 69341,122106 70310,124435 70310,126867 L 70310 203228 L 82501 203228 L 82501 126867 C 82514,124057 81969,121266 80904,118667 C 79832,116061 78260,113700 76277,111705 C 74294,109715 71933,108130 69334,107052 C 66742,105974 63957,105416 61140,105416 L 21452 105416 C 19020,105416 16684,104453 14964,102734 C 13245,101014 12282,98684 12282,96253 L 12282 59580 C 12282,57155 13245,54819 14964,53099 C 16684,51380 19020,50417 21452,50417 L 45836 50417 L 45836 51976 L 51977 64168 L 58117 64168 L 64168 76450 L 102394 76450 L 108534 88642 L 114586 88642 L 114586 76450 L 114586 12282 L 114586 0 L 108534 0 L 102394 12282 L 64168 12282 L 58117 24564 L 51977 24564 L 45836 36666 L 45836 38225 L 21452 38225 C 15773,38225 10331,40471 6314,44475 C 2291,48479 19,53908 0,59580 L 0 96253 C 0,99069 552,101854 1630,104460 C 2708,107065 4287,109426 6282,111415 C 8271,113411 10639,114990 13238,116068 C 15843,117146 18634,117704 21452,117704 Z M 70310 24474 L 102394 24474 L 102394 64168 L 70310 64168 L 70310 24474 Z" fill="#2C5967" transform="translate(117614,9169)"/>
  <path d="M 0 11826 L 87083 11826 L 87083 38777 C 85254,39727 83502,40831 81859,42075 C 80756,43243 79441,44174 77977,44815 C 76508,45463 74929,45810 73332,45836 C 71759,45868 70194,45585 68731,45001 C 67261,44417 65933,43551 64810,42448 C 60337,38700 54691,36653 48858,36672 C 43050,36653 37429,38700 32995,42448 C 30672,44616 27612,45823 24429,45823 C 21246,45823 18179,44616 15856,42448 C 11435,38681 5807,36627 0,36672 L 0 48865 C 3176,48820 6243,50039 8522,52252 C 12968,56038 18634,58092 24474,58028 C 30281,58079 35915,56026 40330,52252 C 42614,50039 45681,48820 48858,48865 C 52066,48813 55159,50032 57475,52252 C 61916,55987 67531,58028 73332,58028 C 79132,58028 84747,55987 89194,52252 C 91517,50084 94578,48871 97760,48871 C 100943,48871 104010,50084 106333,52252 C 110774,55987 116389,58028 122189,58028 C 127990,58028 133611,55987 138052,52252 C 140368,50032 143461,48813 146670,48865 C 149846,48820 152913,50039 155191,52252 C 159600,56038 165240,58092 171054,58028 C 176893,58092 182559,56038 186999,52252 C 189303,50064 192358,48852 195528,48852 C 198704,48852 201752,50064 204056,52252 C 208496,56038 214162,58092 220001,58028 C 225815,58092 231456,56038 235864,52252 C 238186,50084 241254,48871 244430,48871 C 247613,48871 250680,50084 253003,52252 C 257444,55987 263065,58028 268865,58028 C 274666,58028 280281,55987 284722,52252 C 287038,50032 290131,48813 293339,48865 C 296516,48820 299583,50039 301861,52252 C 306321,55993 311955,58041 317768,58041 C 323588,58041 329216,55993 333676,52252 C 335954,50039 339021,48820 342197,48865 C 345406,48813 348499,50032 350815,52252 C 355217,56058 360857,58111 366671,58028 L 366671 45836 C 363495,45881 360428,44661 358149,42448 C 353677,38700 348030,36653 342197,36672 C 336397,36653 330775,38700 326341,42448 C 324012,44616 320951,45823 317768,45823 C 314585,45823 311525,44616 309196,42448 C 304761,38700 299140,36653 293339,36672 C 289040,36583 284812,37725 281147,39971 L 281147 12468 L 366671 12468 L 366671 0 L 0 0 L 0 11826 Z M 268865 45836 C 265683,45881 262615,44661 260338,42448 C 255878,38707 250250,36660 244430,36660 C 238617,36660 232983,38707 228530,42448 C 226245,44661 223184,45881 220001,45836 C 216800,45881 213700,44668 211383,42448 C 206943,38713 201328,36666 195528,36666 C 189726,36666 184112,38713 179672,42448 C 177342,44616 174281,45823 171099,45823 C 167916,45823 164855,44616 162526,42448 C 158092,38700 152471,36653 146670,36672 C 140837,36653 135190,38700 130717,42448 C 129594,43551 128260,44417 126797,45001 C 125334,45585 123768,45868 122189,45836 C 119013,45881 115946,44661 113668,42448 C 109632,38995 104575,36961 99275,36672 L 99275 11826 L 268865 11826 L 268865 45836 Z" fill="#2C5967" transform="translate(9169,247503)"/>
  <path d="M 360530 96253 C 300674,96253 281147,29242 281147,6141 L 281147 0 L 268865 0 L 268865 6141 C 268237,24570 262905,42525 253369,58303 C 246368,70066 236294,79691 224230,86153 C 212160,92614 198563,95662 184895,94969 C 171285,95765 157713,92967 145527,86852 C 133348,80737 122992,71522 115503,60139 C 105358,43981 99750,25398 99275,6327 L 99275 186 L 87083 186 L 87083 6327 C 87083,29428 67556,96439 7604,96439 L 0 96439 L 0 108721 L 366671 108721 L 366671 96253 L 360530 96253 Z M 263822 64720 C 265676,61762 267358,58701 268865,55550 L 268865 96439 L 230730 96439 C 244385,88995 255807,78048 263822,64720 Z M 105236 66645 C 113276,79113 124384,89309 137500,96253 L 99275 96253 L 99275 56102 C 100834,59677 103035,63161 105236,66645 Z M 79659 67287 C 82399,62949 84882,58444 87083,53812 L 87083 96253 L 51149 96253 C 62654,88796 72388,78908 79659,67287 Z M 281327 96253 L 281327 53812 C 283464,58483 285947,62988 288758,67287 C 295990,78908 305692,88796 317172,96253 L 281327 96253 Z" fill="#2C5967" transform="translate(9169,126411)"/>
  <path d="M 342197 13 C 336384,-51 330750,2002 326341,5788 C 324012,7963 320951,9170 317768,9170 C 314585,9170 311525,7963 309196,5788 C 304787,2002 299153,-51 293339,13 C 287500,-45 281834,2002 277387,5788 C 275090,7976 272036,9195 268865,9195 C 265689,9195 262635,7976 260338,5788 C 255878,2053 250250,0 244430,0 C 238617,0 232983,2053 228530,5788 C 226245,8002 223184,9221 220001,9182 C 216800,9227 213700,8008 211383,5788 C 206943,2060 201328,13 195528,13 C 189726,13 184112,2060 179672,5788 C 177342,7963 174281,9170 171099,9170 C 167916,9170 164855,7963 162526,5788 C 158117,2002 152483,-51 146670,13 C 140830,-45 135164,2002 130717,5788 C 129594,6892 128260,7765 126797,8348 C 125334,8926 123768,9214 122189,9182 C 119013,9221 115946,8002 113668,5788 C 109208,2053 103580,0 97760,0 C 91947,0 86313,2053 81859,5788 C 79575,8002 76515,9221 73332,9182 C 71759,9214 70194,8926 68731,8348 C 67261,7765 65933,6892 64810,5788 C 60363,2002 54697,-45 48858,13 C 43044,-51 37410,2002 32995,5788 C 30672,7963 27612,9170 24429,9170 C 21246,9170 18179,7963 15856,5788 C 11454,1989 5814,-70 0,13 L 0 12570 C 3176,12532 6243,13751 8522,15965 C 12981,19700 18609,21753 24429,21753 C 30243,21753 35877,19700 40330,15965 C 42614,13751 45681,12532 48858,12570 C 52066,12525 55159,13745 57475,15965 C 61916,19693 67531,21740 73332,21740 C 79132,21740 84747,19693 89194,15965 C 91517,13796 94578,12583 97760,12583 C 100943,12583 104010,13796 106333,15965 C 110774,19693 116389,21740 122189,21740 C 127990,21740 133611,19693 138052,15965 C 140368,13745 143461,12525 146670,12570 C 149846,12532 152913,13751 155191,15965 C 159625,19713 165247,21753 171054,21740 C 176880,21753 182533,19706 186999,15965 C 189303,13777 192358,12558 195528,12558 C 198704,12558 201752,13777 204056,15965 C 208522,19706 214175,21753 220001,21740 C 225809,21753 231430,19713 235864,15965 C 238186,13796 241254,12583 244430,12583 C 247613,12583 250680,13796 253003,15965 C 257444,19693 263065,21740 268865,21740 C 274666,21740 280281,19693 284722,15965 C 287038,13745 290131,12525 293339,12570 C 296516,12532 299583,13751 301861,15965 C 306321,19700 311955,21753 317768,21753 C 323588,21753 329216,19700 333676,15965 C 335954,13751 339021,12532 342197,12570 C 345406,12525 348499,13745 350815,15965 C 355236,19732 360864,21779 366671,21740 L 366671 9182 C 363495,9221 360428,8002 358149,5788 C 353703,2002 348037,-45 342197,13 Z" fill="#2C5967" transform="translate(9169,308271)"/>
  <path d="M 27503 0 L 0 0 L 0 12192 L 27503 12192 L 27503 0 Z" fill="#2C5967" transform="translate(241363,33643)"/>
  <path d="M 27503 0 L 0 0 L 0 12192 L 27503 12192 L 27503 0 Z" fill="#2C5967" transform="translate(241363,62698)"/>
  <path d="M 21452 117704 L 61140 117704 C 63572,117704 65901,118667 67621,120386 C 69341,122106 70310,124435 70310,126867 L 70310 203228 L 82501 203228 L 82501 126867 C 82514,124057 81969,121266 80904,118667 C 79832,116061 78260,113700 76277,111705 C 74294,109715 71933,108130 69334,107052 C 66742,105974 63957,105416 61140,105416 L 21452 105416 C 19020,105416 16684,104453 14964,102734 C 13245,101014 12282,98684 12282,96253 L 12282 59580 C 12282,57155 13245,54819 14964,53099 C 16684,51380 19020,50417 21452,50417 L 45836 50417 L 45836 51976 L 51977 64168 L 58117 64168 L 64168 76450 L 102394 76450 L 108534 88642 L 114586 88642 L 114586 76450 L 114586 12282 L 114586 0 L 108534 0 L 102394 12282 L 64168 12282 L 58117 24564 L 51977 24564 L 45836 36666 L 45836 38225 L 21452 38225 C 15773,38225 10331,40471 6314,44475 C 2291,48479 19,53908 0,59580 L 0 96253 C 0,99069 552,101854 1630,104460 C 2708,107065 4287,109426 6282,111415 C 8271,113411 10639,114990 13238,116068 C 15843,117146 18634,117704 21452,117704 Z M 70310 24474 L 102394 24474 L 102394 64168 L 70310 64168 L 70310 24474 Z" fill="#2C5967" transform="translate(117614,9169)"/>
</svg>