<svg xmlns="http://www.w3.org/2000/svg" viewBox="0 0 385010 339178" width="40" height="36">
  <path d="M 94648 164823 L 87269 164823 C 80275,164573 73281,163777 66414,162436 C 58201,161153 50308,158323 43185,154094 C 40555,152541 38181,150558 36191,148229 L 0 148229 L 0 27682 C 0,26008 257,24346 706,22735 C 706,21907 1347,21176 1733,20355 C 3850,16504 7058,13335 10909,11185 C 18096,6808 26053,3818 34330,2387 C 41196,1040 48191,244 55185,0 L 62564 0 C 71805,-19 81045,809 90093,2477 C 98178,3818 106006,6481 113193,10357 C 116080,12025 118583,14200 120701,16774 L 157405 16774 L 157405 136955 C 157213,140516 156121,143968 154133,146952 C 152207,149936 149513,152342 146304,153914 C 139117,158124 131225,160947 123011,162257 C 118712,163078 113835,163719 109343,164182 C 104851,164637 99782,164823 94648,164823 Z" fill="#FFFFFF" transform="translate(114605,4770)"/>
  <path d="M 67184 9166 C 76425,9108 85665,9904 94713,11553 C 102220,12792 109535,15269 116273,18887 C 119353,20543 121920,22975 123781,25946 L 157854 25946 L 157854 141725 C 157661,144529 156700,147231 155095,149535 C 153491,151838 151245,153673 148679,154829 C 142005,158704 134689,161316 127053,162529 C 122690,163382 118326,163992 113899,164364 C 109279,164826 104723,165006 99590,165006 L 91697 165006 C 84895,164736 78157,163973 71548,162715 C 63847,161483 56532,158871 49795,155015 C 46971,153378 44597,151120 42801,148412 L 9176 148412 L 9176 32453 C 9176,31208 9368,29976 9754,28789 C 9946,28346 10203,27916 10459,27505 C 12256,24066 14951,21230 18352,19343 C 25090,15487 32405,12881 40105,11643 C 46651,10340 53259,9512 59997,9166 L 67184 9166 Z M 67184 3 L 59613 3 C 52362,279 45175,1106 38051,2480 C 29260,4001 20855,7106 13218,11643 C 8534,14338 4748,18316 2246,23104 C 1733,24079 1347,25093 1027,26126 C 385,28205 0,30367 0,32543 L 0 157395 L 38821 157395 C 40747,159404 42928,161155 45302,162625 C 52939,167162 61345,170267 70136,171788 C 77259,173129 84446,173925 91697,174175 L 99268 174175 C 104531,174175 109535,174175 114412,173534 C 119096,173104 123781,172430 128337,171512 C 137128,169991 145534,166886 153170,162349 C 157084,160366 160357,157376 162667,153705 C 164977,150029 166261,145794 166388,141449 L 166388 16776 L 127824 16776 C 125641,14524 123139,12580 120444,11002 C 112872,6805 104594,3949 95996,2570 C 86499,805 76874,-55 67184,3 Z" fill="#FFFFFF" transform="translate(109985,0)"/>
  <path d="M 371278 212397 C 364605,212385 358060,210017 352926,205705 C 350296,203690 349654,203228 347088,203228 C 344521,203228 343879,203780 341312,205705 C 336050,210036 329441,212397 322639,212397 C 315838,212397 309228,210036 304030,205705 C 301463,203690 300693,203228 298255,203228 C 295753,203228 295046,203228 292480,205615 C 287218,209972 280608,212365 273807,212365 C 267005,212365 260396,209972 255134,205615 C 252567,203690 251861,203138 249295,203138 C 246728,203138 246087,203690 243520,205615 C 238257,209933 231712,212295 224911,212295 C 218108,212295 211500,209933 206302,205615 C 203606,203690 202965,203138 200398,203138 C 197832,203138 197189,203690 194623,205519 C 189554,209901 183008,212308 176335,212308 C 169597,212295 163116,209927 157983,205615 C 155417,203690 154647,203138 152208,203138 C 149705,203138 149000,203690 146433,205519 C 141171,209882 134562,212269 127760,212269 C 120958,212269 114349,209882 109086,205519 C 106520,203594 105814,203048 103248,203048 C 100681,203048 100039,203594 97472,205519 C 92338,209831 85857,212199 79120,212211 C 72446,212230 65901,209863 60832,205519 C 58137,203594 57495,203048 54929,203048 C 52362,203048 51720,203594 49153,205429 C 44084,209812 37539,212218 30801,212211 C 24127,212192 17646,209824 12513,205519 C 9946,203594 9305,203048 6738,203048 L 0 203048 L 0 157213 L 4621 157213 C 11294,157226 17839,159593 22973,163906 C 25539,165831 26245,166376 28812,166376 C 31378,166376 32020,165831 34587,163906 C 39849,159581 46394,157219 53196,157219 C 59998,157219 66543,159581 71805,163906 C 74436,165831 75078,166376 77644,166376 C 80211,166376 80853,165831 83419,163906 L 86820 161518 L 86820 142088 L 0 142088 L 0 96253 L 12192 96253 C 68789,96253 87141,32636 87141,10723 L 87141 0 L 108445 0 L 108445 10723 C 108830,28876 114092,46593 123781,61967 C 130904,72690 140657,81359 152144,87102 C 163694,92845 176463,95463 189297,94693 C 202131,95290 214836,92435 226129,86415 C 237423,80397 246857,71445 253465,60498 C 262513,45418 267583,28292 268224,10723 L 268224 0 L 289721 0 L 289721 10723 C 289721,32636 308008,96253 364477,96253 L 375899 96253 L 375899 142088 L 290362 142088 L 290362 158310 C 294854,157161 299603,157084 304158,158092 C 308714,159093 312950,161146 316543,164085 C 319109,166010 319880,166562 322446,166562 C 325013,166562 325655,166010 328222,164085 C 333420,159767 340028,157399 346831,157399 C 353632,157399 360177,159767 365440,164085 C 368070,166010 368712,166562 371278,166562 L 375899 166562 L 375899 212397 L 371278 212397 Z" fill="#FFFFFF" transform="translate(4556,121833)"/>
  <path d="M 290298 9349 L 290298 15490 C 290298,38591 309870,105602 369674,105602 L 375834 105602 L 375834 142274 L 290298 142274 L 290298 169770 C 294019,167749 298255,166831 302490,167114 C 308330,167049 313976,169103 318339,172889 C 320714,175058 323729,176270 326938,176270 C 330146,176270 333163,175058 335537,172889 C 339900,169103 345547,167049 351386,167114 C 357226,167049 362873,169103 367300,172889 C 369610,175103 372690,176322 375834,176283 L 375834 212949 C 370060,212988 364413,210941 359985,207174 C 357675,204954 354595,203735 351386,203779 C 348178,203741 345098,204960 342852,207174 C 338360,210909 332777,212962 326938,212962 C 321099,212962 315516,210909 311024,207174 C 308778,204960 305698,203741 302490,203779 C 299282,203735 296202,204954 293892,207174 C 289464,210902 283817,212949 278042,212949 C 272203,212949 266620,210902 262192,207174 C 259818,204999 256802,203792 253594,203792 C 250450,203792 247370,204999 245059,207174 C 240567,210915 234985,212962 229145,212949 C 223371,212962 217724,210915 213232,207174 C 210922,204986 207842,203767 204697,203767 C 201553,203767 198473,204986 196163,207174 C 191671,210915 186024,212962 180249,212949 C 174410,212962 168827,210915 164335,207174 C 162090,204960 159010,203741 155865,203779 C 152657,203735 149513,204954 147202,207174 C 142775,210902 137192,212949 131353,212949 C 125577,212949 119930,210902 115503,207174 C 113193,204999 110113,203792 106905,203792 C 103761,203792 100680,204999 98370,207174 C 93943,210902 88296,212949 82520,212949 C 76681,212949 71098,210902 66671,207174 C 64361,204954 61217,203735 58009,203779 C 54864,203741 51784,204960 49474,207174 C 45046,210909 39400,212962 33624,212962 C 27785,212962 22138,210909 17711,207174 C 15401,204960 12321,203741 9176,203779 L 9176 167114 C 14951,167030 20598,169084 25026,172889 C 27336,175058 30416,176270 33624,176270 C 36768,176270 39848,175058 42158,172889 C 46586,169103 52233,167049 58009,167114 C 63847,167049 69558,169103 73986,172889 C 75077,173993 76425,174865 77901,175443 C 79376,176027 80916,176309 82520,176283 C 85665,176322 88745,175103 91055,172889 C 92723,171644 94456,170515 96253,169494 L 96253 142274 L 9176 142274 L 9176 105602 L 16748 105602 C 76745,105602 96253,38591 96253,15490 L 96253 9349 L 108445 9349 L 108445 15490 C 108894,34535 114540,53093 124680,69212 C 132123,80628 142518,89868 154646,96002 C 166838,102137 180442,104941 194045,104139 C 207713,104832 221317,101784 233381,95322 C 245444,88860 255518,79229 262513,67467 C 272074,51694 277400,33733 278042,15310 L 278042 9169 L 290298 9169 M 299474 0 L 268866 0 L 268866 15310 C 268160,32007 263347,48274 254748,62609 C 248588,73036 239605,81552 228953,87231 C 218237,92903 206173,95521 194045,94789 C 181982,95624 169918,93224 159010,87821 C 148165,82424 138989,74230 132379,64078 C 123139,49461 118006,32604 117620,15310 L 117620 186 L 87076 186 L 87076 15490 C 87076,36210 69751,96439 16748,96439 L 0 96439 L 0 151437 L 87076 151437 L 87076 164091 L 85536 165189 C 83483,167114 83483,167114 82520,167114 C 81494,167114 81494,167114 79505,165554 C 73408,160633 65901,157951 58073,157951 C 50244,157951 42736,160633 36640,165554 C 34651,167114 34651,167114 33624,167114 C 32662,167114 32662,167114 30544,165554 C 24512,160569 16941,157873 9176,157944 L 0 157944 L 0 212949 L 9176 212949 C 10203,212949 10203,212949 12192,214508 C 18224,219494 25796,222189 33624,222112 C 41453,222068 49025,219244 54992,214143 C 57046,212583 57046,212583 58009,212583 C 59035,212583 59035,212583 61153,214143 C 67184,219052 74692,221734 82520,221734 C 90285,221734 97857,219052 103888,214143 C 105878,212583 105878,212583 106905,212583 C 107867,212583 107995,212583 109985,214143 C 116016,219052 123588,221734 131353,221734 C 139117,221734 146689,219052 152721,214143 C 154838,212583 154838,212583 155865,212583 C 156827,212583 156827,212583 158881,214143 C 164913,219058 172485,221747 180249,221747 C 188078,221747 195649,219058 201682,214143 C 203671,212583 203671,212583 204697,212583 C 205724,212583 205724,212583 207713,214047 C 213745,219000 221317,221708 229145,221708 C 236910,221708 244482,219000 250514,214047 C 252567,212487 252567,212487 253530,212487 C 254556,212487 254556,212487 256674,214047 C 262705,218962 270277,221644 278042,221644 C 285806,221644 293378,218962 299410,214047 C 301527,212487 301527,212487 302490,212487 C 303517,212487 303517,212487 305506,214047 C 311602,218968 319109,221657 326938,221657 C 334767,221657 342274,218968 348371,214047 C 350359,212487 350359,212487 351386,212487 C 352349,212487 352349,212487 354466,214047 C 360434,219199 368006,222061 375834,222112 L 385011 222112 L 385011 167114 L 375834 167114 C 374808,167114 374808,167114 372818,165554 C 366787,160633 359215,157951 351386,157951 C 343622,157951 336050,160633 330019,165554 C 327965,167114 327965,167114 326874,167114 C 325783,167114 325912,167114 323858,165554 C 317891,160581 310318,157886 302490,157944 L 299474 157944 L 299474 151713 L 385011 151713 L 385011 96714 L 369674 96714 C 316735,96714 299474,36486 299474,15766 L 299474 186 L 299474 0 Z" fill="#FFFFFF" transform="translate(0,117065)"/>
  <path d="M 22909 16228 L 12192 16228 L 12192 7058 C 9369,5871 6674,4491 4043,2932 C 2567,1925 1220,1007 0,0 L 0 28234 L 23935 28234 C 23293,26129 22909,23935 22909,21727 L 22909 16228 Z" fill="#2C5967" transform="translate(119161,119722)"/>
  <path d="M 1026 5223 L 1026 12282 L 11614 12282 L 11614 21452 C 14181,22453 16684,23678 19058,25116 C 20791,26078 22395,27182 23935,28420 L 23935 0 L 0 0 C 449,1463 770,2964 898,4492 L 1026 5223 Z" fill="#2C5967" transform="translate(243391,25946)"/>
  <path d="M 0 23284 L 0 92862 C 193,95672 1155,98367 2824,100678 C 4428,102981 6610,104810 9176,105971 C 13540,108557 18289,110534 23229,111836 L 23229 99465 L 22716 99465 C 19572,98560 16492,97270 13604,95615 C 11551,94421 10652,93414 10652,92496 L 10652 72148 C 14502,74169 18609,75741 22844,76820 L 22844 65179 L 22396 65179 C 19187,64249 16106,62927 13219,61240 C 11166,60046 10268,59039 10268,58211 L 10268 37767 C 16941,41007 24063,43234 31378,44370 L 32277 44370 C 33368,43542 34523,42778 35678,42079 C 41325,38626 47549,36124 54030,34655 C 48704,34520 43442,34090 38245,33371 C 33304,32672 28427,31600 23679,30163 C 20470,29168 17390,27853 14502,26217 C 12578,25029 11551,24022 11551,23194 C 11551,22277 12834,21269 14952,20075 C 17839,18459 20919,17194 24127,16322 C 28876,14846 33688,13774 38630,13113 C 45111,12279 51656,11881 58201,11920 C 64938,11888 71676,12350 78286,13293 C 83227,13941 88104,15013 92852,16501 C 96061,17406 99141,18696 102028,20352 C 103953,21545 104980,22642 104980,23470 C 104980,24292 103953,25305 102028,26492 C 99141,28142 96061,29463 92852,30439 L 91568 30439 C 99718,30484 107803,31157 115760,32454 L 115760 23284 L 115760 22277 C 115440,19582 114413,17015 112809,14820 C 111204,12625 109086,10867 106648,9719 C 99911,6106 92595,3629 85087,2384 C 75976,735 66800,-61 57560,4 L 50309 4 C 43571,273 36833,1037 30160,2294 C 22780,3668 15658,6337 9176,10174 C 5968,11978 3337,14647 1541,17875 C 1284,18439 1027,19023 834,19620 C 385,20794 64,22026 0,23284 Z" fill="#2C5967" transform="translate(119161,9168)"/>
  <path d="M 85536 2390 C 76425,741 67248,-55 58009,3 L 50757 3 C 44019,260 37282,1055 30608,2390 C 22972,3596 15593,6169 8920,9994 C 5711,11848 3080,14505 1283,17694 C 1283,18336 706,18888 577,19439 C 193,20627 0,21865 0,23104 L 0 92681 C 193,95492 1155,98193 2760,100503 C 4364,102814 6610,104636 9176,105791 C 15914,109648 23229,112259 30865,113491 C 37474,114865 44148,115750 50886,116148 L 58137 116148 C 63077,116148 67826,116148 72446,115506 C 76874,115134 81237,114524 85600,113677 C 93237,112458 100552,109846 107225,105977 C 109792,104816 112038,102987 113642,100677 C 115246,98373 116209,95672 116402,92867 L 116402 23290 L 116402 22282 C 116080,19600 115054,17046 113450,14871 C 111846,12689 109728,10950 107225,9814 C 100488,6105 93173,3590 85536,2390 Z M 12192 23014 C 12192,22186 13475,21178 15593,19991 C 18481,18330 21560,17065 24769,16231 C 29453,14717 34330,13639 39207,13023 C 45752,12112 52297,11682 58843,11739 C 65580,11707 72254,12169 78927,13113 C 83868,13761 88745,14832 93493,16321 C 96701,17213 99782,18541 102669,20261 C 104595,21455 105621,22462 105621,23290 C 105621,24111 104595,25125 102669,26312 C 99782,28038 96701,29366 93493,30258 C 88809,31798 83996,32934 79119,33646 C 72446,34596 65773,35052 59035,35020 C 52297,35052 45624,34596 38950,33646 C 34010,32992 29133,31920 24384,30438 C 21176,29533 18095,28211 15208,26498 C 13283,25304 12256,24297 12256,23469 L 12192 23014 Z M 103888 92406 C 103888,93233 102926,94241 100937,95434 C 98050,97122 94970,98444 91761,99374 C 86949,100856 82072,101928 77066,102583 C 63720,104418 50116,104418 36768,102583 C 31763,101928 26886,100856 22074,99374 C 18865,98444 15785,97122 12898,95434 C 10908,94241 10011,93233 10011,92406 L 10011 72237 C 16619,75484 23742,77679 31057,78751 C 39464,80181 47998,80881 56533,80855 L 62436 80855 C 70072,80900 77708,80284 85280,79026 C 91440,78032 97471,76113 103118,73341 L 103888 92406 Z M 103888 58120 C 103888,58948 102926,59956 100937,61239 C 98050,62895 94970,64191 91761,65089 C 86949,66571 82072,67643 77066,68297 C 70393,69324 63655,69812 56917,69767 C 50179,69812 43442,69324 36768,68297 C 31763,67643 26886,66571 22074,65089 C 19315,64069 16684,62747 14181,61149 C 12192,59866 11294,58858 11294,58031 L 11294 37862 C 17967,41026 25026,43220 32341,44376 C 40747,45845 49282,46551 57816,46480 L 63334 46480 L 68018 46480 L 75655 45928 L 81943 44921 L 89258 43548 L 91376 42906 L 95034 41989 L 99012 40705 L 102605 39146 L 103247 39146 L 104402 38504 L 104402 58762 L 103888 58120 Z" fill="#2C5967" transform="translate(150796,48857)"/>
  <path d="M 0 11826 L 87076 11826 L 87076 38681 C 85215,39663 83482,40798 81878,42075 C 80724,43237 79441,44167 77964,44815 C 76488,45457 74948,45803 73344,45836 C 71740,45861 70200,45579 68724,44995 C 67248,44417 65900,43545 64810,42441 C 60382,38655 54671,36602 48832,36666 C 43057,36602 37410,38655 32982,42441 C 30672,44610 27592,45823 24448,45823 C 21239,45823 18159,44610 15849,42441 C 11421,38636 5775,36582 0,36666 L 0 48858 C 3144,48813 6224,50038 8534,52252 C 12961,56038 18608,58085 24448,58028 C 30287,58072 35934,56026 40297,52252 C 42607,50038 45688,48813 48832,48858 C 52040,48813 55185,50032 57495,52252 C 61922,55981 67505,58028 73344,58028 C 79119,58028 84766,55981 89193,52252 C 91503,50077 94584,48871 97728,48871 C 100937,48871 104017,50077 106327,52252 C 110754,55981 116401,58028 122176,58028 C 128016,58028 133598,55981 138026,52252 C 140336,50032 143481,48813 146689,48858 C 149833,48813 152913,50038 155159,52252 C 159587,56038 165234,58092 171072,58028 C 176912,58085 182559,56038 186986,52252 C 189297,50064 192377,48845 195521,48845 C 198665,48845 201745,50064 204055,52252 C 208483,56038 214130,58085 219969,58028 C 225808,58092 231455,56038 235882,52252 C 238193,50077 241273,48871 244417,48871 C 247626,48871 250641,50077 253016,52252 C 257444,55981 263026,58028 268865,58028 C 274640,58028 280287,55981 284715,52252 C 287025,50032 290105,48813 293314,48858 C 296522,48813 299602,50038 301848,52252 C 306340,55987 311923,58034 317761,58034 C 323601,58034 329184,55987 333676,52252 C 335922,50038 339002,48813 342210,48858 C 345418,48813 348498,50032 350808,52252 C 355236,56051 360883,58104 366658,58028 L 366658 45836 C 363513,45874 360434,44655 358124,42441 C 353696,38655 348049,36602 342210,36666 C 336370,36602 330724,38655 326361,42441 C 323986,44610 320970,45823 317761,45823 C 314553,45823 311537,44610 309163,42441 C 304800,38655 299153,36602 293314,36666 C 289014,36576 284779,37725 281121,39964 L 281121 12468 L 366658 12468 L 366658 0 L 0 0 L 0 11826 Z M 268865 45836 C 265657,45874 262641,44655 260331,42441 C 255904,38706 250257,36653 244417,36653 C 238578,36653 232995,38706 228504,42441 C 226257,44655 223177,45874 219969,45836 C 216760,45881 213680,44661 211370,42441 C 206943,38713 201296,36666 195521,36666 C 189746,36666 184099,38713 179672,42441 C 177361,44610 174281,45823 171072,45823 C 167928,45823 164848,44610 162538,42441 C 158110,38655 152463,36602 146689,36666 C 140849,36602 135138,38655 130711,42441 C 129556,43545 128273,44417 126796,44995 C 125320,45579 123780,45861 122176,45836 C 119032,45874 115952,44655 113642,42441 C 109599,38989 104594,36961 99268,36666 L 99268 11826 L 268865 11826 L 268865 45836 Z" fill="#2C5967" transform="translate(9177,247513)"/>
  <path d="M 362102 96253 L 360498 96253 C 300693,96253 281121,29242 281121,6141 L 281121 0 L 268865 0 L 268865 6141 C 268224,24570 262898,42525 253337,58303 C 246342,70066 236268,79691 224204,86153 C 212140,92614 198537,95662 184869,94969 C 171265,95778 157661,92967 145469,86833 C 133341,80705 122946,71458 115503,60042 C 105364,43930 99717,25366 99268,6327 L 99268 186 L 87076 186 L 87076 6327 C 87076,29428 67569,96439 7571,96439 L 0 96439 L 0 108721 L 366658 108721 L 366658 96253 L 362102 96253 Z M 263796 64720 C 265657,61749 267325,58695 268865,55550 L 268865 96439 L 230749 96439 C 244353,88995 255775,78048 263796,64720 Z M 105236 66556 C 113257,79030 124422,89252 137512,96253 L 99268 96253 L 99268 56102 C 101065,59683 103054,63174 105236,66556 Z M 79632 67287 C 82392,62936 84830,58438 87076,53812 L 87076 96253 L 51142 96253 C 62628,88770 72381,78889 79632,67287 Z M 281314 96253 L 281314 53812 C 283496,58470 285934,62975 288758,67287 C 296009,78889 305698,88770 317184,96253 L 281314 96253 Z" fill="#2C5967" transform="translate(9177,126414)"/>
  <path d="M 342210 13 C 336370,-51 330724,2002 326361,5788 C 323986,7963 320970,9170 317761,9170 C 314553,9170 311537,7963 309163,5788 C 304800,2002 299153,-51 293314,13 C 287474,-45 281827,2002 277400,5788 C 275090,7976 272009,9195 268865,9195 C 265657,9195 262641,7976 260331,5788 C 255904,2053 250257,0 244417,0 C 238578,0 232995,2053 228504,5788 C 226257,8002 223177,9221 219969,9183 C 216760,9227 213680,8008 211370,5788 C 206943,2060 201296,13 195521,13 C 189746,13 184099,2060 179672,5788 C 177361,7963 174281,9170 171072,9170 C 167928,9170 164848,7963 162538,5788 C 158110,2002 152463,-51 146689,13 C 140849,-45 135138,2002 130711,5788 C 129556,6892 128273,7765 126796,8348 C 125320,8926 123780,9215 122176,9183 C 119032,9221 115952,8002 113642,5788 C 109214,2053 103567,0 97728,0 C 91953,0 86306,2053 81878,5788 C 79568,8002 76488,9221 73344,9183 C 71740,9215 70200,8926 68724,8348 C 67248,7765 65900,6892 64810,5788 C 60382,2002 54671,-45 48832,13 C 43057,-51 37410,2002 32982,5788 C 30672,7963 27592,9170 24448,9170 C 21239,9170 18159,7963 15849,5788 C 11421,1989 5775,-70 0,13 L 0 12570 C 3144,12532 6224,13751 8534,15965 C 12961,19700 18608,21753 24448,21753 C 30223,21753 35870,19700 40297,15965 C 42607,13751 45688,12532 48832,12570 C 52040,12526 55185,13745 57495,15965 C 61922,19693 67505,21740 73344,21740 C 79119,21740 84766,19693 89193,15965 C 91503,13796 94584,12583 97728,12583 C 100937,12583 104017,13796 106327,15965 C 110754,19693 116401,21740 122176,21740 C 128016,21740 133598,19693 138026,15965 C 140336,13745 143481,12526 146689,12570 C 149833,12532 152913,13751 155159,15965 C 159651,19706 165234,21753 171072,21740 C 176848,21753 182495,19706 186986,15965 C 189297,13777 192377,12558 195521,12558 C 198665,12558 201745,13777 204055,15965 C 208547,19706 214194,21753 219969,21740 C 225808,21753 231391,19706 235882,15965 C 238193,13796 241273,12583 244417,12583 C 247626,12583 250641,13796 253016,15965 C 257444,19693 263026,21740 268865,21740 C 274640,21740 280287,19693 284715,15965 C 287025,13745 290105,12526 293314,12570 C 296522,12532 299602,13751 301848,15965 C 306340,19700 311923,21753 317761,21753 C 323601,21753 329184,19700 333676,15965 C 335922,13751 339002,12532 342210,12570 C 345418,12526 348498,13745 350808,15965 C 355236,19732 360883,21779 366658,21740 L 366658 9183 C 363513,9221 360434,8002 358124,5788 C 353696,2002 348049,-45 342210,13 Z" fill="#2C5967" transform="translate(9177,308274)"/>
</svg>