<svg xmlns="http://www.w3.org/2000/svg" viewBox="0 0 385010 337617" width="40" height="35">
  <path d="M 371259 212308 C 364554,212295 358066,209927 352926,205615 C 350360,203690 349628,203138 347061,203138 C 344495,203138 343853,203690 341286,205615 C 336031,209940 329441,212308 322632,212308 C 315824,212308 309228,209940 303979,205615 C 301412,203690 300674,203138 298203,203138 C 295727,203138 294995,203690 292428,205615 C 287263,209882 280788,212250 274096,212308 C 267383,212295 260896,209927 255756,205615 C 253190,203690 252458,203138 249891,203138 C 247325,203138 246683,203690 244116,205615 C 238880,209933 232296,212295 225507,212295 C 218718,212295 212141,209933 206898,205615 C 204242,203690 203600,203138 201034,203138 C 198467,203138 197825,203690 195258,205615 C 190003,209940 183406,212308 176605,212308 C 169796,212308 163199,209940 157951,205615 C 155384,203690 154646,203138 152176,203138 C 149699,203138 148967,203690 146400,205615 C 141235,209882 134760,212250 128061,212308 C 121355,212295 114868,209927 109728,205615 C 107161,203690 106430,203138 103863,203138 C 101296,203138 100655,203690 98088,205615 C 92852,209933 86268,212295 79479,212295 C 72690,212295 66106,209933 60870,205615 C 58214,203690 57572,203138 55005,203138 C 52438,203138 51797,203690 49230,205615 C 44090,209927 37603,212295 30897,212308 C 24192,212282 17704,209914 12558,205615 C 9991,203690 9350,203138 6783,203138 L 0 203138 L 0 157302 L 4588 157302 C 11268,157264 17756,159568 22921,163809 C 23659,164624 24570,165266 25584,165689 C 26591,166119 27689,166324 28786,166286 C 31263,166286 31995,165734 34561,163905 C 39663,159523 46169,157116 52894,157123 C 59606,157116 66100,159484 71227,163809 C 73890,165734 74532,166286 77098,166286 C 79665,166286 80307,165734 82874,163905 C 83932,163013 85068,162218 86262,161518 L 86262 142088 L 0 142088 L 0 96253 L 12192 96253 C 68757,96253 87090,32540 87090,10633 L 87090 0 L 108445 0 L 108445 10633 C 108804,28786 114098,46503 123755,61878 C 130840,72613 140625,81301 152131,87064 C 163636,92820 176457,95451 189297,94693 C 202085,95271 214797,92396 226091,86364 C 237385,80326 246843,71362 253465,60408 C 262513,45329 267589,28202 268224,10633 L 268224 0 L 289676 0 L 289676 10633 C 289676,32540 308008,96253 364477,96253 L 375847 96253 L 375847 142088 L 290317 142088 L 290317 158310 C 294771,157116 299442,156994 303947,157951 C 308458,158907 312673,160915 316261,163809 C 318827,165734 319559,166286 322036,166286 C 323178,166324 324314,166125 325366,165702 C 326425,165272 327381,164631 328177,163809 C 333285,159433 339785,157027 346509,157027 C 353222,157027 359715,159395 364842,163719 C 367506,165645 368147,166196 370714,166196 L 375296 166196 L 375296 212032 L 371259 212308 Z" fill="#FFFFFF" transform="translate(4581,120361)"/>
  <path d="M 290317 9170 L 290317 15221 C 290317,38322 309844,105422 369700,105422 L 375841 105422 L 375841 142088 L 290317 142088 L 290317 169591 C 294001,167409 298229,166331 302509,166472 C 308310,166460 313931,168506 318365,172247 C 320694,174423 323755,175629 326938,175629 C 330121,175629 333182,174423 335511,172247 C 339945,168506 345566,166460 351367,166472 C 357200,166460 362847,168506 367319,172247 C 369597,174461 372664,175681 375841,175642 L 375841 212308 C 370027,212391 364387,210338 359985,206533 C 357668,204312 354576,203093 351367,203145 C 348191,203099 345123,204319 342846,206533 C 338386,210274 332752,212321 326938,212321 C 321125,212321 315491,210274 311031,206533 C 308753,204319 305686,203099 302509,203145 C 299301,203093 296208,204312 293891,206533 C 289451,210267 283836,212308 278035,212308 C 272234,212308 266613,210267 262173,206533 C 259850,204364 256783,203157 253600,203157 C 250424,203157 247356,204364 245033,206533 C 240625,210318 234985,212372 229171,212308 C 223332,212372 217666,210318 213225,206533 C 210922,204351 207874,203132 204697,203132 C 201521,203132 198473,204351 196169,206533 C 191716,210274 186082,212321 180268,212321 C 174448,212321 168821,210274 164361,206533 C 162083,204319 159016,203099 155840,203145 C 152631,203093 149538,204312 147222,206533 C 142781,210267 137160,212308 131359,212308 C 125558,212308 119944,210267 115503,206533 C 113180,204364 110113,203157 106930,203157 C 103748,203157 100687,204364 98364,206533 C 93917,210267 88302,212308 82501,212308 C 76701,212308 71086,210267 66645,206533 C 64329,204312 61236,203093 58028,203145 C 54845,203099 51784,204319 49499,206533 C 45085,210306 39451,212359 33643,212308 C 27804,212372 22138,210318 17691,206533 C 15413,204319 12346,203099 9170,203145 L 9170 166472 C 14977,166434 20604,168481 25026,172247 C 27349,174423 30416,175629 33599,175629 C 36781,175629 39842,174423 42165,172247 C 46599,168506 52220,166460 58028,166472 C 63861,166460 69507,168506 73980,172247 C 75103,173351 76431,174224 77901,174808 C 79363,175385 80929,175674 82501,175642 C 85684,175681 88745,174461 91029,172247 C 92672,171003 94424,169899 96253,168949 L 96253 142088 L 9170 142088 L 9170 105422 L 16774 105422 C 76726,105422 96253,38322 96253,15221 L 96253 9170 L 108445 9170 L 108445 15221 C 108919,34292 114528,52875 124673,69032 C 132116,80487 142454,89772 154639,95951 C 166825,102131 180422,104986 194064,104229 C 207732,104922 221330,101874 233400,95412 C 245463,88950 255538,79325 262539,67563 C 272074,51784 277407,33830 278035,15401 L 278035 9356 L 290317 9356 M 299481 186 L 268866 186 L 268866 15401 C 268166,32129 263315,48415 254749,62795 C 248575,73229 239643,81763 228940,87455 C 218230,93147 206167,95778 194064,95066 C 181975,95906 169886,93500 159041,88104 C 148197,82700 138989,74506 132373,64355 C 123120,49737 118019,32880 117614,15587 L 117614 0 L 87083 0 L 87083 15221 C 87083,36031 69757,96253 16774,96253 L 0 96253 L 0 151258 L 87083 151258 L 87083 163816 L 85530 164913 C 83509,166472 83509,166472 82501,166472 C 81494,166472 81494,166472 79479,165009 C 73441,160055 65882,157347 58072,157347 C 50263,157347 42704,160055 36666,165009 C 34651,166568 34651,166568 33643,166568 C 32636,166568 32636,166568 30525,165099 C 24583,160004 16992,157238 9170,157309 L 0 157309 L 0 212308 L 9170 212308 C 10177,212308 10177,212308 12192,213867 C 18224,218853 25821,221548 33643,221477 C 41389,221638 48948,219078 54999,214233 C 57020,212673 57020,212673 58028,212673 C 59035,212673 59035,212673 61050,214233 C 67140,219071 74724,221638 82501,221477 C 90253,221651 97818,219090 103863,214233 C 105878,212673 105878,212673 106885,212673 C 107893,212673 107989,212673 110004,214233 C 116036,219148 123582,221830 131359,221830 C 139143,221830 146689,219148 152721,214233 C 154832,212673 154832,212673 155840,212673 C 156847,212673 156847,212673 158862,214233 C 164913,219155 172472,221843 180268,221843 C 188065,221843 195624,219155 201675,214233 C 203690,212673 203690,212673 204697,212673 C 205705,212673 205705,212673 207719,214233 C 213771,219155 221330,221843 229126,221843 C 236923,221843 244482,219155 250533,214233 C 252548,212673 252548,212673 253555,212673 C 254563,212673 254563,212673 256674,214233 C 262706,219148 270252,221830 278035,221830 C 285813,221830 293359,219148 299391,214233 C 301502,212673 301502,212673 302509,212673 C 303517,212673 303517,212673 305532,214233 C 311583,219155 319142,221843 326938,221843 C 334734,221843 342294,219155 348345,214233 C 350359,212673 350359,212673 351367,212673 C 352374,212673 352374,212673 354486,214233 C 360479,219219 368045,221914 375841,221843 L 385011 221843 L 385011 166838 L 375841 166838 C 374833,166838 374833,166838 372818,165375 C 366787,160421 359221,157713 351412,157713 C 343609,157713 336044,160421 330012,165375 C 327991,166934 327991,166934 326893,166934 C 325789,166934 325886,166934 323865,165465 C 317967,160254 310383,157354 302509,157309 L 299481 157309 L 299481 151168 L 385011 151168 L 385011 96163 L 369700 96163 C 316716,96163 299481,35935 299481,15131 L 299481 0 L 299481 186 Z" fill="#FFFFFF" transform="translate(0,115773)"/>
  <path d="M 71827 143648 L 67156 143648 C 48162,142403 30439,133670 17881,119373 C 5317,105070 -1062,86371 145,67377 C 1242,49153 9250,32040 22540,19514 C 35829,6995 53392,13 71648,0 L 76319 0 C 85745,597 94960,3048 103437,7206 C 111913,11371 119485,17165 125722,24256 C 131953,31353 136727,39605 139763,48543 C 142804,57489 144049,66941 143427,76361 C 142259,94572 134218,111653 120923,124147 C 107627,136647 90077,143616 71827,143648 Z" fill="#FFFFFF" transform="translate(121499,4582)"/>
  <path d="M 76295 9170 C 77758,9073 79227,9073 80697,9170 C 98266,10062 114783,17813 126706,30756 C 138622,43699 144994,60800 144442,78382 C 143890,95970 136459,112635 123754,124801 C 111042,136974 94070,143673 76481,143461 L 72169 143461 C 58899,142627 46174,137872 35606,129800 C 25037,121734 17106,110710 12807,98126 C 8507,85543 8039,71965 11459,59118 C 14879,46272 22034,34722 32019,25943 C 44223,15118 59983,9151 76295,9170 Z M 76295 0 C 61607,13 47233,4261 34894,12237 C 22560,20219 12787,31584 6749,44976 C 711,58368 -1336,73216 852,87744 C 3047,102265 9374,115856 19095,126867 C 25692,134420 33726,140587 42729,145008 C 51725,149429 61517,152022 71527,152631 L 76481 152631 C 96527,152952 115899,145380 130415,131539 C 144930,117698 153412,98704 154035,78664 C 154664,58618 147381,39136 133758,24416 C 120141,9696 101276,924 81242,0 L 76295 0 Z" fill="#FFFFFF" transform="translate(116852,0)"/>
  <path d="M 0 12192 L 87083 12192 L 87083 39143 C 85254,40099 83502,41203 81859,42447 C 79575,44661 76515,45881 73332,45836 C 71759,45868 70194,45585 68731,45001 C 67261,44417 65933,43551 64810,42447 C 60337,38700 54691,36660 48858,36672 C 43050,36653 37429,38700 32995,42447 C 30672,44616 27612,45823 24429,45823 C 21246,45823 18179,44616 15856,42447 C 11435,38681 5807,36627 0,36672 L 0 48864 C 3176,48820 6243,50039 8522,52252 C 12968,56038 18634,58092 24474,58028 C 30281,58079 35915,56026 40330,52252 C 42614,50039 45681,48820 48858,48864 C 52066,48813 55159,50032 57475,52252 C 61916,55987 67531,58028 73332,58028 C 79132,58028 84747,55987 89194,52252 C 91517,50083 94578,48877 97760,48877 C 100943,48877 104010,50083 106333,52252 C 110774,55987 116389,58028 122189,58028 C 127990,58028 133611,55987 138052,52252 C 140368,50032 143461,48813 146670,48864 C 149846,48820 152913,50039 155191,52252 C 159600,56045 165240,58092 171054,58028 C 176893,58092 182559,56038 186999,52252 C 189303,50071 192358,48852 195528,48852 C 198704,48852 201752,50071 204056,52252 C 208496,56038 214162,58092 220001,58028 C 225815,58092 231456,56045 235864,52252 C 238186,50083 241254,48877 244430,48877 C 247613,48877 250680,50083 253003,52252 C 257444,55987 263065,58028 268865,58028 C 274666,58028 280281,55987 284722,52252 C 287038,50032 290131,48813 293339,48864 C 296516,48820 299583,50039 301861,52252 C 306321,55993 311955,58041 317768,58041 C 323588,58041 329216,55993 333676,52252 C 335954,50039 339021,48820 342197,48864 C 345406,48813 348499,50032 350815,52252 C 355217,56058 360857,58111 366671,58028 L 366671 45836 C 363495,45881 360428,44661 358149,42447 C 353677,38700 348030,36660 342197,36672 C 336397,36653 330775,38700 326341,42447 C 324012,44616 320951,45823 317768,45823 C 314585,45823 311525,44616 309196,42447 C 304761,38700 299140,36653 293339,36672 C 289040,36583 284812,37725 281147,39971 L 281147 12468 L 366671 12468 L 366671 0 L 0 0 L 0 12192 Z M 268865 45836 C 265683,45881 262615,44661 260338,42447 C 255878,38707 250250,36660 244430,36660 C 238617,36660 232983,38707 228530,42447 C 226245,44661 223184,45881 220001,45836 C 216800,45887 213700,44668 211383,42447 C 206943,38713 201328,36672 195528,36672 C 189726,36672 184112,38713 179672,42447 C 177342,44616 174281,45823 171099,45823 C 167916,45823 164855,44616 162526,42447 C 158092,38700 152471,36653 146670,36672 C 140837,36660 135190,38700 130717,42447 C 129594,43551 128260,44417 126797,45001 C 125334,45585 123768,45868 122189,45836 C 119013,45881 115946,44661 113668,42447 C 109599,39066 104556,37077 99275,36762 L 99275 12192 L 268865 12192 L 268865 45836 Z" fill="#2C5967" transform="translate(9169,245579)"/>
  <path d="M 366671 96253 L 360530 96253 C 300674,96253 281147,29242 281147,6141 L 281147 0 L 268865 0 L 268865 6141 C 268269,24628 262937,42653 253369,58483 C 246368,70245 236294,79871 224230,86332 C 212160,92794 198563,95842 184895,95149 C 171285,95945 157713,93147 145527,87032 C 133348,80916 122992,71702 115503,60318 C 105358,44161 99750,25571 99275,6507 L 99275 366 L 87083 366 L 87083 6507 C 87083,29607 67556,96618 7604,96618 L 0 96618 L 0 108900 L 366671 108900 L 366671 96253 Z M 263822 64714 C 265676,61756 267358,58695 268865,55550 L 268865 96432 L 230730 96432 C 244385,88989 255807,78042 263822,64714 Z M 105236 66639 C 113276,79113 124384,89303 137500,96253 L 99275 96253 L 99275 56096 C 100834,59677 103035,63154 105236,66639 Z M 79659 67646 C 82399,63309 84882,58810 87083,54171 L 87083 96618 L 51149 96618 C 62654,89162 72388,79274 79659,67646 Z M 281327 96618 L 281327 53805 C 283387,58599 285806,63225 288572,67646 C 295810,79267 305506,89162 316992,96618 L 281327 96618 Z" fill="#2C5967" transform="translate(9169,124859)"/>
  <path d="M 342197 13 C 336384,-51 330750,2002 326341,5788 C 324012,7963 320951,9169 317768,9169 C 314585,9169 311525,7963 309196,5788 C 304787,2002 299153,-51 293339,13 C 287500,-51 281834,2002 277387,5788 C 275090,7976 272036,9195 268865,9195 C 265689,9195 262635,7976 260338,5788 C 255878,2053 250250,0 244430,0 C 238617,0 232983,2053 228530,5788 C 226245,8002 223184,9221 220001,9182 C 216800,9227 213700,8008 211383,5788 C 206943,2060 201328,13 195528,13 C 189726,13 184112,2060 179672,5788 C 177342,7963 174281,9169 171099,9169 C 167916,9169 164855,7963 162526,5788 C 158117,2002 152483,-51 146670,13 C 140830,-51 135164,2002 130717,5788 C 129594,6892 128260,7764 126797,8342 C 125334,8926 123768,9214 122189,9182 C 119013,9221 115946,8002 113668,5788 C 109208,2053 103580,0 97760,0 C 91947,0 86313,2053 81859,5788 C 79575,8002 76515,9221 73332,9182 C 71759,9214 70194,8926 68731,8342 C 67261,7764 65933,6892 64810,5788 C 60363,2002 54697,-51 48858,13 C 43044,-51 37410,2002 32995,5788 C 30672,7963 27612,9169 24429,9169 C 21246,9169 18179,7963 15856,5788 C 11454,1989 5814,-71 0,13 L 0 12205 C 3176,12160 6243,13386 8522,15599 C 12968,19385 18634,21432 24474,21374 C 30281,21419 35915,19372 40330,15599 C 42614,13386 45681,12160 48858,12205 C 52066,12160 55159,13379 57475,15599 C 61916,19327 67531,21374 73332,21374 C 79132,21374 84747,19327 89194,15599 C 91517,13424 94578,12218 97760,12218 C 100943,12218 104010,13424 106333,15599 C 110774,19327 116389,21374 122189,21374 C 127990,21374 133611,19327 138052,15599 C 140368,13379 143461,12160 146670,12205 C 149846,12160 152913,13386 155191,15599 C 159600,19385 165240,21439 171054,21374 C 176893,21432 182559,19385 186999,15599 C 189303,13411 192358,12192 195528,12192 C 198704,12192 201752,13411 204056,15599 C 208496,19385 214162,21432 220001,21374 C 225815,21439 231456,19385 235864,15599 C 238186,13424 241254,12218 244430,12218 C 247613,12218 250680,13424 253003,15599 C 257444,19327 263065,21374 268865,21374 C 274666,21374 280281,19327 284722,15599 C 287038,13379 290131,12160 293339,12205 C 296516,12160 299583,13386 301861,15599 C 306321,19334 311955,21381 317768,21381 C 323588,21381 329216,19334 333676,15599 C 335954,13386 339021,12160 342197,12205 C 345406,12160 348499,13379 350815,15599 C 355217,19398 360857,21451 366671,21374 L 366671 9182 C 363495,9221 360428,8002 358149,5788 C 353703,2002 348037,-51 342197,13 Z" fill="#2C5967" transform="translate(9169,306713)"/>
  <path d="M 62975 134426 L 67287 134426 C 84477,134009 100853,127028 113058,114906 C 125257,102791 132360,86460 132899,69276 C 133438,52085 127374,35344 115959,22484 C 104543,9625 88629,1630 71503,135 C 62686,-423 53850,757 45495,3613 C 37141,6462 29434,10941 22805,16774 C 16177,22607 10767,29691 6872,37615 C 2984,45547 699,54158 135,62975 C -423,71785 757,80621 3613,88976 C 6468,97330 10941,105044 16774,111672 C 22613,118294 29697,123710 37622,127599 C 45547,131487 54164,133778 62975,134336 L 62975 134426 Z M 103863 42762 C 100982,39399 97080,37089 92755,36178 C 88424,35267 83919,35806 79934,37718 L 67832 43769 L 71317 50731 L 60870 55961 L 64810 63751 L 75629 58618 L 79107 65587 L 68750 70810 L 72144 77778 L 82591 72549 L 86538 80345 L 98633 74294 C 102182,72343 105082,69392 106956,65805 C 108830,62218 109606,58156 109176,54126 L 119443 48807 C 122375,57090 123274,65959 122074,74660 C 120874,83368 117601,91652 112539,98839 C 107476,106019 100770,111878 92974,115933 C 85184,119988 76527,122119 67743,122144 L 63706 122144 C 55037,121631 46618,119064 39130,114669 C 31641,110273 25301,104164 20624,96843 L 33182 90792 C 35370,93211 38103,95065 41158,96201 C 46182,97805 51630,97408 56378,95104 L 70219 88135 L 66459 80345 L 55185 85934 L 51700 79062 L 63065 73466 L 59587 66594 L 48126 72093 L 44366 64303 L 55640 58618 L 52156 51745 L 38225 58708 C 34529,60716 31551,63828 29710,67608 C 27868,71387 27259,75648 27958,79793 L 15490 85844 C 12981,78953 11916,71618 12371,64303 C 13264,50327 19443,37218 29665,27644 C 39887,18070 53375,12756 67377,12782 L 71041 12782 C 79672,13353 88045,15946 95483,20360 C 102920,24769 109215,30878 113854,38174 L 103863 42762 Z" fill="#2C5967" transform="translate(126046,9035)"/>
</svg>