<svg xmlns="http://www.w3.org/2000/svg" viewBox="0 0 385010 339176" width="40" height="36">
  <path d="M 371259 212397 C 364554,212384 358066,210017 352926,205705 C 350270,203690 349628,203234 347061,203234 C 344495,203234 343853,203779 341286,205705 C 336031,210036 329441,212404 322632,212404 C 315824,212404 309228,210036 303979,205705 C 301412,203690 300674,203234 298203,203234 C 295727,203234 294995,203234 292428,205615 C 287186,209978 280589,212365 273775,212365 C 266953,212365 260357,209978 255115,205615 C 252548,203690 251816,203138 249250,203138 C 246683,203138 246041,203690 243474,205615 C 238238,209940 231655,212301 224866,212301 C 218076,212301 211499,209940 206257,205615 C 203600,203690 202958,203138 200392,203138 C 197825,203138 197183,203690 194617,205525 C 189509,209901 183008,212308 176283,212308 C 169578,212295 163084,209927 157951,205615 C 155384,203690 154646,203138 152176,203138 C 149699,203138 148967,203690 146400,205525 C 141158,209888 134561,212276 127740,212276 C 120926,212276 114329,209888 109086,205525 C 106520,203600 105788,203048 103221,203048 C 100655,203048 100013,203600 97446,205525 C 92306,209837 85819,212205 79114,212218 C 72401,212237 65901,209863 60780,205525 C 58117,203600 57476,203048 54909,203048 C 52342,203048 51701,203600 49134,205435 C 44032,209811 37526,212218 30801,212218 C 24095,212198 17608,209830 12468,205525 C 9901,203600 9259,203048 6693,203048 L 0 203048 L 0 157213 L 4588 157213 C 11294,157225 17781,159593 22921,163905 C 25488,165830 26219,166382 28786,166382 C 31353,166382 31995,165830 34561,163905 C 39797,159587 46381,157219 53170,157219 C 59959,157219 66543,159587 71779,163905 C 74436,165830 75077,166382 77644,166382 C 80211,166382 80852,165830 83419,163905 L 86813 161525 L 86813 142088 L 0 142088 L 0 96253 L 12192 96253 C 68757,96253 87090,32636 87090,10729 L 87090 0 L 108445 0 L 108445 10729 C 108804,28882 114098,46593 123755,61967 C 130852,72690 140645,81359 152150,87102 C 163649,92845 176463,95463 189297,94693 C 202079,95296 214791,92434 226085,86415 C 237372,80403 246837,71445 253465,60504 C 262500,45418 267582,28298 268224,10729 L 268224 0 L 289676 0 L 289676 10729 C 289676,32636 308008,96253 364477,96253 L 375847 96253 L 375847 142088 L 290317 142088 L 290317 158316 C 294835,157168 299557,157090 304113,158092 C 308663,159093 312917,161146 316537,164091 C 319103,166016 319835,166562 322401,166562 C 324968,166562 325610,166016 328177,164091 C 333419,159766 339996,157405 346786,157405 C 353575,157405 360158,159766 365394,164091 C 368051,166016 368693,166562 371259,166562 L 375847 166562 L 375847 212397 L 371259 212397 Z" fill="#FFFFFF" transform="translate(4582,121830)"/>
  <path d="M 290317 9350 L 290317 15490 C 290317,38591 309844,105602 369700,105602 L 375841 105602 L 375841 142274 L 290317 142274 L 290317 169771 C 294045,167756 298274,166832 302509,167114 C 308323,167050 313957,169103 318365,172889 C 320694,175058 323755,176271 326938,176271 C 330121,176271 333182,175058 335511,172889 C 339920,169103 345553,167050 351367,167114 C 357206,167050 362872,169103 367319,172889 C 369597,175103 372664,176322 375841,176284 L 375841 212950 C 370034,212988 364406,210941 359985,207174 C 357668,204954 354576,203735 351367,203780 C 348191,203741 345123,204961 342846,207174 C 338386,210909 332752,212962 326938,212962 C 321125,212962 315491,210909 311031,207174 C 308753,204961 305686,203741 302509,203780 C 299301,203735 296208,204954 293891,207174 C 289451,210902 283836,212950 278035,212950 C 272234,212950 266613,210902 262173,207174 C 259850,204999 256783,203793 253600,203793 C 250424,203793 247356,204999 245033,207174 C 240599,210915 234978,212962 229171,212950 C 223345,212962 217691,210915 213225,207174 C 210922,204986 207874,203767 204697,203767 C 201521,203767 198473,204986 196169,207174 C 191703,210915 186050,212962 180223,212950 C 174416,212962 168795,210915 164361,207174 C 162083,204961 159016,203741 155840,203780 C 152631,203735 149538,204954 147222,207174 C 142781,210902 137160,212950 131359,212950 C 125558,212950 119944,210902 115503,207174 C 113180,204999 110113,203793 106930,203793 C 103748,203793 100687,204999 98364,207174 C 93917,210902 88302,212950 82501,212950 C 76701,212950 71086,210902 66645,207174 C 64329,204954 61236,203735 58028,203780 C 54845,203741 51784,204961 49499,207174 C 45046,210909 39412,212962 33599,212962 C 27778,212962 22151,210909 17691,207174 C 15413,204961 12346,203741 9170,203780 L 9170 167114 C 14983,167031 20624,169084 25026,172889 C 27349,175058 30416,176271 33599,176271 C 36781,176271 39842,175058 42165,172889 C 46580,169103 52214,167050 58028,167114 C 63867,167050 69533,169103 73980,172889 C 75103,173993 76431,174866 77901,175443 C 79363,176027 80929,176309 82501,176284 C 85684,176322 88745,175103 91029,172889 C 92691,171644 94437,170515 96253,169494 L 96253 142274 L 9170 142274 L 9170 105602 L 16774 105602 C 76726,105602 96253,38591 96253,15490 L 96253 9350 L 108445 9350 L 108445 15490 C 108907,34536 114515,53100 124673,69212 C 132135,80628 142486,89868 154672,96002 C 166857,102137 180448,104941 194064,104139 C 207732,104832 221330,101784 233400,95322 C 245463,88861 255538,79229 262539,67467 C 272074,51694 277407,33733 278035,15311 L 278035 9170 L 290317 9170 M 299481 0 L 268866 0 L 268866 15311 C 268192,32007 263335,48274 254749,62609 C 248569,73037 239637,81552 228927,87231 C 218224,92903 206160,95521 194064,94790 C 181975,95624 169886,93224 159041,87821 C 148197,82425 138989,74230 132373,64079 C 123120,49461 118019,32604 117614,15311 L 117614 186 L 87083 186 L 87083 15490 C 87083,36210 69757,96439 16774,96439 L 0 96439 L 0 151438 L 87083 151438 L 87083 164092 L 85530 165189 C 83509,167114 83509,167114 82501,167114 C 81494,167114 81494,167114 79479,165555 C 73428,160633 65869,157951 58072,157951 C 50276,157951 42717,160633 36666,165555 C 34651,167114 34651,167114 33643,167114 C 32636,167114 32636,167114 30525,165555 C 24532,160569 16966,157874 9170,157944 L 0 157944 L 0 212950 L 9170 212950 C 10177,212950 10177,212950 12192,214509 C 18224,219494 25821,222190 33643,222113 C 41485,222074 49050,219244 54999,214143 C 57020,212584 57020,212584 58028,212584 C 59035,212584 59035,212584 61146,214143 C 67178,219052 74718,221734 82501,221734 C 90285,221734 97825,219052 103863,214143 C 105878,212584 105878,212584 106885,212584 C 107893,212584 107989,212584 110004,214143 C 116036,219052 123582,221734 131359,221734 C 139143,221734 146689,219052 152721,214143 C 154832,212584 154832,212584 155840,212584 C 156847,212584 156847,212584 158862,214143 C 164913,219058 172472,221747 180268,221747 C 188065,221747 195624,219058 201675,214143 C 203690,212584 203690,212584 204697,212584 C 205705,212584 205705,212584 207719,214047 C 213758,219001 221323,221708 229126,221708 C 236936,221708 244501,219001 250533,214047 C 252548,212487 252548,212487 253555,212487 C 254563,212487 254563,212487 256674,214047 C 262706,218962 270252,221644 278035,221644 C 285813,221644 293359,218962 299391,214047 C 301502,212487 301502,212487 302509,212487 C 303517,212487 303517,212487 305532,214047 C 311583,218968 319142,221657 326938,221657 C 334734,221657 342294,218968 348345,214047 C 350359,212487 350359,212487 351367,212487 C 352374,212487 352374,212487 354486,214047 C 360415,219200 367987,222061 375841,222113 L 385011 222113 L 385011 167114 L 375841 167114 C 374833,167114 374833,167114 372818,165555 C 366767,160633 359208,157951 351412,157951 C 343616,157951 336056,160633 330012,165555 C 327991,167114 327991,167114 326893,167114 C 325789,167114 325886,167114 323865,165555 C 317865,160582 310299,157887 302509,157944 L 299481 157944 L 299481 151713 L 385011 151713 L 385011 96715 L 369700 96715 C 316716,96715 299481,36486 299481,15766 L 299481 186 L 299481 0 Z" fill="#FFFFFF" transform="translate(0,117062)"/>
  <path d="M 94417 159413 C 91960,161191 89098,162333 86095,162731 C 83085,163129 80024,162776 77188,161704 C 73826,160466 70932,158233 68878,155300 C 66831,152361 65734,148870 65728,145296 L 65728 140529 L 21362 140529 L 21362 128337 L 0 128337 L 0 0 L 128337 0 L 128337 21355 L 140529 21355 L 140529 108996 L 143096 111287 C 145592,113494 147414,116357 148364,119552 C 149307,122741 149339,126136 148454,129350 C 147562,132559 145791,135453 143340,137705 C 140882,139958 137847,141478 134574,142088 L 146028 168121 L 105422 185447 L 94417 159413 Z" fill="#FFFFFF" transform="translate(114586,4588)"/>
  <path d="M 128337 9170 L 128337 30531 L 140529 30531 L 140529 115600 L 144559 119263 C 146497,121092 147831,123460 148402,126059 C 148973,128658 148755,131365 147767,133842 C 146804,136287 145130,138379 142955,139855 C 140779,141324 138206,142107 135575,142088 L 132277 142088 L 144559 169591 L 112750 183984 L 100834 155840 L 98543 158406 C 97305,159773 95790,160864 94097,161608 C 92409,162353 90580,162731 88732,162718 C 87044,162725 85363,162410 83785,161801 C 81295,160896 79145,159253 77618,157091 C 76091,154928 75269,152349 75257,149698 L 75257 140529 L 30525 140529 L 30525 128337 L 9163 128337 L 9163 9170 L 128337 9170 Z M 137500 0 L 0 0 L 0 137507 L 21355 137507 L 21355 149698 L 65728 149698 C 65805,153363 66767,156949 68538,160158 C 70303,163366 72825,166093 75879,168115 C 78933,170130 82437,171381 86082,171747 C 89727,172119 93403,171599 96804,170232 L 104408 187468 L 108079 195900 L 116421 192505 L 148319 178574 L 156661 174814 L 152997 166472 L 145386 149147 C 148685,147562 151540,145194 153709,142249 C 155878,139303 157296,135870 157829,132251 C 158361,128632 158002,124936 156776,121490 C 155550,118044 153497,114951 150796,112481 L 149692 111473 L 149692 21362 L 137500 21362 L 137500 0 Z" fill="#FFFFFF" transform="translate(110004,0)"/>
  <path d="M 0 11826 L 87083 11826 L 87083 38680 C 85248,39662 83502,40798 81859,42075 C 80756,43237 79441,44167 77977,44815 C 76508,45457 74929,45803 73332,45836 C 71759,45861 70194,45579 68724,44995 C 67261,44417 65933,43544 64810,42441 C 60363,38655 54697,36602 48858,36666 C 43044,36602 37410,38655 32995,42441 C 30672,44610 27612,45823 24429,45823 C 21246,45823 18179,44610 15856,42441 C 11454,38636 5814,36582 0,36666 L 0 48858 C 3176,48813 6243,50038 8522,52252 C 12968,56038 18634,58085 24474,58027 C 30281,58072 35915,56025 40330,52252 C 42614,50038 45675,48813 48858,48858 C 52066,48813 55159,50032 57475,52252 C 61916,55981 67531,58027 73332,58027 C 79132,58027 84747,55981 89194,52252 C 91517,50077 94578,48870 97760,48870 C 100943,48870 104010,50077 106333,52252 C 110774,55981 116389,58027 122189,58027 C 127990,58027 133611,55981 138052,52252 C 140368,50032 143461,48813 146670,48858 C 149846,48813 152913,50038 155191,52252 C 159600,56038 165240,58092 171054,58027 C 176893,58085 182559,56038 186999,52252 C 189303,50064 192351,48845 195528,48845 C 198697,48845 201752,50064 204056,52252 C 208496,56038 214162,58085 220001,58027 C 225815,58092 231456,56038 235864,52252 C 238186,50077 241254,48870 244430,48870 C 247613,48870 250680,50077 253003,52252 C 257444,55981 263065,58027 268865,58027 C 274666,58027 280281,55981 284722,52252 C 287038,50032 290131,48813 293339,48858 C 296516,48813 299583,50038 301861,52252 C 306321,55987 311955,58034 317768,58034 C 323582,58034 329216,55987 333676,52252 C 335954,50038 339021,48813 342197,48858 C 345406,48813 348499,50032 350815,52252 C 355217,56051 360857,58104 366671,58027 L 366671 45836 C 363495,45874 360428,44655 358149,42441 C 353703,38655 348037,36602 342197,36666 C 336384,36602 330750,38655 326341,42441 C 324012,44610 320951,45823 317768,45823 C 314585,45823 311525,44610 309196,42441 C 304787,38655 299153,36602 293339,36666 C 289040,36576 284812,37724 281147,39964 L 281147 12468 L 366671 12468 L 366671 0 L 0 0 L 0 11826 Z M 268865 45836 C 265683,45874 262615,44655 260338,42441 C 255878,38706 250250,36653 244430,36653 C 238617,36653 232983,38706 228530,42441 C 226245,44655 223184,45874 220001,45836 C 216800,45880 213700,44661 211383,42441 C 206943,38713 201328,36666 195528,36666 C 189726,36666 184112,38713 179672,42441 C 177342,44610 174281,45823 171099,45823 C 167916,45823 164855,44610 162526,42441 C 158117,38655 152477,36602 146670,36666 C 140830,36602 135164,38655 130717,42441 C 129594,43544 128260,44417 126797,44995 C 125334,45579 123768,45861 122189,45836 C 119013,45874 115946,44655 113668,42441 C 109632,38989 104575,36961 99275,36666 L 99275 11826 L 268865 11826 L 268865 45836 Z" fill="#2C5967" transform="translate(9170,247511)"/>
  <path d="M 362089 96253 L 360530 96253 C 300674,96253 281147,29242 281147,6141 L 281147 0 L 268865 0 L 268865 6141 C 268237,24564 262905,42525 253369,58297 C 246368,70059 236294,79691 224230,86153 C 212160,92614 198563,95662 184895,94969 C 171278,95771 157687,92967 145502,86833 C 133316,80698 122966,71458 115503,60042 C 105345,43923 99737,25366 99275,6320 L 99275 180 L 87083 180 L 87083 6320 C 87083,29421 67556,96432 7604,96432 L 0 96432 L 0 108721 L 366671 108721 L 366671 96253 L 362089 96253 Z M 263822 64714 C 265657,61749 267338,58688 268865,55550 L 268865 96432 L 230730 96432 C 244385,88989 255807,78042 263822,64714 Z M 105236 66549 C 113296,79030 124397,89246 137500,96253 L 99275 96253 L 99275 56102 C 101084,59683 103074,63167 105236,66549 Z M 79659 67280 C 82380,62930 84856,58432 87083,53805 L 87083 96253 L 51149 96253 C 62635,88770 72363,78889 79659,67280 Z M 281327 96253 L 281327 53805 C 283483,58470 285960,62975 288758,67280 C 296015,78882 305711,88770 317172,96253 L 281327 96253 Z" fill="#2C5967" transform="translate(9170,126418)"/>
  <path d="M 342197 13 C 336384,-51 330750,2002 326341,5788 C 324012,7957 320951,9163 317768,9163 C 314585,9163 311525,7957 309196,5788 C 304787,2002 299153,-51 293339,13 C 287500,-51 281834,2002 277387,5788 C 275090,7970 272036,9189 268865,9189 C 265689,9189 262635,7970 260338,5788 C 255878,2047 250250,0 244430,0 C 238617,0 232983,2047 228530,5788 C 226245,8002 223184,9221 220001,9176 C 216800,9227 213700,8008 211383,5788 C 206943,2053 201328,13 195528,13 C 189726,13 184112,2053 179672,5788 C 177342,7957 174281,9163 171099,9163 C 167916,9163 164855,7957 162526,5788 C 158117,2002 152477,-51 146670,13 C 140830,-51 135164,2002 130717,5788 C 129594,6892 128260,7758 126797,8342 C 125334,8926 123768,9208 122189,9176 C 119013,9221 115946,8002 113668,5788 C 109208,2047 103580,0 97760,0 C 91947,0 86313,2047 81859,5788 C 79575,8002 76508,9221 73332,9176 C 71759,9208 70194,8926 68724,8342 C 67261,7758 65933,6892 64810,5788 C 60363,2002 54697,-51 48858,13 C 43044,-51 37410,2002 32995,5788 C 30672,7957 27612,9163 24429,9163 C 21246,9163 18179,7957 15856,5788 C 11454,1983 5814,-70 0,13 L 0 12570 C 3176,12526 6243,13745 8522,15959 C 12981,19700 18609,21747 24429,21747 C 30243,21747 35877,19700 40330,15959 C 42614,13745 45675,12526 48858,12570 C 52066,12526 55159,13745 57475,15959 C 61916,19693 67531,21740 73332,21740 C 79132,21740 84747,19693 89194,15959 C 91517,13790 94578,12583 97760,12583 C 100943,12583 104010,13790 106333,15959 C 110774,19693 116389,21740 122189,21740 C 127990,21740 133611,19693 138052,15959 C 140368,13745 143461,12526 146670,12570 C 149846,12526 152913,13745 155191,15959 C 159625,19706 165247,21753 171054,21734 C 176880,21753 182533,19706 186999,15959 C 189303,13777 192351,12558 195528,12558 C 198697,12558 201752,13777 204056,15959 C 208522,19706 214175,21753 220001,21734 C 225809,21753 231430,19706 235864,15959 C 238186,13790 241254,12583 244430,12583 C 247613,12583 250680,13790 253003,15959 C 257444,19693 263065,21740 268865,21740 C 274666,21740 280281,19693 284722,15959 C 287038,13745 290131,12526 293339,12570 C 296516,12526 299583,13745 301861,15959 C 306321,19700 311955,21747 317768,21747 C 323582,21747 329216,19700 333676,15959 C 335954,13745 339021,12526 342197,12570 C 345406,12526 348499,13745 350815,15959 C 355236,19726 360864,21779 366671,21734 L 366671 9176 C 363495,9221 360428,8002 358149,5788 C 353703,2002 348037,-51 342197,13 Z" fill="#2C5967" transform="translate(9170,308278)"/>
  <path d="M 35203 97812 L 12282 97812 L 12282 12282 L 97812 12282 L 97812 61236 L 110004 72600 L 110004 0 L 0 0 L 0 110004 L 35203 110004 L 35203 97812 Z" fill="#2C5967" transform="translate(140529,30531)"/>
  <path d="M 57569 70484 L 60777 70484 C 63427,70535 66020,69771 68221,68296 C 70415,66820 72103,64702 73059,62238 C 74066,59755 74298,57021 73726,54403 C 73155,51791 71801,49404 69851,47569 L 22276 3569 C 20370,1778 17977,604 15397,174 C 12818,-249 10174,104 7793,1182 C 5432,2189 3430,3883 2044,6039 C 651,8195 -55,10717 3,13284 L 3 78280 C 10,80924 838,83503 2358,85672 C 3885,87835 6035,89478 8525,90376 C 11040,91396 13799,91614 16443,91011 C 19080,90402 21474,88996 23284,86988 L 26126 84235 L 38408 112193 L 70223 98172 L 57569 70484 Z M 53629 92121 L 44459 96247 L 29335 62238 L 14396 78826 C 14204,78954 13979,79018 13755,79018 C 13524,79018 13299,78954 13113,78826 C 12375,78826 12375,78094 12375,78004 L 12375 13284 C 12362,13091 12407,12905 12503,12738 C 12606,12572 12754,12444 12927,12366 C 13074,12257 13247,12193 13434,12193 C 13613,12193 13793,12257 13934,12366 L 61508 56739 C 61624,56880 61682,57060 61682,57239 C 61682,57425 61624,57599 61508,57746 C 61502,57842 61470,57932 61425,58022 C 61374,58106 61310,58176 61233,58240 C 61156,58298 61066,58343 60976,58369 C 60880,58394 60784,58401 60687,58388 L 38594 58388 L 53629 92121 Z" fill="#2C5967" transform="translate(184712,71604)"/>
  <path d="M 12192 0 L 0 0 L 0 12192 L 12192 12192 L 12192 0 Z" fill="#2C5967" transform="translate(119167,116151)"/>
  <path d="M 12192 0 L 0 0 L 0 12192 L 12192 12192 L 12192 0 Z" fill="#2C5967" transform="translate(119167,94700)"/>
  <path d="M 12192 0 L 0 0 L 0 12192 L 12192 12192 L 12192 0 Z" fill="#2C5967" transform="translate(119167,73338)"/>
  <path d="M 12192 0 L 0 0 L 0 12192 L 12192 12192 L 12192 0 Z" fill="#2C5967" transform="translate(119167,51983)"/>
  <path d="M 12192 0 L 0 0 L 0 12282 L 12192 12282 L 12192 6141 L 12192 0 Z" fill="#2C5967" transform="translate(119167,30531)"/>
  <path d="M 12282 12192 L 12282 0 L 0 0 L 0 12192 L 6141 12192 L 12282 12192 Z" fill="#2C5967" transform="translate(140529,9170)"/>
  <path d="M 12192 0 L 0 0 L 0 12192 L 12192 12192 L 12192 0 Z" fill="#2C5967" transform="translate(119167,9170)"/>
  <path d="M 12192 0 L 0 0 L 0 12192 L 12192 12192 L 12192 0 Z" fill="#2C5967" transform="translate(161981,9170)"/>
  <path d="M 12192 0 L 0 0 L 0 12192 L 12192 12192 L 12192 0 Z" fill="#2C5967" transform="translate(183336,9170)"/>
  <path d="M 12192 0 L 0 0 L 0 12192 L 12192 12192 L 12192 0 Z" fill="#2C5967" transform="translate(204698,9170)"/>
  <path d="M 12192 0 L 0 0 L 0 12192 L 12192 12192 L 12192 0 Z" fill="#2C5967" transform="translate(226149,9170)"/>
</svg>