<svg xmlns="http://www.w3.org/2000/svg" viewBox="0 0 385010 339177" width="40" height="36">
  <path d="M 371278 212397 C 364605,212384 358060,210017 352926,205705 C 350296,203690 349654,203234 347088,203234 C 344521,203234 343879,203779 341312,205705 C 336050,210036 329441,212404 322639,212404 C 315838,212404 309228,210036 304030,205705 C 301463,203690 300693,203234 298255,203234 C 295753,203234 295046,203234 292480,205615 C 287218,209978 280608,212365 273807,212365 C 267005,212365 260396,209978 255134,205615 C 252567,203690 251861,203138 249295,203138 C 246728,203138 246087,203690 243520,205615 C 238257,209940 231712,212301 224911,212301 C 218108,212301 211500,209940 206302,205615 C 203606,203690 202965,203138 200398,203138 C 197832,203138 197189,203138 194623,205525 C 189554,209901 183008,212308 176335,212308 C 169597,212295 163116,209927 157983,205615 C 155417,203690 154647,203138 152208,203138 C 149705,203138 149000,203138 146433,205525 C 141171,209888 134562,212276 127760,212276 C 120958,212276 114349,209888 109086,205525 C 106520,203600 105814,203048 103248,203048 C 100681,203048 100039,203600 97472,205435 C 92338,209811 85857,212218 79120,212218 C 72446,212218 65965,209850 60832,205525 C 58137,203600 57495,203048 54929,203048 C 52362,203048 51720,203600 49153,205435 C 44084,209811 37539,212218 30801,212218 C 24127,212198 17646,209830 12513,205525 C 9946,203510 9305,203048 6738,203048 L 0 203048 L 0 157213 L 4621 157213 C 11294,157225 17839,159593 22973,163905 C 25539,165830 26245,166382 28812,166382 C 31378,166382 32020,165830 34587,163905 C 39849,159587 46394,157219 53196,157219 C 59998,157219 66543,159587 71805,163905 C 74436,165830 75078,166382 77644,166382 C 80211,166382 80853,165830 83419,163905 L 86820 161525 L 86820 142088 L 0 142088 L 0 96253 L 12192 96253 C 68789,96253 87141,32636 87141,10729 L 87141 0 L 108445 0 L 108445 10729 C 108830,28882 114092,46593 123781,61967 C 130904,72690 140657,81359 152144,87102 C 163694,92845 176463,95463 189297,94693 C 202131,95296 214836,92434 226129,86415 C 237423,80403 246857,71445 253465,60504 C 262513,45418 267583,28298 268224,10729 L 268224 0 L 289721 0 L 289721 10729 C 289721,32636 308008,96253 364477,96253 L 375899 96253 L 375899 142088 L 290362 142088 L 290362 158316 C 294854,157168 299603,157090 304158,158092 C 308714,159093 312950,161146 316543,164091 C 319109,166016 319880,166562 322446,166562 C 325013,166562 325655,166016 328222,164091 C 333420,159766 340028,157405 346831,157405 C 353632,157405 360177,159766 365440,164091 C 368070,166016 368712,166562 371278,166562 L 375899 166562 L 375899 212397 L 371278 212397 Z" fill="#FFFFFF" transform="translate(4556,121830)"/>
  <path d="M 290298 9350 L 290298 15490 C 290298,38591 309870,105602 369674,105602 L 375834 105602 L 375834 142274 L 290298 142274 L 290298 169771 C 294019,167756 298255,166832 302490,167114 C 308330,167050 313976,169103 318339,172889 C 320714,175058 323729,176271 326938,176271 C 330146,176271 333163,175058 335537,172889 C 339900,169103 345547,167050 351386,167114 C 357226,167050 362873,169103 367300,172889 C 369610,175103 372690,176322 375834,176284 L 375834 212950 C 370060,212988 364413,210941 359985,207174 C 357675,204954 354595,203735 351386,203780 C 348178,203741 345098,204961 342852,207174 C 338360,210909 332777,212962 326938,212962 C 321099,212962 315516,210909 311024,207174 C 308778,204961 305698,203741 302490,203780 C 299282,203735 296202,204954 293892,207174 C 289464,210902 283817,212950 278042,212950 C 272203,212950 266620,210902 262192,207174 C 259818,204999 256802,203793 253594,203793 C 250450,203793 247370,204999 245059,207174 C 240567,210915 234985,212962 229145,212950 C 223371,212962 217724,210915 213232,207174 C 210922,204986 207842,203767 204697,203767 C 201553,203767 198473,204986 196163,207174 C 191671,210915 186024,212962 180249,212950 C 174410,212962 168827,210915 164335,207174 C 162090,204961 159010,203741 155865,203780 C 152657,203735 149513,204954 147202,207174 C 142775,210902 137192,212950 131353,212950 C 125577,212950 119930,210902 115503,207174 C 113193,204999 110113,203793 106905,203793 C 103761,203793 100680,204999 98370,207174 C 93943,210902 88296,212950 82520,212950 C 76681,212950 71098,210902 66671,207174 C 64361,204954 61217,203735 58009,203780 C 54864,203741 51784,204961 49474,207174 C 45046,210909 39400,212962 33624,212962 C 27785,212962 22138,210909 17711,207174 C 15401,204961 12321,203741 9176,203780 L 9176 167114 C 14951,167031 20598,169084 25026,172889 C 27336,175058 30416,176271 33624,176271 C 36768,176271 39848,175058 42158,172889 C 46586,169103 52233,167050 58009,167114 C 63847,167050 69558,169103 73986,172889 C 75077,173993 76425,174866 77901,175443 C 79376,176027 80916,176309 82520,176284 C 85665,176322 88745,175103 91055,172889 C 92723,171644 94456,170515 96253,169494 L 96253 142274 L 9176 142274 L 9176 105602 L 16748 105602 C 76745,105602 96253,38591 96253,15490 L 96253 9350 L 108445 9350 L 108445 15490 C 108894,34536 114540,53100 124680,69212 C 132123,80628 142518,89868 154646,96002 C 166838,102137 180442,104941 194045,104139 C 207713,104832 221317,101784 233381,95322 C 245444,88861 255518,79229 262513,67467 C 272074,51694 277400,33733 278042,15311 L 278042 9170 L 290298 9170 M 299474 0 L 268866 0 L 268866 15311 C 268160,32007 263347,48274 254748,62609 C 248588,73037 239605,81552 228953,87231 C 218237,92903 206173,95521 194045,94790 C 181982,95624 169918,93224 159010,87821 C 148165,82425 138989,74230 132379,64079 C 123139,49461 118006,32604 117620,15311 L 117620 186 L 87076 186 L 87076 15490 C 87076,36210 69751,96439 16748,96439 L 0 96439 L 0 151438 L 87076 151438 L 87076 164092 L 85536 165189 C 83483,167114 83483,167114 82520,167114 C 81494,167114 81494,167114 79505,165555 C 73408,160633 65901,157951 58073,157951 C 50244,157951 42736,160633 36640,165555 C 34651,167114 34651,167114 33624,167114 C 32662,167114 32662,167114 30544,165555 C 24512,160569 16941,157874 9176,157944 L 0 157944 L 0 212950 L 9176 212950 C 10203,212950 10203,212950 12192,214412 C 18159,219475 25796,222209 33624,222113 C 41453,222074 49025,219244 54992,214143 C 57046,212584 57046,212584 58009,212584 C 59035,212584 59035,212584 61024,214047 C 67056,219001 74628,221708 82456,221708 C 90285,221708 97857,219001 103888,214047 C 105878,212487 105878,212487 106905,212487 C 107867,212487 107995,212487 109985,214047 C 116016,218962 123588,221644 131353,221644 C 139117,221644 146689,218962 152721,214047 C 154838,212487 154838,212487 155865,212487 C 156827,212487 156827,212487 158881,214047 C 164913,218968 172485,221657 180249,221657 C 188078,221657 195649,218968 201682,214047 C 203671,212487 203671,212487 204697,212487 C 205724,212487 205724,212487 207713,213957 C 213745,218911 221317,221619 229145,221619 C 236910,221619 244482,218911 250514,213957 C 252567,212398 252567,212398 253530,212398 C 254556,212398 254556,212398 256674,213957 C 262705,218872 270277,221555 278042,221555 C 285806,221555 293378,218872 299410,213957 C 301527,212398 301527,212398 302490,212398 C 303517,212398 303517,212398 305506,213957 C 311602,218879 319109,221567 326938,221567 C 334767,221567 342274,218879 348371,213957 C 350359,212398 350359,212398 351386,212398 C 352349,212398 352349,212398 354466,213957 C 360370,219142 368006,222036 375834,222113 L 385011 222113 L 385011 167114 L 375834 167114 C 374808,167114 374808,167114 372818,165555 C 366787,160633 359215,157951 351386,157951 C 343622,157951 336050,160633 330019,165555 C 327965,167114 327965,167114 326874,167114 C 325783,167114 325912,167114 323858,165555 C 317891,160582 310318,157887 302490,157944 L 299474 157944 L 299474 151713 L 385011 151713 L 385011 96715 L 369674 96715 C 316735,96715 299474,36486 299474,15766 L 299474 186 L 299474 0 Z" fill="#FFFFFF" transform="translate(0,117062)"/>
  <path d="M 33688 142178 L 33688 128613 L 49346 120726 L 52619 120726 L 53196 117704 L 0 117704 L 0 0 L 160421 0 L 160421 117704 L 108958 117704 L 109472 120726 L 112680 120726 L 128465 128613 L 128465 142178 L 33688 142178 Z" fill="#FFFFFF" transform="translate(113000,4588)"/>
  <path d="M 160421 9170 L 160421 117704 L 108059 117704 L 110177 129896 L 116145 129896 L 128401 136037 L 128401 142185 L 42800 142185 L 42800 136037 L 54992 129896 L 61153 129896 L 63270 117704 L 9176 117704 L 9176 9170 L 160421 9170 Z M 169597 0 L 0 0 L 0 126874 L 40618 126874 L 38694 127881 L 33624 130358 L 33624 151348 L 137577 151348 L 137577 130358 L 132444 128337 L 130518 127330 L 169597 127330 L 169597 0 Z" fill="#FFFFFF" transform="translate(108445,0)"/>
  <path d="M 0 11826 L 87076 11826 L 87076 38680 C 85215,39662 83482,40798 81878,42075 C 80724,43237 79441,44167 77964,44815 C 76488,45457 74948,45803 73344,45836 C 71740,45861 70200,45579 68724,44995 C 67248,44417 65900,43544 64810,42441 C 60382,38655 54671,36602 48832,36666 C 43057,36602 37410,38655 32982,42441 C 30672,44610 27592,45823 24448,45823 C 21239,45823 18159,44610 15849,42441 C 11421,38636 5775,36582 0,36666 L 0 48858 C 3144,48813 6224,50038 8534,52252 C 12961,56038 18608,58085 24448,58027 C 30287,58072 35934,56025 40297,52252 C 42607,50038 45688,48813 48832,48858 C 52040,48813 55185,50032 57495,52252 C 61922,55981 67505,58027 73344,58027 C 79119,58027 84766,55981 89193,52252 C 91503,50077 94584,48870 97728,48870 C 100937,48870 104017,50077 106327,52252 C 110754,55981 116401,58027 122176,58027 C 128016,58027 133598,55981 138026,52252 C 140336,50032 143481,48813 146689,48858 C 149833,48813 152913,50038 155159,52252 C 159587,56038 165234,58092 171072,58027 C 176912,58085 182559,56038 186986,52252 C 189297,50064 192377,48845 195521,48845 C 198665,48845 201745,50064 204055,52252 C 208483,56038 214130,58085 219969,58027 C 225808,58092 231455,56038 235882,52252 C 238193,50077 241273,48870 244417,48870 C 247626,48870 250641,50077 253016,52252 C 257444,55981 263026,58027 268865,58027 C 274640,58027 280287,55981 284715,52252 C 287025,50032 290105,48813 293314,48858 C 296522,48813 299602,50038 301848,52252 C 306340,55987 311923,58034 317761,58034 C 323601,58034 329184,55987 333676,52252 C 335922,50038 339002,48813 342210,48858 C 345418,48813 348498,50032 350808,52252 C 355236,56051 360883,58104 366658,58027 L 366658 45836 C 363513,45874 360434,44655 358124,42441 C 353696,38655 348049,36602 342210,36666 C 336370,36602 330724,38655 326361,42441 C 323986,44610 320970,45823 317761,45823 C 314553,45823 311537,44610 309163,42441 C 304800,38655 299153,36602 293314,36666 C 289014,36576 284779,37724 281121,39964 L 281121 12468 L 366658 12468 L 366658 0 L 0 0 L 0 11826 Z M 268865 45836 C 265657,45874 262641,44655 260331,42441 C 255904,38706 250257,36653 244417,36653 C 238578,36653 232995,38706 228504,42441 C 226257,44655 223177,45874 219969,45836 C 216760,45880 213680,44661 211370,42441 C 206943,38713 201296,36666 195521,36666 C 189746,36666 184099,38713 179672,42441 C 177361,44610 174281,45823 171072,45823 C 167928,45823 164848,44610 162538,42441 C 158110,38655 152463,36602 146689,36666 C 140849,36602 135138,38655 130711,42441 C 129556,43544 128273,44417 126796,44995 C 125320,45579 123780,45861 122176,45836 C 119032,45874 115952,44655 113642,42441 C 109599,38989 104594,36961 99268,36666 L 99268 11826 L 268865 11826 L 268865 45836 Z" fill="#2C5967" transform="translate(9176,247511)"/>
  <path d="M 360498 96253 C 300693,96253 281121,29242 281121,6141 L 281121 0 L 268865 0 L 268865 6141 C 268224,24564 262898,42525 253337,58297 C 246342,70059 236268,79691 224204,86153 C 212140,92614 198537,95662 184869,94969 C 171265,95771 157661,92967 145469,86833 C 133341,80698 122946,71458 115503,60042 C 105364,43923 99717,25366 99268,6320 L 99268 180 L 87076 180 L 87076 6320 C 87076,29421 67569,96432 7571,96432 L 0 96432 L 0 108721 L 366658 108721 L 366658 96253 L 360498 96253 Z M 263796 64714 C 265657,61749 267325,58688 268865,55550 L 268865 96432 L 230749 96432 C 244353,88989 255775,78042 263796,64714 Z M 105236 66549 C 113257,79030 124422,89246 137512,96253 L 99268 96253 L 99268 56102 C 101065,59683 103054,63167 105236,66549 Z M 79632 67280 C 82392,62930 84830,58432 87076,53805 L 87076 96253 L 51142 96253 C 62628,88770 72381,78889 79632,67280 Z M 281314 96253 L 281314 53805 C 283496,58470 285934,62975 288758,67280 C 296009,78882 305698,88770 317184,96253 L 281314 96253 Z" fill="#2C5967" transform="translate(9176,126418)"/>
  <path d="M 342210 13 C 336370,-51 330724,2002 326361,5788 C 323986,7957 320970,9163 317761,9163 C 314553,9163 311537,7957 309163,5788 C 304800,2002 299153,-51 293314,13 C 287474,-51 281827,2002 277400,5788 C 275090,7970 272009,9189 268865,9189 C 265657,9189 262641,7970 260331,5788 C 255904,2047 250257,0 244417,0 C 238578,0 232995,2047 228504,5788 C 226257,8002 223177,9221 219969,9176 C 216760,9227 213680,8008 211370,5788 C 206943,2053 201296,13 195521,13 C 189746,13 184099,2053 179672,5788 C 177361,7957 174281,9163 171072,9163 C 167928,9163 164848,7957 162538,5788 C 158110,2002 152463,-51 146689,13 C 140849,-51 135138,2002 130711,5788 C 129556,6892 128273,7758 126796,8342 C 125320,8926 123780,9208 122176,9176 C 119032,9221 115952,8002 113642,5788 C 109214,2047 103567,0 97728,0 C 91953,0 86306,2047 81878,5788 C 79568,8002 76488,9221 73344,9176 C 71740,9208 70200,8926 68724,8342 C 67248,7758 65900,6892 64810,5788 C 60382,2002 54671,-51 48832,13 C 43057,-51 37410,2002 32982,5788 C 30672,7957 27592,9163 24448,9163 C 21239,9163 18159,7957 15849,5788 C 11421,1983 5775,-70 0,13 L 0 12570 C 3144,12526 6224,13745 8534,15959 C 12961,19700 18608,21747 24448,21747 C 30223,21747 35870,19700 40297,15959 C 42607,13745 45688,12526 48832,12570 C 52040,12526 55185,13745 57495,15959 C 61922,19693 67505,21740 73344,21740 C 79119,21740 84766,19693 89193,15959 C 91503,13790 94584,12583 97728,12583 C 100937,12583 104017,13790 106327,15959 C 110754,19693 116401,21740 122176,21740 C 128016,21740 133598,19693 138026,15959 C 140336,13745 143481,12526 146689,12570 C 149833,12526 152913,13745 155159,15959 C 159651,19706 165234,21753 171072,21734 C 176848,21753 182495,19706 186986,15959 C 189297,13777 192377,12558 195521,12558 C 198665,12558 201745,13777 204055,15959 C 208547,19706 214194,21753 219969,21734 C 225808,21753 231391,19706 235882,15959 C 238193,13790 241273,12583 244417,12583 C 247626,12583 250641,13790 253016,15959 C 257444,19693 263026,21740 268865,21740 C 274640,21740 280287,19693 284715,15959 C 287025,13745 290105,12526 293314,12570 C 296522,12526 299602,13745 301848,15959 C 306340,19700 311923,21747 317761,21747 C 323601,21747 329184,19700 333676,15959 C 335922,13745 339002,12526 342210,12570 C 345418,12526 348498,13745 350808,15959 C 355236,19726 360883,21779 366658,21734 L 366658 9176 C 363513,9221 360434,8002 358124,5788 C 353696,2002 348049,-51 342210,13 Z" fill="#2C5967" transform="translate(9176,308278)"/>
  <path d="M 51977 120726 L 45816 120726 L 33624 126874 L 33624 133015 L 119225 133015 L 119225 126874 L 106969 120726 L 101001 120726 L 98884 108534 L 151245 108534 L 151245 0 L 0 0 L 0 108534 L 54094 108534 L 51977 120726 Z M 88617 120726 L 64361 120726 L 66478 108534 L 86435 108534 L 88617 120726 Z M 19893 96342 L 46266 69943 L 61474 85068 L 97408 49134 L 112487 64168 L 139053 37949 L 139053 96342 L 19893 96342 Z M 139053 12192 L 139053 20720 L 112487 47305 L 97087 31904 L 61153 67839 L 45945 52618 L 12256 86351 L 12256 12192 L 139053 12192 Z" fill="#2C5967" transform="translate(117620,9170)"/>
</svg>