<svg xmlns="http://www.w3.org/2000/svg" viewBox="0 0 374294 363847" width="39" height="38">
  <path d="M 24448 60947 C 22716,60947 20983,60312 19699,59035 L 1989 41119 C 706,39842 0,38116 0,36294 L 0 6731 C 0,3003 3016,0 6738,0 C 10459,0 13475,3003 13475,6731 L 13475 33477 L 29197 49397 C 31827,52034 31827,56308 29197,58945 C 27913,60312 26116,60947 24384,60947 L 24448 60947 Z" fill="#2D5967" transform="translate(285421,148178)"/>
  <path d="M 75526 163097 C 76681,163097 77965,163193 79184,163193 C 80531,163193 81815,163193 83162,163097 C 102990,162192 122433,154274 137577,139361 C 153234,123896 161768,103427 161768,81596 C 161768,59766 153106,39207 137577,23832 C 121470,7918 100360,0 79184,0 C 57944,0 36897,7918 20791,23832 C 18095,26469 15657,29203 13475,32110 L 13475 11647 L 0 11647 L 0 57129 L 43763 57129 L 43763 43667 L 21753 43667 C 24192,40028 27015,36569 30223,33387 C 43698,20104 61409,13373 79184,13373 C 96894,13373 114669,20014 128080,33387 C 141106,46304 148293,63405 148293,81596 C 148293,99788 141106,116889 128080,129806 C 114669,143089 96894,149820 79184,149820 C 78991,149820 78735,149820 78542,149820 C 77451,149820 76425,149820 75334,149730 C 74821,149730 74371,149730 73794,149634 C 73344,149634 72767,149634 72318,149544 L 72318 163007 C 72318,163007 72959,163007 73344,163007 C 74051,163007 74821,163097 75526,163097 Z" fill="#2D5967" transform="translate(212526,101239)"/>
  <path d="M 182046 350385 L 193788 328099 L 216440 286621 L 229722 266613 C 230108,266068 230365,265426 230557,264791 L 237230 242505 C 238000,239688 236909,236685 234535,234953 L 183329 200205 C 183329,200205 182880,199936 182623,199750 L 172677 194751 C 171715,194206 170495,194020 169341,194020 L 142133 195476 L 138989 190202 C 138989,190202 138796,189926 138668,189836 L 138604 189836 L 138604 189656 C 138604,189656 138218,189111 138026,188931 L 120123 170374 L 113835 158458 C 113193,157181 112102,156179 110947,155544 L 102926 151540 L 100231 137988 L 128530 137988 L 135203 155544 C 136486,158913 140208,160639 143673,159548 C 147138,158361 148935,154723 147972,151271 L 144058 138264 L 156121 126251 C 157405,124981 158175,123255 158175,121432 L 158175 108515 L 193083 85684 C 195008,84414 196163,82322 196163,80044 L 196163 66857 C 196163,64945 195328,63033 193917,61762 L 180699 50212 C 178516,48300 175372,48024 172805,49480 L 151502 62307 L 144507 58124 L 149576 50391 L 180377 32559 C 182238,31468 183457,29562 183714,27374 L 184997 13276 C 197061,13462 208932,14913 220290,17550 C 220547,18006 220931,18461 221381,18917 L 235626 31744 L 235626 75045 C 235626,77227 236653,79229 238386,80499 C 239540,81321 240952,81776 242364,81776 C 243134,81776 243776,81680 244417,81500 L 280801 69950 C 282020,69584 283111,68763 283945,67762 L 293763 55666 C 307495,67858 319366,82225 328542,98325 C 336178,101604 343365,105878 349911,111063 C 322189,45932 257379,0 182046,0 C 81622,0 0,81590 0,181924 C 0,282258 81622,363848 182046,363848 C 256417,363848 320521,319097 348691,255146 C 342081,260331 334830,264521 327195,267614 C 297806,317095 243776,350385 182046,350385 Z M 283304 47388 L 274769 57938 L 249101 66126 L 249101 29017 C 249101,28375 249037,27830 248845,27284 C 261229,32655 272780,39387 283304,47388 Z M 167608 348749 L 165041 348293 L 165041 319822 L 164784 319822 C 160228,318821 155801,317550 151437,316280 L 151630 347658 C 73088,333284 13411,264425 13411,181924 C 13411,159459 17903,137988 25924,118339 L 25731 122979 C 25603,125347 26822,127618 28812,128895 L 48832 141806 C 49987,137353 51463,132893 53067,128529 L 39271 119616 L 40362 91235 C 40362,91235 40362,90779 40362,90599 C 68660,47023 116466,17281 171329,13822 L 170495 22921 L 141427 39746 C 140529,40291 139759,41023 139245,41838 L 129300 56757 C 128337,58303 127951,60216 128337,61942 C 128657,63764 129877,65311 131417,66215 L 147972 76136 C 150026,77406 152785,77406 154903,76136 L 175436 63764 L 182623 70040 L 182623 76585 L 147716 99422 C 145790,100693 144572,102785 144572,105057 L 144572 118795 L 137256 126162 C 136037,125257 134625,124705 133021,124705 L 91953 124705 C 89772,128709 87847,132803 86114,136807 L 90285 157636 C 90670,159638 92017,161454 93942,162365 L 102926 166825 L 106198 173011 L 92274 169007 L 79376 160004 C 78478,165092 78029,170188 77836,175372 L 85472 180743 C 86114,181199 86755,181468 87462,181744 L 121214 191382 L 127760 197934 L 130775 203029 L 118776 236595 C 118134,238411 118326,240413 119225,242050 L 130775 263520 C 131160,264246 131674,264881 132315,265426 L 148614 279254 C 153812,281436 159266,283348 164913,284895 L 164913 278433 C 164913,276437 163950,274615 162410,273345 L 141941 255968 L 132379 238232 L 142903 208939 L 168249 207578 L 176142 211576 L 222921 243230 L 217916 259786 L 205018 279165 C 205018,279165 204825,279530 204697,279710 L 181917 321554 L 167736 348569 L 167608 348749 Z" fill="#2D5967"/>
  <path d="M 128 3189 C 128,2092 128,1097 0,0 C 0,821 0,1546 0,2368 C 0,3824 0,5281 0,6827 C 0,5640 128,4460 128,3279 L 128 3189 Z" fill="#2D5967" transform="translate(350616,179556)"/>
  <path d="M 58136 0 C 48768,0 39913,2272 32148,6186 L 32148 21920 C 39464,16645 48382,13553 58136,13553 C 82777,13553 102798,33567 102798,58214 C 102798,82867 82777,102881 58136,102881 C 33496,102881 13475,82867 13475,58214 C 13475,52849 14374,47664 16171,42935 L 2117 42935 C 706,47844 0,52939 0,58214 C 0,84144 17132,106154 40554,113617 L 40554 112975 C 46008,114521 51655,115343 57495,115343 C 73344,115343 88167,109247 99333,98242 C 107546,90144 113000,80140 115246,69315 C 116016,65676 116337,61948 116337,58124 C 116337,26104 90220,0 58200,0 L 58136 0 Z" fill="#2D5967" transform="translate(234279,125526)"/>
  <path d="M 96125 209208 C 92595,208021 90670,204203 91953,200654 C 93172,197106 96958,195200 100488,196470 C 104081,197651 105942,201476 104787,205024 C 103889,207841 101258,209663 98435,209663 C 97665,209663 96958,209567 96252,209298 L 96125 209208 Z M 76617 201199 C 73216,199563 71869,195469 73473,192197 C 75141,188828 79248,187467 82520,189104 C 85857,190740 87205,194744 85601,198107 C 84381,200474 82071,201841 79504,201841 C 78478,201841 77516,201655 76489,201110 L 76617 201199 Z M 58329 190470 C 55185,188372 54479,184189 56597,181096 C 58650,178003 62885,177277 65965,179369 C 69045,181461 69751,185645 67698,188738 C 66415,190650 64232,191651 62115,191651 C 60832,191651 59484,191286 58329,190470 Z M 41774 177188 C 39014,174640 38950,170367 41389,167633 C 43955,164906 48190,164816 50950,167364 C 53644,169911 53773,174185 51207,176912 C 49859,178368 48126,179100 46329,179100 C 44661,179100 42993,178458 41645,177277 L 41774 177188 Z M 27400 161447 C 25090,158540 25667,154267 28555,151989 C 31442,149717 35742,150263 38052,153169 C 40298,156083 39720,160356 36833,162634 C 35549,163635 34138,164091 32662,164091 C 30672,164091 28619,163180 27272,161447 L 27400 161447 Z M 15721 143621 C 13989,140349 15208,136255 18481,134432 C 21753,132706 25860,133887 27657,137166 C 29453,140438 28170,144532 24897,146348 C 23935,146894 22844,147170 21753,147170 C 19379,147170 17004,145893 15849,143621 L 15721 143621 Z M 7123 124152 C 5839,120610 7700,116786 11294,115605 C 14823,114425 18673,116241 19828,119789 C 20983,123338 19186,127156 15657,128343 C 14887,128612 14181,128702 13475,128702 C 10652,128702 8085,126976 7123,124152 Z M 1797 103509 C 1155,99865 3658,96323 7379,95681 C 10973,95046 14566,97503 15079,101232 C 15721,104870 13283,108418 9561,108964 C 9561,108964 8791,109054 8470,109054 C 5198,109054 2374,106692 1797,103413 L 1797 103509 Z M 0 82218 C 0,78490 3016,75487 6738,75487 C 10459,75487 13475,78490 13475,82218 C 13475,85953 10459,88950 6738,88950 C 3016,88950 0,85953 0,82218 Z M 7251 68756 C 3658,68121 1091,64662 1732,61024 C 2374,57385 5839,54844 9433,55479 C 13090,56115 15657,59573 15015,63212 C 14438,66484 11614,68852 8342,68852 C 8342,68852 7636,68852 7251,68756 Z M 11101 48928 C 7572,47747 5647,43923 6930,40381 C 8085,36832 11935,34920 15464,36190 C 18994,37377 20855,41195 19636,44744 C 18737,47561 16106,49294 13283,49294 C 12577,49294 11807,49204 11101,48928 Z M 18096 29915 C 14823,28189 13475,24095 15208,20822 C 16940,17543 20983,16183 24255,17909 C 27528,19635 28940,23729 27207,27008 C 25988,29279 23678,30646 21176,30646 C 20213,30646 19122,30370 18096,29915 Z M 27849 12179 C 24833,9997 24127,5813 26309,2810 C 28491,-193 32662,-918 35678,1264 C 38629,3445 39399,7629 37218,10632 C 35934,12455 33816,13455 31763,13455 C 30352,13455 29004,13090 27849,12179 Z" fill="#2D5967" transform="translate(54094,95977)"/>
</svg>