<svg xmlns="http://www.w3.org/2000/svg" viewBox="0 0 370067 385004" width="39" height="40">
  <path d="M 285036 336090 C 284715,336366 284458,336636 284137,336893 C 282790,337983 282020,338510 281250,338972 C 279903,339787 279004,340249 278042,340646 C 276502,341224 275732,341474 274897,341680 C 273165,342103 272138,342270 271112,342360 L 268865 342469 L 267839 342424 C 266235,342321 265208,342186 264245,341968 C 262577,341596 261551,341301 260524,340922 C 251347,337393 245380,328775 245316,318951 L 245316 318598 C 243904,319304 238449,322044 238449,322044 C 238065,322217 237679,322352 237295,322500 C 233252,324309 229402,325753 225616,327145 L 224011 327729 C 222985,328140 221894,328538 220803,328904 C 216889,330193 212910,331239 208868,332240 L 207072 332715 C 206045,332998 205018,333286 203927,333517 C 199692,334416 195457,335064 191157,335635 L 189297 335930 C 188334,336090 187371,336244 186409,336354 C 180377,337002 174345,337329 168506,337329 C 162987,337329 157405,337047 151822,336482 C 150218,336328 148549,336071 146945,335808 L 142197 335109 C 140015,334807 137898,334518 135780,334088 C 133341,333607 131031,332998 128657,332382 L 124807 331406 C 123267,331040 121727,330668 120252,330213 C 117492,329385 114797,328397 112038,327396 L 109278 326427 C 108316,326119 107354,325817 106455,325458 L 100487 323064 L 100616 322897 C 63783,306604 34201,277918 16684,241371 L 16619 241371 L 15208 238551 L 14822 237641 C 13026,233483 11550,229708 10203,225886 L 9561 224194 C 9176,223166 8791,222120 8406,221055 C 7123,217152 6096,213149 5133,209118 L 4620 207254 C 4363,206216 4043,205179 3850,204124 C 2951,199939 2310,195662 1733,191377 L 1412 189585 C 1283,188603 1090,187611 962,186619 C 320,180551 0,174510 0,168669 C 0,104609 37410,45054 95354,16950 C 118519,5705 143159,0 168506,0 C 200591,0 231968,9271 259240,26785 C 307880,58091 336948,111133 336948,168669 C 336948,174055 336692,179668 336114,185336 C 335922,186983 335665,188585 335408,190195 L 334766 194844 C 334446,197055 334125,199256 333676,201430 C 333226,203896 332585,206298 331943,208709 L 331045 212385 C 330659,213922 330275,215451 329825,216952 C 328992,219790 327965,222538 327002,225313 L 326039 227988 C 325719,228925 325462,229853 325077,230772 L 322831 236404 L 322638 236258 C 321997,237750 321291,239251 320585,240780 L 353375 271231 C 354209,272004 354979,272841 355685,273696 C 356006,274079 356263,274534 356584,274979 C 357354,276007 357611,276426 357867,276853 C 360242,281066 361268,285687 360883,290336 C 360690,292757 360177,295104 359279,297333 C 358829,298461 358316,299535 357675,300572 C 353825,307232 347151,311444 339515,312136 L 356391 350464 L 301912 374476 L 285036 336090 Z" fill="#FFFFFF" transform="translate(4557,4547)"/>
  <path d="M 173063 9098 C 205532,9098 235819,18742 261359,35164 C 306725,64378 336948,115281 336948,173218 C 336948,178694 336692,184099 336114,189439 C 335922,191832 335473,194161 335088,196518 C 334703,199383 334382,202277 333804,205088 C 333227,208045 332457,210920 331687,213822 C 331110,215941 330660,218098 330019,220182 C 329120,223229 328029,226195 326939,229179 C 326425,230653 325976,232182 325399,233637 L 325334 233574 C 323602,237941 321676,242190 319559,246366 L 354852 279110 C 355557,279728 356135,280401 356713,281093 C 357033,281502 357290,281948 357611,282385 C 357867,282803 358189,283203 358445,283649 C 358509,283686 358509,283722 358509,283759 C 360370,287034 361204,290773 360947,294530 C 360820,296432 360370,298343 359600,300198 C 359279,301117 358830,301991 358317,302819 C 354980,308633 348756,312235 341890,312235 C 341825,312235 341761,312235 341697,312235 L 337141 312190 L 354980 352695 L 308778 373017 L 290940 332476 L 287668 336166 C 287026,336820 286384,337417 285742,337975 C 285549,338129 285358,338264 285229,338411 C 284651,338854 284010,339278 283432,339656 C 283304,339727 283175,339823 283047,339887 C 282341,340304 281571,340677 280801,340997 C 280609,341074 280416,341151 280224,341222 C 279582,341459 278941,341665 278298,341832 C 278107,341883 277914,341941 277721,341986 C 276951,342165 276117,342306 275283,342377 C 275154,342396 274962,342396 274770,342403 C 274384,342435 273935,342467 273486,342467 C 273230,342467 272908,342441 272588,342435 C 272460,342422 272267,342422 272139,342416 C 271304,342358 270470,342242 269700,342069 C 269507,342031 269315,341992 269187,341947 C 268353,341761 267519,341511 266684,341196 C 259241,338367 254428,331404 254364,323460 L 254364 315520 C 250065,317985 245637,320250 241081,322324 L 241081 322453 C 240632,322671 240119,322825 239605,323043 C 236012,324654 232354,326065 228568,327413 C 227028,327978 225488,328600 223948,329120 C 220098,330365 216248,331398 212334,332360 C 210665,332758 209125,333252 207521,333605 C 203414,334478 199243,335100 195072,335665 C 193532,335870 191992,336198 190452,336371 C 184741,336980 178902,337327 172999,337327 C 167544,337327 162154,337038 156828,336512 C 154390,336275 152080,335819 149705,335472 C 146882,335062 143994,334728 141171,334170 C 138219,333586 135332,332777 132444,332033 C 130326,331488 128209,331026 126091,330397 C 123075,329479 120060,328376 117107,327291 C 115632,326758 114092,326335 112680,325757 L 112744 325680 C 73409,310052 41645,279674 24063,241353 L 23935 241353 C 23743,240861 23614,240343 23357,239851 C 21753,236258 20342,232582 18994,228861 C 18481,227296 17839,225759 17326,224167 C 16042,220372 15016,216479 14053,212566 C 13668,210938 13155,209346 12834,207708 C 11935,203641 11358,199484 10781,195307 C 10588,193751 10203,192233 10075,190667 C 9433,184936 9112,179122 9112,173218 C 9112,108276 47100,52186 101899,25593 C 123460,15139 147523,9098 173063,9098 Z M 173063 0 C 147010,0 121728,5859 97921,17413 C 38437,46264 0,107421 0,173218 C 0,179149 385,185345 1027,191641 C 1155,192742 1348,193816 1477,194889 C 1604,195444 1668,195990 1797,196545 C 2438,201394 3017,205479 3914,209628 C 4171,210792 4492,211930 4813,213076 L 5262 214777 C 6225,218635 7315,222802 8663,227014 C 9048,228169 9498,229289 9882,230408 L 10459 231982 C 11615,235166 13219,239360 15080,243572 C 15336,244210 15465,244674 15722,245128 L 18096 250460 L 18352 250460 C 35485,284778 63142,312126 97344,328818 L 97023 329210 L 109343 334208 C 110370,334606 111396,334959 112423,335299 C 112937,335479 113514,335652 114027,335845 L 114990 336198 C 117813,337231 120637,338257 123524,339117 C 125064,339573 126605,339964 128145,340336 L 130198 340850 L 132059 341325 C 134498,341966 136936,342602 139439,343096 C 141684,343538 143930,343853 146240,344167 L 148422 344482 L 150732 344835 C 152464,345117 154197,345387 155930,345560 C 161705,346137 167416,346426 173063,346426 C 178966,346426 185127,346086 191415,345425 C 192505,345310 193596,345136 194623,344950 C 195201,344860 195714,344758 196292,344687 C 200462,344135 204890,343481 209446,342512 C 210601,342262 211692,341960 212783,341658 L 214515 341203 C 218173,340285 222536,339169 226772,337776 C 227926,337398 229018,336993 230108,336570 L 231712 335979 C 234921,334805 239156,333227 243327,331359 C 243968,331122 244418,330942 244931,330730 L 246150 330159 C 248268,339008 254621,346336 263412,349699 C 264695,350173 265914,350526 267197,350822 L 267775 350956 C 269059,351232 270277,351406 271497,351483 L 271690 351495 L 272139 351515 C 272780,351547 273165,351566 273550,351566 C 274128,351566 274705,351527 275347,351483 C 275604,351476 275924,351457 276310,351418 C 277337,351322 278555,351123 279775,350854 L 279967 350802 L 280609 350623 C 281571,350372 282534,350064 283496,349699 C 283881,349557 284202,349448 284459,349320 C 285485,348909 286576,348364 287668,347735 L 287732 347690 L 300501 376675 L 304158 385004 L 312436 381347 L 358637 361012 L 366915 357341 L 363257 349012 L 350488 319969 C 357097,317885 362616,313509 366145,307395 C 366915,306158 367493,304866 368070,303547 C 369097,300881 369738,298070 369995,295213 C 370381,289754 369225,284350 366594,279546 L 366466 279355 C 366017,278545 365632,277999 365247,277463 L 357611 282376 L 364926 276998 C 364541,276434 364156,275879 363771,275352 C 362873,274315 361974,273332 361012,272423 L 330853 244410 L 333868 236986 C 334254,235976 334574,234939 334960,233902 C 335088,233365 335280,232818 335473,232291 L 335858 231344 C 336884,228515 337911,225685 338745,222793 C 339194,221228 339644,219636 340028,218034 L 340478 216078 L 340927 214286 C 341569,211821 342211,209364 342724,206853 C 343173,204579 343494,202240 343815,199902 L 344135 197809 L 344456 195517 C 344713,193797 345034,192087 345162,190331 C 345739,184554 346061,178794 346061,173226 C 346061,114135 316222,59665 266235,27512 C 238257,9507 206045,0 173063,0 Z" fill="#FFFFFF"/>
  <path d="M 183393 309160 C 212077,269529 228439,222111 230172,172990 L 309805 172990 C 309035,186382 306404,199292 302233,211484 L 316286 224539 C 323729,205825 327836,185454 327836,164120 C 327836,73622 254299,0 163886,0 C 73537,0 0,73622 0,164120 C 0,254618 73537,328236 163886,328236 C 188206,328236 211243,322891 231969,313362 L 231841 293666 C 217017,301509 200719,306850 183393,309160 Z M 163886 305612 C 134241,267673 117236,221228 115375,172990 L 212462 172990 C 210600,221237 193596,267673 163886,305612 Z M 212462 155249 L 115375 155249 C 117236,107011 134241,60566 163951,22627 C 193596,60566 210600,107011 212462,155249 Z M 309805 155249 L 230172 155249 C 228439,106129 212077,58710 183393,19079 C 251990,28267 305634,85176 309805,155249 Z M 144443 19079 C 115760,58710 99397,106129 97664,155249 L 18032 155249 C 22202,85176 75911,28267 144443,19079 Z M 18032 172990 L 97664 172990 C 99397,222111 115760,269529 144443,309160 C 75911,299980 22202,243073 18032,172990 Z" fill="#2D5967" transform="translate(9113,9097)"/>
  <path d="M 88039 102271 C 94905,102271 101065,98668 104466,92854 C 104915,92027 105365,91144 105749,90234 C 106455,88378 106905,86477 107032,84566 C 107354,80809 106519,77069 104658,73794 C 104658,73758 104594,73721 104594,73685 C 104338,73248 104017,72848 103761,72420 C 103439,71983 103183,71547 102798,71138 C 102284,70446 101643,69773 101001,69145 L 32020 5150 L 32020 5141 C 31378,4558 30737,4039 30030,3557 C 29903,3448 29710,3330 29582,3221 C 28876,2766 28170,2347 27464,1983 C 27400,1938 27272,1901 27207,1856 C 26566,1537 25860,1265 25154,1028 C 25026,973 24833,910 24705,855 C 23935,619 23165,427 22395,291 C 22266,264 22074,255 21946,227 C 21239,118 20534,55 19828,27 C 19699,18 19571,9 19379,9 C 19315,9 19251,0 19186,0 C 18416,0 17711,55 16941,137 C 16748,155 16619,200 16427,227 C 15785,327 15079,455 14438,619 C 14245,673 13988,737 13796,801 C 12962,1037 12192,1310 11358,1656 C 10267,2147 9240,2766 8278,3430 C 3850,6441 898,11072 193,16404 C 64,17332 0,18287 0,19251 L 513 113488 C 577,121432 5390,128395 12834,131218 C 13668,131539 14502,131776 15336,131975 C 15529,132014 15657,132059 15849,132084 C 16619,132258 17454,132367 18288,132431 C 18416,132437 18609,132450 18737,132450 C 19058,132469 19379,132495 19699,132495 C 20085,132495 20534,132456 20919,132431 C 21112,132424 21304,132424 21432,132405 C 22266,132322 23100,132193 23870,132001 C 24063,131956 24256,131905 24448,131847 C 25090,131674 25732,131475 26373,131231 C 26566,131160 26759,131083 26950,131000 C 27720,130685 28490,130320 29196,129890 C 29325,129819 29453,129736 29582,129665 C 30159,129280 30800,128876 31378,128420 C 31507,128273 31699,128138 31892,127984 C 32533,127426 33175,126835 33753,126174 L 37090 122485 L 54928 163065 L 101065 142730 L 83290 102225 L 87846 102271 C 87910,102271 87975,102271 88039,102271 Z M 77708 133631 L 64040 139675 L 42287 90289 L 20662 114310 C 20469,114515 20021,114996 19122,114669 C 18288,114335 18288,113687 18288,113405 L 17711 19170 C 17711,18924 17711,18269 18545,17914 C 19315,17550 19828,17996 20021,18160 L 88937 82155 C 89130,82346 89643,82792 89258,83656 C 88937,84521 88232,84503 87975,84512 L 56019 84202 L 77708 133631 Z" fill="#2D5967" transform="translate(253851,209952)"/>
</svg>