<svg xmlns="http://www.w3.org/2000/svg" viewBox="0 0 234567 256673" width="25" height="27">
  <path d="M 90176 223473 L 98864 215022 C 97067,214727 95271,214368 93468,213886 L 91132 213347 C 89515,212924 87955,212449 86403,211910 C 85363,211621 84343,211281 83342,210890 L 79569 209388 L 75795 207771 L 73338 206571 L 68544 203998 L 66805 202920 C 64951,201778 63334,200764 61833,199679 L 59259 197825 L 56680 195906 L 54229 193872 C 50918,191036 47818,187969 44937,184702 L 42781 182245 L 40862 179665 L 38950 177150 C 37866,175591 36852,174031 35832,172414 L 34632 170380 C 33797,168936 33014,167499 32238,166004 C 31455,164502 31275,164085 30858,163187 C 30441,162288 29723,160671 29241,159407 C 28760,158149 28163,156892 27740,155634 C 27432,154755 27169,153850 26963,152939 C 26303,151020 25828,149461 25404,147844 L 24929 145566 C 24506,143769 24089,141909 23787,140054 L 23306 137057 C 23306,135979 22947,134901 22831,133759 L 22831 130884 L 0 130884 L 0 117338 L 22651 117338 L 22651 114464 C 22651,113328 22947,112243 23126,111165 L 23607 108169 C 23607,106314 24326,104453 24807,102599 C 25289,100738 25167,100918 25346,100321 C 25763,98704 26245,97145 26784,95527 C 27323,93911 27445,93551 27740,92531 C 28042,91511 28760,89951 29299,88694 C 29838,87436 30319,86236 30916,84978 C 31519,83721 31879,83060 32354,82104 C 32835,81141 33855,79229 34696,77785 L 35953 75693 C 36909,74134 37930,72574 39008,71015 L 40862 68500 C 41465,67601 42120,66703 42781,65863 L 44937 63347 C 47805,60139 50911,57155 54229,54415 L 56622 52317 L 59317 50340 L 61717 48543 C 63270,47465 64893,46445 66446,45489 L 68487 44225 L 72921 41831 L 75738 40452 C 76976,39855 78234,39316 79511,38835 L 83284 37275 L 85979 36377 L 91074 34882 L 93352 34279 L 98864 33079 L 90176 24570 L 114739 0 L 139367 24570 L 130801 33079 L 136191 34221 L 138526 34818 C 140144,35241 141703,35716 143262,36255 L 146317 37218 L 150090 38777 L 153863 40394 C 154646,40753 155422,41113 156141,41530 L 156744 41831 C 158182,42550 159619,43327 161056,44167 L 162795 45187 L 167826 48486 L 170463 50398 L 172979 52259 L 175436 54293 C 178671,57065 181693,60068 184484,63283 L 186640 65805 C 187301,66639 187955,67537 188559,68442 L 190413 70958 C 191491,72517 192512,74070 193468,75629 L 194732 77669 C 195566,79107 196349,80602 197068,82046 L 198505 84921 C 199101,86159 199641,87417 200122,88694 C 200661,89951 201200,91209 201617,92473 C 202040,93731 202278,94328 202579,95284 C 202875,96246 203658,98640 204075,100263 L 204614 102541 C 205095,104396 205454,106256 205814,108111 L 206295 111108 C 206494,112199 206635,113296 206712,114406 L 206712 117281 L 229299 117281 L 229299 130762 L 206712 130762 L 206712 133580 C 206629,134664 206494,135748 206295,136820 L 205814 139874 C 205454,141729 205095,143590 204614,145386 L 204075 147722 C 203658,149339 203176,150898 202637,152458 C 202355,153497 202015,154518 201617,155512 C 201200,156776 200661,158034 200122,159292 C 199583,160550 199101,161807 198505,163065 L 197183 165702 C 196349,167383 195566,168821 194732,170258 L 193468 172292 C 192512,173916 191491,175469 190413,177028 L 188617 179486 L 186640 182181 L 184542 184760 C 181673,187885 178593,190811 175314,193513 L 172921 195605 L 170405 197466 L 167768 199384 C 166209,200462 164650,201483 163033,202439 L 161056 203696 C 159561,204537 158117,205313 156622,206032 L 156083 206032 L 153805 207174 L 150032 208791 L 146259 210293 L 143198 211307 C 141645,211846 140086,212327 138469,212744 L 136133 213283 C 134337,213764 132533,214124 130737,214425 L 139367 223473 L 114739 248043 L 90176 223473 Z M 121509 222337 L 128818 215381 L 127984 215381 C 126893,215580 125789,215721 124685,215805 L 121811 215805 L 121509 222337 Z M 108027 222337 L 108027 216344 L 105153 216344 C 104049,216267 102945,216126 101861,215920 L 101020 215920 L 108027 222337 Z M 124390 32123 L 127682 32604 L 128523 32604 L 121509 25712 L 121509 31706 L 124390 32123 Z M 101020 32719 L 101861 32719 L 105153 32245 L 108027 31706 L 108027 25712 L 101020 32719 Z" fill="#FFFFFF" transform="translate(2990,4254)"/>
  <path d="M 117736 8451 L 126777 17499 L 127079 17800 L 138103 28824 L 132835 34099 L 126842 28106 L 121265 22472 L 121265 39072 L 126842 39496 L 131154 40150 L 132951 40150 C 134747,40150 136486,40869 138283,41292 L 140503 41831 L 145117 43211 L 148049 44167 L 151707 45669 L 155782 47343 L 158534 48723 C 159972,49442 161351,50160 162731,51001 L 164707 52195 C 166266,53157 167826,54113 169321,55191 L 170701 56276 C 171894,57110 173094,57951 174236,58849 C 179068,62782 183483,67204 187417,72036 C 188315,73171 189155,74371 189990,75507 L 191068 76951 C 192146,78446 193108,80005 194064,81564 C 195027,83124 194847,82822 195264,83541 C 195682,84260 196824,86300 197542,87738 C 198261,89175 198441,89592 198922,90490 C 199397,91389 200000,92890 200475,94148 C 200956,95406 201495,96548 201912,97806 C 202336,99063 202573,99782 202933,100738 C 203292,101701 203895,103799 204312,105352 L 204851 107572 C 205268,109369 205628,111108 205987,112904 C 205987,113508 205987,114104 205987,114701 C 205987,115304 206468,117582 206648,119020 C 206648,120893 206770,122754 207007,124589 L 229594 124589 L 229594 131840 L 206949 131840 C 206949,133721 206828,135575 206590,137417 C 206590,138854 206167,140291 205929,141729 C 205692,143166 205929,142929 205929,143532 C 205570,145329 205210,147068 204793,148864 L 204254 151078 C 203831,152637 203356,154139 202875,155692 C 202393,157251 202214,157611 201854,158631 C 201495,159651 200898,161088 200417,162288 C 199936,163482 199397,164746 198858,165939 L 197478 168699 L 195207 172895 L 194006 174872 C 193050,176431 192088,177926 191010,179428 L 189932 180923 C 189091,182065 188257,183259 187352,184401 C 183297,189316 178741,193795 173755,197767 C 172613,198665 171419,199500 170219,200340 L 168840 201418 C 167345,202496 165786,203459 164226,204415 L 162250 205615 C 160870,206391 159497,207174 158059,207893 L 155300 209273 L 151643 210825 L 147992 212269 L 145053 213283 L 140439 214663 L 138225 215202 L 132893 216344 L 131096 216344 L 126777 216998 C 124904,216998 123043,217120 121208,217358 L 121208 233721 L 126777 228151 L 132771 222158 L 138046 227426 L 127021 238456 L 122947 242473 L 117672 247741 L 112404 242473 L 108387 238456 L 97420 227727 L 102695 222453 L 108688 228446 L 113841 233721 L 113841 217537 C 111961,217537 110107,217422 108265,217178 L 103953 216524 L 102156 216524 L 96824 215381 L 94603 214842 L 89990 213463 L 87057 212449 C 85799,212025 84599,211486 83399,211005 L 79748 209452 L 76989 208073 C 75552,207354 74172,206571 72799,205795 L 70816 204595 C 69263,203638 67704,202676 66202,201598 L 64829 200520 C 63629,199679 62429,198845 61294,197947 C 56461,194007 52040,189592 48113,184760 C 47215,183618 46374,182424 45534,181225 C 44693,180024 44815,180326 44456,179787 C 43378,178286 42422,176790 41459,175231 C 41042,174570 40618,173909 40259,173255 C 39900,172594 38706,170438 37988,169058 L 36608 166299 C 36069,165105 35530,163848 35049,162648 C 34567,161448 34028,160190 33554,158990 C 33072,157790 32893,157014 32591,156051 C 32296,155095 31635,152997 31211,151438 L 30672 149224 C 30255,147427 29896,145688 29537,143827 C 29537,143288 29537,142691 29537,142088 C 29537,141491 29055,139213 28876,137776 C 28876,135915 28876,134061 28459,132200 L 5987 132200 L 5987 124589 L 28516 124589 C 28516,122735 28516,120874 28940,119020 C 28940,117582 29357,116138 29594,114701 C 29838,113264 29594,113508 29594,112904 C 29954,111108 30313,109369 30737,107572 L 31275 105352 C 31693,103799 32174,102240 32655,100738 L 33611 97806 C 34093,96548 34567,95348 35106,94148 C 35646,92948 36127,91690 36666,90490 C 37205,89290 37564,88636 38045,87738 C 38527,86839 39483,84921 40323,83541 C 40824,82829 41363,82148 41940,81500 C 42897,80005 43859,78446 44937,76951 L 46015 75507 C 46849,74371 47690,73171 48588,72036 C 52522,67204 56943,62782 61768,58849 L 65246 56276 L 66684 55191 C 68185,54113 69738,53157 71297,52195 C 71933,51765 72594,51360 73274,51001 C 74653,50218 76033,49442 77471,48723 L 80223 47343 L 83881 45784 L 87538 44289 L 90471 43327 L 94783 41947 L 97003 41408 C 98800,40991 100539,40574 102336,40272 L 104132 40272 L 108444 39611 L 113841 39072 L 113841 22716 L 108265 28343 L 102278 34337 L 97003 29068 L 108444 17980 L 108444 17678 L 117434 8631 L 117736 8451 Z M 117434 180 L 113841 4254 L 104851 13244 L 104492 13244 L 93166 24570 L 88976 28824 L 93166 33079 L 95681 35536 L 95027 35536 L 93230 35960 L 88315 37455 L 88013 37455 L 85196 38353 L 81243 39913 L 77413 41947 L 74891 43211 L 74474 43211 C 72914,43988 71419,44764 69982,45604 L 68423 46567 L 67826 46926 C 66202,47940 64586,48961 62968,50103 C 62603,50327 62263,50584 61948,50879 L 61409 51238 L 60453 51957 L 57700 53934 L 52605 58072 C 50924,59632 49307,61185 47754,62866 L 43500 67897 L 41459 70598 L 40862 71914 L 40503 72452 C 40208,72767 39951,73107 39720,73473 C 38584,75090 37564,76707 36544,78324 L 36544 78863 L 35530 80486 C 34689,81924 33913,83419 33130,84978 C 32354,86537 32116,86955 31635,87917 C 31154,88873 30493,90490 29954,91748 C 29415,93012 28940,94385 28459,95707 C 27977,97023 27798,97562 27502,98460 L 27502 98819 C 26963,100443 26482,102060 26001,103735 C 26001,104338 26001,104935 25584,105531 L 25584 106135 C 25103,107989 24685,109908 24384,112128 L 24384 113386 L 24384 113982 L 24384 115240 C 24384,116382 24024,117460 23903,118660 L 0 118660 L 0 137834 L 22824 137834 C 22824,138976 23126,140112 23306,141254 L 23306 142448 L 23967 143827 L 23967 145027 C 24262,147003 24685,148864 25160,151020 L 25160 151617 C 25160,152220 25160,152817 25584,153414 C 26059,155095 26540,156712 27079,158329 L 27977 161210 C 28516,162526 28998,163848 29537,165105 C 30075,166363 30615,167743 31211,169000 L 32591 171695 C 33489,173435 34272,174994 35106,176431 L 36069 177990 L 36428 178587 C 37449,180204 38462,181821 39605,183438 L 40381 184523 L 40741 184997 L 41459 185960 C 42120,186916 42781,187815 43500,188713 L 47690 193808 C 49249,195489 50866,197106 52547,198665 L 57521 202856 L 60215 204896 L 61229 205615 L 61768 206032 L 62731 206751 C 64348,207893 66023,208913 67646,209927 L 68185 210229 L 69738 211191 C 71240,212090 72735,212866 74294,213642 L 74596 213642 L 77233 214964 L 81122 216639 L 85017 218198 L 87834 219161 L 88135 219161 C 89752,219700 91369,220175 93050,220598 L 94847 221073 L 95444 221073 L 92929 223595 L 88732 227849 L 92929 232104 L 103953 243128 L 108027 247145 L 113302 252419 L 117492 256674 L 121747 252419 L 127021 247145 L 131096 243128 L 142056 232104 L 146310 227849 L 142056 223595 L 139540 221073 L 140144 221073 L 141941 220598 C 143615,220175 145232,219700 146849,219161 L 149910 218141 L 153921 216524 C 155178,216042 156500,215446 157758,214842 C 159016,214246 159497,214002 160331,213585 L 160691 213585 C 162192,212808 163751,212025 165189,211127 L 167165 209747 L 167762 209747 C 169379,208733 170996,207713 172613,206571 L 173697 205795 L 174172 205435 L 175135 204717 L 177888 202676 L 182925 198544 C 184542,196984 186159,195425 187718,193750 L 192030 188655 C 192749,187757 193410,186794 194129,185838 L 194783 184940 L 195142 184459 L 195925 183381 C 197061,181763 198081,180146 199101,178529 L 199101 177990 L 200058 176431 C 200956,174929 201733,173370 202516,171875 C 203292,170374 203536,169835 203953,168936 C 204370,168038 205153,166363 205628,165041 C 206109,163726 206705,162468 207187,161146 C 207668,159831 207848,159228 208149,158271 L 208149 157970 C 208708,156411 209183,154793 209587,153119 C 209587,152516 209587,151919 210062,151322 L 210062 150719 C 210543,148800 210960,146946 211262,145027 L 211262 143712 L 211262 143108 L 211262 141908 C 211262,140773 211621,139631 211743,138495 L 234568 138495 L 234568 118596 L 212641 118596 C 212641,117402 212340,116318 212160,115182 L 212160 113982 L 212160 113386 L 212160 112064 C 212160,110151 211441,108291 210960,106070 L 210960 105416 C 210960,104813 210960,104274 210543,103677 C 210126,101996 209644,100379 209105,98762 L 209105 98460 C 208804,97504 208509,96606 208149,95643 C 207790,94687 207129,93012 206590,91748 C 206051,90490 205512,89111 204909,87853 C 204312,86595 204075,86056 203593,85158 C 202695,83361 201912,81860 201078,80422 L 200115 78863 L 199756 78266 C 198742,76649 197722,75032 196580,73415 L 195803 72395 L 194668 71914 L 193949 70958 C 193288,69995 192627,69097 191908,68198 L 187718 63046 C 186159,61364 184542,59747 182925,58252 L 177830 53934 L 175070 51900 L 174114 51181 L 173755 51059 L 172677 50282 C 171060,49140 169443,48120 167762,47106 L 167280 46804 L 165663 45784 C 164226,44944 162673,44167 161172,43391 L 160812 43391 L 158117 41947 L 154222 40272 L 150327 38771 L 147510 37814 L 147209 37814 L 142300 35960 L 140503 35960 L 139900 35960 L 142415 33502 L 146670 29248 L 142415 24987 L 131333 13546 L 131032 13546 L 121984 4254 L 117736 0 L 117434 180 Z" fill="#FFFFFF"/>
  <path d="M 0 71914 L 0 79466 C 20335,77259 39303,68179 53779,53735 C 68262,39284 77381,20329 79633,0 L 72138 0 C 69956,18359 61653,35440 48563,48492 C 35472,61537 18365,69789 0,71914 Z" fill="#2D5967" transform="translate(127072,137834)"/>
  <path d="M 7488 0 L 0 0 C 2252,20329 11370,39284 25847,53735 C 40323,68179 59298,77259 79627,79466 L 79627 71914 C 61268,69789 44160,61537 31070,48492 C 17980,35440 9670,18359 7488,0 Z" fill="#2D5967" transform="translate(28811,137834)"/>
  <path d="M 72138 79646 L 79633 79646 C 77419,59285 68314,40285 53837,25802 C 39354,11319 20360,2214 0,0 L 0 7495 C 18390,9645 35511,17942 48608,31032 C 61698,44129 69988,61255 72138,79646 Z" fill="#2D5967" transform="translate(127072,39374)"/>
  <path d="M 79627 7495 L 79627 0 C 59272,2214 40278,11319 25795,25802 C 11319,40285 2214,59285 0,79646 L 7488 79646 C 9644,61255 17935,44129 31025,31032 C 44116,17942 61242,9645 79627,7495 Z" fill="#2D5967" transform="translate(28811,39374)"/>
  <path d="M 24082 14265 L 29659 19899 L 35408 25655 L 40683 20380 L 29659 9349 L 29357 9054 L 20309 0 L 11319 9054 L 11024 9349 L 0 20380 L 5268 25655 L 11024 19899 L 16594 14265 L 16594 225456 L 11024 219880 L 5268 214130 L 0 219398 L 11024 230429 L 15035 234446 L 20309 239714 L 25584 234446 L 29659 230429 L 40683 219398 L 35408 214130 L 29659 219880 L 24082 225456 L 24082 14265 Z" fill="#2D5967" transform="translate(97427,8451)"/>
  <path d="M 14258 16600 L 19834 11024 L 25584 5268 L 20315 0 L 9285 11024 L 0 20316 L 9285 29665 L 20315 40689 L 25584 35415 L 19834 29665 L 14258 24089 L 107732 24089 L 107732 16600 L 14258 16600 Z" fill="#2D5967" transform="translate(121804,107996)"/>
  <path d="M 93468 24089 L 87898 29665 L 82142 35415 L 87417 40689 L 102458 25584 L 107726 20316 L 102458 15099 L 87417 0 L 82142 5268 L 87898 11024 L 93468 16600 L 0 16600 L 0 24089 L 93468 24089 Z" fill="#2D5967" transform="translate(5987,107996)"/>
</svg>