<svg xmlns="http://www.w3.org/2000/svg" viewBox="0 0 385010 349717" width="40" height="37">
  <path d="M 243776 338142 C 171843,301765 127246,246368 119803,186018 L 118969 176097 L 118969 157084 L 113193 157084 L 113193 178574 L 92531 178574 L 92531 157084 L 62821 157084 C 57880,169482 46265,178574 32277,178574 C 14053,178574 0,163694 0,146336 C 0,128144 14887,114091 32277,114091 C 46265,114091 58714,123184 62821,137237 L 118199 137237 L 118199 55390 L 247048 0 L 375963 55390 L 375963 176097 C 371791,241408 326361,300109 251220,337314 L 247048 339798 L 243776 338142 Z" fill="#FFFFFF" transform="translate(4107,4133)"/>
  <path d="M 251990 9093 L 376733 62834 L 376733 180236 C 373460,243064 328799,300937 254492,338142 L 251990 339797 L 249487 338142 C 179286,302593 135524,248851 128080,189329 L 127246 180236 L 127246 157084 L 118134 157084 L 113193 157084 L 113193 178581 L 100808 178581 L 100808 157084 L 63591 157084 C 60318,169488 49602,178581 36384,178581 C 20662,178581 8278,166177 8278,150468 C 8278,134760 20662,122363 36384,122363 C 50372,122363 61987,132283 63591,145508 L 117300 145508 L 126411 145508 L 126411 62834 L 251990 9093 Z M 251990 0 L 248717 1656 L 123910 55390 L 118969 57873 L 118969 63662 L 118969 138071 L 118134 138071 L 70200 138071 C 64425,124840 51206,114919 36384,114919 C 16555,114919 0,131455 0,151296 C 0,171137 16555,187673 36384,187673 C 51206,187673 63591,179408 69430,166177 L 92531 166177 L 92531 179408 L 92531 187673 L 100808 187673 L 113193 187673 L 118969 187673 L 118969 190978 C 126411,253812 172677,310036 244546,346413 L 247048 348062 L 251155 349718 L 256096 347241 L 258599 345585 C 335408,306725 381674,247202 385011,181058 L 385011 62834 L 385011 57046 L 380069 54569 L 255326 1656 L 251990 0 Z" fill="#FFFFFF"/>
  <path d="M 124744 0 L 0 53735 L 0 127317 L 12385 127317 L 12385 61178 L 124744 13225 L 237103 61178 L 237103 170309 C 233830,228183 192505,281096 124744,316645 C 60318,283573 19829,233971 13219,180230 L 12385 180230 L 834 180230 C 8278,239759 52040,293494 122241,329049 L 124744 330698 L 127246 329049 C 201553,291844 246214,233971 249487,171137 L 249487 53735 L 124744 0 Z" fill="#2D5967" transform="translate(127246,9093)"/>
  <path d="M 52040 9099 L 43827 0 L 18159 25629 L 8277 16536 L 0 24807 L 18159 42993 L 52040 9099 Z" fill="#2D5967" transform="translate(258599,65311)"/>
  <path d="M 0 29761 L 33881 29761 L 16492 0 L 0 29761 Z" fill="#2D5967" transform="translate(267710,219091)"/>
  <path d="M 11368 317 C 3091,1973 -1851,10238 652,18509 C 3091,26774 10533,31734 18811,29257 C 27089,26774 32031,19337 29528,11065 C 27924,3628 19646,-1332 11368,317 Z" fill="#2D5967" transform="translate(200965,219601)"/>
  <path d="M 165234 0 L 0 0 L 0 82674 L 164399 82674 L 165234 0 Z M 152785 70277 L 12384 70277 L 12384 12404 L 152785 12404 L 152785 70277 Z" fill="#2D5967" transform="translate(169405,120701)"/>
  <path d="M 11551 23152 C 17967,23152 23165,17967 23165,11576 C 23165,5185 17967,0 11551,0 C 5197,0 0,5185 0,11576 C 0,17967 5197,23152 11551,23152 Z" fill="#2D5967" transform="translate(277592,149641)"/>
  <path d="M 34715 0 L 0 0 L 0 12397 L 34715 12397 L 34715 0 Z" fill="#2D5967" transform="translate(199115,87635)"/>
  <path d="M 118968 36377 L 118968 58701 L 131353 58701 L 131353 57873 L 131353 23152 L 109856 23152 L 56147 23152 C 53709,9920 42094,0 28106,0 C 12384,0 0,12404 0,28112 C 0,43820 12384,56218 28106,56218 C 41324,56218 52040,47125 55313,34721 L 92530 34721 L 92530 56218 L 104915 56218 L 104915 36377 L 109856 36377 L 118968 36377 Z M 28106 45470 C 18994,45470 12384,38032 12384,29761 C 12384,21496 19828,14053 28106,14053 C 36319,14053 43763,21496 43763,29761 C 43763,38860 37153,45470 28106,45470 Z" fill="#2D5967" transform="translate(8278,120701)"/>
</svg>