<svg xmlns="http://www.w3.org/2000/svg" viewBox="0 0 241703 385010" width="25" height="40">
  <path d="M 20829 375846 C 15304,375846 10004,373651 6096,369750 C 2194,365849 0,360555 0,355036 L 0 121187 C 0,115669 2194,110375 6096,106473 C 10004,102572 15304,100384 20829,100384 L 70560 100384 L 65516 93049 C 56468,80222 52881,64340 55525,48882 C 58175,33418 66851,19634 79646,10548 C 89971,3521 102207,-155 114701,5 C 124224,-1 133605,2328 142018,6788 C 150437,11247 157623,17696 162969,25576 C 169777,35510 173428,47271 173428,59316 C 173428,71354 169777,83116 162969,93049 L 157918 100384 L 211782 100384 C 217306,100384 222607,102572 226514,106473 C 230416,110375 232611,115669 232611,121187 L 232611 355036 C 232611,360555 230416,365849 226514,369750 C 222607,373651 217306,375846 211782,375846 L 20829 375846 Z" fill="#FFFFFF" transform="translate(4588,4577)"/>
  <path d="M 119289 9170 C 127990,9247 136544,11435 144212,15535 C 151887,19642 158445,25539 163334,32726 C 169649,41896 173030,52766 173030,63893 C 173030,75026 169649,85890 163334,95059 L 153702 110004 L 216286 110004 C 220592,110004 224724,111711 227766,114752 C 230814,117800 232527,121926 232527,126226 L 232527 359619 C 232527,361750 232104,363861 231289,365824 C 230474,367794 229274,369585 227766,371092 C 226258,372600 224467,373794 222497,374609 C 220527,375424 218416,375841 216286,375841 L 25417 375841 C 23287,375841 21176,375424 19206,374609 C 17229,373794 15439,372600 13931,371092 C 12423,369585 11230,367794 10415,365824 C 9593,363861 9176,361750 9176,359619 L 9176 125770 C 9298,121548 11056,117537 14091,114592 C 17126,111647 21188,110004 25417,110004 L 83868 110004 L 73871 95059 C 65606,83207 62340,68590 64778,54351 C 67216,40118 75160,27406 86897,18975 C 96432,12455 107739,9029 119289,9170 Z M 119289 0 C 106180,32 93384,4023 82585,11461 C 68859,21278 59548,36108 56680,52734 C 53812,69353 57617,86441 67261,100289 L 25417 100289 C 22074,100289 18756,100943 15670,102227 C 12577,103510 9773,105390 7411,107758 C 5050,110126 3183,112936 1906,116023 C 635,119116 -13,122427 0,125770 L 0 359619 C 0,366350 2676,372812 7444,377574 C 12211,382335 18679,385011 25417,385011 L 216286 385011 C 223024,385011 229492,382335 234253,377574 C 239021,372812 241703,366350 241703,359619 L 241703 125770 C 241581,119116 238848,112776 234093,108111 C 229344,103446 222947,100834 216286,100834 L 171137 100834 C 178497,90144 182431,77471 182431,64489 C 182431,51508 178497,38835 171137,28144 C 165452,19578 157758,12532 148717,7630 C 139682,2721 129575,103 119289,0 L 119289 0 Z" fill="#FFFFFF"/>
  <path d="M 207104 0 L 157649 0 L 147735 13931 L 207104 13931 C 207591,13931 208060,14123 208406,14470 C 208746,14810 208939,15278 208939,15766 L 208939 249615 C 208939,250096 208746,250565 208406,250911 C 208060,251252 207591,251444 207104,251444 L 16241 251444 C 15753,251444 15291,251252 14945,250911 C 14598,250565 14406,250096 14406,249615 L 14406 15766 C 14406,15278 14598,14810 14945,14470 C 15291,14123 15753,13931 16241,13931 L 71298 13931 L 61570 0 L 16241 0 C 12012,-6 7951,1643 4915,4588 C 1880,7533 122,11544 0,15766 L 0 249615 C 0,251746 417,253850 1238,255820 C 2053,257790 3247,259580 4755,261088 C 6263,262590 8053,263790 10023,264605 C 11999,265420 14111,265837 16241,265837 L 207104 265837 C 209241,265837 211352,265420 213322,264605 C 215292,263790 217082,262590 218590,261088 C 220098,259580 221298,257790 222113,255820 C 222928,253850 223351,251746 223351,249615 L 223351 15766 C 223229,11544 221464,7533 218430,4588 C 215401,1643 211339,-6 207104,0 Z" fill="#2D5967" transform="translate(9170,110011)"/>
  <path d="M 0 64810 L 172876 64810 L 172876 0 L 115163 0 L 105249 14387 L 158470 14387 L 158470 50417 L 14406 50417 L 14406 14387 L 63501 14387 L 53683 0 L 0 0 L 0 64810 Z" fill="#2D5967" transform="translate(34414,134754)"/>
  <path d="M 7251 14483 C 11255,14483 14502,11236 14502,7238 C 14502,3241 11255,0 7251,0 C 3247,0 0,3241 0,7238 C 0,11236 3247,14483 7251,14483 Z" fill="#2D5967" transform="translate(167646,159870)"/>
  <path d="M 0 64720 L 172876 64720 L 172876 0 L 0 0 L 0 64720 Z M 14406 14303 L 158290 14303 L 158290 50327 L 14406 50327 L 14406 14303 Z" fill="#2D5967" transform="translate(34414,210293)"/>
  <path d="M 7251 14483 C 11255,14483 14502,11242 14502,7245 C 14502,3241 11255,0 7251,0 C 3247,0 0,3241 0,7245 C 0,11242 3247,14483 7251,14483 Z" fill="#2D5967" transform="translate(167646,235492)"/>
  <path d="M 0 64720 L 172876 64720 L 172876 0 L 0 0 L 0 64720 Z M 14406 14393 L 158290 14393 L 158290 50327 L 14406 50327 L 14406 14393 Z" fill="#2D5967" transform="translate(34414,285916)"/>
  <path d="M 7251 14483 C 11255,14483 14502,11242 14502,7238 C 14502,3241 11255,0 7251,0 C 3247,0 0,3241 0,7238 C 0,11242 3247,14483 7251,14483 Z" fill="#2D5967" transform="translate(167646,311038)"/>
  <path d="M 55300 151255 L 100173 85900 C 106487,76724 109869,65860 109869,54727 C 109869,43600 106487,32730 100173,23560 C 95206,16258 88514,10290 80685,6177 C 72863,2070 64142,-47 55300,4 C 43750,-131 32443,3289 22908,9809 C 11171,18247 3227,30952 789,45185 C -1650,59424 1617,74048 9881,85900 L 55300 151255 Z M 87968 32088 C 92588,38839 95058,46828 95058,55002 C 95058,63184 92588,71173 87968,77924 L 55300 125774 L 21810 77737 C 15599,69094 13071,58339 14790,47835 C 16516,37337 22336,27943 30986,21731 C 38160,16874 46637,14320 55300,14397 C 61678,14480 67941,16110 73549,19145 C 79164,22180 83951,26525 87512,31812 L 87968 32088 Z" fill="#2D5967" transform="translate(63989,9160)"/>
  <path d="M 23216 46199 C 27785,46180 32251,44813 36037,42265 C 39829,39712 42781,36099 44514,31877 C 46253,27654 46695,23015 45797,18536 C 44892,14063 42685,9956 39444,6735 C 36210,3514 32084,1320 27605,434 C 23120,-445 18474,17 14258,1769 C 10036,3520 6430,6479 3895,10277 C 1354,14070 0,18536 0,23098 C 0,26140 603,29156 1771,31960 C 2939,34770 4652,37318 6808,39468 C 8964,41611 11524,43311 14342,44466 C 17159,45621 20174,46212 23216,46199 Z M 23216 14391 C 25032,14391 26809,14930 28317,15937 C 29826,16945 31000,18375 31693,20050 C 32392,21725 32572,23567 32219,25344 C 31866,27128 30987,28758 29703,30041 C 28420,31325 26790,32197 25006,32550 C 23229,32903 21381,32723 19706,32030 C 18031,31331 16594,30157 15586,28649 C 14579,27141 14040,25370 14040,23560 C 14040,21128 15009,18793 16729,17079 C 18448,15360 20784,14391 23216,14391 Z" fill="#2D5967" transform="translate(96073,41892)"/>
</svg>