<svg xmlns="http://www.w3.org/2000/svg" viewBox="0 0 256673 256673" width="27" height="27">
  <path d="M 122497 245008 C 190131,245008 244995,190157 244995,122504 C 244995,54845 190131,0 122497,0 C 54864,0 0,54845 0,122504 C 0,190157 54864,245008 122497,245008 Z" fill="#FFFFFF" transform="translate(5840,5833)"/>
  <path d="M 128337 11666 C 192505,11666 244995,64168 244995,128337 C 244995,192505 192505,245008 128337,245008 C 64168,245008 11678,192505 11678,128337 C 11678,64168 64168,11666 128337,11666 Z M 128337 0 C 57174,0 0,57168 0,128337 C 0,199506 57174,256674 128337,256674 C 199499,256674 256674,199506 256674,128337 C 256674,57168 199499,0 128337,0 Z" fill="#FFFFFF"/>
  <path d="M 116659 0 C 52490,0 0,52503 0,116671 C 0,180840 52490,233336 116659,233336 C 180827,233336 233317,180840 233317,116671 C 233317,52503 180827,0 116659,0 Z M 116659 224006 C 57174,224006 9305,176168 9305,116671 C 9305,57168 57174,9330 116659,9330 C 176143,9330 224012,57168 224012,116671 C 224012,176168 176143,224006 116659,224006 Z" fill="#2D5967" transform="translate(11679,11672)"/>
  <path d="M 146945 0 L 139951 7001 L 155159 22164 L 18608 22164 L 33816 7001 L 26822 0 L 0 26835 L 26822 53664 L 33816 46670 L 18608 31500 L 155159 31500 L 139951 46670 L 146945 53664 L 173832 26835 L 146945 0 Z" fill="#2D5967" transform="translate(42031,101508)"/>
</svg>