<svg xmlns="http://www.w3.org/2000/svg" viewBox="0 0 385010 385010" width="40" height="40">
  <path d="M 270470 309934 L 180955 309934 L 180955 269507 L 86627 269507 L 86627 309934 L 55827 309934 C 32726,309934 13475,290683 13475,267582 C 13475,244482 32726,225231 55827,225231 L 308971 225231 C 339772,225231 364797,200206 364797,169405 C 364797,138604 340734,114541 309933,114541 L 272395 114541 L 272395 74115 L 178067 74115 L 178067 114541 L 84702 114541 C 72189,114541 61602,105878 58714,94328 L 95290 94328 L 95290 0 L 963 0 L 963 94328 L 45239 94328 C 48126,113578 64489,128016 84702,128016 L 178067 128016 L 178067 168442 L 272395 168442 L 272395 128016 L 309933 128016 C 333034,128016 352285,147267 352285,170367 C 352285,193468 333034,212718 309933,212718 L 55827 212718 C 25026,212718 0,237744 0,268545 C 0,299346 25026,324372 55827,324372 L 86627 324372 L 86627 364798 L 180955 364798 L 180955 324372 L 270470 324372 L 270470 364798 L 364797 364798 L 364797 270470 L 270470 270470 L 270470 309934 Z M 14438 80852 L 14438 13475 L 81815 13475 L 81815 80852 L 14438 80852 Z M 258919 154967 L 191543 154967 L 191543 87590 L 258919 87590 L 258919 154967 Z M 167479 350360 L 100103 350360 L 100103 282983 L 167479 282983 L 167479 350360 Z M 283945 282983 L 351322 282983 L 351322 350360 L 283945 350360 L 283945 282983 Z" fill="#2C5967" transform="translate(9625,10588)"/>
  <path d="M 280095 270470 L 269507 270470 L 269507 281058 L 269507 311859 L 200206 311859 L 200206 281058 L 200206 270470 L 189618 270470 L 96253 270470 L 85665 270470 L 85665 281058 L 85665 311859 L 65452 311859 C 48126,311859 33688,297421 33688,280095 C 33688,262770 48126,248332 65452,248332 L 318596 248332 C 355172,248332 384048,218493 384048,182880 C 384048,147267 354210,117428 318596,117428 L 291646 117428 L 291646 84702 L 291646 74114 L 281058 74114 L 186730 74114 L 176142 74114 L 176142 84702 L 176142 115503 L 113578 115503 L 113578 104915 L 113578 10588 L 113578 0 L 102990 0 L 10588 0 L 0 0 L 0 10588 L 0 104915 L 0 115503 L 10588 115503 L 47164 115503 C 50051,124166 54864,130904 61602,136679 C 70265,144379 82777,149192 94328,149192 L 177105 149192 L 177105 179992 L 177105 190580 L 187693 190580 L 282020 190580 L 292608 190580 L 292608 179992 L 292608 149192 L 319559 149192 C 336884,149192 351322,163630 351322,180955 C 351322,198280 336884,212718 319559,212718 L 65452 212718 C 28876,212718 0,242557 0,278170 C 0,313784 29838,343622 65452,343622 L 85665 343622 L 85665 374423 L 85665 385011 L 96253 385011 L 190580 385011 L 201168 385011 L 201168 374423 L 201168 343622 L 270470 343622 L 270470 374423 L 270470 385011 L 281058 385011 L 375385 385011 L 385011 385011 L 385011 374423 L 385011 280095 L 385011 269507 L 374423 269507 L 280095 269507 L 280095 270470 Z M 374423 374423 L 280095 374423 L 280095 333997 L 190580 333997 L 190580 374423 L 96253 374423 L 96253 333997 L 65452 333997 C 34651,333997 9625,308971 9625,278170 C 9625,247369 34651,222344 65452,222344 L 318596 222344 C 341697,222344 360947,203093 360947,179992 C 360947,156892 341697,137641 318596,137641 L 281058 137641 L 281058 178067 L 186730 178067 L 186730 137641 L 94328 137641 C 74114,137641 57752,123203 54864,103953 L 10588 103953 L 10588 10588 L 104915 10588 L 104915 104915 L 68340 104915 C 71227,116466 81815,125128 94328,125128 L 187693 125128 L 187693 84702 L 282020 84702 L 282020 125128 L 319559 125128 C 350359,125128 375385,150154 375385,180955 C 375385,211756 350359,236781 319559,236781 L 65452 236781 C 42351,236781 23100,256032 23100,279133 C 23100,302233 42351,321484 65452,321484 L 96253 321484 L 96253 281058 L 190580 281058 L 190580 321484 L 280095 321484 L 280095 281058 L 374423 281058 L 374423 374423 Z" fill="#FFFFFF"/>
  <path d="M 67377 0 L 0 0 L 0 67377 L 67377 67377 L 67377 0 Z" fill="#FFFFFF" transform="translate(293570,293570)"/>
  <path d="M 0 67377 L 67377 67377 L 67377 0 L 0 0 L 0 67377 Z" fill="#FFFFFF" transform="translate(109728,293570)"/>
  <path d="M 0 67377 L 67377 67377 L 67377 0 L 0 0 L 0 67377 Z" fill="#FFFFFF" transform="translate(201168,98178)"/>
  <path d="M 67377 0 L 0 0 L 0 67377 L 67377 67377 L 67377 0 Z" fill="#FFFFFF" transform="translate(24063,24063)"/>
</svg>