<svg xmlns="http://www.w3.org/2000/svg" viewBox="0 0 374313 385010" width="39" height="40">
  <path d="M 0 375847 L 0 152175 L 178902 152175 L 178902 76085 L 212847 61422 C 212847,60504 212847,59587 212847,58669 C 212847,56834 212847,55005 212847,53170 C 215599,22921 240368,0 271561,0 C 301842,0 326611,22003 329364,52252 C 329364,54088 329364,56834 329364,58669 C 329364,59587 329364,60504 329364,60504 L 365144 75173 L 365144 161339 C 363309,192505 348627,220925 322023,244758 L 361474 284176 L 344957 300680 L 335787 291511 L 335787 375847 L 0 375847 Z" fill="#FFFFFF" transform="translate(4581,4581)"/>
  <path d="M 276149 9170 C 303671,9170 326611,30249 330275,56834 C 330275,58669 330275,60504 330275,63251 C 330275,65086 330275,66921 330275,68750 L 366055 84337 L 366055 166838 C 364220,198004 348627,227342 321105,250257 L 360556 289676 L 351380 298839 L 337616 285094 L 337616 375841 L 9176 375841 L 9176 161339 L 188071 161339 L 188071 83419 L 222016 68750 C 222016,66921 222016,65086 222016,63251 C 222016,61416 222016,59587 222016,57752 C 224769,30249 247709,9170 276149,9170 Z M 276149 0 C 243121,0 216517,24750 212847,56834 C 212847,58669 212847,60504 212847,63251 L 184407 75167 L 178902 77920 L 178902 84337 L 178902 153087 L 9176 153087 L 0 153087 L 0 162256 L 0 375841 L 0 385011 L 9176 385011 L 336698 385011 L 345874 385011 L 345874 375841 L 345874 307091 L 350462 311673 L 356886 305256 L 366055 296092 L 372479 289676 L 366055 283259 L 333945 251174 C 358721,227342 372479,198004 374314,167756 L 374314 85254 L 374314 77920 L 368808 75167 L 339451 62333 C 339451,60504 339451,58669 339451,55916 C 334863,23832 308259,0 276149,0 Z" fill="#FFFFFF"/>
  <path d="M 13764 13751 L 0 13751 L 0 27496 L 27522 27496 L 27522 0 L 13764 0 L 13764 13751 Z" fill="#2D5967" transform="translate(309176,348344)"/>
  <path d="M 13764 0 L 0 0 L 0 27496 L 27522 27496 L 27522 13751 L 13764 13751 L 13764 0 Z" fill="#2D5967" transform="translate(9163,348344)"/>
  <path d="M 0 27502 L 13764 27502 L 13764 13751 L 27522 13751 L 27522 0 L 0 0 L 0 27502 Z" fill="#2D5967" transform="translate(9163,161338)"/>
  <path d="M 27522 0 L 0 0 L 0 13751 L 27522 13751 L 27522 0 Z" fill="#2D5967" transform="translate(196329,362095)"/>
  <path d="M 27522 0 L 0 0 L 0 13751 L 27522 13751 L 27522 0 Z" fill="#2D5967" transform="translate(233945,362095)"/>
  <path d="M 27522 0 L 0 0 L 0 13751 L 27522 13751 L 27522 0 Z" fill="#2D5967" transform="translate(271560,362095)"/>
  <path d="M 27522 0 L 0 0 L 0 13751 L 27522 13751 L 27522 0 Z" fill="#2D5967" transform="translate(158714,362095)"/>
  <path d="M 27528 0 L 0 0 L 0 13751 L 27528 13751 L 27528 0 Z" fill="#2D5967" transform="translate(121098,362095)"/>
  <path d="M 27528 0 L 0 0 L 0 13751 L 27528 13751 L 27528 0 Z" fill="#2D5967" transform="translate(84400,362095)"/>
  <path d="M 27528 0 L 0 0 L 0 13751 L 27528 13751 L 27528 0 Z" fill="#2D5967" transform="translate(46785,362095)"/>
  <path d="M 13764 0 L 0 0 L 0 27503 L 13764 27503 L 13764 0 Z" fill="#2D5967" transform="translate(9163,274089)"/>
  <path d="M 13764 0 L 0 0 L 0 27496 L 13764 27496 L 13764 0 Z" fill="#2D5967" transform="translate(9163,311678)"/>
  <path d="M 13764 0 L 0 0 L 0 27496 L 13764 27496 L 13764 0 Z" fill="#2D5967" transform="translate(322934,311678)"/>
  <path d="M 13764 0 L 0 0 L 0 27503 L 13764 27503 L 13764 0 Z" fill="#2D5967" transform="translate(9163,236505)"/>
  <path d="M 13764 0 L 0 0 L 0 27503 L 13764 27503 L 13764 0 Z" fill="#2D5967" transform="translate(9163,198922)"/>
  <path d="M 27528 0 L 0 0 L 0 13751 L 27528 13751 L 27528 0 Z" fill="#2D5967" transform="translate(121098,161338)"/>
  <path d="M 18352 4582 L 18352 0 L 0 0 L 0 13751 L 19270 13751 C 18352,10998 18352,8252 18352,4582 Z" fill="#2D5967" transform="translate(159631,161338)"/>
  <path d="M 27528 0 L 0 0 L 0 13751 L 27528 13751 L 27528 0 Z" fill="#2D5967" transform="translate(84400,161338)"/>
  <path d="M 27528 0 L 0 0 L 0 13751 L 27528 13751 L 27528 0 Z" fill="#2D5967" transform="translate(46785,161338)"/>
  <path d="M 0 31167 L 9176 40330 L 23858 26585 L 23858 42165 L 37616 42165 L 37616 26585 L 51380 40330 L 60549 31167 L 30275 0 L 0 31167 Z" fill="#2D5967" transform="translate(299082,258509)"/>
  <path d="M 14799 70 C 7458,987 1035,7404 117,14732 C -801,22984 3787,29401 10211,33071 L 12963 33983 L 7458 68820 L 25810 68820 L 21222 34900 L 22139 34900 C 28563,32154 34062,25737 34062,18403 C 34062,7404 24892,-848 14799,70 Z" fill="#2D5967" transform="translate(258597,123685)"/>
  <path d="M 33945 59580 L 0 74249 L 0 156751 C 2753,200751 33945,241087 85325,267672 L 88078 269507 L 90830 267672 C 143121,242005 173396,201668 176149,156751 L 176149 74249 L 140368 58669 C 140368,56834 140368,54999 140368,53164 C 140368,51335 140368,49500 140368,46747 C 138533,21079 115599,0 88078,0 C 60556,0 36698,21079 33945,48582 C 33945,50417 33945,52252 33945,54081 C 33945,55916 33945,57751 33945,59580 Z M 163309 156751 C 161473,195252 133952,231006 88078,253921 C 43121,230089 15599,195252 12847,156751 L 12847 83419 L 88078 51335 L 163309 83419 L 163309 156751 Z M 88078 13751 C 105506,13751 121105,25667 126611,41247 C 127528,44918 128446,48582 128446,53164 L 88078 36666 L 46792 54081 C 46792,50417 47709,45836 48627,42165 C 54133,25667 69725,13751 88078,13751 Z" fill="#2D5967" transform="translate(188071,9169)"/>
</svg>