<svg xmlns="http://www.w3.org/2000/svg" viewBox="0 0 385010 385010" width="40" height="40">
  <path d="M 326823 375841 L 260761 291780 L 140080 291780 L 101649 330371 L 98357 327073 C 92781,321503 85235,318378 77361,318378 C 69488,318378 61935,321503 56359,327073 L 53067 330371 L 20219 297369 L 0 278215 L 0 0 L 375681 0 L 375681 375841 L 326823 375841 Z" fill="#FFFFFF" transform="translate(4581,4588)"/>
  <path d="M 375680 9170 L 375680 375841 L 333682 375841 L 267897 291780 L 142730 291780 L 135870 298749 L 128369 306269 L 106224 328453 C 103035,325251 99249,322709 95085,320977 C 90914,319244 86448,318352 81937,318352 C 77419,318352 72953,319244 68782,320977 C 64618,322709 60832,325251 57643,328453 L 34401 305166 L 27997 298749 L 9150 280782 L 9150 9170 L 375680 9170 Z M 384825 0 L 0 0 L 0 284722 L 2836 287474 L 21682 305808 L 27997 312045 L 51238 334959 L 57643 341466 L 64046 334959 C 66376,332604 69148,330737 72202,329466 C 75257,328189 78536,327535 81840,327535 C 85151,327535 88424,328189 91479,329466 C 94533,330737 97305,332604 99641,334959 L 106135 341466 L 112539 334959 L 134683 312776 L 142184 305256 L 146484 300950 L 263411 300950 L 326457 381526 L 329383 385011 L 385011 385011 L 385011 0 L 384825 0 Z" fill="#FFFFFF"/>
  <path d="M 27517 55005 C 22082,55018 16769,53414 12245,50398 C 7721,47382 4192,43089 2107,38065 C 15,33040 -531,27509 522,22164 C 1574,16825 4186,11923 8029,8066 L 10038 6237 L 11963 4768 C 16564,1675 21973,19 27517,0 C 32747,160 37829,1816 42154,4768 L 43983 6141 C 44766,6725 45497,7367 46177,8066 C 48764,10626 50817,13674 52222,17037 C 53621,20393 54346,23999 54346,27637 C 54346,31282 53621,34888 52222,38244 C 50817,41607 48764,44655 46177,47209 C 41172,52092 34499,54883 27517,55005 Z" fill="#FFFFFF" transform="translate(54830,325237)"/>
  <path d="M 32574 9170 C 36995,9182 41320,10492 45016,12924 C 45574,13232 46100,13597 46569,14027 L 48032 15310 C 51933,19674 54012,25372 53846,31224 C 53685,37077 51292,42646 47153,46785 C 43020,50931 37463,53324 31624,53491 C 25778,53651 20093,51572 15736,47671 C 13612,45540 11924,43012 10776,40227 C 9633,37442 9050,34452 9056,31442 C 9037,28439 9614,25468 10763,22696 C 11912,19924 13599,17409 15736,15310 L 16288 14849 L 17385 13841 L 17930 13841 L 19304 12924 C 23244,10350 27870,9041 32574,9170 Z M 32574 0 C 26433,13 20433,1790 15280,5133 L 13541 6417 L 12810 6969 L 11347 8342 L 10885 8342 L 9242 9170 C 4795,13687 1786,19417 586,25648 C -621,31879 47,38321 2492,44174 C 4936,50026 9050,55024 14324,58541 C 19592,62051 25785,63931 32112,63931 C 38445,63931 44637,62051 49906,58541 C 55180,55024 59294,50026 61738,44174 C 64183,38321 64850,31879 63644,25648 C 62444,19417 59435,13687 54988,9170 L 54442 9170 L 53980 9170 C 53980,9170 52973,8252 52427,7700 L 51972 7700 L 50047 6327 C 44997,2490 38901,289 32574,0 Z" fill="#FFFFFF" transform="translate(49773,320842)"/>
  <path d="M 545 0 L 0 255114 C 4793,251162 9901,247600 15279,244482 L 15279 15311 L 351335 15311 L 351335 351367 L 331943 351367 L 266158 267396 L 158464 267396 L 158926 267396 L 166607 275096 L 167159 275648 L 173197 282155 L 258746 282155 L 324532 366678 L 366524 366678 L 366524 0 L 545 0 Z" fill="#2D5967" transform="translate(9157,9169)"/>
  <path d="M 30288 106885 L 56269 126777 L 83721 66735 L 83721 0 L 0 0 L 0 72144 L 30012 72144 L 30288 106885 Z M 15554 56930 L 15554 15400 L 68712 15400 L 68712 62609 L 50417 102490 L 45752 99281 L 45752 56930 L 15554 56930 Z" fill="#2D5967" transform="translate(100641,93224)"/>
  <path d="M 30012 106885 L 55814 126777 L 83258 66735 L 83258 0 L 0 0 L 0 72144 L 30012 72144 L 30012 106885 Z M 15278 56930 L 15278 15400 L 68442 15400 L 68442 62609 L 50141 102490 L 45290 99281 L 45290 56930 L 15278 56930 Z" fill="#2D5967" transform="translate(200372,93224)"/>
  <path d="M 10793 40619 C 11801,39521 12898,38508 13995,37500 C 30056,23088 50853,15124 72414,15124 C 93975,15124 114778,23088 130833,37500 C 131930,38508 133034,39521 134035,40619 L 144834 29800 C 125552,10710 99532,0 72414,0 C 45303,0 19283,10710 0,29800 L 10793 40619 Z" fill="#2D5967" transform="translate(9157,250064)"/>
  <path d="M 53985 0 C 43955,-13 34028,1951 24762,5788 C 15503,9632 7084,15266 0,22369 L 10799 33188 C 12262,31718 13725,30345 15278,29062 C 26206,20168 39855,15311 53940,15311 C 68018,15311 81667,20168 92595,29062 C 94148,30345 95611,31718 97074,33188 L 107873 22369 C 100802,15272 92402,9638 83156,5801 C 73909,1964 63995,-6 53985,0 Z" fill="#2D5967" transform="translate(28362,276379)"/>
  <path d="M 35139 1 C 22818,-64 10934,4518 1835,12834 L 0 14483 L 10434 25302 C 13623,22100 17409,19559 21573,17827 C 25744,16094 30211,15202 34722,15202 C 39239,15202 43705,16094 47876,17827 C 52041,19559 55827,22100 59016,25302 L 69815 14483 L 67980 12834 C 59003,4627 47292,52 35139,1 Z" fill="#2D5967" transform="translate(47208,303150)"/>
  <path d="M 38059 6058 L 36596 4774 C 36121,4351 35601,3978 35043,3677 C 31347,1277 27041,0 22646,0 C 18244,0 13938,1277 10248,3677 L 8875 4594 L 8323 4594 L 7226 5602 L 6674 6058 C 4538,8162 2850,10671 1701,13443 C 553,16215 -25,19193 1,22196 C -12,25205 572,28189 1721,30974 C 2863,33759 4550,36287 6674,38418 C 8753,40741 11275,42621 14099,43930 C 16922,45245 19983,45964 23089,46054 C 26201,46144 29294,45592 32188,44437 C 35082,43288 37706,41556 39907,39348 C 42108,37147 43834,34516 44983,31616 C 46131,28722 46683,25623 46593,22504 C 46510,19385 45785,16324 44476,13495 C 43167,10665 41293,8137 38977,6058 L 38059 6058 Z" fill="#2D5967" transform="translate(60022,330460)"/>
</svg>