<svg xmlns="http://www.w3.org/2000/svg" viewBox="0 0 385010 385010" width="40" height="40">
  <path d="M 326983 375841 L 261076 291594 L 173441 291594 L 173441 316074 L 156295 317999 L 167024 331475 L 128979 369514 L 115593 358701 L 113668 375841 L 59863 375841 L 58028 358701 L 44552 369514 L 6507 331475 L 17236 317999 L 186 316074 L 186 281603 L 0 281603 L 0 0 L 375937 0 L 375937 375841 L 326983 375841 Z" fill="#FFFFFF" transform="translate(4581,4588)"/>
  <path d="M 375841 9170 L 375841 375841 L 333676 375841 L 267858 291601 L 173441 291601 L 173441 316626 L 153362 318827 C 153247,319206 153093,319578 152907,319924 L 165465 335691 L 133284 367961 L 117518 355307 L 116421 355859 L 114130 375841 L 68294 375841 L 66093 355859 L 64900 355307 L 49499 367961 L 17236 335691 L 29793 319924 C 29826,319559 29826,319193 29793,318827 L 9170 316626 L 9170 284632 L 9170 286191 L 9170 9170 L 375841 9170 Z M 385011 0 L 0 0 L 0 286191 L 0 324782 L 8156 325700 L 12924 326251 L 10081 330012 L 4947 336332 L 10722 342204 L 42993 374378 L 48768 380243 L 55185 375109 L 58945 372087 L 59491 376855 L 60408 385011 L 122376 385011 L 123293 376855 L 123845 372087 L 127509 375109 L 133926 380243 L 139797 374378 L 171971 342204 L 177747 336332 L 172703 330012 L 169681 326251 L 174448 325700 L 182604 324782 L 182604 300764 L 263456 300764 L 326617 381526 L 329370 385011 L 385011 385011 L 385011 0 Z" fill="#FFFFFF"/>
  <path d="M 0 0 L 0 234580 L 4761 229813 L 15304 219366 L 15670 15311 L 351457 15311 L 351457 351091 L 332117 351091 L 266203 267127 L 175725 267127 L 175725 268680 L 175725 282341 L 258778 282341 L 324596 366678 L 366768 366678 L 366768 0 L 0 0 Z" fill="#2D5967" transform="translate(9169,9169)"/>
  <path d="M 30069 106795 L 56103 126226 L 83605 66273 L 83605 0 L 0 0 L 0 71869 L 30069 71869 L 30069 106795 Z M 15311 56924 L 15311 15400 L 68481 15400 L 68481 62699 L 50141 102483 L 45836 99371 L 45836 57200 L 15311 56924 Z" fill="#2D5967" transform="translate(100834,93140)"/>
  <path d="M 30063 106795 L 56282 126226 L 83785 66273 L 83785 0 L 0 0 L 0 71869 L 30063 71869 L 30063 106795 Z M 15214 56924 L 15214 15400 L 68474 15400 L 68474 62699 L 50141 102483 L 45373 99371 L 45373 57200 L 15214 56924 Z" fill="#2D5967" transform="translate(200391,93140)"/>
  <path d="M 164271 58849 L 144193 56648 C 144065,56244 143911,55846 143737,55454 L 156295 39784 L 124115 7880 L 108348 20534 L 107251 19982 L 104960 0 L 59125 0 L 56924 19982 L 55730 20534 L 40330 7880 L 8066 39784 L 20624 55454 C 20675,55852 20675,56256 20624,56648 L 0 58849 L 0 104684 L 19982 106885 C 20021,107251 20021,107617 19982,107983 L 8066 123569 L 40330 155833 L 56006 143185 L 57200 143737 L 59401 163719 L 105236 163719 L 107527 143737 L 108624 143185 L 124391 155833 L 156571 123569 L 143737 107803 C 143923,107450 144077,107084 144193,106699 L 164271 104498 L 164271 58849 Z M 132919 92582 L 131359 97350 C 130493,100128 129383,102823 128061,105416 L 125770 109818 L 135851 122465 L 122928 135395 L 109998 125218 L 105506 127509 C 102926,128882 100231,130018 97440,130904 L 92768 132367 L 91665 148409 L 73332 148409 L 71593 132367 L 66825 130904 C 64047,129999 61345,128863 58759,127509 L 54081 125218 L 41434 135395 L 28504 122465 L 38681 109818 L 36666 105416 C 35312,102830 34176,100128 33272,97350 L 31808 92582 L 15670 90843 L 15670 72510 L 31808 70765 L 33272 65997 C 34176,63219 35312,60524 36666,57931 L 38681 53715 L 28504 40882 L 41434 27958 L 54081 38129 L 58483 35838 C 61069,34484 63771,33348 66549,32450 L 71317 30981 L 73332 14849 L 91665 14849 L 93500 30981 L 98178 32450 C 100963,33336 103664,34465 106244,35838 L 110736 38129 L 123293 27958 L 136217 40882 L 125770 53715 L 128061 58117 C 129383,60710 130493,63405 131359,66183 L 132919 70951 L 148961 72690 L 148961 91023 L 132919 92582 Z" fill="#2D5967" transform="translate(9169,212121)"/>
  <path d="M 32634 0 C 26179,0 19871,1912 14500,5499 C 9136,9086 4952,14181 2482,20142 C 11,26110 -631,32668 627,39002 C 1885,45329 4997,51149 9559,55711 C 14122,60273 19936,63379 26269,64643 C 32596,65901 39160,65253 45122,62782 C 51083,60312 56184,56128 59771,50764 C 63352,45399 65271,39091 65271,32636 C 65271,23980 61831,15676 55709,9561 C 49588,3439 41291,0 32634,0 Z M 32634 50507 C 29189,50507 25820,49487 22958,47574 C 20096,45662 17863,42941 16541,39759 C 15226,36576 14879,33072 15553,29697 C 16227,26315 17882,23210 20321,20778 C 22752,18339 25858,16684 29234,16010 C 32615,15336 36119,15683 39302,16998 C 42484,18320 45205,20553 47117,23415 C 49029,26277 50050,29646 50050,33092 C 50050,37712 48214,42139 44948,45406 C 41682,48672 37255,50507 32634,50507 Z" fill="#2D5967" transform="translate(59036,261165)"/>
</svg>