<svg xmlns="http://www.w3.org/2000/svg" viewBox="0 0 218884 256673" width="23" height="27">
  <path d="M 106690 250417 C 103122,250417 99560,250231 96012,249872 L 93888 249872 L 91764 249564 C 89698,249564 87696,249018 85693,248595 C 83691,248165 81747,247619 79623,247132 L 77564 246586 L 75741 245797 C 65525,242646 55830,237994 46974,232001 L 44606 230236 L 42547 228658 L 38722 225738 L 36598 223794 L 34898 222273 C 33563,221060 32229,219841 30951,218564 L 29136 216562 C 27313,214618 25555,212673 23855,210485 C 10597,194193 2461,174326 478,153408 C -1511,132482 2737,111441 12689,92935 C 14268,89958 15904,87282 17540,84728 L 18516 83329 C 20030,81141 21544,79075 23123,77252 L 24824 75250 C 26280,73486 27858,71721 29495,69963 L 31381 68076 C 33075,66376 34776,64733 36598,63212 L 38177 61813 C 40301,60055 42303,58470 44247,56956 L 45396 55923 C 47706,54280 50131,52759 52557,51303 C 60925,46419 69908,42678 79264,40176 C 82357,39387 85328,38719 88305,38232 L 88786 38232 L 78776 27900 L 106632 0 L 134545 27900 L 124291 38232 L 124592 38232 L 127750 38719 L 130727 39451 L 133698 40240 L 137336 41151 L 140371 42062 C 145415,43718 150324,45746 155060,48139 L 158031 49660 C 159307,50327 160463,51059 161611,51784 L 164101 53305 C 166649,54947 169080,56712 171506,58470 C 179091,64316 185867,71144 191655,78773 C 193715,81507 195293,83881 196814,86249 L 197603 87526 C 198938,89714 200208,91960 201363,94212 L 202455 96278 C 203487,98402 204456,100590 205368,102779 L 206401 105333 C 207190,107521 207979,109709 208647,112019 L 209436 114451 C 210103,117005 210713,119495 211258,122048 L 211560 123749 C 212163,126803 212612,129890 212895,132989 C 214659,150616 212035,168410 205246,184773 C 195922,207200 179161,225725 157793,237224 C 155124,238687 152692,239778 150266,240875 L 149297 241357 L 147841 242031 L 142925 243853 L 140494 244700 L 137946 245611 C 136432,246099 134911,246407 133454,246830 L 130663 247498 L 127814 248165 C 120864,249602 113786,250321 106690,250295 L 106690 250417 Z M 89396 38232 L 91462 37866 L 95524 37263 L 98861 36955 L 99291 36955 L 99291 28202 L 89396 38232 Z M 118221 37198 L 121987 37744 L 124111 38110 L 113973 28202 L 113973 36897 L 114396 36897 L 114396 36589 L 118221 37198 Z" fill="#FFFFFF" transform="translate(3041,4312)"/>
  <path d="M 109667 8573 L 120107 19026 L 120473 19392 L 133396 32212 L 127332 38289 L 120652 31603 L 113979 25160 L 113979 44129 C 116160,44129 118348,44129 120473,44488 C 122173,44488 123874,44976 125567,45219 L 130002 45887 C 131458,46195 132915,46618 134307,46984 C 135706,47350 137708,47773 139345,48261 C 146243,50391 152890,53247 159192,56770 C 160828,57681 162285,58650 163863,59625 L 165076 60357 C 167566,61935 169933,63636 172237,65400 C 179771,71028 186508,77650 192264,85094 L 192630 85517 C 194266,87763 195845,90073 197301,92383 L 198091 93603 C 199368,95726 200580,97915 201735,100103 L 202762 102111 C 203795,104177 204706,106301 205554,108188 C 205919,108977 206285,109831 206587,110620 C 207376,112808 208108,114932 208775,117120 C 208775,117974 209320,118763 209500,119552 C 210231,121984 210777,124416 211322,126906 C 211322,127458 211322,128003 211322,128549 C 211900,131526 212323,134529 212593,137545 C 214589,157797 210565,178189 201030,196156 C 191501,214130 176883,228882 159006,238559 L 158646 238559 C 156401,239778 154033,240869 151729,241966 L 149297 243057 C 147417,243846 145537,244520 143592,245188 C 141655,245855 141045,246156 139710,246522 C 138376,246888 135950,247555 134064,247985 C 132183,248409 131336,248775 129937,249018 C 123168,250405 116276,251098 109365,251085 C 105900,251104 102435,250937 98989,250597 L 95652 250109 C 93406,250109 91160,249500 88915,249076 C 86669,248653 84545,247985 82363,247433 L 79084 246586 C 69157,243538 59743,239008 51164,233150 C 49951,232360 48861,231449 47706,230602 C 46557,229749 44555,228350 43098,227073 C 41642,225796 41032,225250 39999,224275 C 38966,223306 36964,221606 35571,220143 C 34172,218686 34358,218808 33749,218198 C 32010,216293 30310,214271 28654,212122 C 16051,196310 8357,177137 6535,156988 C 4713,136833 8833,116594 18394,98768 C 19850,96092 21428,93481 23071,90984 L 24162 89406 C 25555,87282 27075,85273 28590,83329 L 30232 81321 C 31689,79620 33204,77862 34782,76219 L 36662 74333 C 38299,72690 39941,71111 41700,69591 C 42239,69097 42803,68628 43400,68198 C 45280,66556 47282,65035 49470,63578 L 50619 62725 C 52929,61146 55232,59625 57658,58226 L 58088 58226 C 66045,53587 74598,50045 83512,47709 C 86367,46984 89216,46317 92072,45829 L 93528 45829 C 95286,45829 97045,45162 98867,44976 C 101049,44976 103173,44552 105361,44488 L 105361 25160 L 98867 31667 L 92194 38353 L 86123 32277 L 98867 19449 L 99233 19084 L 109667 8631 L 109667 8573 Z M 109667 58 L 105419 4376 L 94985 14772 L 94619 15137 L 81811 27900 L 77505 32212 L 81811 36467 L 85879 40542 C 84602,40542 83268,41087 81997,41453 C 72481,43994 63337,47773 54809,52695 L 54507 53003 C 52018,54460 49528,56103 47102,57739 L 45890 58592 C 43766,60171 41700,61813 39819,63514 L 37997 65035 C 36239,66556 34538,68198 32658,70021 L 32235 70444 L 30232 72023 C 28654,73665 27075,75430 25375,77432 L 24951 77978 L 23675 79498 C 22160,81442 20639,83509 18939,85941 L 18637 86428 L 18092 87462 C 16391,90073 14755,92813 13234,95669 C 2948,114643 -1499,136236 446,157739 C 2390,179242 10642,199686 24162,216498 L 24464 216864 C 26222,219052 28166,221176 29803,222940 L 30232 223672 L 31445 225007 C 32780,226348 34115,227561 35507,228773 L 36175 229447 L 37150 230294 L 39454 232360 L 43336 235338 L 44369 236127 L 45460 236980 L 47950 238803 C 57061,244989 67046,249782 77563,253029 L 79873 253632 L 81022 253632 L 81753 253632 C 83755,254184 85822,254729 87824,255153 C 89826,255583 92129,255885 94196,256128 L 94921 256128 L 96076 256128 L 98443 256128 C 102082,256494 105785,256674 109429,256674 C 116744,256674 124040,255942 131214,254486 L 134185 253754 L 135520 253395 L 136855 253395 C 138433,253029 140012,252663 141533,252176 L 144382 251207 L 145659 250719 L 146506 250411 C 148264,249808 149964,249198 151729,248467 L 153365 247741 L 154276 247311 C 156458,246343 159070,245123 161618,243724 L 161919 243724 C 183807,231879 200953,212840 210469,189817 C 217412,173069 220126,154864 218361,136814 L 218361 136454 C 218060,133348 217572,130371 217027,127092 C 216988,126707 216988,126322 217027,125937 L 217027 125327 C 216417,122472 215814,119918 215147,117550 C 214980,116908 214775,116280 214537,115664 L 214537 114996 C 213748,112442 212959,110196 212169,108130 C 212169,107399 211624,106667 211322,105942 L 211322 105512 C 210353,103080 209378,100892 208345,98826 C 207986,98223 207677,97549 207376,96946 C 205984,94328 204706,92024 203372,89836 L 202640 88681 C 201004,86063 199304,83573 197603,81263 L 197180 80775 C 191218,73223 184282,66498 176549,60780 C 173816,58714 171268,56892 168778,55307 L 167932 54704 L 167502 54704 L 166231 53914 C 165018,53119 163806,52394 162529,51726 L 156458 48505 C 153731,47228 150940,46009 148149,44976 L 141411 42544 L 141103 42544 L 137407 41633 L 135950 41267 L 134494 40907 L 133582 40907 L 137586 36467 L 141834 32155 L 137586 27836 L 124778 15073 L 124419 14707 L 113979 4319 L 109667 0 L 109667 58 Z" fill="#FFFFFF"/>
  <path d="M 114579 0 L 114579 8688 C 138707,11454 160864,23357 176508,41960 C 192152,60556 200103,84452 198717,108733 C 197337,133015 186730,155846 169077,172549 C 151425,189252 128061,198557 103773,198557 C 79492,198557 56128,189252 38469,172549 C 20816,155846 10216,133015 8830,108733 C 7450,84452 15394,60556 31045,41960 C 46689,23357 68846,11454 92974,8688 L 92974 0 C 66530,2772 42159,15599 24884,35838 C 7610,56083 -1245,82193 141,108785 C 1527,135376 13052,160421 32334,178748 C 51617,197081 77188,207303 103773,207303 C 130365,207303 155936,197081 175218,178748 C 194501,160421 206025,135376 207411,108785 C 208798,82193 199936,56083 182662,35838 C 165394,15599 141023,2772 114579,0 Z" fill="#2D5967" transform="translate(5900,44494)"/>
  <path d="M 19238 217165 L 27856 217165 L 27856 16594 L 34350 23094 L 41023 29781 L 47151 23646 L 34350 10819 L 33984 10453 L 23543 0 L 13110 10453 L 12744 10819 L 0 23646 L 6071 29781 L 12744 23094 L 19238 16594 L 19238 217165 Z" fill="#2D5967" transform="translate(86129,8573)"/>
  <path d="M 29678 41151 L 16504 27958 L 71971 27958 L 71971 19327 L 16504 19327 L 29678 6141 L 23543 0 L 6070 17505 L 0 23646 L 6070 29781 L 23543 47286 L 29678 41151 Z" fill="#2D5967" transform="translate(114408,124173)"/>
  <path d="M 42357 6141 L 55467 19327 L 0 19327 L 0 27958 L 55467 27958 L 42357 41151 L 48428 47286 L 65907 29781 L 72035 23646 L 65907 17505 L 48428 0 L 42357 6141 Z" fill="#2D5967" transform="translate(32960,124173)"/>
</svg>