<svg xmlns="http://www.w3.org/2000/svg" viewBox="0 0 385010 385010" width="40" height="40">
  <path d="M 356006 0 L 19893 0 C 8920,0 0,8906 0,19892 L 0 355952 C 0,366938 8920,375845 19893,375845 L 356006 375845 C 366980,375845 375899,366938 375899,355952 L 375899 19892 C 375899,8906 366980,0 356006,0 Z" fill="#FFFFFF" transform="translate(4556,4584)"/>
  <path d="M 360562 9167 C 364605,9167 368520,10780 371343,13651 C 374230,16521 375834,20416 375834,24476 L 375834 360537 C 375834,364592 374230,368487 371343,371362 C 368520,374230 364605,375841 360562,375841 L 24449 375841 C 20406,375841 16491,374230 13668,371362 C 10781,368487 9176,364592 9176,360537 L 9176 24476 C 9176,20416 10781,16521 13668,13651 C 16491,10780 20406,9167 24449,9167 L 360562 9167 Z M 360562 0 L 24449 0 C 17967,24 11807,2610 7187,7195 C 2631,11780 0,17992 0,24476 L 0 360537 C 0,367018 2631,373229 7187,377817 C 11807,382399 17967,384985 24449,385011 L 360562 385011 C 367043,384985 373204,382399 377824,377817 C 382379,373229 385011,367018 385011,360537 L 385011 24476 C 385011,17992 382379,11780 377824,7195 C 373204,2610 367043,24 360562,0 L 360562 0 Z" fill="#FFFFFF"/>
  <path d="M 351386 0 L 15272 0 C 11229,0 7379,1613 4491,4484 C 1604,7355 0,11249 0,15309 L 0 351366 C 0,355428 1604,359323 4491,362191 C 7379,365066 11229,366676 15272,366676 L 351386 366676 C 355428,366676 359343,365066 362166,362191 C 365053,359323 366658,355428 366658,351366 L 366658 15309 C 366658,11249 365053,7355 362166,4484 C 359343,1613 355428,0 351386,0 Z M 353118 351366 C 353054,351821 352862,352251 352541,352572 C 352220,352899 351835,353085 351386,353111 L 15272 353111 C 14822,353085 14438,352899 14117,352572 C 13796,352251 13604,351821 13539,351366 L 13539 15309 C 13604,14854 13796,14424 14117,14102 C 14438,13780 14822,13589 15272,13567 L 351386 13567 C 351835,13589 352220,13780 352541,14102 C 352862,14424 353054,14854 353118,15309 L 353118 351366 Z" fill="#2D5967" transform="translate(9176,9171)"/>
  <path d="M 132571 9625 L 154582 31534 L 0 31534 L 0 45101 L 155352 45101 L 132571 67835 L 142197 77460 L 180955 38684 L 142197 0 L 132571 9625 Z" fill="#2D5967" transform="translate(168763,193235)"/>
  <path d="M 48319 9625 L 38694 0 L 0 38776 L 38694 77555 L 48319 67930 L 25410 45010 L 181147 45010 L 181147 31443 L 26502 31443 L 48319 9625 Z" fill="#2D5967" transform="translate(36833,271431)"/>
  <path d="M 132571 9625 L 154838 31809 L 0 31809 L 0 45376 L 155095 45376 L 132571 67927 L 142197 77460 L 180955 38776 L 142197 0 L 132571 9625 Z" fill="#2D5967" transform="translate(168763,36762)"/>
  <path d="M 48319 67927 L 25667 45285 L 181147 45285 L 181147 31718 L 26245 31718 L 48319 9625 L 38694 0 L 0 38776 L 38694 77553 L 48319 67927 Z" fill="#2D5967" transform="translate(36833,114957)"/>
</svg>