<svg xmlns="http://www.w3.org/2000/svg" viewBox="0 0 297311 385010" width="31" height="40">
  <path d="M 141966 379017 C 136166,376303 0,312430 0,244065 L 0 44206 L 4678 44206 C 99294,44206 139252,12641 139252,0 L 148608 0 C 148608,9362 182303,44109 283278,44109 L 287956 44109 L 287956 244065 C 287956,312430 151701,376303 145893,379017 L 143930 379858 L 141966 379017 Z" fill="#FFFFFF" transform="translate(4678,0)"/>
  <path d="M 148608 0 C 148608,13957 186981,48794 287956,48794 L 287956 244065 C 287956,310274 148608,375180 148608,375180 C 148608,375180 9356,310274 9356,244065 L 9356 48890 C 106873,48890 148608,15830 148608,0 Z M 157970 0 L 139252 0 C 138873,8149 103972,39521 9356,39521 L 0 39521 L 0 244065 C 0,315426 138783,380512 144681,383233 L 148608 385011 L 152541 383233 C 158432,380512 297312,315426 297312,244065 L 297312 39521 L 287956 39521 C 194187,39521 159093,8336 157970,0 Z" fill="#FFFFFF"/>
  <path d="M 139252 0 C 139252,15734 97510,48794 0,48794 L 0 244065 C 0,310274 139252,375180 139252,375180 C 139252,375180 278594,310742 278594,244533 L 278594 48890 C 177804,48890 139252,14046 139252,0 Z M 146266 31186 C 152137,35466 158406,39168 164983,42236 C 196484,55737 230390,62680 264650,62654 L 264650 177939 L 146266 177939 L 146266 31186 Z M 13944 62654 C 47690,62616 81102,55968 112295,43083 C 119462,39925 126296,36069 132700,31564 L 132700 177939 L 13944 177939 L 13944 62654 Z M 77297 322639 C 36403,293885 13944,265978 13944,244065 L 13944 191806 L 132322 191806 L 132322 355884 C 113302,345970 94924,334863 77297,322639 Z M 139252 359253 L 139996 359253 L 139252 359253 Z M 264650 244065 C 264650,265978 242094,293885 201200,322639 C 183618,334882 165272,345983 146266,355884 L 146266 191806 L 264650 191806 L 264650 244065 Z" fill="#2D5967" transform="translate(9369,0)"/>
</svg>