<svg xmlns="http://www.w3.org/2000/svg" viewBox="0 0 385928 385010" width="41" height="40">
  <path d="M 20168 375847 C 9170,375847 0,366678 0,355679 L 0 20168 C 0,9170 9170,0 20168,0 L 356597 0 C 367595,0 376765,9170 376765,20168 L 376765 356597 C 376765,367595 367595,376765 356597,376765 L 20168 375847 Z" fill="#FFFFFF" transform="translate(4581,4582)"/>
  <path d="M 360261 9170 C 368513,9170 375841,16498 375841,24750 L 375841 45836 L 375841 90753 L 375841 361179 C 375841,369424 368513,376758 360261,376758 L 24750 376758 C 16498,375841 9170,368513 9170,360261 L 9170 90753 L 9170 45836 L 9170 24750 C 9170,16498 16498,9170 24750,9170 L 360261 9170 Z M 360261 0 L 24750 0 C 10998,0 0,10998 0,24750 L 0 45836 L 0 90753 L 0 361179 C 0,374012 10998,385011 24750,385011 L 361178 385011 C 374930,385011 385928,374012 385928,360261 L 385928 90753 L 385928 45836 L 385928 24750 C 385011,10998 374012,0 360261,0 Z" fill="#FFFFFF"/>
  <path d="M 51335 58669 L 68750 29338 L 51335 0 L 17415 0 L 0 29338 L 17415 58669 L 51335 58669 Z M 25667 12834 L 44000 12834 L 53170 28420 L 44000 44918 L 25667 44918 L 16504 29338 L 25667 12834 Z" fill="#2D5967" transform="translate(198004,197087)"/>
  <path d="M 0 29331 C 0,45836 12834,58669 29331,58669 C 37584,58669 44918,55916 50417,49499 C 55916,44000 58663,36666 58663,29331 C 58663,12834 45829,0 29331,0 C 13745,0 0,12834 0,29331 Z M 29331 13751 C 37584,13751 44918,21086 44918,29331 C 44918,33002 43083,37583 40330,40336 C 37584,43083 32996,44918 29331,44918 C 21079,44918 13745,37583 13745,29331 C 13745,20168 21079,13751 29331,13751 Z" fill="#2D5967" transform="translate(163174,264009)"/>
  <path d="M 33919 0 L 0 62340 L 67839 62340 L 33919 0 Z M 33919 28420 L 44918 48588 L 22921 48588 L 33919 28420 Z" fill="#2D5967" transform="translate(120084,190670)"/>
  <path d="M 0 73338 L 30255 262173 L 207174 262173 L 235594 73338 L 206256 73338 L 206256 46753 C 206256,35755 202592,26585 196176,21086 C 186088,11916 172343,11916 169591,12834 C 168673,12834 166838,12834 164091,12834 L 164091 8252 C 164091,3670 160421,0 155839,0 L 82508 0 C 77920,0 74256,3670 74256,8252 L 74256 12834 C 69674,12834 66004,12834 62340,12834 C 51335,12834 43089,16504 37590,22921 C 29338,32084 30255,44918 30255,47671 L 30255 73338 L 0 73338 Z M 196176 248422 L 42171 248422 L 16504 87089 L 220925 87089 L 196176 248422 Z M 44007 45835 C 44007,45835 43089,36666 47671,31167 C 50423,27502 55923,25667 62340,25667 C 66004,25667 69674,25667 74256,25667 L 74256 31167 C 74256,35755 77920,39419 82508,39419 L 155839 39419 C 160421,39419 164091,35755 164091,31167 L 164091 25667 C 167755,25667 169591,25667 169591,25667 L 170508 25667 C 170508,25667 180589,24750 187924,31167 C 191594,34837 193423,39419 193423,46753 L 193423 73338 L 44007 73338 L 44007 45835 Z" fill="#2D5967" transform="translate(74249,85255)"/>
  <path d="M 0 314425 C 0,322677 7328,330012 15580,330012 L 352009 330012 C 360255,330012 367589,322677 367589,314425 L 367589 0 L 0 0 L 0 314425 Z M 13745 13751 L 352926 13751 L 352926 315343 C 352926,316260 352009,317178 351091,317178 L 15580 317178 C 14663,317178 13745,316260 13745,315343 L 13745 13751 Z" fill="#2D5967" transform="translate(9169,45836)"/>
  <path d="M 351091 0 L 15580 0 C 7328,0 0,7334 0,15580 L 0 26585 L 366671 26585 L 366671 15580 C 366671,7334 359343,0 351091,0 Z" fill="#2D5967" transform="translate(9169,9170)"/>
</svg>