<svg xmlns="http://www.w3.org/2000/svg" viewBox="0 0 385010 385010" width="40" height="40">
  <path d="M 20213 375847 C 9176,375847 0,366678 0,355679 L 0 20168 C 0,9170 9176,0 20213,0 L 356649 0 C 367621,0 376798,9170 376798,20168 L 376798 354762 L 374936 351097 C 373140,357514 371278,364843 367621,370348 L 363964 376765 L 20213 376765 L 20213 375847 Z" fill="#FFFFFF" transform="translate(4555,4582)"/>
  <path d="M 360242 9170 C 369417,9170 375834,15587 375834,24750 L 375834 339175 C 375834,350174 373075,362096 367621,372177 L 365760 375841 L 361204 375841 L 24769 375841 C 15593,375841 9176,369424 9176,360261 L 9176 24750 C 9176,15587 15593,9170 24769,9170 L 360242 9170 Z M 360242 0 L 24769 0 C 10973,0 0,10998 0,24750 L 0 361179 C 0,374012 10973,385011 24769,385011 L 361204 385011 L 365760 385011 L 371278 385011 L 374038 380429 L 375834 376758 C 377695,373095 379492,369424 380455,366678 L 384497 352092 L 385011 339175 L 385011 24750 C 385011,10998 374038,0 360242,0 Z" fill="#FFFFFF"/>
  <path d="M 41260 358432 C 41260,356597 41260,354762 42158,352926 L 15592 352926 C 14630,352926 13731,352015 13731,351098 L 13731 15587 C 13731,14669 14630,13751 15592,13751 L 352028 13751 C 352926,13751 353824,14669 353824,15587 L 353824 272260 C 359343,277759 363899,284176 367556,290593 L 367556 15587 C 366658,6417 360241,0 351065,0 L 15592 0 C 6417,0 0,6417 0,15587 L 0 352015 C 0,360261 6417,366678 15592,366678 L 40297 366678 L 40297 365760 L 41260 358432 Z" fill="#2D5967" transform="translate(9176,9163)"/>
  <path d="M 0 81590 L 5518 81590 C 9176,77002 12834,72421 17389,67839 L 12834 67839 L 12834 13751 L 58649 13751 C 64168,8252 70585,3670 77002,0 L 0 0 L 0 81590 Z" fill="#2D5967" transform="translate(60511,242922)"/>
  <path d="M 0 0 C 1861,2753 3657,5506 4556,8252 C 6417,11923 10074,14669 13732,15586 C 15593,15586 16491,16504 18352,16504 L 18352 0 L 0 0 Z" fill="#2D5967" transform="translate(308008,243840)"/>
  <path d="M 0 80666 L 81558 80666 L 81558 0 L 0 0 L 0 80666 Z M 12834 12834 L 67826 12834 L 67826 67832 L 12834 67832 L 12834 12834 Z" fill="#2D5967" transform="translate(60511,60504)"/>
  <path d="M 0 80666 L 81623 80666 L 81623 0 L 0 0 L 0 80666 Z M 12834 12834 L 67891 12834 L 67891 67832 L 12834 67832 L 12834 12834 Z" fill="#2D5967" transform="translate(152143,60504)"/>
  <path d="M 0 81584 L 81558 81584 L 81558 0 L 0 0 L 0 81584 Z M 12834 13751 L 67826 13751 L 67826 68750 L 12834 68750 L 12834 13751 Z" fill="#2D5967" transform="translate(60511,151258)"/>
  <path d="M 0 918 L 0 82501 L 31186 82501 C 35806,77002 41261,72414 47677,68750 L 12834 68750 L 12834 13751 L 67891 13751 L 67891 59580 C 72446,58669 77002,57752 81623,56834 L 81623 0 L 0 0 L 0 918 Z" fill="#2D5967" transform="translate(152143,151258)"/>
  <path d="M 0 80666 L 81558 80666 L 81558 0 L 0 0 L 0 80666 Z M 12834 12834 L 67826 12834 L 67826 67832 L 12834 67832 L 12834 12834 Z" fill="#2D5967" transform="translate(243840,60504)"/>
  <path d="M 81558 0 L 0 0 L 0 55916 C 4556,55916 9176,56834 13732,57752 L 13732 12834 L 68724 12834 L 68724 67833 L 41261 67833 C 47677,71496 53132,76084 57752,81584 L 82456 81584 L 82456 0 L 81558 0 Z" fill="#2D5967" transform="translate(242941,152175)"/>
  <path d="M 308008 154922 C 325398,121920 314425,80666 283240,60498 C 275924,55916 268545,53164 260331,51335 C 252951,49499 247497,44918 244738,38501 C 232802,14663 208996,0 182366,0 C 163116,0 144828,8246 131031,21997 C 126476,26585 120059,29331 112744,28414 C 103568,27496 93493,29331 85215,33002 C 68724,40330 55890,55916 53131,73332 C 52233,79749 47612,86165 41196,88918 C 18288,100834 3657,123749 1796,149416 L 0 158586 L 43057 158586 L 44918 158586 L 131994 158586 C 126476,154922 121920,150334 118198,144834 L 44918 144834 L 43057 144834 L 15528 144834 C 19251,126502 30223,110915 46714,102669 C 56789,97170 63206,88001 65965,77002 C 68724,63251 77901,52252 90734,46747 C 97151,44000 104466,43083 111781,43083 C 122818,44000 133791,40330 141171,32084 C 152143,21079 166838,13751 182366,13751 C 203478,13751 222728,25667 232802,44918 C 237423,54999 246535,62333 257572,64168 C 263989,65997 270406,67832 275924,71503 C 300629,87083 309805,118250 297869,143917 L 163116 143917 C 145726,143917 131031,129255 131031,111833 L 117299 111833 C 117299,137500 137448,157668 163116,157668 L 300629 157668 L 305249 157668 L 308008 154922 Z" fill="#2D5967" transform="translate(59612,217261)"/>
</svg>