<svg xmlns="http://www.w3.org/2000/svg" viewBox="0 0 214322 385010" width="23" height="40">
  <path d="M 186345 0 L 18737 0 C 8406,0 0,8413 0,18792 L 0 357050 C 0,367432 8406,375845 18737,375845 L 186345 375845 C 196740,375845 205146,367432 205146,357050 L 205146 18792 C 205146,8413 196740,0 186345,0 Z" fill="#FFFFFF" transform="translate(4621,4584)"/>
  <path d="M 190965 9167 C 194752,9191 198345,10696 200976,13355 C 203671,16015 205147,19614 205147,23376 L 205147 361634 C 205147,365394 203671,368994 200976,371657 C 198345,374314 194752,375822 190965,375841 L 23422 375841 C 19636,375822 16042,374314 13348,371657 C 10716,368994 9241,365394 9176,361634 L 9176 23376 C 9241,19614 10716,16015 13348,13355 C 16042,10696 19636,9191 23422,9167 L 190965 9167 Z M 190965 0 L 23422 0 C 17197,0 11229,2463 6866,6847 C 2503,11230 0,17176 0,23376 L 0 361634 C 0,364708 642,367743 1797,370579 C 2952,373415 4685,375995 6866,378164 C 9048,380333 11615,382059 14438,383233 C 17262,384407 20342,385011 23422,385011 L 190965 385011 C 197190,385011 203093,382546 207521,378164 C 211884,373781 214323,367833 214323,361634 L 214323 23376 C 214323,17176 211884,11230 207521,6847 C 203093,2463 197190,0 190965,0 L 190965 0 Z" fill="#FFFFFF"/>
  <path d="M 181789 0 L 14245 0 C 10459,24 6866,1528 4235,4188 C 1540,6847 64,10448 0,14209 L 0 352469 C 64,356230 1540,359830 4235,362486 C 6866,365149 10459,366651 14245,366676 L 181789 366676 C 185575,366651 189168,365149 191800,362486 C 194494,359830 195971,356230 196035,352469 L 196035 14209 C 195971,10448 194494,6847 191800,4188 C 189168,1528 185575,24 181789,0 Z M 183329 352469 C 183329,352874 183137,353259 182880,353547 C 182559,353836 182174,354003 181789,354029 L 14245 354029 C 13796,354003 13411,353836 13155,353547 C 12834,353259 12705,352874 12641,352469 L 12641 14209 C 12705,13803 12834,13419 13155,13131 C 13411,12843 13796,12673 14245,12650 L 181789 12650 C 182174,12673 182559,12843 182880,13131 C 183137,13419 183329,13803 183329,14209 L 183329 352469 Z" fill="#2D5967" transform="translate(9177,9171)"/>
  <path d="M 0 56926 L 152080 56926 L 152080 0 L 0 0 L 0 56926 Z M 12642 12650 L 139182 12650 L 139182 44276 L 12642 44276 L 12642 12650 Z" fill="#2D5967" transform="translate(31250,31260)"/>
  <path d="M 6353 12650 C 9817,12650 12641,9818 12641,6325 C 12641,2832 9817,0 6353,0 C 2823,0 0,2832 0,6325 C 0,9818 2823,12650 6353,12650 Z" fill="#2D5967" transform="translate(148230,53443)"/>
  <path d="M 0 56835 L 152080 56835 L 152080 0 L 0 0 L 0 56835 Z M 12642 12284 L 139182 12284 L 139182 43910 L 12642 43910 L 12642 12284 Z" fill="#2D5967" transform="translate(31250,97715)"/>
  <path d="M 6353 12650 C 9817,12650 12641,9818 12641,6325 C 12641,2832 9817,0 6353,0 C 2823,0 0,2832 0,6325 C 0,9818 2823,12650 6353,12650 Z" fill="#2D5967" transform="translate(148230,119814)"/>
  <path d="M 0 56835 L 152080 56835 L 152080 0 L 0 0 L 0 56835 Z M 12642 12650 L 139182 12650 L 139182 44184 L 12642 44184 L 12642 12650 Z" fill="#2D5967" transform="translate(31250,164087)"/>
  <path d="M 6353 12650 C 9817,12650 12641,9818 12641,6325 C 12641,2832 9817,0 6353,0 C 2823,0 0,2832 0,6325 C 0,9818 2823,12650 6353,12650 Z" fill="#2D5967" transform="translate(148230,186176)"/>
  <path d="M 0 56835 L 152080 56835 L 152080 0 L 0 0 L 0 56835 Z M 12642 12650 L 139182 12650 L 139182 44551 L 12642 44551 L 12642 12650 Z" fill="#2D5967" transform="translate(31250,230458)"/>
  <path d="M 6353 12651 C 9817,12651 12641,9818 12641,6325 C 12641,2832 9817,0 6353,0 C 2823,0 0,2832 0,6325 C 0,9818 2823,12651 6353,12651 Z" fill="#2D5967" transform="translate(148230,252547)"/>
  <path d="M 0 56928 L 152080 56928 L 152080 0 L 0 0 L 0 56928 Z M 12642 12651 L 139182 12651 L 139182 44274 L 12642 44274 L 12642 12651 Z" fill="#2D5967" transform="translate(31250,296819)"/>
  <path d="M 6353 12650 C 9817,12650 12641,9820 12641,6323 C 12641,2832 9817,0 6353,0 C 2823,0 0,2832 0,6323 C 0,9820 2823,12650 6353,12650 Z" fill="#2D5967" transform="translate(148230,318921)"/>
</svg>