<svg xmlns="http://www.w3.org/2000/svg" viewBox="0 0 385011 202133" width="40" height="21">
  <path d="M 0 192943 L 1829 179160 C 3664,147922 21997,120359 50410,105659 C 56827,102903 60492,96471 61409,90040 C 65991,67990 80659,48695 101739,39507 C 110909,35832 120072,33994 130153,33994 C 131988,33994 134734,33994 136569,33994 C 137487,33994 138405,33994 138405,33994 C 144822,33994 149403,31238 153985,27564 C 170483,10107 192486,0 216312,0 C 248396,0 277727,18376 292390,46858 C 295143,53289 300642,56964 307976,58802 C 318057,60639 327220,65233 335472,69827 C 373967,94634 387718,145170 365721,185596 L 362051 192025 L 0 192943 Z" fill="#FFFFFF" transform="translate(4588,4597)"/>
  <path d="M 220900 9188 C 252066,9188 279563,26645 293314,54208 C 296978,61558 303395,67071 311640,68908 C 320810,70746 329973,74421 338225,79933 C 374891,102903 387718,151601 366639,189268 L 364804 192945 L 199821 192945 L 62327 192945 L 10081 192945 L 10998 184674 C 12834,154354 30249,128629 56828,113928 C 64162,110253 68744,103822 70579,95553 C 74243,74421 88912,56964 108156,47777 C 116408,44101 125571,42264 133823,42264 C 135658,42264 137487,42264 140240,42264 C 141158,42264 142075,42264 142987,42264 C 150321,42264 156738,39507 162237,33995 C 176906,18375 198903,9188 220900,9188 Z M 220900 0 C 196150,0 172318,10107 154903,28482 C 152156,32157 147574,33995 142987,33995 C 142075,33995 142075,33995 141158,33995 C 139322,33995 136576,33995 133823,33995 C 123742,33995 113655,35832 103574,40426 C 82495,49614 65997,69827 61409,93715 C 60498,99227 56828,103822 52246,105659 C 22914,121278 3664,150677 918,183756 L 0 192027 L 0 202134 L 10081 202134 L 61409 202134 L 198903 202134 L 363886 202134 L 369386 202134 L 372138 197539 L 373974 193862 C 396888,151601 383137,98309 341890,72583 C 332726,67071 323556,62477 312558,60639 C 307059,59720 302477,56045 300642,51452 C 285980,19294 255731,0 220900,0 Z" fill="#FFFFFF"/>
  <path d="M 11916 0 L 0 0 L 0 75338 L 11916 75338 L 11916 0 Z" fill="#2D5967" transform="translate(175982,78099)"/>
  <path d="M 15580 0 L 0 0 L 0 75338 L 15580 75338 L 15580 0 Z" fill="#2D5967" transform="translate(195232,78099)"/>
  <path d="M 5499 0 L 0 0 L 0 75338 L 5499 75338 L 5499 0 Z" fill="#2D5967" transform="translate(224570,78099)"/>
  <path d="M 19244 0 L 0 0 L 0 75338 L 19244 75338 L 19244 0 Z" fill="#2D5967" transform="translate(241061,78099)"/>
  <path d="M 5499 0 L 0 0 L 0 75338 L 5499 75338 L 5499 0 Z" fill="#2D5967" transform="translate(130153,78099)"/>
  <path d="M 328138 70746 C 319892,66152 310723,62476 301559,59720 C 293308,57882 286891,52370 283227,45020 C 269475,17456 241979,0 210813,0 C 188816,0 166819,9188 151239,25726 C 145733,31238 138405,34913 130153,33995 C 119155,33076 108156,34913 98075,39507 C 78824,47776 64162,65233 60492,86365 C 58656,94634 54075,101065 46747,104740 C 20162,118522 2747,145164 911,175484 L 0 184673 L 51328 184673 L 152150 184673 C 145740,180078 141151,175484 136570,169054 L 49493 169054 L 17415 169054 C 21080,147924 34831,129547 54075,119441 C 65991,113009 73325,102902 76072,90040 C 78824,74421 89823,60639 104492,54208 C 111820,50533 120990,49614 129235,50533 C 142069,51452 153985,46857 163155,37669 C 175065,24807 192480,16537 210813,16537 C 235562,16537 257559,30320 268558,52370 C 274057,64314 285062,72583 297889,75340 C 305224,77177 312558,79933 318975,83608 C 347389,101065 357470,137817 344636,168137 L 188816 168137 C 168654,168137 151239,151600 151239,130463 L 151239 69827 L 135652 69827 L 135652 131387 C 135652,160783 159484,184673 188816,184673 L 353806 184673 L 355634 180996 C 376720,142412 364804,93715 328138,70746 Z" fill="#2D5967" transform="translate(10081,8272)"/>
</svg>