<svg xmlns="http://www.w3.org/2000/svg" viewBox="0 0 256673 239624" width="27" height="25">
  <path d="M 145791 216690 L 145791 208021 L 105301 208021 L 105301 216690 L 76939 233053 L 48576 216690 L 48576 183952 L 55827 179819 L 35678 144815 L 28298 149006 L 0 132643 L 0 99962 L 28298 83592 L 36191 88123 L 55827 53234 L 48576 49044 L 48576 16369 L 76939 0 L 105301 16369 L 105301 25032 L 145791 25032 L 145791 16369 L 174089 0 L 202452 16369 L 202452 49044 L 195265 53234 L 215350 87840 L 222729 83592 L 251091 99962 L 251091 132643 L 222729 149006 L 215863 145046 L 195265 179877 L 202452 183952 L 202452 216690 L 174089 233053 L 145791 216690 Z" fill="#FFFFFF" transform="translate(2823,3285)"/>
  <path d="M 176912 6513 L 202452 21291 L 202452 50969 L 194174 55730 L 216890 95374 L 225295 90503 L 250770 105230 L 250770 134735 L 225295 149461 L 217403 144873 L 194045 184516 L 202259 189220 L 202259 218667 L 176720 233393 L 151245 218667 L 151245 208477 L 105301 208477 L 105301 218327 L 79762 233053 L 54286 218327 L 54286 188880 L 62307 184118 L 39656 144475 L 31250 149346 L 5647 134337 L 5647 104832 L 31122 90105 L 40105 95258 L 62757 55615 L 54286 50969 L 54286 21291 L 79762 6513 L 105301 21291 L 105301 31147 L 151437 31147 L 151437 21291 L 176912 6513 L 176912 6513 Z M 176912 0 L 174089 1643 L 148614 16363 L 145790 18006 L 145790 25481 L 110947 25481 L 110947 18006 L 108124 16363 L 82585 1643 L 79762 0 L 76938 1643 L 51399 16363 L 48575 18006 L 48575 53972 L 51399 55615 L 54800 57598 L 37860 87500 L 33881 85235 L 31057 83592 L 28234 85235 L 2823 99962 L 0 101604 L 0 137564 L 2823 139207 L 28298 153934 L 31122 155576 L 34010 153934 L 37410 151951 L 54736 182084 L 51399 184009 L 48575 185652 L 48575 221612 L 51399 223255 L 76938 237981 L 79762 239624 L 82585 237981 L 108124 223255 L 110947 221612 L 110947 214136 L 145790 214136 L 145790 221612 L 148614 223255 L 174089 237981 L 176912 239624 L 179736 237981 L 205275 223255 L 208162 221612 L 208162 185652 L 205275 184009 L 202002 182136 L 219713 152175 L 222664 153934 L 225552 155576 L 228375 153934 L 253851 139207 L 256674 137564 L 256674 101604 L 253851 99962 L 228375 85235 L 225552 83592 L 222664 85235 L 219200 87276 L 202195 57540 L 205532 55615 L 208355 53972 L 208355 18006 L 205532 16363 L 179736 1643 L 176912 0 L 176912 0 Z" fill="#FFFFFF"/>
  <path d="M 219905 83592 L 211435 88462 L 188784 48819 L 196805 44456 L 196805 14778 L 171265 0 L 145790 14778 L 145790 24634 L 99654 24634 L 99654 14778 L 74115 0 L 48639 14778 L 48639 44456 L 56660 48986 L 34010 88636 L 25475 83592 L 0 98319 L 0 127823 L 25475 142550 L 34010 137680 L 56660 177323 L 48447 182084 L 48447 211531 L 73922 226258 L 99461 211531 L 99461 201964 L 145598 201964 L 145598 211820 L 171137 226540 L 196676 211820 L 196676 182367 L 188463 177663 L 211820 138020 L 219713 142608 L 245187 127881 L 245187 98319 L 219905 83592 Z M 155480 20386 L 171265 11268 L 186923 20386 L 186923 38796 L 171265 47741 L 155480 38796 L 155480 20386 Z M 58329 20386 L 74115 11268 L 89900 20386 L 89900 38796 L 74115 47741 L 58329 38796 L 58329 20386 Z M 9754 122331 L 9754 103985 L 25475 94867 L 41324 103985 L 41324 122164 L 25475 131282 L 9754 122331 Z M 89900 206212 L 74115 215330 L 58329 206212 L 58329 187975 L 74115 178857 L 89900 187975 L 89900 206212 Z M 187115 206212 L 171265 215330 L 155480 206212 L 155480 187975 L 171265 178857 L 186923 187975 L 187115 206212 Z M 180185 172793 L 171265 167640 L 163373 172228 L 148229 146400 L 136935 146400 L 154838 177381 L 145662 182649 L 145662 192274 L 99654 192274 L 99654 182367 L 90606 177098 L 108573 146400 L 97280 146400 L 82007 172568 L 74051 167922 L 65195 173075 L 42544 133432 L 51014 127823 L 51014 118083 L 74178 118083 C 76745,114316 80018,111146 83868,108797 C 83932,108663 83932,108528 83868,108400 L 51014 108400 L 51014 98319 L 42801 93615 L 65451 53972 L 74178 59067 L 83483 53407 L 104723 89996 C 106135,89765 107546,89650 108958,89656 L 109407 89656 C 110755,88398 112231,87263 113770,86255 L 91825 48704 L 99654 44456 L 99654 34317 L 145790 34317 L 145790 44456 L 153876 49102 L 134497 82514 C 137769,83092 140914,84202 143802,85799 L 162346 53972 L 171265 59182 L 180185 54030 L 202836 93673 L 194174 98659 L 194174 108457 L 171394 108457 C 173383,111390 174795,114650 175565,118083 L 194238 118083 L 194238 127772 L 203414 133034 L 180185 172793 Z M 235690 122164 L 219905 131282 L 203927 122164 L 203927 103985 L 219713 94867 L 235498 103985 L 235690 122164 Z" fill="#2C5967" transform="translate(5647,6513)"/>
  <path d="M 89451 49666 L 90798 47119 C 93494,42030 94200,36082 92724,30506 C 91184,24923 87590,20130 82713,17101 C 80467,15721 78093,14727 75526,14156 C 75078,14059 74564,13848 74179,13546 C 73729,13238 73409,12853 73152,12404 C 71355,8676 68532,5531 65003,3337 C 61474,1142 57431,-13 53260,0 C 50309,51 47356,706 44598,1925 C 41902,3138 39400,4890 37346,7078 C 37025,7443 36641,7719 36191,7886 C 35678,8053 35228,8105 34715,8040 C 31571,7752 28427,8278 25603,9574 C 22844,10748 20406,12584 18481,14913 C 16620,17242 15336,19995 14695,22934 C 14631,23409 14438,23851 14182,24243 C 13925,24634 13539,24962 13155,25205 C 9561,27066 6481,29813 4300,33182 C 2054,36550 706,40433 385,44456 L 0 49666 L 89451 49666 Z M 24320 24808 C 24577,23415 25154,22119 26053,21015 C 26951,19912 28106,19032 29390,18461 C 30737,17852 32213,17601 33688,17723 C 35678,17935 37667,17685 39528,16985 C 41325,16286 42993,15163 44341,13706 C 45688,12211 47421,11069 49346,10389 C 51271,9709 53324,9510 55313,9805 C 57303,10100 59227,10889 60832,12089 C 62500,13296 63784,14881 64682,16709 C 65581,18455 66800,19982 68340,21176 C 69944,22376 71741,23210 73602,23614 C 75078,23954 76489,24532 77772,25314 C 80146,26829 81943,29062 82970,31693 C 83997,34317 84189,37205 83419,39926 L 11615 39926 C 12898,37295 15016,35152 17646,33810 C 19379,32912 20855,31629 22010,30069 C 23165,28510 23935,26713 24320,24808 L 24320 24808 Z" fill="#2C5967" transform="translate(81558,95655)"/>
</svg>