<svg xmlns="http://www.w3.org/2000/svg" viewBox="0 0 360408 385010" width="38" height="40">
  <path d="M 234773 375845 L 234773 264924 L 281545 264924 L 281545 225506 L 239361 225506 C 233855,256674 207264,280507 174243,280507 C 142146,280507 114637,257590 109131,225506 L 68782 225506 L 68782 264924 L 115554 264924 L 115554 375845 L 0 375845 L 0 264924 L 46772 264924 L 46772 225506 L 0 225506 L 0 203505 L 110049 203505 C 114637,176004 136647,154004 164156,149421 L 164156 110003 L 117390 110003 L 117390 0 L 232938 0 L 232938 110920 L 186165 110920 L 186165 151254 C 213681,155837 234773,177838 239361,205339 L 350328 205339 L 350328 227339 L 303555 227339 L 303555 266757 L 350328 266757 L 350328 377673 L 234773 377673 L 234773 375845 Z" fill="#FFFFFF" transform="translate(4581,4584)"/>
  <path d="M 232938 9167 L 232938 110920 L 186165 110920 L 186165 159504 C 214592,162254 237519,185171 240272,213589 L 350321 213589 L 350321 226423 L 303555 226423 L 303555 275007 L 350321 275007 L 350321 375841 L 243943 375841 L 243943 274091 L 290715 274091 L 290715 225506 L 240272 225506 C 236608,255757 210928,280508 179749,280508 C 148563,280508 121971,256674 119218,225506 L 68782 225506 L 68782 274091 L 115548 274091 L 115548 375841 L 9170 375841 L 9170 274091 L 55942 274091 L 55942 225506 L 9170 225506 L 9170 212673 L 118301 212673 C 121054,184255 143981,161338 173325,158588 L 173325 110003 L 126553 110003 L 126553 9167 L 232938 9167 Z M 242107 0 L 232938 0 L 126553 0 L 117383 0 L 117383 9167 L 117383 110920 L 117383 120087 L 126553 120087 L 164155 120087 L 164155 151254 C 137558,156754 116466,177838 110966,204422 L 9170 204422 L 0 204422 L 0 213589 L 0 226423 L 0 235590 L 9170 235590 L 46772 235590 L 46772 265841 L 9170 265841 L 0 265841 L 0 275007 L 0 375841 L 0 385011 L 9170 385011 L 115548 385011 L 124724 385011 L 124724 375841 L 124724 274091 L 124724 264924 L 115548 264924 L 77952 264924 L 77952 234673 L 110966 234673 C 118301,265841 146734,289675 179749,289675 C 212763,289675 241190,266757 248524,234673 L 282456 234673 L 282456 264924 L 244860 264924 L 235690 264924 L 235690 274091 L 235690 375841 L 235690 385011 L 244860 385011 L 351239 385011 L 360408 385011 L 360408 375841 L 360408 274091 L 360408 264924 L 351239 264924 L 313642 264924 L 313642 234673 L 351239 234673 L 360408 234673 L 360408 225506 L 360408 212673 L 360408 203506 L 351239 203506 L 247613 203506 C 242107,177838 221015,156754 195335,150338 L 195335 118253 L 232938 118253 L 242107 118253 L 242107 109086 L 242107 9167 L 242107 0 Z" fill="#FFFFFF"/>
  <path d="M 46766 140254 L 59606 140254 L 59606 101753 L 106378 101753 L 106378 0 L 0 0 L 0 101753 L 46766 101753 L 46766 140254 Z M 12834 12834 L 93538 12834 L 93538 88003 L 12834 88003 L 12834 12834 Z" fill="#2C5967" transform="translate(126559,9164)"/>
  <path d="M 59613 12834 L 99962 12834 L 99962 0 L 0 0 L 0 12834 L 46772 12834 L 46772 61418 L 0 61418 L 0 162255 L 106378 162255 L 106378 60501 L 59613 60501 L 59613 12834 Z M 93545 149421 L 12840 149421 L 12840 74252 L 93545 74252 L 93545 149421 Z" fill="#2C5967" transform="translate(9169,213585)"/>
  <path d="M 106385 12834 L 106385 0 L 6423 0 L 6423 12834 L 46772 12834 L 46772 61418 L 0 61418 L 0 162255 L 106385 162255 L 106385 60501 L 59613 60501 L 59613 11917 L 106385 11917 L 106385 12834 Z M 93545 149421 L 12840 149421 L 12840 74252 L 93545 74252 L 93545 149421 Z" fill="#2C5967" transform="translate(243942,213585)"/>
  <path d="M 61448 0 C 27516,0 0,27501 0,61418 C 0,95336 27516,122836 61448,122836 C 95380,122836 122889,95336 122889,61418 C 122889,27501 94462,0 61448,0 Z M 61448 109086 C 34850,109086 12840,87086 12840,60502 C 12840,33917 34850,11917 61448,11917 C 88039,11917 110049,33917 110049,60502 C 110049,87086 88039,109086 61448,109086 Z" fill="#2C5967" transform="translate(118300,158582)"/>
  <path d="M 63276 23834 L 68782 16500 L 57777 5500 L 50443 11000 C 48608,10083 47690,9167 45855,9167 L 44937 0 L 29344 0 L 28433 9167 C 26598,10083 25680,10083 23845,11000 L 16511 5500 L 5506 16500 L 11005 23834 C 10087,25667 9170,26584 9170,28418 L 0 29334 L 0 44918 L 9170 45835 C 10087,47668 10087,48584 11005,50418 L 5506 57752 L 16511 68752 L 23845 63252 C 25680,64168 26598,65085 28433,65085 L 29344 74252 L 44937 74252 L 45855 65085 C 47690,64168 48608,64168 50443,63252 L 57777 68752 L 68782 57752 L 63276 50418 C 64194,48584 65112,47668 65112,45835 L 74281 44918 L 74281 29334 L 65112 28418 C 65112,26584 64194,25667 63276,23834 Z M 37603 53168 C 28433,53168 21092,45835 21092,36668 C 21092,27501 28433,20167 37603,20167 C 46772,20167 54107,27501 54107,36668 C 54107,45835 45855,53168 37603,53168 Z" fill="#2C5967" transform="translate(142145,182422)"/>
</svg>