<svg xmlns="http://www.w3.org/2000/svg" viewBox="0 0 385007 226726" width="40" height="24">
  <path d="M 187892 217582 C 118147,217582 0,205968 0,162712 L 0 60549 C 7,60184 38,59811 96,59452 C 51,58721 51,57989 96,57258 C 0,11980 118147,0 187892,0 C 257643,0 375783,11980 375783,56796 C 375828,57527 375828,58265 375783,58996 C 375828,59510 375828,60030 375783,60549 L 375783 162616 C 375783,205788 257643,217582 187892,217582 Z" fill="#FFFFFF" transform="translate(4622,4582)"/>
  <path d="M 192500 9144 C 280764,9144 375810,25520 375810,61371 C 375868,62250 375868,63135 375810,64021 C 375862,64509 375862,64996 375810,65484 L 375810 167191 C 375810,201848 280764,217582 192500,217582 C 104243,217582 9197,201848 9197,167191 L 9197 65118 C 9171,64752 9171,64387 9197,64021 C 9159,63257 9159,62494 9197,61736 C 9197,25520 104243,9144 192500,9144 Z M 192500 0 C 172801,0 34,1739 34,61371 C -11,62070 -11,62770 34,63475 C -11,64021 -11,64573 34,65118 L 34 167191 C 34,223890 160333,226726 192500,226726 C 224675,226726 384973,223890 384973,167191 L 384973 65118 C 385018,64573 385018,64021 384973,63475 C 385018,62770 385018,62070 384973,61371 C 384973,1739 212207,0 192500,0 Z" fill="#FFFFFF"/>
  <path d="M 366657 52220 C 366657,16369 271611,0 183347,0 C 95090,0 43,16369 43,52220 C -14,53106 -14,53991 43,54877 C -8,55358 -8,55852 43,56340 L 43 158040 C 43,192704 95090,208432 183347,208432 C 271611,208432 366657,192704 366657,158040 L 366657 55974 C 366682,55608 366682,55243 366657,54877 C 366714,53991 366714,53106 366657,52220 Z M 304882 179261 C 264943,187738 224177,191761 183347,191241 C 142517,191761 101757,187738 61819,179261 C 25159,170111 17273,160966 17273,158040 L 17273 75725 C 48619,95027 118094,103985 183347,103985 C 248606,103985 318081,94841 349428,75725 L 349428 158040 C 349428,160787 341176,170476 304882,179261 Z M 183347 17191 C 224177,16645 264937,20855 304792,29723 C 341451,38867 349428,49018 349428,52220 C 349428,55422 341362,65484 304792,74628 C 264937,83496 224177,87705 183347,87160 C 142517,87705 101763,83496 61908,74628 C 25249,65484 17273,55333 17273,52220 C 17273,49114 25338,38867 61908,29723 C 101763,20855 142517,16645 183347,17191 Z" fill="#2D5967" transform="translate(9166,9150)"/>
</svg>