<svg xmlns="http://www.w3.org/2000/svg" viewBox="0 0 385011 385009" width="40" height="40">
  <path d="M 0 86166 L 0 72421 L 13732 65087 L 13732 22918 C 13732,10084 23870,0 36704,0 L 157084 0 C 169982,0 180057,10084 180057,22918 L 180057 65087 L 191094 72421 L 191094 86166 L 0 86166 Z" fill="#FFFFFF" transform="translate(4620,294256)"/>
  <path d="M 160806 9167 C 170881,9167 179159,17417 179159,27501 L 179159 72417 L 190195 78833 L 190195 85250 L 9176 85250 L 9176 78833 L 22972 72417 L 22972 27501 C 22972,17417 31250,9167 41324,9167 L 160806 9167 Z M 160806 0 L 40426 0 C 25732,0 12834,11917 12834,27501 L 12834 66917 L 4620 71505 L 0 72417 L 0 77922 L 0 85250 L 0 94420 L 9176 94420 L 190195 94420 L 199371 94420 L 199371 85250 L 199371 78833 L 199371 73334 L 194815 70588 L 187436 66000 L 187436 26584 C 188398,11917 176399,0 160806,0 Z" fill="#FFFFFF" transform="translate(0,290590)"/>
  <path d="M 300469 348342 L 201264 250256 L 148839 192505 L 128626 212672 C 132348,220006 130486,229172 124968,235589 L 114830 245673 C 111172,249340 106616,251173 101098,251173 C 95579,251173 90959,249340 87301,245673 L 5486 164088 C -1829,156754 -1829,143920 5486,135670 L 15626 125587 C 19283,121920 23903,120086 29421,120086 C 32181,120086 35838,121003 37699,121920 L 121311 38501 C 117589,31167 119450,22000 124968,15583 L 135043 5500 C 138764,1833 144283,0 148839,0 C 153459,0 158978,1833 162635,5500 L 244450 87086 C 251765,94419 251765,107252 244450,115503 L 234311 125587 C 230654,129253 225135,131086 220515,131086 C 217756,131086 214098,130170 211339,129253 L 191126 149421 L 249905 199838 L 349173 298841 L 362007 315342 L 355590 332756 L 333580 354759 L 316062 361176 L 300469 348342 Z" fill="#FFFFFF" transform="translate(18384,4584)"/>
  <path d="M 154791 9167 C 158512,9167 163068,11000 165828,13751 L 247642 95336 C 253097,100836 253097,110920 247642,117336 L 237503 127420 C 234744,130170 230125,132003 226466,132003 C 222809,132003 220050,131087 217291,128337 L 189698 154921 L 253097 209006 L 351466 307091 L 362440 320842 L 357883 335511 L 336772 355679 L 322013 360261 L 309180 350173 L 209911 251173 L 154791 189755 L 128161 216339 C 132781,221839 132781,231006 127262,236506 L 116226 246590 C 113466,249340 108846,251173 105188,251173 C 101531,251173 96911,249340 94151,246590 L 12401 165005 C 5920,159504 5920,149421 12401,143004 L 22475 132920 C 25234,130170 29854,128337 33512,128337 C 37170,128337 39929,129254 42688,132003 L 131818 43085 C 127262,36668 127262,28418 132781,22917 L 143753 13751 C 147476,11000 151133,9167 154791,9167 Z M 154791 0 C 148374,0 141957,2750 137336,7334 L 127262 17417 C 120781,23834 118984,33918 121744,42168 L 42688 121003 C 39929,120087 37170,120087 35373,120087 C 28892,120087 22475,122837 17919,127420 L 6882 137504 C -2294,146670 -2294,162254 6882,172338 L 88633 253923 C 93253,258507 99670,261257 106086,261257 C 112568,261257 118984,258507 123540,253923 L 133679 243840 C 140096,237423 141957,227340 140096,219089 L 154791 204422 L 203494 258507 L 302763 357508 L 316559 368513 L 320216 371259 L 324773 369424 L 339531 364842 L 341328 363925 L 343189 362096 L 363402 341928 L 365199 340093 L 366161 338257 L 370717 323595 L 372578 319009 L 369819 315342 L 358782 301592 L 259578 201672 L 204393 154004 L 219151 139337 C 221911,140254 223708,140254 226466,140254 C 232883,140254 239364,137504 243920,132920 L 254059 122837 C 263235,113670 263235,98086 254059,88002 L 172244 6417 C 167688,2750 161208,0 154791,0 Z" fill="#FFFFFF" transform="translate(12433,0)"/>
  <path d="M 169982 0 L 171842 0 L 167223 0 L 13796 0 L 0 7334 L 0 13751 L 181019 13751 L 181019 7334 L 169982 0 Z" fill="#2D5967" transform="translate(9177,362096)"/>
  <path d="M 157085 18334 C 157085,8250 148871,0 138733,0 L 18353 0 C 8278,0 0,8250 0,18334 L 0 53168 L 156187 53168 C 157085,53168 157085,18334 157085,18334 Z M 143353 39417 L 13796 39417 L 13796 18334 C 13796,15583 15593,13750 18353,13750 L 138733 13750 C 141492,13750 143353,15583 143353,18334 L 143353 39417 Z" fill="#2D5967" transform="translate(22074,298847)"/>
  <path d="M 44148 4581 L 39527 0 L 0 39418 L 4620 44917 L 18416 39418 L 39527 19250 L 44148 4581 Z" fill="#2D5967" transform="translate(330789,316267)"/>
  <path d="M 244610 199380 L 181212 145295 L 207906 118712 C 210665,120545 214323,122378 217081,122378 C 220740,122378 225359,120545 228119,117795 L 238193 107711 C 243712,102211 243712,92127 238193,85711 L 156443 4125 C 150924,-1375 140785,-1375 134368,4125 L 124294 14209 C 118776,19709 118776,27959 123332,34376 L 34201 123295 C 29646,118712 20405,118712 14951,124212 L 4813 134296 C -1604,140713 -1604,149879 4813,156296 L 86563 237881 C 89323,240632 93943,242465 97600,242465 C 101322,242465 105878,240632 108637,237881 L 118776 227798 C 124294,222298 124294,214047 119674,207631 L 146304 181047 L 201425 242465 L 300693 340552 L 343878 297466 L 244610 199380 Z M 135267 23375 L 145406 13292 L 146304 13292 L 147266 13292 L 229017 94878 C 229915,95795 229915,96711 229017,97628 L 218943 107711 C 217980,108628 217081,108628 216183,107711 L 135267 26126 C 134368,25209 134368,24292 135267,23375 Z M 108637 217715 L 98563 227798 C 97600,228714 96701,228714 95803,227798 L 14951 146212 C 13988,145295 13988,144379 14951,143462 L 25026 134296 L 25924 133379 C 25924,133379 26886,133379 26886,134296 L 108637 215881 C 109535,215881 109535,216798 108637,217715 Z M 109535 197547 L 44341 132462 L 132508 44460 L 197767 109545 L 170239 137045 L 135267 171880 L 109535 197547 Z M 211563 232382 L 155480 170963 L 172035 154463 L 235434 208548 L 324564 297466 L 300693 321301 L 211563 232382 Z" fill="#2D5967" transform="translate(20919,9628)"/>
</svg>