<svg xmlns="http://www.w3.org/2000/svg" viewBox="0 0 279106 385010" width="29" height="40">
  <path d="M 24005 212174 C 3599,182687 -4230,146300 2187,111017 C 8604,75735 28753,44447 58206,24037 C 87659,3626 123979,-4234 159207,2184 C 194436,8602 225686,28773 246092,58260 C 261621,80967 269962,107859 269962,135397 C 269962,162935 261621,189827 246092,212534 L 135080 372391 L 24005 212174 Z" fill="#FFFFFF" transform="translate(4507,4784)"/>
  <path d="M 139394 9006 C 163329,8919 186750,15389 207220,27715 C 227689,40040 244438,57749 255539,78917 C 266640,100084 271773,123901 270362,147777 C 268886,171654 260929,194677 247325,214345 L 139586 369251 L 32168 214345 C 18629,194727 10672,171771 9196,147958 C 7721,124144 12789,100380 23827,79236 C 34864,58092 51483,40374 71825,27995 C 92230,15617 115587,9050 139394,9006 Z M 139394 0 C 113919,47 88957,7065 67205,20296 C 45387,33527 27677,52467 15870,75067 C 4063,97667 -1327,123067 277,148520 C 1817,173974 10287,198511 24789,219478 L 132207 374384 L 139586 385011 L 146966 374384 L 254255 219478 C 268757,198492 277292,173930 278832,148453 C 280436,122976 274981,97557 263175,74947 C 251304,52338 233529,33402 211711,20191 C 189895,6980 164933,-3 139394,0 L 139394 0 Z" fill="#FFFFFF"/>
  <path d="M 237965 56272 C 218265,27764 188042,8276 153904,2094 C 119831,-4088 84667,3544 56240,23309 C 27749,43075 8306,73355 2082,107489 C -4079,141623 3558,176815 23321,205322 L 130675 360227 L 237965 205322 C 253045,183392 261130,157407 261130,130797 C 261130,104187 253045,78202 237965,56272 Z M 224939 196406 L 130675 332577 L 36091 196316 C 24156,179060 17162,158865 15878,137917 C 14595,116970 19022,96070 28776,77481 C 38465,58891 53096,43322 71063,32459 C 88966,21595 109564,15853 130483,15853 C 151466,15853 172000,21595 189967,32459 C 207870,43322 222501,58891 232254,77481 C 242007,96070 246435,116970 245152,137917 C 243868,158865 236874,179060 224939,196316 L 224939 196406 Z" fill="#2D5967" transform="translate(8911,9023)"/>
  <path d="M 96001 59151 L 96001 39698 C 95937,33537 94461,27472 91701,21974 C 88878,16476 84900,11693 79959,7996 C 75082,4274 69435,1756 63404,645 C 57371,-466 51147,-138 45243,1602 C 36966,4124 29651,9264 24517,16259 C 19383,23253 16624,31727 16624,40418 L 16624 59151 C 8732,67019 3341,77064 1095,88011 C -1086,98959 5,110316 4240,120642 C 8539,130968 15726,139798 24966,146012 C 34271,152225 45179,155542 56344,155542 C 67446,155542 78354,152225 87659,146012 C 96899,139798 104150,130968 108385,120642 C 112620,110316 113711,98959 111530,88011 C 109283,77064 103893,67019 96001,59151 Z M 32410 40418 C 32345,35141 33950,29981 37030,25710 C 40110,21440 44538,18290 49543,16732 C 53136,15691 56858,15499 60515,16172 C 64174,16844 67574,18362 70526,20605 C 73478,22833 75916,25712 77584,29022 C 79317,32332 80216,35984 80216,39698 L 80216 48074 C 72772,44572 64558,42758 56344,42758 C 48067,42758 39853,44572 32410,48074 L 32410 40418 Z M 56344 139485 C 48259,139539 40367,137192 33629,132744 C 26891,128296 21694,121946 18549,114502 C 15405,107058 14571,98856 16175,90936 C 17716,83017 21566,75739 27277,70026 C 32987,64313 40238,60423 48131,58851 C 56024,57278 64238,58095 71681,61195 C 79124,64296 85477,69541 89905,76265 C 94397,82989 96771,90887 96707,98958 C 96771,104302 95744,109604 93755,114557 C 91765,119510 88814,124016 85028,127811 C 81242,131607 76815,134617 71873,136668 C 66932,138718 61671,139768 56344,139755 L 56344 139485 Z" fill="#2D5967" transform="translate(83178,45138)"/>
  <path d="M 11951 0 L 10475 0 C 7908,324 5470,1484 3610,3305 C 1748,5126 530,7507 144,10087 C -240,12522 144,15012 1300,17209 C 2390,19405 4187,21198 6368,22335 L 3994 37646 L 19844 37646 L 17662 22335 C 19523,21280 21127,19749 22154,17897 C 23245,16045 23823,13940 23823,11798 C 23759,8661 22539,5660 20293,3450 C 18047,1240 15095,0 11951,0 Z" fill="#2D5967" transform="translate(127571,126801)"/>
</svg>