<svg xmlns="http://www.w3.org/2000/svg" viewBox="0 0 334747 385010" width="35" height="40">
  <path d="M 162327 375847 C 141234,375847 92627,373094 92627,351098 L 92627 247511 C 92627,229177 123806,223672 152239,222761 L 152239 215426 C 148569,213591 144905,209927 143070,206257 L 38520 206257 L 38520 170508 L 0 170508 L 0 0 L 95380 0 L 95380 170508 L 59612 170508 L 59612 185171 L 142152 185171 C 143987,181507 147651,177843 151322,176008 L 151322 170508 L 114637 170508 L 114637 0 L 210016 0 L 210016 170508 L 173332 170508 L 173332 176008 C 177002,177843 180666,181507 182501,185171 L 265041 185171 L 265041 170508 L 229274 170508 L 229274 0 L 324654 0 L 324654 170508 L 286140 170508 L 286140 206257 L 181584 206257 C 179755,209927 176084,213591 172414,215426 L 172414 222761 C 199929,223672 231109,229177 231109,247511 L 231109 352009 C 232027,373094 183419,375847 162327,375847 Z" fill="#FFFFFF" transform="translate(4588,4582)"/>
  <path d="M 324660 9170 L 324660 158586 L 324660 170502 L 286140 170502 L 286140 206257 L 183426 206257 C 181590,210838 177920,215420 172421,217255 L 172421 231924 C 189842,232842 231116,235588 231116,252092 L 231116 284176 L 231116 286005 L 231116 319924 L 231116 320842 L 231116 355679 C 231116,374930 172421,375841 165997,375841 C 159581,375841 100885,374930 100885,355679 L 100885 320842 L 100885 319924 L 100885 286005 L 100885 284176 L 100885 251174 C 100885,234670 143070,231924 160498,231006 L 160498 216337 C 154992,214509 151328,210838 149493,205339 L 47690 205339 L 47690 169591 L 9176 169591 L 9176 157668 L 9176 9170 L 95380 9170 L 95380 158586 L 95380 170502 L 59612 170502 L 59612 194341 L 150411 194341 C 152246,188841 155910,185171 161416,183336 L 161416 170502 L 123813 170502 L 123813 158586 L 123813 9170 L 210023 9170 L 210023 158586 L 210023 170502 L 173338 170502 L 173338 183336 C 177920,185171 182508,188841 184343,194341 L 275135 194341 L 275135 170502 L 238450 170502 L 238450 158586 L 238450 9170 L 324660 9170 Z M 333830 0 L 324660 0 L 238450 0 L 229280 0 L 229280 9170 L 229280 158586 L 229280 170502 L 229280 179672 L 238450 179672 L 265048 179672 L 265048 185171 L 188925 185171 C 188013,183336 186178,181507 184343,179672 L 210023 179672 L 219193 179672 L 219193 170502 L 219193 158586 L 219193 9170 L 219193 0 L 210023 0 L 123813 0 L 114643 0 L 114643 9170 L 114643 158586 L 114643 170502 L 114643 179672 L 123813 179672 L 149493 179672 C 147658,181507 145823,183336 144905,185171 L 68788 185171 L 68788 179672 L 95380 179672 L 104556 179672 L 104556 170502 L 104556 158586 L 104556 9170 L 104556 0 L 95380 0 L 9176 0 L 0 0 L 0 9170 L 0 158586 L 0 170502 L 0 179672 L 9176 179672 L 38520 179672 L 38520 206257 L 38520 215420 L 47690 215420 L 144905 215420 C 146740,218173 149493,220925 152246,222754 C 112808,224589 92633,234670 92633,251174 L 92633 284176 L 92633 286005 L 92633 319924 L 92633 320842 L 92633 355679 C 92633,381346 139406,385011 166915,385011 C 194430,385011 241203,381346 241203,355679 L 241203 320842 L 241203 319924 L 241203 286005 L 241203 284176 L 241203 251174 L 241203 250257 C 241203,233759 221028,223672 182508,221837 C 185260,220008 188013,217255 189842,214509 L 287057 214509 L 296227 214509 L 296227 205339 L 296227 178754 L 325578 178754 L 334747 178754 L 334747 169591 L 334747 157668 L 334747 9170 L 334747 0 L 333830 0 Z" fill="#FFFFFF"/>
  <path d="M 44020 0 L 0 0 L 0 11916 L 44020 11916 L 44020 0 Z" fill="#2C5967" transform="translate(144905,35748)"/>
  <path d="M 5499 10999 C 8534,10999 10998,8535 10998,5499 C 10998,2464 8534,0 5499,0 C 2458,0 0,2464 0,5499 C 0,8535 2458,10999 5499,10999 Z" fill="#2C5967" transform="translate(161416,127419)"/>
  <path d="M 44020 0 L 0 0 L 0 11916 L 44020 11916 L 44020 0 Z" fill="#2C5967" transform="translate(144905,59587)"/>
  <path d="M 44020 0 L 0 0 L 0 11916 L 44020 11916 L 44020 0 Z" fill="#2C5967" transform="translate(144905,83419)"/>
  <path d="M 229274 0 L 229274 149422 L 229274 161339 L 265041 161339 L 265041 185171 L 174250 185171 C 172414,180589 168744,176007 163244,174172 L 163244 161339 L 199929 161339 L 199929 149422 L 199929 0 L 113719 0 L 113719 149422 L 113719 161339 L 151322 161339 L 151322 174172 C 145816,176007 142152,179672 140317,185171 L 50436 185171 L 50436 161339 L 86204 161339 L 86204 149422 L 86204 0 L 0 0 L 0 149422 L 0 161339 L 38514 161339 L 38514 197093 L 141235 197093 C 143070,202592 146734,206257 152240,208092 L 152240 222761 C 134812,222761 92627,226425 92627,242922 L 92627 275007 L 92627 276842 L 92627 310761 L 92627 311679 L 92627 346509 C 92627,365760 151322,366678 157739,366678 C 164162,366678 222857,365760 222857,346509 L 222857 311679 L 222857 310761 L 222857 276842 L 222857 275007 L 222857 242011 C 222857,225507 181584,222761 164162,221843 L 164162 207174 C 168744,205339 173332,201675 175167,196176 L 277881 196176 L 277881 160421 L 316402 160421 L 316402 148505 L 316402 0 L 229274 0 Z M 126560 11916 L 188925 11916 L 188925 149422 L 126560 149422 L 126560 11916 Z M 11923 11916 L 74281 11916 L 74281 149422 L 11923 149422 L 11923 11916 Z M 151322 190676 C 151322,187006 154075,185171 156821,185171 C 159574,185171 162327,187924 162327,190676 C 162327,193423 159574,196176 156821,196176 C 154075,196176 151322,194340 151322,190676 Z M 157739 354761 C 125642,354761 107302,349262 104550,345592 L 104550 323595 C 121971,330929 153157,330929 157739,330929 C 162327,330929 193506,330929 210935,323595 L 210935 345592 C 207264,349262 188925,354761 157739,354761 Z M 210935 310761 C 208182,314425 189842,319924 157739,319924 C 125642,319924 107302,314425 104550,310761 L 104550 289676 C 121971,297010 153157,297010 157739,297010 C 162327,297010 193506,297010 210935,289676 L 210935 310761 Z M 210935 276842 C 208182,280512 189842,286011 157739,286011 C 125642,286011 107302,280512 104550,276842 L 104550 254845 C 121060,262173 150405,262173 157739,262173 C 165080,262173 194424,261262 210935,254845 L 210935 276842 Z M 210017 242011 C 205429,245675 187089,250257 157739,250257 C 128395,250257 110049,245675 105467,242011 C 110049,238341 128395,233759 157739,233759 C 187089,233759 204511,238341 210017,242011 Z M 241196 149422 L 241196 11916 L 303562 11916 L 303562 149422 L 241196 149422 Z" fill="#2C5967" transform="translate(9176,9163)"/>
  <path d="M 44026 0 L 0 0 L 0 11916 L 44026 11916 L 44026 0 Z" fill="#2C5967" transform="translate(259542,35748)"/>
  <path d="M 5499 10999 C 8541,10999 10998,8535 10998,5499 C 10998,2464 8541,0 5499,0 C 2464,0 0,2464 0,5499 C 0,8535 2464,10999 5499,10999 Z" fill="#2C5967" transform="translate(275135,127419)"/>
  <path d="M 44026 0 L 0 0 L 0 11916 L 44026 11916 L 44026 0 Z" fill="#2C5967" transform="translate(259542,59587)"/>
  <path d="M 44026 0 L 0 0 L 0 11916 L 44026 11916 L 44026 0 Z" fill="#2C5967" transform="translate(259542,83419)"/>
  <path d="M 44020 0 L 0 0 L 0 11916 L 44020 11916 L 44020 0 Z" fill="#2C5967" transform="translate(30268,35748)"/>
  <path d="M 5505 10999 C 8541,10999 11005,8535 11005,5499 C 11005,2464 8541,0 5505,0 C 2464,0 0,2464 0,5499 C 0,8535 2464,10999 5505,10999 Z" fill="#2C5967" transform="translate(47690,127419)"/>
  <path d="M 44020 0 L 0 0 L 0 11916 L 44020 11916 L 44020 0 Z" fill="#2C5967" transform="translate(30268,59587)"/>
  <path d="M 44020 0 L 0 0 L 0 11916 L 44020 11916 L 44020 0 Z" fill="#2C5967" transform="translate(30268,83419)"/>
</svg>