<svg xmlns="http://www.w3.org/2000/svg" viewBox="0 0 385100 385010" width="40" height="40">
  <path d="M 315965 119290 L 343840 84447 L 282315 22922 L 247472 50796 C 242338,48321 237115,46120 231796,44286 L 226842 0 L 139829 0 L 134875 44286 C 129556,46120 124243,48321 119199,50796 L 84356 22922 L 22921 84447 L 50795 119290 C 48319,124424 46118,129651 44289,134969 L 0 139920 L 0 226935 L 44289 231886 C 46118,237204 48319,242523 50795,247566 L 22921 282408 L 84445 343930 L 119289 316062 C 124422,318532 129652,320733 134972,322568 L 139919 366857 L 226938 366857 L 231885 322568 C 237205,320733 242524,318532 247568,316062 L 282405 343930 L 343930 282408 L 316062 247566 C 318532,242431 320733,237204 322568,231886 L 366857 226935 L 366857 139920 L 322568 134969 C 320733,129651 318532,124333 316062,119290 L 315965 119290 Z M 354569 215932 L 313309 220517 L 312115 224276 C 309824,231520 306892,238671 303311,245456 L 301482 248941 L 327426 281399 L 281398 327426 L 248941 301480 L 245457 303313 C 238674,306798 231609,309732 224275,312115 L 220515 313309 L 215933 354569 L 150834 354569 L 146246 313309 L 142486 312115 C 135241,309824 128093,306889 121304,303313 L 117819 301480 L 85363 327426 L 39335 281399 L 65285 248941 L 63450 245456 C 59965,238671 57033,231611 54646,224276 L 53459 220517 L 12192 215932 L 12192 150831 L 53459 146247 L 54646 142487 C 56937,135244 59876,128092 63450,121307 L 65285 117823 L 39335 85364 L 85363 39335 L 117819 65284 L 121304 63450 C 128093,59965 135152,57032 142486,54648 L 146246 53455 L 150834 12195 L 215933 12195 L 220515 53455 L 224275 54648 C 231519,56940 238674,59874 245457,63450 L 248941 65284 L 281398 39335 L 327426 85364 L 301482 117823 L 303311 121307 C 306795,128092 309734,135152 312115,142487 L 313309 146247 L 354569 150831 L 354569 215932 Z" fill="#2D5967" transform="translate(9170,9169)"/>
  <path d="M 376944 139921 L 338251 135611 C 337513,133594 336692,131668 335774,129743 L 360068 99393 L 365208 92975 L 359427 87198 L 297902 25674 L 292127 19897 L 285710 25031 L 255358 49329 C 253433,48504 251418,47679 249493,46854 L 245181 8160 L 244263 0 L 140837 0 L 139919 8160 L 135613 46854 C 133592,47588 131667,48413 129742,49329 L 99391 25031 L 92974 19897 L 87198 25674 L 25674 87107 L 19899 92883 L 25032 99301 L 49333 129651 C 48505,131577 47677,133594 46856,135519 L 8162 139829 L 0 140746 L 0 244173 L 8162 245090 L 46856 249400 C 47587,251417 48415,253342 49333,255268 L 25032 285617 L 19899 292036 L 25674 297812 L 87198 359337 L 92974 365112 L 99391 359978 L 129742 335678 C 131667,336506 133688,337333 135613,338155 L 139919 376848 L 140837 385011 L 244263 385011 L 245181 376848 L 249493 338155 C 251508,337423 253433,336595 255358,335678 L 285710 359978 L 292127 365112 L 297902 359337 L 359427 297812 L 365208 292036 L 360068 285617 L 335774 255268 C 336596,253342 337423,251325 338251,249400 L 376944 245090 L 385100 244173 L 385100 140837 L 376944 139921 Z M 375931 236013 L 331648 240964 C 329813,246282 327612,251600 325135,256643 L 353010 291486 L 291485 353010 L 256642 325135 C 251508,327612 246285,329813 240965,331648 L 236012 375931 L 148999 375931 L 144045 331648 C 138726,329813 133413,327612 128369,325135 L 93526 353010 L 32001 291486 L 59876 256643 C 57399,251508 55198,246282 53362,240964 L 9080 236013 L 9080 148998 L 53362 144047 C 55198,138728 57399,133411 59876,128368 L 32001 93525 L 93615 32092 L 128459 59966 C 133592,57490 138822,55289 144135,53456 L 149089 9169 L 236101 9169 L 241055 53456 C 246375,55289 251694,57490 256738,59966 L 291575 32092 L 353099 93617 L 325225 128459 C 327702,133594 329903,138820 331738,144138 L 376027 149090 L 376027 236105 L 375931 236013 Z" fill="#FFFFFF"/>
  <path d="M 299916 130293 C 297626,123049 294693,115897 291119,109112 L 289284 105628 L 315234 73169 L 269199 27141 L 236743 53089 L 233259 51255 C 226476,47771 219411,44837 212077,42453 L 208316 41261 L 203735 0 L 138636 0 L 134048 41261 L 130287 42453 C 123049,44745 115894,47679 109112,51255 L 105628 53089 L 73165 27141 L 27137 73169 L 53087 105628 L 51251 109112 C 47767,115897 44834,122958 42447,130293 L 41260 134052 L 0 138637 L 0 203737 L 41260 208322 L 42447 212081 C 44744,219325 47677,226477 51251,233262 L 53087 236746 L 27137 269205 L 73165 315236 L 105628 289285 L 109112 291119 C 115894,294603 122953,297537 130287,299919 L 134048 301113 L 138636 342373 L 203735 342373 L 208316 301113 L 212077 299919 C 219321,297629 226476,294695 233259,291119 L 236743 289285 L 269199 315236 L 315234 269205 L 289284 236746 L 291119 233262 C 294604,226477 297536,219416 299916,212081 L 301110 208322 L 342371 203737 L 342371 138637 L 301110 134052 L 299916 130293 Z" fill="#FFFFFF" transform="translate(21369,21365)"/>
  <path d="M 116171 232346 C 52169,232346 0,180264 0,116172 C 0,52081 52079,0 116171,0 C 180262,0 232341,52081 232341,116172 C 232341,180264 180262,232346 116171,232346 Z M 116171 30625 C 68949,30625 30621,69043 30621,116172 C 30621,163302 69045,201720 116171,201720 C 163302,201720 201720,163302 201720,116172 C 201720,69043 163302,30625 116171,30625 Z" fill="#FFFFFF" transform="translate(76380,76378)"/>
  <path d="M 107001 214007 C 48043,214007 0,166052 0,107003 C 0,47954 47953,0 107001,0 C 166049,0 214008,47954 214008,107003 C 214008,166052 166049,214007 107001,214007 Z M 107001 12286 C 54736,12286 12289,54831 12289,107003 C 12289,159176 54832,201720 107001,201720 C 159176,201720 201720,159176 201720,107003 C 201720,54831 159176,12286 107001,12286 Z" fill="#2D5967" transform="translate(85550,85548)"/>
  <path d="M 50430 59049 L 0 8619 L 8714 0 L 50430 41811 L 92152 0 L 100860 8619 L 50430 59049 Z" fill="#2D5967" transform="translate(142121,197686)"/>
  <path d="M 12192 0 L 0 0 L 0 117272 L 12192 117272 L 12192 0 Z" fill="#2D5967" transform="translate(186410,126809)"/>
</svg>