<svg xmlns="http://www.w3.org/2000/svg" viewBox="862 1556 76 56" width="48" height="48">
  <path d="M 900 1609 C 899,1609 898,1609 897,1608 C 897,1608 897,1608 897,1608 C 896,1607 896,1607 896,1607 C 896,1608 896,1608 896,1608 C 896,1608 895,1608 895,1608 C 895,1608 893,1608 893,1608 C 892,1607 892,1607 892,1607 C 891,1606 891,1606 891,1606 C 891,1607 891,1607 891,1607 C 890,1607 890,1607 890,1607 C 890,1607 890,1606 889,1606 C 888,1606 888,1606 888,1606 C 888,1606 887,1605 887,1605 C 886,1605 886,1605 886,1605 C 886,1604 886,1604 885,1604 C 884,1603 884,1603 884,1603 C 884,1603 884,1603 883,1602 C 883,1602 883,1602 883,1602 C 882,1601 882,1601 882,1601 C 881,1600 881,1600 881,1600 C 881,1600 880,1599 880,1599 C 880,1599 880,1599 880,1599 C 879,1598 879,1598 879,1597 C 878,1597 878,1597 878,1597 C 878,1596 878,1596 878,1595 C 877,1595 877,1595 877,1595 C 877,1594 877,1593 877,1593 C 876,1592 876,1592 876,1592 C 877,1592 877,1592 877,1592 C 876,1592 876,1592 876,1592 C 876,1592 876,1591 876,1591 C 876,1591 876,1590 876,1590 C 876,1589 876,1589 876,1589 C 875,1589 875,1589 875,1589 C 875,1589 875,1589 875,1589 C 875,1588 875,1588 875,1588 C 872,1590 872,1590 872,1590 C 865,1584 865,1584 865,1584 C 872,1577 872,1577 872,1577 C 875,1579 875,1579 875,1579 C 875,1579 875,1579 875,1579 C 875,1578 875,1578 875,1578 C 877,1577 877,1577 877,1577 C 876,1577 876,1577 876,1577 C 876,1577 876,1577 876,1576 C 876,1576 876,1576 876,1575 C 877,1575 877,1575 877,1575 C 876,1575 876,1575 876,1575 C 877,1574 877,1574 877,1574 C 877,1574 877,1573 877,1573 C 878,1572 878,1572 878,1572 C 878,1572 878,1571 878,1571 C 879,1570 879,1570 879,1570 C 879,1570 879,1569 880,1569 C 880,1568 880,1568 880,1568 C 880,1568 881,1567 881,1567 C 882,1566 882,1566 882,1566 C 882,1566 882,1566 883,1565 C 883,1565 883,1565 883,1565 C 884,1564 884,1564 884,1564 C 885,1563 885,1563 885,1563 C 886,1563 886,1563 886,1563 C 887,1562 887,1562 887,1562 C 887,1562 888,1562 888,1561 C 889,1561 889,1561 889,1561 C 890,1561 890,1561 890,1560 C 891,1560 891,1560 891,1560 C 892,1561 892,1561 892,1561 C 892,1560 892,1560 892,1560 C 892,1560 892,1560 893,1560 C 893,1560 893,1559 893,1559 C 894,1560 894,1560 894,1560 C 894,1559 894,1559 894,1559 C 894,1559 895,1559 895,1559 C 895,1559 896,1559 896,1559 C 897,1560 897,1560 897,1560 C 897,1559 897,1559 897,1559 C 897,1559 897,1559 897,1559 C 898,1559 899,1559 900,1559 C 901,1559 901,1559 902,1559 C 903,1559 903,1559 903,1559 C 903,1560 903,1560 903,1560 C 903,1559 903,1559 903,1559 C 904,1559 904,1559 905,1559 C 905,1559 905,1559 906,1559 C 906,1560 906,1560 906,1560 C 906,1559 906,1559 906,1559 C 906,1559 907,1560 907,1560 C 907,1560 908,1560 908,1560 C 908,1561 908,1561 908,1561 C 908,1560 908,1560 908,1560 C 909,1560 909,1560 909,1560 C 910,1561 910,1561 910,1561 C 911,1561 911,1561 911,1561 C 912,1562 912,1562 913,1562 C 913,1563 913,1563 913,1563 C 914,1563 914,1563 914,1563 C 915,1564 915,1564 915,1564 C 916,1564 916,1564 916,1565 C 917,1565 917,1565 917,1565 C 917,1566 918,1566 918,1566 C 918,1567 918,1567 918,1567 C 919,1567 919,1568 919,1568 C 920,1569 920,1569 920,1569 C 920,1569 920,1570 921,1570 C 921,1570 921,1570 921,1570 C 921,1571 922,1572 922,1572 C 922,1572 922,1572 922,1572 C 921,1573 921,1573 921,1573 C 922,1573 922,1573 922,1573 C 923,1573 923,1574 923,1574 C 923,1575 923,1575 923,1575 C 922,1576 922,1576 922,1576 C 923,1575 923,1575 923,1575 C 923,1576 924,1576 924,1576 C 924,1577 924,1577 924,1577 C 923,1578 923,1578 923,1578 C 924,1578 924,1578 924,1578 C 924,1578 924,1578 924,1579 C 924,1579 924,1579 924,1579 C 927,1577 927,1577 927,1577 C 934,1584 934,1584 934,1584 C 927,1590 927,1590 927,1590 C 924,1588 924,1588 924,1588 C 924,1588 924,1588 924,1589 C 924,1589 924,1589 924,1589 C 923,1590 923,1590 923,1590 C 924,1590 924,1590 924,1590 C 924,1590 924,1591 924,1591 C 924,1591 923,1592 923,1592 C 922,1592 922,1592 922,1592 C 923,1592 923,1592 923,1592 C 923,1593 923,1593 923,1593 C 923,1593 923,1594 922,1594 C 922,1595 922,1595 922,1595 C 922,1596 921,1596 921,1596 C 921,1597 921,1597 921,1597 C 920,1598 920,1598 920,1598 C 919,1599 919,1599 919,1599 C 919,1599 919,1600 918,1600 C 918,1601 918,1601 918,1601 C 918,1601 917,1601 917,1602 C 916,1602 916,1602 916,1602 C 916,1603 916,1603 915,1603 C 914,1604 914,1604 914,1604 C 914,1604 914,1604 913,1605 C 913,1605 913,1605 913,1605 C 912,1605 912,1606 911,1606 C 910,1606 910,1606 910,1606 C 910,1606 910,1607 909,1607 C 908,1607 908,1607 908,1607 C 908,1606 908,1606 908,1606 C 908,1607 908,1607 908,1607 C 908,1607 907,1607 907,1608 C 907,1608 906,1608 906,1608 C 905,1607 905,1607 905,1607 C 905,1608 905,1608 905,1608 C 905,1608 905,1608 905,1608 C 904,1608 904,1608 903,1608 C 903,1607 903,1607 903,1607 C 903,1608 903,1608 903,1608 C 902,1608 902,1608 902,1608 C 901,1609 901,1609 900,1609 Z M 925 1586 C 925,1587 925,1587 924,1588 C 926,1586 926,1586 926,1586 C 925,1586 925,1586 925,1586 C 925,1586 925,1586 925,1586 Z M 875 1588 C 875,1587 875,1587 875,1586 C 875,1586 875,1586 875,1586 C 873,1586 873,1586 873,1586 Z M 926 1582 C 924,1580 924,1580 924,1580 C 925,1580 925,1581 925,1581 C 925,1581 925,1581 925,1582 Z M 875 1582 C 875,1581 875,1581 875,1581 C 875,1581 875,1580 875,1580 C 873,1582 873,1582 873,1582 Z" fill="#ffffff"/>
  <path d="M 900 1560 C 901,1560 901,1560 902,1560 C 902,1560 903,1560 903,1560 C 904,1560 904,1560 904,1560 C 905,1560 905,1560 906,1560 C 906,1560 906,1560 907,1561 C 907,1561 907,1561 908,1561 C 908,1561 908,1561 909,1561 C 909,1561 910,1562 910,1562 C 910,1562 911,1562 911,1562 C 911,1562 912,1563 912,1563 C 912,1563 912,1563 913,1563 C 913,1564 913,1564 914,1564 C 914,1564 914,1564 914,1565 C 915,1565 915,1565 916,1566 C 916,1566 916,1566 916,1566 C 917,1566 917,1567 917,1567 C 917,1567 918,1567 918,1568 C 918,1568 918,1568 919,1569 C 919,1569 919,1569 919,1569 C 919,1570 920,1570 920,1571 C 920,1571 920,1571 920,1571 C 921,1572 921,1572 921,1572 C 921,1573 921,1573 921,1573 C 922,1574 922,1574 922,1574 C 922,1575 922,1575 922,1575 C 922,1576 923,1576 923,1577 C 923,1577 923,1577 923,1578 C 923,1578 923,1578 923,1579 C 923,1580 924,1580 924,1581 C 924,1581 924,1581 924,1581 C 924,1582 924,1582 924,1583 C 929,1583 929,1583 929,1583 C 927,1581 927,1581 927,1581 C 926,1580 926,1580 926,1580 C 927,1578 927,1578 927,1578 C 930,1581 930,1581 930,1581 C 931,1582 931,1582 931,1582 C 933,1584 933,1584 933,1584 C 931,1585 931,1585 931,1585 C 930,1586 930,1586 930,1586 C 927,1589 927,1589 927,1589 C 926,1588 926,1588 926,1588 C 927,1586 927,1586 927,1586 C 929,1585 929,1585 929,1585 C 924,1585 924,1585 924,1585 C 924,1585 924,1586 924,1586 C 924,1586 924,1586 924,1586 C 924,1587 923,1588 923,1588 C 923,1589 923,1589 923,1589 C 923,1590 923,1590 923,1591 C 923,1591 922,1591 922,1592 C 922,1592 922,1592 922,1593 C 922,1593 922,1594 921,1594 C 921,1594 921,1594 921,1595 C 921,1595 921,1596 920,1596 C 920,1596 920,1596 920,1597 C 920,1597 919,1597 919,1598 C 919,1598 919,1598 919,1598 C 918,1599 918,1599 918,1600 C 918,1600 917,1600 917,1600 C 917,1600 917,1601 916,1601 C 916,1601 916,1601 916,1602 C 915,1602 915,1602 914,1603 C 914,1603 914,1603 914,1603 C 913,1603 913,1604 913,1604 C 912,1604 912,1604 912,1604 C 912,1604 911,1605 911,1605 C 911,1605 910,1605 910,1605 C 910,1605 909,1606 909,1606 C 908,1606 908,1606 908,1606 C 907,1606 907,1606 907,1607 C 906,1607 906,1607 906,1607 C 905,1607 905,1607 904,1607 C 904,1607 904,1607 903,1607 C 903,1607 902,1607 902,1607 C 901,1608 901,1608 900,1608 C 899,1608 898,1608 897,1607 C 897,1607 897,1607 897,1607 C 896,1607 896,1607 895,1607 C 895,1607 894,1607 894,1607 C 894,1607 893,1607 893,1607 C 893,1606 892,1606 892,1606 C 891,1606 891,1606 891,1606 C 890,1606 890,1605 890,1605 C 889,1605 889,1605 889,1605 C 888,1605 888,1604 888,1604 C 887,1604 887,1604 887,1604 C 886,1604 886,1603 886,1603 C 885,1603 885,1603 885,1603 C 885,1602 884,1602 884,1602 C 884,1601 884,1601 883,1601 C 883,1601 883,1600 882,1600 C 882,1600 882,1600 882,1600 C 882,1599 881,1599 881,1598 C 881,1598 881,1598 880,1598 C 880,1597 880,1597 880,1597 C 879,1596 879,1596 879,1596 C 879,1596 879,1595 879,1595 C 878,1594 878,1594 878,1594 C 878,1594 878,1593 878,1593 C 877,1592 877,1592 877,1592 C 877,1591 877,1591 877,1591 C 877,1590 877,1590 877,1589 C 876,1589 876,1589 876,1588 C 876,1588 876,1587 876,1586 C 876,1586 876,1586 876,1586 C 876,1586 876,1585 876,1585 C 871,1585 871,1585 871,1585 C 872,1586 872,1586 872,1586 C 874,1588 874,1588 874,1588 C 872,1589 872,1589 872,1589 C 869,1586 869,1586 869,1586 C 869,1586 869,1586 869,1586 C 867,1584 867,1584 867,1584 C 869,1581 869,1581 869,1581 C 869,1581 869,1581 869,1581 C 872,1578 872,1578 872,1578 C 874,1580 874,1580 874,1580 C 872,1581 872,1581 872,1581 C 871,1583 871,1583 871,1583 C 876,1583 876,1583 876,1583 C 876,1582 876,1582 876,1581 C 876,1581 876,1581 876,1581 C 876,1580 876,1580 876,1579 C 876,1578 876,1578 877,1578 C 877,1577 877,1577 877,1577 C 877,1576 877,1576 877,1575 C 877,1575 877,1575 878,1574 C 878,1574 878,1574 878,1573 C 878,1573 878,1573 879,1572 C 879,1572 879,1572 879,1571 C 879,1571 879,1571 880,1571 C 880,1570 880,1570 880,1569 C 881,1569 881,1569 881,1569 C 881,1568 882,1568 882,1568 C 882,1567 882,1567 882,1567 C 883,1567 883,1566 883,1566 C 884,1566 884,1566 884,1566 C 884,1565 885,1565 885,1565 C 885,1564 885,1564 886,1564 C 886,1564 886,1564 887,1563 C 887,1563 887,1563 888,1563 C 888,1563 888,1562 889,1562 C 889,1562 889,1562 890,1562 C 890,1562 890,1561 891,1561 C 891,1561 891,1561 892,1561 C 892,1561 893,1561 893,1561 C 893,1560 894,1560 894,1560 C 894,1560 895,1560 895,1560 C 896,1560 896,1560 897,1560 C 897,1560 897,1560 897,1560 C 898,1560 899,1560 900,1560 M 900 1558 C 899,1558 898,1558 897,1558 C 897,1558 897,1558 897,1558 C 896,1558 896,1558 896,1558 C 896,1558 896,1558 896,1558 C 896,1558 895,1558 895,1558 C 894,1558 894,1558 894,1558 C 894,1558 894,1558 894,1558 C 893,1558 893,1558 893,1558 C 893,1558 893,1559 892,1559 C 892,1559 892,1559 891,1559 C 891,1559 891,1559 891,1559 C 891,1559 891,1559 891,1559 C 891,1559 890,1559 890,1559 C 890,1560 889,1560 889,1560 C 889,1560 889,1560 889,1560 C 888,1560 888,1560 888,1560 C 887,1561 887,1561 887,1561 C 886,1561 886,1562 886,1562 C 885,1562 885,1562 885,1563 C 884,1563 884,1563 884,1563 C 883,1563 883,1564 883,1564 C 882,1564 882,1564 882,1565 C 882,1565 881,1565 881,1566 C 881,1566 881,1566 880,1566 C 880,1567 880,1567 879,1568 C 879,1568 879,1568 879,1568 C 879,1569 878,1569 878,1569 C 878,1570 878,1570 878,1570 C 878,1570 878,1570 878,1570 C 877,1571 877,1571 877,1572 C 877,1572 877,1572 876,1572 C 876,1572 876,1572 876,1572 C 876,1573 876,1573 876,1574 C 876,1574 876,1574 875,1574 C 875,1575 875,1575 875,1575 C 875,1575 875,1575 875,1575 C 875,1575 875,1576 875,1576 C 875,1576 875,1577 875,1577 C 875,1577 875,1577 875,1577 C 875,1577 875,1577 875,1577 C 874,1577 874,1577 874,1577 C 872,1575 872,1575 872,1575 C 871,1577 871,1577 871,1577 C 868,1580 868,1580 868,1580 C 865,1582 865,1582 865,1582 C 864,1584 864,1584 864,1584 C 865,1585 865,1585 865,1585 C 868,1587 868,1587 868,1587 C 871,1590 871,1590 871,1590 C 872,1592 872,1592 872,1592 C 874,1590 874,1590 874,1590 C 875,1590 875,1590 875,1590 C 875,1590 875,1590 875,1590 C 875,1590 875,1590 875,1590 C 875,1591 875,1591 875,1591 C 875,1591 875,1592 875,1592 C 875,1592 875,1592 875,1592 C 875,1593 875,1593 875,1593 C 876,1593 876,1593 876,1593 C 876,1594 876,1594 876,1595 C 876,1595 876,1595 876,1595 C 877,1595 877,1595 877,1596 C 877,1596 877,1597 878,1597 C 878,1597 878,1597 878,1597 C 878,1597 878,1597 878,1598 C 878,1598 879,1599 879,1599 C 879,1599 879,1599 879,1600 C 880,1600 880,1600 880,1601 C 881,1601 881,1601 881,1601 C 881,1602 882,1602 882,1603 C 882,1603 882,1603 883,1603 C 883,1603 883,1604 884,1604 C 884,1604 884,1604 885,1605 C 885,1605 885,1605 886,1605 C 886,1606 886,1606 886,1606 C 887,1606 887,1606 888,1607 C 888,1607 888,1607 889,1607 C 889,1607 890,1607 890,1608 C 890,1608 891,1608 891,1608 C 891,1608 891,1608 891,1608 C 892,1608 892,1608 892,1608 C 893,1609 893,1609 893,1609 C 894,1609 894,1609 894,1609 C 894,1609 894,1609 894,1609 C 894,1609 894,1609 895,1609 C 895,1609 896,1609 896,1609 C 896,1609 896,1609 896,1609 C 897,1609 897,1609 897,1609 C 897,1609 897,1609 897,1609 C 898,1610 899,1610 900,1610 C 901,1610 902,1610 902,1609 C 903,1609 903,1609 903,1609 C 903,1609 903,1609 903,1609 C 904,1609 904,1609 904,1609 C 904,1609 904,1609 905,1609 C 905,1609 905,1609 906,1609 C 906,1609 906,1609 906,1609 C 906,1609 906,1609 906,1609 C 907,1609 907,1609 907,1608 C 908,1608 908,1608 908,1608 C 909,1608 909,1608 909,1608 C 909,1608 909,1608 910,1608 C 910,1607 910,1607 911,1607 C 911,1607 911,1607 912,1607 C 912,1606 913,1606 913,1606 C 913,1606 914,1606 914,1605 C 914,1605 915,1605 915,1605 C 915,1604 916,1604 916,1604 C 916,1604 917,1603 917,1603 C 917,1603 917,1603 918,1603 C 918,1602 918,1602 919,1601 C 919,1601 919,1601 919,1601 C 920,1600 920,1600 920,1600 C 920,1599 920,1599 921,1599 C 921,1599 921,1598 922,1598 C 922,1597 922,1597 922,1597 C 922,1597 922,1597 922,1597 C 922,1597 923,1596 923,1596 C 923,1595 923,1595 923,1595 C 923,1595 923,1595 923,1595 C 923,1594 924,1594 924,1593 C 924,1593 924,1593 924,1593 C 924,1592 924,1592 924,1592 C 924,1592 924,1592 924,1592 C 924,1592 925,1591 925,1591 C 925,1591 925,1591 925,1590 C 925,1590 925,1590 925,1590 C 925,1590 925,1590 925,1590 C 926,1590 926,1590 926,1590 C 927,1592 927,1592 927,1592 C 929,1590 929,1590 929,1590 C 932,1587 932,1587 932,1587 C 933,1586 933,1586 933,1586 C 934,1585 934,1585 934,1585 C 936,1584 936,1584 936,1584 C 934,1582 934,1582 934,1582 C 933,1581 933,1581 933,1581 C 932,1580 932,1580 932,1580 C 929,1577 929,1577 929,1577 C 927,1575 927,1575 927,1575 C 926,1577 926,1577 926,1577 C 925,1577 925,1577 925,1577 C 925,1577 925,1577 925,1577 C 925,1577 925,1577 925,1577 C 925,1577 925,1576 925,1576 C 925,1576 924,1575 924,1575 C 924,1575 924,1575 924,1575 C 924,1574 924,1574 924,1574 C 924,1574 924,1574 924,1574 C 924,1573 923,1573 923,1572 C 923,1572 923,1572 923,1572 C 923,1572 923,1572 923,1572 C 923,1571 922,1571 922,1570 C 922,1570 922,1570 922,1570 C 922,1570 922,1570 922,1569 C 921,1569 921,1569 921,1568 C 920,1568 920,1568 920,1568 C 920,1567 920,1567 919,1566 C 919,1566 919,1566 919,1566 C 918,1565 918,1565 918,1565 C 917,1564 917,1564 917,1564 C 917,1564 916,1563 916,1563 C 916,1563 915,1563 915,1563 C 915,1562 914,1562 914,1562 C 914,1562 913,1561 913,1561 C 913,1561 912,1561 912,1560 C 911,1560 911,1560 911,1560 C 910,1560 910,1560 910,1559 C 909,1559 909,1559 909,1559 C 909,1559 909,1559 909,1559 C 908,1559 908,1559 908,1559 C 908,1559 908,1559 907,1559 C 907,1559 907,1558 906,1558 C 906,1558 906,1558 906,1558 C 906,1558 906,1558 906,1558 C 905,1558 905,1558 905,1558 C 904,1558 904,1558 904,1558 C 903,1558 903,1558 903,1558 C 903,1558 903,1558 903,1558 C 903,1558 903,1558 902,1558 C 902,1558 901,1558 900,1558 Z" fill="#ffffff"/>
  <path d="M 900 1562 C 911,1562 920,1570 922,1581 C 924,1581 924,1581 924,1581 C 922,1569 912,1560 900,1560 C 887,1560 877,1569 876,1581 C 878,1581 878,1581 878,1581 C 879,1570 888,1562 900,1562 Z" fill="#161513"/>
  <path d="M 900 1606 C 888,1606 879,1597 878,1586 C 876,1586 876,1586 876,1586 C 877,1598 887,1608 900,1608 C 912,1608 922,1598 924,1586 C 922,1586 922,1586 922,1586 C 920,1597 911,1606 900,1606 Z" fill="#161513"/>
  <path d="M 933 1584 L 931 1582 L 930 1581 L 927 1578 L 926 1580 L 927 1581 L 929 1583 L 871 1583 L 872 1581 L 874 1580 L 872 1578 L 869 1581 L 869 1581 L 867 1584 L 869 1586 L 869 1586 L 872 1589 L 874 1588 L 872 1586 L 871 1585 L 929 1585 L 927 1586 L 926 1588 L 927 1589 L 930 1586 L 931 1585 L 933 1584 Z" fill="#161513"/>
</svg>