<svg xmlns="http://www.w3.org/2000/svg" viewBox="0 0 256673 256673" width="27" height="27">
  <path d="M 0 250501 L 0 80827 L 107559 80827 L 107559 30852 L 179672 0 L 251174 30852 L 251174 96253 C 251174,96869 251174,112911 242005,132040 C 234061,149314 217563,172761 182116,185716 L 182116 249885 L 0 249885 L 0 250501 Z" fill="#FFFFFF" transform="translate(3054,3087)"/>
  <path d="M 182116 6789 L 250565 35787 L 250565 99339 C 250565,99955 250565,115381 242005,133887 C 234061,151168 218173,173993 183952,186332 L 182726 186955 L 182116 186955 L 182116 250501 L 6109 250501 L 6109 87000 L 113668 87000 L 113668 35787 L 182116 6789 Z M 182116 0 L 179672 1232 L 111223 30236 L 107559 32084 L 107559 36403 L 107559 81442 L 6109 81442 L 0 81442 L 0 87616 L 0 250501 L 0 256674 L 6109 256674 L 182116 256674 L 188225 256674 L 188225 250501 L 188225 191273 C 222453,177695 239560,154248 247504,136358 C 256674,116613 256674,99955 256674,99339 L 256674 35787 L 256674 32084 L 253010 30236 L 184561 1232 L 182116 0 Z" fill="#FFFFFF"/>
  <path d="M 167454 102426 L 55005 102426 L 55005 59234 L 116119 59234 C 114284,56147 113058,53677 111839,51213 L 55005 51213 L 55005 8021 L 100841 8021 L 100841 0 L 0 0 L 0 162892 L 176008 162892 L 176008 106122 L 172953 104890 C 171118,103658 169283,103042 167454,102426 Z M 7944 7405 L 47061 7405 L 47061 50597 L 7944 50597 L 7944 7405 Z M 47061 58618 L 47061 101803 L 7944 101803 L 7944 58618 L 47061 58618 Z M 7944 110447 L 47061 110447 L 47061 153632 L 7944 153632 L 7944 110447 Z M 167454 153632 L 55005 153632 L 55005 110447 L 167454 110447 L 167454 153632 Z" fill="#AE562C" transform="translate(6109,88232)"/>
  <path d="M 7944 0 L 0 0 L 0 8021 L 7944 8021 L 7944 0 Z" fill="#AE562C" transform="translate(156449,225822)"/>
  <path d="M 6115 26527 L 13450 19122 L 20784 26527 L 26283 20360 L 18949 12955 L 26283 5551 L 20784 0 L 13450 7399 L 6115 0 L 0 5551 L 7334 12955 L 0 20360 L 6115 26527 Z" fill="#AE562C" transform="translate(124666,207316)"/>
  <path d="M 7944 0 L 0 0 L 0 8021 L 7944 8021 L 7944 0 Z" fill="#AE562C" transform="translate(105114,225822)"/>
  <path d="M 0 20360 L 5499 26527 L 12834 19122 L 20168 26527 L 26277 20360 L 18943 12955 L 26277 5551 L 20168 0 L 12834 7399 L 5499 0 L 0 5551 L 7334 12955 L 0 20360 Z" fill="#AE562C" transform="translate(73948,207316)"/>
  <path d="M 7944 0 L 0 0 L 0 8021 L 7944 8021 L 7944 0 Z" fill="#AE562C" transform="translate(105114,173999)"/>
  <path d="M 0 20361 L 5499 26534 L 12834 19129 L 20168 26534 L 26277 20361 L 18943 12956 L 26277 5551 L 20168 0 L 12834 7405 L 5499 0 L 0 5551 L 7334 12956 L 0 20361 Z" fill="#AE562C" transform="translate(73948,155487)"/>
  <path d="M 0 8637 L 7944 8637 L 7944 616 C 7944,616 7944,616 7944,0 L 0 0 L 0 8637 Z" fill="#AE562C" transform="translate(103279,122170)"/>
  <path d="M 0 20977 L 6109 26527 L 13443 19129 L 20778 26527 L 26277 20977 L 18942 13572 L 26277 6167 L 20778 0 L 13443 7405 L 6109 0 L 0 6167 L 7334 13572 L 0 20977 Z" fill="#AE562C" transform="translate(71503,103658)"/>
  <path d="M 0 28998 L 0 92550 C 0,93166 616,108592 8560,127098 C 16504,144379 33002,167204 67229,179543 L 68449 180166 L 69668 179543 C 103895,167204 120393,144379 127727,127098 C 136281,108592 136281,93166 136281,92550 L 136281 28998 L 68449 0 L 0 28998 Z M 128953 92550 C 128953,93166 127727,148697 69058,170906 C 44616,161653 26893,145611 16504,124018 C 8560,107354 8560,92550 8560,92550 L 8560 34548 L 69058 8637 L 128953 34548 L 128953 92550 Z" fill="#AE562C" transform="translate(113668,6789)"/>
  <path d="M 31776 0 L 0 0 L 0 8021 L 31776 8021 L 31776 0 Z" fill="#AE562C" transform="translate(143006,107976)"/>
  <path d="M 31776 0 L 0 0 L 0 8021 L 31776 8021 L 31776 0 Z" fill="#AE562C" transform="translate(143006,66639)"/>
  <path d="M 29947 0 L 12224 17281 L 6109 11108 L 0 16665 L 12224 29004 L 35447 5557 L 29947 0 Z" fill="#AE562C" transform="translate(187616,57379)"/>
  <path d="M 0 8637 L 30550 8637 L 31776 8637 L 31776 0 L 0 0 L 0 8637 Z" fill="#AE562C" transform="translate(143006,87000)"/>
</svg>