<svg xmlns="http://www.w3.org/2000/svg" viewBox="0 0 256673 256673" width="27" height="27">
  <path d="M 250565 0 L 0 0 L 0 250565 L 250565 250565 L 250565 0 Z" fill="#FFFFFF" transform="translate(3055,3055)"/>
  <path d="M 250565 6109 L 250565 250565 L 6109 250565 L 6109 6109 L 250565 6109 Z M 256674 0 L 250565 0 L 6109 0 L 0 0 L 0 6109 L 0 250565 L 0 256674 L 6109 256674 L 250565 256674 L 256674 256674 L 256674 250565 L 256674 6109 L 256674 0 Z" fill="#FFFFFF"/>
  <path d="M 0 0 L 0 244450 L 244456 244450 L 244456 0 L 0 0 Z M 235286 78228 L 77002 78228 L 77002 9170 L 235286 9170 L 235286 78228 Z M 9170 166228 L 67839 166228 L 67839 235896 L 9170 235896 L 9170 166228 Z M 67839 9170 L 67839 78837 L 9170 78837 L 9170 9170 L 67839 9170 Z M 67839 87391 L 67839 157059 L 9170 157059 L 9170 87391 L 67839 87391 Z M 77002 235286 L 77002 166228 L 235286 166228 L 235286 235896 L 77002 235286 Z M 77002 157059 L 77002 87391 L 235286 87391 L 235286 157059 L 77002 157059 Z" fill="#AA643B" transform="translate(6109,6109)"/>
  <path d="M 0 31776 L 10389 31776 L 15888 21387 L 21387 31776 L 31167 31776 L 21997 15279 L 30557 0 L 20778 0 L 15888 9779 L 10389 0 L 610 0 L 9779 15279 L 0 31776 Z" fill="#AA643B" transform="translate(91671,43391)"/>
  <path d="M 8554 0 L 0 0 L 0 7334 L 8554 7334 L 8554 0 Z" fill="#AA643B" transform="translate(127727,67833)"/>
  <path d="M 9773 31776 L 15278 21387 L 20778 31776 L 30557 31776 L 20778 15279 L 29941 0 L 20778 0 L 15278 9779 L 9773 0 L 0 0 L 9163 15279 L 0 31776 L 9773 31776 Z" fill="#AA643B" transform="translate(143006,43391)"/>
  <path d="M 8554 0 L 0 0 L 0 7334 L 8554 7334 L 8554 0 Z" fill="#AA643B" transform="translate(176617,67833)"/>
  <path d="M 9779 31776 L 15279 21387 L 21387 31776 L 30557 31776 L 21387 15279 L 29948 0 L 20778 0 L 15279 9779 L 9779 0 L 610 0 L 9170 15279 L 0 31776 L 9779 31776 Z" fill="#AA643B" transform="translate(190061,43391)"/>
  <path d="M 8560 0 L 0 0 L 0 7334 L 8560 7334 L 8560 0 Z" fill="#AA643B" transform="translate(223672,67833)"/>
  <path d="M 30557 0 L 20778 0 L 15888 9773 L 10389 0 L 610 0 L 9779 15278 L 0 31776 L 10389 31776 L 15888 21387 L 21387 31776 L 31167 31776 L 21997 15278 L 30557 0 Z" fill="#AA643B" transform="translate(91671,122838)"/>
  <path d="M 8554 0 L 0 0 L 0 7334 L 8554 7334 L 8554 0 Z" fill="#AA643B" transform="translate(127727,146670)"/>
  <path d="M 29941 0 L 20778 0 L 15278 9773 L 9773 0 L 0 0 L 9163 15278 L 0 31776 L 9773 31776 L 15278 21387 L 20778 31776 L 30557 31776 L 20778 15278 L 29941 0 Z" fill="#AA643B" transform="translate(143006,122838)"/>
  <path d="M 8554 0 L 0 0 L 0 7334 L 8554 7334 L 8554 0 Z" fill="#AA643B" transform="translate(176617,146670)"/>
  <path d="M 29948 0 L 20778 0 L 15279 9773 L 9779 0 L 610 0 L 9170 15278 L 0 31776 L 9779 31776 L 15279 21387 L 21387 31776 L 30557 31776 L 21387 15278 L 29948 0 Z" fill="#AA643B" transform="translate(190061,122838)"/>
  <path d="M 8560 0 L 0 0 L 0 7334 L 8560 7334 L 8560 0 Z" fill="#AA643B" transform="translate(223672,146670)"/>
  <path d="M 30557 0 L 20778 0 L 15888 9170 L 10389 0 L 610 0 L 9779 14669 L 0 31167 L 10389 31167 L 15888 20778 L 21387 31167 L 31167 31167 L 21997 15278 L 30557 0 Z" fill="#AA643B" transform="translate(91671,201059)"/>
  <path d="M 8554 0 L 0 0 L 0 7334 L 8554 7334 L 8554 0 Z" fill="#AA643B" transform="translate(127727,224891)"/>
  <path d="M 29941 0 L 20778 0 L 15278 9170 L 9773 0 L 0 0 L 9163 14669 L 0 31167 L 9773 31167 L 15278 20778 L 20778 31167 L 30557 31167 L 20778 15278 L 29941 0 Z" fill="#AA643B" transform="translate(143006,201059)"/>
  <path d="M 8554 0 L 0 0 L 0 7334 L 8554 7334 L 8554 0 Z" fill="#AA643B" transform="translate(176617,224891)"/>
  <path d="M 29948 0 L 20778 0 L 15279 9170 L 9779 0 L 610 0 L 9170 14669 L 0 31167 L 9779 31167 L 15279 20778 L 21387 31167 L 30557 31167 L 21387 15278 L 29948 0 Z" fill="#AA643B" transform="translate(190061,201059)"/>
  <path d="M 8560 0 L 0 0 L 0 7334 L 8560 7334 L 8560 0 Z" fill="#AA643B" transform="translate(223672,224891)"/>
</svg>