<svg xmlns="http://www.w3.org/2000/svg" viewBox="0 0 385010 378295" width="40" height="40">
  <path d="M 0 189148 L 0 237286 L 3311 237286 L 3311 262159 L 0 262159 L 0 308595 L 3311 308595 L 3311 330156 L 0 330156 L 0 378295 L 48139 378295 L 48139 374984 L 169289 374984 L 169289 378295 L 215721 378295 L 215721 374984 L 336871 374984 L 336871 378295 L 385011 378295 L 385011 330156 L 381700 330156 L 381700 308595 L 385011 308595 L 385011 262159 L 381700 262159 L 381700 237286 L 385011 237286 L 385011 141009 L 381700 141009 L 381700 119447 L 385011 119447 L 385011 73011 L 381700 73011 L 381700 48138 L 385011 48138 L 385011 0 L 336871 0 L 336871 3310 L 215721 3310 L 215721 0 L 169289 0 L 169289 3310 L 48139 3310 L 48139 0 L 0 0 L 0 48138 L 3311 48138 L 3311 73011 L 0 73011 L 0 119447 L 3311 119447 L 3311 141009 L 0 141009 L 0 189148 Z" fill="#FFFFFF"/>
  <path d="M 0 83036 L 278709 83036 L 278709 0 L 0 0 L 0 83036 Z M 13238 13335 L 265465 13335 L 265465 69700 L 261307 69700 L 251373 69700 L 214868 69700 L 131930 69700 L 121997 69700 L 22414 69700 L 13334 69700 L 13334 13335 L 13238 13335 Z" fill="#2D5967" transform="translate(53061,53058)"/>
  <path d="M 0 82942 L 278709 82942 L 278709 0 L 0 0 L 0 82942 Z M 13238 13240 L 265465 13240 L 265465 69606 L 261307 69606 L 251373 69606 L 214868 69606 L 131930 69606 L 121997 69606 L 22414 69606 L 13334 69606 L 13334 13240 L 13238 13240 Z" fill="#2D5967" transform="translate(53061,242299)"/>
  <path d="M 365054 28277 L 365054 0 L 336871 0 L 336871 3310 L 195861 3310 L 195861 0 L 169283 0 L 169283 3310 L 28273 3310 L 28273 0 L 0 0 L 0 28183 L 3305 28183 L 3305 73011 L 0 73011 L 0 99586 L 3305 99586 L 3305 141104 L 0 141104 L 0 169287 L 28183 169287 L 28183 165977 L 169193 165977 L 169193 169287 L 195765 169287 L 195765 165977 L 336775 165977 L 336775 169287 L 364958 169287 L 364958 141104 L 361647 141104 L 361647 99586 L 364958 99586 L 364958 73011 L 361647 73011 L 361647 28277 L 364958 28277 L 365054 28277 Z M 348505 73105 L 345194 73105 L 345194 99681 L 348505 99681 L 348505 141199 L 345194 141199 L 345194 149521 L 336871 149521 L 336871 152831 L 195861 152831 L 195861 149521 L 169283 149521 L 169283 152831 L 28273 152831 L 28273 149521 L 19950 149521 L 19950 141199 L 16645 141199 L 16645 99681 L 19950 99681 L 19950 73105 L 16645 73105 L 16645 28277 L 19950 28277 L 19950 19955 L 28273 19955 L 28273 16645 L 169283 16645 L 169283 19955 L 195861 19955 L 195861 16645 L 336871 16645 L 336871 19955 L 345194 19955 L 345194 28277 L 348505 28277 L 348505 73105 Z" fill="#2D5967" transform="translate(9933,9929)"/>
  <path d="M 336871 3310 L 195861 3310 L 195861 0 L 169289 0 L 169289 3310 L 28279 3310 L 28279 0 L 0 0 L 0 28183 L 3311 28183 L 3311 73011 L 0 73011 L 0 99586 L 3311 99586 L 3311 141107 L 0 141107 L 0 169290 L 28183 169290 L 28183 165979 L 169193 165979 L 169193 169290 L 195765 169290 L 195765 165979 L 336775 165979 L 336775 169290 L 364958 169290 L 364958 141107 L 361647 141107 L 361647 99586 L 364958 99586 L 364958 73011 L 361647 73011 L 361647 28183 L 364958 28183 L 364958 0 L 336775 0 L 336775 3310 L 336871 3310 Z M 348505 28183 L 348505 73011 L 345194 73011 L 345194 99586 L 348505 99586 L 348505 141107 L 345194 141107 L 345194 149430 L 336871 149430 L 336871 152734 L 195861 152734 L 195861 149430 L 169289 149430 L 169289 152734 L 28279 152734 L 28279 149430 L 19956 149430 L 19956 141107 L 16645 141107 L 16645 99586 L 19956 99586 L 19956 73011 L 16645 73011 L 16645 28183 L 19956 28183 L 19956 19861 L 28279 19861 L 28279 16550 L 169289 16550 L 169289 19861 L 195861 19861 L 195861 16550 L 336871 16550 L 336871 19861 L 345194 19861 L 345194 28183 L 348505 28183 Z" fill="#2D5967" transform="translate(9933,199079)"/>
  <path d="M 0 13241 L 34799 13241 L 44732 13241 L 54665 13241 L 89560 13241 L 89560 0 L 0 0 L 0 13241 Z" fill="#2D5967" transform="translate(85498,76322)"/>
  <path d="M 34799 0 L 0 0 L 0 13241 L 34799 13241 L 34799 0 Z" fill="#2D5967" transform="translate(85498,99586)"/>
  <path d="M 9080 56366 L 118596 56366 L 201540 56366 L 211467 56366 L 247979 56366 L 252137 56366 L 252137 0 L 0 0 L 0 56366 L 9080 56366 Z M 211467 33101 L 238046 33101 L 238046 46341 L 211467 46341 L 211467 33101 Z M 108573 46341 L 73768 46341 L 73768 33101 L 108573 33101 L 108573 46341 Z M 108573 23076 L 19109 23076 L 19109 9836 L 108669 9836 L 108669 23076 L 108573 23076 Z M 19013 33006 L 53818 33006 L 53818 46247 L 19013 46247 L 19013 33006 Z" fill="#FFFFFF" transform="translate(66388,66393)"/>
  <path d="M 34799 0 L 0 0 L 0 13241 L 34799 13241 L 34799 0 Z" fill="#2D5967" transform="translate(140163,99586)"/>
  <path d="M 26579 0 L 0 0 L 0 13241 L 26579 13241 L 26579 0 Z" fill="#2D5967" transform="translate(277952,99586)"/>
  <path d="M 0 13241 L 34799 13241 L 44732 13241 L 54665 13241 L 89560 13241 L 89560 0 L 0 0 L 0 13241 Z" fill="#2D5967" transform="translate(85498,265469)"/>
  <path d="M 34799 0 L 0 0 L 0 13241 L 34799 13241 L 34799 0 Z" fill="#2D5967" transform="translate(85498,288733)"/>
  <path d="M 9080 56366 L 118596 56366 L 201540 56366 L 211467 56366 L 247979 56366 L 252137 56366 L 252137 0 L 0 0 L 0 56366 L 9080 56366 Z M 211467 33101 L 238046 33101 L 238046 46341 L 211467 46341 L 211467 33101 Z M 108573 46341 L 73768 46341 L 73768 33101 L 108573 33101 L 108573 46341 Z M 108573 23076 L 19109 23076 L 19109 9836 L 108669 9836 L 108669 23076 L 108573 23076 Z M 19013 33006 L 53818 33006 L 53818 46247 L 19013 46247 L 19013 33006 Z" fill="#FFFFFF" transform="translate(66388,255542)"/>
  <path d="M 34799 0 L 0 0 L 0 13241 L 34799 13241 L 34799 0 Z" fill="#2D5967" transform="translate(140163,288733)"/>
  <path d="M 26579 0 L 0 0 L 0 13241 L 26579 13241 L 26579 0 Z" fill="#2D5967" transform="translate(277952,288733)"/>
</svg>