<svg xmlns="http://www.w3.org/2000/svg" viewBox="0 0 385010 372176" width="40" height="39">
  <path d="M 338983 363318 L 338983 359770 L 206224 359770 L 206224 363318 L 170816 363318 L 170816 359770 L 37173 359770 L 37173 363318 L 0 363318 L 0 326101 L 3536 326101 L 3536 293311 L 0 293311 L 0 257865 L 3536 257865 L 3536 221534 L 0 221534 L 0 141781 L 3536 141781 L 3536 108995 L 0 108995 L 0 73549 L 3536 73549 L 3536 37218 L 0 37218 L 0 0 L 37173 0 L 37173 3545 L 170816 3545 L 170816 0 L 206224 0 L 206224 3545 L 338983 3545 L 338983 0 L 376155 0 L 376155 37218 L 372619 37218 L 372619 73549 L 376155 73549 L 376155 108995 L 372619 108995 L 372619 141781 L 376155 141781 L 376155 221534 L 372619 221534 L 372619 257865 L 376155 257865 L 376155 293311 L 372619 293311 L 372619 326101 L 376155 326101 L 376155 363318 L 338983 363318 Z" fill="#FFFFFF" transform="translate(4428,4425)"/>
  <path d="M 376162 8862 L 376162 37218 L 372619 37218 L 372619 82411 L 376162 82411 L 376162 108995 L 372619 108995 L 372619 150643 L 376162 150643 L 376162 221534 L 372619 221534 L 372619 265841 L 376162 265841 L 376162 292425 L 372619 292425 L 372619 334074 L 376162 334074 L 376162 363315 L 347838 363315 L 347838 359773 L 206224 359773 L 206224 363315 L 179672 363315 L 179672 359773 L 38058 359773 L 38058 363315 L 8849 363315 L 8849 334959 L 12391 334959 L 12391 293311 L 8849 293311 L 8849 266727 L 12391 266727 L 12391 221534 L 8849 221534 L 8849 150643 L 12391 150643 L 12391 108995 L 8849 108995 L 8849 82411 L 12391 82411 L 12391 37218 L 8849 37218 L 8849 8862 L 37173 8862 L 37173 12406 L 178786 12406 L 178786 8862 L 205339 8862 L 205339 12406 L 346952 12406 L 346952 8862 L 376162 8862 Z M 385011 0 L 376162 0 L 347838 0 L 338989 0 L 338989 3545 L 215073 3545 L 215073 0 L 206224 0 L 179672 0 L 170823 0 L 170823 3545 L 46907 3545 L 46907 0 L 38058 0 L 8849 0 L 0 0 L 0 8862 L 0 37218 L 0 46079 L 3542 46079 L 3542 73550 L 0 73550 L 0 82411 L 0 108995 L 0 117856 L 3542 117856 L 3542 141782 L 0 141782 L 0 150643 L 0 221534 L 0 230395 L 3542 230395 L 3542 256980 L 0 256980 L 0 265841 L 0 292425 L 0 301286 L 3542 301286 L 3542 325212 L 0 325212 L 0 334074 L 0 363315 L 0 372177 L 8849 372177 L 37173 372177 L 46022 372177 L 46022 368635 L 169937 368635 L 169937 372177 L 178786 372177 L 205339 372177 L 214188 372177 L 214188 368635 L 338103 368635 L 338103 372177 L 346952 372177 L 375276 372177 L 384125 372177 L 384125 363315 L 384125 334959 L 384125 326098 L 380583 326098 L 380583 302172 L 384125 302172 L 384125 293311 L 384125 266727 L 384125 257866 L 380583 257866 L 380583 230395 L 384125 230395 L 384125 221534 L 384125 150643 L 384125 141782 L 380583 141782 L 380583 117856 L 384125 117856 L 384125 108995 L 384125 82411 L 384125 73550 L 380583 73550 L 380583 46079 L 384125 46079 L 384125 37218 L 384125 8862 L 384125 0 L 385011 0 Z" fill="#FFFFFF"/>
  <path d="M 0 80639 L 280570 80639 L 280570 0 L 0 0 L 0 80639 Z M 13276 14179 L 267293 14179 L 267293 67347 L 13276 67347 L 13276 14179 Z" fill="#2D5967" transform="translate(52214,237483)"/>
  <path d="M 9741 19495 C 15118,19495 19475,15131 19475,9748 C 19475,4364 15118,0 9741,0 C 4363,0 0,4364 0,9748 C 0,15131 4363,19495 9741,19495 Z" fill="#2D5967" transform="translate(279685,268499)"/>
  <path d="M 338989 3544 L 197375 3544 L 197375 0 L 170823 0 L 170823 3544 L 29209 3544 L 29209 0 L 0 0 L 0 29242 L 3542 29242 L 3542 73549 L 0 73549 L 0 100133 L 3542 100133 L 3542 141784 L 0 141784 L 0 171025 L 28324 171025 L 28324 167477 L 169937 167477 L 169937 171025 L 196490 171025 L 196490 167477 L 338103 167477 L 338103 171025 L 366427 171025 L 366427 142669 L 362885 142669 L 362885 101019 L 366427 101019 L 366427 74435 L 362885 74435 L 362885 29242 L 366427 29242 L 366427 886 L 338103 886 L 338103 3544 L 338989 3544 Z M 350494 74435 L 346952 74435 L 346952 101019 L 350494 101019 L 350494 142669 L 346952 142669 L 346952 150646 L 338989 150646 L 338989 154188 L 197375 154188 L 197375 150646 L 170823 150646 L 170823 154188 L 29209 154188 L 29209 150646 L 20360 150646 L 20360 142669 L 16818 142669 L 16818 101019 L 20360 101019 L 20360 74435 L 16818 74435 L 16818 29242 L 20360 29242 L 20360 20381 L 28324 20381 L 28324 16837 L 169937 16837 L 169937 20381 L 196490 20381 L 196490 16837 L 338103 16837 L 338103 20381 L 346067 20381 L 346067 29242 L 349609 29242 L 349609 74435 L 350494 74435 Z" fill="#2D5967" transform="translate(8849,192290)"/>
  <path d="M 0 79752 L 280570 79752 L 280570 0 L 0 0 L 0 79752 Z M 13276 13292 L 267293 13292 L 267293 66460 L 13276 66460 L 13276 13292 Z" fill="#2D5967" transform="translate(52214,54055)"/>
  <path d="M 9741 19495 C 15118,19495 19475,15131 19475,9747 C 19475,4364 15118,0 9741,0 C 4363,0 0,4364 0,9747 C 0,15131 4363,19495 9741,19495 Z" fill="#2D5967" transform="translate(279685,84181)"/>
  <path d="M 367313 28357 L 367313 0 L 338989 0 L 338989 3545 L 197375 3545 L 197375 0 L 170823 0 L 170823 3545 L 29209 3545 L 29209 0 L 0 0 L 0 28357 L 3542 28357 L 3542 73549 L 0 73549 L 0 100134 L 3542 100134 L 3542 141782 L 0 141782 L 0 170138 L 28324 170138 L 28324 166593 L 169937 166593 L 169937 170138 L 196490 170138 L 196490 166593 L 338103 166593 L 338103 170138 L 366427 170138 L 366427 141782 L 362885 141782 L 362885 100134 L 366427 100134 L 366427 73549 L 362885 73549 L 362885 28357 L 367313 28357 Z M 350494 73549 L 346952 73549 L 346952 100134 L 350494 100134 L 350494 141782 L 346952 141782 L 346952 150643 L 338989 150643 L 338989 154188 L 197375 154188 L 197375 150643 L 170823 150643 L 170823 154188 L 29209 154188 L 29209 150643 L 20360 150643 L 20360 141782 L 16818 141782 L 16818 100134 L 20360 100134 L 20360 73549 L 16818 73549 L 16818 28357 L 20360 28357 L 20360 19495 L 28324 19495 L 28324 16837 L 169937 16837 L 169937 20381 L 196490 20381 L 196490 16837 L 338103 16837 L 338103 20381 L 346067 20381 L 346067 28357 L 349609 28357 L 349609 73549 L 350494 73549 Z" fill="#2D5967" transform="translate(8849,8852)"/>
</svg>