<svg xmlns="http://www.w3.org/2000/svg" viewBox="0 0 385010 378276" width="40" height="40">
  <path d="M 374988 0 L 336775 0 L 336775 3310 L 215632 3310 L 215632 0 L 169193 0 L 169193 3310 L 48139 3310 L 48139 0 L 0 0 L 0 48135 L 3311 48135 L 3311 73007 L 0 73007 L 0 119440 L 3311 119440 L 3311 141001 L 0 141001 L 0 189136 L 0 237272 L 3311 237272 L 3311 262143 L 0 262143 L 0 308576 L 3311 308576 L 3311 330137 L 0 330137 L 0 378276 L 48139 378276 L 48139 374965 L 169289 374965 L 169289 378276 L 215721 378276 L 215721 374965 L 336871 374965 L 336871 378276 L 385011 378276 L 385011 330137 L 381700 330137 L 381700 308576 L 385011 308576 L 385011 262143 L 381700 262143 L 381700 237272 L 385011 237272 L 385011 141001 L 381700 141001 L 381700 119440 L 385011 119440 L 385011 73007 L 381700 73007 L 381700 48135 L 385011 48135 L 385011 0 L 375084 0 L 374988 0 Z M 374988 227342 L 371676 227342 L 371676 272167 L 374988 272167 L 374988 298741 L 371676 298741 L 371676 340256 L 374988 340256 L 374988 368439 L 346805 368439 L 346805 365128 L 205795 365128 L 205795 368439 L 179216 368439 L 179216 365128 L 38206 365128 L 38206 368439 L 9933 368439 L 9933 340256 L 13238 340256 L 13238 298741 L 9933 298741 L 9933 272167 L 13238 272167 L 13238 227342 L 9933 227342 L 9933 199161 L 15984 199161 L 15984 356330 L 366004 356330 L 366004 199066 L 374988 199066 L 374988 227247 L 374988 227342 Z M 374988 38206 L 371676 38206 L 371676 83031 L 374988 83031 L 374988 109605 L 371676 109605 L 371676 151120 L 374988 151120 L 374988 179301 L 366004 179301 L 366004 15793 L 16081 15793 L 16081 179207 L 10023 179207 L 10023 151026 L 13334 151026 L 13334 109510 L 10023 109510 L 10023 82936 L 13334 82936 L 13334 38206 L 10023 38206 L 10023 9929 L 38206 9929 L 38206 13240 L 179216 13240 L 179216 9929 L 205795 9929 L 205795 13240 L 346805 13240 L 346805 9929 L 374988 9929 L 374988 38111 L 374988 38206 Z" fill="#FFFFFF"/>
  <path d="M 143846 0 L 0 0 L 0 13240 L 143846 13240 L 143846 0 Z" fill="#2D5967" transform="translate(120586,77450)"/>
  <path d="M 34805 0 L 0 0 L 0 13239 L 34805 13239 L 34805 0 Z" fill="#2D5967" transform="translate(120014,99017)"/>
  <path d="M 34805 0 L 0 0 L 0 13239 L 34805 13239 L 34805 0 Z" fill="#2D5967" transform="translate(174776,99017)"/>
  <path d="M 34805 0 L 0 0 L 0 13239 L 34805 13239 L 34805 0 Z" fill="#2D5967" transform="translate(229531,99017)"/>
  <path d="M 0 79627 L 278709 79627 L 278709 0 L 0 0 L 0 79627 Z M 13238 13240 L 265465 13240 L 265465 66292 L 13334 66292 L 13334 13240 L 13238 13240 Z" fill="#2D5967" transform="translate(53061,54753)"/>
  <path d="M 336878 169277 L 365061 169277 L 365061 141095 L 361749 141095 L 361749 99580 L 365061 99580 L 365061 73006 L 361749 73006 L 361749 28276 L 365061 28276 L 365061 0 L 336878 0 L 336878 3310 L 195868 3310 L 195868 0 L 169289 0 L 169289 3310 L 28279 3310 L 28279 0 L 0 0 L 0 28181 L 3311 28181 L 3311 73006 L 0 73006 L 0 99580 L 3311 99580 L 3311 141095 L 0 141095 L 0 169277 L 28183 169277 L 28183 165967 L 169193 165967 L 169193 169277 L 195771 169277 L 195771 165967 L 336782 165967 L 336782 169277 L 336878 169277 Z M 195868 152727 L 195868 149417 L 169289 149417 L 169289 152727 L 28279 152727 L 28279 149417 L 19956 149417 L 19956 141095 L 16645 141095 L 16645 99580 L 19956 99580 L 19956 73006 L 16645 73006 L 16645 28276 L 19956 28276 L 19956 19954 L 28279 19954 L 28279 16644 L 169289 16644 L 169289 19954 L 195868 19954 L 195868 16644 L 336878 16644 L 336878 19954 L 345201 19954 L 345201 28276 L 348505 28276 L 348505 73101 L 345201 73101 L 345201 99675 L 348505 99675 L 348505 141190 L 345201 141190 L 345201 149512 L 336878 149512 L 336878 152822 L 195868 152822 L 195868 152727 Z" fill="#2D5967" transform="translate(9927,9926)"/>
  <path d="M 0 79625 L 278709 79625 L 278709 0 L 0 0 L 0 79625 Z M 13238 13240 L 265465 13240 L 265465 66292 L 13334 66292 L 13334 13240 L 13238 13240 Z" fill="#2D5967" transform="translate(53061,243890)"/>
  <path d="M 336878 169280 L 365061 169280 L 365061 141097 L 361749 141097 L 361749 99580 L 365061 99580 L 365061 73006 L 361749 73006 L 361749 28181 L 365061 28181 L 365061 0 L 336878 0 L 336878 3310 L 195868 3310 L 195868 0 L 169289 0 L 169289 3310 L 28279 3310 L 28279 0 L 0 0 L 0 28181 L 3311 28181 L 3311 73006 L 0 73006 L 0 99580 L 3311 99580 L 3311 141097 L 0 141097 L 0 169280 L 28183 169280 L 28183 165968 L 169193 165968 L 169193 169280 L 195771 169280 L 195771 165968 L 336782 165968 L 336782 169280 L 336878 169280 Z M 195868 152730 L 195868 149419 L 169289 149419 L 169289 152730 L 28279 152730 L 28279 149419 L 19956 149419 L 19956 141097 L 16645 141097 L 16645 99580 L 19956 99580 L 19956 73006 L 16645 73006 L 16645 28181 L 19956 28181 L 19956 19859 L 28279 19859 L 28279 16549 L 169289 16549 L 169289 19859 L 195868 19859 L 195868 16549 L 336878 16549 L 336878 19859 L 345201 19859 L 345201 28181 L 348505 28181 L 348505 73006 L 345201 73006 L 345201 99580 L 348505 99580 L 348505 141097 L 345201 141097 L 345201 149419 L 336878 149419 L 336878 152730 L 195868 152730 Z" fill="#2D5967" transform="translate(9927,199063)"/>
  <path d="M 143846 0 L 0 0 L 0 13240 L 143846 13240 L 143846 0 Z" fill="#2D5967" transform="translate(120586,266587)"/>
  <path d="M 34805 0 L 0 0 L 0 13239 L 34805 13239 L 34805 0 Z" fill="#2D5967" transform="translate(120014,288154)"/>
  <path d="M 34805 0 L 0 0 L 0 13239 L 34805 13239 L 34805 0 Z" fill="#2D5967" transform="translate(174776,288154)"/>
  <path d="M 34805 0 L 0 0 L 0 13239 L 34805 13239 L 34805 0 Z" fill="#2D5967" transform="translate(229531,288154)"/>
</svg>