<svg xmlns="http://www.w3.org/2000/svg" viewBox="0 0 295174 385010" width="31" height="40">
  <path d="M 139374 373152 C 68340,346689 34651,301072 18224,266408 C 0,227176 0,194328 0,192505 L 0 61127 L 143032 0 L 285165 61127 L 285165 193416 C 285165,198890 283304,322973 147587,373152 L 143930 374975 L 139374 373152 Z" fill="#FFFFFF" transform="translate(4555,5473)"/>
  <path d="M 147587 10036 L 285164 69340 L 285164 198890 C 285164,204364 283304,324795 150347,374063 L 147587 374975 L 145790 374063 C 75591,348518 42801,303812 27336,270053 C 10011,232649 9112,199801 9112,198890 L 9112 69340 L 147587 10036 Z M 147587 0 L 143930 1822 L 5454 61127 L 0 62949 L 0 69340 L 0 198890 C 0,200719 0,234471 19122,274615 C 35550,309285 70136,356725 143032,383188 L 145790 384099 L 148486 385011 L 151245 384099 L 153940 383188 C 293378,332097 295175,204364 295175,198890 L 295175 69340 L 295175 62949 L 289721 60216 L 151245 1822 L 147587 0 Z" fill="#FFFFFF"/>
  <path d="M 138475 0 L 0 59304 L 0 188854 C 0,189765 0,222613 18224,260017 C 33688,293776 67441,338482 136678,364028 L 139374 364939 L 142132 364028 C 275154,314759 276950,193416 276950,188854 L 276950 59304 L 138475 0 Z M 262385 188854 C 262385,193416 260524,303812 138475,350340 C 87462,331180 51014,299249 30030,254543 C 13668,218962 13668,189765 13668,188854 L 13668 68423 L 138475 14598 L 262385 68423 L 262385 188854 Z" fill="#2D5967" transform="translate(9112,10036)"/>
  <path d="M 82906 0 L 0 0 L 0 13681 L 82906 13681 L 82906 0 Z" fill="#2D5967" transform="translate(63783,115869)"/>
  <path d="M 57367 9118 L 47356 0 L 20919 26457 L 10011 15509 L 0 25545 L 20919 45617 L 57367 9118 Z" fill="#2D5967" transform="translate(174024,100359)"/>
  <path d="M 82906 0 L 0 0 L 0 13681 L 82906 13681 L 82906 0 Z" fill="#2D5967" transform="translate(63783,182469)"/>
  <path d="M 37346 0 L 23679 14598 L 9112 0 L 0 10036 L 13668 23723 L 0 37404 L 9112 47440 L 23679 33759 L 37346 47440 L 46458 37404 L 32790 23723 L 46458 10036 L 37346 0 Z" fill="#2D5967" transform="translate(179479,165131)"/>
  <path d="M 82906 0 L 0 0 L 0 13681 L 82906 13681 L 82906 0 Z" fill="#2D5967" transform="translate(63783,244507)"/>
  <path d="M 57367 9118 L 47356 0 L 20919 26457 L 10011 15509 L 0 25545 L 20919 45617 L 57367 9118 Z" fill="#2D5967" transform="translate(174024,228998)"/>
</svg>