<svg xmlns="http://www.w3.org/2000/svg" viewBox="0 0 256674 255247" width="27" height="27">
  <path d="M 139047 250308 C 121651,250347 104486,246330 88912,238585 C 73338,230839 59792,219571 49346,205686 C 43256,201514 37583,196766 32405,191517 C 29864,189181 27535,186628 25436,183888 C 24455,182668 20239,177047 19321,175276 C 18403,173511 18160,173447 17608,172472 L 15959 169783 C 15221,168500 14425,167281 13758,165997 C 13084,164720 12718,163982 12224,162949 L 10819 159953 C 10209,158733 9600,157514 9048,156231 C 8496,154948 8130,153914 7700,152689 L 6359 149577 C 5865,148415 5442,147196 5012,145913 C 4582,144629 4280,143108 3908,141703 L 3055 138405 C 3055,137365 2503,136268 2259,135171 C 2015,134067 1585,131263 1341,129062 L 976 126316 C 976,125462 667,124666 546,123813 C 180,120271 0,116427 0,112577 C 32,82732 11923,54113 33060,33008 C 54197,11903 82861,32 112750,0 C 116363,0 120149,0 123941,552 L 126207 853 L 127548 853 C 129935,853 132379,1469 134767,1957 L 137577 3055 L 138803 3362 C 141062,3908 143083,4396 144918,5005 L 148095 6045 L 149320 6475 L 154948 8547 C 156231,9035 157450,9644 158676,10196 L 159349 10196 L 164547 12699 L 168705 15022 C 170412,15997 172068,16972 173659,18012 L 177689 20759 L 182155 24114 C 184125,25565 185986,27156 187718,28876 C 193032,33624 197883,38854 202214,44507 C 222190,58015 237308,77560 245335,100276 C 253363,122998 253876,147684 246811,170720 C 239740,193750 225456,213912 206058,228241 C 186666,242563 163174,250302 139047,250308 Z" fill="#FFFFFF" transform="translate(3061,3054)"/>
  <path d="M 115811 6103 C 119450,6103 123082,6282 126701,6654 L 130185 7142 C 132566,7444 134889,7752 137218,8239 C 138623,8239 139964,8913 141376,9215 L 147485 10742 L 151643 12211 C 153542,12879 155377,13488 157213,14220 L 161429 16113 L 166504 18558 C 167910,19289 169257,20085 170605,20881 C 171946,21670 173845,22767 175373,23749 C 176900,24724 178003,25520 179287,26431 C 180570,27349 182219,28568 183689,29729 L 188944 34189 C 194276,38957 199127,44231 203440,49936 C 216665,58823 227785,70483 236037,84106 C 244289,97722 249461,112975 251200,128799 C 252939,144623 251207,160633 246112,175713 C 241023,190798 232694,204588 221721,216132 C 210742,227670 197376,236685 182553,242538 C 167730,248396 151803,250950 135890,250032 C 119969,249108 104447,244738 90401,237218 C 76354,229691 64117,219199 54543,206475 C 48460,202368 42807,197665 37667,192428 C 37667,192428 32162,186326 30942,184985 C 29716,183637 25802,178209 24827,176560 C 23845,174910 23178,173871 22382,172530 C 21586,171182 20303,169232 19385,167582 C 18468,165933 17916,164592 17242,163129 C 16568,161660 15529,159767 14798,157996 C 14066,156231 13578,154704 12962,153055 C 12352,151405 11679,149756 11127,148050 C 10581,146336 10151,144199 9664,142306 C 9170,140413 8804,139194 8438,137609 C 8073,136018 7707,132970 7399,130647 C 7399,129364 6911,128080 6789,126803 C 6340,123139 6115,119411 6115,115632 C 6212,86608 17800,58810 38354,38289 C 58900,17768 86749,6199 115811,6103 Z M 115811 0 C 85126,96 55724,12308 34029,33971 C 12327,55634 96,84991 0,115632 C -6,119565 193,123499 610,127413 C 610,128331 610,129242 982,130095 C 1348,130955 982,131013 982,131500 L 982 132784 C 982,134741 1470,136749 1893,138886 C 2323,141023 2445,141151 2753,142306 C 3061,143468 2753,143346 3183,143834 L 3549 145419 C 3914,146946 4280,148415 4768,149878 C 5262,151341 5628,152445 6115,153722 L 6667 155192 L 7213 156719 C 7623,157983 8092,159221 8624,160440 C 9170,161781 9844,163129 10460,164406 L 11191 165811 L 11865 167281 C 12333,168385 12860,169469 13450,170515 C 14188,171856 14984,173139 15779,174480 L 16568 175764 L 17364 177047 C 17980,178087 18526,179062 19199,180037 C 19873,181013 24705,187609 25802,188893 C 28010,191767 30442,194463 33079,196946 C 38200,202156 43808,206860 49833,210992 C 60081,224038 73024,234735 87776,242345 C 102535,249962 118757,254312 135344,255115 C 151932,255910 168500,253138 183920,246978 C 199339,240818 213251,231417 224711,219411 C 236166,207412 244905,193089 250327,177413 C 255750,161743 257732,145085 256141,128581 C 254544,112077 249410,96105 241087,81757 C 232765,67409 221445,55018 207899,45418 C 203517,39708 198601,34414 193224,29607 C 191491,27926 189657,26360 187725,24904 L 183073 21426 L 178915 18622 C 177330,17582 175616,16607 173967,15625 C 172312,14650 171093,13918 169623,13187 L 164239 10562 L 163508 10254 L 159780 8605 C 157880,7809 155929,7142 154030,6468 L 152503 6103 L 149198 4941 C 147183,4331 145162,3844 143083,3356 L 142659 3356 L 141434 2926 L 138437 2259 C 135928,1771 133426,1405 130981,1097 L 129819 1097 L 127246 546 C 123396,0 119546,0 115811,0 Z" fill="#FFFFFF"/>
  <path d="M 24082 160613 C 15701,145700 11318,128875 11363,111775 C 11376,94661 15765,77829 24120,62884 C 32481,47946 44519,35382 59105,26392 C 73690,17396 90336,12275 107462,11511 C 124589,10754 141625,14367 156955,22028 C 166843,23569 176482,26405 185632,30454 C 164624,10350 136473,-597 107385,25 C 78291,641 50635,12775 30498,33752 C 10369,54722 -598,82828 25,111877 C 641,140920 12795,168532 33803,188635 C 29344,179761 26071,170341 24082,160613 Z" fill="#2D5967" transform="translate(3928,3863)"/>
  <path d="M 109454 0 C 87771,64 66596,6532 48590,18596 C 30591,30666 16570,47780 8299,67794 C 27,87808 -2122,109811 2126,131045 C 6373,152272 16820,171772 32150,187077 C 47480,202387 67013,212814 88272,217056 C 109537,221291 131579,219148 151625,210896 C 171665,202637 188811,188636 200894,170662 C 212977,152689 219458,131545 219522,109895 C 219522,80749 207927,52798 187284,32187 C 166641,11582 138644,0 109454,0 Z M 109454 209959 C 89555,209959 70106,204068 53563,193031 C 37020,181988 24129,166299 16519,147947 C 8908,129594 6919,109394 10808,89913 C 14690,70431 24277,52535 38349,38495 C 52427,24448 70356,14887 89870,11024 C 109383,7155 129609,9150 147993,16761 C 166371,24371 182073,37256 193123,53779 C 204166,70303 210057,89727 210044,109587 C 210012,136210 199399,161730 180540,180544 C 161680,199365 136116,209940 109454,209959 Z" fill="#2D5967" transform="translate(32654,31192)"/>
  <path d="M 49897 137487 L 43481 131013 L 29537 144931 L 29537 17460 L 43481 31378 L 49897 24910 L 24949 0 L 0 24910 L 6481 31378 L 20425 17460 L 20425 144931 L 6481 131013 L 0 137487 L 24949 162398 L 49897 137487 Z" fill="#2D5967" transform="translate(117153,60138)"/>
  <path d="M 51238 49814 L 76187 24910 L 51238 0 L 44757 6411 L 58701 20329 L 0 20329 L 0 29428 L 58701 29428 L 44757 43346 L 51238 49814 Z" fill="#2D5967" transform="translate(60960,115869)"/>
  <path d="M 76187 20329 L 17550 20329 L 31429 6411 L 25006 0 L 0 24910 L 25006 49814 L 31429 43346 L 17550 29428 L 76187 29428 L 76187 20329 Z" fill="#2D5967" transform="translate(147062,115869)"/>
</svg>