<svg xmlns="http://www.w3.org/2000/svg" viewBox="0 0 385010 385010" width="40" height="40">
  <path d="M 187526 337904 C 169405,358739 144039,371419 115959,371419 C 64322,371419 22652,329748 22652,278113 C 22652,250030 34426,224665 56167,206547 L 0 150381 L 0 0 L 150379 0 L 373236 222853 L 221946 373235 L 187526 337904 Z" fill="#FFFFFF" transform="translate(5435,4531)"/>
  <path d="M 153100 9059 L 371420 227383 L 227381 371420 L 192050 336089 C 175744,357835 150379,371420 121394,371420 C 72472,371420 32610,331565 32610,282643 C 32610,253654 46201,228289 67942,211982 L 9061 153098 L 9061 9059 L 153100 9059 Z M 157630 0 L 154004 0 L 9061 0 L 0 0 L 0 9059 L 0 153098 L 0 156722 L 2721 159440 L 54357 211076 C 34426,229194 23556,255466 23556,282643 C 23556,337000 67037,380480 121394,380480 C 148569,380480 173935,369610 192961,349679 L 221946 378671 L 228286 385011 L 234632 378671 L 378671 234630 L 385011 228289 L 378671 221947 L 159439 2718 L 157630 0 Z" fill="#FFFFFF"/>
  <path d="M 363270 218324 L 144039 0 L 0 0 L 0 144040 L 51636 195676 C 55262,192958 58887,190241 62506,188429 L 12686 138604 L 12686 13589 L 138604 13589 L 344244 218324 L 218327 343339 L 197491 322503 C 195675,326129 192961,329748 190240,333374 L 218327 361460 L 363270 218324 Z" fill="#2D5967" transform="translate(9054,9054)"/>
  <path d="M 63411 31707 C 63411,14495 48922,0 31705,0 C 14495,0 0,14495 0,31707 C 0,48919 14495,63414 31705,63414 C 48922,63414 63411,48919 63411,31707 Z M 31705 49825 C 21740,49825 13591,41672 13591,31707 C 13591,21742 21740,13589 31705,13589 C 41671,13589 49826,21742 49826,31707 C 49826,41672 41671,49825 31705,49825 Z" fill="#2D5967" transform="translate(69745,69748)"/>
  <path d="M 177561 88779 C 177561,39860 137699,0 88783,0 C 39862,0 0,39860 0,88779 C 0,137696 39862,177558 88783,177558 C 137699,177558 177561,137696 177561,88779 Z M 13591 88779 C 13591,47107 47106,13589 88783,13589 C 130455,13589 163969,47107 163969,88779 C 163969,130452 130455,163967 88783,163967 C 47106,163967 13591,130452 13591,88779 Z" fill="#2D5967" transform="translate(32604,193855)"/>
  <path d="M 79723 47107 L 79723 33518 L 46201 33518 L 46201 0 L 33522 0 L 33522 33518 L 0 33518 L 0 47107 L 33522 47107 L 33522 80628 L 46201 80628 L 46201 47107 L 79723 47107 Z" fill="#2D5967" transform="translate(81526,241869)"/>
</svg>