<svg xmlns="http://www.w3.org/2000/svg" viewBox="0 0 385010 308009" width="40" height="32">
  <path d="M 0 300673 L 0 21047 C 0,15477 2214,10135 6147,6190 C 10081,2245 15420,19 20996,0 L 117159 0 C 120438,6 123678,778 126604,2255 C 129537,3731 132084,5873 134041,8507 L 153638 34908 L 356680 34908 C 359465,34859 362237,35365 364823,36398 C 367416,37429 369771,38967 371760,40920 C 373749,42872 375328,45200 376406,47770 C 377484,50338 378042,53096 378042,55881 L 378042 300673 L 0 300673 Z" fill="#FFFFFF" transform="translate(3664,3666)"/>
  <path d="M 120823 7333 C 123550,7390 126226,8083 128632,9356 C 131045,10630 133117,12448 134696,14667 L 155474 42608 L 360344 42608 C 364939,42608 369347,44431 372594,47677 C 375847,50923 377670,55325 377670,59915 L 377670 300675 L 7341 300675 L 7341 24641 C 7341,20051 9163,15648 12417,12402 C 15664,9157 20072,7333 24666,7333 L 120823 7333 Z M 120823 0 L 24666 0 C 18128,19 11865,2621 7245,7238 C 2624,11855 19,18112 0,24641 L 0 308010 L 385011 308010 L 385011 59548 C 384991,53019 382386,46763 377766,42146 C 373146,37529 366883,34927 360344,34908 L 159215 34908 L 140644 9974 C 138341,6888 135350,4381 131911,2650 C 128472,918 124679,12 120823,0 L 120823 0 Z" fill="#FFFFFF"/>
  <path d="M 353010 34908 L 148133 34908 L 127361 7333 C 125783,5114 123704,3296 121291,2023 C 118885,749 116209,56 113488,0 L 17325 0 C 12725,19 8316,1859 5069,5116 C 1822,8373 0,12784 0,17380 L 0 293339 L 370329 293339 L 370329 52214 C 370329,47625 368506,43223 365259,39976 C 362006,36731 357604,34908 353010,34908 Z M 17325 15400 L 113488 15400 C 113790,15403 114085,15477 114354,15618 C 114624,15758 114855,15960 115028,16207 L 134702 42681 L 115028 68789 C 114855,69035 114624,69237 114354,69378 C 114085,69517 113790,69592 113488,69595 L 15420 69595 L 15420 17380 C 15420,16867 15612,16374 15971,16006 C 16324,15636 16812,15419 17325,15400 Z M 354992 277938 L 15420 277938 L 15420 84996 L 113488 84996 C 116177,84996 118827,84373 121233,83177 C 123640,81981 125738,80244 127361,78102 L 148280 50308 L 353010 50308 C 353517,50308 353998,50509 354357,50866 C 354717,51224 354916,51709 354916,52214 L 354992 277938 Z" fill="#2D5967" transform="translate(7341,7343)"/>
  <path d="M 71349 0 L 0 0 L 0 15400 L 71349 15400 L 71349 0 Z" fill="#2D5967" transform="translate(40157,42247)"/>
  <path d="M 98364 31934 L 84786 31934 L 84786 47334 L 125526 47334 L 125526 6780 L 110113 6780 L 110113 21447 C 94847,8766 75924,1304 56109,156 C 36294,-993 16626,4233 0,15067 C 5095,17608 9818,20840 14021,24674 C 27272,17575 42300,14482 57277,15771 C 72254,17060 86531,22676 98364,31934 Z" fill="#2D5967" transform="translate(141671,85401)"/>
  <path d="M 5210 0 L 0 14663 C 10068,18327 20701,20187 31417,20168 L 33034 20168 L 33034 4768 C 23543,4954 14098,3337 5210,0 Z" fill="#2D5967" transform="translate(161121,250733)"/>
  <path d="M 0 7482 L 3080 22587 C 14188,20450 24814,16299 34426,10344 L 33329 8586 C 29088,6192 25148,3317 21580,0 C 14797,3542 7521,6064 0,7482 Z" fill="#2D5967" transform="translate(207816,246331)"/>
  <path d="M 0 40846 L 15420 40846 L 15420 25664 C 19289,28911 23441,31812 27823,34321 L 35530 21044 C 32649,19343 29877,17457 27239,15400 L 40741 15400 L 40741 0 L 0 0 L 0 40846 Z" fill="#2D5967" transform="translate(118108,223670)"/>
  <path d="M 52997 0 C 42512,0 32265,3108 23544,8929 C 14830,14750 8035,23024 4024,32703 C 20,42382 -1026,53032 1021,63305 C 3074,73578 8131,83012 15549,90414 C 22967,97816 32419,102856 42705,104890 C 52991,106924 63649,105865 73332,101842 C 83015,97826 91287,91028 97100,82311 C 102914,73594 106013,63350 105994,52875 C 105994,45925 104627,39044 101958,32624 C 99295,26204 95393,20372 90472,15461 C 85550,10550 79704,6657 73275,4004 C 66845,1351 59953,-10 52997,0 Z M 52997 90349 C 45580,90335 38335,88124 32181,83998 C 26021,79872 21221,74014 18398,67165 C 15568,60316 14837,52784 16293,45519 C 17750,38255 21324,31584 26573,26351 C 31822,21117 38508,17555 45778,16115 C 53055,14675 60595,15422 67442,18260 C 74295,21099 80147,25902 84267,32063 C 88386,38224 90581,45467 90581,52875 C 90581,57802 89612,62682 87719,67233 C 85832,71784 83060,75918 79570,79399 C 76079,82880 71934,85639 67378,87518 C 62815,89397 57932,90359 52997,90349 Z" fill="#2D5967" transform="translate(219628,145715)"/>
  <path d="M 30833 0 L 20848 9974 L 10934 0 L 0 10853 L 9985 20827 L 0 30801 L 10934 41728 L 20848 31754 L 30833 41728 L 41767 30801 L 31783 20827 L 41767 10853 L 30833 0 Z" fill="#2D5967" transform="translate(252663,178792)"/>
  <path d="M 53002 0 C 42517,0 32262,3108 23548,8929 C 14828,14750 8039,23024 4028,32703 C 18,42382 -1028,53032 1025,63305 C 3079,73578 8129,83012 15547,90415 C 22971,97816 32416,102853 42703,104888 C 52989,106923 63647,105864 73330,101845 C 83013,97826 91284,91028 97105,82311 C 102918,73595 106011,63350 105998,52875 C 105998,45925 104625,39044 101962,32624 C 99299,26204 95391,20372 90470,15461 C 85548,10550 79702,6657 73273,4004 C 66843,1351 59958,-10 53002,0 Z M 53002 15400 C 60439,15386 67715,17578 73908,21698 C 80100,25818 84925,31682 87781,38545 C 90636,45409 91387,52965 89937,60255 C 88487,67546 84906,74243 79651,79498 C 74389,84754 67683,88332 60387,89778 C 53091,91224 45526,90475 38654,87624 C 31787,84773 25916,79949 21790,73763 C 17671,67577 15476,60307 15489,52875 C 15508,42942 19467,33422 26500,26398 C 33527,19374 43056,15420 53002,15400 Z" fill="#2D5967" transform="translate(59530,105234)"/>
  <path d="M 19456 39455 L 48152 10927 L 37288 0 L 19456 17747 L 10941 9240 L 0 20167 L 19456 39455 Z" fill="#2D5967" transform="translate(88450,141465)"/>
</svg>