<svg xmlns="http://www.w3.org/2000/svg" viewBox="0 0 377223 385010" width="40" height="40">
  <path d="M 3 375845 L 3 314425 C -190,288685 9833,263920 27877,245565 C 45928,227209 70517,216764 96255,216522 L 124855 216522 L 124855 181871 C 116853,174012 110481,164641 106124,154303 C 101767,143964 99502,132864 99464,121645 L 99464 65085 C 99464,24934 122385,0 159140,0 L 268592 0 L 268592 121645 C 268451,132791 266115,143801 261707,154041 C 257305,164282 250920,173552 242925,181321 L 242925 216522 L 269606 216522 C 282498,216486 295267,218989 307196,223890 C 319119,228791 329963,235992 339107,245084 C 348251,254174 355508,264977 360475,276875 C 365448,288773 368021,301532 368054,314425 L 368054 375845 L 3 375845 Z" fill="#FFFFFF" transform="translate(4582,4584)"/>
  <path d="M 268503 9167 L 268503 126228 C 268413,137075 266116,147790 261752,157718 C 257389,167648 251042,176583 243111,183980 L 243111 225689 L 274368 225689 C 286650,225666 298809,228060 310167,232737 C 321519,237414 331843,244281 340538,252946 C 349239,261611 356144,271906 360867,283241 C 365590,294576 368034,306730 368053,319009 L 368053 375841 L 9172 375841 L 9172 319009 C 8973,294485 18515,270885 35706,253390 C 52890,235893 76318,225931 100837,225689 L 134025 225689 L 134025 184530 C 126017,177073 119632,168049 115268,158020 C 110899,147990 108640,137168 108633,126228 L 108633 69668 C 108633,31809 129257,9167 163632,9167 L 268503 9167 Z M 277672 0 L 163722 0 C 124124,0 99554,26675 99554,69668 L 99554 126228 C 99605,149462 108710,171761 124951,188380 L 124951 216523 L 100837 216523 C 73886,216765 48129,227693 29225,246907 C 10314,266123 -190,292054 3,319009 L 3 385011 L 377223 385011 L 377223 319009 C 377152,291803 366289,265736 347026,246524 C 327762,227312 301665,216522 274464,216523 L 252371 216523 L 252371 187830 C 268451,171332 277544,149266 277762,126228 L 277762 0 L 277672 0 Z" fill="#FFFFFF"/>
  <path d="M 265294 216523 L 234032 216523 L 234032 174813 C 241969,167417 248309,158481 252679,148552 C 257043,138622 259340,127908 259423,117062 L 259423 0 L 154559 0 C 120088,0 99554,22642 99554,60502 L 99554 117062 C 99560,128001 101819,138823 106189,148853 C 110559,158883 116944,167906 124945,175363 L 124945 216523 L 91674 216523 C 67149,216765 43721,226727 26537,244222 C 9352,261718 -196,285318 3,309842 L 3 366676 L 15583 366676 L 15583 309842 C 15391,289451 23290,269815 37554,255241 C 51819,240668 71281,232348 91674,232107 L 130996 232107 L 179399 284174 L 227891 231740 L 265294 231740 C 285944,231715 305759,239889 320383,254464 C 335013,269040 343253,288826 343304,309475 L 343304 366676 L 358884 366676 L 358884 309842 C 358839,285059 348951,261310 331401,243812 C 313857,226314 290076,216498 265294,216523 Z M 154097 15584 L 243843 15584 C 241828,40243 229816,52252 208730,52252 L 115416 52252 C 117155,33918 125497,15584 154097,15584 Z M 115044 117062 L 115044 68294 L 208730 68294 C 215179,68570 221615,67534 227653,65250 C 233685,62965 239197,59478 243843,55002 L 243843 117062 C 243561,133992 236708,150150 224734,162123 C 212760,174095 196602,180947 179675,181230 C 162657,181230 146333,174469 134301,162435 C 122263,150402 115506,134080 115506,117062 L 115044 117062 Z M 179675 261533 L 140711 219273 L 140711 186822 C 152621,193475 166032,196977 179675,196997 C 193394,196973 206863,193338 218728,186455 L 218728 219273 L 179675 261533 Z" fill="#2C5967" transform="translate(9169,9164)"/>
</svg>