<svg xmlns="http://www.w3.org/2000/svg" viewBox="0 0 385010 385010" width="40" height="40">
  <path d="M 0 304430 L 32918 271487 C 42865,261617 53453,252468 64746,244109 L 98948 218466 C 80275,188802 73216,153299 79056,118741 C 84895,84184 103311,52993 130711,31130 C 158175,9267 192698,-1736 227734,223 C 262770,2181 295881,16966 320649,41750 C 345483,66534 360306,99580 362231,134576 C 364220,169571 353183,204061 331302,231457 C 309420,258852 278170,277232 243583,283084 C 208997,288936 173447,281851 143737,263182 L 118006 297403 C 109600,308600 100424,319180 90542,329068 L 57687 362012 L 0 304430 Z" fill="#FFFFFF" transform="translate(17517,5211)"/>
  <path d="M 226515 9125 C 248140,9131 269507,14199 288822,23924 C 308137,33649 324885,47761 337718,65127 C 350616,82494 359215,102630 362873,123923 C 366594,145216 365183,167071 358894,187736 C 352542,208401 341504,227299 326553,242917 C 311602,258534 293186,270435 272780,277664 C 252439,284893 230622,287250 209189,284545 C 187693,281840 167159,274149 149192,262088 L 142903 270484 L 120894 299778 C 112487,310796 103311,321221 93494,330987 L 64040 360646 L 12898 309633 L 42672 279975 C 52426,270078 62821,260926 73922,252598 L 103248 230605 L 111589 224400 C 97601,203592 89580,179381 88296,154356 C 87013,129332 92595,104434 104402,82324 C 116209,60215 133791,41726 155288,28832 C 176784,15939 201425,9128 226515,9125 Z M 226515 0 C 200462,-1 174923,6873 152400,19926 C 129877,32979 111204,51747 98306,74328 C 85409,96907 78671,122496 78863,148499 C 79056,174502 86114,199994 99333,222392 L 97793 223578 L 68468 245571 C 57046,254173 46266,263598 36191,273770 L 6481 303154 L 0 309633 L 6481 316112 L 57559 367127 L 64040 373602 L 70457 367127 L 100231 337648 C 110242,327561 119546,316795 128144,305435 L 150154 276142 L 151437 274500 C 173833,287751 199372,294835 225424,295029 C 251476,295222 277080,288521 299731,275604 C 322318,262688 341120,244018 354146,221495 C 367236,198972 374038,173399 373974,147380 C 373974,128026 370188,108858 362809,90972 C 355429,73087 344521,56834 330853,43145 C 317121,29456 300886,18599 282983,11196 C 265080,3792 245894,-12 226515,0 Z" fill="#FFFFFF" transform="translate(11036,0)"/>
  <path d="M 38950 62053 L 6417 29564 L 0 10404 L 10459 0 L 68531 58132 L 58136 68444 L 38950 62053 Z" fill="#FFFFFF" transform="translate(5198,310907)"/>
  <path d="M 15593 13232 L 67248 64881 L 62115 69996 L 46586 64792 L 15593 33490 L 10395 17981 L 15593 12867 L 15593 13232 Z M 15593 0 L 9112 6388 L 4043 11589 L 0 15970 L 1797 21260 L 6930 36776 L 7700 38784 L 9112 40337 L 40169 71273 L 41645 72825 L 43763 73461 L 59227 79120 L 64617 80853 L 68596 76932 L 73729 71728 L 80211 65337 L 73729 58862 L 22138 6753 L 15593 365 L 15593 0 Z" fill="#FFFFFF" transform="translate(0,304158)"/>
  <path d="M 213617 276507 C 244482,276489 274513,266158 298833,247157 C 323152,228156 340414,201576 347857,171646 C 355301,141716 352542,110154 339964,81981 C 327387,53809 305763,30643 278491,16169 C 251220,1695 219905,-3256 189490,2104 C 159074,7464 131353,22826 110691,45749 C 90028,68670 77579,97835 75462,128603 C 73281,159371 81494,189975 98755,215548 L 90477 221754 L 61024 243746 C 49923,252097 39464,261247 29710,271123 L 0 300508 L 51142 351519 L 80852 321860 C 90734,312100 99846,301670 108252,290652 L 130262 261359 L 136615 252963 C 159331,268284 186153,276481 213617,276507 Z M 301720 50192 C 319109,67599 330981,89778 335794,113924 C 340606,138070 338104,163097 328735,185842 C 319302,208586 303324,228026 282791,241704 C 262321,255380 238193,262681 213553,262681 C 188912,262681 164849,255380 144315,241704 C 123845,228026 107867,208586 98434,185842 C 89002,163097 86563,138070 91312,113924 C 96124,89778 107996,67599 125450,50192 C 148871,26892 180506,13809 213553,13809 C 246600,13809 278298,26892 301720,50192 Z M 118969 253054 L 96958 282348 C 89002,292848 80403,302788 71099,312100 L 51142 331992 L 19636 300508 L 40041 280614 C 49282,271285 59227,262653 69815,254788 L 99141 232796 L 107418 226590 C 110177,229875 113000,232978 116145,235715 C 119033,238732 122048,241595 125257,244294 L 118969 253054 Z" fill="#2D5967" transform="translate(23934,9127)"/>
  <path d="M 33367 193600 C 49281,209476 69494,220290 91568,224676 C 113578,229062 136422,226822 157148,218240 C 177939,209658 195649,195119 208162,176463 C 220611,157807 227284,135871 227284,113431 C 227284,90992 220611,69057 208162,50401 C 195649,31744 177939,17206 157148,8624 C 136422,42 113578,-2198 91568,2188 C 69494,6574 49281,17388 33367,33263 C 22779,43764 14374,56254 8663,70013 C 2951,83772 0,98528 0,113431 C 0,128335 2951,143092 8663,156851 C 14374,170610 22779,183100 33367,193600 Z M 184163 183745 C 166324,201433 142518,211762 117428,212669 C 92338,213577 67826,204995 48832,188640 C 29773,172284 17646,149359 14822,124445 C 11935,99532 18608,74464 33496,54252 C 36127,59703 40233,64307 45367,67534 C 50436,70762 56404,72484 62436,72504 L 65644 72504 L 78991 113478 C 74307,116166 70457,119970 67633,124544 C 64810,129119 63206,134319 62949,139674 C 62692,145029 63719,150369 66029,155210 C 68339,160050 71804,164238 76168,167395 C 80531,170550 85600,172574 90862,173282 C 96188,173990 101643,173360 106648,171449 C 111652,169538 116145,166407 119609,162339 C 123139,158272 125513,153396 126668,148155 L 169789 148155 C 171137,154067 174089,159486 178388,163795 C 182623,168104 188013,171127 193917,172520 C 190965,176508 187693,180261 184163,183745 Z M 113706 13916 C 122946,13968 132187,15258 141106,17749 L 141106 36001 C 136743,36948 132636,38793 129043,41418 C 125449,44042 122433,47387 120187,51241 L 94327 42936 C 94327,41932 94327,40929 94327,39925 C 94327,35492 93365,31109 91568,27058 L 109856 13643 L 113706 13916 Z M 201424 159379 C 197767,159390 194174,158310 191157,156277 C 188141,154243 185767,151351 184420,147972 C 183522,145776 183008,143417 183072,141037 C 183008,138657 183522,136298 184420,134101 C 184805,133116 185254,132169 185767,131272 C 188334,127230 192377,124347 196997,123242 C 198024,122957 199050,122803 200012,122785 L 201424 122785 C 203349,122762 205275,123070 207071,123698 C 208996,124346 210857,125301 212462,126527 C 210986,138025 207456,149173 202131,159470 L 201424 159379 Z M 204505 109006 L 201424 109006 C 196997,109028 192697,109927 188590,111652 L 172356 89203 C 177618,83279 180506,75656 180506,67758 C 180506,66754 180506,65750 180506,64746 L 197382 59362 C 203606,68820 208098,79291 210665,90298 L 204505 109006 Z M 108124 111470 C 104081,109745 99717,108845 95354,108824 L 92210 108824 L 78862 67849 C 83675,65025 87589,61036 90413,56259 L 116273 64564 C 116273,65568 116273,66572 116273,67575 C 116273,75448 119160,83047 124422,88929 L 108124 111470 Z M 113706 141037 C 113642,143413 113192,145763 112359,147972 C 110755,151882 107802,155114 104081,157115 C 100359,159116 96060,159762 91889,158943 C 87718,158125 83996,155892 81301,152626 C 78606,149360 77130,145264 77130,141037 C 77130,138363 77708,135718 78862,133290 C 79954,130861 81622,128708 83675,126983 C 85472,125490 87589,124346 89836,123607 C 91696,122971 93622,122663 95546,122694 L 96894 122694 C 97857,122705 98883,122859 99846,123150 C 102156,123671 104274,124665 106198,126071 C 108124,127482 109792,129247 111075,131272 C 111652,132124 112166,133043 112487,134010 C 113321,136260 113770,138642 113706,141037 Z M 135524 97325 C 139631,99050 143994,99950 148422,99972 C 152849,99986 157148,99085 161191,97325 L 177682 119592 C 173961,123723 171394,128714 170174,134101 L 126668 134101 C 125513,128741 122946,123776 119289,119683 L 135524 97325 Z M 129941 67758 C 129941,63451 131481,59281 134240,55986 C 136101,53732 138475,51948 141106,50784 C 145534,48984 150475,48984 154902,50784 C 157726,51897 160164,53684 162153,55986 C 164913,59281 166453,63451 166388,67758 C 166388,67758 166388,68671 166388,69218 C 166196,72167 165234,75017 163694,77522 C 161127,81565 157084,84448 152464,85553 C 151052,85919 149576,86103 148165,86100 C 146689,86109 145213,85926 143737,85553 C 139117,84426 135074,81508 132507,77431 C 130967,74953 130005,72136 129813,69218 C 129941,68762 129877,68214 129877,67758 L 129941 67758 Z M 176206 51606 C 173961,47752 170944,44407 167351,41782 C 163757,39158 159651,37314 155287,36366 L 155287 22951 C 166068,27844 175885,34645 184227,43027 C 185703,44488 187179,46039 188527,47681 L 176206 51606 Z M 72254 24228 C 74178,25790 75911,27709 77130,29887 C 78542,31800 79568,33972 80082,36275 C 80402,37166 80659,38081 80788,39012 C 80788,39012 80788,39925 80788,40381 C 80788,44699 79248,48871 76424,52153 C 75783,52980 75013,53743 74243,54434 C 72446,55927 70328,57072 68083,57811 C 66286,58438 64296,58747 62372,58723 L 61088 58723 C 56725,58435 52618,56603 49474,53557 C 46394,50512 44468,46453 44084,42115 C 51719,34653 60575,28488 70200,23864 C 70906,24078 71547,24353 72125,24685 L 72254 24228 Z" fill="#2D5967" transform="translate(123845,33995)"/>
  <path d="M 5198 0 L 0 5112 L 5198 20621 L 36191 51563 L 51720 56761 L 56917 51653 L 5198 0 Z" fill="#2D5967" transform="translate(10395,317386)"/>
</svg>