<svg xmlns="http://www.w3.org/2000/svg" viewBox="0 0 256672 245979" width="27" height="26">
  <path d="M 179387 239682 C 171327,239682 163524,236903 157268,231821 C 151018,226739 146706,219662 145056,211769 L 103533 211769 C 102333,217505 99715,222851 95916,227317 C 92117,231783 87266,235229 81799,237333 C 76332,239438 70422,240144 64615,239380 C 58808,238610 53283,236403 48547,232957 C 43805,229505 40006,224923 37497,219629 C 34982,214335 33833,208496 34154,202644 C 34475,196785 36259,191106 39333,186121 C 42413,181135 46693,176996 51775,174089 L 38967 134645 C 37703,134735 36432,134735 35168,134645 C 29470,134658 23862,133284 18811,130641 C 13768,127997 9443,124166 6202,119475 C 2968,114784 928,109375 248,103716 C -426,98056 280,92319 2314,86993 C 4348,81674 7646,76925 11926,73165 C 16206,69398 21333,66735 26871,65401 C 32409,64066 38184,64104 43709,65503 C 49227,66902 54329,69623 58557,73434 L 92304 49506 C 90263,44976 89211,40073 89204,35107 C 89204,25796 92900,16864 99484,10280 C 106061,3696 114987,0 124292,0 C 133602,0 142528,3696 149106,10280 C 155689,16864 159385,25796 159385,35107 C 159398,40067 158359,44976 156344,49506 L 190148 73672 C 196532,67813 204874,64553 213537,64541 C 222841,64541 231767,68243 238351,74827 C 244928,81411 248624,90343 248624,99654 C 248624,108965 244928,117897 238351,124480 C 231767,131064 222841,134760 213537,134760 C 212311,134760 211022,134760 209796,134760 L 196930 174205 C 203662,178048 208930,184016 211914,191177 C 214897,198332 215424,206276 213421,213764 C 211419,221259 206992,227875 200838,232585 C 194678,237295 187132,239830 179387,239798 L 179387 239682 Z" fill="#FFFFFF" transform="translate(2954,3164)"/>
  <path d="M 127309 5852 C 132873,5865 138346,7322 143184,10081 C 148023,12834 152059,16799 154914,21586 C 157764,26373 159323,31815 159451,37384 C 159573,42954 158251,48460 155614,53369 L 193101 80634 C 196772,76790 201340,73915 206390,72273 C 211440,70624 216824,70258 222054,71201 C 227284,72144 232199,74365 236364,77676 C 240522,80981 243801,85273 245899,90157 C 247997,95040 248857,100372 248395,105666 C 247933,110966 246168,116068 243255,120515 C 240342,124962 236370,128619 231705,131154 C 227033,133695 221804,135036 216491,135055 C 214533,135087 212576,134927 210645,134587 L 196316 178767 C 201328,181186 205627,184869 208790,189444 C 211960,194026 213885,199346 214379,204890 C 214873,210434 213924,216017 211620,221086 C 209316,226149 205736,230531 201231,233804 C 196733,237077 191458,239117 185927,239740 C 180396,240362 174800,239534 169686,237346 C 164572,235158 160112,231674 156743,227246 C 153374,222812 151212,217582 150468,212064 L 104029 212064 C 103278,217582 101109,222812 97734,227240 C 94365,231667 89899,235145 84778,237327 C 79658,239515 74062,240330 68531,239701 C 63000,239072 57725,237025 53227,233746 C 48729,230467 45154,226078 42857,221002 C 40566,215933 39623,210351 40124,204806 C 40631,199262 42568,193943 45738,189367 C 48915,184792 53220,181122 58238,178709 L 43910 134587 C 41984,134946 40021,135126 38064,135113 C 32731,135107 27489,133772 22798,131237 C 18107,128702 14123,125045 11196,120585 C 8270,116132 6487,111018 6024,105705 C 5556,100391 6409,95046 8514,90144 C 10619,85248 13904,80942 18075,77624 C 22253,74307 27181,72080 32430,71137 C 37672,70194 43069,70572 48138,72228 C 53201,73883 57783,76778 61453,80634 L 98940 53369 C 96303,48454 94981,42948 95103,37372 C 95231,31795 96797,26347 99659,21560 C 102515,16774 106564,12808 111408,10055 C 116259,7302 121733,5852 127309,5852 Z M 127309 0 C 117222,0 107545,4004 100403,11140 C 93268,18269 89251,27945 89232,38039 C 89232,42614 90059,47157 91689,51437 L 61806 73088 C 57051,69295 51456,66697 45488,65509 C 39527,64322 33360,64586 27514,66273 C 21675,67961 16317,71022 11902,75205 C 7481,79389 4132,84567 2129,90317 C 121,96060 -476,102207 378,108233 C 1231,114258 3516,119989 7045,124949 C 10568,129909 15226,133952 20636,136736 C 26045,139528 32038,140978 38122,140965 L 39816 140965 L 51513 176078 C 46393,179466 42171,184048 39206,189425 C 36241,194803 34624,200821 34490,206962 C 34355,213103 35702,219186 38430,224686 C 41157,230191 45174,234953 50140,238565 C 55107,242178 60869,244527 66946,245425 C 73016,246323 79215,245733 85016,243712 C 90810,241684 96027,238289 100230,233810 C 104427,229325 107475,223896 109118,217974 L 145963 217974 C 147593,223916 150641,229370 154838,233875 C 159034,238379 164264,241793 170071,243834 C 175885,245868 182096,246471 188192,245579 C 194282,244687 200063,242326 205043,238706 C 210022,235087 214052,230320 216786,224795 C 219519,219276 220873,213180 220738,207020 C 220597,200866 218967,194835 215990,189444 C 213006,184054 208765,179466 203625,176078 L 215323 140965 L 216491 140965 C 221663,141254 226834,140484 231698,138700 C 236556,136922 241003,134163 244763,130602 C 248523,127047 251520,122754 253567,117993 C 255614,113238 256673,108111 256673,102932 C 256673,97754 255614,92627 253567,87866 C 251520,83111 248523,78818 244763,75257 C 241003,71695 236556,68942 231698,67159 C 226834,65381 221663,64611 216491,64894 C 207879,64874 199518,67807 192806,73203 L 162980 51553 C 164565,47266 165374,42730 165380,38154 C 165387,33143 164405,28183 162499,23556 C 160587,18930 157783,14720 154247,11178 C 150711,7636 146515,4825 141888,2907 C 137268,988 132308,0 127309,0 L 127309 0 Z" fill="#FFFFFF"/>
  <path d="M 210459 64861 C 206083,64849 201752,65734 197728,67454 C 193705,69174 190079,71695 187063,74865 L 149576 47600 C 152233,42685 153574,37167 153458,31584 C 153343,26001 151784,20540 148928,15741 C 146073,10947 142017,6969 137166,4209 C 132309,1450 126822,0 121240,0 C 115657,0 110170,1450 105319,4209 C 100468,6969 96413,10947 93557,15741 C 90702,20540 89136,26001 89027,31584 C 88911,37167 90246,42685 92909,47600 L 55364 74865 C 51687,71034 47118,68179 42068,66543 C 37012,64906 31635,64547 26411,65497 C 21194,66446 16286,68673 12134,71984 C 7976,75289 4710,79575 2611,84459 C 519,89335 -340,94661 122,99955 C 584,105243 2342,110344 5249,114784 C 8155,119232 12121,122889 16780,125430 C 21445,127965 26662,129312 31968,129344 C 33932,129357 35889,129178 37814,128818 L 52143 172883 C 47125,175295 42819,178966 39649,183541 C 36473,188110 34535,193429 34035,198980 C 33528,204524 34471,210107 36768,215176 C 39065,220252 42633,224641 47138,227920 C 51636,231193 56904,233246 62436,233875 C 67967,234504 73562,233689 78683,231501 C 83804,229319 88270,225841 91645,221413 C 95020,216986 97189,211756 97940,206237 L 144372 206237 C 145117,211756 147279,216986 150648,221413 C 154017,225847 158476,229325 163591,231520 C 168705,233708 174307,234536 179832,233913 C 185363,233291 190638,231250 195142,227978 C 199640,224705 203221,220322 205525,215253 C 207828,210190 208778,204608 208284,199063 C 207790,193519 205865,188193 202701,183618 C 199531,179036 195232,175360 190221,172940 L 204607 128818 C 206539,129178 208496,129357 210459,129344 C 214842,129614 219237,128972 223370,127477 C 227502,125982 231288,123653 234484,120637 C 237686,117621 240233,113982 241979,109946 C 243724,105910 244623,101560 244623,97164 C 244623,92762 243724,88411 241979,84375 C 240233,80339 237686,76701 234484,73685 C 231288,70675 227502,68346 223370,66844 C 219237,65349 214842,64714 210459,64977 L 210459 64861 Z M 176302 225546 C 171676,225546 167152,224172 163308,221606 C 159458,219033 156462,215375 154690,211101 C 152919,206821 152457,202118 153362,197575 C 154261,193031 156487,188867 159760,185588 C 163032,182315 167203,180089 171740,179184 C 176277,178279 180980,178748 185254,180519 C 189528,182290 193185,185286 195752,189136 C 198325,192987 199698,197510 199698,202143 C 199698,208349 197234,214303 192845,218693 C 188456,223082 182507,225546 176302,225546 Z M 97998 197632 C 97035,190369 93609,183656 88289,178619 L 105833 154101 C 110530,156597 115772,157899 121098,157906 C 126399,157919 131628,156616 136300,154101 L 153843 178619 C 148511,183650 145059,190362 144077,197632 L 97998 197632 Z M 42498 201964 C 42498,197337 43865,192813 46438,188963 C 49011,185113 52663,182110 56936,180339 C 61210,178568 65913,178106 70450,179011 C 74993,179909 79158,182142 82430,185415 C 85703,188687 87930,192858 88834,197401 C 89733,201938 89271,206648 87500,210922 C 85729,215202 82732,218853 78882,221426 C 75038,223999 70514,225372 65888,225372 C 59683,225372 53734,222908 49345,218519 C 44962,214130 42498,208175 42498,201964 Z M 32084 73524 C 36710,73524 41234,74891 45084,77464 C 48928,80037 51925,83695 53696,87969 C 55467,92249 55929,96952 55030,101495 C 54126,106032 51899,110203 48626,113482 C 45354,116755 41189,118981 36653,119886 C 32110,120791 27406,120322 23132,118551 C 18859,116780 15208,113784 12634,109933 C 10068,106083 8695,101560 8695,96926 C 8695,90721 11158,84767 15548,80377 C 19930,75988 25879,73524 32084,73524 Z M 97645 32559 C 97645,27932 99018,23402 101585,19559 C 104158,15708 107809,12705 112083,10934 C 116363,9163 121066,8701 125603,9600 C 130140,10505 134304,12738 137577,16010 C 140849,19283 143076,23454 143981,27990 C 144886,32533 144417,37237 142652,41517 C 140881,45797 137878,49448 134035,52022 C 130185,54595 125667,55968 121034,55968 C 117941,55968 114874,55352 112018,54158 C 109163,52965 106571,51213 104389,49006 C 102213,46804 100500,44186 99339,41312 C 98184,38443 97606,35363 97645,32264 L 97645 32559 Z M 178702 102779 L 150340 111852 C 148023,107007 144552,102817 140220,99654 C 135896,96484 130852,94443 125539,93712 L 125539 64451 C 132783,63488 139476,60055 144488,54736 L 182090 82007 C 179549,86692 178221,91947 178234,97279 C 178247,99102 178401,100924 178702,102721 L 178702 102779 Z M 144841 125777 C 144841,130403 143467,134933 140894,138784 C 138328,142627 134676,145630 130396,147401 C 126123,149172 121419,149634 116882,148736 C 112346,147831 108175,145605 104909,142326 C 101636,139053 99403,134882 98505,130345 C 97600,125802 98062,121099 99833,116819 C 101604,112545 104601,108888 108451,106314 C 112294,103741 116818,102368 121445,102368 C 127643,102368 133579,104826 137968,109208 C 142351,113585 144821,119520 144841,125719 L 144841 125777 Z M 116882 64451 L 116882 93712 C 111588,94430 106551,96465 102233,99622 C 97914,102779 94449,106962 92145,111794 L 63725 102721 C 64091,100789 64264,98832 64251,96869 C 64200,91678 62898,86583 60453,82007 L 97998 54678 C 102984,60010 109657,63456 116882,64451 Z M 61094 111262 L 89515 120335 C 89155,122267 88976,124224 88988,126187 C 88969,130570 89848,134914 91581,138938 C 93313,142967 95854,146593 99050,149596 L 81506 174172 C 76835,171631 71612,170303 66298,170310 C 64335,170297 62378,170470 60453,170836 L 46066 126130 C 52624,123017 57944,117781 61152,111262 L 61094 111262 Z M 176302 169783 C 171002,169790 165779,171099 161095,173582 L 143551 149128 C 146734,146118 149268,142486 151001,138463 C 152733,134439 153619,130102 153612,125719 C 153625,123755 153452,121798 153086,119867 L 181218 110915 C 184400,117531 189714,122889 196304,126130 L 181975 170252 C 180101,169925 178202,169764 176302,169783 Z M 187063 97106 C 187063,92473 188437,87949 191003,84099 C 193577,80249 197228,77252 201501,75481 C 205781,73704 210485,73242 215022,74147 C 219558,75051 223729,77278 226995,80551 C 230268,83823 232495,87994 233399,92537 C 234304,97080 233842,101784 232071,106064 C 230300,110338 227297,113995 223453,116568 C 219603,119135 215086,120508 210459,120508 C 204254,120508 198299,118044 193917,113655 C 189528,109266 187063,103311 187063,97106 Z" fill="#AA643B" transform="translate(6038,5762)"/>
</svg>