<svg xmlns="http://www.w3.org/2000/svg" viewBox="0 0 385010 371735" width="40" height="39">
  <path d="M 0 362883 L 0 238972 L 13283 238972 L 13283 19472 C 13283,8851 22138,0 32726,0 L 357546 0 C 368198,0 377054,8851 377054,19472 L 377054 344294 C 377054,354920 368198,363769 357546,363769 L 0 363769 L 0 362883 Z" fill="#FFFFFF" transform="translate(4428,4424)"/>
  <path d="M 361075 8851 C 369097,8851 376156,15047 376156,23898 L 376156 348725 C 376156,356688 369931,363772 361075,363772 L 8855 363772 L 8855 247823 L 22138 247823 L 22138 23898 C 22138,15047 28298,8851 36255,8851 L 361075 8851 Z M 361075 0 L 36255 0 C 23871,0 13283,10621 13283,23898 L 13283 238972 L 8855 238972 L 0 238972 L 0 247823 L 0 362887 L 0 371735 L 8855 371735 L 361075 371735 C 374359,371735 385011,361116 385011,347839 L 385011 23898 C 385011,10621 374359,0 361075,0 Z" fill="#FFFFFF"/>
  <path d="M 338937 0 L 14117 0 C 6160,0 0,6196 0,15047 L 0 230122 L 13283 230122 L 13283 15047 C 13283,14161 13283,13276 14117,13276 L 338937 13276 C 339836,13276 340734,14161 340734,15047 L 340734 339873 C 340734,340759 339836,341644 338937,341644 L 169918 341644 L 169918 354035 L 338937 354035 C 346958,354035 354017,347837 354017,338988 L 354017 15047 C 354017,6196 346958,0 338937,0 Z" fill="#2D5967" transform="translate(22138,8851)"/>
  <path d="M 136294 0 L 0 0 L 0 2655 L 0 9736 L 0 12391 L 123011 12391 L 123011 65496 L 0 65496 L 0 77889 L 136294 77889 L 136294 0 Z" fill="#2D5967" transform="translate(192056,235434)"/>
  <path d="M 9754 19471 C 15144,19471 19507,15112 19507,9736 C 19507,4359 15144,0 9754,0 C 4364,0 0,4359 0,9736 C 0,15112 4364,19471 9754,19471 Z" fill="#2D5967" transform="translate(276117,264639)"/>
  <path d="M 78799 0 L 0 0 L 0 78772 L 78799 78772 L 78799 0 Z M 65516 65496 L 13283 65496 L 13283 12391 L 65516 12391 L 65516 65496 Z" fill="#2D5967" transform="translate(70778,58416)"/>
  <path d="M 78735 0 L 0 0 L 0 78772 L 78735 78772 L 78735 0 Z M 65451 65496 L 13219 65496 L 13219 12391 L 65451 12391 L 65451 65496 Z" fill="#2D5967" transform="translate(159331,58416)"/>
  <path d="M 78799 0 L 0 0 L 0 78773 L 78799 78773 L 78799 0 Z M 65516 65496 L 13283 65496 L 13283 12392 L 65516 12392 L 65516 65496 Z" fill="#2D5967" transform="translate(70778,146923)"/>
  <path d="M 78735 0 L 0 0 L 0 78773 L 78735 78773 L 78735 0 Z M 65451 65496 L 13219 65496 L 13219 12392 L 65451 12392 L 65451 65496 Z" fill="#2D5967" transform="translate(159331,146923)"/>
  <path d="M 78735 0 L 0 0 L 0 78772 L 78735 78772 L 78735 0 Z M 65516 65496 L 13283 65496 L 13283 12391 L 65516 12391 L 65516 65496 Z" fill="#2D5967" transform="translate(247819,58416)"/>
  <path d="M 78735 0 L 0 0 L 0 78773 L 78735 78773 L 78735 0 Z M 65516 65496 L 13283 65496 L 13283 12392 L 65516 12392 L 65516 65496 Z" fill="#2D5967" transform="translate(247819,146923)"/>
  <path d="M 173447 0 L 75206 0 L 0 0 L 0 115057 L 27400 115057 L 173447 115057 L 173447 0 Z M 27400 101787 L 13283 101787 L 13283 100016 L 13283 13276 L 161063 13276 L 161063 101787 L 27400 101787 Z" fill="#2D5967" transform="translate(8856,247823)"/>
  <path d="M 21240 46025 C 26565,46025 31892,45139 36319,43368 L 36319 22127 L 20341 22127 L 20341 26550 L 27464 29206 L 27464 38062 C 25667,38062 23934,38062 22138,38062 C 17710,38062 14181,37176 12384,34519 C 10652,31863 8855,28321 8855,23012 C 8855,18587 9753,15047 12384,12392 C 15080,9736 18609,8851 23037,8851 C 24769,8851 26565,8851 27464,8851 C 29197,8851 30993,9736 32726,10621 L 32726 2655 C 30993,1770 29197,1770 27464,886 C 26565,0 24769,0 23037,0 C 17710,0 14181,886 10652,2655 C 7058,4426 4428,7081 2631,10621 C 898,14161 0,17702 0,23012 C 0,30977 1797,36290 5326,40712 C 8855,44254 14181,46025 21240,46025 Z" fill="#2D5967" transform="translate(37154,283225)"/>
  <path d="M 0 0 L 0 44252 L 9754 44252 L 9754 30090 L 15914 30090 C 21240,30090 25667,29205 28298,26555 C 30994,23898 32726,20357 32726,15047 C 32726,9736 30994,6195 28298,3541 C 25667,885 21240,0 15914,0 L 0 0 Z M 14182 7966 C 17711,7966 19443,8851 21240,9736 C 23037,10621 23037,12392 23037,15047 C 23037,17701 22139,19472 21240,20357 C 19443,21242 17711,22127 14182,22127 L 9754 22127 L 9754 7966 L 14182 7966 Z" fill="#2D5967" transform="translate(80532,284111)"/>
  <path d="M 37218 23011 L 37218 0 L 27464 0 L 27464 23011 C 27464,27439 26566,30975 25667,33631 C 23935,35402 22138,37173 18609,37173 C 15978,37173 13283,36288 11551,33631 C 9754,31860 9754,28325 9754,23011 L 9754 0 L 0 0 L 0 23011 C 0,30096 1797,36288 4427,39830 C 7123,43372 12384,45137 18609,45137 C 24769,45137 29197,43372 32790,39830 C 35421,35402 37218,30096 37218,23011 Z" fill="#2D5967" transform="translate(117685,284998)"/>
</svg>