<svg xmlns="http://www.w3.org/2000/svg" viewBox="0 0 385010 336886" width="40" height="35">
  <path d="M 95354 327708 L 95354 313019 L 114605 303837 L 130198 303837 L 132957 281808 L 0 281808 L 0 0 L 375834 0 L 375834 281808 L 245701 281808 L 248460 303837 L 263989 303837 L 282341 313019 L 282341 327708 L 95354 327708 Z" fill="#FFFFFF" transform="translate(4556,4591)"/>
  <path d="M 375834 9179 L 375834 281810 L 244738 281810 L 249358 313016 L 267646 313016 L 283240 320363 L 283240 327704 L 267646 327704 L 120059 327704 L 104466 327704 L 104466 320363 L 120059 313016 L 138411 313016 L 142967 281810 L 9176 281810 L 9176 9179 L 375834 9179 Z M 385011 0 L 375834 0 L 9176 0 L 0 0 L 0 9179 L 0 281810 L 0 290987 L 9176 290987 L 131994 290987 L 130133 303840 L 120059 303840 L 118262 303840 L 116402 304757 L 100808 312098 L 95354 314851 L 95354 320363 L 95354 327704 L 95354 336886 L 104466 336886 L 120059 336886 L 267646 336886 L 283240 336886 L 292415 336886 L 292415 327704 L 292415 320363 L 292415 314851 L 286897 312098 L 271304 304757 L 269507 303840 L 267646 303840 L 257572 303840 L 255775 290987 L 375834 290987 L 385011 290987 L 385011 281810 L 385011 9179 L 385011 0 Z" fill="#FFFFFF"/>
  <path d="M 366658 0 L 0 0 L 0 272627 L 133791 272627 L 129235 303838 L 110883 303838 L 95290 311179 L 95290 318526 L 110883 318526 L 258471 318526 L 274064 318526 L 274064 311179 L 258471 303838 L 240183 303838 L 235563 272627 L 366658 272627 L 366658 0 Z M 144829 303838 L 149384 272627 L 219970 272627 L 224589 303838 L 144829 303838 Z M 351066 257024 L 15593 257024 L 15593 241418 L 351964 241418 L 351964 257024 L 351066 257024 Z M 351066 226732 L 15593 226732 L 15593 15605 L 351964 15605 L 351964 226732 L 351066 226732 Z" fill="#2D5967" transform="translate(9176,9178)"/>
  <path d="M 135652 116579 L 135652 25703 L 68725 0 L 0 25703 L 0 116579 L 68725 142281 L 135652 116579 Z M 120060 106481 L 76039 123922 L 76039 61502 L 120060 43144 L 120060 106481 Z M 61410 123922 L 15593 106481 L 15593 43144 L 61410 61502 L 61410 123922 Z M 28427 31210 L 68725 16523 L 107226 31210 L 68725 47733 L 28427 31210 Z" fill="#2D5967" transform="translate(124679,63338)"/>
</svg>