<svg xmlns="http://www.w3.org/2000/svg" viewBox="0 0 385010 385010" width="40" height="40">
  <path d="M 20213 375845 C 9176,375845 0,366675 0,355677 L 0 20167 C 0,9166 9176,0 20213,0 L 356584 0 C 367621,0 376797,9166 376797,20167 L 376797 305258 C 376797,344678 344713,375845 306212,375845 L 20213 375845 Z" fill="#FFFFFF" transform="translate(4556,4584)"/>
  <path d="M 360242 9167 C 369417,9167 375834,15584 375834,24750 L 375834 309842 C 375834,346510 346509,375841 309805,375841 L 24769 375841 C 15592,375841 9176,369424 9176,360261 L 9176 24750 C 9176,15584 15592,9167 24769,9167 L 360242 9167 Z M 360242 0 L 24769 0 C 10973,0 0,11000 0,24750 L 0 361179 C 0,374012 10973,385011 24769,385011 L 309805 385011 C 351065,385011 385011,351091 385011,309842 L 385011 24750 C 385011,11000 373973,0 360242,0 Z" fill="#FFFFFF"/>
  <path d="M 244738 352928 L 15593 352928 C 14631,352928 13732,352011 13732,351093 L 13732 15584 C 13732,14667 14631,13751 15593,13751 L 351964 13751 C 352926,13751 353825,14667 353825,15584 L 353825 245673 C 359343,251174 363900,256674 367557,263091 L 367557 15584 C 366658,6417 360242,0 351066,0 L 15593 0 C 6417,0 0,6417 0,15584 L 0 352011 C 0,360263 6417,366680 15593,366680 L 263091 366680 C 255711,363009 250257,358428 244738,352928 Z" fill="#2D5967" transform="translate(9176,9167)"/>
  <path d="M 0 81588 L 175052 81588 C 174153,77002 173255,72419 173255,67836 L 12834 67836 L 12834 13751 L 193404 13751 C 198922,8250 204376,3667 210793,0 L 0 0 L 0 81588 Z" fill="#2D5967" transform="translate(60511,242925)"/>
  <path d="M 0 80669 L 81559 80669 L 81559 0 L 0 0 L 0 80669 Z M 12834 12834 L 67826 12834 L 67826 67835 L 12834 67835 L 12834 12834 Z" fill="#2D5967" transform="translate(60511,60505)"/>
  <path d="M 0 80669 L 81622 80669 L 81622 0 L 0 0 L 0 80669 Z M 12834 12834 L 67826 12834 L 67826 67835 L 12834 67835 L 12834 12834 Z" fill="#2D5967" transform="translate(152143,60505)"/>
  <path d="M 0 81586 L 81559 81586 L 81559 0 L 0 0 L 0 81586 Z M 12834 13750 L 67826 13750 L 67826 68752 L 12834 68752 L 12834 13750 Z" fill="#2D5967" transform="translate(60511,151256)"/>
  <path d="M 0 81586 L 81622 81586 L 81622 0 L 0 0 L 0 81586 Z M 12834 13750 L 67826 13750 L 67826 68752 L 12834 68752 L 12834 13750 Z" fill="#2D5967" transform="translate(152143,151256)"/>
  <path d="M 0 80669 L 81558 80669 L 81558 0 L 0 0 L 0 80669 Z M 12834 12834 L 67826 12834 L 67826 67835 L 12834 67835 L 12834 12834 Z" fill="#2D5967" transform="translate(243840,60505)"/>
  <path d="M 81558 0 L 0 0 L 0 81586 L 65965 81586 L 81558 81586 L 81558 0 Z M 68724 67836 L 13732 67836 L 13732 12834 L 68724 12834 L 68724 67836 Z" fill="#2D5967" transform="translate(242942,152174)"/>
  <path d="M 131994 66002 C 131994,29334 102669,0 65965,0 C 29325,0 0,29334 0,66002 C 0,102666 29325,132004 65965,132004 C 102669,132004 131994,102666 131994,66002 Z M 12834 66002 C 12834,36668 36640,13750 65067,13750 C 93493,13750 117299,37584 117299,66002 C 117299,94421 93493,118253 65067,118253 C 36640,118253 12834,94421 12834,66002 Z" fill="#2D5967" transform="translate(243840,243843)"/>
  <path d="M 68724 55002 C 69623,53167 70585,51332 70585,50418 L 80659 49501 L 80659 32084 L 70585 31167 C 69623,29334 69623,27501 68724,26584 L 75141 19251 L 62307 5500 L 54992 11917 C 53131,11000 51335,10083 50372,10083 L 49474 0 L 32084 0 L 31122 10083 C 29325,11000 27463,11000 26566,11917 L 17389 5500 L 5454 17417 L 11871 24750 C 10973,26584 10074,28418 10074,29334 L 0 30251 L 0 47668 L 10074 48584 C 10973,50418 10973,52249 11871,53167 L 5454 62336 L 17389 74252 L 24705 67836 C 26566,68753 28426,69671 29325,69671 L 30223 79752 L 47677 79752 L 48575 69671 C 50372,68753 52233,68753 53131,67836 L 60510 74252 L 72381 62336 L 68724 55002 Z M 22908 40334 C 22908,31167 31122,22917 40297,22917 C 49474,22917 57752,31167 57752,40334 C 57752,49501 49474,57748 40297,57748 C 30223,57748 22908,49501 22908,40334 Z" fill="#2D5967" transform="translate(269508,269510)"/>
</svg>