<svg xmlns="http://www.w3.org/2000/svg" viewBox="0 0 385010 381804" width="40" height="40">
  <path d="M 234729 372713 L 234729 361259 L 234023 361259 L 234023 372713 L 211948 372713 L 211948 361259 L 211243 361259 L 211243 372713 L 189105 372713 L 189105 361259 L 188398 361259 L 188398 372713 L 166325 372713 L 166325 361259 L 165619 361259 L 165619 372713 L 143417 372713 L 143417 361259 L 84061 361259 L 84061 372713 L 13091 372713 L 13091 132995 L 0 132995 L 0 110905 L 14631 110905 L 14631 19181 C 14631,14086 16684,9208 20277,5613 C 23935,2018 28812,0 33881,0 L 356649 0 C 361717,0 366594,2018 370252,5613 C 373845,9208 375899,14086 375899,19181 L 375899 342079 C 375899,344600 375385,347103 374423,349439 C 373461,351768 372048,353892 370252,355670 C 368455,357453 366338,358865 364027,359821 C 361653,360784 359151,361271 356649,361259 L 256674 361259 L 256674 372713 L 234729 372713 Z" fill="#FFFFFF" transform="translate(4556,4543)"/>
  <path d="M 361204 9090 C 365118,9090 368840,10630 371600,13372 C 374358,16114 375898,19836 375898,23726 L 375898 346621 C 375898,350510 374358,354232 371600,356978 C 368840,359718 365118,361258 361204,361258 L 256866 361258 L 256866 372712 L 243840 372712 L 243840 361258 L 234022 361258 L 234022 372712 L 221060 372712 L 221060 361258 L 211243 361258 L 211243 372712 L 198216 372712 L 198216 361258 L 188398 361258 L 188398 372712 L 175436 372712 L 175436 361258 L 165619 361258 L 165619 372712 L 152528 372712 L 152528 361258 L 84060 361258 L 84060 372712 L 22202 372712 L 22202 132994 L 9112 132994 L 9112 119995 L 23742 119995 L 23742 23726 C 23742,19836 25282,16114 28042,13372 C 30801,10630 34587,9090 38437,9090 L 361204 9090 Z M 361204 0 L 38437 0 C 32148,0 26116,2497 21625,6944 C 17197,11391 14631,17425 14631,23726 L 14631 110904 L 0 110904 L 0 142085 L 13026 142085 L 13026 381805 L 93044 381805 L 93044 370351 L 143352 370351 L 143352 381805 L 265914 381805 L 265914 370351 L 361204 370351 C 364348,370357 367428,369754 370316,368567 C 373204,367380 375834,365634 378016,363433 C 380262,361226 381995,358608 383214,355720 C 384369,352839 385011,349746 385011,346621 L 385011 23726 C 385011,20603 384369,17510 383214,14625 C 381995,11741 380262,9121 378016,6917 C 375834,4713 373204,2967 370316,1780 C 367428,593 364348,-12 361204,0 Z" fill="#FFFFFF"/>
  <path d="M 337462 0 L 14695 0 C 10845,-1 7059,1539 4300,4281 C 1540,7023 0,10746 0,14636 L 0 99450 L 13091 99450 L 13091 14636 C 13091,14209 13283,13805 13540,13503 C 13861,13201 14246,13021 14695,12999 L 337462 12999 C 337911,13021 338297,13201 338617,13503 C 338874,13805 339067,14209 339067,14636 L 339067 337528 C 339067,337965 338938,338382 338617,338690 C 338297,338998 337911,339165 337462,339165 L 275540 339165 L 275540 352165 L 337462 352165 C 341312,352165 345098,350625 347858,347885 C 350616,345145 352156,341424 352156,337528 L 352156 14636 C 352156,10746 350616,7023 347858,4281 C 345098,1539 341312,-1 337462,0 Z" fill="#2D5967" transform="translate(23742,9086)"/>
  <path d="M 29389 0 L 0 0 L 0 13090 L 16299 13090 L 16299 65270 L 0 65270 L 0 78269 L 29389 78269 L 29389 0 Z" fill="#2D5967" transform="translate(299282,234083)"/>
  <path d="M 0 0 L 0 50535 L 11358 50535 L 13026 50535 L 13026 13088 L 65195 13088 L 65195 63623 L 78286 63623 L 78286 0 L 0 0 Z" fill="#2D5967" transform="translate(72703,57986)"/>
  <path d="M 0 0 L 0 63623 L 13090 63623 L 13090 13088 L 65259 13088 L 65259 63623 L 78285 63623 L 78285 0 L 0 0 Z" fill="#2D5967" transform="translate(160678,57986)"/>
  <path d="M 78221 0 L 0 0 L 0 63633 L 12962 63633 L 12962 13090 L 65131 13090 L 65131 65270 L 50501 65270 L 50501 74997 L 50501 78269 L 78221 78269 L 78221 0 Z" fill="#2D5967" transform="translate(248781,57986)"/>
  <path d="M 27720 0 L 0 0 L 0 12999 L 14631 12999 L 14631 65179 L 0 65179 L 0 78269 L 27720 78269 L 27720 0 Z" fill="#2D5967" transform="translate(299282,146080)"/>
  <path d="M 16299 0 L 0 0 L 0 16269 L 16299 16269 L 16299 0 Z" fill="#2D5967" transform="translate(44982,188441)"/>
  <path d="M 16299 0 L 0 0 L 0 16269 L 16299 16269 L 16299 0 Z" fill="#2D5967" transform="translate(44982,279806)"/>
  <path d="M 278747 13000 L 74948 13000 L 74948 0 L 0 0 L 0 13000 L 12961 13000 L 12961 252720 L 74948 252720 L 74948 239719 L 97793 239719 L 97793 229901 L 143224 229901 L 143224 252720 L 156314 252720 L 156314 229901 L 166324 229901 L 166324 252720 L 179286 252720 L 179286 229901 L 189104 229901 L 189104 252720 L 202131 252720 L 202131 229901 L 211948 229901 L 211948 252720 L 224910 252720 L 224910 229901 L 234728 229901 L 234728 252720 L 247754 252720 L 247754 229901 L 278747 229901 L 278747 13000 Z M 229851 26090 L 265721 26090 L 265721 216991 L 84766 216991 L 84766 226808 L 74948 226808 L 74948 26090 L 229466 26090 L 229851 26090 Z M 26052 13000 L 62436 13000 L 62436 239719 L 26052 239719 L 26052 13000 Z" fill="#2D5967" transform="translate(9112,119992)"/>
  <path d="M 0 0 L 0 79906 L 13026 79906 L 13026 92996 L 0 92996 L 0 171446 L 84702 171446 L 84702 119086 L 94520 119086 L 94520 171446 L 172806 171446 L 172806 128812 L 144956 128812 C 143545,126317 141299,124367 138668,123264 C 135973,122161 133021,121967 130262,122713 C 127503,123459 125000,125103 123267,127389 C 121535,129675 120573,132476 120573,135358 C 120573,138239 121535,141040 123267,143327 C 125000,145613 127503,147256 130262,148002 C 133021,148748 135973,148554 138668,147451 C 141299,146349 143545,144398 144956,141903 L 159780 141903 L 159780 158175 L 107611 158175 L 107611 105995 L 84702 105995 L 84702 92996 L 71741 92996 L 71741 79906 L 94520 79906 L 94520 19636 L 103632 19636 L 103632 89632 L 125641 89632 L 125641 96178 L 172869 96178 L 172869 70178 L 125641 70178 L 125641 76633 L 116530 76633 L 116530 53815 L 125641 53815 L 125641 60361 L 172869 60361 L 172869 34271 L 125641 34271 L 125641 40816 L 116530 40816 L 116530 19636 L 125641 19636 L 125641 25998 L 172869 25998 L 172869 0 L 125641 0 L 125641 6545 L 94520 6545 L 94520 0 L 0 0 Z M 26116 79906 L 35806 79906 L 35806 92996 L 26116 92996 L 26116 79906 Z M 71548 158175 L 13026 158175 L 13026 105995 L 71741 105995 L 71548 158175 Z M 58457 92996 L 48896 92996 L 48896 79906 L 58650 79906 L 58457 92996 Z M 81366 13090 L 81366 66906 L 13026 66906 L 13026 13090 L 81366 13090 Z" fill="#2D5967" transform="translate(93878,155815)"/>
</svg>