<svg xmlns="http://www.w3.org/2000/svg" viewBox="0 0 385010 385010" width="40" height="40">
  <path d="M 196760 321605 C 192031,321605 186358,320687 180679,319770 C 165542,316093 148518,304151 148518,293121 L 148518 216856 L 99326 216856 L 138110 254530 L 101220 289444 L 0 191127 L 101220 92807 L 138110 128643 L 99326 166317 L 148518 166317 L 148518 104752 L 105949 64322 C 97433,60646 92704,55133 92704,48701 L 92704 25729 C 92704,23891 92704,22053 93654,21135 C 96490,11946 109735,5513 133381,1838 L 141896 0 L 138110 7351 C 137167,10108 136217,12864 136217,15621 C 136217,16540 136217,21135 136217,21135 L 134330 22972 C 130544,23891 126758,24810 123922,25729 L 126758 26647 C 127708,26647 129595,27566 130544,27566 L 135273 28485 C 147568,31242 166492,33079 182572,33079 C 194867,33079 210004,31242 221356,29404 L 226085 28485 C 232707,27566 238386,26647 242165,24810 C 239329,23891 235549,22972 231764,22972 L 225141 22053 L 227978 16540 C 229871,13783 230814,10108 230814,7351 L 230814 1838 L 236493 2757 C 261088,7351 273383,14702 273383,25729 C 273383,26647 273383,28485 272440,29404 L 272440 49620 C 272440,56052 268654,60646 261088,65241 L 220412 104752 L 220412 166317 L 272440 166317 L 233657 128643 L 270547 92807 L 371766 191127 L 270547 289444 L 233657 253611 L 272440 215937 L 220412 215937 L 220412 305986 C 220412,309663 218519,313340 214733,316093 C 210954,319770 204332,321605 196760,321605 Z" fill="#FFFFFF" transform="translate(6622,59728)"/>
  <path d="M 141895 11945 C 140003,15621 140003,18377 140003,22053 C 140003,22972 140003,22972 140003,23891 C 129601,25728 121086,28485 118249,30323 C 120136,32161 124865,33079 130544,34917 L 132437 34917 C 133381,34917 135273,35836 137166,35836 C 148518,38593 171220,42268 190137,42268 C 205275,42268 223248,39512 234600,37674 C 248787,35836 258252,32161 262032,29404 C 259196,27566 250680,24809 239329,22053 C 241222,18377 242172,14702 242172,10107 C 259196,13783 274333,19296 274333,28485 C 274333,29404 274333,30323 273383,31242 L 273383 52376 C 273383,56970 270547,60646 263925,64321 L 221355 106590 L 221355 174587 L 289470 174587 L 245951 132319 L 254466 124048 L 276226 102914 L 370823 194802 L 276226 286687 L 255409 269233 L 246901 260961 L 290413 218693 L 222305 218693 L 222305 313336 C 222305,316096 221355,317931 218519,319772 C 215683,322525 210004,323443 203382,323443 C 198653,323443 193923,322525 188251,321608 C 174057,318848 159869,306907 159869,299553 L 159869 218693 L 94597 218693 L 138110 260961 L 129601 269233 L 107842 290364 L 13245 198477 L 107842 106590 L 129601 127724 L 138110 135994 L 94597 177344 L 159869 177344 L 159869 109346 L 115407 67078 C 107842,63402 105005,59727 105005,55132 L 105005 32161 C 105005,31242 105005,30323 105948,29404 C 107842,20215 123922,14702 141895,11945 Z M 157976 0 L 140952 2757 C 115407,7350 101219,13783 97433,24809 C 96490,26647 95540,29404 95540,31242 L 95540 54214 C 95540,62483 100276,68916 110678,73510 L 151354 112103 L 151354 133237 L 145682 127724 L 137166 119454 L 115407 98320 L 108785 91888 L 102163 98320 L 7566 190208 L 0 197559 L 6622 203991 L 101219 295876 L 107842 302312 L 114464 295876 L 136223 274745 L 144732 266475 L 150411 260961 L 150411 298635 C 150411,313336 171220,327120 186358,329879 C 192031,330797 197709,331714 203382,331714 C 212847,331714 219462,329879 225141,326202 C 229871,322525 231763,317931 231763,312419 L 231763 226963 L 267710 226963 L 241222 252691 L 234600 259124 L 241222 265556 L 249737 273828 L 271497 294959 L 278119 301395 L 283791 295876 L 378388 203991 L 385011 197559 L 378388 191127 L 283791 99239 L 277169 92807 L 270547 99239 L 248787 120373 L 240279 128643 L 233657 135075 L 240279 141507 L 266761 167236 L 230820 167236 L 230820 112103 L 269604 73510 C 280955,67997 282848,59727 282848,54214 L 282848 35836 C 283791,33998 283791,33079 283791,31242 C 283791,11026 253523,5513 243115,3676 L 232707 1838 L 232707 12864 C 232707,15621 231763,18377 230820,20215 L 225141 31242 L 226084 31242 L 223248 32161 C 212847,33998 200546,34917 190137,34917 C 176899,34917 161762,33079 150411,31242 L 149461 23891 C 149461,22972 149461,22972 149461,22972 C 149461,20215 150411,18377 151354,15621 L 157976 0 Z M 117300 168155 L 143789 142426 L 149461 136913 L 149461 168155 L 117300 168155 Z M 117300 227882 L 149461 227882 L 149461 259124 L 143789 253610 L 117300 227882 Z" fill="#FFFFFF" transform="translate(0,53296)"/>
  <path d="M 22703 44106 C 35241,44106 45406,34233 45406,22053 C 45406,9874 35241,0 22703,0 C 10164,0 0,9874 0,22053 C 0,34233 10164,44106 22703,44106 Z" fill="#FFFFFF" transform="translate(168384,4593)"/>
  <path d="M 27432 9189 C 37834,9189 45406,17459 45406,26647 C 45406,35836 36890,44106 27432,44106 C 17973,44106 8509,36755 8509,26647 C 8509,16540 17024,9189 27432,9189 Z M 27432 0 C 12294,0 0,11946 0,26647 C 0,41349 12294,53295 27432,53295 C 42569,53295 54864,41349 54864,26647 C 54864,11946 42569,0 27432,0 Z" fill="#FFFFFF" transform="translate(163655,0)"/>
  <path d="M 34997 38593 C 25539,37675 15131,36756 5672,34918 L 3779 34918 L 2836 33080 C 943,29405 0,25729 0,22053 C 0,10108 10402,0 22703,0 C 34997,0 45406,10108 45406,22053 C 45406,27567 43513,33080 38783,37675 L 36891 39512 L 34997 38593 Z" fill="#FFFFFF" transform="translate(145681,54214)"/>
  <path d="M 27432 9188 C 37840,9188 45406,17458 45406,26647 C 45406,31242 43519,35836 40676,38593 C 30275,38593 19867,37674 11351,35836 C 9458,33079 8515,30323 8515,26647 C 8515,17458 17030,9188 27432,9188 Z M 27432 0 C 12301,0 0,11945 0,26647 C 0,31242 950,35836 3786,40431 L 5679 44106 L 10408 45025 C 19867,46863 31218,47782 40676,48701 L 45406 48701 L 48248 45944 C 52977,41349 55814,33998 55814,27566 C 54871,12864 42570,0 27432,0 Z" fill="#FFFFFF" transform="translate(140002,48700)"/>
  <path d="M 22703 44106 C 10408,44106 0,33999 0,22053 C 0,10108 10408,0 22703,0 C 35004,0 45406,10108 45406,22053 C 45406,33999 35004,44106 22703,44106 Z" fill="#FFFFFF" transform="translate(192030,44106)"/>
  <path d="M 27432 9188 C 37840,9188 45406,17458 45406,26647 C 45406,35836 36897,44106 27432,44106 C 17973,44106 9458,35836 9458,26647 C 9458,17458 17030,9188 27432,9188 Z M 27432 0 C 12301,0 0,11945 0,26647 C 0,41349 12301,53294 27432,53294 C 42569,53294 54870,41349 54870,26647 C 54870,11945 42569,0 27432,0 Z" fill="#FFFFFF" transform="translate(187301,38592)"/>
  <path d="M 198653 54214 C 205275,51457 208111,46863 208111,42269 L 208111 21135 C 209061,20216 209061,19297 209061,18378 C 209061,9189 193923,2757 176899,0 C 176899,4594 175950,8270 174057,11946 C 185408,13783 193923,16540 196760,19297 C 192980,22053 182572,24810 169328,27567 C 157976,29405 140003,32161 124865,32161 C 105948,32161 83246,28486 71894,25729 C 70001,25729 69058,24810 67165,24810 L 65272 24810 C 59593,22972 54864,21135 52977,20216 C 55814,18378 63379,15621 74731,13783 C 74731,12864 74731,12864 74731,11946 C 74731,8270 75680,4594 76623,1838 C 58650,1838 42570,7351 39733,16540 C 38783,17459 38783,18378 38783,19297 L 38783 42269 C 38783,46863 42570,51457 49192,54214 L 93654 96482 L 93654 164480 L 29325 164480 L 72838 122211 L 64329 113941 L 0 176425 L 94597 176425 L 106892 176425 L 106892 103833 C 111627,104752 117300,105671 123922,105671 C 132437,105671 139060,104752 144732,103833 L 144732 298637 C 141895,299554 136217,300472 125815,297719 C 116357,295877 107842,288530 106892,285771 L 106892 193884 L 48242 193884 L 0 193884 L 64329 256369 L 72838 248098 L 29325 205829 L 94597 205829 L 94597 286688 C 94597,294960 109735,305990 122979,308743 C 128651,309661 133381,310578 138110,310578 C 144732,310578 150411,309661 153247,306908 C 155140,305066 157033,303231 157033,300472 L 157033 96482 L 198653 54214 Z M 62436 34918 L 68108 36756 C 80409,40431 104056,43188 124865,43188 C 140952,43188 159869,40431 171220,38593 L 176899 37675 C 184465,35837 191087,34918 196760,32161 L 196760 42269 C 192031,45945 159869,53295 123922,53295 C 87975,53295 55814,46863 51084,41350 L 51084 31242 C 54864,32161 58650,33999 62436,34918 Z M 123922 65241 C 141895,65241 159869,63403 175007,60646 L 146625 89132 C 143789,91889 136217,93726 123922,93726 C 112571,93726 106892,92807 105005,90051 L 74731 61565 C 89868,63403 106892,65241 123922,65241 Z" fill="#2C5967" transform="translate(65272,66160)"/>
  <path d="M 0 0 L 0 11946 L 58650 11946 L 15137 54214 L 23646 62485 L 87975 0 L 0 0 Z" fill="#2C5967" transform="translate(231763,260045)"/>
  <path d="M 8515 0 L 0 9189 L 85139 91888 L 0 175504 L 8515 183776 L 103112 91888 L 8515 0 Z" fill="#2C5967" transform="translate(268653,158967)"/>
  <path d="M 0 62484 L 87975 62484 L 23646 0 L 15137 8270 L 58650 50538 L 0 50538 L 0 62484 Z" fill="#2C5967" transform="translate(231763,180100)"/>
  <path d="M 35947 17459 C 35947,7351 27432,0 17973,0 C 8515,0 0,8270 0,17459 C 0,26648 8515,34918 17973,34918 C 27432,34918 35947,27567 35947,17459 Z M 17973 11946 C 21759,11946 23646,14702 23646,17459 C 23646,20216 20810,22972 17973,22972 C 15137,22972 12294,20216 12294,17459 C 12294,14702 14188,11946 17973,11946 Z" fill="#2C5967" transform="translate(173113,9189)"/>
  <path d="M 0 17529 C 0,21204 943,23960 2836,26717 C 11351,28555 21759,29474 32161,29474 C 35004,26717 36890,22123 36890,17529 C 36890,7421 28382,70 18917,70 C 8515,-849 0,7421 0,17529 Z M 24596 17529 C 24596,21204 21759,23042 18917,23042 C 15137,23042 13244,20285 13244,17529 C 13244,13853 16080,12015 18917,12015 C 21759,11097 24596,13853 24596,17529 Z" fill="#2C5967" transform="translate(148517,58738)"/>
  <path d="M 0 17459 C 0,27566 8515,34917 17974,34917 C 28382,34917 35947,26647 35947,17459 C 35947,8270 27432,0 17974,0 C 8515,0 0,8270 0,17459 Z M 24596 17459 C 24596,21134 21759,22972 18917,22972 C 15137,22972 13245,20215 13245,17459 C 13245,13783 16080,11946 18917,11946 C 21759,11946 24596,14702 24596,17459 Z" fill="#2C5967" transform="translate(195816,47781)"/>
  <path d="M 103112 9189 L 94597 0 L 0 91888 L 94597 183776 L 103112 175504 L 17024 91888 L 103112 9189 Z" fill="#2C5967" transform="translate(13244,158967)"/>
</svg>