<svg xmlns="http://www.w3.org/2000/svg" viewBox="0 0 385010 385010" width="40" height="40">
  <path d="M 199885 376763 C 166838,376763 139374,349261 139374,316259 L 139374 61418 C 139374,40334 121920,23834 101771,23834 C 81623,23834 63270,40334 63270,61418 L 63270 87086 L 103632 87086 L 103632 191588 L 63270 191588 L 63270 272258 L 103632 272258 L 103632 376763 L 0 376763 L 0 272258 L 40362 272258 L 40362 191588 L 0 191588 L 0 87086 L 40362 87086 L 40362 61418 C 40362,27501 67891,916 100873,916 C 134754,916 161384,28418 161384,61418 L 161384 316259 C 161384,337344 178773,353842 198922,353842 C 219135,353842 236525,337344 236525,316259 L 236525 283258 L 197126 283258 L 197126 178755 L 237423 178755 L 237423 89836 C 237423,68752 251220,51335 271369,45834 L 271369 0 L 375899 0 L 375899 104503 L 271369 104503 L 271369 70585 C 264952,74252 260396,81586 260396,89836 L 260396 179672 L 300693 179672 L 300693 284174 L 260396 284174 L 260396 317176 C 260396,349261 232867,376763 199885,376763 Z" fill="#FFFFFF" transform="translate(4555,3666)"/>
  <path d="M 375834 9167 L 375834 104503 L 280480 104503 L 280480 67835 C 268609,70585 260331,81586 260331,93502 L 260331 187005 L 300693 187005 L 300693 282341 L 260331 282341 L 260331 319925 C 260331,351091 235562,375841 204441,375841 C 173255,375841 148486,351091 148486,319925 L 148486 65085 C 148486,42168 129235,22917 106327,22917 C 82520,22917 63270,42168 63270,65085 L 63270 95336 L 103568 95336 L 103568 190672 L 63270 190672 L 63270 280508 L 103568 280508 L 103568 375841 L 9176 375841 L 9176 280508 L 49474 280508 L 49474 190672 L 9176 190672 L 9176 95336 L 49474 95336 L 49474 65085 C 49474,33918 75141,9167 106327,9167 C 137513,9167 162282,33918 162282,65085 L 162282 319925 C 162282,342846 181533,362096 204441,362096 C 227349,362096 246600,342846 246600,319925 L 246600 282341 L 206237 282341 L 206237 187005 L 246600 187005 L 246600 93502 C 246600,73336 261229,56835 280480,54085 L 280480 9167 L 375834 9167 Z M 385011 0 L 375834 0 L 280480 0 L 271369 0 L 271369 9167 L 271369 46751 C 251155,53168 237423,72419 237423,93502 L 237423 177838 L 206237 177838 L 197061 177838 L 197061 187005 L 197061 282341 L 197061 291508 L 206237 291508 L 237423 291508 L 237423 319925 C 237423,338258 222728,352926 204441,352926 C 186088,352926 171394,338258 171394,319925 L 171394 65085 C 171394,29334 142069,0 106327,0 C 69687,0 40362,29334 40362,65085 L 40362 86169 L 9176 86169 L 0 86169 L 0 95336 L 0 190672 L 0 199839 L 9176 199839 L 40362 199839 L 40362 271341 L 9176 271341 L 0 271341 L 0 280508 L 0 375841 L 0 385011 L 9176 385011 L 104531 385011 L 113642 385011 L 113642 375841 L 113642 280508 L 113642 271341 L 104531 271341 L 72446 271341 L 72446 199839 L 103568 199839 L 112744 199839 L 112744 190672 L 112744 95336 L 112744 86169 L 103568 86169 L 72446 86169 L 72446 65085 C 72446,46751 87076,32084 105429,32084 C 123781,32084 138411,46751 138411,65085 L 138411 319925 C 138411,355679 167736,385011 203478,385011 C 239284,385011 268609,355679 268609,319925 L 268609 291508 L 299730 291508 L 308907 291508 L 308907 282341 L 308907 187005 L 308907 177838 L 299730 177838 L 268609 177838 L 268609 93502 C 268609,90753 269507,88003 270406,85252 L 270406 103586 L 270406 112753 L 279581 112753 L 375834 112753 L 385011 112753 L 385011 103586 L 385011 9167 L 385011 0 Z" fill="#FFFFFF"/>
  <path d="M 366658 95336 L 366658 0 L 271304 0 L 271304 44918 C 252053,47668 237423,65085 237423,84336 L 237423 177838 L 197061 177838 L 197061 273174 L 237423 273174 L 237423 310759 C 237423,333678 218173,352928 195264,352928 C 172356,352928 153106,333678 153106,310759 L 153106 55918 C 153106,24751 128337,0 97150,0 C 65965,0 40297,24751 40297,55918 L 40297 86169 L 0 86169 L 0 181505 L 40297 181505 L 40297 271341 L 0 271341 L 0 366680 L 95354 366680 L 95354 271341 L 54094 271341 L 54094 181505 L 94392 181505 L 94392 86169 L 54094 86169 L 54094 55918 C 54094,33001 73344,13751 96253,13751 C 119160,13751 138411,33001 138411,55918 L 138411 310759 C 138411,341923 163180,366680 194301,366680 C 225487,366680 250257,341923 250257,310759 L 250257 273174 L 290554 273174 L 290554 177838 L 250257 177838 L 250257 84336 C 250257,71502 259432,61418 270405,58669 L 270405 95336 C 271304,95336 366658,95336 366658,95336 Z M 81558 352928 L 13731 352928 L 13731 285091 L 81558 285091 L 81558 352928 Z M 81558 167755 L 13731 167755 L 13731 99919 L 81558 99919 L 81558 167755 Z M 278683 259424 L 210857 259424 L 210857 191589 L 278683 191589 L 278683 259424 Z M 352926 13751 L 352926 81586 L 285100 81586 L 285100 13751 L 352926 13751 Z" fill="#2D5967" transform="translate(9176,9167)"/>
</svg>