<svg xmlns="http://www.w3.org/2000/svg" viewBox="0 0 385011 374313" width="40" height="39">
  <path d="M 334870 365131 C 325020,365086 315516,361493 308105,355018 C 300694,348544 295868,339618 294514,329877 C 293160,320143 295368,310242 300732,301996 C 306097,293750 314259,287706 323717,284978 L 323717 263341 L 209164 263341 C 206860,267871 203177,271548 198640,273852 L 198640 284978 C 208157,287661 216383,293686 221799,301944 C 227214,310203 229448,320143 228094,329922 C 226740,339701 221888,348659 214432,355147 C 206976,361628 197421,365202 187533,365202 C 177644,365202 168090,361628 160633,355147 C 153177,348659 148319,339701 146965,329922 C 145612,320143 147851,310203 153267,301944 C 158683,293686 166909,287661 176425,284978 L 176425 273852 C 171888,271548 168199,267871 165895,263341 L 52060 263341 L 52060 285068 C 61577,287751 69803,293776 75219,302034 C 80634,310293 82868,320232 81514,330012 C 80160,339791 75309,348749 67852,355236 C 60396,361717 50841,365292 40953,365292 C 31058,365292 21503,361717 14047,355236 C 6590,348749 1739,339791 385,330012 C -968,320232 1271,310293 6687,302034 C 12096,293776 20323,287751 29845,285068 L 29845 241434 L 166075 241434 C 168404,236897 172081,233201 176605,230833 L 176605 216677 L 52323 216677 L 52323 17813 C 52323,13090 54204,8560 57553,5217 C 60896,1880 65439,0 70169,0 L 137796 0 C 140587,0 143340,648 145836,1900 C 148332,3157 150495,4973 152156,7212 L 164560 24403 L 305339 24403 C 310075,24403 314612,26277 317962,29620 C 321305,32963 323185,37494 323185,42216 L 323185 216677 L 198820 216677 L 198820 230570 C 203273,232957 206886,236660 209164,241164 L 345933 241164 L 345933 284978 C 355519,287577 363829,293571 369315,301842 C 374796,310113 377067,320091 375713,329916 C 374359,339733 369463,348730 361949,355211 C 354428,361692 344803,365221 334870,365131 Z" fill="#FFFFFF" transform="translate(4457,4454)"/>
  <path d="M 142253 8900 C 144351,8907 146424,9401 148298,10344 C 150171,11287 151801,12654 153052,14335 L 167234 33303 L 309983 33303 C 313525,33329 316913,34741 319416,37243 C 321925,39739 323343,43128 323362,46663 L 323362 216671 L 198817 216671 L 198817 237956 C 201602,238976 204124,240587 206222,242679 C 208314,244771 209931,247292 210952,250064 L 345936 250064 L 345936 292903 C 354888,294546 362902,299474 368402,306712 C 373907,313950 376500,322985 375672,332033 C 374844,341081 370661,349500 363936,355621 C 357211,361749 348439,365150 339333,365150 C 330228,365150 321456,361749 314731,355621 C 308006,349500 303823,341081 302995,332033 C 302167,322985 304760,313950 310259,306712 C 315764,299474 323779,294546 332731,292903 L 332731 263334 L 210952 263334 C 209944,266113 208334,268628 206235,270707 C 204137,272786 201602,274371 198817,275360 L 198817 293166 C 207762,294822 215771,299756 221263,307001 C 226756,314239 229342,323268 228508,332315 C 227674,341363 223490,349769 216765,355891 C 210041,362013 201269,365407 192169,365407 C 183071,365407 174299,362013 167580,355891 C 160855,349769 156665,341363 155837,332315 C 155003,323268 157589,314239 163082,307001 C 168575,299756 176577,294822 185522,293166 L 185522 275360 C 182743,274384 180215,272799 178130,270720 C 176044,268635 174453,266113 173484,263334 L 52058 263334 L 52058 292993 C 61003,294649 69011,299577 74504,306821 C 79997,314059 82583,323095 81748,332136 C 80914,341184 76731,349590 70006,355711 C 63281,361833 54509,365228 45410,365228 C 36311,365228 27539,361833 20821,355711 C 14096,349590 9906,341184 9078,332136 C 8244,323095 10829,314059 16322,306821 C 21815,299577 29817,294649 38762,292993 L 38762 250244 L 173484 250244 C 174466,247459 176057,244931 178142,242839 C 180221,240741 182743,239136 185522,238136 L 185522 216671 L 61247 216671 L 61247 22260 C 61247,18718 62658,15317 65167,12814 C 67676,10312 71077,8900 74632,8900 L 142253 8900 Z M 142253 0 L 74632 0 C 68716,0 63043,2342 58860,6520 C 54676,10691 52327,16357 52327,22260 L 52327 225578 L 176602 225578 L 176602 232521 C 173002,234792 169955,237834 167683,241427 L 29843 241427 L 29843 285954 C 19819,289605 11401,296670 6068,305897 C 742,315131 -1163,325937 691,336429 C 2552,346920 8051,356424 16233,363270 C 24408,370117 34739,373864 45410,373864 C 56081,373864 66419,370117 74594,363270 C 82769,356424 88268,346920 90129,336429 C 91990,325937 90084,315131 84752,305897 C 79426,296670 71007,289605 60977,285954 L 60977 272241 L 168036 272241 C 170314,275835 173362,278876 176962,281147 L 176962 286403 C 166932,290054 158520,297113 153187,306346 C 147855,315574 145956,326380 147810,336871 C 149671,347363 155170,356866 163345,363713 C 171527,370560 181858,374314 192529,374314 C 203200,374314 213531,370560 221713,363713 C 229888,356866 235387,347363 237248,336871 C 239102,326380 237203,315574 231871,306346 C 226538,297113 218119,290054 208096,286403 L 208096 281147 C 211696,278876 214744,275835 217016,272241 L 324074 272241 L 324074 286133 C 314045,289778 305619,296830 300274,306064 C 294935,315292 293023,326104 294878,336602 C 296732,347093 302231,356603 310406,363456 C 318588,370303 328925,374063 339603,374063 C 350274,374063 360612,370303 368793,363456 C 376968,356603 382467,347093 384322,336602 C 386176,326104 384264,315292 378925,306064 C 373587,296830 365155,289778 355125,286133 L 355125 241158 L 216393 241158 C 214122,237564 211073,234523 207474,232258 L 207474 225308 L 332108 225308 L 332108 46663 C 332082,40766 329727,35113 325550,30942 C 321373,26778 315713,24422 309803,24397 L 171341 24397 L 160098 8900 C 158013,6147 155318,3908 152218,2368 C 149125,821 145718,13 142253,0 L 142253 0 Z" fill="#FFFFFF"/>
  <path d="M 337012 283997 L 337012 241164 L 202028 241164 C 201007,238386 199390,235864 197298,233772 C 195200,231680 192678,230069 189893,229049 L 189893 207764 L 314264 207764 L 314264 37757 C 314239,34221 312821,30839 310318,28337 C 307815,25834 304421,24422 300879,24397 L 158136 24397 L 143769 5429 C 142556,3792 140984,2458 139181,1514 C 137372,577 135369,58 133335,0 L 65708 0 C 62153,0 58739,1405 56211,3908 C 53689,6410 52258,9805 52233,13353 L 52233 207764 L 176604 207764 L 176604 229049 C 173825,230057 171297,231661 169218,233753 C 167133,235851 165541,238379 164560,241164 L 29844 241164 L 29844 283907 C 20893,285562 12891,290497 7398,297735 C 1905,304980 -681,314008 154,323056 C 988,332097 5171,340510 11896,346631 C 18621,352753 27387,356147 36492,356147 C 45591,356147 54363,352753 61081,346631 C 67807,340510 71990,332097 72824,323056 C 73659,314008 71073,304980 65580,297735 C 60087,290497 52085,285562 43134,283907 L 43134 254428 L 164560 254428 C 165535,257206 167120,259734 169205,261814 C 171291,263893 173819,265484 176604,266453 L 176604 284266 C 167653,285922 159651,290850 154158,298094 C 148665,305333 146079,314367 146913,323409 C 147748,332457 151931,340863 158656,346984 C 165381,353106 174146,356501 183252,356501 C 192351,356501 201123,353106 207841,346984 C 214566,340863 218756,332457 219584,323409 C 220418,314367 217832,305333 212339,298094 C 206846,290850 198845,285922 189893,284266 L 189893 266453 C 192685,265471 195219,263880 197318,261801 C 199416,259722 201026,257206 202028,254428 L 323806 254428 L 323806 283997 C 314855,285639 306840,290567 301341,297806 C 295835,305050 293243,314079 294071,323126 C 294898,332181 299082,340593 305807,346721 C 312532,352849 321304,356244 330409,356244 C 339515,356244 348286,352849 355012,346721 C 361736,340593 365920,332181 366748,323126 C 367576,314079 364983,305050 359484,297806 C 353978,290567 345964,285639 337012,283997 Z M 65528 13353 L 133335 13353 L 151174 37757 L 300969 37757 L 300969 194584 L 65528 194584 L 65528 13353 Z M 12801 319796 C 12801,315221 14161,310742 16709,306937 C 19263,303125 22882,300161 27124,298402 C 31359,296650 36024,296195 40522,297087 C 45026,297979 49159,300186 52400,303427 C 55646,306661 57854,310787 58752,315279 C 59644,319771 59182,324429 57430,328658 C 55672,332886 52701,336505 48883,339047 C 45071,341594 40586,342954 35998,342954 C 32950,342954 29934,342351 27124,341190 C 24307,340028 21753,338322 19597,336172 C 17441,334022 15734,331468 14566,328658 C 13404,325847 12801,322838 12801,319796 Z M 183297 254428 C 181526,254409 179838,253696 178587,252451 C 177335,251200 176623,249513 176604,247754 C 176623,245996 177342,244321 178593,243083 C 179844,241851 181532,241164 183297,241164 C 185042,241164 186723,241857 187962,243089 C 189200,244328 189893,246003 189893,247754 C 189893,249506 189200,251194 187968,252445 C 186730,253696 185055,254409 183297,254428 Z M 183297 342954 C 178709,342954 174223,341594 170405,339047 C 166594,336505 163616,332886 161864,328658 C 160106,324429 159651,319771 160542,315279 C 161441,310787 163648,306661 166889,303427 C 170136,300186 174268,297979 178766,297087 C 183271,296195 187930,296650 192171,298402 C 196406,300161 200032,303125 202579,306937 C 205127,310742 206487,315221 206487,319796 C 206487,322838 205890,325847 204723,328658 C 203561,331468 201848,334022 199698,336172 C 197542,338322 194982,340028 192171,341190 C 189354,342351 186338,342954 183297,342954 Z M 307212 319796 C 307212,315221 308573,310742 311127,306937 C 313674,303125 317293,300161 321535,298402 C 325770,296650 330435,296195 334933,297087 C 339438,297979 343570,300186 346811,303427 C 350057,306661 352265,310787 353163,315279 C 354055,319771 353600,324429 351841,328658 C 350083,332886 347112,336505 343301,339047 C 339482,341594 334997,342954 330409,342954 C 327361,342954 324345,342351 321535,341190 C 318718,340028 316164,338322 314008,336172 C 311852,334022 310145,331468 308977,328658 C 307815,325847 307212,322838 307212,319796 Z" fill="#2D5967" transform="translate(8918,8920)"/>
  <path d="M 125969 100466 L 125969 25126 L 125969 24054 C 125552,21128 124416,18350 122658,15969 C 120893,13589 118570,11689 115888,10431 C 108586,6517 100693,3841 92512,2507 C 82771,729 72882,-105 62981,11 C 52990,-54 43012,845 33188,2680 C 24910,4053 16941,6857 9632,10964 C 6917,12286 4594,14301 2901,16803 C 1213,19299 212,22206 0,25216 L 0 100556 C 205,103553 1206,106447 2901,108930 C 4594,111420 6917,113415 9632,114718 C 16915,118895 24897,121732 33188,123086 C 43012,124927 52990,125819 62981,125755 C 72979,125819 82957,124927 92781,123086 C 101072,121732 109048,118895 116337,114718 C 119064,113409 121394,111400 123088,108898 C 124782,106389 125777,103482 125969,100466 Z M 13020 24767 C 13020,23875 14361,22809 16594,21475 C 19770,19877 23120,18651 26585,17824 C 31705,16213 36961,15052 42287,14352 C 49326,13434 56417,12985 63520,13011 C 70803,12992 78080,13499 85286,14525 C 90670,15161 95983,16264 101168,17824 C 104639,18741 107989,20057 111159,21738 C 113212,23079 114284,24144 114284,25126 C 114284,26101 113212,27083 111159,28418 C 108162,30202 104960,31607 101617,32608 C 96432,34225 91119,35387 85736,36080 C 78529,37151 71253,37658 63963,37594 C 56712,37658 49461,37151 42287,36080 C 36903,35387 31590,34225 26405,32608 C 23062,31607 19854,30202 16857,28418 C 14271,26730 13020,26018 13020,25126 L 13020 24767 Z M 11326 40796 C 18577,44287 26303,46687 34253,47925 C 43391,49497 52644,50274 61916,50242 L 67800 50242 L 72979 50242 L 81186 49613 C 83502,49613 85736,48990 87962,48548 L 96080 47033 L 98312 46411 C 99666,45884 100982,45262 102239,44537 L 106519 43202 L 111159 41867 L 111781 41867 L 113122 41065 L 113122 63062 C 113122,63954 112141,65109 109997,66444 C 107001,68228 103799,69633 100455,70634 C 95239,72238 89900,73400 84484,74106 C 77252,75209 69944,75742 62628,75710 C 55307,75748 48005,75209 40766,74106 C 35357,73413 30012,72251 24801,70634 C 21458,69633 18249,68228 15253,66444 C 13109,65109 12045,63954 12045,63062 L 11326 40796 Z M 61916 112042 C 54601,112068 47292,111561 40054,110528 C 34638,109835 29299,108673 24082,107056 C 20752,105998 17550,104560 14541,102783 C 12397,101538 11326,100376 11326,99484 L 11326 78110 C 18551,81646 26290,84020 34253,85149 C 43391,86721 52644,87498 61916,87466 L 68249 87466 C 76643,87504 85029,86850 93314,85502 C 100058,84443 106584,82339 112680,79271 L 112680 99934 C 112680,100819 111698,101981 109555,103225 C 106545,105009 103343,106440 100007,107499 C 94796,109110 89451,110271 84041,110977 C 76797,111997 69495,112504 62179,112491 L 61916 112042 Z" fill="#2D5967" transform="translate(129233,62323)"/>
</svg>