<svg xmlns="http://www.w3.org/2000/svg" viewBox="0 0 385908 385010" width="41" height="40">
  <path d="M 20168 375847 C 9163,375847 0,366677 0,355679 L 0 20168 C 0,9167 9163,0 20168,0 L 356565 0 C 367602,0 376778,9167 376778,20168 L 376778 356596 C 376778,367595 367602,376758 356565,376758 L 20168 376758 L 20168 375847 Z" fill="#FFFFFF" transform="translate(4511,4511)"/>
  <path d="M 360242 9167 C 369417,9167 375834,15584 375834,24750 L 375834 361178 C 375834,369424 369417,376759 360242,376759 L 24750 376759 C 15587,375841 9170,369424 9170,360261 L 9170 24750 C 9170,15584 15587,9167 24750,9167 L 360242 9167 Z M 360242 0 L 24750 0 C 10998,0 0,11000 0,24750 L 0 361178 C 0,374012 10998,385011 24750,385011 L 361204 385011 C 374936,385011 385909,374012 385909,360261 L 385909 24750 C 385011,11000 374038,0 360242,0 Z" fill="#FFFFFF"/>
  <path d="M 335492 0 L 0 0 L 0 336425 L 336455 336425 L 335492 0 Z M 241100 239256 L 235581 233756 L 230063 228256 L 240202 218173 L 228266 206255 L 218192 216339 L 212673 210839 L 207155 205339 L 217229 195255 L 206257 184255 L 217229 173255 L 286018 242006 L 242897 284174 L 174172 215422 L 185145 204422 L 242897 262174 L 264008 241090 L 250276 227339 L 241100 239256 Z M 128356 126503 L 122838 121003 L 117319 115503 L 127393 105419 L 113662 91669 L 103587 101753 L 98069 96253 L 92614 90752 L 102689 80669 L 89855 67835 L 68756 88919 L 126495 147587 L 115522 158587 L 46753 89836 L 89855 47668 L 158580 116420 L 147607 127420 L 137532 117336 L 128356 126503 Z M 73338 217256 L 243859 46751 L 286916 88919 L 116421 259423 L 55005 278674 L 73338 217256 Z" fill="#FFFFFF" transform="translate(24814,24810)"/>
  <path d="M 351091 0 L 15587 0 C 6417,0 0,6417 0,15584 L 0 352009 C 0,360261 6417,366678 15587,366678 L 351989 366678 C 360267,366678 367582,360261 367582,351091 L 367582 15584 C 366684,6417 360267,0 351091,0 Z M 15587 15584 L 351989 15584 L 351989 352009 L 15587 352009 L 15587 15584 Z" fill="#2D5967" transform="translate(9022,9028)"/>
  <path d="M 68789 88919 L 11037 31168 L 0 42168 L 68789 110920 L 111846 68752 L 43121 0 L 32084 11000 L 43121 22001 L 32983 32084 L 38501 37585 L 44020 43085 L 54094 33001 L 66029 44918 L 55955 55002 L 61409 60502 L 66928 66002 L 77003 55918 L 90735 69669 L 68789 88919 Z" fill="#2D5967" transform="translate(200012,200023)"/>
  <path d="M 111826 68752 L 43102 0 L 0 42168 L 68769 110920 L 79742 99920 L 21997 41251 L 43102 20167 L 55935 33001 L 45861 43085 L 51316 48585 L 56834 54085 L 66908 44002 L 80641 57752 L 70566 67836 L 76084 73336 L 81603 78836 L 91677 68752 L 101752 78836 L 111826 68752 Z" fill="#2D5967" transform="translate(71438,71442)"/>
  <path d="M 21047 37584 L 37603 21084 L 16491 0 L 0 16500 L 21047 37584 Z" fill="#FFFFFF" transform="translate(251925,92494)"/>
  <path d="M 0 121919 L 21047 142087 L 142069 21084 L 121022 0 L 0 121919 Z" fill="#FFFFFF" transform="translate(120315,119941)"/>
  <path d="M 26630 18334 L 8278 0 L 0 26584 L 26630 18334 Z" fill="#FFFFFF" transform="translate(102990,253795)"/>
  <path d="M 60504 212673 L 231000 42168 L 187943 0 L 18333 169588 L 0 231006 L 60504 212673 Z M 208990 42168 L 192499 58669 L 171387 37585 L 187943 21084 L 208990 42168 Z M 160414 48585 L 181526 69669 L 60504 190672 L 39393 169588 L 160414 48585 Z M 30217 182422 L 48569 200756 L 22003 209006 L 30217 182422 Z" fill="#2D5967" transform="translate(80473,71442)"/>
</svg>