<svg xmlns="http://www.w3.org/2000/svg" viewBox="0 0 375193 385010" width="39" height="40">
  <path d="M 0 282281 L 0 77717 L 90220 0 L 90220 360893 L 0 282281 Z" fill="#FFFFFF" transform="translate(4492,9827)"/>
  <path d="M 90221 19652 L 90221 360890 L 8984 289428 L 8984 89330 L 90221 19652 Z M 99205 0 L 83997 12506 L 2695 83076 L 0 85757 L 0 89330 L 0 289428 L 0 293895 L 2695 296574 L 83997 368038 L 99205 381436 L 99205 361788 L 99205 19652 L 99205 0 Z" fill="#FFFFFF"/>
  <path d="M 0 0 L 90220 77717 L 90220 282281 L 0 360893 L 0 0 Z" fill="#FFFFFF" transform="translate(280481,9827)"/>
  <path d="M 8920 19652 L 90221 89330 L 90221 289428 L 8920 360890 L 8920 19652 Z M 0 0 L 0 19652 L 0 360890 L 0 380544 L 15208 367146 L 96510 295681 L 99141 293001 L 99141 288535 L 99141 89330 L 99141 85757 L 96510 83076 L 15208 13400 L 0 0 Z" fill="#FFFFFF" transform="translate(276053,0)"/>
  <path d="M 97344 366250 L 93814 334096 L 90221 366250 L 0 366250 L 59870 0 L 129492 0 L 187565 366250 L 97344 366250 Z" fill="#FFFFFF" transform="translate(93814,14287)"/>
  <path d="M 131288 8933 L 188463 366251 L 107161 366251 L 100038 294788 L 92852 366251 L 11615 366251 L 69623 8933 L 131288 8933 Z M 139309 0 L 131288 0 L 68788 0 L 60703 0 L 59805 7146 L 1733 364467 L 0 375183 L 10716 375183 L 91953 375183 L 100038 375183 L 106263 375183 L 187564 375183 L 198281 375183 L 196484 364467 L 139309 7146 L 139309 0 Z" fill="#FFFFFF" transform="translate(88488,9827)"/>
  <path d="M 54543 0 L 0 47345 L 0 235831 L 54543 283177 L 54543 0 Z" fill="#FFFFFF" transform="translate(22331,48240)"/>
  <path d="M 0 270669 L 81237 342132 L 81237 0 L 0 69677 L 0 270669 Z M 13348 75931 L 67891 28586 L 67891 311761 L 13348 263522 L 13348 75931 Z" fill="#2D5967" transform="translate(8984,19656)"/>
  <path d="M 0 283177 L 54479 235831 L 54479 47345 L 0 0 L 0 283177 Z" fill="#FFFFFF" transform="translate(298383,48240)"/>
  <path d="M 0 0 L 0 341240 L 81302 269776 L 81302 69677 L 0 0 Z M 67890 264416 L 13411 312653 L 13411 28586 L 67890 75931 L 67890 264416 Z" fill="#2D5967" transform="translate(284972,19656)"/>
  <path d="M 54479 0 L 0 330522 L 54479 330522 L 73280 141140 L 92017 330522 L 146496 330522 L 93814 0 L 54479 0 Z" fill="#FFFFFF" transform="translate(114348,32158)"/>
  <path d="M 58008 0 L 0 357321 L 81237 357321 L 88423 285855 L 95547 357321 L 176848 357321 L 119673 0 C 120572,0 58008,0 58008,0 Z M 107161 343916 L 88423 154540 L 69623 343916 L 15144 343916 L 69623 13400 L 109856 13400 L 162538 343916 L 107161 343916 Z" fill="#2D5967" transform="translate(99205,18757)"/>
</svg>