<svg xmlns="http://www.w3.org/2000/svg" viewBox="0 0 336691 385106" width="35" height="40">
  <path d="M 0 21945 L 0 33977 L 35100 55923 L 42608 43795 L 17197 27913 L 42608 12032 L 35100 0 L 0 21945 Z" fill="#2D5967" transform="translate(80660,163244)"/>
  <path d="M 42608 33977 L 42608 21945 L 7508 0 L 0 12032 L 25410 27913 L 0 43795 L 7508 55923 L 42608 33977 Z" fill="#2D5967" transform="translate(169020,163244)"/>
  <path d="M 0 57752 L 14438 57752 L 26116 0 L 11551 0 L 0 57752 Z" fill="#2D5967" transform="translate(132893,162474)"/>
  <path d="M 201746 308008 L 201746 307816 L 197511 301945 C 180377,318115 158561,333323 135332,345547 C 63142,307720 18032,247562 14374,184228 L 14374 64874 L 135139 15304 L 256161 64874 L 256161 184228 C 255262,199724 251027,216665 245380,231488 C 245380,231488 257765,240343 257765,240439 C 264823,223114 269251,203093 270277,184901 L 270277 55345 L 135139 0 L 0 55345 L 0 184805 C 3978,254299 53260,319655 131995,359792 L 135139 361429 L 138412 359792 C 164015,346702 187115,331013 205917,313399 C 204569,311570 203093,309837 201746,308008 Z" fill="#2D5967" transform="translate(10652,11550)"/>
  <path d="M 216633 168635 L 176527 139663 C 176527,139663 176527,139663 176399,139663 L 176399 139470 C 183907,125995 188141,110594 188141,94135 C 188141,42255 145919,0 94007,0 C 42158,0 0,42255 0,94135 C 0,146015 42223,188270 94135,188270 C 110755,188270 126347,183939 139951,176335 C 139823,176335 139631,176431 139566,176527 L 139566 175950 L 139951 176335 L 169019 216665 C 179030,230044 189617,242364 200462,253145 L 217017 269700 L 269892 216857 L 253337 200302 C 242428,189425 230236,178837 216761,168731 L 216633 168635 Z M 152528 167768 C 152528,167768 153042,167287 153298,167095 C 153812,166710 154261,166228 154774,165843 C 156763,164111 158817,162378 160741,160453 C 163308,157854 165747,155063 168057,152272 L 207713 180859 C 220483,190484 232225,200591 242556,210889 L 248396 216761 L 217017 248139 L 211179 242268 C 200847,231969 190773,220226 181212,207521 L 152657 167768 L 152528 167768 Z M 94007 14245 C 138091,14245 173896,50051 173896,94135 C 173896,138219 138091,174025 94007,174025 C 49923,174025 14117,138219 14117,94135 C 14117,50051 49923,14245 94007,14245 Z" fill="#2D5967" transform="translate(51977,96638)"/>
  <path d="M 329376 305891 L 312821 289335 C 302233,278748 290362,268449 277400,258631 L 278427 255936 C 285870,237551 290554,216568 291709,197029 L 291709 196740 L 291709 196452 L 291709 66896 L 291709 59773 L 285100 57078 L 149833 1636 L 145790 0 L 141748 1636 L 6609 57078 L 0 59773 L 0 196259 L 0 196644 L 0 196837 L 0 197029 C 4107,270277 55634,339098 137705,380968 L 140914 382604 L 145726 385107 L 150539 382604 L 153812 380968 C 180570,367300 203862,351322 223113,333419 C 230108,341986 237359,349975 244738,357290 L 261294 373845 L 268802 381353 L 276309 373845 L 329184 321003 L 336692 313495 L 329184 305987 L 329376 305891 Z M 268994 366241 L 252438 349686 C 241593,338809 231071,326585 220996,313206 L 191927 272876 C 178324,280480 162731,284812 146111,284812 C 94199,284812 51976,242557 51976,190676 C 51976,138796 94199,96541 146111,96541 C 197959,96541 240246,138796 240246,190676 C 240246,207040 236011,222536 228568,236011 L 228568 236204 L 268737 265176 C 282213,275283 294532,285870 305313,296747 L 321868 313302 L 268994 366145 L 268994 366241 Z M 145919 373075 L 142711 371439 C 63911,331302 14502,265850 10651,196355 L 10651 195970 L 10651 66896 L 145790 11550 L 281057 66992 L 281057 196452 C 279967,214643 275539,234760 268545,251989 L 256096 243038 C 261678,228215 265914,211274 266876,195778 L 266876 76425 L 145790 26854 L 24833 76425 L 24833 195778 C 28490,259112 73601,319174 145790,357097 C 169084,344873 190837,329665 207969,313495 L 212205 319366 L 212205 319559 C 213552,321388 215028,323216 216376,324949 C 197510,342563 174474,358349 148870,371343 L 145598 372979 L 145919 373075 Z" fill="#FFFFFF"/>
  <path d="M 79890 159779 C 123974,159779 159780,123973 159780,79890 C 159780,35806 123974,0 79890,0 C 35806,0 0,35806 0,79890 C 0,123973 35806,159779 79890,159779 Z M 128337 80275 L 102926 64393 L 110434 52361 L 145470 74307 L 145470 86339 L 110434 108284 L 102926 96253 L 128337 80371 L 128337 80275 Z M 81237 109343 L 66800 109343 L 78350 51495 L 92788 51495 L 81237 109343 Z M 31700 80275 L 57110 96157 L 49602 108188 L 14566 86242 L 14566 74211 L 49602 52265 L 57110 64297 L 31700 80178 L 31700 80275 Z M 99076 74596 L 108188 80275 L 97215 87109 L 96445 87590 L 99076 74500 L 99076 74596 Z M 60575 85857 L 51720 80371 L 62693 73537 L 63078 73344 L 60575 85954 L 60575 85857 Z" fill="#FFFFFF" transform="translate(66093,110883)"/>
  <path d="M 64489 95868 L 95867 64489 L 89964 58618 C 79697,48319 67954,38212 55120,28587 L 15464 0 C 13283,2791 10844,5583 8150,8181 C 6224,10106 4235,11839 2182,13572 C 1733,13957 1219,14438 770,14823 C 449,15015 256,15304 0,15497 L 28555 55249 C 38116,67954 48191,79697 58522,89996 L 64361 95868 L 64489 95868 Z" fill="#FFFFFF" transform="translate(204441,248909)"/>
  <path d="M 0 0 L 0 577 C 0,577 193,481 320,385 C 320,385 128,192 0,0 Z" fill="#FFFFFF" transform="translate(191607,272587)"/>
</svg>