<svg xmlns="http://www.w3.org/2000/svg" viewBox="0 0 384809 298620" width="40" height="31">
  <path d="M 160472 291657 L 143198 283052 L 124711 262646 L 122934 261228 C 101765,244057 88187,219267 85107,192187 L 0 192187 L 924 179887 C 2034,164460 7071,149572 15561,136642 C 24044,123711 35703,113168 49416,106014 C 52535,104408 55255,102115 57360,99307 C 59465,96499 60909,93249 61570,89803 C 64707,74072 73191,59911 85581,49724 C 97972,39538 113507,33952 129543,33917 C 131680,33917 133810,33917 135941,33917 L 138360 33917 C 141434,33928 144469,33302 147286,32078 C 150096,30854 152631,29059 154717,26807 C 164136,16809 175834,9234 188809,4725 C 201784,217 215664,-1091 229255,912 C 242845,2916 255750,8171 266876,16232 C 277997,24293 287013,34921 293147,47213 C 294738,50411 297023,53209 299846,55401 C 302663,57592 305936,59119 309427,59869 C 319219,62021 328555,65871 337019,71245 C 355647,83027 369122,101430 374731,122749 C 380339,144069 377657,166721 367236,186144 L 364034 192187 L 293429 192187 C 290272,219308 276585,244102 255320,261228 L 253119 263006 L 235132 283052 L 217852 291657 L 160472 291657 Z" fill="#FFFFFF" transform="translate(3843,3415)"/>
  <path d="M 220842 7110 C 236005,7057 250879,11261 263777,19242 C 276675,27223 287070,38662 293789,52259 C 295662,55862 298313,59007 301547,61465 C 304774,63924 308515,65636 312487,66479 C 321875,68526 330827,72209 338938,77358 C 356815,88668 369751,106330 375129,126791 C 380512,147251 377946,168991 367948,187635 L 365741 191759 L 294071 191759 C 292910,205297 289021,218461 282649,230460 C 276271,242460 267531,253042 256956,261583 L 254755 263360 L 236769 283265 L 220842 291511 L 165170 291511 L 149313 283548 L 131321 263642 L 129120 261865 C 118635,253266 109978,242653 103677,230644 C 97376,218637 93551,205486 92428,191972 L 7681 191972 L 8316 183440 C 9356,168596 14181,154265 22337,141817 C 30486,129370 41697,119220 54890,112339 C 58515,110510 61672,107883 64136,104657 C 66600,101430 68301,97688 69109,93711 C 72093,78789 80146,65358 91896,55692 C 103651,46025 118384,40719 133599,40669 C 135659,40669 137654,40669 139714,40669 C 140587,40741 141466,40741 142345,40669 C 145887,40714 149403,40015 152657,38619 C 155916,37223 158843,35160 161255,32564 C 168936,24496 178183,18078 188424,13701 C 198672,9325 209696,7082 220842,7110 Z M 220842 0 C 208631,16 196561,2550 185383,7444 C 174198,12337 164149,19485 155852,28440 C 154100,30290 151977,31756 149628,32747 C 147279,33738 144751,34233 142204,34199 L 140208 34199 C 138007,34199 135729,34199 133458,34199 C 116652,34181 100353,39967 87320,50576 C 74288,61187 65317,75971 61929,92431 C 61416,95442 60209,98293 58406,100760 C 56609,103228 54261,105244 51547,106651 C 37352,114046 25282,124940 16472,138302 C 7662,151665 2413,167054 1206,183014 L 571 191545 L 0 199082 L 85889 199082 C 89714,225882 103497,250257 124500,267339 L 126277 268763 L 143911 288245 L 144835 289239 L 146041 289881 L 161968 297844 L 163533 298621 L 222543 298621 L 224038 297844 L 239964 289952 L 241171 289310 L 242024 288315 L 259658 268834 L 261435 267409 C 282579,250372 296477,225959 300327,199082 L 369726 199082 L 371785 195385 L 373993 191190 C 380615,178873 384305,165191 384760,151213 C 385222,137234 382437,123340 376637,110615 C 370829,97892 362160,86683 351303,77866 C 340446,69050 327695,62865 314053,59796 C 311018,59213 308156,57942 305692,56081 C 303228,54220 301226,51817 299833,49059 C 292537,34339 281276,21948 267319,13280 C 253369,4612 237269,13 220842,0 L 220842 0 Z" fill="#FFFFFF"/>
  <path d="M 331257 70534 C 323255,65423 314425,61742 305166,59655 C 301194,58812 297453,57100 294219,54641 C 290985,52183 288341,49038 286467,45435 C 279762,31731 269321,20197 256359,12160 C 243391,4122 228414,-92 213161,2 C 201938,27 190843,2356 180557,6844 C 170271,11332 161011,17885 153363,26096 C 150667,28987 147337,31217 143641,32611 C 139938,34004 135966,34524 132033,34130 C 120746,32963 109343,34777 98973,39391 C 89277,43647 80762,50182 74140,58439 C 67512,66696 62981,76431 60934,86816 C 60132,90797 58438,94543 55974,97771 C 53510,100999 50340,103623 46715,105444 C 33522,112325 22311,122475 14156,134923 C 6006,147370 1181,161701 141,176545 L 0 184864 L 71952 184864 L 71952 169080 L 17633 169080 C 19636,158530 24005,148572 30409,139952 C 36813,131332 45085,124275 54607,119309 C 60312,116352 65285,112144 69135,106997 C 72992,101850 75629,95899 76861,89589 C 78369,81751 81738,74391 86692,68129 C 91639,61868 98024,56889 105300,53612 C 113161,50242 121747,48920 130255,49772 C 136666,50444 143141,49618 149172,47360 C 155204,45103 160633,41474 165022,36761 C 172254,29037 181244,23173 191222,19667 C 201207,16162 211884,15118 222356,16626 C 232829,18134 242781,22149 251367,28328 C 259953,34507 266921,42669 271676,52118 C 274564,57901 278716,62960 283823,66923 C 288931,70885 294867,73650 301181,75013 C 308734,76743 315946,79723 322510,83829 C 336345,92579 346548,106034 351239,121714 C 355929,137394 354794,154243 348037,169151 L 298268 169151 L 298268 171497 C 298268,172990 298268,174483 298268,176047 C 298268,177611 298268,178749 298268,180171 L 298268 184864 L 357636 184864 L 359844 180740 C 369860,162153 372478,140466 367178,120027 C 361878,99588 349044,81909 331257,70534 Z" fill="#2D5967" transform="translate(7687,7112)"/>
  <path d="M 101384 0 C 80439,30 60014,6540 42907,18635 C 25806,30731 12863,47821 5856,67563 C -1157,87303 -1889,108729 3758,128903 C 9411,149075 21154,167006 37395,180238 L 39602 182015 L 163030 182015 L 165238 180238 C 181556,167045 193382,149114 199080,128915 C 204778,108715 204066,87246 197046,67468 C 190026,47690 177038,30578 159880,18494 C 142721,6409 122232,-52 101242,0 L 101384 0 Z M 186426 110349 C 184649,127472 177731,143657 166585,156778 L 151871 141988 L 146250 147605 L 140636 153223 L 153501 166166 L 48560 166166 L 61426 153011 L 55811 147392 L 50479 141988 L 36259 156207 C 25190,143252 18260,127280 16348,110349 L 37113 110349 L 37113 94422 L 16206 94422 C 17612,77292 24151,60986 34976,47638 L 50479 62782 L 56094 57165 L 61715 51548 L 46423 36261 C 59398,25185 75402,18273 92355,16424 L 92355 38465 L 108282 38465 L 108282 16211 C 126037,17578 142920,24465 156562,35906 L 140918 51548 L 146533 57165 L 152154 62782 L 167721 47211 C 178809,60602 185489,77091 186850,94422 L 165520 94422 L 165520 110349 L 186426 110349 Z" fill="#2D5967" transform="translate(91718,81621)"/>
  <path d="M 24538 11376 C 22953,11233 21361,11233 19776,11376 C 16959,11582 14207,12346 11691,13622 C 9169,14899 6930,16664 5095,18814 C 3266,20963 1880,23456 1014,26145 C 154,28835 -161,31670 77,34484 C 558,40155 3234,45413 7546,49131 C 11499,52515 16562,54337 21766,54250 L 23473 54250 C 29087,53865 34343,51316 38116,47140 C 40291,44598 41831,41581 42620,38332 C 43410,35084 43429,31696 42665,28440 L 55467 0 L 24538 11376 Z M 25673 36190 C 24948,36992 23999,37566 22953,37841 C 21907,38117 20797,38084 19770,37746 C 18737,37408 17826,36779 17145,35935 C 16465,35091 16048,34069 15933,32991 C 15849,31892 16087,30793 16626,29832 C 17171,28871 17986,28094 18968,27598 C 19950,27102 21060,26910 22157,27048 C 23248,27185 24275,27645 25109,28370 C 26200,29341 26873,30703 26983,32164 C 27085,33625 26617,35070 25673,36190 Z" fill="#2D5967" transform="translate(171638,152798)"/>
  <path d="M 71593 0 L 15927 0 L 0 0 L 0 7963 L 15927 15927 L 71593 15927 L 87519 7963 L 87519 0 L 71593 0 Z" fill="#2D5967" transform="translate(149249,275591)"/>
</svg>