<svg xmlns="http://www.w3.org/2000/svg" viewBox="0 0 385010 385010" width="40" height="40">
  <path d="M 19251 375845 L 17415 375845 C 7334,374927 0,366675 0,355677 L 0 20167 C 0,9166 9170,0 20168,0 L 356597 0 C 367595,0 376758,9166 376758,20167 L 376758 375845 L 19251 375845 Z" fill="#FFFFFF" transform="translate(5499,4584)"/>
  <path d="M 360261 9167 C 368513,9167 375841,16500 375841,24750 L 375841 375841 L 362096 375841 L 24750 375841 L 22915 375841 C 14669,374930 9170,368513 9170,360261 L 9170 24750 C 9170,16500 16498,9167 24750,9167 L 360261 9167 Z M 360261 0 L 24750 0 C 10998,0 0,11000 0,24750 L 0 361179 C 0,373095 9170,384093 22003,385011 L 23832 385011 L 362096 385011 L 375841 385011 L 385011 385011 L 385011 375841 L 385011 24750 C 385011,11000 374012,0 360261,0 Z" fill="#FFFFFF"/>
  <path d="M 351098 0 L 15586 0 C 7334,0 0,7334 0,15584 L 0 352011 C 0,359345 7334,366680 15586,366680 L 15586 352928 C 14669,352928 13751,352011 13751,351093 L 13751 105420 L 352926 105420 L 352926 278675 L 366677 278675 L 366677 15584 C 366677,7334 359343,0 351098,0 Z M 352926 91669 L 13751 91669 L 13751 15584 C 13751,14667 14669,13751 15586,13751 L 352015 13751 C 352926,13751 353844,14667 353844,15584 L 352926 91669 Z" fill="#2D5967" transform="translate(9163,9167)"/>
  <path d="M 234677 0 L 0 0 L 0 13751 L 234677 13751 L 234677 0 Z" fill="#2D5967" transform="translate(73331,166838)"/>
  <path d="M 163174 0 L 0 0 L 0 13750 L 163174 13750 L 163174 0 Z" fill="#2D5967" transform="translate(73331,242007)"/>
  <path d="M 120091 0 L 0 0 L 0 13751 L 120091 13751 L 120091 0 Z" fill="#2D5967" transform="translate(73331,314425)"/>
  <path d="M 0 44001 L 44000 44001 L 44000 0 L 0 0 L 0 44001 Z M 13745 13750 L 30249 13750 L 30249 30251 L 13745 30251 L 13745 13750 Z" fill="#2D5967" transform="translate(39418,39419)"/>
</svg>