<svg xmlns="http://www.w3.org/2000/svg" viewBox="0 0 247022 385010" width="26" height="40">
  <path d="M 183657 375847 C 170823,375847 158887,371259 149711,363931 L 0 363931 L 0 302509 L 16536 302509 L 22042 178754 C 12859,176925 5512,168673 5512,158592 L 5512 80673 L 63340 80673 L 63340 108169 L 73479 108169 L 73479 80673 L 90933 80673 L 90933 0 L 146952 0 C 156128,0 164406,6417 166203,15587 L 224981 15587 L 206629 46753 L 224981 77002 L 163508 77002 C 154267,77002 146952,70585 144193,62339 L 143294 62339 L 143294 61422 L 113905 61422 L 113905 79755 L 131359 79755 L 131359 107257 L 141434 107257 L 141434 79755 L 199313 79755 L 199313 157675 C 199313,167755 191934,176008 182758,177843 L 186415 266761 C 214907,268590 237879,292428 237879,320842 C 238777,351097 214008,375847 183657,375847 Z" fill="#FFFFFF" transform="translate(4588,4581)"/>
  <path d="M 151540 9170 C 159818,9170 167133,16498 167133,24750 L 221355 24750 L 205698 51335 L 221355 77002 L 168096 77002 C 159818,77002 153401,70585 152439,62333 C 152439,61416 151540,61416 151540,61416 L 113873 61416 L 113873 88918 L 131327 88918 L 131327 116421 L 150642 116421 L 150642 88918 L 199282 88918 L 199282 162256 C 199282,170502 191966,177836 183689,177836 L 181828 177836 L 185485 275924 C 186448,275924 186448,275924 187346,275924 C 214874,275924 236948,297927 236948,325424 C 236948,352926 215837,375841 188245,375841 C 175411,375841 164374,371259 155198,363925 L 9183 363925 L 9183 311673 L 25712 311673 L 32123 178754 L 30326 178754 C 22042,178754 14695,171419 14695,163174 L 14695 89836 L 63373 89836 L 63373 117338 L 82687 117338 L 82687 89836 L 100077 89836 L 100077 9170 L 109317 9170 L 114772 9170 L 151540 9170 Z M 151540 0 L 114772 0 L 109317 0 L 100077 0 L 90901 0 L 90901 9170 L 90901 80666 L 82687 80666 L 73447 80666 L 73447 89836 L 73447 108169 L 72549 108169 L 72549 89836 L 72549 80666 L 63373 80666 L 14695 80666 L 5512 80666 L 5512 89836 L 5512 163174 C 5512,174172 12860,183336 22042,187006 L 16530 302509 L 9183 302509 L 0 302509 L 0 311673 L 0 363925 L 0 373094 L 9183 373094 L 152439 373094 C 162577,381346 175411,385011 188245,385011 C 220393,385011 247023,358426 247023,326341 C 247023,296092 224115,271343 194726,267672 L 191004 186088 C 201143,182424 207560,173255 207560,162256 L 207560 88918 L 207560 86172 L 220393 86172 L 236948 86172 L 229569 72421 L 216735 51335 L 229569 29331 L 237847 15587 L 222254 15587 L 174513 15587 C 170791,6417 161615,0 151540,0 Z M 123050 70585 L 143262 70585 L 143262 71503 L 145123 71503 C 146920,75167 148781,77920 151540,79755 L 150642 79755 L 141402 79755 L 141402 88918 L 141402 107251 L 140503 107251 L 140503 88918 L 140503 79755 L 131327 79755 L 123050 79755 L 123050 70585 Z" fill="#FFFFFF"/>
  <path d="M 13777 338257 L 13777 313508 L 15612 313508 L 119385 313508 C 119385,308926 120284,304338 121246,299756 L 30319 299756 L 36736 167756 L 159811 167756 L 163469 257591 C 168089,256674 172645,255756 177265,255756 L 173608 168673 L 174506 168673 C 182784,168673 190099,161339 190099,153087 L 190099 79749 L 141459 79749 L 141459 107251 L 122144 107251 L 122144 79749 L 104691 79749 L 104691 52252 L 142358 52252 C 143256,52252 143256,53170 143256,53170 C 143256,61416 150635,67833 158913,67833 L 212173 67833 L 196516 42165 L 212173 15580 L 157951 15580 C 157951,7334 150635,0 142358,0 L 105589 0 L 100135 0 L 90894 0 L 90894 80666 L 73441 80666 L 73441 108169 L 54190 108169 L 54190 80666 L 5512 80666 L 5512 154004 C 5512,162256 12859,169584 21143,169584 L 22940 169584 L 16530 300674 L 0 300674 L 0 352926 L 132219 352926 C 128561,348345 125802,343757 124006,339175 L 13777 339175 L 13777 338257 Z M 187339 27503 L 180024 40336 L 187339 52252 L 158913 52252 C 157951,52252 157951,51335 157951,51335 L 157951 27503 L 187339 27503 Z M 142358 11916 C 143256,11916 144218,12834 144218,13751 L 144218 36666 L 143256 36666 L 105589 36666 L 105589 11916 L 142358 11916 Z M 21143 154004 C 20207,154004 19289,153087 19289,152169 L 19289 92582 L 40394 92582 L 40394 120085 L 87237 120085 L 87237 92582 L 108348 92582 L 108348 120085 L 156154 120085 L 156154 92582 L 177265 92582 L 177265 152169 C 177265,153087 176303,154004 175404,154004 L 173608 154004 L 22940 154004 L 21143 154004 Z" fill="#2C5967" transform="translate(9182,11004)"/>
  <path d="M 49538 0 C 22010,0 0,22003 0,49506 C 0,77002 22010,99005 49538,99005 C 77130,99005 99140,77002 99140,49506 C 100103,22921 77130,0 49538,0 Z M 49538 86172 C 29389,86172 13732,69674 13732,50424 C 13732,31173 30287,14669 49538,14669 C 68853,14669 85408,31173 85408,50424 C 85408,69674 69751,86172 49538,86172 Z" fill="#2C5967" transform="translate(138706,275924)"/>
  <path d="M 35806 0 L 16491 19251 L 10074 13751 L 0 23832 L 16491 39419 L 45881 10081 L 35806 0 Z" fill="#2C5967" transform="translate(165336,308926)"/>
  <path d="M 28491 10087 L 37667 19251 L 0 19251 L 0 33002 L 37667 33002 L 28491 42172 L 38565 51335 L 64297 25667 L 38565 0 L 28491 10087 Z" fill="#2C5967" transform="translate(92761,196175)"/>
  <path d="M 35806 10087 L 25732 0 L 0 25667 L 25732 51335 L 35806 41254 L 27529 33919 L 63398 33919 L 63398 20168 L 25732 20168 L 35806 10087 Z" fill="#2C5967" transform="translate(57854,233759)"/>
  <path d="M 13777 338257 L 13777 313508 L 15612 313508 L 119385 313508 C 119385,308926 120284,304338 121246,299756 L 30319 299756 L 36736 167756 L 159811 167756 L 163469 257591 C 168089,256674 172645,255756 177265,255756 L 173608 168673 L 174506 168673 C 182784,168673 190099,161339 190099,153087 L 190099 79749 L 141459 79749 L 141459 107251 L 122144 107251 L 122144 79749 L 104691 79749 L 104691 52252 L 142358 52252 C 143256,52252 143256,53170 143256,53170 C 143256,61416 150635,67833 158913,67833 L 212173 67833 L 196516 42165 L 212173 15580 L 157951 15580 C 157951,7334 150635,0 142358,0 L 105589 0 L 100135 0 L 90894 0 L 90894 80666 L 73441 80666 L 73441 108169 L 54190 108169 L 54190 80666 L 5512 80666 L 5512 154004 C 5512,162256 12859,169584 21143,169584 L 22940 169584 L 16530 300674 L 0 300674 L 0 352926 L 132219 352926 C 128561,348345 125802,343757 124006,339175 L 13777 339175 L 13777 338257 Z M 187339 27503 L 180024 40336 L 187339 52252 L 158913 52252 C 157951,52252 157951,51335 157951,51335 L 157951 27503 L 187339 27503 Z M 142358 11916 C 143256,11916 144218,12834 144218,13751 L 144218 36666 L 143256 36666 L 105589 36666 L 105589 11916 L 142358 11916 Z M 21143 154004 C 20207,154004 19283,153087 19283,152169 L 19283 92582 L 40394 92582 L 40394 120085 L 87237 120085 L 87237 92582 L 108348 92582 L 108348 120085 L 156154 120085 L 156154 92582 L 177265 92582 L 177265 152169 C 177265,153087 176303,154004 175404,154004 L 173608 154004 L 22940 154004 L 21143 154004 Z" fill="#2C5967" transform="translate(9182,11004)"/>
  <path d="M 49538 0 C 22010,0 0,22003 0,49506 C 0,77002 22010,99005 49538,99005 C 77130,99005 99140,77002 99140,49506 C 100103,22921 77130,0 49538,0 Z M 49538 86172 C 29325,86172 13732,69674 13732,50424 C 13732,31173 30287,14669 49538,14669 C 68853,14669 85408,31173 85408,50424 C 85408,69674 69751,86172 49538,86172 Z" fill="#2C5967" transform="translate(138706,275924)"/>
  <path d="M 35806 0 L 16491 19251 L 10074 13751 L 0 23832 L 16491 39419 L 45881 10081 L 35806 0 Z" fill="#2C5967" transform="translate(165336,308926)"/>
  <path d="M 28491 10087 L 37667 19251 L 0 19251 L 0 33002 L 37667 33002 L 28491 42172 L 38565 51335 L 64297 25667 L 38565 0 L 28491 10087 Z" fill="#2C5967" transform="translate(92761,196175)"/>
  <path d="M 35806 10087 L 25732 0 L 0 25667 L 25732 51335 L 35806 41254 L 27529 33919 L 63398 33919 L 63398 20168 L 25732 20168 L 35806 10087 Z" fill="#2C5967" transform="translate(57854,233759)"/>
</svg>