<svg xmlns="http://www.w3.org/2000/svg" viewBox="0 0 385010 344387" width="40" height="36">
  <path d="M 63783 335509 L 63783 320230 L 79441 312453 L 77901 192137 L 0 192137 L 1027 178687 C 2117,163269 7123,148385 15592,135459 C 24063,122532 35741,111994 49409,104851 C 52362,103363 54928,101234 56917,98620 C 58906,96006 60318,92976 60960,89755 C 64040,73945 72574,59701 85023,49466 C 97407,39233 113065,33647 129171,33668 C 131288,33668 133470,33668 135588,33668 L 137769 33668 C 140657,33712 143481,33158 146176,32040 C 148806,30921 151180,29263 153170,27172 C 162538,17077 174217,9411 187243,4833 C 200205,254 214130,-1098 227798,892 C 241402,2881 254364,8153 265529,16253 C 276694,24353 285678,35040 291774,47392 L 292351 48216 C 293955,51825 296137,55158 298832,58097 C 320328,60979 340028,71612 354209,87996 C 368455,104382 376155,125390 375963,147071 C 375770,168752 367685,189613 353119,205730 C 338617,221847 318724,232111 297164,234591 L 297164 312363 L 312950 320230 L 312950 335509 L 63783 335509 Z" fill="#FFFFFF" transform="translate(4941,4303)"/>
  <path d="M 220547 9152 C 235562,9058 250321,13185 263155,21063 C 275924,28940 286255,40251 292929,53710 C 292929,53921 292929,54139 292929,54351 C 295046,58941 297870,63148 301399,66793 C 322318,69190 341633,79325 355429,95208 C 369290,111090 376668,131571 376155,152625 C 375642,173679 367300,193783 352734,208985 C 338103,224186 318404,233388 297356,234778 L 297356 319503 L 313078 327370 L 313078 335237 L 73216 335237 L 73216 327370 L 88873 319593 L 87333 192142 L 9882 192142 L 10524 183724 C 11551,169109 16299,154995 24320,142727 C 32277,130459 43314,120445 56276,113639 C 59805,111811 62885,109219 65260,106053 C 67698,102887 69302,99227 70136,95340 C 73024,80527 81045,67195 92723,57642 C 104466,48088 119097,42913 134241,43005 L 140272 43005 L 142903 43005 C 146369,42975 149705,42255 152849,40887 C 155994,39519 158881,37533 161191,35045 C 168763,26877 177939,20361 188206,15905 C 198409,11449 209382,9150 220547,9152 Z M 220547 2 C 208226,8 195971,2563 184677,7508 C 173383,12451 163181,19677 154838,28732 C 153298,30353 151437,31637 149320,32503 C 147266,33369 145085,33799 142839,33764 L 140978 33764 C 138732,33627 136422,33627 134112,33764 C 123845,33797 113706,35913 104274,39986 C 93365,44800 83740,52181 76296,61500 C 68853,70819 63720,81800 61409,93510 C 60896,96079 59805,98497 58200,100586 C 56660,102676 54607,104385 52297,105588 C 37924,113088 25667,124136 16748,137682 C 7828,151229 2567,166826 1347,182992 L 706 191410 L 0 201291 L 78349 201291 L 79762 314196 L 69238 319503 L 64104 321697 L 64104 344387 L 322254 344387 L 322254 321697 L 317248 319227 L 306533 313830 L 306533 242922 C 328478,239322 348435,228020 362809,211043 C 377182,194066 385075,172524 385011,150278 C 384946,128031 376925,106536 362487,89645 C 347985,72754 327965,61571 305955,58102 C 304158,55854 302619,53396 301399,50782 L 301399 50233 C 294019,35077 282534,22313 268224,13421 C 253914,4530 237423,-123 220547,2 Z" fill="#FFFFFF"/>
  <path d="M 283047 45394 C 283047,45183 283047,44964 283047,44754 C 277272,33049 268673,22932 258085,15276 C 247497,7620 235241,2655 222280,808 C 209317,-1038 196163,290 183842,4679 C 171522,9067 160485,16384 151630,25997 C 148935,28871 145598,31079 141876,32444 C 138154,33810 134176,34296 130261,33866 C 114284,32362 98241,36854 85344,46474 C 72446,56092 63590,70152 60510,85926 C 59740,89813 58072,93473 55698,96639 C 53259,99805 50244,102397 46714,104225 C 33688,111024 22651,121037 14694,133306 C 6673,145575 1925,159692 898,174310 L 0 183185 L 65451 183185 L 65451 167174 L 17582 167174 C 19635,156802 23935,147022 30287,138563 C 36640,130104 44789,123182 54222,118315 C 59805,115362 64681,111190 68403,106107 C 72189,101023 74756,95159 75975,88945 C 77515,81187 80916,73913 85857,67734 C 90798,61556 97151,56655 104338,53445 C 112038,50063 120380,48708 128721,49511 C 135074,50173 141427,49370 147395,47165 C 153362,44959 158753,41411 163116,36794 C 169918,29487 178324,23848 187693,20315 C 196997,16782 207072,15450 217017,16424 C 226964,17398 236525,20651 244995,25929 C 253465,31208 260588,38370 265849,46858 C 271047,46015 276309,45587 281635,45577 L 283047 45394 Z" fill="#2D5967" transform="translate(9882,8949)"/>
  <path d="M 224076 0 L 15721 0 L 0 7873 L 0 15741 L 15721 15741 L 224076 15741 L 239862 15741 L 239862 7873 L 224076 0 Z" fill="#2D5967" transform="translate(73345,319502)"/>
  <path d="M 45367 147306 L 45367 0 L 0 0 L 2246 147306 L 45367 147306 Z M 29710 15737 L 29710 131662 L 17711 131662 L 16042 15737 L 29710 15737 Z" fill="#2D5967" transform="translate(86949,160389)"/>
  <path d="M 0 0 L 0 178690 L 43185 178690 L 43185 0 L 0 0 Z M 27464 163046 L 15722 163046 L 15722 15646 L 27529 15646 L 27464 163046 Z" fill="#2D5967" transform="translate(144122,129006)"/>
  <path d="M 27592 114279 L 15721 114279 L 15721 31016 C 8727,21696 3337,11192 0,0 L 0 129923 L 43314 129923 L 43314 55537 C 37667,52196 32405,48303 27592,43918 L 27592 114279 Z" fill="#2D5967" transform="translate(199115,177779)"/>
  <path d="M 27529 7045 L 27529 52794 L 15722 52794 L 15722 5124 C 10331,3873 5070,2159 0,0 L 0 68438 L 43249 68438 L 43249 7777 L 37346 7777 C 34074,7718 30801,7474 27529,7045 Z" fill="#2D5967" transform="translate(254171,239264)"/>
  <path d="M 84510 168900 C 101194,168900 117556,163947 131417,154668 C 145342,145388 156186,132198 162538,116768 C 168955,101337 170624,84356 167351,67975 C 164078,51593 156057,36546 144250,24735 C 132444,12925 117364,4881 101001,1623 C 84574,-1636 67570,36 52169,6428 C 36704,12820 23486,23645 14245,37532 C 4941,51420 0,67748 0,84450 C 0,106840 8920,128306 24769,144138 C 40618,159971 62115,168876 84510,168900 Z M 84510 15646 C 95161,15706 105749,18260 115246,23104 C 124807,27949 133085,34951 139438,43552 L 127695 50231 C 123781,46427 118776,43980 113386,43255 C 107995,42529 102541,43564 97793,46205 L 83034 54806 L 87975 63223 L 75334 70543 L 80852 79692 L 93429 72281 L 98306 80699 L 85665 88018 L 90606 96436 L 103247 89116 L 108765 98266 L 123460 89665 C 127760,86916 131160,82952 133214,78276 C 135267,73600 135845,68424 134946,63406 L 147266 56361 C 154389,71971 155416,89671 150154,105987 C 144828,122302 133663,136052 118712,144536 C 103824,153020 86242,155624 69558,151837 C 52810,148049 38051,138144 28298,124067 L 43121 114918 C 46907,118785 51848,121260 57239,121941 C 62628,122623 68018,121469 72703,118669 L 89515 108879 L 84060 99730 L 70393 107690 L 65451 99272 L 79184 91403 L 74243 82986 L 60575 90946 L 55120 81797 L 68724 73837 L 63783 65511 L 47485 75667 C 43121,78423 39720,82438 37731,87178 C 35741,91918 35228,97158 36255,102200 L 21112 111349 C 16684,100888 14887,89489 15914,78171 C 17005,66852 20791,55966 27079,46487 C 33367,37008 41902,29230 51912,23848 C 61923,18466 73088,15648 84510,15646 Z" fill="#2D5967" transform="translate(207008,66153)"/>
</svg>