<svg xmlns="http://www.w3.org/2000/svg" viewBox="0 0 385010 359345" width="40" height="38">
  <path d="M 218673 324948 L 218673 311954 L 157931 311954 L 157931 324948 L 115368 349493 L 72895 324948 L 72895 275856 L 83682 269656 L 53523 217168 L 42479 223453 L 0 198908 L 0 149903 L 42479 125358 L 54287 132152 L 83766 79835 L 72895 73635 L 72895 24545 L 115368 0 L 157931 24545 L 157931 37539 L 218673 37539 L 218673 24545 L 261153 0 L 303626 24545 L 303626 73635 L 292922 79835 L 322998 131728 L 334042 125358 L 376604 149903 L 376604 198908 L 334042 223453 L 323762 217508 L 292922 269741 L 303626 275856 L 303626 324948 L 261153 349493 L 218673 324948 Z" fill="#FFFFFF" transform="translate(4247,4930)"/>
  <path d="M 265394 9767 L 303709 31934 L 303709 76438 L 291305 83572 L 325289 143024 L 337943 135720 L 376174 157802 L 376174 202051 L 337943 224133 L 326136 217254 L 291049 276706 L 303369 283755 L 303369 327922 L 265054 350002 L 226829 327922 L 226829 312630 L 157931 312630 L 157931 327408 L 119616 349489 L 81385 327408 L 81385 283245 L 93448 276111 L 59465 216660 L 46894 223963 L 8496 201457 L 8496 157208 L 46727 135126 L 60145 142854 L 94129 83402 L 81385 76438 L 81385 31934 L 119616 9767 L 157931 31934 L 157931 46713 L 227169 46713 L 227169 31934 L 265394 9767 Z M 265394 0 L 261146 2463 L 222921 24545 L 218673 27009 L 218673 38219 L 166427 38219 L 166427 27009 L 162179 24545 L 123864 2463 L 119616 0 L 115368 2463 L 77137 24545 L 72889 27009 L 72889 80939 L 77137 83402 L 82238 86375 L 56751 131219 L 50802 127822 L 46554 125359 L 42306 127822 L 4248 149904 L 0 152367 L 0 206298 L 4248 208761 L 42479 230843 L 46727 233306 L 50975 230843 L 56154 227870 L 82148 273053 L 77137 275941 L 72889 278404 L 72889 332337 L 77137 334801 L 115368 356881 L 119616 359345 L 123864 356881 L 162179 334801 L 166427 332337 L 166427 321126 L 218673 321126 L 218673 332337 L 222921 334801 L 261146 356881 L 265394 359345 L 269642 356881 L 307957 334801 L 312205 332337 L 312205 278404 L 307957 275941 L 303029 273139 L 329537 228210 L 334035 230843 L 338283 233306 L 342531 230843 L 380763 208761 L 385011 206298 L 385011 152367 L 380763 149904 L 342531 127822 L 338283 125359 L 334035 127822 L 328773 130879 L 303285 86290 L 308297 83402 L 312545 80939 L 312545 27009 L 308297 24545 L 269642 2463 L 265394 0 Z" fill="#FFFFFF"/>
  <path d="M 329794 125358 L 317133 132662 L 283149 73210 L 295213 66671 L 295213 22167 L 256905 0 L 218673 22167 L 218673 36945 L 149436 36945 L 149436 22167 L 111121 0 L 72889 22167 L 72889 66671 L 84953 73465 L 50976 132917 L 38232 125358 L 0 147440 L 0 191689 L 38232 213771 L 50976 206467 L 84953 265919 L 72639 273053 L 72639 317220 L 110864 339300 L 149179 317220 L 149179 302865 L 218417 302865 L 218417 317643 L 256648 339724 L 294963 317643 L 294963 273477 L 282643 266429 L 317730 206977 L 329537 213856 L 367768 191774 L 367768 147440 L 329794 125358 Z M 233201 30575 L 256905 16901 L 280352 30575 L 280352 58178 L 256905 71597 L 233201 58178 L 233201 30575 Z M 87507 30575 L 111121 16901 L 134824 30575 L 134824 58178 L 111121 71597 L 87507 58178 L 87507 30575 Z M 14611 183451 L 14611 155933 L 38232 142259 L 61935 155933 L 61935 183196 L 38232 196870 L 14611 183451 Z M 134824 309231 L 111121 322905 L 87507 309231 L 87507 281886 L 111121 268212 L 134824 281886 L 134824 309231 Z M 280602 309231 L 256905 322905 L 233201 309231 L 233201 281886 L 256905 268212 L 280352 281886 L 280602 309231 Z M 270239 259124 L 256905 251396 L 244411 258615 L 232180 237297 L 215189 237297 L 231674 265919 L 218500 273477 L 218500 288341 L 149436 288341 L 149436 273477 L 135928 265919 L 152920 237297 L 135928 237297 L 123608 258615 L 111121 251396 L 97870 259040 L 63886 199588 L 76463 191689 L 76463 177081 L 121997 177081 L 121997 162643 L 76463 162643 L 76463 147440 L 64143 140391 L 98126 80939 L 111294 88583 L 125141 80090 L 141280 108032 C 143526,103102 146599,98593 150372,94698 L 137628 73126 L 149436 66671 L 149436 51468 L 218673 51468 L 218673 66671 L 230993 73805 L 218333 95293 C 222113,99355 225154,104038 227336,109136 L 243648 81024 L 256905 88753 L 270239 81024 L 304222 140476 L 291222 147950 L 291222 162643 L 246368 162643 L 246368 177081 L 291986 177081 L 291986 191604 L 305750 199503 L 270239 259124 Z M 353497 183196 L 329794 196870 L 305833 183196 L 305833 155933 L 329537 142259 L 353241 155933 L 353497 183196 Z M 220881 127906 C 220881,118265 217050,109020 210229,102202 C 203414,95385 194167,91555 184523,91555 C 174878,91555 165632,95385 158811,102202 C 151989,109020 148158,118265 148158,127906 L 148158 138947 L 133124 138947 L 133124 226341 L 235068 226341 L 235068 138947 L 220881 138947 L 220881 127906 Z M 162776 127906 C 162776,125051 163334,122224 164432,119586 C 165522,116948 167120,114551 169142,112532 C 171163,110513 173563,108911 176200,107818 C 178837,106726 181667,106163 184523,106163 C 187378,106163 190208,106726 192845,107818 C 195483,108911 197883,110513 199897,112532 C 201919,114551 203523,116948 204614,119586 C 205705,122224 206270,125051 206270,127906 L 206270 138947 L 162346 138947 L 162776 127906 Z M 220881 211648 L 147908 211648 L 147908 153470 L 220881 153470 L 220881 211648 Z M 173389 175722 C 173389,172816 174544,170030 176604,167975 C 178658,165920 181443,164766 184349,164766 C 187256,164766 190048,165920 192101,167975 C 194155,170030 195310,172816 195310,175722 C 195342,177767 194790,179779 193724,181523 C 192659,183268 191113,184673 189278,185574 L 191318 199673 L 176707 199673 L 178915 185574 C 177150,184668 175667,183293 174635,181600 C 173601,179906 173050,177961 173050,175977" fill="#2D5967" transform="translate(8489,9765)"/>
</svg>