<svg xmlns="http://www.w3.org/2000/svg" viewBox="0 0 385928 385010" width="41" height="40">
  <path d="M 20168 375845 C 9170,375845 0,366675 0,355677 L 0 20167 C 0,9166 9170,0 20168,0 L 356597 0 C 367595,0 376765,9166 376765,20167 L 376765 356594 C 376765,367593 367595,376762 356597,376762 L 20168 375845 Z" fill="#FFFFFF" transform="translate(4581,4584)"/>
  <path d="M 360261 9167 C 368513,9167 375841,16500 375841,24750 L 375841 33918 L 375841 35751 L 375841 361178 C 375841,369424 368513,376759 360261,376759 L 24750 376759 C 16498,375841 9170,368513 9170,360261 L 9170 35751 L 9170 33001 L 9170 23834 C 9170,16500 16498,9167 24750,9167 L 360261 9167 Z M 360261 0 L 24750 0 C 10998,0 0,11000 0,24750 L 0 33918 L 0 35751 L 0 361178 C 0,374012 10998,385011 24750,385011 L 361178 385011 C 374930,385011 385928,374012 385928,360261 L 385928 35751 L 385928 33001 L 385928 23834 C 385011,11000 374012,0 360261,0 Z" fill="#FFFFFF"/>
  <path d="M 114586 0 L 0 0 L 0 111836 L 114586 111836 L 114586 0 Z M 100841 98086 L 13751 98086 L 13751 12834 L 100841 12834 L 100841 98086 Z" fill="#2D5967" transform="translate(67832,87088)"/>
  <path d="M 114586 0 L 0 0 L 0 111836 L 114586 111836 L 114586 0 Z M 100841 98086 L 13751 98086 L 13751 12834 L 100841 12834 L 100841 98086 Z" fill="#2D5967" transform="translate(203504,87088)"/>
  <path d="M 114586 0 L 0 0 L 0 111835 L 114586 111835 L 114586 0 Z M 100841 99003 L 13751 99003 L 13751 13751 L 100841 13751 L 100841 99003 Z" fill="#2D5967" transform="translate(67832,220005)"/>
  <path d="M 114586 0 L 0 0 L 0 111835 L 114586 111835 L 114586 0 Z M 100841 99003 L 13751 99003 L 13751 13751 L 100841 13751 L 100841 99003 Z" fill="#2D5967" transform="translate(203504,220005)"/>
  <path d="M 0 314425 C 0,322677 7328,330011 15580,330011 L 352009 330011 C 360254,330011 367589,322677 367589,314425 L 367589 0 L 0 0 L 0 314425 Z M 13745 13750 L 352926 13750 L 352926 315342 C 352926,316260 352009,317177 351091,317177 L 15580 317177 C 14663,317177 13745,316260 13745,315342 L 13745 13750 Z" fill="#2D5967" transform="translate(9169,45836)"/>
  <path d="M 351091 0 L 15580 0 C 7328,0 0,7334 0,15584 L 0 26584 L 366671 26584 L 366671 15584 C 366671,7334 359343,0 351091,0 Z" fill="#2D5967" transform="translate(9169,9167)"/>
</svg>