<svg xmlns="http://www.w3.org/2000/svg" viewBox="0 0 385023 356177" width="40" height="37">
  <path d="M 134837 269676 C 209304,269676 269674,209307 269674,134838 C 269674,60369 209304,0 134837,0 C 60369,0 0,60369 0,134838 C 0,209307 60369,269676 134837,269676 Z" fill="#FFFFFF" transform="translate(57681,43245)"/>
  <path d="M 139925 8480 C 212006,8480 270521,66994 270521,139078 C 270521,211161 212006,269674 139925,269674 C 67839,269674 8477,211161 8477,139078 C 8477,66994 67839,8480 139925,8480 Z M 139925 0 C 62750,0 0,61906 0,139078 C 0,216250 62750,278157 139079,278157 C 216248,278157 278157,215401 278157,139078 C 279004,61906 216248,0 139925,0 Z" fill="#FFFFFF" transform="translate(52586,39006)"/>
  <path d="M 188264 199288 C 100918,199288 27990,134838 16113,49186 C 6789,44946 0,35618 0,25441 C 0,11873 11878,0 25443,0 C 39015,0 50886,11873 50886,25441 C 50886,34770 45797,42402 38161,47490 C 49192,121269 112789,176393 187417,176393 L 191658 176393 L 191658 199288 L 188264 199288 Z" fill="#FFFFFF" transform="translate(4228,152641)"/>
  <path d="M 29684 8481 C 41556,8481 50879,17809 50879,29681 C 50879,38162 45797,45794 38161,49186 C 47491,125510 113636,184870 192505,184870 L 192505 199289 C 105159,199289 33919,133990 23742,50034 C 15266,47490 8483,39010 8483,29681 C 8483,17809 17807,8481 29684,8481 Z M 29684 0 C 13572,0 0,13568 0,29681 C 0,40706 6783,50882 16113,55970 C 28831,142470 103459,207772 192505,207772 L 200982 207772 L 200982 199289 L 200982 184870 L 200982 176393 L 192505 176393 C 120418,176393 59362,123814 47491,53426 C 54274,48338 59362,39010 59362,29681 C 59362,13568 45797,0 29684,0 Z" fill="#FFFFFF" transform="translate(0,148406)"/>
  <path d="M 166216 199289 C 151797,199289 140773,187416 140773,173848 C 140773,164519 145861,156887 153491,151799 C 142467,78019 78870,22897 4242,22897 L 0 22897 L 0 0 L 4242 0 C 91588,0 164515,64451 176393,150102 C 185716,154342 191658,163671 191658,173848 C 191658,187416 180628,199289 166216,199289 Z" fill="#FFFFFF" transform="translate(188257,4243)"/>
  <path d="M 8483 8481 C 94982,8481 167063,73780 177240,157735 C 185723,160279 192505,168760 192505,178088 C 192505,189960 183175,199289 171304,199289 C 159433,199289 150103,189960 150103,178088 C 150103,169607 155191,161975 162821,158583 C 153497,82260 87346,22897 8483,22897 L 8483 8481 Z M 8483 0 L 0 0 L 0 8481 L 0 22897 L 0 31378 L 8483 31378 C 80563,31378 141620,83956 153497,154343 C 145861,159432 141620,168760 141620,178088 C 141620,194201 155191,207770 171304,207770 C 187417,207770 200988,194201 200988,178088 C 200988,167064 194199,156887 184869,151799 C 171304,65299 96676,0 8483,0 Z" fill="#FFFFFF" transform="translate(184035,0)"/>
  <path d="M 131449 0 C 59362,0 0,58515 0,130598 C 0,202681 58515,261196 130596,261196 C 202682,261196 262044,202681 262044,130598 C 262044,58515 203529,0 131449,0 Z M 247626 123814 L 184022 123814 C 182328,84804 169610,46642 146708,15265 C 201835,22049 244238,67843 247626,123814 Z M 92434 137382 L 169610 137382 C 167909,175544 154344,212858 130596,243387 C 107700,212858 94135,176392 92434,137382 Z M 92434 123814 C 94135,85652 107700,48338 131449,17809 C 155191,48338 168756,84804 170457,123814 L 92434 123814 Z M 115336 15265 C 92434,46642 79716,84804 78022,123814 L 14418 123814 C 17807,67843 61056,22049 115336,15265 Z M 14418 137382 L 78022 137382 C 79716,176392 92434,214554 115336,245930 C 61056,239147 17807,193353 14418,137382 Z M 146708 245930 C 169610,214554 182328,176392 184022,137382 L 247626 137382 C 244238,193353 201835,239147 146708,245930 Z" fill="#2D5967" transform="translate(61069,47491)"/>
  <path d="M 29684 40705 C 37314,37313 42402,29681 42402,21201 C 42402,9328 33072,0 21201,0 C 9330,0 0,9328 0,21201 C 0,30529 6789,39009 15265,41554 C 25443,125509 96676,190810 184028,190810 L 184028 176391 C 104312,176391 39014,117029 29684,40705 Z M 21201 14416 C 25443,14416 27984,17809 27984,21201 C 27984,24593 25443,27985 21201,27985 C 16960,27985 14418,25441 14418,21201 C 14418,16960 16960,14416 21201,14416 Z" fill="#2D5967" transform="translate(8483,156891)"/>
  <path d="M 167916 149254 C 157739,65299 86499,0 0,0 L 0 14417 C 78870,14417 145014,73780 154344,150103 C 146715,153495 140779,161127 140779,169607 C 140779,181480 150103,190809 161974,190809 C 173851,190809 183175,181480 183175,169607 C 183175,160279 177239,151799 167916,149254 Z M 161974 176392 C 157739,176392 155191,172999 155191,169607 C 155191,166215 158586,162824 161974,162824 C 166216,162824 168763,166215 168763,169607 C 168763,172999 166216,176392 161974,176392 Z" fill="#2D5967" transform="translate(192518,8485)"/>
</svg>