<svg xmlns="http://www.w3.org/2000/svg" viewBox="0 0 385011 347577" width="40" height="36">
  <path d="M 328052 339254 C 317079,339216 306491,335462 297957,328602 C 289487,321749 283519,312195 281145,301517 L 94414 301517 C 92361,310924 87485,319471 80426,326055 C 73368,332632 64512,336931 55015,338388 C 45518,339838 35764,338382 27102,334211 C 18375,330033 11188,323328 6376,314979 C 1563,306625 -619,297019 151,287413 C 857,277802 4514,268643 10547,261132 C 16578,253621 24728,248108 33968,245318 C 43144,242526 53026,242586 62202,245490 L 155567 83369 C 150626,78894 146648,73428 143953,67325 C 141258,61222 139910,54620 139910,47949 C 139910,39965 141899,32109 145749,25093 C 149536,18077 155054,12122 161727,7767 C 168401,3413 176101,797 183994,155 C 191951,-486 199972,868 207287,4094 C 214538,7321 220955,12318 225831,18634 C 230708,24949 233917,32383 235200,40263 C 236483,48142 235778,56218 233147,63759 C 230580,71301 226088,78069 220185,83451 L 313550 245490 C 318234,243996 323111,243242 328052,243255 C 340757,243255 352949,248312 361933,257314 C 370917,266315 375985,278524 375985,291256 C 375985,303981 370917,316192 361933,325195 C 352949,334198 340757,339254 328052,339254 Z" fill="#FFFFFF" transform="translate(4822,4188)"/>
  <path d="M 192667 8276 C 201778,8305 210697,11172 218077,16478 C 225521,21785 231103,29268 234055,37890 C 237007,46512 237263,55845 234696,64596 C 232130,73348 226868,81083 219745,86729 L 316448 254726 C 321709,252599 327356,251531 333003,251581 C 341409,251575 349687,253999 356745,258560 C 363867,263123 369450,269630 372915,277304 C 376445,284978 377600,293493 376381,301835 C 375161,310170 371568,317980 366050,324326 C 360467,330666 353216,335279 345131,337602 C 337046,339925 328447,339867 320362,337429 C 312341,334997 305154,330287 299635,323864 C 294181,317447 290716,309593 289625,301238 L 95515 301238 C 94424,309593 90960,317447 85441,323864 C 79986,330287 72800,334997 64779,337429 C 56693,339867 48095,339925 40010,337602 C 31924,335279 24673,330666 19091,324326 C 13572,317980 9979,310170 8760,301835 C 7541,293493 8695,284978 12225,277304 C 15690,269630 21273,263123 28396,258560 C 35454,253999 43732,251575 52138,251581 C 57784,251533 63431,252601 68693,254726 L 165395 86647 C 158208,81002 152946,73250 150380,64475 C 147813,55699 148069,46339 151086,37703 C 154101,29068 159684,21588 167192,16312 C 174635,11036 183554,8226 192667,8276 Z M 192667 0 C 182464,-3 172453,3002 163919,8643 C 155449,14285 148776,22311 144733,31724 C 140755,41136 139599,51520 141460,61580 C 143321,71640 148069,80933 155128,88302 L 64779 244795 C 60607,243800 56373,243300 52138,243305 C 42448,243295 32887,245997 24673,251104 C 16396,256212 9787,263522 5423,272214 C 1124,280905 -673,290631 226,300295 C 1124,309965 4717,319186 10557,326925 C 16396,334663 24289,340612 33336,344096 C 42384,347587 52266,348472 61763,346663 C 71324,344853 80179,340419 87302,333855 C 94424,327290 99622,318859 102253,309509 L 282759 309509 C 285325,318859 290523,327290 297646,333855 C 304833,340419 313688,344853 323185,346663 C 332746,348472 342564,347587 351612,344096 C 360659,340612 368552,334663 374391,326925 C 380295,319186 383888,309965 384786,300295 C 385685,290631 383888,280905 379525,272214 C 375225,263522 368552,256212 360274,251104 C 352061,245997 342564,243295 332874,243305 C 328639,243300 324405,243801 320298,244795 L 230205 88384 C 237328,81006 242076,71708 243937,61647 C 245734,51586 244579,41204 240600,31790 C 236622,22376 229948,14345 221414,8694 C 212880,3042 202933,19 192667,0 Z" fill="#FFFFFF"/>
  <path d="M 324703 243418 C 318992,243368 313410,244437 308148,246563 L 211382 78567 C 218568,72933 223895,65191 226462,56418 C 229028,47646 228836,38283 225884,29633 C 222868,20984 217285,13479 209842,8167 C 202399,2855 193479,0 184367,0 C 175191,0 166335,2855 158892,8167 C 151449,13479 145802,20984 142850,29633 C 139898,38283 139642,47646 142272,56418 C 144839,65191 150101,72933 157288,78567 L 60394 246563 C 55132,244439 49549,243370 43902,243418 C 35432,243413 27219,245836 20096,250398 C 13038,254960 7455,261468 3925,269142 C 460,276814 -759,285336 460,293671 C 1744,302013 5337,309816 10855,316162 C 16438,322509 23689,327116 31774,329439 C 39860,331762 48458,331704 56479,329272 C 64564,326834 71751,322124 77206,315707 C 82660,309284 86189,301429 87280,293075 L 281261 293075 C 282352,301429 285881,309284 291336,315707 C 296790,322124 303977,326834 312062,329272 C 320083,331704 328682,331762 336767,329439 C 344917,327116 352168,322509 357686,316162 C 363204,309816 366862,302013 368081,293671 C 369300,285336 368081,276814 364616,269142 C 361151,261468 355504,254960 348445,250398 C 341323,245836 333110,243413 324703,243418 Z M 324703 318813 C 318415,318825 312318,316984 307121,313519 C 301860,310047 297817,305113 295443,299331 C 293005,293556 292362,287190 293582,281049 C 294801,274910 297817,269269 302244,264843 C 306672,260417 312318,257405 318479,256187 C 324575,254970 330927,255603 336703,258006 C 342478,260409 347419,264474 350884,269685 C 354349,274897 356210,281017 356210,287280 C 356146,295635 352809,303643 346905,309553 C 341002,315457 333046,318787 324703,318813 Z M 43966 318813 C 37678,318813 31582,316952 26384,313474 C 21186,310002 17144,305055 14770,299273 C 12395,293492 11754,287133 12973,280998 C 14192,274865 17208,269231 21636,264814 C 26063,260396 31710,257392 37871,256182 C 43966,254971 50319,255609 56094,258014 C 61870,260420 66811,264484 70275,269694 C 73741,274903 75538,281024 75538,287280 C 75538,295648 72201,303669 66233,309579 C 60330,315489 52309,318813 43966,318813 Z M 152989 43975 C 152989,37718 154850,31603 158378,26403 C 161844,21202 166785,17150 172560,14760 C 178336,12370 184688,11749 190784,12975 C 196944,14202 202526,17221 206954,21650 C 211382,26079 214398,31720 215617,37858 C 216772,43996 216194,50355 213756,56130 C 211382,61905 207275,66837 202078,70300 C 196880,73764 190784,75604 184495,75588 C 176153,75566 168132,72225 162229,66299 C 156325,60373 152989,52345 152989,43975 Z M 290116 260301 L 225306 223060 C 227681,216889 228708,210249 228194,203636 C 227681,197023 225755,190609 222419,184872 C 219082,179135 214526,174224 209007,170505 C 203553,166785 197265,164354 190720,163393 L 190720 87422 C 194185,86943 197650,86025 200922,84691 L 297817 252688 C 294929,254896 292362,257454 290116,260301 Z M 184495 238370 C 178271,238370 172175,236510 166978,233025 C 161780,229540 157673,224588 155299,218797 C 152924,213006 152347,206637 153566,200498 C 154785,194359 157865,188726 162293,184315 C 166721,179905 172368,176913 178527,175721 C 184688,174530 191041,175191 196752,177623 C 202526,180053 207467,184144 210933,189375 C 214334,194606 216130,200743 216130,207005 C 216066,215347 212666,223324 206762,229199 C 200858,235074 192837,238371 184495,238370 Z M 178399 87422 L 178399 163393 C 167940,164890 158314,170128 151384,178142 C 144454,186156 140668,196407 140668,207005 C 140604,212677 141695,218304 143813,223557 L 78618 260881 C 76372,258063 73869,255508 71045,253267 L 168132 84691 C 171469,86025 174870,86943 178399,87422 Z M 84713 271060 L 149973 233736 C 154080,239012 159277,243282 165309,246219 C 171276,249156 177822,250683 184495,250683 C 191169,250683 197778,249156 203746,246219 C 209777,243282 214975,239012 219082,233736 L 283892 270977 C 282609,274365 281711,277892 281261,281486 L 87344 281486 C 86896,277918 85997,274416 84713,271060 Z" fill="#2D5967" transform="translate(8171,8158)"/>
</svg>