<svg xmlns="http://www.w3.org/2000/svg" viewBox="0 0 385010 347212" width="40" height="36">
  <path d="M 183907 337317 C 126990,309275 93173,264740 90734,216080 L 90734 191339 L 0 191339 L 834 180617 C 3337,149277 21432,122061 48639,107215 C 55249,103916 60190,97318 61858,89896 C 65965,67628 80852,49484 101450,40412 C 109728,36289 119610,34639 128657,34639 C 131160,34639 132764,34639 135267,34639 C 136101,34639 136935,34639 137769,34639 C 144315,34639 150924,32164 155031,27216 C 170752,9897 193018,0 216889,0 C 249101,0 277913,18144 291966,46185 C 294469,54433 301014,59381 308457,61031 C 318339,63504 327452,66803 335665,72576 C 373588,96494 386807,146803 365375,186390 L 362872 191339 L 286191 191339 L 286191 216080 C 283688,264740 249101,308454 193018,337317 L 188847 339794 L 183907 337317 Z" fill="#FFFFFF" transform="translate(4941,3300)"/>
  <path d="M 221060 8248 C 251540,8248 278747,25567 292801,52783 C 296907,61031 304351,65979 312564,68453 C 321676,70103 330724,73402 338167,79175 C 374423,102267 386807,149277 366979,187215 L 365375 190514 L 287025 190514 L 287025 219380 C 284523,266389 250706,309276 195457,337318 L 193018 338139 L 190516 336490 C 135267,308449 102284,265565 98948,218555 L 98948 190514 L 9048 190514 L 9882 183916 C 12385,154226 28876,127834 56083,114638 C 64361,110515 69302,103092 70906,94845 C 74243,73402 88232,56082 107225,47835 C 115439,44536 124551,42062 132764,42062 C 134433,42062 136935,42062 138539,42062 C 139374,42062 140208,42062 141042,42062 C 149256,42062 155865,38763 161640,32990 C 177297,17320 198729,8248 221060,8248 Z M 221060 0 C 196291,0 173191,9897 156700,28041 C 152593,32165 147652,33814 142711,33814 C 141876,33814 141042,33814 141042,33814 C 138539,33814 136935,33814 134433,33814 C 124551,33814 114669,36289 105557,39587 C 82456,49484 66800,69278 61858,92370 C 60190,98144 56917,103917 51142,106391 C 22266,122061 3273,150102 834,183091 L 834 189689 L 0 197936 L 9048 197936 L 90734 197936 L 90734 217730 L 90734 218555 C 94007,268864 128658,314224 186410,343915 L 188848 345564 L 193018 347213 L 197125 345564 L 199564 343915 C 257315,315052 292801,269688 295239,219380 L 295239 197936 L 365375 197936 L 370316 197936 L 372754 193813 L 374423 190514 C 396689,149277 382701,96494 343108,71752 C 333997,65979 324949,61855 314233,60206 C 307623,58556 302683,54433 299410,48660 C 284523,18969 254813,0 221060,0 Z" fill="#FFFFFF"/>
  <path d="M 329889 70927 C 321612,65979 313398,61855 304286,60206 C 295239,58556 287795,52783 284523,44536 C 270469,17320 243262,0 212782,0 C 190516,0 169019,9072 154196,25567 C 148422,32165 140208,35464 131096,33814 C 119546,32990 108829,34639 98947,39587 C 79954,47835 65965,65154 61858,85773 C 60190,94020 54415,101443 46971,105566 C 20598,119587 3273,145153 770,174844 L 0 181442 L 80788 181442 L 80788 169071 L 13988 169071 C 18095,145978 32148,127009 52746,115463 C 64297,109690 71740,98968 74178,87422 C 77515,70927 89066,56906 103888,50309 C 112166,47010 121214,45361 129427,46185 C 141812,47835 154196,42886 162474,33814 C 174795,19794 193788,12371 211948,12371 C 237487,12371 261422,26392 272138,50309 C 277913,61855 287795,69278 300179,72577 C 308393,74226 315003,77525 322446,81649 C 352156,100618 363706,138556 347985,170720 L 288629 170720 L 288629 183091 L 357097 183091 L 358701 179792 C 379364,141030 366145,93195 329889,70927 Z" fill="#2D5967" transform="translate(8278,8241)"/>
  <path d="M 0 40412 L 0 127834 C 2503,174844 36319,217729 91568,245771 L 94006 247420 L 96509 245771 C 151758,217729 184740,174844 188077,127834 L 188077 39587 L 94006 0 L 0 40412 Z M 175693 127834 C 173191,168246 145983,205358 99781,230929 L 99781 220206 L 99781 100618 L 87462 100618 L 87462 220206 L 87462 230929 C 41260,205358 14053,168246 11550,127834 L 11550 48660 L 87462 16495 L 87462 26392 L 87462 85773 L 99781 85773 L 99781 26392 L 99781 16495 L 175693 48660 L 175693 127834 Z" fill="#2D5967" transform="translate(98948,90719)"/>
</svg>