<svg xmlns="http://www.w3.org/2000/svg" viewBox="0 0 385010 331272" width="40" height="35">
  <path d="M 359837 244337 L 359837 185384 L 352304 185384 L 352304 181907 L 351970 181907 L 356860 172799 C 377554,134464 364804,86193 327958,63010 C 319847,57876 310986,54233 301630,52163 C 297574,51252 294180,48685 292441,45042 C 278530,17222 250629,0 219578,0 C 196971,0 175199,9522 159882,26081 C 157642,28482 154498,29890 151020,29890 C 150610,29890 150109,29890 149698,29890 C 147626,29725 145476,29559 143320,29559 C 134048,29559 124609,31546 116080,35272 C 95880,44131 81224,62429 76919,84123 C 76174,88014 73691,91244 70046,93148 C 43384,107141 26161,133470 23928,163443 L 22517 182073 L 30467 182073 L 30467 185550 L 30467 240363 C 12667,247069 0,264208 0,284328 C 0,310245 21028,331273 46945,331273 C 72857,331273 93891,310245 93891,284328 C 93891,264871 82052,248146 65157,241025 L 65157 220160 L 177849 220160 L 177849 236968 C 165760,240777 154248,248394 147876,260234 C 131147,267851 114919,284908 115503,312311 L 115663 319106 L 115914 329290 L 255679 329290 L 257829 321750 L 259240 316700 C 259985,314050 266113,290621 254684,272240 C 250295,265202 244250,260068 236634,256756 C 233406,250132 226450,240611 212539,236223 L 212539 220077 L 325231 220077 L 325231 244337 L 300058 244337 L 300058 329290 L 385011 329290 L 385011 244337 L 359837 244337 Z" fill="#FFFFFF"/>
  <path d="M 308503 109127 L 161204 109127 L 161204 26495 L 182322 47608 L 192088 37838 L 154248 0 L 116415 37838 L 126181 47608 L 147292 26495 L 147292 109127 L 0 109127 L 0 152679 C 1983,152431 3972,152265 6045,152265 C 8688,152265 11339,152514 13822,152927 L 13822 122955 L 147292 122955 L 147292 149450 C 149942,149119 152593,148954 155409,148954 C 157399,148954 159298,149036 161121,149285 L 161121 123038 L 294591 123038 L 294591 159469 L 308419 159469 L 308419 109210 L 308503 109127 Z" fill="#2C5967" transform="translate(40984,86694)"/>
  <path d="M 0 22687 C 0,35192 10184,45375 22690,45375 C 35190,45375 45374,35192 45374,22687 C 45374,10184 35190,0 22690,0 C 10184,0 0,10184 0,22687 Z" fill="#FFFFFF" transform="translate(24339,261565)"/>
  <path d="M 73197 36597 C 73197,56714 56802,73192 36602,73192 C 16395,73192 0,56797 0,36597 C 0,16394 16395,0 36602,0 C 56802,0 73197,16394 73197,36597 Z" fill="#FFFFFF" transform="translate(10428,247653)"/>
  <path d="M 0 36597 C 0,56714 16395,73192 36602,73192 C 56802,73192 73197,56797 73197,36597 C 73197,16394 56802,0 36602,0 C 16395,0 0,16394 0,36597 Z M 59285 36597 C 59285,49097 49102,59281 36602,59281 C 24095,59281 13912,49097 13912,36597 C 13912,24095 24095,13910 36602,13910 C 49102,13910 59285,24095 59285,36597 Z" fill="#2C5967" transform="translate(10511,247653)"/>
  <path d="M 64085 64083 L 0 64083 L 0 0 L 64085 0 L 64085 64083 Z" fill="#FFFFFF" transform="translate(310492,254857)"/>
  <path d="M 0 36432 L 36435 36432 L 36435 0 L 0 0 L 0 36432 Z" fill="#FFFFFF" transform="translate(324314,268602)"/>
  <path d="M 0 0 L 0 64084 L 64085 64084 L 64085 0 L 0 0 Z M 50257 50256 L 13822 50256 L 13822 13828 L 50257 13828 L 50257 50256 Z" fill="#2C5967" transform="translate(310492,254772)"/>
  <path d="M 146137 161291 L 146137 147463 L 15644 147463 C 19205,128999 30878,113268 47856,104326 C 57957,99026 65073,89587 67229,78492 C 69963,64582 79318,52825 92319,47112 C 99108,44131 106474,42972 113764,43635 C 125269,44711 136364,40571 144064,32291 C 154832,20699 170149,13993 185960,13993 C 207739,13993 227361,26164 237128,45622 C 242261,55806 251617,63092 262795,65576 C 269424,67066 275712,69633 281430,73276 C 306430,89008 315708,120885 303703,147380 L 177182 147380 L 177182 161208 L 312064 161208 L 314047 157564 C 332180,124031 321002,81804 288713,61519 C 281590,57048 273813,53819 265695,51997 C 258573,50424 252611,45787 249384,39329 C 237295,15069 212872,0 185793,0 C 166087,0 147131,8280 133714,22687 C 128998,27820 122125,30387 114919,29641 C 105313,28731 95463,30304 86518,34195 C 69379,41730 57045,57213 53401,75594 C 51995,82549 47606,88511 41145,91823 C 17717,104159 2483,127260 577,153673 L 0 161125 L 146137 161125 L 146137 161291 Z" fill="#2C5967" transform="translate(33451,10271)"/>
  <path d="M 27567 17305 L 26572 21444 L 22433 22438 C 21606,22604 3228,27406 0,46865 L 96625 46865 C 97369,41070 97453,32705 93808,26826 C 91324,22770 87269,20368 81468,19292 L 76335 18381 L 75841 13165 C 75591,11012 73357,0 56134,0 C 38912,0 29222,10350 27483,17388 L 27567 17305 Z" fill="#FFFFFF" transform="translate(140259,258253)"/>
  <path d="M 29659 24012 C 17403,28400 -564,41565 14,67811 L 180 74600 L 121895 74600 L 123300 69550 C 123550,68722 129178,48354 119989,33451 C 116101,27241 110383,22935 102933,20617 C 99949,11592 90927,0 70560,0 C 54415,0 35948,8198 29743,24012 L 29659 24012 Z M 90183 27075 L 90677 32291 L 95810 33202 C 101612,34279 105667,36763 108150,40737 C 111795,46533 111711,54977 110967,60771 L 14342 60771 C 17570,41317 35948,36597 36776,36349 L 40914 35355 L 41909 31215 C 43648,24260 52676,13828 70560,13828 C 88444,13828 89933,24840 90266,26992 L 90183 27075 Z" fill="#2C5967" transform="translate(126001,244257)"/>
</svg>