<svg xmlns="http://www.w3.org/2000/svg" viewBox="0 0 385010 380730" width="40" height="40">
  <path d="M 188392 370666 C 154556,370666 125289,347784 116145,314833 L 110658 314833 C 103343,338633 81391,355105 56699,355105 C 25610,355105 0,329483 0,298363 C 0,267245 26521,242534 57617,242534 C 72247,242534 86878,248940 96939,259008 L 96939 222399 C 96939,198603 116145,179383 139919,179383 L 145406 179383 L 145406 166570 C 139008,160164 134433,152842 131693,144605 L 47555 144605 L 48473 133622 C 50302,109827 64014,88776 85049,77794 C 89624,75963 92364,71387 93282,67727 C 96939,51253 107912,36609 123460,29287 C 129864,26541 137179,24711 144494,24711 C 146323,24711 148152,24711 149063,24711 C 149981,24711 149981,24711 150898,24711 C 154556,24711 159125,22881 161871,20135 C 173755,7322 191132,0 209426,0 C 234118,0 256064,13728 267037,35694 C 268866,40270 273441,43015 278010,43930 C 285331,45761 292646,48507 299044,52168 C 328311,70472 338373,108911 321907,139114 L 319167 144605 L 246920 144605 C 243262,152842 238687,161079 231372,167485 L 231372 179383 L 237776 179383 C 261550,179383 280756,198603 280756,222399 L 280756 255347 C 290818,245279 305448,238873 320078,238873 C 351174,238873 376778,264499 376778,295617 C 376778,326737 351174,352359 320078,352359 C 296304,352359 275270,337716 267037,315751 L 260639 315751 C 252406,347784 222228,370666 188392,370666 Z" fill="#FFFFFF" transform="translate(3658,4577)"/>
  <path d="M 212166 9152 C 235030,9152 255146,21965 265208,42100 C 267954,47592 272523,51253 278927,53083 C 286243,54913 292647,57659 298133,61320 C 325565,78709 334715,113488 319167,141860 L 317338 144605 L 265208 144605 L 253318 144605 L 244174 144605 C 241434,154673 235030,162910 227714,170231 L 227714 188536 L 238687 188536 C 259722,188536 277098,205925 277098,226975 L 277098 272736 C 286243,258092 302702,248025 320996,248025 C 349346,248025 373120,270906 373120,300193 C 373120,329479 350257,352362 320996,352362 C 297215,352362 278010,336801 271612,315752 L 258810 315752 C 252407,347786 224057,371580 190221,371580 C 156385,371580 128946,347786 121631,315752 L 108830 315752 C 103343,338630 83220,356019 58528,356019 C 30178,356019 6404,333143 6404,303854 C 6404,275482 29267,251686 58528,251686 C 77734,251686 94193,261754 103343,277312 L 103343 226975 C 103343,205925 120714,188536 141748,188536 L 151810 188536 L 151810 169316 C 144494,162910 139008,154673 136262,145521 L 53959 145521 L 54870 139114 C 56699,117148 69501,97929 88706,86946 C 94193,84201 97850,78709 98768,73217 C 101508,57659 112487,44846 126200,38439 C 132604,35694 139008,34779 145406,34779 C 147234,34779 148152,34779 149981,34779 C 150892,34779 150892,34779 151810,34779 C 157296,34779 161871,32948 165529,28372 C 180159,16474 195707,9152 212166,9152 Z M 212166 0 C 192961,0 174673,8237 161871,21965 C 160042,23796 157296,24711 154556,24711 L 153638 24711 C 151810,24711 149981,24711 148152,24711 C 139919,24711 132604,26541 125289,29287 C 107912,36609 96022,52168 92364,70472 C 91453,74133 89624,76879 86878,78709 C 64014,90607 49384,112573 47555,137283 L 46638 143690 L 45726 153757 L 55788 153757 L 131693 153757 C 134433,161079 139008,167486 144494,172977 L 144494 179383 L 143577 179383 C 117056,179383 96022,201349 96022,226975 L 96022 253517 C 85966,247110 73158,242534 61274,242534 C 27438,242534 0,269991 0,303854 C 0,337718 27438,365176 61274,365176 C 86878,365176 108830,349615 117974,326733 C 128946,358766 159125,380730 192961,380730 C 227714,380730 257893,357854 267954,325822 C 278010,347786 299044,362430 323736,362430 C 357572,362430 385011,334972 385011,301108 C 385011,267245 357572,239788 323736,239788 C 310934,239788 299044,243449 288989,250771 L 288989 227890 C 288989,201349 267037,180299 241434,180299 L 239605 180299 L 239605 173892 C 245091,168401 249660,161079 253318,153757 L 256064 153757 L 267954 153757 L 320078 153757 L 325565 153757 L 328311 149181 L 330140 146436 C 347517,114403 336544,73217 305448,53998 C 298133,49422 290818,46676 283503,44846 C 279839,43930 277098,42100 276181,39354 C 262468,14643 238687,0 212166,0 Z" fill="#FFFFFF"/>
  <path d="M 12802 123555 C 15542,107996 25603,95183 40234,86946 C 48466,82370 54870,74132 56699,64981 C 59439,53083 66754,43015 77734,38439 C 83220,35694 89618,34778 96022,35694 C 106083,36609 115227,32948 121631,26541 C 130775,16474 143577,10982 157296,10982 C 175584,10982 192043,21050 200276,37524 C 204851,45761 212166,52168 222228,53998 C 227714,54913 233201,57659 237770,60404 C 258804,73217 267037,100674 256064,122639 L 201194 122639 C 201194,126301 200276,130877 199365,134537 L 263379 134537 L 265208 131792 C 280756,103420 270694,67726 244174,51252 C 237770,47591 231372,44845 224968,43015 C 218564,42100 213995,37524 211249,32032 C 199365,12813 178330,0 155467,0 C 139002,0 122542,7322 111570,19220 C 107912,23796 101508,25626 96022,24711 C 87789,23796 79562,25626 72247,28371 C 57610,34778 47555,47591 44809,63150 C 43898,68642 40234,74132 34747,76878 C 14630,86946 1829,107081 911,129046 L 0 135452 L 73158 135452 C 72247,131792 71330,128131 71330,123555 L 12802 123555 Z" fill="#2C5967" transform="translate(56700,9152)"/>
  <path d="M 111570 55828 C 111570,24711 86878,0 55788,0 C 24692,0 0,24711 0,55828 C 0,86946 24692,111657 55788,111657 C 86878,111657 111570,86031 111570,55828 Z M 55788 10982 C 80480,10982 100597,31117 100597,55828 C 100597,80540 80480,100674 55788,100674 C 31096,100674 10973,80540 10973,55828 C 10973,31117 31096,10982 55788,10982 Z" fill="#2C5967" transform="translate(136262,72302)"/>
  <path d="M 10062 91523 C 10062,90607 10062,90607 10973,89692 L 10973 38439 C 10973,23796 22863,10983 38411,10983 L 43898 10983 C 54870,23796 69501,30203 86878,30203 C 104254,30203 118885,22881 129864,10983 L 135350 10983 C 149981,10983 162782,22881 162782,38439 L 162782 87862 C 165529,81455 169186,75049 174673,69557 L 174673 38439 C 174673,17390 157296,0 136262,0 L 125289 0 L 123460 1831 C 115227,12813 102426,19220 88706,19220 C 74987,19220 62186,12813 53959,1831 L 49384 0 L 38411 0 C 17377,0 0,17390 0,38439 L 0 74133 C 3658,78710 7315,85116 10062,91523 Z" fill="#2C5967" transform="translate(106084,188535)"/>
  <path d="M 52130 0 C 23781,0 0,22881 0,52168 C 0,81458 22863,104334 52130,104334 C 81391,104334 104254,81458 104254,52168 C 104254,22881 80480,0 52130,0 Z M 52130 92437 C 30178,92437 11890,74136 11890,52168 C 11890,30203 30178,11898 52130,11898 C 74076,11898 92364,30203 92364,52168 C 91453,74136 74076,92437 52130,92437 Z" fill="#2C5967" transform="translate(9144,251691)"/>
  <path d="M 24692 23796 L 12802 23796 C 10973,23796 10055,22881 10055,21050 C 10055,20135 11884,18304 12802,18304 L 34747 18304 L 34747 8237 L 23774 8237 L 23774 0 L 13713 0 L 13713 8237 L 12802 8237 C 5486,8237 0,13728 0,21050 C 0,28372 5486,33863 12802,33863 L 23774 33863 C 25603,33863 26521,34779 26521,36609 C 26521,38439 25603,39354 23774,39354 L 2740 39354 L 2740 49422 L 13713 49422 L 13713 57661 L 23774 57661 L 23774 49422 L 24692 49422 C 32007,49422 37494,43929 37494,36609 C 37494,30202 32007,23796 24692,23796 Z" fill="#2C5967" transform="translate(42069,274564)"/>
  <path d="M 52130 0 C 23781,0 0,22881 0,52168 C 0,81457 22863,104333 52130,104333 C 80480,104333 104254,81457 104254,52168 C 104254,22881 81391,0 52130,0 Z M 52130 92436 C 30178,92436 11890,74135 11890,52168 C 11890,30203 30178,11898 52130,11898 C 74076,11898 92364,30203 92364,52168 C 92364,74135 74994,92436 52130,92436 Z" fill="#2C5967" transform="translate(270695,248029)"/>
  <path d="M 21946 25626 L 8233 10982 L 0 19220 L 21946 42098 L 55782 8237 L 47555 0 L 21946 25626 Z" fill="#2C5967" transform="translate(294476,278230)"/>
  <path d="M 69501 0 C 30178,0 0,30202 0,69557 C 0,108911 31090,140026 69501,140026 C 107912,140026 139002,107993 139002,69557 C 139919,30202 108823,0 69501,0 Z M 11884 69557 C 11884,37524 37494,11897 70418,11897 C 103337,11897 128946,37524 128946,69557 C 128946,102506 102426,128129 70418,128129 C 38405,128129 11884,101589 11884,69557 Z" fill="#2C5967" transform="translate(122549,230636)"/>
  <path d="M 59446 25086 C 59446,16849 55788,9527 49384,4951 C 42980,375 35665,-1456 28350,1290 C 17377,4036 10062,14103 10062,26001 L 10062 31492 L 0 31492 L 0 80000 L 69501 80000 L 69501 31492 L 59446 31492 L 59446 25086 Z M 21946 26001 C 21946,19595 25603,14103 31096,13188 C 34754,12272 39322,13188 42069,15018 C 45726,17764 47555,21425 47555,26001 L 47555 31492 L 21034 31492 L 21034 26001 L 21946 26001 Z M 58528 68103 L 11890 68103 L 11890 42475 L 58528 42475 L 58528 68103 Z" fill="#2C5967" transform="translate(157296,254972)"/>
</svg>