<svg xmlns="http://www.w3.org/2000/svg" viewBox="0 0 384998 374420" width="40" height="39">
  <path d="M 104338 0 L 11614 0 C 4491,22287 898,46357 0,69535 L 115888 69535 C 115054,46357 111461,22287 104338,0 Z" fill="#FFFFFF" transform="translate(129235,111433)"/>
  <path d="M 35614 0 L 0 0 C 834,24962 7123,49032 17775,69535 L 52554 69535 C 43635,47248 37411,23179 35614,0 Z" fill="#FFFFFF" transform="translate(20533,193448)"/>
  <path d="M 33817 0 L 0 0 C 20470,32987 52554,58841 90927,70429 C 69495,54381 49025,29419 33817,0 Z" fill="#FFFFFF" transform="translate(45495,274577)"/>
  <path d="M 6288 0 C 2695,0 0,2675 0,6240 C 0,9806 2695,12481 6288,12481 C 9818,12481 12513,9806 12513,6240 C 12513,2675 9818,0 6288,0 Z" fill="#FFFFFF" transform="translate(154196,243374)"/>
  <path d="M 42801 0 C 24063,22287 9754,48140 0,75776 L 85536 75776 C 75783,48140 61473,22287 42801,0 Z" fill="#FFFFFF" transform="translate(144443,24069)"/>
  <path d="M 36576 37442 C 44598,48140 50822,58838 57110,70427 L 90093 70427 C 69559,37442 38373,11589 0,0 C 13412,8915 25860,22287 36576,37442 Z" fill="#FFFFFF" transform="translate(238000,29420)"/>
  <path d="M 6224 0 C 2631,0 0,2675 0,6240 C 0,9806 2631,12481 6224,12481 C 9754,12481 12448,9806 12448,6240 C 12448,2675 9754,0 6224,0 Z" fill="#FFFFFF" transform="translate(328093,173839)"/>
  <path d="M 29274 0 C 22986,0 16761,1783 12334,5348 C -1077,14263 -3708,32984 5211,46357 L 29274 82015 L 53337 46357 C 60460,36550 60460,23178 53337,12481 C 47049,4457 38194,0 29274,0 Z M 28376 48140 C 18558,48140 10537,40116 10537,30310 C 10537,20504 18558,12481 28376,12481 C 38194,12481 46215,20504 46215,30310 C 46215,40116 38194,48140 28376,48140 Z" fill="#FFFFFF" transform="translate(132109,219305)"/>
  <path d="M 80211 76667 C 75783,67752 69494,58837 64168,50814 C 44533,24070 21368,6240 0,0 C 17839,23178 32084,49031 41004,76667 L 80211 76667 Z" fill="#FFFFFF" transform="translate(201489,23179)"/>
  <path d="M 53337 12481 C 47947,4458 39028,0 29274,0 C 22986,0 16762,1783 12334,5349 C -1077,14264 -3708,32985 5211,46357 L 29274 82016 L 53337 46357 C 60460,36551 59562,23179 53337,12481 Z M 28376 48140 C 18558,48140 10537,40117 10537,30311 C 10537,20504 18558,12481 28376,12481 C 38194,12481 46215,20504 46215,30311 C 46215,40117 38194,48140 28376,48140 Z" fill="#FFFFFF" transform="translate(305941,149769)"/>
  <path d="M 36576 32987 C 24962,48137 12513,61510 0,70429 C 37475,57949 69559,32987 90093,0 L 57110 0 C 51720,11589 44598,22287 36576,32987 Z" fill="#FFFFFF" transform="translate(238000,274577)"/>
  <path d="M 64168 25852 C 70393,17830 75783,8915 80211,0 L 41004 0 C 31186,27635 17839,53489 0,76667 C 20469,71321 44533,52597 64168,25852 Z" fill="#FFFFFF" transform="translate(201489,274577)"/>
  <path d="M 5837 47248 L 29900 82908 L 53963 47248 C 61150,37442 61150,24070 53963,13373 C 47739,5349 38820,0 29900,0 C 23676,0 17452,1783 12960,5349 C -1286,15155 -3981,32985 5837,47248 Z M 29002 12481 C 38820,12481 46841,20504 46841,30311 C 46841,40117 38820,48140 29002,48140 C 19248,48140 11227,40117 11227,30311 C 11227,20504 19248,12481 29002,12481 Z" fill="#FFFFFF" transform="translate(33369,70428)"/>
  <path d="M 6224 11590 C 9818,11590 12513,8915 12513,5349 C 12513,1783 9818,0 6224,0 C 2695,0 0,2675 0,5349 C 0,8024 2695,11590 6224,11590 Z" fill="#FFFFFF" transform="translate(56147,95386)"/>
  <path d="M 135460 81125 C 138155,77558 139053,73101 140850,69535 L 165812 69535 C 172934,47248 176527,23178 177362,0 L 61474 0 C 61474,5349 61474,10698 62372,16047 C 57944,19612 54351,23178 51720,27636 C 50822,18721 49923,9806 49923,892 L 0 892 C 898,24962 8021,49032 18673,70427 L 44533 70427 C 45432,74885 47229,78450 49923,82016 L 24962 82016 C 46330,120347 77516,150660 105172,158681 C 101643,153336 98050,148876 94457,143531 L 101643 132827 C 106969,141747 113193,149768 119418,157789 C 138155,135503 152400,109650 162218,82016 L 135460 82016 L 135460 81125 Z M 126605 79342 L 92724 129266 L 58843 79342 C 52554,70427 49923,58838 51720,48140 C 53453,37442 59741,27636 68596,21396 C 75783,16939 83804,14264 92724,14264 C 106071,14264 118520,20504 126605,32093 C 136358,46357 136358,65078 126605,79342 Z" fill="#FFFFFF" transform="translate(68659,193448)"/>
  <path d="M 376219 150660 C 374423,147985 371728,145311 369097,142636 C 367300,137287 366402,131047 363707,125698 L 363707 124807 C 362809,122132 361910,120349 361076,117675 C 360177,115000 358380,112326 357482,108760 L 357482 107868 C 356584,106086 355686,104303 354787,102520 C 353055,98953 351258,96280 349461,92714 C 348563,91822 348563,90930 347665,90039 L 346766 89147 C 312885,33876 253208,0 187180,0 C 139952,0 94520,17829 59741,49922 C 50822,50814 41004,53488 33881,58837 C 23165,66860 15144,78450 13347,91822 C 12448,98953 12448,106977 15144,114109 L 13347 117675 C 12448,120349 11615,123024 11615,123024 C 11615,123915 10716,124807 10716,125698 L 10716 126590 C 9818,129264 8920,132830 8021,135504 C 7123,138179 6224,140854 6224,144419 L 6224 145311 C 5326,147985 5326,149768 4427,152442 C 3594,156008 3594,159574 2695,163141 L 2695 164923 C 2695,166706 2695,167598 1797,169381 C 0,175621 0,181861 0,187210 C 0,193450 0,199691 898,205931 C 898,208606 1797,212172 1797,214846 L 1797 217521 C 1797,218412 1797,219303 1797,220195 C 1797,221978 1797,222869 2695,224652 C 3594,229109 4427,234459 6224,239808 C 6224,240699 6224,241590 7123,241590 C 32084,320930 104274,374421 187180,374421 C 239797,374421 290619,352135 326296,312017 C 329826,308449 332520,304888 335216,301320 L 336114 300428 C 345034,288839 352156,277249 357482,264769 C 357482,264769 357482,263877 358380,263877 C 359279,261203 360177,258528 361076,256746 L 361910 255854 C 362809,253180 363707,251396 364605,248722 C 365503,246047 366402,243373 367300,240699 C 367300,239808 367300,239808 368198,238916 C 368198,238024 369097,237133 369097,236241 L 375321 212172 L 377118 209497 C 387770,190776 387770,167598 376219,150660 Z M 335216 252288 L 301335 202365 C 295111,193450 292415,181861 294212,171163 C 295945,160466 302233,150660 311153,144419 C 318275,139962 326296,137287 335216,137287 C 348563,137287 361076,143527 369097,155117 C 376219,165814 378016,179187 374423,190776 C 373524,194342 371728,198800 369097,202365 L 335216 252288 Z M 360177 231784 C 340541,306665 273678,362832 193468,365508 C 191671,365508 188976,365508 187180,365508 C 185447,365508 182752,365508 180955,365508 C 85600,361940 8920,283490 8920,187210 C 8920,165814 12448,145311 19636,125698 C 20534,126590 20534,127481 21368,128373 L 27657 137287 C 23165,150660 20534,164923 20534,180078 L 56147 180078 L 56147 179187 L 62372 188101 L 67762 180078 L 116786 180078 C 117685,156008 121214,132830 127503,110543 L 111461 110543 C 112295,106977 112295,102520 112295,98953 L 131032 98953 C 140849,71318 154197,45465 172036,22286 C 149769,28527 125706,49031 106071,76667 C 105172,74884 104274,73101 103439,71318 C 102541,69535 100744,67752 98948,65969 C 109664,50814 122113,38334 135524,28527 C 116786,34767 99846,43682 84702,55271 C 82007,53488 77579,51706 72189,50814 C 101643,25853 139053,10698 180955,8914 C 182752,8914 185447,8914 187180,8914 C 188976,8914 191671,8914 193468,8914 C 270149,11589 335216,63294 357482,133721 C 353055,131047 348563,130155 343237,129264 C 340541,123024 337847,116783 335216,111434 L 300436 111434 C 303966,119458 306661,127481 309356,135504 C 307560,136396 306661,137287 304864,138179 C 303132,139962 300436,141745 298640,143527 C 295945,132830 291517,122132 287025,112326 L 246022 112326 C 252310,134613 256738,158683 256738,181861 L 284394 181861 C 284394,186319 285293,189885 286191,193450 L 256738 193450 C 255839,217521 252310,240699 246022,262986 L 287025 262986 C 293314,248722 298640,234459 301335,220195 L 310254 233567 C 307560,243373 303966,253180 299539,262986 L 329826 262986 L 333419 268334 L 345868 250505 L 360177 231784 Z M 22266 92714 C 24063,82016 30287,72209 39207,65969 C 46329,61512 54350,58837 63270,58837 C 76681,58837 89130,65078 97151,76667 C 106969,90930 106969,109652 97151,123915 L 63270 173838 L 29389 123915 C 23165,115000 20534,104303 22266,92714 Z" fill="#FFFFFF"/>
  <path d="M 326296 259420 L 322703 254072 L 292415 254072 C 296843,244265 300436,234459 303067,224652 L 294212 211280 C 291517,225544 286191,239808 279903,254072 L 238899 254072 C 245123,231785 249615,207714 249615,184536 L 279004 184536 C 278106,180970 277272,176513 277272,172947 L 249615 172947 C 248717,148877 245123,125698 238899,103411 L 279903 103411 C 284394,114109 288822,123916 291517,134613 C 293314,132831 295046,131047 297742,129264 C 298640,128373 300436,127481 302233,126590 C 299538,118567 296843,110544 293314,102520 L 328029 102520 C 330724,108760 333419,114109 336050,120350 C 341440,121241 345868,123024 350359,124807 C 326296,54380 262064,2675 184548,0 C 182752,0 180056,0 178260,0 C 176527,0 173832,0 172035,0 C 131032,1783 93622,16938 63270,41899 C 67761,42791 72189,44574 76681,46357 C 91825,34768 108765,25853 127503,19612 C 114092,29419 101643,42791 90927,57055 C 92723,58837 93622,60621 95354,62404 C 96253,64186 97151,65970 98050,67752 C 117685,40117 141748,20504 164014,13372 C 146176,36550 131930,62404 123011,90039 L 104274 90039 C 104274,93605 104274,98063 103375,101629 L 119482 101629 C 113193,123916 108765,147985 108765,171164 L 59740 171164 L 54350 179187 L 48126 170272 L 48126 171164 L 12448 171164 C 13347,156009 15144,141745 19635,128373 L 13347 119458 C 12448,118567 11614,117675 11614,116784 C 3529,136396 0,156900 0,178296 C 0,274575 76681,353023 172035,356591 C 173832,356591 176527,356591 178260,356591 C 180056,356591 182752,356591 184548,356591 C 264759,353915 331622,297755 351258,222870 L 338745 241591 L 326296 259420 Z M 320008 90931 L 287025 90931 C 281700,79342 274577,68644 266556,57946 C 254941,42791 242493,29419 229979,20504 C 267454,32093 298640,57946 320008,90931 Z M 256738 65078 C 262962,73101 268352,82016 272780,90931 L 233573 90931 C 223755,63295 210409,37442 192570,14263 C 213039,19612 237102,38334 256738,65078 Z M 178260 15155 C 196997,37442 211306,63295 221060,90931 L 135524 90931 C 145277,63295 159587,37442 178260,15155 Z M 131930 102520 L 225552 102520 C 232675,124807 236268,148877 237102,172055 L 121214 172055 C 121214,148877 124807,124807 131930,102520 Z M 11614 184536 L 47228 184536 C 48126,207714 54350,231785 64168,254072 L 30287 254072 C 19635,232676 12448,209498 11614,184536 Z M 36576 265660 L 70393 265660 C 84702,294187 105172,320041 127503,336089 C 90028,324500 57944,298647 36576,265660 Z M 178260 341434 C 172035,333413 165811,325392 160485,316473 L 153298 327170 C 156891,332521 160485,336981 164014,342326 C 136422,334305 105172,303992 83804,265660 L 108765 265660 C 106071,262095 104274,257637 103375,254072 L 77579 254072 C 66864,231785 60639,207714 58843,184536 L 107867 184536 C 107867,193451 108765,202365 109664,211280 C 112295,206823 115888,203257 120316,199691 C 120316,194342 119482,188993 119482,183644 L 235369 183644 C 234472,207714 230878,230893 223755,253180 L 198794 253180 C 197895,257637 196098,261203 193468,264769 L 219327 264769 C 211306,293295 196997,319149 178260,341434 Z M 233573 265660 L 272780 265660 C 268352,274575 262064,283490 256738,291511 C 237102,318257 213937,336089 192570,342326 C 210409,319149 223755,293295 233573,265660 Z M 229081 336089 C 241594,326284 254043,313803 265657,298647 C 273678,287947 279903,277250 286191,265660 L 319174 265660 C 298640,298647 267454,324500 229081,336089 Z" fill="#2C5967" transform="translate(8919,8917)"/>
  <path d="M 7645 65078 L 41526 115001 L 75407 65078 C 85225,50814 85225,32093 75407,17830 C 67386,6240 54937,0 41526,0 C 32606,0 24585,2675 17463,7132 C 8543,13373 2319,23179 522,33876 C -1211,45466 1421,56163 7645,65078 Z M 23751 16939 C 28179,13373 35302,11589 40627,11589 C 50445,11589 58466,16047 64755,24070 C 71877,33876 71877,48140 64755,57947 L 40627 93606 L 16564 57947 C 7645,44574 10340,26745 23751,16939 Z" fill="#2C5967" transform="translate(21744,58837)"/>
  <path d="M 17775 35659 C 27593,35659 35614,27635 35614,17829 C 35614,8023 27593,0 17775,0 C 8021,0 0,8023 0,17829 C 0,27635 8021,35659 17775,35659 Z M 17775 12481 C 21369,12481 24063,15155 24063,18721 C 24063,22287 21369,24070 17775,24070 C 14246,24070 11551,21395 11551,17829 C 11551,14263 14246,12481 17775,12481 Z" fill="#2C5967" transform="translate(44596,82905)"/>
  <path d="M 75432 17830 C 67411,6240 54898,0 41550,0 C 32631,0 24610,2675 17487,7132 C 8568,13372 2344,23178 547,33876 C -1249,44574 1445,55271 7669,65078 L 41550 115001 L 75432 65078 C 78063,61512 79859,57946 80757,53489 C 85250,41008 83453,27636 75432,17830 Z M 42449 92714 L 18386 57055 C 8568,43683 12097,24962 25508,16047 C 29936,12481 37059,10698 42449,10698 C 52267,10698 61122,15155 66512,23178 C 73635,32985 73635,47248 66512,57055 L 42449 92714 Z" fill="#2C5967" transform="translate(292766,138176)"/>
  <path d="M 17839 0 C 8021,0 0,8024 0,17830 C 0,27636 8021,35659 17839,35659 C 27657,35659 35678,27636 35678,17830 C 35678,8024 27657,0 17839,0 Z M 17839 23178 C 14246,23178 11615,20504 11615,16938 C 11615,13372 14246,10698 17839,10698 C 21369,10698 24063,13372 24063,16938 C 24063,20504 21369,23178 17839,23178 Z" fill="#2C5967" transform="translate(316478,162250)"/>
  <path d="M 41557 0 C 32638,0 24617,2675 17430,7132 C 8575,13372 2286,23179 554,33876 C -1243,44574 1388,55272 7676,65078 L 41557 115002 L 75438 65078 C 85191,50814 85191,32093 75438,17830 C 67353,6240 54904,0 41557,0 Z M 65620 57946 L 41557 93608 L 17430 57946 C 7676,44574 11206,25853 24617,16939 C 29044,13372 36167,11589 41557,11589 C 51311,11589 60230,16047 65620,24070 C 71845,34768 72743,48140 65620,57946 Z" fill="#2C5967" transform="translate(119826,207712)"/>
  <path d="M 17839 0 C 8021,0 0,8024 0,17830 C 0,27636 8021,35659 17839,35659 C 27657,35659 35678,27636 35678,17830 C 35678,8024 27657,0 17839,0 Z M 17839 24070 C 14245,24070 11551,21396 11551,17830 C 11551,14264 14245,11589 17839,11589 C 21369,11589 24063,14264 24063,17830 C 24063,21396 21369,24070 17839,24070 Z" fill="#2C5967" transform="translate(142646,231786)"/>
</svg>