<svg xmlns="http://www.w3.org/2000/svg" viewBox="0 0 368948 385010" width="39" height="40">
  <path d="M 327817 68455 C 319379,63110 310088,59234 300347,57007 C 297863,56475 295534,55371 293545,53780 C 291556,52188 289971,50161 288899,47851 C 282675,35325 273486,24500 262141,16312 C 250796,8124 237635,2817 223781,854 C 209927,-1110 195804,327 182630,5031 C 169456,9741 157623,17589 148159,27888 C 146785,29389 145117,30596 143256,31430 C 141402,32264 139393,32713 137353,32739 L 135703 32739 C 133509,32739 131218,32739 129023,32739 C 119154,32765 109394,34824 100360,38784 C 89842,43397 80602,50488 73428,59446 C 66248,68410 61351,78979 59151,90247 C 58592,92615 57501,94828 55961,96715 C 54421,98601 52477,100116 50270,101142 C 36448,108374 24698,119013 16138,132059 C 7578,145104 2496,160120 1373,175680 L 732 183554 L 0 193539 L 104569 193539 L 104569 216248 L 56128 216248 L 56128 385011 L 91568 385011 L 94315 381533 L 116934 352869 L 234966 352869 L 234966 337667 L 299525 337667 L 299525 193539 L 353735 193539 L 356391 188777 L 358496 184748 C 369026,165073 371721,142146 366030,120566 C 360338,98993 346683,80371 327817,68455 Z" fill="#FFFFFF"/>
  <path d="M 338071 174328 L 295585 174328 L 295585 159306 L 328914 159306 C 332797,150643 334703,141223 334504,131733 C 334298,122236 331988,112906 327740,104416 C 323486,95927 317403,88483 309927,82631 C 302451,76779 293770,72659 284504,70574 C 278606,69207 273088,66557 268340,62803 C 263591,59049 259728,54294 257033,48872 C 252567,39927 245990,32195 237879,26342 C 229768,20484 220361,16685 210460,15267 C 200558,13842 190458,14844 181032,18174 C 171599,21511 163116,27074 156308,34402 C 152143,38843 147010,42256 141305,44387 C 135601,46511 129486,47300 123435,46677 C 115420,45908 107341,47229 99994,50521 C 93012,53550 86871,58221 82084,64138 C 77304,70048 74018,77036 72523,84492 C 71349,90440 68859,96042 65227,100893 C 61602,105745 56924,109716 51553,112514 C 42595,117192 34805,123827 28760,131925 C 22722,140030 18583,149385 16665,159306 L 88822 159306 L 88822 174328 L 0 174328 L 546 166268 C 1617,152222 6269,138689 14059,126952 C 21856,115216 32521,105674 45046,99238 C 48325,97467 51174,95003 53388,92012 C 55602,89022 57136,85576 57867,81932 C 60806,66826 69257,53357 81584,44149 C 93904,34941 109215,30648 124532,32118 C 128292,32528 132097,32053 135646,30738 C 139188,29416 142377,27286 144950,24514 C 153452,15402 164040,8484 175796,4352 C 187558,226 200141,-993 212474,810 C 224808,2613 236518,7374 246612,14690 C 256699,22011 264862,31662 270406,42827 C 272151,46280 274641,49308 277702,51683 C 280756,54057 284298,55725 288078,56566 C 296946,58497 305410,61969 313078,66820 C 329973,77504 342197,94194 347299,113522 C 352394,132856 349981,153402 340548,171030 L 338071 174328 Z" fill="#2D5967" transform="translate(9901,10066)"/>
  <path d="M 0 0 L 0 150449 L 21888 150449 L 47157 118307 L 160524 118307 L 160524 0 L 0 0 Z M 13462 15105 L 147061 15105 L 147061 104659 L 40657 104659 L 15291 136897 L 13462 136897 L 13462 15105 Z" fill="#2D5967" transform="translate(65285,225404)"/>
  <path d="M 0 0 L 0 59523 L 53298 29761 L 0 0 Z" fill="#2D5967" transform="translate(124981,255069)"/>
  <path d="M 135800 0 L 0 0 L 0 114464 L 15105 114464 L 15105 15105 L 120322 15105 L 120322 56404 L 161525 56404 L 161525 217293 L 125905 217293 L 125905 232495 L 176636 232495 L 176636 40195 L 135800 0 Z M 135338 41754 L 135338 22523 L 156398 41664 L 135338 41754 Z" fill="#2D5967" transform="translate(113739,96015)"/>
</svg>