<svg xmlns="http://www.w3.org/2000/svg" viewBox="0 0 385010 341992" width="40" height="36">
  <path d="M 284382 334679 L 284382 331021 L 93269 331021 L 93269 334679 L 60350 334679 L 60350 192942 L 0 192942 L 911 179226 C 3658,148136 21028,119789 49378,105158 C 55775,102415 59433,96014 61262,89613 C 65837,67667 80467,48464 101495,39320 C 110639,35662 119783,33833 129845,33833 C 131673,33833 134413,33833 136242,33833 C 137160,33833 138071,33833 138071,33833 C 144475,33833 149050,31090 153619,27433 C 170078,10058 192024,0 215798,0 C 247805,0 277066,18288 291697,47549 C 294443,53951 299929,57609 307245,59437 C 317300,61266 326444,65838 334677,70410 C 373082,95100 386795,145393 364849,185627 L 361191 192028 L 316389 192028 L 316389 334679 L 284382 334679 Z" fill="#FFFFFF" transform="translate(4576,3656)"/>
  <path d="M 220374 9144 C 251463,9144 278895,26518 292615,53950 C 296272,61266 302676,66752 310902,68581 C 320046,70410 329191,74068 337423,79554 C 373999,102415 386801,150879 365766,188370 L 363938 192028 L 317306 192028 L 317306 329191 L 317306 332849 L 293532 332849 L 293532 329191 L 93269 329191 L 93269 332849 L 69495 332849 L 69495 329191 L 69495 192028 L 10062 192028 L 10973 183798 C 12802,153622 30178,128019 56693,113388 C 64008,109730 68583,102415 70412,95100 C 74070,74068 88700,56694 107899,48464 C 116132,44806 125276,42977 134420,42977 C 136249,42977 138078,42977 140818,42977 C 141735,42977 142646,42977 143564,42977 C 150879,42977 157283,40234 161852,34748 C 176482,18288 198428,9144 220374,9144 Z M 220374 0 C 195688,0 171914,10058 154537,28347 C 151797,32005 147222,33833 142646,33833 C 141735,33833 141735,33833 140818,33833 C 138078,33833 136249,33833 133502,33833 C 123447,33833 113385,35662 103331,40234 C 82296,49378 65837,69496 61268,93271 C 60351,98757 56693,102415 52124,105158 C 22863,120703 3658,149965 918,182884 L 0 191113 L 0 201172 L 10062 201172 L 60351 201172 L 60351 329191 L 60351 332849 L 60351 341993 L 69495 341993 L 93269 341993 L 102413 341993 L 102413 338335 L 284382 338335 L 284382 341993 L 293532 341993 L 317306 341993 L 326451 341993 L 326451 332849 L 326451 329191 L 326451 201172 L 363938 201172 L 369424 201172 L 372171 196600 L 373999 192028 C 396856,149965 383143,96928 341992,71324 C 332848,65838 322793,61266 312731,59437 C 307245,58523 302676,54865 300847,50293 C 285299,19202 254210,0 220374,0 Z" fill="#FFFFFF"/>
  <path d="M 327362 70411 C 319129,65839 309985,62180 300841,59437 C 292615,57608 286211,52122 282553,44807 C 268840,17374 241408,0 210312,0 C 188366,0 166421,9145 150879,25604 C 145393,31090 138078,34748 129845,33833 C 118872,32919 107899,34748 97844,39320 C 78638,47550 64008,64924 60351,85956 C 58522,94186 53946,100587 46631,104244 C 20117,117960 2740,144478 911,174654 L 0 183799 L 47549 183799 L 47549 168253 L 17371 168253 C 21028,147222 34747,128934 53946,118875 C 65837,112474 73152,102415 75892,89613 C 78638,74068 89611,60352 104242,53951 C 111557,50293 120701,49379 128934,50293 C 141735,51208 154537,46636 162763,37492 C 174654,24689 192024,16460 210312,16460 C 235004,16460 256950,30176 267922,52122 C 273409,64009 284382,72240 297183,74983 C 304498,76812 311814,79555 318218,84127 C 346561,101501 357534,138078 343821,168253 L 318218 168253 L 318218 183799 L 352965 183799 L 354794 179226 C 375822,141735 363938,93271 327362,70411 Z" fill="#2D5967" transform="translate(10062,8229)"/>
  <path d="M 27432 97840 L 15548 97840 L 15548 15545 L 27432 15545 L 27432 7315 L 27432 0 L 0 0 L 0 113388 L 27432 113388 L 27432 106073 L 27432 97840 Z" fill="#2D5967" transform="translate(257867,188370)"/>
  <path d="M 27432 97840 L 15548 97840 L 15548 15545 L 27432 15545 L 27432 7315 L 27432 0 L 0 0 L 0 113388 L 27432 113388 L 27432 106073 L 27432 97840 Z" fill="#2D5967" transform="translate(218545,188370)"/>
  <path d="M 27432 97840 L 15542 97840 L 15542 15545 L 27432 15545 L 27432 7315 L 27432 0 L 0 0 L 0 113388 L 27432 113388 L 27432 106073 L 27432 97840 Z" fill="#2D5967" transform="translate(179229,188370)"/>
  <path d="M 27432 97840 L 15548 97840 L 15548 15545 L 27432 15545 L 27432 7315 L 27432 0 L 0 0 L 0 113388 L 27432 113388 L 27432 106073 L 27432 97840 Z" fill="#2D5967" transform="translate(139907,188370)"/>
  <path d="M 27432 97840 L 15548 97840 L 15548 15545 L 27432 15545 L 27432 7315 L 27432 0 L 0 0 L 0 113388 L 27432 113388 L 27432 106073 L 27432 97840 Z" fill="#2D5967" transform="translate(100584,188370)"/>
  <path d="M 224038 3658 L 23774 3658 L 23774 0 L 0 0 L 0 3658 L 0 27433 L 0 149050 L 0 172825 L 0 176482 L 23774 176482 L 23774 172825 L 224038 172825 L 224038 176482 L 247812 176482 L 247812 172825 L 247812 149050 L 247812 27433 L 247812 3658 L 247812 0 L 224038 0 L 224038 3658 Z M 231353 149050 L 231353 157283 L 15548 157283 L 15548 149050 L 15548 27433 L 15548 19203 L 231353 19203 L 231353 27433 L 231353 149050 Z" fill="#2D5967" transform="translate(69495,156366)"/>
</svg>