<svg xmlns="http://www.w3.org/2000/svg" viewBox="0 0 385034 364695" width="40" height="38">
  <path d="M 248312 356615 L 248312 259541 L 236595 271175 L 226007 261274 C 218712,271881 209388,280941 198582,287936 L 197536 288539 C 194591,290368 192242,291670 189817,292883 L 187295 294096 C 185042,295142 182784,296098 180525,296964 L 177406 298094 C 175231,298877 172979,299480 170637,300089 L 167249 300955 C 164900,301520 162526,301950 160132,302258 L 159003 302258 L 156744 302258 C 153375,302611 149981,302784 146593,302784 L 145900 302784 C 142428,302784 139303,302784 136262,302784 C 112487,300314 90458,289129 74435,271380 C 58406,253631 49512,230576 49474,206660 C 49435,201957 49756,197253 50424,192594 L 0 192594 L 956 179485 C 2079,164059 7129,149184 15619,136267 C 24108,123350 35767,112820 49474,105678 C 52438,104132 55024,101944 57039,99268 C 59054,96592 60440,93499 61101,90220 C 64200,74415 72690,60183 85119,49954 C 97542,39719 113142,34124 129235,34124 C 131404,33996 133573,33996 135742,34124 L 137911 34124 C 140837,34169 143744,33591 146432,32443 C 149127,31288 151546,29587 153536,27438 C 162891,17286 174577,9560 187584,4934 C 200590,301 214528,-1098 228196,859 C 241857,2816 254845,8072 266029,16163 C 277214,24255 286268,34952 292403,47323 C 293859,50429 295996,53163 298659,55332 C 301316,57494 304428,59034 307764,59830 C 317550,61999 326893,65842 335363,71200 C 353991,83020 367467,101443 373082,122779 C 378703,144115 376046,166792 365657,186254 L 362186 192678 L 313495 192678 L 356892 236094 L 317749 272914 L 304293 259541 L 304293 356615 L 248312 356615 Z" fill="#FFFFFF" transform="translate(4684,3729)"/>
  <path d="M 220624 8682 C 235659,8638 250411,12802 263200,20701 C 275995,28607 286319,39933 293012,53402 C 294815,57040 297414,60223 300616,62712 C 303812,65208 307534,66954 311499,67820 C 320720,69925 329518,73563 337532,78588 C 355262,89811 368083,107329 373428,127625 C 378773,147922 376245,169488 366350,187995 L 364092 192076 L 307681 192076 L 355846 240003 L 323043 270830 L 304640 252766 L 304640 356007 L 257341 356007 L 257341 252766 L 241196 269181 L 229915 258497 C 222568,270445 212667,280616 200924,288283 L 199365 289240 C 197106,290542 194847,291845 192505,293058 L 190163 294187 L 183650 296966 L 180705 298005 L 174281 299917 L 170983 300783 C 168724,300783 166466,301656 164124,301913 C 161781,302176 162128,301913 160999,302433 C 157771,302786 154524,302959 151277,302959 L 150847 302959 C 147684,302959 144527,302786 141382,302433 C 118609,300116 97504,289432 82148,272447 C 66786,255461 58271,233381 58239,210479 C 58239,204448 58823,198428 59972,192506 L 9375 192506 L 9978 183824 C 11037,169136 15837,154954 23922,142647 C 32001,130333 43102,120297 56154,113489 C 59702,111641 62789,109016 65195,105814 C 67595,102619 69251,98923 70040,94995 C 72972,80192 80936,66858 92582,57264 C 104229,47671 118834,42409 133919,42377 C 135915,42377 138001,42377 139996,42377 L 142685 42377 C 146169,42448 149628,41806 152849,40497 C 156077,39182 158997,37218 161435,34735 C 168981,26560 178132,20027 188315,15542 C 198505,11063 209497,8727 220624,8682 Z M 220624 0 C 208310,26 196131,2587 184844,7515 C 173556,12443 163405,19642 155012,28658 C 153433,30346 151527,31687 149403,32598 C 147286,33509 144995,33971 142685,33952 L 140862 33952 C 138553,33824 136236,33824 133919,33952 C 116831,33971 100276,39920 87077,50777 C 73877,61641 64849,76746 61537,93520 C 60954,96106 59799,98531 58162,100623 C 56526,102708 54447,104403 52073,105590 C 37712,113072 25501,124109 16613,137655 C 7726,151201 2451,166793 1303,182957 L 693 191640 L 0 200758 L 49994 200758 C 49820,203851 49820,206950 49994,210049 L 49994 210916 C 50116,235819 59420,259799 76123,278254 C 92833,296715 115760,308356 140516,310948 C 143949,311294 147395,311468 150847,311468 L 151624 311468 C 155076,311474 158528,311275 161955,310858 L 164387 310858 L 165426 310858 C 167935,310556 170425,310120 172889,309555 L 175578 308862 L 176450 308862 C 178793,308253 181224,307560 183477,306777 L 186775 305564 C 189117,304691 191466,303652 193808,302606 L 196497 301303 C 198929,300091 201361,298705 203876,297139 L 204306 297139 L 205608 296356 C 215612,290010 224423,281957 231648,272562 L 235639 276297 L 241716 282027 L 247703 276040 L 249006 274738 L 249006 364695 L 313322 364695 L 313322 273692 L 316530 276996 L 322517 282983 L 328683 277170 L 361493 246343 L 367999 240177 L 361666 233837 L 328683 200758 L 369475 200758 L 371907 196240 L 374160 192076 C 385113,171645 387917,147819 382001,125405 C 376091,102997 361910,83657 342306,71292 C 333426,65690 323653,61634 313405,59305 C 310704,58734 308162,57560 305974,55878 C 303780,54197 301990,52048 300738,49583 C 293352,34651 281930,22094 267768,13328 C 253613,4563 237276,-51 220624,0 Z" fill="#FFFFFF"/>
  <path d="M 17441 167886 C 19469,157458 23819,147621 30178,139113 C 36531,130598 44732,123635 54158,118745 C 59786,115807 64688,111649 68506,106566 C 72318,101491 74949,95619 76200,89395 C 78542,77325 85306,66564 95162,59223 C 105018,51882 117261,48494 129492,49713 C 135883,50406 142351,49598 148383,47352 C 154408,45106 159831,41487 164207,36777 C 171400,29211 180300,23487 190163,20087 C 200026,16686 210556,15710 220881,17231 C 231199,18752 240997,22737 249461,28845 C 257919,34948 264791,43001 269488,52318 C 272414,57984 276547,62938 281603,66827 C 286660,70716 292512,73436 298736,74803 C 308477,76953 317608,81246 325475,87380 C 333336,93508 339733,101324 344193,110243 C 348653,119169 351059,128974 351245,138946 C 351431,148917 349384,158806 345258,167886 L 299256 167886 L 315054 183607 L 355153 183607 L 357412 179526 C 367306,161020 369835,139453 364489,119156 C 359144,98860 346317,81342 328594,70119 C 320579,65094 311775,61456 302554,59351 C 298589,58498 294860,56759 291658,54263 C 288463,51767 285864,48577 284067,44939 C 278241,33164 269629,22993 258984,15306 C 248338,7612 235979,2633 222979,797 C 209978,-1044 196727,316 184369,4750 C 172010,9191 160922,16577 152060,26266 C 149346,29160 145996,31380 142274,32753 C 138553,34127 134561,34608 130621,34172 C 114592,32696 98582,37200 85671,46813 C 72754,56432 63854,70484 60665,86270 C 59888,90197 58239,93899 55833,97102 C 53427,100304 50334,102922 46779,104763 C 33721,111571 22626,121608 14547,133921 C 6462,146229 1662,160404 603,175098 L 0 183780 L 38533 183780 C 39502,178384 40895,173071 42698,167886 L 17441 167886 Z" fill="#2D5967" transform="translate(9375,8462)"/>
  <path d="M 92878 0 C 77189,-26 61756,3927 48011,11486 C 34266,19052 22665,29986 14297,43256 C 5930,56532 1059,71708 155,87378 C -750,103048 2330,118686 9112,132835 C 15895,146984 26155,159183 38938,168288 C 51714,177387 66594,183092 82181,184876 C 97761,186653 113546,184452 128049,178465 C 142544,172478 155294,162911 165086,150655 L 153543 139804 C 142583,153895 127060,163732 109639,167621 C 92217,171509 73987,169206 58079,161108 C 42172,153010 29576,139618 22466,123242 C 15356,106860 14162,88514 19103,71355 C 24044,54197 34805,39291 49532,29203 C 64265,19116 82046,14477 99821,16087 C 117602,17691 134266,25443 146953,38001 C 159639,50565 167551,67159 169341,84921 L 183054 71201 C 178203,50931 166665,32880 150302,19963 C 133946,7046 113720,13 92878,0 Z" fill="#2D5967" transform="translate(57969,117390)"/>
  <path d="M 50513 51579 L 45912 51579 L 45912 32475 L 72908 32475 L 72908 16671 L 45912 16671 L 45912 0 L 30114 0 L 30114 16671 L 25520 16671 C 18788,16806 12378,19539 7623,24294 C 2862,29055 135,35472 0,42197 C 0,45515 654,48794 1925,51854 C 3195,54915 5056,57694 7405,60036 C 9747,62372 12532,64226 15599,65490 C 18660,66748 21945,67390 25257,67377 L 29857 67377 L 29857 86480 L 3125 86480 L 3125 102284 L 30114 102284 L 30114 119655 L 45912 119655 L 45912 102284 L 50513 102284 C 57232,102284 63681,99615 68435,94860 C 73184,90105 75853,83656 75853,76931 C 75853,70207 73184,63758 68435,59003 C 63681,54248 57232,51579 50513,51579 Z M 25520 51579 C 24275,51591 23043,51354 21888,50892 C 20739,50424 19687,49737 18801,48864 C 17916,47998 17210,46958 16722,45816 C 16235,44668 15984,43442 15971,42197 C 16010,39663 17030,37237 18801,35427 C 20579,33618 22985,32565 25520,32475 L 30114 32475 L 30114 51579 L 25520 51579 Z M 50513 86306 L 45912 86306 L 45912 67377 L 50513 67377 C 51765,67377 53009,67627 54164,68108 C 55326,68590 56378,69289 57264,70174 C 58149,71066 58855,72119 59336,73274 C 59811,74435 60062,75680 60062,76931 C 60062,78183 59811,79428 59336,80589 C 58855,81744 58149,82796 57264,83688 C 56378,84574 55326,85273 54164,85755 C 53009,86236 51765,86480 50513,86480 L 50513 86306 Z" fill="#2D5967" transform="translate(112827,150565)"/>
  <path d="M 45046 45065 L 0 0 L 0 141357 L 15798 141357 L 15798 38116 L 33849 56179 L 45046 45065 Z" fill="#2D5967" transform="translate(288847,214650)"/>
  <path d="M 27252 141357 L 42961 141357 L 42961 0 L 0 43063 L 11108 54267 L 27252 38116 L 27252 141357 Z" fill="#2D5967" transform="translate(230088,214650)"/>
  <path d="M 72555 0 L 0 72594 L 11107 83791 L 72555 22228 L 135999 85703 L 147196 74589 L 72555 0 Z" fill="#2D5967" transform="translate(208393,165414)"/>
</svg>