<svg xmlns="http://www.w3.org/2000/svg" viewBox="0 0 385010 308008" width="40" height="32">
  <path d="M 0 300674 L 0 21047 C 0,15477 2247,10139 6161,6192 C 10075,2246 15401,19 20983,0 L 117172 0 C 120444,6 123653,776 126605,2252 C 129556,3735 132059,5871 134048,8509 L 153620 34908 L 356713 34908 C 359472,34856 362231,35363 364862,36396 C 367428,37429 369803,38969 371792,40920 C 373781,42871 375322,45200 376412,47767 C 377503,50340 378016,53099 378016,55884 L 378016 300674 L 0 300674 Z" fill="#FFFFFF" transform="translate(3657,3664)"/>
  <path d="M 120829 7334 C 123524,7386 126220,8079 128658,9356 C 131032,10626 133149,12449 134689,14663 L 155480 42608 L 360370 42608 C 364926,42608 369354,44430 372626,47677 C 375834,50924 377695,55326 377695,59914 L 377695 300674 L 7315 300674 L 7315 24711 C 7315,20104 9176,15683 12448,12423 C 15721,9163 20149,7334 24769,7334 L 120829 7334 Z M 120829 0 L 24769 0 C 18159,0 11871,2605 7251,7238 C 2631,11871 0,18160 0,24711 L 0 308008 L 385011 308008 L 385011 59548 C 385011,53016 382379,46760 377759,42146 C 373140,37526 366851,34927 360370,34908 L 159202 34908 L 140657 9972 C 138347,6885 135331,4376 131931,2650 C 128465,918 124680,13 120829,0 L 120829 0 Z" fill="#FFFFFF"/>
  <path d="M 15401 103549 L 15401 15400 L 96381 15400 L 96381 0 L 0 0 L 0 121439 L 21112 121439 L 40426 96362 L 121471 96362 L 121471 80961 L 32790 80961 L 15401 103549 Z" fill="#2D5967" transform="translate(72959,127021)"/>
  <path d="M 69431 0 L 0 0 L 0 15400 L 69431 15400 L 69431 0 Z" fill="#2D5967" transform="translate(99910,154011)"/>
  <path d="M 69431 0 L 0 0 L 0 15401 L 69431 15401 L 69431 0 Z" fill="#2D5967" transform="translate(99910,180993)"/>
  <path d="M 0 96362 L 90670 96362 L 109921 121445 L 131096 121445 L 131096 0 L 0 0 L 0 96362 Z M 15401 15695 L 115760 15695 L 115760 103696 L 97985 80961 L 15401 80961 L 15401 15695 Z" fill="#2D5967" transform="translate(180955,100032)"/>
  <path d="M 77131 0 L 0 0 L 0 15400 L 77131 15400 L 77131 0 Z" fill="#2D5967" transform="translate(207970,127021)"/>
  <path d="M 77131 0 L 0 0 L 0 15400 L 77131 15400 L 77131 0 Z" fill="#2D5967" transform="translate(207970,154011)"/>
  <path d="M 353055 34908 L 148165 34908 L 127374 7334 C 125834,5114 123717,3298 121343,2021 C 118904,751 116209,58 113514,0 L 17454 0 C 12834,0 8406,1829 5133,5089 C 1861,8348 0,12769 0,17383 L 0 293339 L 370380 293339 L 370380 52214 C 370380,47626 368519,43224 365310,39977 C 362039,36730 357611,34908 353055,34908 Z M 17454 15400 L 113514 15400 C 113835,15400 114092,15477 114348,15619 C 114669,15760 114862,15959 115054,16209 L 134754 42678 L 115054 68789 C 114862,69039 114669,69238 114348,69379 C 114092,69520 113835,69591 113514,69597 L 15465 69597 L 15465 17383 C 15465,16857 15657,16350 16042,15978 C 16362,15612 16876,15400 17454,15400 Z M 355108 277939 L 15465 277939 L 15465 84998 L 113514 84998 C 116209,84998 118840,84375 121278,83175 C 123653,81982 125770,80243 127374,78099 L 148293 50308 L 353055 50308 C 353568,50308 354017,50507 354402,50866 C 354723,51226 354915,51707 354915,52214 L 355108 277939 Z" fill="#2D5967" transform="translate(7315,7341)"/>
  <path d="M 71355 0 L 0 0 L 0 15400 L 71355 15400 L 71355 0 Z" fill="#2D5967" transform="translate(40169,42249)"/>
</svg>