<svg xmlns="http://www.w3.org/2000/svg" viewBox="0 0 379761 385010" width="40" height="40">
  <path d="M 263379 336008 L 201251 368388 L 213501 299258 L 187250 273008 L 0 273008 L 0 49002 L 112879 49002 L 158374 42001 L 179376 0 L 199506 42001 L 245881 49002 L 212628 81377 L 220502 126878 L 179376 105878 L 138251 126878 L 146124 81377 L 135626 70877 L 21875 70877 L 21875 252007 L 164502 252007 L 162750 250257 L 232752 239756 L 263379 177630 L 294879 239756 L 364008 250257 L 313257 299258 L 325507 368388 L 263379 336008 Z" fill="#FFFFFF" transform="translate(4376,9622)"/>
  <path d="M 183753 20126 L 201251 56002 L 240632 61252 L 211756 89252 L 218757 128629 L 183753 110253 L 148755 128629 L 155756 89252 L 142627 76127 L 21875 76127 L 21875 265132 L 180256 265132 L 176752 262507 L 239752 253757 L 267756 196880 L 295759 253757 L 358759 262507 L 313257 307133 L 323755 370136 L 267756 340381 L 211756 370136 L 222254 307133 L 192505 278257 L 8746 278257 L 8746 63002 L 127753 63002 L 126001 61252 L 166254 56002 L 183753 20126 Z M 183753 0 L 175879 15750 L 160126 47251 L 125128 52501 L 112879 54251 L 8746 54251 L 0 54251 L 0 63002 L 0 278257 L 0 287008 L 8746 287008 L 189002 287008 L 212628 309758 L 203003 367512 L 200379 385011 L 216132 377137 L 268628 350007 L 321131 377137 L 336884 385011 L 334260 367512 L 324634 309758 L 366633 268632 L 379762 256382 L 362256 253757 L 303632 245007 L 277381 192505 L 269507 176755 L 261634 192505 L 235383 245007 L 176752 253757 L 159253 256382 L 30628 256382 L 30628 84877 L 138251 84877 L 146131 92752 L 140003 127754 L 137378 145254 L 153125 137379 L 184632 120753 L 216132 137379 L 231879 145254 L 229254 127754 L 223133 92752 L 248505 68252 L 261634 56002 L 244129 53377 L 209131 48126 L 193378 16625 L 183753 0 Z" fill="#FFFFFF"/>
  <path d="M 13129 203006 L 13129 13126 L 119007 13126 L 105878 0 L 0 0 L 0 215256 L 170630 215256 L 157508 203006 L 13129 203006 Z" fill="#2D5967" transform="translate(8746,63001)"/>
  <path d="M 182007 65627 L 119000 56876 L 91004 0 L 63001 56876 L 0 65627 L 45502 110253 L 34997 173252 L 91004 143504 L 147003 173252 L 136506 110253 L 182007 65627 Z M 51623 148753 L 59503 105003 L 28003 74377 L 71753 68252 L 91004 28876 L 110254 68252 L 154004 74377 L 122504 105003 L 129505 148753 L 90124 128629 L 51623 148753 Z" fill="#2D5967" transform="translate(176746,196877)"/>
  <path d="M 28876 69127 L 21875 108503 L 56879 90128 L 91883 108503 L 84882 69127 L 114631 41126 L 75257 35877 L 57752 0 L 40253 35877 L 0 41126 L 28876 69127 Z M 28003 50751 L 48126 48126 L 56879 29751 L 65632 48126 L 85755 50751 L 70881 64752 L 74378 84877 L 57752 75252 L 39380 84877 L 42877 64752 L 28003 50751 Z" fill="#2D5967" transform="translate(126001,20121)"/>
</svg>