<svg xmlns="http://www.w3.org/2000/svg" viewBox="0 0 385049 381802" width="40" height="40">
  <path d="M 271240 371779 C 252124,362667 237564,348999 229370,333509 C 228459,333509 227548,333509 226636,333509 L 227548 334420 L 220264 334420 C 203882,336242 190234,336242 186589,336242 L 185678 336242 C 182039,336242 167479,336242 152002,334420 L 145630 333509 C 109227,328953 91023,318930 91023,303440 L 90112 255140 L 90112 254229 L 90112 192268 L 0 192268 L 911 178600 C 3645,147619 21843,119372 50064,104793 C 56436,102054 60074,95675 61897,89297 C 66446,66517 81006,48293 101944,39181 C 111043,35536 120149,33714 130159,33714 C 131982,33714 134709,33714 136531,33714 C 137442,33714 138353,33714 138353,33714 C 144719,33714 150180,30981 153824,27336 C 170207,10023 192961,0 216626,0 C 249391,0 278517,18224 293083,47382 C 295816,53760 302182,57405 308554,59228 C 318571,61050 327670,65606 335864,70162 C 374089,94764 387744,144886 365901,184978 L 362256 191357 L 282161 191357 L 282161 194090 C 290349,195001 297632,197735 304004,202291 C 314926,210492 321298,224160 321298,237828 L 321298 246939 L 334041 252407 L 334041 303440 C 332219,330775 314014,355378 283072,370868 L 277612 373601 L 271240 371779 Z" fill="#FFFFFF" transform="translate(4549,4555)"/>
  <path d="M 220264 9118 C 251213,9118 278517,26431 292172,53767 C 295810,61056 302182,66523 310376,68346 C 319475,70168 328581,73813 336769,79280 C 373178,102060 385922,150353 365895,188623 L 364079 192268 L 333130 192268 L 293994 192268 L 282161 192268 L 282161 204120 C 290349,204120 298544,206853 305827,212321 C 315837,219610 321298,231456 321298,244212 L 321298 255146 L 334042 260614 L 334042 308907 C 332219,334420 314926,358111 285800,372690 L 281250 373601 L 277605 371779 C 257585,361756 243930,348088 235742,332598 C 231186,333509 227548,333509 222998,334420 C 207521,336242 192961,336242 189323,336242 L 188411 336242 L 187500 336242 C 183855,336242 170207,336242 153824,334420 C 127426,331687 97388,325308 97388,307996 L 96477 259702 L 96477 258791 L 96477 246035 L 96477 207764 L 96477 205031 L 96477 192268 L 10010 192268 L 10921 184067 C 12744,153998 30037,127573 57341,113905 C 64624,110261 70085,102971 70996,95682 C 75546,74724 89201,57411 108310,48300 C 116504,44655 125603,42832 134709,42832 C 136531,42832 138347,42832 141081,42832 C 141992,42832 142903,42832 143808,42832 C 151091,42832 157463,40099 162924,34632 C 176579,18230 198422,9118 220264,9118 Z M 220264 0 C 195688,0 171118,10029 154729,29165 C 152002,32809 147453,34632 142903,34632 C 141992,34632 141992,34632 141081,34632 C 138347,34632 136531,34632 133798,34632 C 123787,34632 112866,36454 103760,41010 C 81917,49211 66446,69257 61890,92948 C 60986,98415 57341,102971 52791,104793 C 23665,120284 4550,149442 1822,182245 L 911 191357 L 0 201386 L 10010 201386 L 90112 201386 L 90112 205031 L 90112 207764 L 90112 246035 L 90112 257880 L 90112 258791 L 91016 307084 C 91016,324397 108310,335331 143808,340798 L 156552 341710 C 172934,343532 186589,343532 191138,343532 L 192050 343532 L 192961 343532 C 196599,343532 211165,343532 227548,341710 L 233920 340798 C 243019,356289 257585,369045 276701,378157 L 280339 379980 L 283977 381802 L 287622 379980 L 291261 378157 C 323120,361756 343141,336242 344052,307084 L 344052 258791 L 344052 252413 L 336769 252413 L 329492 249679 L 329492 243301 C 329492,227811 322209,214143 310376,205031 C 308554,204120 307643,203209 305827,202297 L 332219 202297 L 364079 202297 L 369539 202297 L 372267 197741 L 374089 193185 C 396843,151264 383188,97504 342230,71991 C 333130,66523 323120,61968 313103,60145 C 307643,59234 303093,55589 300366,51033 C 285800,19141 254851,0 220264,0 Z" fill="#FFFFFF"/>
  <path d="M 326758 70168 C 318564,64701 309465,61056 300366,59234 C 292172,57411 285800,51944 282161,44655 C 268506,17319 241203,0 210254,0 C 187500,0 166568,9112 151091,25520 C 145630,30987 138347,34632 130159,33720 C 119238,32809 108310,34632 98300,39188 C 79184,47388 64624,65612 60986,86570 C 59163,94770 54614,101149 47331,104793 C 20932,118461 3638,144886 911,174955 L 0 183156 L 77368 183156 L 77368 167666 L 16382 167666 C 20027,146708 33676,128484 52791,118461 C 64624,112083 71907,102060 74634,89303 C 77368,73813 88289,60145 102849,53767 C 110132,50122 119238,49211 127426,50122 C 141081,51033 152913,45566 162013,36454 C 173845,23697 192050,15490 209343,15490 C 233920,15490 256674,29164 267595,51033 C 273056,62879 283977,71079 296721,73813 C 304004,75635 311288,78369 317659,82925 C 345874,101149 356796,136685 343141,166754 L 282161 166754 L 282161 182245 L 353157 182245 L 354973 177689 C 375911,141241 363168,92948 326758,70168 Z" fill="#2C5967" transform="translate(10921,9112)"/>
  <path d="M 91016 190445 C 47324,190445 19109,182245 15471,177682 L 15471 146702 C 40047,156725 84645,157636 91016,157636 C 93750,157636 105576,157636 119231,156725 L 119231 141235 C 111043,142146 101938,142146 91016,142146 C 47324,142146 19109,133945 15471,129389 L 15471 96586 C 40047,107520 84645,107520 91016,107520 C 95566,107520 112860,107520 131975,104787 C 132886,98409 135614,92941 138347,87474 C 125603,89297 110132,91119 90105,91119 C 46419,91119 18198,82918 14560,78363 L 14560 45560 C 39136,55583 83733,56494 90105,56494 C 96477,56494 141074,56494 165651,45560 L 165651 65606 C 166562,65606 166562,65606 167473,64695 C 172023,63783 176572,62872 182033,62872 L 182033 29158 L 182033 28247 C 182033,911 100116,0 91016,0 C 81917,0 0,911 0,28247 L 0 29158 L 0 75629 L 0 78363 L 0 129389 L 0 130300 L 905 178594 C 905,205936 82822,206847 91928,206847 C 95566,206847 109221,206847 125603,205024 C 123781,200469 121965,195001 121054,189534 C 111043,190445 101027,190445 91016,190445 Z M 90105 15490 C 133798,15490 159279,22780 164740,27336 C 158368,31892 132886,39181 90105,39181 C 47324,39181 20932,31892 15471,27336 C 20932,22780 46419,15490 90105,15490 Z" fill="#2C5967" transform="translate(100122,129395)"/>
  <path d="M 91017 39877 C 91017,28032 84645,16186 75546,7986 C 65529,696 52791,-2037 40959,1607 C 24570,6163 12738,22565 12738,39877 L 12738 51723 L 0 57190 L 0 104572 C 1816,130085 19109,153776 48235,168362 L 51880 170184 L 55519 168362 C 84645,153776 101938,130997 103760,104572 L 103760 56279 L 91017 51723 L 91017 39877 Z M 28215 39877 C 28215,28943 35498,18920 45508,16186 C 52791,14364 60068,15275 66440,19831 C 72812,24387 76457,31677 76457,38966 L 76457 44433 L 52791 34410 L 28215 44433 L 28215 40936 L 28215 39877 Z M 87378 104572 C 86467,123707 72812,141020 50969,152865 C 29126,141020 16382,123707 14560,104572 L 14560 68124 L 50969 52634 L 86467 68124 L 86467 104572 L 87378 104572 Z" fill="#2C5967" transform="translate(230281,203423)"/>
  <path d="M 0 11846 C 0,16401 2727,20046 6372,21869 L 3638 37359 L 19109 37359 L 17293 21869 C 20932,20046 23665,16401 23665,11846 C 23665,5467 18205,0 11833,0 C 5461,0 0,5467 0,11846 Z" fill="#2C5967" transform="translate(269417,288860)"/>
</svg>