<svg xmlns="http://www.w3.org/2000/svg" viewBox="0 0 385051 201191" width="40" height="21">
  <path d="M 0 192045 L 1829 178332 C 3658,147236 21946,119802 50295,105169 C 56699,102426 60357,96024 61268,89623 C 65843,67675 80474,48470 101508,39324 C 110652,35666 119796,33837 129858,33837 C 131686,33837 134433,33837 136262,33837 C 137173,33837 138090,33837 138090,33837 C 144488,33837 149981,31093 153639,27436 C 170098,10060 192043,0 215824,0 C 247831,0 277098,18291 291729,46640 C 294469,53042 299955,56700 307277,58529 C 317332,60358 326476,64931 334709,69503 C 373120,94195 386839,144496 364887,184730 L 361230 191134 L 0 192045 Z" fill="#FFFFFF" transform="translate(4576,4571)"/>
  <path d="M 220399 9145 C 251489,9145 278927,26521 292647,53957 C 296304,61272 302702,66760 310934,68589 C 320078,70418 329223,74076 337455,79563 C 374038,102426 386839,150897 365805,188390 L 363976 192048 L 10062 192048 L 10973 183815 C 12802,153636 30178,128032 56699,113400 C 64014,109742 68590,103340 70418,95110 C 74076,74076 88706,56700 107912,47555 C 116145,43897 125289,42068 134433,42068 C 136262,42068 138090,42068 140837,42068 C 141748,42068 142666,42068 143577,42068 C 150892,42068 157296,39324 161871,33837 C 176502,18291 198447,9145 220399,9145 Z M 220399 0 C 195707,0 171926,10060 154556,28350 C 151810,32008 147234,33837 142666,33837 C 141748,33837 141748,33837 140837,33837 C 139008,33837 136262,33837 133522,33837 C 123460,33837 113398,35666 103343,40239 C 82309,49384 65843,69503 61274,93281 C 60357,98768 56699,103341 52130,105169 C 22863,120716 3658,149979 918,182904 L 0 191137 L 0 201192 L 10062 201192 L 363976 201192 L 369463 201192 L 372209 196623 L 374038 192048 C 396901,149979 383182,96939 342031,71332 C 332880,65845 323736,61272 312763,59444 C 307277,58529 302702,54871 300873,50298 C 285331,19205 255146,0 220399,0 Z" fill="#FFFFFF"/>
  <path d="M 327394 70417 C 319161,65845 310017,62187 300873,59443 C 292640,57614 286243,52127 282585,44811 C 268866,17376 241427,0 210338,0 C 188386,0 166440,9145 150892,25606 C 145406,31093 138090,34751 129858,33837 C 118885,32922 107912,34751 97850,39324 C 78645,47555 64015,64930 60357,85964 C 58528,94195 53953,100596 46638,104254 C 20117,117972 2740,144494 911,174672 L 0 183816 L 49384 183816 L 51213 183816 L 151810 183816 C 145406,179247 140830,174672 136262,168268 L 51213 168268 L 49384 168268 L 17370 168268 C 21034,147234 34747,128946 53953,118887 C 65843,112485 73158,102425 75905,89622 C 78645,74075 89618,60357 104254,53956 C 111570,50298 120714,49383 128946,50298 C 141748,51213 153639,46640 162783,37495 C 174673,24691 192043,16461 210338,16461 C 217653,16461 224050,17376 230454,19204 L 230454 78648 L 219482 67674 L 208509 78648 L 238687 107913 L 268866 78648 L 257893 67674 L 246003 79562 L 246003 27435 C 255147,33837 263379,42068 267948,53042 C 273434,64930 284414,73161 297215,75904 C 304531,77734 311846,80477 318250,84135 C 346599,101511 356661,138090 343853,168268 L 188386 168268 C 168269,168268 151810,151809 151810,130775 L 151810 90537 L 177413 116143 L 188386 105169 L 143577 62187 L 98768 105169 L 109741 116143 L 136262 91451 L 136262 129863 C 136262,159124 160036,182905 189303,182905 L 353915 182905 L 355743 178330 C 375860,141747 363976,93280 327394,70417 Z" fill="#2D5967" transform="translate(10062,8231)"/>
</svg>