<svg xmlns="http://www.w3.org/2000/svg" viewBox="0 0 385010 345521" width="40" height="36">
  <path d="M 0 337294 L 0 46069 L 173582 46069 L 173582 0 L 376784 0 L 376784 226235 L 278061 226235 L 278061 337294 L 0 337294 Z" fill="#FFFFFF" transform="translate(4113,4115)"/>
  <path d="M 376784 8227 L 376784 226235 L 278061 226235 L 278061 337296 L 8226 337296 L 8226 54297 L 181808 54297 L 181808 8227 L 376784 8227 Z M 385011 0 L 376784 0 L 181808 0 L 173582 0 L 173582 8227 L 173582 46070 L 8226 46070 L 0 46070 L 0 54297 L 0 337296 L 0 345522 L 8226 345522 L 278061 345522 L 286287 345522 L 286287 337296 L 286287 234462 L 376784 234462 L 385011 234462 L 385011 226235 L 385011 8227 L 385011 0 Z" fill="#FFFFFF"/>
  <path d="M 194976 0 L 0 0 L 0 36197 L 12346 36197 L 12346 12340 L 182636 12340 L 182636 205668 L 105307 205668 L 105307 218008 L 194976 218008 L 194976 0 Z" fill="#2D5967" transform="translate(181808,8226)"/>
  <path d="M 64996 0 L 0 0 L 0 5758 L 0 11518 L 64996 11518 L 64996 0 Z" fill="#2D5967" transform="translate(287109,54297)"/>
  <path d="M 145611 0 L 0 0 L 0 11518 L 64990 11518 L 80621 11518 L 145611 11518 L 145611 0 Z" fill="#2D5967" transform="translate(206494,32907)"/>
  <path d="M 65817 0 L 0 0 L 0 12340 L 65817 12340 L 65817 0 Z" fill="#2D5967" transform="translate(287109,74864)"/>
  <path d="M 65817 0 L 0 0 L 0 12340 L 65817 12340 L 65817 0 Z" fill="#2D5967" transform="translate(287109,96251)"/>
  <path d="M 39489 0 L 0 0 L 0 12340 L 39489 12340 L 39489 0 Z" fill="#2D5967" transform="translate(287109,117642)"/>
  <path d="M 269835 0 L 225411 0 L 0 0 L 0 282998 L 269835 282998 L 269835 0 Z M 12339 270659 L 12339 11518 L 225411 11518 L 257495 11518 L 257495 270659 L 12339 270659 Z" fill="#2D5967" transform="translate(8227,54297)"/>
  <path d="M 32906 102011 L 13161 102011 C 15631,90493 23858,79799 34555,74040 C 41953,69927 46894,63346 48537,55119 C 50180,46070 56763,37843 64990,34552 C 69924,32907 74865,32084 79800,32084 C 88026,32907 95431,29616 102009,23857 C 109414,16453 119289,11518 129980,11518 C 144790,11518 157951,19744 164534,32907 C 168648,40311 175231,46070 183458,47715 C 187571,48538 191684,50183 195797,52651 C 212250,63346 218827,83912 211429,102011 L 194976 102011 L 194976 114351 L 218827 114351 L 220476 111061 C 233637,87203 225411,56764 202375,42778 C 197440,39488 191684,37020 185922,36197 C 181808,35375 177695,32084 175231,27971 C 167005,10694 148903,0 129980,0 C 115997,0 102836,5758 92961,15631 C 89669,18921 85556,20567 81443,20567 C 74038,19744 67460,21389 60877,23857 C 48537,28794 40311,40311 37019,53473 C 36198,58409 32906,62523 29614,64168 C 13161,72395 1643,89671 821,108593 L 0 115174 L 32906 115174 L 32906 102011 Z" fill="#2D5967" transform="translate(30441,78154)"/>
  <path d="M 143968 13986 C 143968,6582 137385,0 129986,0 L 13989 0 C 6584,0 0,6582 0,13986 L 0 148081 C 0,155486 6584,162070 13989,162070 L 129986 162070 C 137385,162070 143968,155486 143968,148081 L 143968 13986 Z M 129986 148902 L 13989 148902 C 13161,148902 12340,148081 12340,147259 L 12340 13986 C 12340,13163 13161,12340 13989,12340 L 129986 12340 C 130807,12340 131629,13163 131629,13986 L 131629 148081 C 131629,148902 130807,148902 129986,148902 Z" fill="#2D5967" transform="translate(71573,153017)"/>
  <path d="M 100366 39488 L 100366 0 L 0 0 L 0 55119 L 100366 55119 L 100366 39488 Z M 12340 12340 L 88848 12340 L 88848 42778 L 12340 42778 L 12340 12340 Z" fill="#2D5967" transform="translate(93782,174407)"/>
  <path d="M 5762 11517 C 8939,11517 11518,8939 11518,5758 C 11518,2578 8939,0 5762,0 C 2580,0 0,2578 0,5758 C 0,8939 2580,11517 5762,11517 Z" fill="#2D5967" transform="translate(161242,195797)"/>
  <path d="M 0 54297 L 100366 54297 L 100366 0 L 0 0 L 0 54297 Z M 12340 11518 L 88848 11518 L 88848 41957 L 12340 41957 L 12340 11518 Z" fill="#2D5967" transform="translate(93782,238575)"/>
  <path d="M 5762 11517 C 8939,11517 11518,8939 11518,5758 C 11518,2578 8939,0 5762,0 C 2580,0 0,2578 0,5758 C 0,8939 2580,11517 5762,11517 Z" fill="#2D5967" transform="translate(161242,259966)"/>
  <path d="M 7405 0 L 0 13163 L 7405 26326 L 22209 26326 L 29614 13163 L 22209 0 L 7405 0 Z" fill="#2D5967" transform="translate(308503,178519)"/>
  <path d="M 13989 0 C 6584,0 0,6582 0,13985 C 0,21390 6584,27971 13989,27971 C 21394,27971 27971,21390 27971,13985 C 27971,6582 21394,0 13989,0 Z" fill="#2D5967" transform="translate(327419,140677)"/>
  <path d="M 14810 0 L 0 27148 L 29620 27148 L 14810 0 Z" fill="#2D5967" transform="translate(287109,142322)"/>
</svg>