<svg xmlns="http://www.w3.org/2000/svg" viewBox="0 0 346509 385010" width="36" height="40">
  <path d="M 168673 375847 C 151258,375847 0,374012 0,326341 L 0 55005 C 0,54088 0,54088 0,53170 C 0,52252 0,51335 0,51335 C 0,13751 90753,0 168673,0 C 246593,0 337346,13751 337346,51335 C 337346,52252 337346,53170 337346,53170 C 337346,54088 337346,54088 337346,55005 L 337346 326341 C 337346,374012 186088,375847 168673,375847 Z" fill="#FFFFFF" transform="translate(4582,4581)"/>
  <path d="M 173255 9170 C 252092,9170 337340,23832 337340,55916 C 337340,56834 337340,57752 337340,57752 C 337340,58669 337340,58669 337340,59587 L 337340 330923 C 337340,366678 230089,375841 173255,375841 C 116421,375841 9170,366678 9170,330923 L 9170 59587 C 9170,58669 9170,58669 9170,57752 C 9170,56834 9170,55916 9170,55916 C 9170,23832 94417,9170 173255,9170 Z M 173255 0 C 144835,0 0,2753 0,55916 C 0,56834 0,57752 0,57752 C 0,58669 0,58669 0,59587 L 0 330923 C 0,382258 144835,385011 173255,385011 C 201675,385011 346509,382258 346509,330923 L 346509 59587 C 346509,58669 346509,58669 346509,57752 C 346509,56834 346509,55916 346509,55916 C 346509,2753 202586,0 173255,0 Z" fill="#FFFFFF"/>
  <path d="M 328170 46747 C 328170,14663 242923,0 164085,0 C 85248,0 0,14663 0,46747 C 0,47664 0,48582 0,48582 C 0,49500 0,49500 0,50417 L 0 135671 L 0 142088 L 0 228254 L 0 231006 L 0 321760 C 0,357508 107251,366678 164085,366678 C 220919,366678 328170,357508 328170,321760 L 328170 231006 L 328170 228254 L 328170 142088 L 328170 135671 L 328170 50417 C 328170,49500 328170,49500 328170,48582 C 328170,47664 328170,46747 328170,46747 Z M 312590 141171 C 312590,143917 305256,152169 272254,160421 C 269507,161339 266755,161339 264002,162250 L 264002 177836 C 283252,174172 300674,168667 312590,162250 L 312590 231006 C 312590,233753 305256,242005 272254,250257 C 268590,251175 264002,252086 260338,253003 C 259420,258503 257585,264008 254839,269508 C 277753,265837 298839,260338 312590,252086 L 312590 321760 C 312590,324506 305256,332758 272254,341010 C 242923,348338 204422,352009 163168,352009 C 121920,352009 84330,347427 54999,340093 C 21997,331841 14663,323589 14663,320842 L 14663 251175 C 28414,259420 48582,264919 72414,268590 C 69668,263091 67833,256674 66915,252086 C 62333,251175 58663,250257 54999,249339 C 21997,241087 14663,232835 14663,230089 L 14663 161339 C 27496,169584 44000,174172 64168,177836 L 64168 162250 C 61416,161339 58663,161339 55916,160421 C 22915,152169 15580,143917 15580,141171 L 15580 67833 C 44000,85248 105416,92582 164085,92582 C 222754,92582 285088,84337 312590,67833 L 312590 141171 Z M 273171 65997 C 243840,73332 205339,77002 164085,77002 C 122831,77002 84330,73332 54999,65997 C 22915,57752 15580,49500 15580,46747 C 15580,44000 22915,34831 54999,26585 C 84330,19251 122831,15580 164085,15580 C 205339,15580 243840,19251 273171,26585 C 306173,34831 313508,44000 313508,46747 C 313508,49500 305256,57752 273171,65997 Z" fill="#2D5967" transform="translate(9170,9169)"/>
  <path d="M 0 38501 L 0 121009 C 0,123755 918,199840 86165,231006 L 88918 231924 L 91665 231006 C 176919,199840 177836,124673 177836,121009 L 177836 38501 L 88918 0 L 0 38501 Z M 162250 121009 C 162250,121920 161339,182425 96253,211756 L 96253 187924 C 93500,187924 90753,187924 88918,187924 C 87083,187924 83419,187924 81584,187924 L 81584 211756 C 16498,182425 15580,123755 15580,121009 L 15580 48588 L 81584 20168 L 81584 41254 C 84337,41254 87083,41254 88918,41254 C 90753,41254 94417,41254 96253,41254 L 96253 20168 L 162250 48588 L 162250 121009 Z" fill="#2D5967" transform="translate(84337,115503)"/>
  <path d="M 0 61422 C 0,95335 27502,122838 61422,122838 C 95341,122838 122838,95335 122838,61422 C 122838,27502 95341,0 61422,0 C 27502,0 0,27502 0,61422 Z M 108175 61422 C 108175,87089 87089,108169 61422,108169 C 35755,108169 14669,87089 14669,61422 C 14669,35755 35755,14669 61422,14669 C 87089,14669 108175,35755 108175,61422 Z" fill="#2D5967" transform="translate(111833,168673)"/>
  <path d="M 10998 15580 L 0 26585 L 22914 49500 L 60498 10999 L 50417 0 L 22914 27496 L 10998 15580 Z" fill="#2D5967" transform="translate(143006,209009)"/>
</svg>