<svg xmlns="http://www.w3.org/2000/svg" viewBox="0 0 385010 357755" width="40" height="38">
  <path d="M 18737 349240 C 8515,349240 0,340718 0,330496 L 0 18740 C 0,8518 8515,0 18737,0 L 154171 0 C 164393,0 172915,8518 172915,18740 L 172915 165248 L 189951 165248 L 179729 155027 L 195059 139695 L 230833 175470 L 195059 211246 L 179729 195913 L 189951 185692 L 172915 185692 L 172915 330496 C 172915,340718 164393,349240 154171,349240 L 18737 349240 Z" fill="#FFFFFF" transform="translate(4267,4255)"/>
  <path d="M 157585 8518 C 165247,8518 172061,14481 172061,22999 L 172061 173767 L 204434 173767 L 189951 159287 L 198466 150768 L 228279 180582 L 198466 210394 L 189951 201876 L 204434 187396 L 172061 187396 L 172061 336458 C 172061,344126 166100,350941 157585,350941 L 22998 350941 C 14483,349234 8515,343273 8515,334758 L 8515 22999 C 8515,14481 14483,8518 22998,8518 L 157585 8518 Z M 157585 0 L 22998 0 C 10222,0 0,10222 0,22999 L 0 335611 C 0,347534 10222,357756 22998,357756 L 158432 357756 C 171214,357756 181430,347534 181430,334758 L 181430 203579 L 184837 206987 L 193359 215505 L 199320 221468 L 205281 215505 L 235094 185692 L 241061 179729 L 235094 173767 L 204434 143954 L 198466 137992 L 192505 143954 L 183990 152472 L 180583 155879 L 180583 22999 C 180583,10222 170361,0 157585,0 Z M 180583 165249 L 180583 161842 L 183137 164397 L 180583 164397 L 180583 165249 Z M 180583 194210 L 183137 194210 L 180583 196765 L 180583 194210 Z" fill="#FFFFFF"/>
  <path d="M 148216 59625 L 148216 0 L 88591 0 L 88591 22146 L 23851 22146 L 23851 141398 L 0 141398 L 0 201024 L 23851 201024 L 23851 281093 L 0 281093 L 0 340718 L 59625 340718 L 59625 281093 L 35780 281093 L 35780 201024 L 59625 201024 L 59625 177173 L 87738 177173 L 87738 201024 L 147363 201024 L 147363 141398 L 123511 141398 L 123511 59625 L 148216 59625 Z M 112442 141398 L 88591 141398 L 88591 165248 L 60479 165248 L 60479 141398 L 36627 141398 L 36627 34924 L 88591 34924 L 88591 59625 L 112442 59625 L 112442 141398 Z" fill="#FFFFFF" stroke="#FFFFFF" stroke-width="0.5052755905511811" transform="translate(236788,8522)"/>
  <path d="M 0 67292 L 119250 67292 L 119250 0 L 0 0 L 0 67292 Z M 12776 12777 L 107322 12777 L 107322 55367 L 12776 55367 L 12776 12777 Z" fill="#2D5967" transform="translate(30679,30664)"/>
  <path d="M 5961 11925 C 9253,11925 11923,9256 11923,5963 C 11923,2669 9253,0 5961,0 C 2670,0 0,2669 0,5963 C 0,9256 2670,11925 5961,11925 Z" fill="#2D5967" transform="translate(110742,58776)"/>
  <path d="M 0 67292 L 119250 67292 L 119250 0 L 0 0 L 0 67292 Z M 12776 12777 L 107322 12777 L 107322 55367 L 12776 55367 L 12776 12777 Z" fill="#2D5967" transform="translate(30679,107328)"/>
  <path d="M 5961 11925 C 9253,11925 11923,9256 11923,5963 C 11923,2669 9253,0 5961,0 C 2670,0 0,2669 0,5963 C 0,9256 2670,11925 5961,11925 Z" fill="#2D5967" transform="translate(110742,136295)"/>
  <path d="M 0 67292 L 119250 67292 L 119250 0 L 0 0 L 0 67292 Z M 12776 11925 L 107322 11925 L 107322 54515 L 12776 54515 L 12776 11925 Z" fill="#2D5967" transform="translate(30679,184848)"/>
  <path d="M 5961 11925 C 9253,11925 11923,9256 11923,5963 C 11923,2669 9253,0 5961,0 C 2670,0 0,2669 0,5963 C 0,9256 2670,11925 5961,11925 Z" fill="#2D5967" transform="translate(110742,212959)"/>
  <path d="M 0 65591 L 119250 65591 L 119250 0 L 0 0 L 0 65591 Z M 12776 12777 L 107322 12777 L 107322 53662 L 12776 53662 L 12776 12777 Z" fill="#2D5967" transform="translate(30679,261511)"/>
  <path d="M 5961 11924 C 9253,11924 11923,9255 11923,5963 C 11923,2669 9253,0 5961,0 C 2670,0 0,2669 0,5963 C 0,9255 2670,11924 5961,11924 Z" fill="#2D5967" transform="translate(110742,289619)"/>
  <path d="M 148210 59625 L 148210 0 L 88584 0 L 88584 22146 L 23851 22146 L 23851 141398 L 0 141398 L 0 201024 L 23851 201024 L 23851 281093 L 0 281093 L 0 340718 L 59625 340718 L 59625 281093 L 35774 281093 L 35774 201024 L 59625 201024 L 59625 177173 L 87731 177173 L 87731 201024 L 147363 201024 L 147363 141398 L 123511 141398 L 123511 59625 L 148210 59625 Z M 47696 327942 L 12776 327942 L 12776 293015 L 47696 293015 L 47696 327942 Z M 101360 12777 L 136287 12777 L 136287 47700 L 101360 47700 L 101360 12777 Z M 47696 188247 L 12776 188247 L 12776 153323 L 47696 153323 L 47696 188247 Z M 136287 188247 L 101360 188247 L 101360 153323 L 136287 153323 L 136287 188247 Z M 112436 141398 L 88584 141398 L 88584 165248 L 60479 165248 L 60479 141398 L 36627 141398 L 36627 34924 L 88584 34924 L 88584 59625 L 112436 59625 L 112436 141398 Z" fill="#2D5967" transform="translate(236801,8522)"/>
  <path d="M 180583 150768 L 195066 165248 L 162699 165248 L 162699 14480 C 162699,6814 156731,0 148216,0 L 14483 0 C 5968,0 0,5963 0,14480 L 0 327088 C 0,334756 5968,340718 14483,340718 L 149917 340718 C 157585,340718 164400,334756 164400,326235 L 164400 177173 L 196766 177173 L 182290 191654 L 190805 200172 L 220618 170359 L 190805 140546 L 180583 150768 Z M 150770 326235 C 150770,327088 149917,327942 149070,327942 L 14483 327942 C 13630,327942 12782,327088 12782,326235 L 12782 14480 C 12782,13629 13630,12777 14483,12777 L 149917 12777 C 150770,12777 151624,13629 151624,14480 L 150770 326235 Z" fill="#2D5967" transform="translate(8509,8522)"/>
</svg>