<svg xmlns="http://www.w3.org/2000/svg" viewBox="0 0 350783 385010" width="37" height="40">
  <path d="M 169886 377657 C 147844,377657 130397,360203 130397,338148 C 130397,337231 130397,336307 130397,335389 L 56937 296798 C 51424,299555 45912,300474 39489,300474 C 17447,300474 0,283015 0,260962 C 0,243503 11018,228801 27547,223287 L 27547 147940 C 11018,142426 0,127724 0,110266 C 0,88212 17447,70754 39489,70754 C 49589,70754 59689,74429 67036,81780 L 131314 47782 C 130397,45025 130397,42268 130397,39512 C 130397,17459 147844,0 169886,0 C 191921,0 209369,17459 209369,39512 C 209369,42268 209369,44106 208451,46863 L 274570 81780 C 281917,74429 292018,70754 302118,70754 C 324159,70754 341607,88212 341607,110266 C 341607,127724 330583,142426 314053,147940 L 314053 223287 C 330583,228801 341607,243503 341607,260962 C 341607,283015 324159,300474 302118,300474 C 295688,300474 290182,298636 284670,296798 L 209369 336307 C 209369,337231 209369,337231 209369,338148 C 209369,360203 191921,377657 169886,377657 Z" fill="#FFFFFF" transform="translate(4589,3676)"/>
  <path d="M 174474 9189 C 193757,9189 209369,24809 209369,44106 C 209369,47782 208451,50538 208451,53295 L 280076 90969 C 286506,83618 295688,78105 306706,78105 C 325995,78105 341601,93726 341601,113022 C 341601,129562 329665,143345 314053,147021 L 314053 229720 C 329665,233395 341601,247179 341601,263719 C 341601,283015 325995,298636 306706,298636 C 300283,298636 294771,296798 289258,294042 L 208451 336307 C 208451,338148 208451,339066 208451,340901 C 208451,360203 192839,375822 173556,375822 C 154274,375822 138662,360203 138662,340901 C 138662,339066 138662,337231 138662,335389 L 59689 294042 C 54177,296798 48665,298636 42242,298636 C 22953,298636 7347,283015 7347,263719 C 7347,247179 19283,233395 34895,229720 L 34895 147021 C 19283,143345 7347,129562 7347,113022 C 7347,93726 22953,78105 42242,78105 C 55095,79023 64278,83618 70707,91888 L 141415 55133 C 140497,51457 139579,48701 139579,45025 C 139579,24809 155191,9189 174474,9189 Z M 174474 0 C 150597,0 130397,20216 130397,44106 C 130397,45944 130397,47782 130397,49620 L 72542 79942 C 64278,73510 54177,69835 44077,69835 C 20200,69835 0,90050 0,113941 C 0,132318 11018,147940 27548,154372 L 27548 223287 C 11018,229720 0,246260 0,263719 C 0,287609 20200,307825 44077,307825 C 49583,307825 56013,306906 61525,304149 L 130397 340901 C 130397,364797 150597,385011 174474,385011 C 198351,385011 217634,365715 218551,341825 L 289258 304149 C 294771,306906 300283,307825 306706,307825 C 330583,307825 350783,287609 350783,263719 C 350783,245341 339766,229720 323236,223287 L 323236 154372 C 339766,147940 350783,131400 350783,113941 C 350783,90050 330583,69835 306706,69835 C 296606,69835 286506,73510 278241,79942 L 218551 48701 C 218551,46863 218551,45944 218551,44106 C 218551,20216 198351,0 174474,0 Z" fill="#FFFFFF"/>
  <path d="M 304871 221450 L 304871 138751 C 320483,135075 332418,121292 332418,104752 C 332418,85456 316806,69835 297523,69835 C 286506,69835 277323,74429 270893,82699 L 199268 45025 C 200186,42268 200186,38593 200186,35836 C 200186,15621 184574,0 165291,0 C 146009,0 130397,15621 130397,34917 C 130397,38593 131314,42268 132232,45025 L 61524 81780 C 55095,74429 45912,69835 34895,69835 C 15606,69835 0,85456 0,104752 C 0,121292 11935,135075 27547,138751 L 27547 221450 C 11935,225125 0,238909 0,255449 C 0,274745 15606,290366 34895,290366 C 41318,290366 46830,288528 52342,285772 L 131314 327122 C 131314,328957 131314,330798 131314,332634 C 131314,351929 146926,367554 166209,367554 C 185492,367554 201104,351929 201104,332634 C 201104,330798 201104,329881 201104,328039 L 281911 285772 C 287423,288528 292935,290366 299358,290366 C 318647,290366 334253,274745 334253,255449 C 332418,238909 320483,225125 304871,221450 Z M 297523 84537 C 308541,84537 317723,93726 317723,104752 C 317723,115779 308541,124967 297523,124967 C 286506,124967 277323,115779 277323,104752 C 277323,93726 286506,84537 297523,84537 Z M 165291 14702 C 176309,14702 185492,23891 185492,34917 C 185492,45944 176309,55133 165291,55133 C 154274,55133 145085,45944 145085,34917 C 145085,23891 154274,14702 165291,14702 Z M 14688 104752 C 14688,93726 23870,84537 34895,84537 C 45912,84537 55095,93726 55095,104752 C 55095,115779 45912,124967 34895,124967 C 23870,124967 14688,115779 14688,104752 Z M 34895 275664 C 23870,275664 14688,266475 14688,255449 C 14688,244422 23870,235233 34895,235233 C 45912,235233 55095,244422 55095,255449 C 55095,266475 45912,275664 34895,275664 Z M 165291 352847 C 154274,352847 145085,343658 145085,332634 C 145085,321610 154274,312421 165291,312421 C 176309,312421 185492,321610 185492,332634 C 185492,343658 176309,352847 165291,352847 Z M 271811 232476 L 247016 217774 C 245181,222369 242428,226963 240593,230639 L 265381 244422 C 264464,248098 263546,250854 263546,254530 C 263546,261881 265381,268313 269976,273826 L 196509 312421 C 191921,304149 183656,298636 174474,296798 L 174474 270150 C 171721,270150 169879,270150 167127,270150 C 164374,270150 162532,270150 159779,270150 L 159779 296798 C 150597,298636 143249,304149 137744,311500 L 65195 272907 C 68872,267394 71625,260043 71625,253611 C 71625,249935 70707,246260 69789,243503 L 92743 230639 C 89990,226963 88154,222369 85401,217774 L 61524 230639 C 56930,225125 50507,221450 43159,219612 L 43159 136913 C 50507,135075 56930,131400 61524,126805 L 88154 142426 C 89990,137832 92743,134156 95502,129562 L 68872 113941 C 69789,110266 70707,106590 70707,102915 C 70707,99239 69789,96482 69789,93726 L 140496 56052 C 145085,61565 151514,65241 158861,67078 L 158861 93726 C 161614,93726 163456,93726 166209,93726 C 168962,93726 170797,93726 173556,93726 L 173556 68916 C 180903,67078 188244,63403 192839,56971 L 264464 94645 C 263546,97401 263546,101077 263546,103833 C 263546,107509 264464,111185 265381,114860 L 237834 131400 C 240593,135075 243346,139670 245181,144264 L 272728 127724 C 277323,133237 283753,136913 291093,138751 L 291093 221450 C 282829,223287 276405,226963 271811,232476 Z M 297523 275664 C 286506,275664 277323,266475 277323,255449 C 277323,244422 286506,235233 297523,235233 C 308541,235233 317723,244422 317723,255449 C 317723,266475 308541,275664 297523,275664 Z" fill="#2C5967" transform="translate(9183,9185)"/>
  <path d="M 77137 0 C 34895,0 0,34918 0,77186 C 0,119455 34895,154372 77137,154372 C 119379,154372 154274,119455 154274,77186 C 154274,34918 119379,0 77137,0 Z M 77137 139670 C 43160,139670 14694,111185 14694,77186 C 14694,43187 43160,14702 77137,14702 C 111114,14702 139579,43187 139579,77186 C 139579,111185 111114,139670 77137,139670 Z" fill="#2C5967" transform="translate(97338,115777)"/>
  <path d="M 72542 26648 L 78972 18378 L 66119 5513 L 57854 11946 C 56013,11027 54177,10108 52342,10108 L 51425 0 L 33060 0 L 32142 10108 C 30300,11027 28465,11027 26630,11946 L 18365 5513 L 5512 18378 L 11935 26648 C 11018,28486 10100,30323 10100,32161 L 0 33080 L 0 51457 L 10100 52376 C 11018,54214 11018,56052 11935,57890 L 5512 66160 L 18365 79024 L 26630 72592 C 28465,73511 30300,74430 32142,74430 L 33060 84537 L 51425 84537 L 52342 74430 C 54177,73511 56013,73511 57854,72592 L 66119 79024 L 78972 66160 L 72542 57890 C 73460,56052 74384,54214 74384,52376 L 84484 51457 L 84484 33080 L 74384 32161 C 73460,30323 72542,28486 72542,26648 Z M 42242 60646 C 32142,60646 23877,52376 23877,42268 C 23877,32161 32142,23891 42242,23891 C 52342,23891 60607,32161 60607,42268 C 60607,52376 52342,60646 42242,60646 Z" fill="#2C5967" transform="translate(132232,150697)"/>
</svg>