<svg xmlns="http://www.w3.org/2000/svg" viewBox="0 0 385008 366677" width="40" height="38">
  <path d="M 341684 70590 C 332636,64879 322664,60779 312211,58475 C 310004,57994 307931,57031 306147,55645 C 304357,54259 302907,52488 301900,50467 C 295322,37280 285652,25884 273704,17253 C 261762,8629 247902,3027 233316,929 C 218731,-1170 203857,300 189964,5215 C 176072,10131 163578,18338 153555,29137 C 152284,30491 150738,31569 149025,32294 C 147318,33026 145470,33385 143609,33366 C 143128,33366 142621,33366 142133,33366 C 139791,33148 137404,33032 135062,33032 C 117531,33032 100539,39115 87000,50255 C 73466,61388 64213,76885 60838,94088 C 60395,96251 59465,98285 58124,100037 C 56783,101795 55057,103220 53087,104208 C 38482,111812 26072,123028 17037,136786 C 8002,150544 2644,166393 1469,182814 L 853 191150 L 0 203637 L 76989 203637 L 76989 323959 C 76989,332070 80711,343505 98319,352039 C 107354,356402 119648,359791 135004,362313 C 173601,368132 212853,368132 251450,362313 C 266748,359848 279101,356402 288135,352039 C 305833,343505 309555,332070 309555,323959 L 309555 203637 L 368442 203637 L 371740 197528 L 373929 193460 C 385068,172688 387937,148478 381950,125685 C 375969,102892 361583,83212 341684,70590 Z" fill="#FFFFFF"/>
  <path d="M 349076 180261 L 295194 180261 L 295194 164751 L 339637 164751 C 346157,150243 347228,133867 342647,118633 C 338065,103400 328144,90329 314701,81827 C 308297,77777 301239,74871 293840,73234 C 287680,71893 281898,69192 276925,65322 C 271946,61453 267903,56518 265086,50878 C 260466,41619 253677,33623 245290,27566 C 236903,21508 227169,17575 216928,16105 C 206687,14629 196246,15662 186493,19115 C 176739,22567 167967,28329 160928,35914 C 156654,40515 151367,44057 145483,46264 C 139598,48472 133284,49280 127041,48632 C 115073,47516 103119,50878 93500,58078 C 83875,65277 77265,75788 74962,87582 C 73749,93723 71163,99505 67409,104510 C 63655,109515 58817,113609 53266,116490 C 44013,121309 35973,128150 29736,136504 C 23492,144859 19219,154517 17223,164751 L 64470 164751 L 64470 180261 L 0 180261 L 622 171925 C 1656,157468 6366,143512 14322,131397 C 22273,119282 33194,109400 46054,102707 C 49551,100897 52592,98324 54960,95180 C 57334,92036 58964,88397 59741,84541 C 62795,68986 71516,55126 84215,45635 C 96907,36145 112673,31711 128452,33180 C 132322,33598 136236,33116 139894,31775 C 143545,30428 146837,28252 149512,25422 C 158252,16003 169148,8841 181263,4555 C 193378,269 206353,-1021 219077,807 C 231796,2630 243885,7513 254306,15040 C 264727,22561 273171,32500 278908,43999 C 280698,47561 283265,50679 286422,53124 C 289573,55562 293237,57269 297138,58110 C 309420,60837 320913,66375 330698,74287 C 340484,82199 348306,92267 353542,103708 C 358785,115156 361300,127656 360896,140233 C 360492,152816 357174,165130 351213,176212 L 349076 180261 Z" fill="#2D5967" transform="translate(12507,11742)"/>
  <path d="M 193885 0 L 0 0 L 0 58284 C 0,71175 43410,81545 96939,81545 C 150475,81545 193885,71118 193885,58284 L 193885 0 Z" fill="#FFFFFF" transform="translate(96368,265675)"/>
  <path d="M 104697 97119 C 93975,97119 0,96246 0,66094 L 0 7752 C 0,5698 815,3729 2272,2272 C 3728,815 5698,0 7758,0 L 201643 0 C 203703,0 205673,815 207129,2272 C 208579,3729 209401,5698 209401,7752 L 209401 66036 C 209401,96246 115420,97119 104697,97119 Z M 15510 65612 C 19135,71426 51380,81610 104697,81610 C 158021,81610 190259,71465 193885,65612 L 193885 15510 L 15510 15510 L 15510 65612 Z" fill="#2D5967" transform="translate(88610,257916)"/>
  <path d="M 193885 0 L 0 0 L 0 59580 C 0,72459 43410,82848 96939,82848 C 150475,82848 193885,72401 193885,59580 L 193885 0 Z" fill="#FFFFFF" transform="translate(96368,209444)"/>
  <path d="M 104697 98415 C 93975,98415 0,97542 0,67396 L 0 7752 C 0,5698 815,3722 2272,2272 C 3728,815 5698,0 7758,0 L 201643 0 C 203703,0 205673,815 207129,2272 C 208579,3722 209401,5698 209401,7752 L 209401 67332 C 209401,97542 115420,98415 104697,98415 Z M 15510 66908 C 19135,72722 51380,82905 104697,82905 C 158021,82905 190259,72761 193885,66908 L 193885 15509 L 15510 15509 L 15510 66908 Z" fill="#2D5967" transform="translate(88610,201692)"/>
  <path d="M 193885 0 L 0 0 L 0 56905 C 0,69777 43410,80172 96939,80172 C 150475,80172 193885,69719 193885,56905 L 193885 0 Z" fill="#FFFFFF" transform="translate(96368,155157)"/>
  <path d="M 104697 95746 C 93975,95746 0,94873 0,64720 L 0 7758 C 0,5698 815,3728 2272,2272 C 3728,821 5698,0 7758,0 L 201643 0 C 203703,0 205673,821 207129,2272 C 208579,3728 209401,5698 209401,7758 L 209401 64662 C 209401,94873 115420,95746 104697,95746 Z M 15510 64220 C 19135,70033 51380,80230 104697,80230 C 158021,80230 190259,70072 193885,64220 L 193885 15509 L 15510 15509 L 15510 64220 Z" fill="#2D5967" transform="translate(88610,147399)"/>
  <path d="M 96939 48473 C 150481,48473 193885,37622 193885,24236 C 193885,10851 150481,0 96939,0 C 43404,0 0,10851 0,24236 C 0,37622 43404,48473 96939,48473 Z" fill="#FFFFFF" transform="translate(96368,129952)"/>
  <path d="M 104697 64021 C 65805,64021 0,57277 0,32014 C 0,6751 65920,0 104697,0 C 143474,0 209401,6751 209401,32014 C 209401,57277 143590,64021 104697,64021 Z M 15683 32033 C 19680,38180 51534,48492 104697,48492 C 157861,48492 189720,38180 193712,32033 C 189720,25886 157861,15548 104697,15548 C 51534,15548 19680,25886 15683,32033 Z" fill="#2D5967" transform="translate(88610,122149)"/>
  <path d="M 193891 66427 L 197767 63379 L 197767 55294 L 198852 45912 L 161140 8258 L 152862 0 L 144642 8336 L 116100 37346 L 107938 45624 L 115304 52894 L 83374 52894 C 77201,52894 71285,55345 66921,59709 C 62558,64072 60106,69989 60106,76161 L 60106 90702 L 58169 88764 L 47100 77804 L 38937 69719 L 30756 77785 L 3433 104755 L 0 108246 L 0 126181 L 4171 129671 L 27939 149583 L 31006 152162 L 35036 152297 L 41414 152509 L 46477 152670 L 50045 149083 L 58226 140837 L 60164 138899 L 60164 184696 L 217217 184696 L 217217 89695 C 217217,86634 216613,83605 215439,80775 C 214265,77952 212545,75379 210376,73222 C 208214,71060 205641,69347 202811,68179 C 199981,67018 196952,66421 193891,66427 Z" fill="#FFFFFF" transform="translate(106058,181800)"/>
  <path d="M 133785 108580 L 0 108580 L 0 11634 C 0,8547 1226,5589 3407,3407 C 5589,1226 8547,0 11634,0 L 46535 0 C 48595,0 50623,513 52438,1489 C 54254,2464 55807,3870 56943,5589 L 62275 13572 L 122151 13572 C 125238,13572 128196,14797 130377,16979 C 132559,19161 133785,22125 133785,25206 L 133785 108580 Z M 15510 93070 L 118269 93070 L 118269 29088 L 54017 29088 L 44963 15516 L 15510 15516 L 15510 93070 Z" fill="#2D5967" transform="translate(177798,246283)"/>
  <path d="M 57527 28908 L 28536 0 L 0 28946 L 11050 39849 L 21034 29704 L 21034 49910 L 36544 49910 L 36544 29877 L 46586 39887 L 57527 28908 Z" fill="#2D5967" transform="translate(230423,198311)"/>
  <path d="M 49910 20207 L 30672 20207 L 39887 10960 L 28914 0 L 0 28991 L 28953 57527 L 39849 46496 L 28914 35716 L 49910 35716 L 49910 20207 Z" fill="#2D5967" transform="translate(116267,268729)"/>
</svg>