<svg xmlns="http://www.w3.org/2000/svg" viewBox="0 0 385844 354113" width="41" height="37">
  <path d="M 193725 341581 C 117750,303164 71805,243872 67634,178728 L 67634 141145 L 40105 141145 L 54287 155345 L 40105 169539 L 0 129453 L 40105 89367 L 55121 104396 L 40105 119430 L 68468 119430 L 68468 55961 L 198794 0 L 329056 55961 L 329056 177894 C 324885,243872 279775,303164 202965,340747 L 198794 343256 L 193725 341581 Z" fill="#FFFFFF" transform="translate(51784,4177)"/>
  <path d="M 203799 9189 L 329889 63475 L 329889 182072 C 326553,245540 281443,304004 206302,341588 L 203799 343256 L 201296 341588 C 126091,304004 80981,245540 77644,182072 L 77644 141145 L 35870 141145 L 45110 150334 L 54286 159516 L 45944 167871 L 27528 150334 L 25026 147825 L 11678 134465 L 25026 121099 L 26694 119430 L 45944 100225 L 54286 108573 L 44276 118596 L 35036 127785 L 77644 127785 L 77644 118596 L 77644 63475 L 203799 9189 Z M 203799 0 L 200398 1675 L 74307 55961 L 69301 58464 L 69301 64310 L 69301 120264 L 69301 121099 L 55120 121099 L 60126 116093 L 65965 110248 L 60126 104396 L 51784 96047 L 45944 88533 L 40105 94379 L 20855 113585 L 19186 115253 L 5839 128619 L 0 134465 L 5839 140311 L 19186 153671 L 21689 156180 L 40105 174551 L 45944 180397 L 51784 174551 L 60126 166203 L 65965 160357 L 60126 154511 L 55955 150334 L 69301 150334 L 69301 182906 L 69301 183740 C 73473,250552 120252,311519 197895,350770 L 200398 352445 L 204633 354114 L 208804 352445 L 211306 350770 C 288950,311519 335729,251386 339900,184574 L 339900 63475 L 339900 57630 L 334895 55121 L 207135 1675 L 203799 0 Z" fill="#FFFFFF" transform="translate(45945,0)"/>
  <path d="M 19186 38418 C 8341,38418 0,30063 0,19206 C 0,8348 8341,0 19186,0 C 30095,0 38437,8348 38437,19206 C 38437,30063 30095,38418 19186,38418 Z" fill="#FFFFFF" transform="translate(4171,183739)"/>
  <path d="M 23357 8348 C 31763,8348 38437,15035 38437,23383 C 38437,31738 31763,38418 23357,38418 C 15015,38418 8342,31738 8342,23383 C 8342,15035 15015,8348 23357,8348 Z M 23357 0 C 10844,0 0,10023 0,23383 C 0,35909 10011,46766 23357,46766 C 36768,46766 46779,36749 46779,23383 C 46779,10857 35934,0 23357,0 Z" fill="#FFFFFF" transform="translate(0,179562)"/>
  <path d="M 19186 38418 C 8342,38418 0,30063 0,19206 C 0,9182 8342,0 19186,0 C 29197,0 36704,7514 38373,16703 C 38373,17537 38373,18371 38373,19206 C 38373,20040 38373,20880 38373,21715 C 36704,31738 28363,38418 19186,38418 Z" fill="#FFFFFF" transform="translate(41774,183739)"/>
  <path d="M 23357 8348 C 30865,8348 37538,14194 38373,21715 C 38373,22549 38373,22549 38373,23383 C 38373,24217 38373,24217 38373,25051 C 37538,32572 30865,38418 23357,38418 C 15015,38418 8342,31738 8342,23383 C 8342,15035 15015,8348 23357,8348 Z M 23357 0 C 10845,0 0,10023 0,23383 C 0,36749 10011,46766 23357,46766 C 35036,46766 45111,37584 46779,25892 C 46779,25051 46779,24217 46779,23383 C 46779,22549 46779,21715 46779,20881 C 45111,9189 35036,0 23357,0 Z" fill="#FFFFFF" transform="translate(37603,179562)"/>
  <path d="M 19251 38418 C 8406,38418 0,30063 0,19206 C 0,8348 8406,0 19251,0 C 30095,0 38437,8348 38437,19206 C 38437,30063 29261,38418 19251,38418 Z" fill="#FFFFFF" transform="translate(79312,183739)"/>
  <path d="M 23422 8348 C 31764,8348 38437,15035 38437,23383 C 38437,31738 31764,38418 23422,38418 C 15080,38418 8406,31738 8406,23383 C 8406,15035 15080,8348 23422,8348 Z M 23422 0 C 10909,0 0,10023 0,23383 C 0,36749 10075,46766 23422,46766 C 36768,46766 46779,36749 46779,23383 C 46779,10023 35935,0 23422,0 Z" fill="#FFFFFF" transform="translate(75141,179562)"/>
  <path d="M 126155 0 L 0 54287 L 0 110241 L 12513 110241 L 12513 61801 L 126155 13366 L 239733 61801 L 239733 172042 C 236396,230506 194623,283958 126155,319867 C 56789,284792 15914,230506 12513,172042 L 12513 141145 L 0 141145 L 0 172883 C 3337,236351 48447,294815 123588,332399 L 126155 334067 L 128658 332399 C 203799,294815 248910,236351 252246,172883 L 252246 54287 L 126155 0 Z" fill="#2D5967" transform="translate(123589,9189)"/>
  <path d="M 15015 30063 C 23357,30063 30095,23332 30095,15028 C 30095,6731 23357,0 15015,0 C 6737,0 0,6731 0,15028 C 0,23332 6737,30063 15015,30063 Z" fill="#2D5967" transform="translate(8342,187917)"/>
  <path d="M 30030 13360 C 29196,5846 22523,0 15015,0 C 6673,0 0,6680 0,15028 C 0,23383 6673,30063 15015,30063 C 22523,30063 29196,24217 30030,16703 C 30030,15869 30030,15869 30030,15028 C 30030,14194 30030,14194 30030,13360 Z" fill="#2D5967" transform="translate(45945,187917)"/>
  <path d="M 15015 30063 C 23293,30063 30030,23332 30030,15028 C 30030,6731 23293,0 15015,0 C 6674,0 0,6731 0,15028 C 0,23332 6674,30063 15015,30063 Z" fill="#2D5967" transform="translate(83548,187917)"/>
  <path d="M 0 8355 L 21689 30069 L 0 51784 L 9176 60132 L 39271 30069 L 9176 0 L 0 8355 Z" fill="#2D5967" transform="translate(161191,173716)"/>
  <path d="M 190452 40086 C 206302,40086 218814,52618 218814,68481 C 218814,84349 206302,96881 190452,96881 L 154518 96881 L 154518 109407 L 190452 109407 C 212975,109407 231327,91036 231327,68481 C 231327,45932 212975,27560 190452,27560 L 23357 27560 L 32598 18371 L 42608 8355 L 34266 0 L 15015 19205 L 13348 20880 L 0 34240 L 13348 47607 L 15849 49275 L 34266 67646 L 42608 59298 L 33431 49275 L 24192 40086 L 190452 40086 Z" fill="#2D5967" transform="translate(57623,101058)"/>
</svg>