<svg xmlns="http://www.w3.org/2000/svg" viewBox="0 0 370036 385011" width="39" height="40">
  <path d="M 73242 341843 L 103459 311247 L 107181 311247 L 108996 312518 L 122793 326044 L 120162 328682 C 145008,326911 168333,316053 185684,298176 L 195579 287736 L 181237 273394 L 151290 303258 L 139310 293639 L 137584 308982 L 85857 308982 L 84131 293639 L 72151 303258 L 35851 266945 L 45470 254965 L 30134 253239 L 30134 201853 L 45470 200223 L 35851 188146 L 39483 184514 L 0 184514 L 911 171533 C 1976,156697 6821,142388 14990,129958 C 23158,117529 34369,107403 47555,100544 C 50340,99106 52772,97078 54684,94595 C 56597,92118 57944,89250 58631,86196 C 60697,75621 65291,65707 72023,57294 C 78760,48888 87429,42234 97292,37902 C 105884,34174 115150,32256 124519,32275 L 130775 32275 L 132867 32275 C 135607,32294 138328,31742 140843,30645 C 143365,29554 145624,27943 147478,25916 C 156481,16284 167679,8969 180121,4605 C 192563,242 205872,-1048 218917,852 C 231962,2757 244360,7788 255037,15514 C 265715,23246 274365,33449 280249,45256 C 281648,48092 283663,50582 286140,52546 C 288623,54509 291504,55895 294591,56601 C 307226,59418 319032,65123 329094,73272 C 339162,81421 347203,91785 352586,103559 C 357976,115334 360569,128194 360158,141137 C 359747,154079 356346,166753 350218,178162 L 346772 184514 L 321818 184514 L 325443 188146 L 315824 200223 L 331160 201853 L 331160 253239 L 315824 254965 L 325443 266945 L 289143 303258 L 277163 293639 L 275437 308982 L 224436 308982 L 222806 293639 L 214361 300358 C 203382,315694 189104,328387 172587,337498 C 156070,346610 137718,351911 118891,353008 L 122793 356820 L 105820 374068 L 73242 341843 Z" fill="#FFFFFF" transform="translate(4896,4584)"/>
  <path d="M 211910 9081 C 226335,8984 240497,12956 252772,20535 C 265054,28107 274949,38990 281334,51932 C 283130,55436 285691,58497 288835,60871 C 291979,63245 295624,64875 299487,65639 C 311422,68314 322581,73718 332085,81424 C 341588,89131 349179,98929 354268,110063 C 359356,121189 361807,133343 361416,145580 C 361031,157810 357816,169784 352034,180571 L 349949 184562 L 316094 184562 L 324628 193097 L 312828 207804 L 312828 208439 L 331616 210525 L 331616 254191 L 312828 256283 L 312828 256918 L 324628 271716 L 294135 302221 L 279338 290414 L 278703 290414 L 276617 308664 L 233419 308664 L 231334 290504 L 230698 290504 L 215991 302311 C 204967,318000 190368,330847 173409,339798 C 156449,348743 137609,353537 118436,353781 L 112898 353781 L 121336 362045 L 110716 372210 L 84580 346427 L 110267 320375 L 120791 330725 L 113443 338079 L 117980 338079 C 132007,337970 145881,335075 158778,329557 C 171676,324038 183355,316011 193121,305943 C 194758,304217 203561,295047 206013,292230 L 185408 271536 L 155095 301766 L 140394 289965 L 139759 289965 L 138039 308664 L 94834 308664 L 92749 290504 L 92114 290504 L 77413 302311 L 46830 271260 L 58624 256463 L 58624 255828 L 39566 254191 L 39566 210525 L 58355 208805 L 58355 208170 L 46554 193462 L 55089 184928 L 9709 184928 L 10254 176759 C 11191,162610 15753,148942 23492,137071 C 31231,125193 41896,115510 54453,108939 C 57867,107188 60838,104679 63148,101618 C 65458,98551 67043,95002 67794,91235 C 70572,77073 78176,64317 89323,55141 C 100462,45965 114438,40947 128869,40947 C 130775,40947 132771,40947 134677,40947 L 137218 40947 C 140625,41004 144007,40337 147132,38990 C 150263,37648 153067,35653 155371,33137 C 162667,25495 171445,19425 181167,15286 C 190888,11153 201348,9036 211910,9081 Z M 211910 1 C 200019,-50 188251,2343 177323,7027 C 166395,11712 156545,18590 148383,27234 C 146959,28800 145213,30045 143275,30885 C 141337,31732 139246,32156 137128,32136 L 135402 32136 C 133201,32002 130987,32002 128780,32136 C 112295,32220 96349,37989 83631,48480 C 70919,58965 62211,73525 58990,89695 C 58425,92147 57315,94438 55743,96401 C 54171,98365 52182,99949 49917,101040 C 36050,108272 24262,118937 15683,132015 C 7103,145098 2021,160152 905,175758 L 269 183837 L 0 193642 L 35575 193642 L 39752 198724 L 41658 201175 L 38572 201175 L 30493 202087 L 30493 261545 L 38572 262456 L 41658 262456 L 39752 264907 L 34670 271260 L 40388 276977 L 70970 308664 L 76688 314381 L 83040 309299 L 85492 307393 L 85492 310480 L 86396 318559 L 99827 318559 L 78048 339984 L 71695 346427 L 78138 352876 L 104274 378659 L 110813 385011 L 117165 378569 L 127779 367853 L 134131 361410 C 151733,359017 168667,353075 183907,343944 C 199147,334819 212378,322691 222799,308298 L 224249 307117 L 224249 310204 L 225161 318289 L 284606 318289 L 285511 310204 L 285511 307117 L 287872 309030 L 294225 314112 L 299943 308394 L 330525 277799 L 336243 272081 L 331160 265722 L 329800 263271 L 332887 263271 L 340959 262366 L 340959 202446 L 332887 201541 L 329800 201541 L 331706 199090 L 335877 194008 L 354665 194008 L 357296 189195 L 359382 185197 C 370066,165453 372838,142384 367140,120669 C 361448,98955 347710,80224 328709,68270 C 320111,62873 310659,58978 300757,56739 C 298274,56206 295945,55109 293943,53537 C 291947,51964 290336,49956 289233,47665 C 282072,33291 271035,21215 257373,12796 C 243705,4371 227958,-57 211910,1 Z M 156186 313932 L 161903 308208 L 185774 284331 L 193757 292416 C 190856,295593 187859,298679 186955,299584 C 172087,314939 152554,324930 131411,327998 L 127599 324276 L 121426 317744 L 146201 317744 L 147023 309665 L 147023 306578 L 149474 308484 L 155827 313566 L 156186 313932 Z" fill="#FFFFFF"/>
  <path d="M 113989 0 C 112353,1906 110626,3812 108907,5628 C 99089,15747 87359,23800 74390,29319 C 61428,34837 47491,37705 33400,37763 L 28953 37763 L 36300 30410 L 26136 20066 L 0 46118 L 26136 71901 L 36756 61191 L 28317 52926 L 33849 52926 C 51104,52708 68108,48839 83753,41562 C 99397,34285 113321,23768 124602,10710 L 118615 4723 L 113989 0 Z" fill="#2D5967" transform="translate(84581,300309)"/>
  <path d="M 97202 0 L 86583 10716 L 94385 18429 L 91029 18429 C 75045,18532 59240,21792 44526,28022 C 29806,34253 16466,43333 5268,54742 C 3452,56648 1636,58554 0,60556 L 6539 67088 L 10710 71535 C 12468,69482 14284,67486 16158,65548 C 25937,55525 37603,47542 50488,42056 C 63373,36570 77208,33695 91209,33592 L 94661 33592 L 86762 41491 L 97472 52111 L 123338 26149 L 97202 0 Z" fill="#2D5967" transform="translate(161724,91877)"/>
  <path d="M 314188 66933 C 306500,62056 298024,58559 289136,56583 C 285274,55819 281635,54189 278491,51815 C 275347,49441 272780,46387 270990,42877 C 265426,31679 257232,22002 247106,14668 C 236980,7340 225225,2579 212859,795 C 200488,-995 187866,249 176084,4420 C 164303,8585 153703,15554 145207,24717 C 142621,27502 139419,29645 135857,30967 C 132290,32295 128472,32764 124692,32346 C 109330,30909 93981,35228 81622,44474 C 69263,53715 60780,67215 57809,82366 C 57065,86075 55506,89565 53247,92594 C 50982,95629 48081,98119 44738,99884 C 32258,106403 21644,116009 13905,127778 C 6173,139553 1572,153105 539,167158 L 0 175237 L 29671 175237 L 33849 171059 L 44738 160350 L 16786 160350 C 18724,150391 22876,141003 28946,132879 C 35010,124749 42826,118101 51816,113410 C 57232,110619 61948,106634 65606,101764 C 69270,96887 71785,91253 72966,85273 C 75186,73793 81609,63552 90972,56557 C 100334,49556 111968,46297 123601,47413 C 129678,48029 135806,47234 141517,45097 C 147234,42953 152374,39521 156545,35067 C 163392,27681 171926,22060 181417,18698 C 190908,15335 201072,14322 211037,15752 C 221009,17177 230480,21002 238642,26899 C 246811,32789 253427,40579 257919,49595 C 260652,55075 264579,59875 269417,63635 C 274256,67389 279883,70007 285870,71290 C 295155,73401 303850,77547 311339,83424 C 318834,89309 324923,96772 329184,105287 C 333445,113802 335768,123158 335986,132680 C 336198,142196 334305,151648 330435,160350 L 307290 160350 L 318179 171239 L 322356 175416 L 339599 175416 L 341684 171515 C 351149,153830 353574,133219 348473,113821 C 343372,94423 331122,77669 314188,66933 Z" fill="#2D5967" transform="translate(9715,9056)"/>
  <path d="M 60804 30410 C 60804,24398 59020,18514 55683,13515 C 52340,8516 47592,4615 42035,2311 C 36484,14 30369,-589 24472,585 C 18575,1753 13159,4653 8904,8908 C 4650,13162 1756,18578 582,24475 C -586,30378 11,36493 2314,42051 C 4618,47608 8513,52356 13512,55699 C 18510,59036 24388,60820 30401,60820 C 34392,60820 38351,60037 42035,58510 C 45724,56976 49080,54737 51904,51913 C 54721,49090 56960,45740 58494,42051 C 60021,38361 60804,34402 60804,30410 Z M 15430 30410 C 15430,27375 16329,24411 18010,21889 C 19698,19361 22091,17397 24895,16236 C 27699,15074 30786,14773 33757,15363 C 36734,15953 39468,17416 41611,19560 C 43754,21709 45217,24443 45808,27420 C 46398,30391 46097,33478 44935,36282 C 43774,39086 41810,41479 39288,43167 C 36766,44855 33802,45753 30767,45753 C 28720,45798 26685,45439 24786,44688 C 22880,43943 21148,42821 19685,41390 C 18222,39959 17060,38252 16265,36365 C 15475,34479 15065,32457 15065,30410 L 15430 30410 Z" fill="#2D5967" transform="translate(224611,201720)"/>
  <path d="M 254293 6988 L 239496 18795 L 238861 18795 L 236775 0 L 193577 0 L 191491 18795 L 190856 18795 L 176155 6988 L 148928 34228 L 145566 37770 L 157001 52111 L 157001 52746 L 138309 54473 L 138309 84523 L 123518 86429 L 121971 91055 C 121169,93628 120136,96118 118885,98499 L 116620 102856 L 125693 114566 L 114438 125918 L 102734 116838 L 98377 119020 C 95996,120271 93506,121304 90933,122106 L 86306 123646 L 84580 138533 L 68519 138533 L 66793 123646 L 62166 122106 C 59600,121304 57103,120271 54723,119020 L 50366 116838 L 38661 125918 L 27227 114566 L 36300 102856 L 34304 98685 C 33053,96298 32020,93808 31218,91235 L 29678 86608 L 14611 84792 L 14611 68545 L 29492 66908 L 31218 62372 C 32020,59799 33053,57309 34304,54922 L 36576 50565 L 27496 38854 L 38931 27419 L 50642 36493 L 54999 34228 C 57379,32976 59869,31943 62436,31141 L 67069 29684 L 68788 14797 L 84946 14797 L 86672 29684 L 91299 31141 C 93866,31943 96355,32976 98742,34228 L 103093 36493 L 114804 27419 L 126238 38854 L 135767 27053 L 115619 6988 L 100918 18795 L 100282 18795 L 98197 0 L 54999 0 L 52907 18795 L 52272 18795 L 37570 6988 L 6988 37584 L 18788 52291 L 18788 52926 L 0 55018 L 0 98685 L 18788 100770 L 18788 101405 L 6988 116203 L 37570 146708 L 52272 134901 L 52907 134901 L 54999 153151 L 98197 153151 L 100282 134998 L 100918 134998 L 115619 146798 L 145932 116568 L 143301 113206 L 134221 101771 L 134221 101136 L 142755 100404 L 145386 100404 L 153465 98685 L 153465 68725 L 168256 67088 L 169802 62372 C 170598,59799 171631,57309 172882,54922 L 175154 50565 L 166081 38854 L 177515 27419 L 189220 36493 L 193577 34228 C 195957,32976 198447,31943 201020,31141 L 205737 29684 L 207373 14797 L 223345 14797 L 224981 29684 L 229607 31141 C 232174,31943 234664,32976 237051,34228 L 241402 36493 L 253112 27419 L 264637 38854 L 255564 50565 L 257739 54922 C 258990,57309 260023,59799 260825,62372 L 262365 67088 L 277253 68725 L 277253 84972 L 262365 86608 L 260825 91235 C 260023,93808 258990,96298 257739,98685 L 255564 103042 L 264637 114753 L 253112 125918 L 241498 116838 L 237141 119020 C 234760,120271 232264,121304 229697,122106 L 225071 123646 L 223345 138443 L 207097 138443 L 205191 123556 L 200475 122010 C 197908,121214 195412,120181 193031,118923 L 188950 116838 L 177239 125918 L 166806 115388 L 165355 114932 L 156276 126277 L 176155 146073 L 190856 134266 L 191491 134266 L 193577 153151 L 236775 153151 L 238861 134998 L 239496 134998 L 254293 146798 L 284786 116293 L 272985 101495 L 272985 100860 L 292043 98685 L 292043 55018 L 273261 53292 L 273261 52657 L 285055 37949 L 254293 6988 Z" fill="#2D5967" transform="translate(39843,155513)"/>
  <path d="M 0 30409 C 0,36422 1784,42306 5127,47305 C 8464,52304 13212,56205 18769,58509 C 24326,60806 30435,61409 36332,60235 C 42229,59067 47651,56167 51899,51912 C 56154,47658 59048,42242 60222,36345 C 61396,30441 60793,24326 58489,18769 C 56192,13212 52291,8464 47292,5121 C 42293,1784 36416,0 30403,0 C 22337,0 14605,3202 8907,8907 C 3202,14611 0,22343 0,30409 Z M 45380 30409 C 45380,33445 44475,36409 42794,38931 C 41106,41459 38713,43423 35909,44584 C 33104,45746 30024,46047 27047,45457 C 24076,44867 21342,43404 19193,41260 C 17049,39111 15586,36377 14996,33400 C 14406,30429 14707,27342 15869,24538 C 17030,21734 18994,19340 21522,17653 C 24044,15965 27008,15067 30037,15067 C 32084,15022 34118,15381 36024,16132 C 37923,16876 39656,17999 41119,19430 C 42582,20861 43744,22568 44539,24455 C 45335,26341 45739,28362 45739,30409 L 45380 30409 Z" fill="#2D5967" transform="translate(86031,201721)"/>
  <path d="M 90 90 L 90 0 L 0 0 L 90 90 Z" fill="#2D5967" transform="translate(156456,205898)"/>
</svg>