<svg xmlns="http://www.w3.org/2000/svg" viewBox="0 0 385010 350616" width="40" height="37">
  <path d="M 357745 0 L 27265 0 C 20033,0 13097,2868 7982,7982 C 2875,13097 0,20033 0,27259 L 0 257463 C 0,261044 706,264586 2073,267897 C 3446,271201 5454,274205 7982,276739 C 10517,279267 13520,281276 16831,282649 C 20136,284016 23685,284722 27265,284722 L 108875 284722 C 105711,287539 103067,290895 101072,294629 L 42781 294629 C 37968,294629 33348,296541 29947,299942 C 26546,303350 24634,307963 24634,312776 C 24634,317589 26546,322203 29947,325610 C 33348,329011 37968,330923 42781,330923 L 101072 330923 C 104338,336884 109138,341857 114983,345322 C 120829,348787 127503,350616 134298,350616 C 141094,350616 147761,348787 153606,345322 C 159452,341857 164258,336884 167524,330923 L 341883 330923 C 346696,330923 351309,329011 354710,325610 C 358117,322203 360030,317589 360030,312776 C 360030,307963 358117,303350 354710,299942 C 351309,296541 346696,294629 341883,294629 L 167524 294629 C 165497,290914 162859,287564 159722,284722 L 357745 284722 C 364977,284722 371914,281853 377028,276739 C 382136,271625 385011,264695 385011,257463 L 385011 27259 C 385011,20033 382136,13097 377028,7982 C 371914,2868 364977,0 357745,0 Z" fill="#FFFFFF"/>
  <path d="M 68205 136398 C 54717,136398 41530,132400 30313,124905 C 19097,117411 10357,106759 5191,94297 C 32,81836 -1322,68123 1309,54898 C 3946,41666 10440,29513 19976,19977 C 29518,10435 41665,3942 54896,1311 C 68128,-1320 81841,27 94302,5193 C 106764,10352 117416,19092 124910,30309 C 132405,41525 136403,54712 136403,68200 C 136403,86289 129216,103634 116427,116422 C 103639,129218 86294,136398 68205,136398 Z M 68205 14638 C 57591,14638 47215,17789 38386,23686 C 29563,29583 22690,37970 18628,47775 C 14573,57586 13514,68380 15593,78788 C 17666,89196 22786,98757 30301,106252 C 37808,113753 47376,118854 57790,120914 C 68205,122974 78992,121902 88797,117828 C 98595,113753 106969,106861 112853,98032 C 118737,89196 121869,78813 121850,68200 C 121830,53986 116164,40364 106109,30321 C 96048,20279 82418,14638 68205,14638 Z" fill="#2C5967" transform="translate(124653,74774)"/>
  <path d="M 57065 31911 L 0 0 L 0 63822 L 57065 31911 Z" fill="#2C5967" transform="translate(169276,111063)"/>
  <path d="M 346875 262988 L 16395 262988 C 14239,262988 12109,262564 10119,261737 C 8130,260915 6327,259709 4800,258182 C 3279,256661 2073,254858 1251,252868 C 424,250879 0,248749 0,246593 L 0 16395 C 0,12044 1726,7873 4800,4800 C 7873,1726 12045,0 16395,0 L 346875 0 C 351226,0 355397,1726 358471,4800 C 361544,7873 363270,12044 363270,16395 L 363270 246593 C 363270,250943 361544,255108 358471,258182 C 355397,261262 351226,262988 346875,262988 Z M 16395 14553 C 15907,14553 15439,14746 15092,15092 C 14746,15439 14553,15907 14553,16395 L 14553 246593 C 14553,247081 14746,247549 15092,247895 C 15439,248242 15907,248435 16395,248435 L 346875 248435 C 347369,248435 347838,248242 348178,247895 C 348524,247549 348717,247081 348717,246593 L 348717 16395 C 348717,15907 348524,15439 348178,15092 C 347838,14746 347369,14553 346875,14553 L 16395 14553 Z" fill="#2C5967" transform="translate(10870,10871)"/>
  <path d="M 306379 14553 L 7277 14553 C 5345,14553 3497,13783 2130,12423 C 764,11056 0,9208 0,7277 C 0,5345 764,3497 2130,2130 C 3497,770 5345,0 7277,0 L 306379 0 C 308310,0 310158,770 311525,2130 C 312885,3497 313655,5345 313655,7277 C 313655,9208 312885,11056 311525,12423 C 310158,13783 308310,14553 306379,14553 Z" fill="#2C5967" transform="translate(35504,305500)"/>
  <path d="M 19725 39451 C 30621,39451 39451,30621 39451,19725 C 39451,8836 30621,0 19725,0 C 8829,0 0,8836 0,19725 C 0,30621 8829,39451 19725,39451 Z" fill="#FFFFFF" transform="translate(114572,293051)"/>
  <path d="M 27000 54002 C 21661,54002 16438,52417 11998,49453 C 7557,46482 4098,42266 2051,37331 C 11,32396 -522,26968 518,21732 C 1557,16496 4130,11683 7910,7910 C 11683,4130 16496,1564 21732,518 C 26968,-522 32397,11 37331,2058 C 42266,4098 46482,7557 49446,11997 C 52417,16438 53996,21661 53996,27000 C 53996,34161 51153,41027 46090,46090 C 41027,51153 34161,54002 27000,54002 Z M 27000 14551 C 24536,14551 22130,15283 20083,16650 C 18036,18016 16438,19961 15501,22239 C 14558,24510 14308,27013 14789,29432 C 15270,31845 16457,34058 18196,35804 C 19935,37543 22155,38730 24568,39211 C 26987,39692 29490,39442 31761,38499 C 34039,37556 35984,35964 37350,33917 C 38717,31870 39449,29464 39449,27000 C 39449,25364 39128,23747 38499,22239 C 37877,20724 36959,19351 35804,18196 C 34643,17041 33276,16124 31761,15501 C 30254,14872 28636,14551 27000,14551 Z" fill="#2C5967" transform="translate(107298,285777)"/>
</svg>