<svg xmlns="http://www.w3.org/2000/svg" viewBox="0 0 385010 335810" width="40" height="35">
  <path d="M 0 160610 L 0 0 L 177875 0 L 177875 129110 L 56853 129110 L 32533 160610 L 0 160610 Z" fill="#FFFFFF" transform="translate(203157,171196)"/>
  <path d="M 177810 7995 L 177810 129113 L 58842 129113 L 34843 160607 L 8021 160607 L 8021 7995 L 177810 7995 Z M 185832 0 L 0 0 L 0 168602 L 38501 168602 L 40875 165483 L 62756 137108 L 185832 137108 L 185832 0 Z" fill="#FFFFFF" transform="translate(199179,167209)"/>
  <path d="M 156057 218728 L 111204 160609 L 80402 160609 C 59099,160609 38630,152148 23549,137088 C 8470,122028 0,101602 0,80304 C 0,59006 8470,38581 23549,23520 C 38630,8461 59099,0 80402,0 L 223498 0 C 244802,0 265272,8461 280351,23520 C 295431,38581 303902,59006 303902,80304 C 303902,101602 295431,122028 280351,137088 C 265272,152148 244802,160609 223498,160609 L 189938 160609 L 189938 218728 L 156057 218728 Z" fill="#FFFFFF" transform="translate(6674,4029)"/>
  <path d="M 230172 8035 C 240375,7704 250578,9433 260139,13119 C 269700,16805 278427,22372 285806,29491 C 293185,36609 299025,45133 303067,54556 C 307046,63979 309100,74109 309100,84342 C 309100,94577 307046,104706 303067,114129 C 299025,123552 293185,132076 285806,139195 C 278427,146313 269700,151881 260139,155567 C 250578,159253 240375,160981 230172,160650 L 192634 160650 L 192634 218770 L 164592 218770 L 119930 160650 L 87076 160650 C 76809,160981 66607,159253 57046,155567 C 47485,151881 38758,146313 31443,139195 C 24063,132076 18224,123552 14181,114129 C 10203,104706 8150,94577 8150,84342 C 8150,74109 10203,63979 14181,54556 C 18224,45133 24063,36609 31443,29491 C 38758,22372 47485,16805 57046,13119 C 66607,9433 76809,7704 87076,8035 L 230172 8035 Z M 230172 41 L 87076 41 C 75783,-307 64490,1617 53966,5697 C 43378,9777 33817,15931 25667,23793 C 17518,31656 11101,41067 6674,51468 C 2246,61869 0,73048 0,84342 C 0,95637 2246,106817 6674,117218 C 11101,127619 17518,137030 25667,144892 C 33817,152755 43378,158909 53966,162989 C 64490,167069 75783,168992 87076,168644 L 115889 168644 L 158240 223886 L 160678 227004 L 200719 227004 L 200719 168644 L 230236 168644 C 241530,168987 252824,167058 263347,162973 C 273871,158888 283496,152729 291645,144863 C 299730,136997 306212,127583 310575,117179 C 315003,106776 317248,95596 317248,84301 C 317248,73007 315003,61829 310575,51430 C 306147,41031 299666,31623 291581,23764 C 283432,15906 273807,9756 263283,5681 C 252695,1606 241466,-312 230172,41 Z" fill="#FFFFFF"/>
  <path d="M 101899 0 L 0 0 L 0 19347 L 101899 19347 L 101899 0 Z" fill="#2D5967" transform="translate(241145,209102)"/>
  <path d="M 101899 0 L 0 0 L 0 19347 L 101899 19347 L 101899 0 Z" fill="#2D5967" transform="translate(241145,242989)"/>
  <path d="M 0 0 L 0 152615 L 26566 152615 L 50565 121115 L 169789 121115 L 169789 0 L 0 0 Z M 150346 101768 L 41324 101768 L 19571 130150 L 19571 19347 L 150346 19347 L 150346 101768 Z" fill="#2D5967" transform="translate(207200,175194)"/>
  <path d="M 298704 76387 C 298704,66344 296715,56401 292865,47127 C 289015,37854 283304,29430 276181,22340 C 269058,15249 260652,9631 251347,5804 C 242043,1977 232097,19 222023,40 L 78927 40 C 68660,-291 58457,1438 48896,5123 C 39335,8809 30608,14376 23293,21495 C 15914,28614 10074,37138 6031,46561 C 2053,55983 0,66113 0,76347 C 0,86581 2053,96710 6031,106133 C 10074,115557 15914,124081 23293,131199 C 30608,138318 39335,143885 48896,147571 C 58457,151257 68660,152985 78927,152654 L 111781 152654 L 156443 210774 L 184484 210774 L 184484 152654 L 222023 152654 C 232033,152686 242043,150737 251347,146920 C 260652,143102 269058,137490 276181,130406 C 283304,123322 289015,114904 292865,105635 C 296715,96366 298704,86427 298704,76387 Z M 164977 133308 L 164977 190149 L 121278 133308 L 78927 133308 C 71227,133595 63591,132334 56404,129601 C 49281,126868 42736,122718 37154,117400 C 31635,112083 27272,105706 24256,98652 C 21239,91599 19699,84012 19699,76347 C 19699,68682 21239,61096 24256,54042 C 27272,46988 31635,40612 37154,35294 C 42736,29976 49281,25827 56404,23094 C 63591,20360 71227,19099 78927,19387 L 222023 19387 C 229659,19099 237359,20360 244482,23094 C 251668,25827 258214,29976 263732,35294 C 269250,40612 273678,46988 276694,54042 C 279710,61096 281250,68682 281250,76347 C 281250,84012 279710,91599 276694,98652 C 273678,105706 269250,112083 263732,117400 C 258214,122718 251668,126868 244482,129601 C 237359,132334 229659,133595 222023,133308 L 164977 133308 Z" fill="#2D5967" transform="translate(8149,7996)"/>
  <path d="M 85011 42531 C 85076,34132 82573,25916 77889,18924 C 73269,11933 66595,6479 58831,3254 C 51066,29 42532,-823 34254,806 C 26041,2435 18469,6472 12501,12405 C 6533,18339 2491,25903 822,34139 C -846,42377 52,50916 3261,58677 C 6469,66439 11923,73073 18918,77742 C 25912,82409 34126,84901 42532,84901 C 53761,84902 64606,80440 72563,72496 C 80520,64553 85011,53775 85011,42531 Z M 19560 42531 C 19560,37970 20843,33508 23410,29709 C 25912,25910 29505,22947 33741,21195 C 37976,19442 42596,18979 47088,19865 C 51580,20751 55687,22946 58895,26170 C 62168,29395 64349,33505 65248,37978 C 66082,42452 65632,47088 63900,51299 C 62168,55509 59151,59104 55366,61628 C 51580,64152 47088,65491 42532,65475 C 36436,65453 30597,63030 26297,58731 C 21998,54433 19560,48609 19560,42531 Z" fill="#2D5967" transform="translate(187640,41861)"/>
  <path d="M 42596 0 C 34190,-15 25976,2461 18982,7116 C 11924,11770 6469,18395 3260,26150 C 52,33905 -846,42444 823,50683 C 2427,58923 6469,66495 12437,72440 C 18340,78384 25912,82435 34190,84080 C 42468,85725 51002,84888 58766,81677 C 66531,78467 73204,73026 77888,66043 C 82509,59061 85012,50850 85012,42451 C 85012,31206 80584,20421 72627,12462 C 64670,4503 53889,21 42596,0 Z M 42596 65395 C 38040,65411 33548,64072 29762,61548 C 25976,59024 22960,55429 21228,51219 C 19495,47009 18982,42372 19880,37899 C 20779,33425 22960,29315 26233,26090 C 29441,22866 33548,20671 38040,19786 C 42532,18900 47152,19362 51387,21115 C 55622,22868 59216,25831 61718,29629 C 64220,33428 65568,37890 65568,42451 C 65568,48529 63130,54353 58830,58651 C 54532,62950 48692,65374 42596,65395 Z" fill="#2D5967" transform="translate(44481,41935)"/>
</svg>