<svg xmlns="http://www.w3.org/2000/svg" viewBox="0 0 384144 363381" width="40" height="38">
  <path d="M 177368 354729 C 79601,354729 0,275131 0,177364 C 0,79597 79601,0 177368,0 C 263020,0 336563,60563 352137,145352 C 365978,149678 376360,162656 376360,178229 C 376360,193803 366844,205915 352137,211106 C 336563,294165 263886,354729 177368,354729 Z" fill="#FFFFFF" transform="translate(4325,4328)"/>
  <path d="M 181693 8652 C 267345,8652 338289,70946 352131,152274 C 365112,155735 375494,166982 375494,181690 C 375494,195533 365112,207646 352131,211107 C 339156,292435 267345,354732 181693,354732 C 86518,354732 8650,276862 8650,181690 C 8650,86520 86518,8652 181693,8652 Z M 181693 0 C 81327,0 0,81328 0,181690 C 0,282053 81327,363382 181693,363382 C 269078,363382 343481,301954 359921,217163 C 374628,211107 384144,197264 384144,181690 C 384144,166117 373762,151409 359921,146218 C 343481,61429 269078,0 181693,0 Z" fill="#FFFFFF"/>
  <path d="M 367711 173038 C 367711,159195 357328,147082 344347,143622 C 330506,62293 258695,0 173043,0 C 77868,0 0,77867 0,173038 C 0,268209 77868,346074 173043,346074 C 258695,346074 329640,283783 343481,202455 C 357328,198994 367711,186882 367711,173038 Z M 337430 188612 C 328773,188612 321856,181690 321856,173038 C 321856,164387 328773,157465 337430,157465 C 346080,157465 353003,164387 353003,173038 C 353003,181690 346080,188612 337430,188612 Z M 329640 144487 C 319257,147082 311474,155734 308875,166117 L 242255 166117 C 242255,151409 240523,137566 237930,123723 C 251771,117666 262154,103823 262154,87385 C 262154,65755 243988,47585 222356,47585 C 218031,47585 214573,48450 211108,49316 C 205050,38069 198133,26821 189477,16439 C 259561,22495 316665,76136 329640,144487 Z M 124590 225815 C 146221,220624 162661,202455 165253,180825 L 227548 180825 C 225815,234467 206783,286379 173043,327908 C 148813,297627 132379,263018 124590,225815 Z M 71811 173038 C 71811,151409 89983,133239 111615,133239 C 133239,133239 151412,151409 151412,173038 C 151412,194668 133239,212837 111615,212837 C 89983,212837 71811,194668 71811,173038 Z M 165253 166117 C 162661,143622 145354,125452 123723,121127 C 131513,83923 148813,49316 172177,19034 C 181693,30282 189477,43260 196400,55372 C 186884,62293 180827,74407 180827,86519 C 180827,108149 198999,126318 220624,126318 L 221490 126318 C 224089,139296 225815,152274 225815,166117 L 165253 166117 Z M 222356 61428 C 236198,61428 247446,72676 247446,86519 C 247446,100362 236198,111609 222356,111609 C 208515,111609 197267,100362 197267,86519 C 197267,72676 207649,61428 222356,61428 Z M 157469 15573 C 134106,46720 117666,81328 109882,119396 C 83060,120262 61428,140161 57970,166117 L 14708 166117 C 18173,87385 79601,23360 157469,15573 Z M 14708 179960 L 57970 179960 C 61428,205916 83060,225815 109882,226680 C 117666,263884 134106,299353 157469,330501 C 79601,322717 18173,258692 14708,179960 Z M 189477 330501 C 222356,287244 240523,234467 242255,179960 L 308875 179960 C 311474,190342 319257,198129 329640,201590 C 316665,269940 259561,323583 189477,330501 Z" fill="#2D5967" transform="translate(8650,8651)"/>
</svg>