<svg xmlns="http://www.w3.org/2000/svg" viewBox="0 0 384985 379665" width="40" height="40">
  <path d="M 128337 371526 C 122947,371526 118391,368818 114797,366103 C 114797,366103 113899,366103 113899,365199 C 113899,365199 113899,365199 113001,365199 C 108445,367913 104852,370621 98499,370621 L 97601 370621 C 84061,370621 71419,364294 63271,353449 C 44276,348925 30737,331754 30737,311866 C 25347,304634 21689,295594 21689,285651 C 21689,276611 24449,267572 30737,259436 C 30737,239549 44276,222374 63271,217854 C 68725,211526 75013,206103 83163,203391 C 87654,201583 93108,200679 97601,200679 L 99461 200679 C 100360,200679 100360,200679 101258,200679 L 101258 191639 L 0 191639 L 963 178080 C 3658,146441 21689,119322 49731,103955 C 56083,100340 59677,94915 61474,88588 C 65965,65989 80467,47909 101258,38870 C 110306,35254 119290,33447 129235,33447 C 131032,33447 133792,33447 135588,33447 C 136486,33447 137385,33447 137385,33447 C 143737,33447 149127,30734 152721,27119 C 169020,9944 191608,0 215093,0 C 247627,0 276567,18079 291004,47006 C 293699,53334 300052,57853 306404,58757 C 316286,60565 325334,65085 333484,70509 C 372370,94915 385011,145537 363322,185311 L 359664 191639 L 295560 191639 L 295560 335367 L 189811 335367 C 183458,344408 174410,350735 164528,353449 C 156378,364294 143737,370621 130134,370621 L 128337 371526 Z" fill="#FFFFFF" transform="translate(4491,3616)"/>
  <path d="M 220483 9039 C 251220,9039 279261,26215 292801,53334 C 296394,60565 302747,65989 310896,67797 C 319879,69605 328927,73221 337077,78644 C 373204,101244 385845,149153 366017,187120 L 364156 191640 L 297292 191640 L 297292 335370 L 191607 335370 C 186153,344411 177105,351643 166261,353446 C 159074,364297 147330,370624 134625,370624 L 133727 370624 C 129235,370624 125641,367910 121984,366107 C 121086,365202 120187,365202 119289,364297 C 118390,365202 117493,365202 116594,366107 C 112936,367910 109343,370624 104851,370624 L 103953 370624 C 91247,370624 79505,364297 72318,353446 C 54222,349833 41581,334465 41581,316389 C 41581,315482 41581,315482 41581,314578 C 36127,307346 32533,299211 32533,290171 C 32533,281131 35228,272996 41581,265764 C 41581,264860 41581,264860 41581,263956 C 41581,245877 55120,229606 72318,226894 C 76809,220566 83162,215143 91247,212430 C 95804,210623 99397,209718 103953,209718 C 104851,209718 104851,209718 105749,209718 C 108445,209718 110242,210623 112038,211527 L 112038 191640 L 9946 191640 L 10844 183504 C 12641,153673 29838,127458 56917,112995 C 64168,109379 69558,102147 70457,94916 C 75013,74125 88553,56949 108445,47910 C 116594,44294 125641,42486 134625,42486 C 136486,42486 138283,42486 140978,42486 C 141876,42486 142775,42486 143673,42486 C 150924,42486 157213,39774 162667,34351 C 176206,18079 197895,9039 220483,9039 Z M 220483 0 C 196099,0 171715,10848 154517,28926 C 151823,32542 147330,34351 142775,34351 C 141876,34351 141876,34351 140978,34351 C 138283,34351 136486,34351 133727,34351 C 123781,34351 112936,36158 103953,40678 C 82264,50622 65965,70509 61473,94012 C 60575,99435 56917,103955 52426,105763 C 23486,121131 3594,150057 1797,183504 L 898 191640 L 0 200679 L 9946 200679 L 98498 200679 C 94905,200679 90349,201583 86756,203391 C 78606,206103 71419,211527 65965,218758 C 46073,224182 31635,242261 30737,263052 C 25282,271188 21689,280227 21689,290171 C 21689,300114 24384,309154 30737,317287 C 30737,338078 45175,356160 65067,361583 C 74115,373338 87654,379665 102092,379665 C 102991,379665 102991,379665 103953,379665 C 110242,379665 114797,376951 118390,375141 C 121984,377856 126540,379665 132828,379665 C 132828,379665 133727,379665 134625,379665 C 149127,379665 162667,373338 171715,361583 C 181661,358875 190708,352541 196997,344411 L 297292 344411 L 306340 344411 L 306340 335370 L 306340 200679 L 364156 200679 L 369610 200679 L 372305 196159 L 374102 191640 C 396689,149153 383149,96724 342467,70509 C 333483,65085 323537,60565 313591,58757 C 307238,57854 302747,54238 300052,49718 C 284651,18983 253914,0 220483,0 Z" fill="#FFFFFF"/>
  <path d="M 328029 69605 C 319879,64181 310831,60565 301848,58757 C 293699,56949 287346,51525 283753,44294 C 270213,17175 242172,0 211435,0 C 188847,0 168057,9039 152720,25311 C 147266,30734 139181,34350 131031,33447 C 120187,32542 109342,34350 98498,38870 C 79505,47006 65067,65085 60510,85876 C 58714,94012 54222,100340 46971,103955 C 20791,117515 3593,143730 898,174464 L 0 182600 L 88552 182600 L 88552 167233 L 18095 167233 C 22587,146441 35228,128362 54222,118418 C 65965,112091 74114,102147 75911,89492 C 78606,74125 89450,60565 103888,54237 C 111139,50622 120187,49718 128337,50622 C 140978,51525 153619,47006 162667,37966 C 175308,24406 192505,17175 210536,17175 C 234921,17175 257572,30734 268416,53334 C 274705,63277 285549,71412 298190,74125 C 305442,75932 312693,78644 318981,83164 C 347023,101243 357867,137402 344327,167233 L 299089 167233 L 299089 182600 L 353311 182600 L 355172 178080 C 376861,140114 364156,93108 328029,69605 Z" fill="#2D5967" transform="translate(9048,9043)"/>
  <path d="M 186152 42487 L 143672 0 L 0 0 L 0 99436 C 2695,100339 5454,101244 8149,103052 C 10844,101244 13539,100339 16298,99436 L 16298 16271 L 128337 16271 L 128337 59662 L 171714 59662 L 171714 220567 L 97600 220567 C 97600,225990 95803,231412 94006,235936 L 186152 235936 L 186152 42487 Z M 143672 21695 L 165361 43390 L 143672 43390 L 143672 21695 Z" fill="#2D5967" transform="translate(110241,99434)"/>
  <path d="M 93108 0 L 0 0 C 2759,1808 4556,4519 6353,6326 C 12641,8133 18994,11748 24448,15363 L 94007 15363 L 94007 0 L 93108 0 Z" fill="#2D5967" transform="translate(166260,209716)"/>
  <path d="M 43378 15363 L 43378 0 L 898 0 C 898,1807 898,3615 898,6326 C 898,9940 898,12651 0,16266 L 43378 16266 L 43378 15363 Z" fill="#2D5967" transform="translate(215991,284748)"/>
  <path d="M 53324 0 L 0 0 C 898,4519 1797,8133 2695,12651 C 3594,13556 3594,14459 4492,15363 L 54223 15363 L 54223 0 L 53324 0 Z" fill="#2D5967" transform="translate(206044,248590)"/>
  <path d="M 112039 0 L 0 0 L 0 15363 L 112039 15363 L 112039 0 Z" fill="#2D5967" transform="translate(147330,174461)"/>
  <path d="M 8150 16267 C 12641,16267 16235,12625 16235,8133 C 16235,3642 12641,0 8150,0 C 3658,0 0,3642 0,8133 C 0,12625 3658,16267 8150,16267 Z" fill="#2D5967" transform="translate(63270,282031)"/>
  <path d="M 2418 2033 C -341,4744 -1240,10167 2418,12877 C 5113,15588 10504,16492 13262,12877 C 15958,10167 16856,4744 13262,2033 C 10504,-678 6011,-678 2418,2033 Z" fill="#2D5967" transform="translate(70798,257402)"/>
  <path d="M 1969 2163 C -790,5778 -790,10299 2868,13007 C 6461,15721 11016,15721 13712,12102 C 16407,8489 16407,3970 12813,1259 C 10054,-548 4664,-548 1969,2163 Z" fill="#2D5967" transform="translate(71247,306989)"/>
  <path d="M 166260 106667 C 166260,105764 166260,105764 166260,104860 C 171715,97628 175308,89492 175308,80452 C 175308,71413 172612,63277 166260,56045 C 166260,55142 166260,55142 166260,54238 C 166260,36158 152720,19887 135524,17175 C 131031,10848 124679,5424 116594,2712 C 112038,904 107546,0 102091,0 C 97600,0 94905,1808 91247,4520 C 90349,5424 89450,5424 87654,6328 C 86756,5424 84959,4520 84060,4520 C 80402,2712 77708,0 73216,0 C 68660,0 63270,904 58713,2712 C 51527,5424 44276,10848 39784,17175 C 21689,20791 9047,36158 9047,54238 C 9047,55142 9047,55142 9047,56045 C 3593,63277 0,71413 0,80452 C 0,89492 2695,97628 9047,104860 C 9047,105764 9047,105764 9047,106667 C 9047,124749 22587,141016 39784,143730 C 46971,154575 58713,160908 71355,160908 L 72254 160908 C 76809,160908 80402,158194 84060,156384 C 84959,155479 85857,155479 86756,154575 C 87654,155479 88552,155479 89450,156384 C 93044,158194 96701,160908 101194,160908 L 102091 160908 C 114733,160908 126476,154575 133727,143730 C 152720,140111 166260,124749 166260,106667 Z M 72254 145540 C 71355,145540 72254,145540 72254,145540 C 63270,145540 56019,141016 51527,133784 L 49666 130171 L 45174 130171 C 33431,129267 24384,119321 24384,107571 C 24384,106667 24384,105764 24384,103955 L 25282 100340 L 22587 97628 C 18095,93108 16234,87684 16234,81357 C 16234,75029 18994,69605 22587,65085 L 25282 61469 L 24384 57854 C 24384,56949 24384,55142 24384,54238 C 24384,42486 33431,32542 45174,31639 L 49666 31639 L 51527 28023 C 54222,22599 58713,18983 64168,17175 C 66863,16271 69558,15368 71355,15368 C 71355,15368 71355,15368 72254,15368 C 73216,15368 74114,16271 75911,17175 C 76809,18079 78606,18983 79505,19887 L 79505 125648 L 79505 141016 C 78606,141921 76809,142825 75911,142825 C 75013,143730 72254,144635 72254,145540 Z M 102990 145540 C 102091,145540 100295,144635 98498,143730 C 97600,142825 96701,142825 94905,141921 L 94905 111184 L 94905 21695 C 96701,20791 97600,19887 98498,18983 C 99397,18079 101194,17175 102091,17175 C 104787,17175 107546,17175 110241,18983 C 115632,20791 120187,24407 122882,29831 L 124679 33447 L 129235 33447 C 140978,34351 150026,44294 150026,56045 C 150026,56949 150026,57854 150026,59661 L 149127 61469 L 151822 64181 C 156314,68701 158111,74125 158111,80452 C 158111,86780 155416,92204 151822,96724 L 149127 99435 L 150026 103051 C 150026,103955 150026,105764 150026,106667 C 150026,118416 140978,128362 129235,129267 L 124679 129267 L 122882 132879 C 119289,140111 112038,145540 102990,145540 Z" fill="#2D5967" transform="translate(30737,209716)"/>
  <path d="M 8150 16267 C 12641,16267 16299,12625 16299,8133 C 16299,3642 12641,0 8150,0 C 3657,0 0,3642 0,8133 C 0,12625 3657,16267 8150,16267 Z" fill="#2D5967" transform="translate(157212,282031)"/>
  <path d="M 2022 2384 C -674,5095 -674,10517 2022,13229 C 4716,15940 10171,15940 12866,13229 C 15561,10517 15561,5095 12866,2384 C 10171,-327 5615,-1230 2022,2384 Z" fill="#2D5967" transform="translate(149801,257955)"/>
  <path d="M 12765 13382 C 16359,10674 16359,5252 13664,2540 C 10968,-171 5514,-1074 2820,1637 C -774,4348 -774,9769 1921,12483 C 4616,16096 10071,16096 12765,13382 Z" fill="#2D5967" transform="translate(149901,307512)"/>
</svg>