<svg xmlns="http://www.w3.org/2000/svg" viewBox="0 0 385010 364198" width="40" height="38">
  <path d="M 77971 356395 L 77971 341655 L 93564 333852 L 93564 192505 L 0 192505 L 866 179498 C 3465,148281 21657,120533 49378,105791 C 55448,102323 59779,97120 60646,90183 C 65843,68504 80570,49427 101361,39889 C 110023,36420 119552,33819 129081,33819 C 130814,33819 133413,33819 135145,33819 C 136011,33819 136878,33819 137744,33819 C 143808,33819 149006,31217 153337,26881 C 169803,9539 192326,0 215715,0 C 247767,0 277221,18210 291953,46826 C 295419,52896 300616,57232 307547,58966 C 317076,60700 326605,65036 335267,70239 C 374249,94519 387244,144813 365587,185569 L 362122 191638 L 283291 191638 L 283291 202911 L 340465 202911 L 340465 327782 L 287622 327782 L 287622 331247 L 306680 340789 L 306680 355528 L 77971 355528 L 77971 356395 Z" fill="#FFFFFF" transform="translate(4331,3466)"/>
  <path d="M 220046 8671 C 251232,8671 278087,26014 291953,53762 C 296285,60699 303215,65902 311012,67637 C 320541,69371 329203,73706 337000,78042 C 373383,101455 386377,149148 365587,187302 L 363854 191638 L 283291 191638 L 283291 211582 L 340465 211582 L 340465 327777 L 287622 327777 L 289355 339917 L 291953 339917 L 307546 347720 L 307546 355530 L 303215 355530 L 297151 355530 L 291087 355530 L 286756 355530 L 282418 355530 L 233907 355530 L 218314 355530 L 102227 355530 L 86634 355530 L 86634 347720 L 102227 339917 L 102227 192505 L 9529 192505 L 10395 183834 C 12994,153484 29453,127469 56308,113595 C 63244,110126 68442,103189 70175,95385 C 74506,74574 88366,57231 107424,48559 C 116087,45091 124750,43357 133412,43357 C 135145,43357 137744,43357 139477,43357 C 140343,43357 141209,43357 142075,43357 C 149006,43357 155936,40755 161133,35552 C 176733,18210 198389,8671 220046,8671 Z M 220046 0 C 194925,0 171535,10406 154203,28615 C 150738,32084 146407,33818 142075,33818 C 141209,33818 141209,33818 140343,33818 C 137744,33818 136011,33818 133412,33818 C 123017,33818 112622,35552 103959,39888 C 82302,49427 65843,69371 61512,92784 C 60646,97986 57181,103189 51976,105791 C 22523,121400 3465,150015 866,182967 L 0 191638 L 0 200309 L 9529 200309 L 93564 200309 L 93564 333847 L 82302 339051 L 77971 342523 L 77971 347720 L 77971 355530 L 77971 364199 L 86634 364199 L 102227 364199 L 218314 364199 L 233907 364199 L 283291 364199 L 287622 364199 L 291953 364199 L 298017 364199 L 303215 364199 L 307546 364199 L 316209 364199 L 316209 355530 L 316209 347720 L 316209 342523 L 311012 339917 L 304081 336452 L 340465 336452 L 349128 336452 L 349128 327777 L 349128 211582 L 349128 202911 L 340465 202911 L 291953 202911 L 291953 200309 L 363854 200309 L 369052 200309 L 371651 195974 L 374249 191638 C 396779,149148 382912,96253 342197,71105 C 333535,65035 323139,61566 313610,58965 C 308413,58098 303215,53762 300616,49427 C 285023,19077 254697,0 220046,0 Z" fill="#FFFFFF"/>
  <path d="M 327471 70238 C 319674,65035 310145,61567 301483,59833 C 293686,57231 286756,52028 283291,45091 C 269424,17343 241703,0 210517,0 C 187994,0 166337,9538 151605,26014 C 146407,32084 138610,34686 129948,33818 C 118686,32951 107425,34686 97895,39021 C 78837,47693 64111,65035 60646,85846 C 58913,93651 53715,100588 46785,104057 C 19924,117931 2599,143945 866,174295 L 0 182967 L 81436 182967 L 81436 167358 L 17326 167358 C 21657,146547 34651,128337 53715,117931 C 64977,111861 73640,101455 75372,88448 C 78837,72840 89233,58965 103959,52895 C 111756,50294 120419,48559 129081,49427 C 142075,50294 155070,45958 163739,36419 C 175867,23412 193192,15608 211384,15608 C 236506,15608 258162,29483 269424,52028 C 275495,63301 285890,71973 298884,74574 C 306680,76308 313610,78910 319674,83245 C 348261,101455 358657,137008 344796,167358 L 285023 167358 L 285023 182967 L 354325 182967 L 356924 178631 C 376848,141344 364721,92784 327471,70238 Z" fill="#2C5967" transform="translate(9529,8674)"/>
  <path d="M 15593 0 L 0 0 L 0 15608 L 15593 15608 L 15593 0 Z" fill="#2C5967" transform="translate(129947,156088)"/>
  <path d="M 15593 0 L 0 0 L 0 15608 L 15593 15608 L 15593 0 Z" fill="#2C5967" transform="translate(157675,156088)"/>
  <path d="M 15593 0 L 0 0 L 0 15608 L 15593 15608 L 15593 0 Z" fill="#2C5967" transform="translate(185396,156088)"/>
  <path d="M 15593 0 L 0 0 L 0 15609 L 15593 15609 L 15593 0 Z" fill="#2C5967" transform="translate(129947,183837)"/>
  <path d="M 15593 0 L 0 0 L 0 15609 L 15593 15609 L 15593 0 Z" fill="#2C5967" transform="translate(157675,183837)"/>
  <path d="M 15593 0 L 0 0 L 0 15608 L 15593 15608 L 15593 0 Z" fill="#2C5967" transform="translate(129947,211586)"/>
  <path d="M 15593 0 L 0 0 L 0 15608 L 15593 15608 L 15593 0 Z" fill="#2C5967" transform="translate(157675,211586)"/>
  <path d="M 15593 0 L 0 0 L 0 15608 L 15593 15608 L 15593 0 Z" fill="#2C5967" transform="translate(129947,239331)"/>
  <path d="M 15593 0 L 0 0 L 0 15608 L 15593 15608 L 15593 0 Z" fill="#2C5967" transform="translate(157675,239331)"/>
  <path d="M 15593 0 L 0 0 L 0 15609 L 15593 15609 L 15593 0 Z" fill="#2C5967" transform="translate(129947,267082)"/>
  <path d="M 15593 0 L 0 0 L 0 15609 L 15593 15609 L 15593 0 Z" fill="#2C5967" transform="translate(157675,267082)"/>
  <path d="M 15593 0 L 0 0 L 0 15607 L 15593 15607 L 15593 0 Z" fill="#2C5967" transform="translate(129947,294831)"/>
  <path d="M 15593 0 L 0 0 L 0 15607 L 15593 15607 L 15593 0 Z" fill="#2C5967" transform="translate(157675,294831)"/>
  <path d="M 15593 0 L 0 0 L 0 15609 L 15593 15609 L 15593 0 Z" fill="#2C5967" transform="translate(185396,183837)"/>
  <path d="M 15593 0 L 0 0 L 0 15608 L 15593 15608 L 15593 0 Z" fill="#2C5967" transform="translate(212250,156088)"/>
  <path d="M 15593 0 L 0 0 L 0 15609 L 15593 15609 L 15593 0 Z" fill="#2C5967" transform="translate(212250,183837)"/>
  <path d="M 15593 0 L 0 0 L 0 15608 L 15593 15608 L 15593 0 Z" fill="#2C5967" transform="translate(239970,156088)"/>
  <path d="M 15593 0 L 0 0 L 0 15609 L 15593 15609 L 15593 0 Z" fill="#2C5967" transform="translate(239970,183837)"/>
  <path d="M 196650 94518 L 196650 21678 L 138610 21678 L 106558 0 L 76232 21678 L 15593 21678 L 15593 234131 L 0 242800 L 0 250603 L 15593 250603 L 117820 250603 L 117820 242800 L 130814 234997 L 31186 234997 L 31186 38154 L 80564 38154 L 105692 19944 L 132546 38154 L 180191 38154 L 180191 94518 L 196650 94518 Z M 98762 106658 L 98762 222856 L 151604 222856 L 149872 234997 L 147273 234997 L 131680 242800 L 131680 250603 L 220047 250603 L 220047 242800 L 204453 234997 L 201855 234997 L 200116 222856 L 252965 222856 L 252965 106658 L 195784 106658 L 98762 106658 Z M 185389 222856 L 187121 234997 L 181924 234997 L 166331 234997 L 168064 222856 L 185389 222856 Z M 238238 207244 L 114355 207244 L 114355 205512 L 114355 189904 L 114355 177764 L 114355 162155 L 114355 150015 L 114355 134407 L 114355 122267 L 126482 122267 L 142075 122267 L 154203 122267 L 169796 122267 L 239104 122267 L 239104 207244 L 238238 207244 Z" fill="#2C5967" transform="translate(86634,104927)"/>
  <path d="M 45912 15608 C 42447,6070 33784,0 23389,0 C 10395,0 0,10406 0,23412 C 0,36420 10395,46826 23389,46826 C 33784,46826 42447,39888 45912,31217 L 57174 31217 L 57174 42490 L 73639 42490 L 73639 30350 L 85767 30350 L 85767 47693 L 101360 47693 L 101360 13874 L 45912 13874 L 45912 15608 Z M 16459 23412 C 16459,19077 19924,15608 24255,15608 C 28587,15608 32052,19077 32052,23412 C 32052,27748 28587,31217 24255,31217 C 19924,31217 16459,27748 16459,23412 Z" fill="#2C5967" transform="translate(212250,243671)"/>
</svg>