<svg xmlns="http://www.w3.org/2000/svg" viewBox="0 0 385010 264656" width="40" height="28">
  <path d="M 262763 258355 L 262763 233150 L 48518 233150 L 48518 115317 C 20791,110902 0,86961 0,57976 C 0,25834 25834,0 57970,0 C 79396,0 99557,11974 109009,31507 L 330191 31507 L 330191 142409 L 378709 142409 L 378709 258355 L 262763 258355 Z" fill="#FFFFFF" transform="translate(3157,3157)"/>
  <path d="M 61121 6301 C 83175,6301 101450,18904 110273,37808 L 330191 37808 L 330191 148717 L 378709 148717 L 378709 258355 L 269065 258355 L 269065 233149 L 54819 233149 L 54819 115317 C 27727,112166 6301,88854 6301,61127 C 6301,30878 30878,6301 61121,6301 Z M 61121 0 C 27098,0 0,27098 0,61127 C 0,90112 20162,115317 48518,120989 L 48518 233149 L 48518 239451 L 54819 239451 L 262763 239451 L 262763 258355 L 262763 264656 L 269065 264656 L 378709 264656 L 385011 264656 L 385011 258355 L 385011 148717 L 385011 142415 L 378709 142415 L 336493 142415 L 336493 37808 L 336493 31507 L 330191 31507 L 114053 31507 C 103343,11974 83175,0 61121,0 Z" fill="#FFFFFF"/>
  <path d="M 190298 12603 L 76874 102714 L 5666 46002 C 4408,49782 2516,53561 0,57341 L 76874 118468 L 201643 18904 L 201643 101450 L 214246 101450 L 214246 0 L 5037 0 C 6302,3779 7559,8194 8817,12603 L 190298 12603 Z" fill="#2D5967" transform="translate(115946,37808)"/>
  <path d="M 12603 95778 L 12603 0 C 10716,0 8194,0 6301,0 C 4415,0 1893,0 0,0 L 0 108380 L 204793 108380 L 204793 95778 C 205422,95778 12603,95778 12603,95778 Z" fill="#2D5967" transform="translate(54820,124769)"/>
  <path d="M 109644 54826 C 109644,24576 85068,0 54819,0 C 24577,0 0,24576 0,54826 C 0,85068 24577,109645 54819,109645 C 85068,109645 109644,85068 109644,54826 Z M 54819 12603 C 78138,12603 97042,31507 97042,54826 C 97042,78138 78138,97042 54819,97042 C 31507,97042 12603,78138 12603,54826 C 12603,31507 31507,12603 54819,12603 Z" fill="#2D5967" transform="translate(6302,6301)"/>
  <path d="M 15124 57970 C 20168,60492 25205,62384 30878,62384 C 34028,62384 37179,61749 39701,61120 C 42852,60492 45373,58599 47889,57341 L 44738 52297 L 43481 52297 C 39701,54819 35286,56083 30249,56083 C 25834,56083 21426,54819 17646,52932 C 13867,50411 10716,47889 8823,44109 C 6930,40330 5673,35915 5673,31507 C 5673,27098 6930,22684 8823,18904 C 11345,15124 14496,11974 18275,10081 C 22055,8194 26469,6930 30878,6930 C 35286,6930 39701,8194 43481,10081 C 47260,11974 50411,15124 52304,18904 C 54826,22684 55455,27098 55455,31507 L 55455 34657 C 55455,35915 54826,37179 54190,37808 C 53561,38437 52304,39066 51039,39066 C 49782,39066 48524,38437 47260,37179 C 46631,36550 46631,35286 46631,34657 L 46631 15753 L 39072 15753 L 39072 18904 C 35922,17011 32771,15753 28985,15753 C 25834,15753 23319,16382 20797,17646 C 18275,18904 16382,20797 14496,23948 C 12603,26463 11345,28985 11345,32136 C 11345,35286 11974,37808 13867,40330 C 15124,42845 17646,44738 20168,45996 C 22684,47260 25834,48518 28356,48518 C 30878,48518 33400,47889 35922,46631 C 38437,45367 40330,44109 41588,41587 C 42852,42845 44110,43481 45373,44109 C 47260,44738 49782,45367 52304,44738 C 52933,44738 53561,44109 54190,44109 C 56712,42845 59234,40959 60492,38437 C 61127,37179 61756,34657 61756,32764 L 61756 30878 C 61756,25205 59863,20162 57341,15753 C 54826,11345 51039,7559 46002,5044 C 41588,1893 36550,0 30878,0 C 25205,0 20168,1893 15124,4408 C 10081,7559 6301,10710 3779,15753 C 1264,20797 0,25834 0,31507 C 0,37179 1264,42216 4415,47260 C 6930,51668 10716,55448 15124,57970 Z M 37808 36550 C 37179,37808 35922,39066 34028,40330 C 32771,40959 30878,41587 28985,41587 C 27098,41587 25834,40959 24577,39701 C 23319,38437 22055,37808 20797,35915 C 20168,34657 19533,33400 19533,31507 C 19533,29614 20168,28356 20797,26463 C 21426,24576 22684,23948 24577,22684 C 25834,22055 27727,21426 29620,21426 C 31507,21426 32771,22055 34657,22684 C 36550,23312 37179,24576 38437,26463 C 39072,27727 39701,29614 39701,31507 C 39072,33400 39072,34657 37808,36550 Z" fill="#2D5967" transform="translate(32136,29620)"/>
  <path d="M 0 0 L 0 109645 L 109644 109645 L 109644 0 L 0 0 Z M 97042 97042 L 12603 97042 L 12603 12603 L 97042 12603 L 97042 97042 Z" fill="#2D5967" transform="translate(269065,148710)"/>
  <path d="M 22055 0 L 22055 8823 C 20797,9452 19533,10087 18904,10716 L 9452 5044 L 0 20797 L 8195 25840 C 8195,27098 7566,28991 7566,30249 C 7566,30878 7566,31507 7566,32142 L 0 36550 L 9452 52304 L 16382 47895 C 18275,49153 19533,50411 22055,51046 L 22055 59234 L 42223 59234 L 42223 51046 C 44110,49782 46002,49153 47889,47895 L 54826 52304 L 64278 36550 L 56712 32142 C 56712,31507 56712,30878 56712,30249 C 56712,28991 56712,27098 56083,25840 L 64278 20797 L 54826 5044 L 45374 10716 C 44110,10087 43481,9452 42223,8823 L 42223 0 C 42852,0 22055,0 22055,0 Z M 32136 42223 C 25834,42223 20168,37179 20168,30249 C 20168,23948 25206,18275 32136,18275 C 38437,18275 44110,23319 44110,30249 C 44110,37179 38437,42223 32136,42223 Z" fill="#2D5967" transform="translate(291119,173916)"/>
</svg>