<svg xmlns="http://www.w3.org/2000/svg" viewBox="0 0 385015 364693" width="40" height="38">
  <path d="M 75591 356614 L 75591 192678 L 0 192678 L 963 179567 C 2054,164131 7123,149236 15593,136302 C 24063,123368 35742,112823 49474,105674 C 52426,104130 54993,101941 57046,99267 C 59035,96592 60447,93500 61088,90218 C 64168,74417 72703,60183 85087,49952 C 97536,39720 113129,34126 129235,34125 C 131353,33995 133535,33995 135716,34125 L 137898 34125 C 140786,34166 143737,33592 146369,32441 C 149063,31289 151502,29585 153491,27439 C 162859,17285 174539,9560 187564,4930 C 200526,300 214451,-1097 228119,859 C 241787,2816 254813,8068 265979,16163 C 277144,24257 286191,34951 292352,47323 C 293763,50428 295945,53164 298576,55328 C 301271,57494 304351,59031 307688,59827 C 317505,61996 326810,65844 335280,71202 C 353889,83017 367364,101441 373011,122779 C 378594,144116 375963,166790 365567,186253 L 362103 192678 L 301335 192678 L 301335 356614 L 75591 356614 Z" fill="#FFFFFF" transform="translate(4684,3729)"/>
  <path d="M 220547 8684 C 235626,8636 250321,12799 263155,20701 C 275924,28604 286255,39932 292929,53401 C 294726,57036 297356,60218 300565,62713 C 303773,65208 307495,66952 311410,67816 C 320649,69920 329440,73560 337462,78582 C 355172,89808 368006,107327 373332,127623 C 378658,147917 376155,169483 366273,187990 L 364027 192071 L 301463 192071 L 301463 356005 L 84510 356005 L 84510 192071 L 9368 192071 L 10011 183387 C 11037,168697 15849,154521 23935,142211 C 32020,129899 43121,119862 56147,113054 C 59677,111203 62757,108581 65195,105381 C 67570,102181 69238,98484 70008,94560 C 72959,79754 80916,66421 92531,56828 C 104209,47235 118776,41974 133919,41940 C 135909,41940 137962,41940 139952,41940 L 142646 41940 C 146112,42075 149513,41505 152785,40266 C 155994,39027 158945,37144 161384,34733 C 168955,26556 178067,20022 188270,15541 C 198473,11059 209446,8725 220547,8684 Z M 220547 0 C 208290,27 196099,2583 184805,7513 C 173512,12441 163373,19638 154967,28655 C 153427,30344 151502,31687 149384,32599 C 147266,33511 144956,33971 142646,33951 L 140849 33951 C 138539,33822 136229,33822 133919,33951 C 116786,33969 100231,39915 87076,50776 C 73858,61638 64810,76743 61537,93518 C 60960,96106 59805,98530 58137,100619 C 56533,102706 54415,104403 52040,105587 C 37731,113068 25475,124108 16619,137651 C 7700,151195 2438,166792 1283,182954 L 706 191636 L 0 200754 L 75911 200754 L 75911 364693 L 310190 364693 L 310190 200754 L 369482 200754 L 371920 196238 L 374166 192071 C 385075,171632 387898,147802 381995,125388 C 376027,102972 361846,83640 342210,71289 C 333355,65685 323602,61633 313334,59306 C 310640,58730 308073,57558 305891,55876 C 303709,54193 301913,52043 300693,49581 C 293314,34650 281892,22090 267710,13326 C 253530,4562 237230,-55 220547,0 Z" fill="#FFFFFF"/>
  <path d="M 328286 69933 C 320265,64911 311474,61271 302234,59166 C 298255,58314 294533,56575 291325,54079 C 288116,51583 285549,48394 283753,44752 C 277914,33033 269315,22909 258663,15252 C 248075,7596 235755,2635 222793,799 C 209831,-1038 196612,303 184292,4708 C 171972,9113 160871,16448 152015,26084 C 149320,28977 145983,31197 142262,32569 C 138540,33941 134562,34426 130583,33985 C 114541,32510 98563,37014 85665,46630 C 72768,56247 63848,70298 60640,86084 C 59870,90012 58201,93715 55827,96917 C 53453,100119 50309,102737 46779,104579 C 33753,111387 22652,121424 14566,133735 C 6481,146046 1668,160221 642,174912 L 0 183595 L 63463 183595 L 63463 167705 L 17454 167705 C 19443,157275 23807,147438 30160,138927 C 36512,130417 44726,123454 54159,118559 C 59805,115624 64682,111464 68468,106385 C 72318,101307 74949,95438 76168,89210 C 78542,77141 85280,66381 95162,59041 C 104979,51700 117236,48307 129492,49528 C 135845,50224 142326,49417 148357,47171 C 154390,44925 159780,41302 164208,36591 C 171394,29028 180250,23306 190131,19905 C 200013,16504 210537,15524 220804,17048 C 231135,18571 240953,22554 249423,28659 C 257893,34766 264759,42816 269443,52133 C 272331,57801 276502,62755 281571,66642 C 286576,70529 292480,73253 298704,74622 C 308394,76768 317569,81065 325399,87196 C 333291,93328 339644,101140 344135,110062 C 348563,118984 351002,128789 351194,138763 C 351386,148736 349333,158624 345162,167705 L 303902 167705 L 303902 183422 L 355109 183422 L 357354 179340 C 367172,160804 369674,139215 364284,118917 C 358894,98619 346061,81118 328286,69933 Z" fill="#2D5967" transform="translate(9369,8648)"/>
  <path d="M 173511 15890 L 195328 15890 C 196868,15890 198344,16494 199371,17568 C 200462,18643 201104,20101 201104,21621 L 201104 51404 L 15849 51404 L 15849 21621 C 15849,20101 16427,18643 17518,17568 C 18544,16494 20021,15890 21560,15890 L 43441 15890 L 43441 0 L 21560 0 C 15849,0 10395,2269 6353,6307 C 2310,10345 0,15823 0,21534 L 0 217077 L 216953 217077 L 216953 21621 C 216953,18778 216440,15961 215349,13333 C 214258,10705 212653,8317 210665,6307 C 208675,4297 206237,2705 203606,1622 C 201039,540 198216,-11 195328,0 L 173511 0 L 173511 15890 Z M 201104 67207 L 201104 201273 L 15849 201273 L 15849 67207 L 201104 67207 Z" fill="#2D5967" transform="translate(84575,138928)"/>
  <path d="M 43378 0 L 0 0 L 0 15796 L 43378 15796 L 43378 0 Z" fill="#2D5967" transform="translate(171394,139022)"/>
  <path d="M 11807 0 L 7957 0 C 3593,0 0,3538 0,7902 L 0 41419 C 0,45782 3593,49320 7957,49320 L 11807 49320 C 16171,49320 19699,45782 19699,41419 L 19699 7902 C 19699,3538 16171,0 11807,0 Z" fill="#2D5967" transform="translate(139759,123300)"/>
  <path d="M 11807 0 L 7893 0 C 3529,0 0,3538 0,7902 L 0 41419 C 0,45782 3529,49320 7893,49320 L 11807 49320 C 16170,49320 19699,45782 19699,41419 L 19699 7902 C 19699,3538 16170,0 11807,0 Z" fill="#2D5967" transform="translate(226579,123300)"/>
  <path d="M 15785 0 L 0 0 L 0 15796 L 15785 15796 L 15785 0 Z" fill="#2D5967" transform="translate(116209,221851)"/>
  <path d="M 15849 0 L 0 0 L 0 15796 L 15849 15796 L 15849 0 Z" fill="#2D5967" transform="translate(150603,221851)"/>
  <path d="M 15785 0 L 0 0 L 0 15796 L 15785 15796 L 15785 0 Z" fill="#2D5967" transform="translate(185190,221851)"/>
  <path d="M 15785 0 L 0 0 L 0 15796 L 15785 15796 L 15785 0 Z" fill="#2D5967" transform="translate(219649,221851)"/>
  <path d="M 15785 0 L 0 0 L 0 15796 L 15785 15796 L 15785 0 Z" fill="#2D5967" transform="translate(254171,221851)"/>
  <path d="M 15785 0 L 0 0 L 0 15796 L 15785 15796 L 15785 0 Z" fill="#2D5967" transform="translate(116209,250862)"/>
  <path d="M 15849 0 L 0 0 L 0 15796 L 15849 15796 L 15849 0 Z" fill="#2D5967" transform="translate(150603,250862)"/>
  <path d="M 15785 0 L 0 0 L 0 15796 L 15785 15796 L 15785 0 Z" fill="#2D5967" transform="translate(185190,250862)"/>
  <path d="M 15785 0 L 0 0 L 0 15796 L 15785 15796 L 15785 0 Z" fill="#2D5967" transform="translate(219649,250862)"/>
  <path d="M 15785 0 L 0 0 L 0 15796 L 15785 15796 L 15785 0 Z" fill="#2D5967" transform="translate(254171,250862)"/>
  <path d="M 15785 0 L 0 0 L 0 15796 L 15785 15796 L 15785 0 Z" fill="#2D5967" transform="translate(116209,279767)"/>
  <path d="M 15849 0 L 0 0 L 0 15796 L 15849 15796 L 15849 0 Z" fill="#2D5967" transform="translate(150603,279767)"/>
  <path d="M 15785 0 L 0 0 L 0 15796 L 15785 15796 L 15785 0 Z" fill="#2D5967" transform="translate(185190,279767)"/>
  <path d="M 15785 0 L 0 0 L 0 15796 L 15785 15796 L 15785 0 Z" fill="#2D5967" transform="translate(219649,279767)"/>
  <path d="M 15785 0 L 0 0 L 0 15796 L 15785 15796 L 15785 0 Z" fill="#2D5967" transform="translate(254171,279767)"/>
  <path d="M 15785 0 L 0 0 L 0 15798 L 15785 15798 L 15785 0 Z" fill="#2D5967" transform="translate(116209,308681)"/>
  <path d="M 15849 0 L 0 0 L 0 15798 L 15849 15798 L 15849 0 Z" fill="#2D5967" transform="translate(150603,308681)"/>
  <path d="M 15785 0 L 0 0 L 0 15798 L 15785 15798 L 15785 0 Z" fill="#2D5967" transform="translate(185190,308681)"/>
  <path d="M 15785 0 L 0 0 L 0 15798 L 15785 15798 L 15785 0 Z" fill="#2D5967" transform="translate(219649,308681)"/>
  <path d="M 15785 0 L 0 0 L 0 15798 L 15785 15798 L 15785 0 Z" fill="#2D5967" transform="translate(254171,308681)"/>
</svg>