<svg xmlns="http://www.w3.org/2000/svg" viewBox="0 0 384993 364690" width="40" height="38">
  <path d="M 79569 356896 L 79569 341964 L 95290 334065 L 95290 193132 L 0 193132 L 963 179939 C 2054,164500 7123,149607 15593,136670 C 24063,123740 35678,113191 49410,106043 C 52362,104516 54993,102334 56982,99658 C 59035,96982 60447,93883 61088,90591 C 63206,79522 67891,69133 74885,60316 C 81879,51493 90927,44512 101194,39962 C 109985,36112 119482,34097 129107,34059 C 131288,34059 133406,34059 135588,34059 L 137769 34059 C 140657,34104 143609,33526 146240,32377 C 148935,31222 151373,29522 153363,27372 C 162731,17240 174410,9533 187372,4913 C 200334,293 214258,-1093 227862,858 C 241530,2815 254492,8058 265657,16143 C 276823,24222 285871,34899 291966,47258 C 293378,50434 295496,53245 298126,55485 C 300757,57724 303902,59334 307238,60194 C 316992,62395 326296,66213 334767,71488 C 353440,83276 366980,101718 372626,123099 C 378273,144480 375642,167208 365183,186709 L 361717 193132 L 291004 193132 L 291004 334065 L 306790 341964 L 306790 356896 L 79569 356896 Z" fill="#FFFFFF" transform="translate(4684,3443)"/>
  <path d="M 220418 8684 C 235434,8639 250193,12817 262962,20735 C 275732,28653 285998,39998 292672,53486 C 294469,57112 297100,60282 300309,62778 C 303453,65268 307174,67020 311153,67899 C 320393,69933 329184,73578 337141,78666 C 354852,89877 367685,107401 373011,127697 C 378337,148000 375771,169574 365888,188073 L 363643 192244 L 291389 192244 L 291389 339857 L 307174 347757 L 307174 356009 L 88553 356009 L 88553 348103 L 103953 340204 L 103953 192591 L 8663 192591 L 9240 183909 C 10331,169214 15144,155040 23229,142719 C 31314,130405 42351,120344 55377,113490 C 58907,111649 62051,109031 64425,105829 C 66864,102627 68532,98924 69302,94991 C 72254,80187 80211,66853 91825,57260 C 103439,47666 118006,42405 133085,42373 C 135075,42244 137128,42244 139181,42373 L 141812 42373 C 145406,42546 148999,41955 152336,40640 C 155673,39324 158753,37310 161255,34730 C 168827,26561 177939,20029 188141,15550 C 198345,11071 209317,8729 220418,8684 Z M 220418 2 C 208099,15 195906,2562 184677,7497 C 173383,12425 163244,19625 154838,28653 C 153234,30341 151373,31688 149256,32600 C 147139,33511 144828,33973 142518,33947 L 140722 33947 C 138347,33947 136101,33947 133791,33947 C 116786,33934 100295,39825 87076,50618 C 73922,61418 64874,76452 61537,93168 C 60960,95838 59805,98347 58200,100509 C 56533,102672 54415,104436 51976,105675 C 37603,113163 25410,124213 16555,137772 C 7700,151337 2438,166949 1283,183126 L 706 191808 L 0 200926 L 95290 200926 L 95290 334820 L 84382 340377 L 79569 342719 L 79569 364691 L 315837 364691 L 315837 342719 L 311024 340377 L 300052 334820 L 300052 200926 L 369354 200926 L 371791 196325 L 374038 192155 C 380775,179706 384497,165858 384946,151709 C 385396,137560 382636,123494 376733,110628 C 370830,97756 362039,86431 351065,77537 C 340093,68650 327195,62438 313398,59390 C 310704,58813 308137,57632 305955,55931 C 303773,54231 301977,52062 300757,49579 C 293314,34602 281892,22012 267646,13246 C 253465,4481 237102,-113 220418,2 Z" fill="#FFFFFF"/>
  <path d="M 327965 69988 C 320008,64893 311153,61248 301977,59220 C 297999,58341 294276,56589 291132,54093 C 287924,51604 285293,48427 283496,44808 C 277657,33078 269059,22946 258471,15284 C 247883,7616 235563,2649 222601,808 C 209639,-1040 196484,294 184164,4690 C 171843,9085 160742,16420 151887,26052 C 149192,28926 145791,31140 142133,32526 C 138412,33912 134433,34426 130455,34041 C 114477,32526 98499,37012 85601,46637 C 72703,56256 63784,70334 60640,86139 C 59870,90066 58201,93769 55763,96971 C 53389,100173 50244,102791 46715,104632 C 33688,111486 22652,121547 14566,133868 C 6481,146188 1668,160356 578,175051 L 0 183733 L 83163 183733 L 83163 167761 L 17390 167761 C 19443,157340 23807,147516 30160,139007 C 36512,130505 44662,123530 54094,118615 C 59741,115689 64618,111524 68468,106423 C 72254,101328 74885,95431 76104,89174 C 77644,81371 81045,74056 85986,67845 C 90927,61633 97344,56711 104595,53490 C 112295,50044 120830,48697 129300,49582 C 135652,50275 142133,49467 148101,47221 C 154133,44975 159587,41356 163951,36646 C 171073,29042 179993,23280 189875,19853 C 199692,16426 210280,15425 220547,16940 C 230878,18454 240696,22445 249166,28561 C 257636,34682 264503,42755 269187,52098 C 272074,57841 276181,62865 281186,66805 C 286255,70745 292159,73491 298383,74852 C 305891,76482 313078,79420 319559,83534 C 333227,92184 343301,105486 347922,120989 C 352606,136486 351515,153156 344905,167934 L 293892 167934 L 293892 183733 L 354531 183733 L 356777 179568 C 366723,161036 369290,139418 363964,119077 C 358573,98735 345739,81185 327965,69988 Z" fill="#2D5967" transform="translate(9368,8665)"/>
  <path d="M 15785 0 L 0 0 L 0 15805 L 15785 15805 L 15785 0 Z" fill="#2D5967" transform="translate(133855,156733)"/>
  <path d="M 15721 0 L 0 0 L 0 15805 L 15721 15805 L 15721 0 Z" fill="#2D5967" transform="translate(161447,156733)"/>
  <path d="M 15786 0 L 0 0 L 0 15805 L 15786 15805 L 15786 0 Z" fill="#2D5967" transform="translate(189039,156733)"/>
  <path d="M 15785 0 L 0 0 L 0 15798 L 15785 15798 L 15785 0 Z" fill="#2D5967" transform="translate(133855,184338)"/>
  <path d="M 15721 0 L 0 0 L 0 15798 L 15721 15798 L 15721 0 Z" fill="#2D5967" transform="translate(161447,184338)"/>
  <path d="M 15785 0 L 0 0 L 0 15805 L 15785 15805 L 15785 0 Z" fill="#2D5967" transform="translate(133855,211950)"/>
  <path d="M 15721 0 L 0 0 L 0 15805 L 15721 15805 L 15721 0 Z" fill="#2D5967" transform="translate(161447,211950)"/>
  <path d="M 0 0 L 0 15805 L 4748 15805 C 8150,11666 11999,7906 16235,4601 L 16235 0 L 0 0 Z" fill="#2D5967" transform="translate(133855,239562)"/>
  <path d="M 15786 0 L 0 0 L 0 15798 L 15786 15798 L 15786 0 Z" fill="#2D5967" transform="translate(189039,184338)"/>
  <path d="M 15722 0 L 0 0 L 0 15805 L 7701 15805 L 15722 15805 L 15722 0 Z" fill="#2D5967" transform="translate(189039,211950)"/>
  <path d="M 15721 0 L 0 0 L 0 15805 L 15721 15805 L 15721 0 Z" fill="#2D5967" transform="translate(216632,156733)"/>
  <path d="M 15721 0 L 0 0 L 0 15798 L 15721 15798 L 15721 0 Z" fill="#2D5967" transform="translate(216632,184338)"/>
  <path d="M 15721 0 L 0 0 L 0 15805 L 15721 15805 L 15721 0 Z" fill="#2D5967" transform="translate(216632,211950)"/>
  <path d="M 15785 0 L 0 0 L 0 15805 L 15785 15805 L 15785 0 Z" fill="#2D5967" transform="translate(244161,156733)"/>
  <path d="M 15785 0 L 0 0 L 0 15798 L 15785 15798 L 15785 0 Z" fill="#2D5967" transform="translate(244161,184338)"/>
  <path d="M 15785 0 L 0 0 L 0 15805 L 15785 15805 L 15785 0 Z" fill="#2D5967" transform="translate(244161,211950)"/>
  <path d="M 15785 0 L 0 0 L 0 3998 C 4427,7456 8470,11422 12064,15805 L 15785 15805 L 15785 0 Z" fill="#2D5967" transform="translate(244161,239562)"/>
  <path d="M 203157 21535 L 140593 21535 L 108509 0 L 78542 21535 L 15721 21535 L 15721 234619 L 0 242518 L 0 250424 L 51976 250424 C 47869,245611 44469,240298 41709,234619 L 32213 234619 L 32213 37250 L 84189 37250 L 109407 19193 L 136422 37250 L 188398 37250 L 188398 234619 L 175693 234619 C 172613,240349 168827,245656 164399,250424 L 218943 250424 L 218943 242518 L 203157 234619 L 203157 21535 Z" fill="#2D5967" transform="translate(88231,105585)"/>
  <path d="M 124857 41783 C 121905,33242 117157,25459 110869,18997 C 104580,12541 96880,7568 88474,4443 C 78527,574 67811,-799 57224,446 C 46700,1684 36561,5502 27834,11566 C 19620,17264 12819,24791 8006,33557 C 3194,42322 498,52088 50,62086 C -336,72083 1525,82036 5632,91173 C 9739,100305 15835,108364 23535,114723 L 25717 116456 L 102591 116456 L 104772 114723 C 115232,106170 122804,94542 126461,81471 C 130055,68400 129478,54527 124857,41783 Z M 23535 90410 L 35021 85456 L 28733 70960 L 17439 75908 C 16412,72128 15899,68259 15771,64357 C 15771,61033 16092,57710 16797,54456 L 28412 59667 L 34829 45254 L 22444 39697 C 26037,33608 30850,28365 36625,24329 L 38101 23373 L 43299 37009 L 58058 31362 L 52603 17123 C 60240,15339 68196,15339 75832,17123 L 70378 31535 L 85009 37182 L 90527 22853 C 97201,27005 102719,32729 106633,39524 L 93478 45428 L 96751 52634 L 99959 59840 L 112023 54456 C 113435,61733 113243,69228 111510,76427 L 99895 71307 L 96751 78513 L 93543 85802 L 105286 90930 C 102976,94536 100216,97808 97008,100651 L 31621 100651 C 28476,97603 25781,94157 23535,90410 Z" fill="#2D5967" transform="translate(132394,239553)"/>
  <path d="M 17051 38809 C 21222,38475 25072,36512 27768,33342 C 30462,30121 31810,25982 31553,21792 C 31361,20284 30976,18795 30462,17364 L 37521 0 L 19682 7636 C 18014,7187 16281,7046 14549,7206 C 12496,7354 10442,7912 8645,8849 C 6784,9792 5116,11088 3769,12673 C 1073,15850 -274,19976 46,24134 C 239,26206 752,28221 1715,30076 C 2678,31924 3961,33566 5501,34901 C 8389,37333 11982,38687 15768,38726 L 17051 38809 Z" fill="#2D5967" transform="translate(181100,283588)"/>
</svg>