<svg xmlns="http://www.w3.org/2000/svg" viewBox="0 0 385011 305764" width="40" height="32">
  <path d="M 84959 244140 L 128446 222350 L 84959 200653 L 102721 191498 L 0 191498 L 1008 178224 C 2246,162852 7392,148051 15965,135231 C 24538,122411 36255,111999 49987,104987 C 52939,103469 55506,101306 57501,98659 C 59497,96013 60870,92949 61525,89698 C 64605,73895 73081,59655 85511,49417 C 97934,39179 113533,33580 129633,33580 C 131796,33441 133971,33441 136133,33580 L 138328 33580 C 141209,33613 144071,33043 146715,31908 C 149365,30773 151746,29097 153709,26989 C 163084,16972 174737,9368 187680,4820 C 200623,272 214477,-1085 228055,866 C 241633,2816 254537,8015 265677,16021 C 276816,24028 285864,34605 292037,46854 C 293494,49946 295637,52666 298306,54807 C 300969,56949 304088,58455 307418,59213 C 317172,61343 326470,65186 334882,70565 C 353562,82349 367076,100778 372697,122134 C 378324,143491 375636,166185 365183,185640 L 361705 192139 L 276021 192139 L 292589 201294 L 249102 222625 L 292954 244596 L 188039 295591 L 84959 244140 Z" fill="#FFFFFF" transform="translate(4947,4868)"/>
  <path d="M 220720 9154 C 235736,9093 250469,13247 263238,21145 C 276008,29043 286300,40368 292948,53830 C 294745,57426 297318,60575 300488,63046 C 303658,65518 307335,67248 311262,68111 C 320541,70201 329389,73854 337443,78914 C 355198,90029 368051,107489 373390,127742 C 378728,147996 376155,169523 366190,187946 L 363989 192066 L 263290 192066 L 287641 205615 L 243699 227129 L 256975 233720 L 287641 249008 L 192980 295421 L 100154 249008 L 130454 233811 L 143635 227220 L 100154 205523 L 126976 192249 L 9888 192249 L 10530 183827 C 11538,169192 16279,155058 24288,142768 C 32302,130479 43320,120442 56301,113610 C 59843,111791 62930,109202 65336,106034 C 67743,102866 69411,99198 70219,95300 C 72222,85026 76681,75388 83220,67211 C 89752,59033 98171,52558 107752,48337 C 116010,44740 124923,42871 133932,42844 L 139977 42844 L 142634 42844 C 146067,42797 149461,42060 152605,40676 C 155750,39292 158586,37290 160941,34788 C 168590,26617 177856,20121 188142,15708 C 198435,11297 209523,9065 220720,9154 Z M 220720 0 C 208361,10 196137,2567 184811,7513 C 173486,12460 163302,19688 154896,28746 C 153362,30380 151502,31679 149435,32561 C 147376,33443 145149,33890 142903,33873 L 141074 33873 C 138790,33735 136493,33735 134208,33873 C 117024,33903 100385,39886 87115,50801 C 73851,61717 64772,76891 61428,93744 C 60909,96316 59811,98738 58226,100830 C 56641,102922 54607,104631 52272,105829 C 37924,113324 25725,124351 16819,137870 C 7912,151388 2599,166952 1373,183094 L 732 191516 L 0 201404 L 88251 201404 L 79736 205707 L 96034 213854 L 123499 227403 L 96034 240952 L 79736 249194 L 96034 257337 L 188861 303756 L 192980 305765 L 197010 303756 L 291671 257247 L 308240 249097 L 291671 240861 L 264207 227129 L 291671 213762 L 307418 206072 L 298261 201221 L 369116 201221 L 371683 196460 L 373877 192340 C 380654,179888 384446,166033 384953,151866 C 385460,137698 382668,123607 376803,110701 C 370938,97797 362154,86430 351142,77498 C 340137,68566 327201,62313 313366,59231 C 310781,58681 308349,57577 306231,55997 C 304113,54417 302362,52397 301098,50076 C 293731,35043 282290,22380 268083,13527 C 253869,4675 237462,-12 220720,0 Z" fill="#FFFFFF"/>
  <path d="M 139059 8696 L 151970 15196 L 92922 44124 L 35248 15286 L 47876 8882 L 30300 92 L 0 15286 L 92826 61706 L 187487 15286 L 156821 0 L 139059 8696 Z" fill="#2D5967" transform="translate(100154,233715)"/>
  <path d="M 92826 61702 L 187487 15380 L 156821 0 L 139059 8697 L 151970 15197 L 92922 44126 L 35248 15289 L 47876 8972 L 30300 184 L 0 15289 L 92826 61702 Z" fill="#2D5967" transform="translate(100154,190232)"/>
  <path d="M 187487 46872 L 93654 0 L 0 46780 L 92826 93195 L 187487 46872 Z M 93654 17577 L 151970 46689 L 92922 75617 L 35248 46780 L 93654 17577 Z" fill="#2D5967" transform="translate(100154,115254)"/>
  <path d="M 139059 8697 L 151970 15197 L 92922 44126 L 35248 15289 L 47876 8972 L 30300 184 L 0 15289 L 92826 61702 L 187487 15380 L 156821 0 L 139059 8697 Z" fill="#2D5967" transform="translate(100154,190232)"/>
  <path d="M 139059 8696 L 151970 15196 L 92922 44124 L 35248 15286 L 47876 8882 L 30300 92 L 0 15286 L 92826 61706 L 187487 15286 L 156821 0 L 139059 8696 Z" fill="#2D5967" transform="translate(100154,233715)"/>
  <path d="M 327644 69759 C 319565,64690 310678,61037 301373,58957 C 297446,58094 293770,56364 290599,53892 C 287430,51421 284856,48271 283060,44675 C 276412,31214 266119,19889 253350,11991 C 240580,4093 225847,-62 210832,1 C 199730,22 188751,2326 178581,6767 C 168410,11208 159253,17692 151694,25817 C 148993,28693 145656,30902 141953,32268 C 138251,33634 134285,34121 130364,33690 C 119353,32703 108271,34498 98139,38908 C 88559,43129 80140,49604 73607,57782 C 67069,65960 62609,75597 60601,85872 C 59799,89769 58130,93437 55724,96605 C 53317,99774 50225,102362 46689,104181 C 33708,111013 22684,121051 14675,133339 C 6661,145629 1925,159763 911,174398 L 0 183095 L 77079 183095 L 77079 167166 L 17576 167166 C 19623,156792 23973,147012 30313,138551 C 36653,130088 44815,123160 54197,118279 C 59837,115356 64746,111194 68551,106105 C 72356,101016 74955,95131 76168,88893 C 77695,81115 81083,73823 86043,67639 C 90997,61454 97382,56559 104639,53372 C 112288,50000 120662,48615 128991,49344 C 135293,50006 141658,49201 147600,46994 C 153536,44786 158887,41236 163225,36619 C 169315,30078 176681,24857 184869,21282 C 193057,17707 201893,15854 210832,15838 C 222902,15745 234760,19064 245027,25413 C 255294,31762 263559,40883 268872,51724 C 271747,57442 275860,62447 280910,66375 C 285960,70302 291825,73054 298075,74428 C 305608,76213 312770,79312 319225,83583 C 332861,92214 342922,105476 347568,120931 C 352208,136387 351117,152999 344488,167715 L 289560 167715 L 289560 183095 L 354197 183095 L 356391 178975 C 366414,160534 369020,138964 363674,118667 C 358336,98371 345444,80879 327644,69759 Z" fill="#2D5967" transform="translate(9882,9149)"/>
</svg>