<svg xmlns="http://www.w3.org/2000/svg" viewBox="0 0 368455 385010" width="39" height="40">
  <path d="M 368455 140433 L 311666 0 L 56597 96 L 0 140144 L 0 384529 L 368455 385011 L 368455 140433 Z" fill="#FFFFFF"/>
  <path d="M 0 108188 L 108188 108188 L 108188 0 L 0 0 L 0 108188 Z M 14342 14245 L 94328 14245 L 94328 93943 L 14342 93943 L 14342 14245 Z" fill="#2C5967" transform="translate(11550,265657)"/>
  <path d="M 0 108188 L 108092 108188 L 108092 0 L 0 0 L 0 108188 Z M 14245 14245 L 93846 14245 L 93846 93943 L 14245 93943 L 14245 14245 Z" fill="#2C5967" transform="translate(130615,265657)"/>
  <path d="M 0 108188 L 108188 108188 L 108188 0 L 0 0 L 0 108188 Z M 14342 14245 L 93846 14245 L 93846 93943 L 14342 93943 L 14342 14245 Z" fill="#2C5967" transform="translate(249583,265657)"/>
  <path d="M 0 108188 L 108188 108188 L 108188 0 L 0 0 L 0 108188 Z M 14342 14245 L 94328 14245 L 94328 94039 L 14342 94039 L 14342 14245 Z" fill="#2C5967" transform="translate(11550,146592)"/>
  <path d="M 0 108188 L 108092 108188 L 108092 0 L 0 0 L 0 108188 Z M 14245 14245 L 93846 14245 L 93846 94039 L 14245 94039 L 14245 14245 Z" fill="#2C5967" transform="translate(130615,146592)"/>
  <path d="M 0 0 L 0 108188 L 108188 108188 L 108188 0 L 0 0 Z M 93846 94039 L 14342 94039 L 14342 14245 L 93846 14245 L 93846 94039 Z" fill="#2C5967" transform="translate(249583,146592)"/>
  <path d="M 0 67377 L 104915 67377 L 115599 0 L 26662 0 L 0 67377 Z M 99429 13475 L 93173 53613 L 20309 53613 L 36095 13475 L 99429 13475 Z" fill="#2C5967" transform="translate(14245,68339)"/>
  <path d="M 103953 67377 L 95964 0 L 7989 0 L 0 67377 L 103953 67377 Z M 20213 13475 L 83740 13475 L 88456 53613 L 15497 53613 L 20213 13475 Z" fill="#2C5967" transform="translate(131674,68339)"/>
  <path d="M 114733 67665 L 88456 0 L 0 0 L 10684 67377 L 114733 67665 Z M 78831 13764 L 94616 53901 L 22427 53901 L 16170 13764 L 78831 13764 Z" fill="#2C5967" transform="translate(238803,68050)"/>
  <path d="M 18673 0 L 0 48126 L 85954 48126 L 93461 0 L 18673 0 Z M 74211 33592 L 20309 33592 L 28106 13764 L 77291 13764 L 74211 33592 Z" fill="#2C5967" transform="translate(45624,9625)"/>
  <path d="M 80660 0 L 5583 0 L 0 48126 L 85954 48126 L 80660 0 Z M 15497 33881 L 17807 14053 L 68051 14053 L 70457 33881 L 15497 33881 Z" fill="#2C5967" transform="translate(140721,9625)"/>
  <path d="M 74788 0 L 0 0 L 7508 48126 L 93461 48126 L 74788 0 Z M 19251 33881 L 16170 14053 L 65452 14053 L 73248 33881 L 19251 33881 Z" fill="#2C5967" transform="translate(229563,9625)"/>
</svg>