<svg xmlns="http://www.w3.org/2000/svg" viewBox="0 0 385010 372292" width="40" height="39">
  <path d="M 186153 364130 C 165298,364130 95354,362314 95354,334163 L 95354 232463 C 90798,237911 86243,242448 81751,246991 L 54479 273326 L 0 217024 L 27272 190689 C 38116,180705 49923,170714 62628,160729 L 97151 136210 C 78992,99885 86243,55390 116209,26335 C 133471,9086 157084,0 181597,0 C 207007,0 231584,9991 249744,29062 C 266940,47222 276951,70829 276053,96253 C 276053,106244 274256,115324 271497,124403 C 273293,123499 275154,123499 276053,122587 C 289656,118051 308714,118051 316029,118051 C 337783,118051 374102,120771 374102,140747 L 374102 221567 C 374102,233368 360499,240632 335087,243359 L 335087 272414 C 335087,286942 315067,296022 276951,297844 L 276951 334163 C 276951,362314 207007,364130 186153,364130 Z" fill="#FFFFFF" transform="translate(6353,3626)"/>
  <path d="M 187950 9080 C 211563,9080 235177,18160 252438,36319 C 268802,53574 277850,76271 277850,99885 C 277850,112596 274256,125308 268802,137109 C 273293,134388 277850,132572 283304,131661 C 296009,127124 315067,127124 322382,127124 C 335087,127124 375898,128029 375898,145284 L 375898 226098 C 375898,237905 353247,242448 336884,243352 L 336884 276040 C 336884,293295 297870,296927 278747,297838 L 278747 338700 C 278747,363213 201617,364124 192505,364124 C 183393,364124 106263,363213 106263,338700 L 106263 224281 C 98948,232457 91697,240632 84446,246984 L 60832 269687 L 12705 219745 L 36320 197953 C 47228,187962 59035,177971 71741,168891 L 109856 142557 C 90798,108053 96253,63559 126220,34503 C 143481,17249 166196,9080 187950,9080 Z M 187950 0 C 162538,0 138026,9985 119867,27239 C 89900,56295 81751,101701 98050,138925 L 66286 160723 C 52682,170707 40875,180698 29967,190683 L 6353 213386 L 0 220650 L 6353 227009 L 54479 276951 L 60832 283304 L 67184 276951 L 90798 254248 C 92595,252432 94456,250616 97151,247896 L 97151 337789 C 97151,367756 157084,372292 192505,372292 C 227926,372292 287859,367756 287859,337789 L 287859 305102 C 325976,302375 345996,292390 345996,275135 L 345996 250616 C 372305,247896 385011,238809 385011,225193 L 385011 145284 C 385011,122581 350488,118044 322382,118044 C 313270,118044 296907,118949 284202,122581 C 286063,115317 286961,108053 286961,100789 C 287859,74455 277850,49942 259689,30871 C 240632,10896 215221,0 187950,0 Z" fill="#FFFFFF"/>
  <path d="M 215221 0 C 207906,0 188848,905 176143,4537 C 172485,14528 167993,24512 161641,32687 C 191608,32687 209767,38135 215221,41767 C 209767,45399 190645,50847 160742,50847 C 155288,50847 149834,50847 145277,49942 C 143481,50847 142519,52663 140722,53574 C 135268,57206 129813,60838 123460,63559 C 143481,66286 155288,70823 157983,74455 C 154325,78998 128016,88078 85344,88078 C 59934,88078 39913,85350 27207,81719 L 19059 92621 C 38116,98973 65388,100789 85344,100789 C 107162,100789 140722,98069 157983,89894 L 157983 119860 C 154325,124397 128016,132572 85344,132572 C 42672,132572 15401,124397 12706,119860 L 12706 99885 C 8150,105333 3594,109869 0,115317 L 0 118044 L 0 119860 L 0 164355 L 0 166171 L 0 211570 C 0,236089 77195,237000 86243,237000 C 95355,237000 172485,236089 172485,211570 L 172485 170707 C 191608,169803 230622,166171 230622,148916 L 230622 116228 C 247883,115317 269700,110780 269700,98973 L 269700 18160 C 268737,905 227926,0 215221,0 Z M 157983 209754 C 154325,214297 128016,222465 85344,222465 C 42672,222465 15401,214297 12706,209754 L 12706 179787 C 35421,189778 78992,190689 85344,190689 C 91697,190689 136166,190689 157983,179787 L 157983 209754 Z M 157983 165259 C 154325,169803 128016,177971 85344,177971 C 42672,177971 15401,169803 12706,165259 L 12706 134388 C 35421,144379 78992,145284 85344,145284 C 91697,145284 136166,145284 157983,134388 L 157983 165259 Z M 216120 148011 C 213360,150732 197960,156180 170689,157091 L 170689 134388 C 182495,133477 202452,132572 216120,127124 L 216120 148011 Z M 216120 111685 C 213360,114412 197960,119860 170689,120765 L 170689 118949 L 170689 118044 L 170689 98973 C 181597,98069 202452,97157 216120,91709 L 216120 111685 Z M 216120 76271 C 213360,78998 197960,84446 170689,85350 L 170689 73550 C 170689,69007 168892,66286 164336,62654 C 176143,62654 199756,60838 215221,55390 L 216120 76271 Z M 215221 22696 C 197062,22696 184292,19976 177940,18160 C 184292,15432 197062,13617 215221,13617 C 233381,13617 246087,16344 252439,18160 C 246984,19976 233381,22696 215221,22696 Z M 255134 97157 C 252439,98973 244225,101701 228825,102605 L 228825 88982 C 236974,88078 246984,87166 255134,84446 L 255134 97157 Z M 255134 69918 C 252439,71734 244225,74455 228825,75366 L 228825 61743 C 236974,60838 246984,59927 255134,57206 L 255134 69918 Z M 255134 42672 C 252439,44494 244225,47215 228825,48126 L 228825 40856 C 228825,39040 227926,36319 227028,34503 C 236076,33592 246984,32687 255134,29960 L 255134 42672 Z" fill="#2C5967" transform="translate(107161,127125)"/>
  <path d="M 130775 167097 C 143481,174361 158945,178904 174346,178904 C 175244,178904 175244,178904 176143,178904 C 199756,178904 221574,169825 237937,153481 C 255198,137131 265144,114434 265144,90820 C 266042,67213 256995,44510 239733,27261 C 205210,-8153 148935,-9064 113514,24534 C 83547,53590 78093,98084 97151,132594 L 59035 158929 C 46329,168008 34523,177993 23614,187984 L 0 210687 L 48126 260629 L 71741 237926 C 82649,227935 92660,216135 102605,203423 L 130775 167097 Z M 122562 34525 C 136229,21814 153491,14550 171651,13639 L 171651 30893 L 184356 30893 L 184356 13639 C 201617,15454 217916,22718 230622,36341 C 243391,49053 250642,65397 251541,83556 L 235177 83556 L 235177 96268 L 251541 96268 C 249744,114434 241530,131683 228825,144394 C 216120,156201 200655,163465 184356,165281 L 184356 148938 L 171651 148938 L 171651 166193 C 152528,165281 134369,157113 120765,143490 C 108059,130778 100808,114434 99911,97179 L 120765 97179 L 120765 90820 L 120765 84468 L 99911 84468 C 100808,65397 108958,48142 122562,34525 Z M 62693 228847 L 48126 242463 L 18160 211592 L 32726 197969 C 42672,187984 54479,178904 66286,169825 L 104402 143490 C 106263,146211 108958,148938 110819,150754 C 113514,153481 116209,156201 119867,158929 L 92660 196153 C 82649,207960 72639,219767 62693,228847 Z" fill="#2C5967" transform="translate(12705,9058)"/>
  <path d="M 49987 29960 C 48126,30871 45431,31776 42736,31776 C 33624,31776 26373,24512 26373,15432 C 26373,12712 27272,9985 28170,8169 L 20021 0 L 0 57206 L 57238 37231 L 49987 29960 Z" fill="#2C5967" transform="translate(147074,84446)"/>
  <path d="M 15464 25424 C 24512,25424 31763,32687 31763,41774 C 31763,44495 30865,47222 29966,49942 L 37217 57206 L 57174 0 L 0 19976 L 8149 28151 C 10010,25424 12705,25424 15464,25424 Z" fill="#2C5967" transform="translate(174346,58111)"/>
</svg>