<svg xmlns="http://www.w3.org/2000/svg" viewBox="0 0 385010 379584" width="40" height="40">
  <path d="M 251604 370552 L 251604 341632 L 174923 341632 L 174923 259385 C 142454,254866 116337,228657 111845,196120 L 92916 196120 L 108252 224137 L 0 224137 L 54094 125625 L 80275 172622 L 111845 172622 C 116337,140085 142454,113876 174923,109357 L 174923 48804 L 123524 48804 L 123524 77725 L 46009 77725 L 46009 0 L 123524 0 L 123524 27113 L 196612 27113 L 196612 111165 C 229017,115684 255198,141893 259689,174430 L 275924 174430 L 295752 140990 L 346253 140990 L 371535 185275 L 346253 228657 L 295752 228657 L 277721 197024 L 261486 197024 C 256995,229560 230878,255770 198409,260288 L 198409 319936 L 252503 319936 L 252503 292825 L 330018 292825 L 330018 370552 L 251604 370552 Z" fill="#FFFFFF" transform="translate(8085,4521)"/>
  <path d="M 127118 9037 L 127118 36151 L 200141 36151 L 200141 119299 C 234407,122914 260588,149124 264182,183467 L 286705 183467 L 306597 150027 L 351643 150027 L 374166 189794 L 351643 229560 L 306597 229560 L 288501 197928 L 265080 197928 C 261486,232271 235306,258481 201039,262096 L 201039 329880 L 264182 329880 L 264182 302767 L 332713 302767 L 332713 370550 L 264182 370550 L 264182 341629 L 187564 341629 L 187564 260288 C 153298,257577 126220,230464 123524,196120 L 92852 196120 L 108188 224137 L 15336 224137 L 62243 140085 L 85665 182564 L 123524 182564 C 127118,148220 153298,122010 187564,118395 L 187564 48804 L 127118 48804 L 127118 77725 L 58586 77725 L 58586 9037 L 127118 9037 Z M 136165 0 L 127118 0 L 58586 0 L 49602 0 L 49602 9037 L 49602 77725 L 49602 86763 L 58586 86763 L 127118 86763 L 136165 86763 L 136165 77725 L 136165 57841 L 178516 57841 L 178516 111165 C 146946,117491 121727,141893 115439,174430 L 90157 174430 L 69430 136471 L 61345 122010 L 54094 136471 L 7187 220523 L 0 234079 L 15336 234079 L 107289 234079 L 122626 234079 L 115439 220523 L 107289 206062 L 115439 206062 C 121727,237694 146047,263000 178516,269327 L 178516 342534 L 178516 351569 L 187564 351569 L 255198 351569 L 255198 370550 L 255198 379585 L 264182 379585 L 332713 379585 L 341761 379585 L 341761 370550 L 341761 301863 L 341761 292825 L 332713 292825 L 264182 292825 L 255198 292825 L 255198 301863 L 255198 319940 L 210087 319940 L 210087 268422 C 241659,262096 266876,236791 273229,205158 L 283111 205158 L 298447 232271 L 301143 236791 L 306597 236791 L 351643 236791 L 357033 236791 L 359792 232271 L 382315 192505 L 385011 187986 L 382315 183467 L 359792 143701 L 357033 139182 L 351643 139182 L 306597 139182 L 301143 139182 L 298447 144605 L 281314 173526 L 272330 173526 C 265978,141893 240760,116588 209189,110261 L 209189 36151 L 209189 27113 L 200141 27113 L 136165 27113 L 136165 9037 L 136165 0 Z" fill="#FFFFFF"/>
  <path d="M 249744 187082 L 273165 187082 L 291196 218715 L 336307 218715 L 358830 178948 L 337205 140086 L 292095 140086 L 272267 173526 L 249744 173526 C 246150,139182 219970,112972 185703,109357 L 185703 27113 L 112680 27113 L 112680 0 L 44148 0 L 44148 68687 L 112680 68687 L 112680 39766 L 173126 39766 L 173126 109357 C 138861,112972 111782,140086 109086,173526 L 70328 173526 L 46843 131048 L 0 215100 L 91953 215100 L 76617 187082 L 107289 187082 C 110883,221426 137064,247636 171329,251251 L 171329 332590 L 247947 332590 L 247947 361510 L 316478 361510 L 316478 292825 L 247947 292825 L 247947 319936 L 184805 319936 L 184805 252154 C 219970,248540 247048,221426 249744,187082 Z M 57687 55130 L 57687 13557 L 99140 13557 L 99140 55130 L 57687 55130 Z M 23422 202447 L 46843 159065 L 70328 202447 L 23422 202447 Z M 304736 306382 L 304736 347958 L 263283 347958 L 263283 306382 L 304736 306382 Z M 121727 180756 C 121727,149124 147844,122914 179415,122914 C 210986,122914 237102,149124 237102,180756 C 237102,212389 210986,238598 179415,238598 C 147844,238598 121727,212389 121727,180756 Z M 284010 179852 L 299346 153642 L 329120 153642 L 343494 179852 L 328157 206062 L 298447 206062 L 284010 179852 Z" fill="#2D5967" transform="translate(14438,9033)"/>
</svg>