<svg xmlns="http://www.w3.org/2000/svg" viewBox="0 0 354722 385010" width="37" height="40">
  <path d="M 69687 375845 L 69687 145753 L 0 145753 L 898 132920 C 2760,109086 16491,88002 37603,77002 C 41261,75168 44019,71502 44918,67835 C 48575,50418 60511,35751 76104,29334 C 82520,26584 90734,24750 98114,24750 C 99910,24750 101771,24750 102669,24750 L 103568 24750 C 107289,24750 109985,22917 112744,21084 C 124680,8250 142069,0 160421,0 C 172356,0 183329,2750 193404,9166 L 202579 13750 C 214515,5500 229209,916 243840,916 C 270406,916 294276,13750 307110,35751 C 308907,37584 312628,44001 315324,53168 L 343750 81585 L 326361 98086 L 316286 88002 C 309870,121920 279581,146670 244738,146670 C 237423,146670 230108,145753 222793,143004 L 222793 374927 L 69687 374927 L 69687 375845 Z" fill="#FFFFFF" transform="translate(4555,4584)"/>
  <path d="M 165875 9167 C 176912,9167 187885,11917 197061,17417 C 197061,17417 204376,21084 208996,23834 C 220931,15584 234664,10083 250257,10083 C 274063,10083 296073,22917 308008,42168 C 308907,44001 312564,50418 315324,59585 L 329055 73336 L 341889 86169 L 331815 96253 L 328157 92586 L 318981 83419 C 316221,119170 286897,147587 250257,147587 C 241080,147587 231905,145754 223627,142087 L 223627 375841 L 78798 375841 L 78798 145754 L 10074 145754 L 10973 137504 C 12834,115503 25667,95336 45816,85252 C 50372,82502 54094,77919 54992,73336 C 57752,57752 67826,44001 82456,37584 C 88873,34834 95290,33001 102669,33001 C 104466,33001 105428,33001 107225,33001 C 108124,33001 108124,33001 109086,33001 C 113642,33001 118262,31167 121920,27501 C 132893,16500 149383,9167 165875,9167 Z M 165875 0 C 146625,0 128337,8250 114540,22001 C 112744,23834 110882,24750 109086,24750 L 108124 24750 C 106327,24750 104466,24750 102669,24750 C 94392,24750 86178,26584 78798,29334 C 61409,36668 48575,53168 44918,71502 C 44918,74252 43057,76085 40297,77919 C 18288,89836 3657,111837 898,137504 L 0 145754 L 0 154921 L 10074 154921 L 70585 154921 L 70585 375841 L 70585 385011 L 79761 385011 L 224589 385011 L 233765 385011 L 233765 375841 L 233765 154004 C 238322,155837 243840,155837 250257,155837 C 285100,155837 314425,132920 324499,101753 L 325398 102669 L 331815 109086 L 338232 102669 L 348306 92586 L 354722 86169 L 348306 79752 L 335472 66919 L 323601 55001 C 321741,50418 320842,46751 318981,44001 L 315324 37584 C 301592,14667 275924,917 249294,917 C 234664,917 219969,5500 207135,12834 C 204376,11000 201681,10083 200718,9167 C 190644,3667 177810,0 165875,0 Z" fill="#FFFFFF"/>
  <path d="M 130198 277759 L 15593 277759 L 15593 14667 L 90798 14667 L 76104 0 L 0 0 L 0 292422 L 144829 292422 L 144829 69668 C 139374,67835 134754,66002 130198,62335 L 130198 277759 Z" fill="#2C5967" transform="translate(78798,83419)"/>
  <path d="M 0 14667 L 79697 14667 C 76039,10083 73281,5500 71484,0 L 0 0 L 0 14667 Z" fill="#2C5967" transform="translate(105428,109086)"/>
  <path d="M 10973 40334 L 81559 40334 L 81559 27501 L 92531 27501 L 92531 12834 L 81559 12834 L 81559 0 L 10973 0 L 10973 12834 L 0 12834 L 0 27501 L 10973 27501 L 10973 40334 Z M 25667 14667 L 65965 14667 L 65965 25667 L 25667 25667 L 25667 14667 Z" fill="#2C5967" transform="translate(105428,135672)"/>
  <path d="M 187885 8250 C 178709,2750 167736,0 156700,0 C 140208,0 123717,7334 112744,19251 C 109086,22917 103568,24751 98050,24751 C 89836,23834 81559,25667 73281,28418 C 58650,34834 48576,48584 44918,64168 C 43955,69669 40298,74252 35742,76086 C 15529,86169 2695,106336 898,128337 L 0 136587 L 58650 136587 L 58650 121920 L 17390 121920 C 21047,108170 30224,96253 43058,88919 C 52233,84336 57752,76086 59548,66002 C 61410,55001 68725,45835 79697,41251 C 85216,38501 90734,37585 97151,38501 C 107226,39418 117300,35751 123717,28418 C 131995,19251 144829,13751 157662,13751 C 164978,13751 172292,15584 178709,18334 C 180570,15584 184228,11917 187885,8250 Z" fill="#2C5967" transform="translate(9175,9167)"/>
  <path d="M 77901 0 L 57752 0 L 40298 29334 L 22909 0 L 1797 0 L 26566 41251 L 0 86167 L 20149 86167 L 39400 53168 L 58650 86167 L 79697 86167 L 53132 41251 L 77901 0 Z" fill="#2C5967" transform="translate(111845,253007)"/>
  <path d="M 14631 0 L 0 0 L 0 14667 L 14631 14667 L 14631 0 Z" fill="#2C5967" transform="translate(105428,187006)"/>
  <path d="M 14631 0 L 0 0 L 0 14667 L 14631 14667 L 14631 0 Z" fill="#2C5967" transform="translate(131095,187006)"/>
  <path d="M 14631 0 L 0 0 L 0 14667 L 14631 14667 L 14631 0 Z" fill="#2C5967" transform="translate(156763,187006)"/>
  <path d="M 14631 0 L 0 0 L 0 14667 L 14631 14667 L 14631 0 Z" fill="#2C5967" transform="translate(183328,187006)"/>
  <path d="M 14631 0 L 0 0 L 0 14667 L 14631 14667 L 14631 0 Z" fill="#2C5967" transform="translate(105428,212674)"/>
  <path d="M 14631 0 L 0 0 L 0 14667 L 14631 14667 L 14631 0 Z" fill="#2C5967" transform="translate(131095,212674)"/>
  <path d="M 14631 0 L 0 0 L 0 14667 L 14631 14667 L 14631 0 Z" fill="#2C5967" transform="translate(156763,212674)"/>
  <path d="M 14631 0 L 0 0 L 0 14667 L 14631 14667 L 14631 0 Z" fill="#2C5967" transform="translate(183328,212674)"/>
  <path d="M 31186 91669 L 62307 60501 L 52233 50418 L 38501 63251 C 41261,35751 64168,14667 91633,14667 C 111846,14667 130134,25667 139309,43085 L 150347 32084 C 138412,12834 116402,0 92595,0 C 56853,0 26566,28417 23806,64168 L 10075 50418 L 0 60501 L 31186 91669 Z" fill="#2C5967" transform="translate(157661,10086)"/>
  <path d="M 151245 31167 L 138411 18334 L 120123 0 L 88937 31167 L 99012 41251 L 111846 28417 C 109086,55918 86179,77002 58650,77002 C 38501,77002 20149,66002 11037,48585 L 0 59585 C 11935,78835 33945,91669 57752,91669 C 93493,91669 123781,63251 126540,27501 L 135652 36668 L 139374 40334 L 151245 31167 Z" fill="#2C5967" transform="translate(190644,55003)"/>
  <path d="M 34844 75168 L 34844 57752 L 27529 53168 L 27529 37584 C 35741,34834 40362,26584 40362,16500 L 40362 14667 L 32983 0 L 25667 0 L 25667 13750 L 20149 20167 L 14695 13750 L 14695 0 L 7315 0 L 0 14667 L 0 16500 C 0,26584 5518,33917 12834,37584 L 12834 53168 L 5518 57752 L 5518 75168 L 20149 83419 L 34844 75168 Z" fill="#2C5967" transform="translate(229145,36668)"/>
</svg>