<svg xmlns="http://www.w3.org/2000/svg" viewBox="1477 19553 246 172" width="48" height="48">
  <path d="M 1600 19721 C 1598,19721 1597,19721 1596,19721 C 1585,19720 1576,19715 1569,19707 C 1568,19707 1566,19707 1565,19707 C 1564,19707 1563,19707 1562,19707 C 1553,19706 1545,19702 1540,19695 C 1507,19695 1507,19695 1507,19695 C 1507,19684 1507,19684 1507,19684 C 1533,19684 1533,19684 1533,19684 C 1532,19680 1531,19675 1532,19670 C 1532,19670 1532,19670 1532,19670 C 1494,19670 1494,19670 1494,19670 C 1494,19659 1494,19659 1494,19659 C 1525,19659 1525,19659 1525,19659 C 1521,19654 1519,19649 1518,19644 C 1481,19644 1481,19644 1481,19644 C 1481,19633 1481,19633 1481,19633 C 1517,19633 1517,19633 1517,19633 C 1518,19628 1520,19623 1523,19619 C 1494,19619 1494,19619 1494,19619 C 1494,19608 1494,19608 1494,19608 C 1535,19608 1535,19608 1535,19608 C 1534,19605 1534,19602 1534,19598 C 1534,19597 1535,19595 1535,19594 C 1507,19594 1507,19594 1507,19594 C 1507,19583 1507,19583 1507,19583 C 1540,19583 1540,19583 1540,19583 C 1542,19580 1544,19577 1547,19575 C 1553,19570 1561,19567 1569,19567 C 1570,19567 1571,19567 1572,19567 C 1574,19568 1577,19568 1579,19569 C 1588,19561 1599,19557 1610,19557 C 1612,19557 1614,19557 1615,19557 C 1632,19559 1646,19568 1654,19583 C 1692,19583 1692,19583 1692,19583 C 1692,19594 1692,19594 1692,19594 C 1658,19594 1658,19594 1658,19594 C 1659,19596 1659,19599 1660,19602 C 1663,19603 1666,19606 1669,19608 C 1705,19608 1705,19608 1705,19608 C 1705,19619 1705,19619 1705,19619 C 1678,19619 1678,19619 1678,19619 C 1680,19623 1682,19628 1682,19633 C 1719,19633 1719,19633 1719,19633 C 1719,19644 1719,19644 1719,19644 C 1682,19644 1682,19644 1682,19644 C 1682,19649 1680,19654 1677,19659 C 1705,19659 1705,19659 1705,19659 C 1705,19670 1705,19670 1705,19670 C 1668,19670 1668,19670 1668,19670 C 1667,19670 1667,19670 1667,19671 C 1667,19673 1667,19676 1667,19678 C 1667,19680 1666,19682 1666,19684 C 1691,19684 1691,19684 1691,19684 C 1692,19685 1692,19685 1692,19685 C 1692,19686 1692,19687 1692,19693 C 1692,19695 1692,19695 1692,19695 C 1660,19695 1660,19695 1660,19695 C 1654,19703 1645,19707 1635,19707 C 1634,19707 1633,19707 1632,19707 C 1631,19707 1630,19707 1630,19707 C 1622,19716 1611,19721 1600,19721 Z" fill="#ffffff"/>
  <path d="M 1610 19559 C 1612,19559 1614,19559 1615,19559 C 1632,19561 1645,19571 1652,19585 C 1690,19585 1690,19585 1690,19585 C 1690,19592 1690,19592 1690,19592 C 1655,19592 1655,19592 1655,19592 C 1657,19595 1657,19599 1658,19603 C 1662,19605 1665,19607 1668,19610 C 1703,19610 1703,19610 1703,19610 C 1703,19617 1703,19617 1703,19617 C 1674,19617 1674,19617 1674,19617 C 1678,19622 1680,19628 1681,19635 C 1717,19635 1717,19635 1717,19635 C 1717,19642 1717,19642 1717,19642 C 1681,19642 1681,19642 1681,19642 C 1681,19642 1681,19642 1681,19642 C 1680,19649 1677,19655 1674,19661 C 1703,19661 1703,19661 1703,19661 C 1703,19668 1703,19668 1703,19668 C 1667,19668 1667,19668 1667,19668 C 1666,19668 1665,19669 1664,19670 C 1665,19673 1665,19675 1665,19678 C 1665,19681 1664,19684 1663,19686 C 1690,19686 1690,19686 1690,19686 C 1690,19687 1690,19693 1690,19693 C 1659,19693 1659,19693 1659,19693 C 1653,19701 1645,19705 1635,19705 C 1634,19705 1633,19705 1632,19705 C 1631,19705 1630,19705 1629,19704 C 1622,19714 1611,19719 1600,19719 C 1598,19719 1597,19719 1596,19719 C 1585,19718 1576,19713 1570,19704 C 1568,19705 1567,19705 1565,19705 C 1564,19705 1563,19705 1562,19705 C 1554,19704 1546,19700 1541,19693 C 1541,19693 1541,19693 1541,19693 C 1509,19693 1509,19693 1509,19693 C 1509,19686 1509,19686 1509,19686 C 1536,19686 1536,19686 1536,19686 C 1534,19681 1533,19676 1534,19670 C 1534,19669 1534,19669 1534,19668 C 1496,19668 1496,19668 1496,19668 C 1496,19661 1496,19661 1496,19661 C 1530,19661 1530,19661 1530,19661 C 1524,19656 1521,19649 1519,19642 C 1483,19642 1483,19642 1483,19642 C 1483,19635 1483,19635 1483,19635 C 1519,19635 1519,19635 1519,19635 C 1519,19635 1519,19635 1519,19634 C 1520,19628 1523,19622 1527,19617 C 1496,19617 1496,19617 1496,19617 C 1496,19610 1496,19610 1496,19610 C 1537,19610 1537,19610 1537,19610 C 1537,19610 1537,19610 1537,19610 C 1536,19606 1536,19602 1536,19599 C 1536,19596 1537,19594 1538,19592 C 1509,19592 1509,19592 1509,19592 C 1509,19585 1509,19585 1509,19585 C 1541,19585 1541,19585 1541,19585 C 1543,19582 1545,19579 1548,19577 C 1554,19572 1561,19569 1569,19569 C 1570,19569 1571,19569 1572,19569 C 1574,19570 1577,19570 1579,19571 C 1588,19563 1599,19559 1610,19559 M 1610 19555 C 1610,19555 1610,19555 1610,19555 C 1599,19555 1587,19559 1578,19566 C 1576,19566 1574,19566 1572,19565 C 1571,19565 1570,19565 1569,19565 C 1560,19565 1552,19568 1545,19573 C 1543,19575 1541,19578 1539,19581 C 1509,19581 1509,19581 1509,19581 C 1505,19581 1505,19581 1505,19581 C 1505,19585 1505,19585 1505,19585 C 1505,19592 1505,19592 1505,19592 C 1505,19596 1505,19596 1505,19596 C 1509,19596 1509,19596 1509,19596 C 1533,19596 1533,19596 1533,19596 C 1532,19596 1532,19597 1532,19598 C 1532,19601 1532,19604 1532,19606 C 1496,19606 1496,19606 1496,19606 C 1492,19606 1492,19606 1492,19606 C 1492,19610 1492,19610 1492,19610 C 1492,19617 1492,19617 1492,19617 C 1492,19621 1492,19621 1492,19621 C 1496,19621 1496,19621 1496,19621 C 1519,19621 1519,19621 1519,19621 C 1517,19624 1516,19627 1516,19631 C 1483,19631 1483,19631 1483,19631 C 1479,19631 1479,19631 1479,19631 C 1479,19635 1479,19635 1479,19635 C 1479,19642 1479,19642 1479,19642 C 1479,19646 1479,19646 1479,19646 C 1483,19646 1483,19646 1483,19646 C 1516,19646 1516,19646 1516,19646 C 1517,19650 1519,19653 1521,19657 C 1496,19657 1496,19657 1496,19657 C 1492,19657 1492,19657 1492,19657 C 1492,19661 1492,19661 1492,19661 C 1492,19668 1492,19668 1492,19668 C 1492,19672 1492,19672 1492,19672 C 1496,19672 1496,19672 1496,19672 C 1530,19672 1530,19672 1530,19672 C 1530,19675 1530,19679 1531,19682 C 1509,19682 1509,19682 1509,19682 C 1505,19682 1505,19682 1505,19682 C 1505,19686 1505,19686 1505,19686 C 1505,19693 1505,19693 1505,19693 C 1505,19697 1505,19697 1505,19697 C 1509,19697 1509,19697 1509,19697 C 1539,19697 1539,19697 1539,19697 C 1545,19704 1553,19708 1561,19709 C 1563,19709 1564,19709 1565,19709 C 1566,19709 1567,19709 1568,19709 C 1575,19717 1585,19722 1595,19723 C 1597,19723 1598,19723 1600,19723 C 1612,19723 1623,19718 1630,19709 C 1631,19709 1631,19709 1632,19709 C 1633,19709 1634,19709 1635,19709 C 1645,19709 1654,19705 1661,19697 C 1690,19697 1690,19697 1690,19697 C 1694,19697 1694,19697 1694,19697 C 1694,19693 1694,19693 1694,19693 C 1694,19687 1694,19685 1694,19685 C 1693,19682 1693,19682 1693,19682 C 1690,19682 1690,19682 1690,19682 C 1668,19682 1668,19682 1668,19682 C 1669,19681 1669,19680 1669,19679 C 1669,19676 1669,19674 1669,19672 C 1703,19672 1703,19672 1703,19672 C 1707,19672 1707,19672 1707,19672 C 1707,19668 1707,19668 1707,19668 C 1707,19661 1707,19661 1707,19661 C 1707,19657 1707,19657 1707,19657 C 1703,19657 1703,19657 1703,19657 C 1681,19657 1681,19657 1681,19657 C 1682,19653 1683,19650 1684,19646 C 1717,19646 1717,19646 1717,19646 C 1721,19646 1721,19646 1721,19646 C 1721,19642 1721,19642 1721,19642 C 1721,19635 1721,19635 1721,19635 C 1721,19631 1721,19631 1721,19631 C 1717,19631 1717,19631 1717,19631 C 1684,19631 1684,19631 1684,19631 C 1683,19628 1682,19624 1681,19621 C 1703,19621 1703,19621 1703,19621 C 1707,19621 1707,19621 1707,19621 C 1707,19617 1707,19617 1707,19617 C 1707,19610 1707,19610 1707,19610 C 1707,19606 1707,19606 1707,19606 C 1703,19606 1703,19606 1703,19606 C 1670,19606 1670,19606 1670,19606 C 1667,19604 1664,19602 1661,19601 C 1661,19599 1661,19597 1661,19596 C 1690,19596 1690,19596 1690,19596 C 1694,19596 1694,19596 1694,19596 C 1694,19592 1694,19592 1694,19592 C 1694,19585 1694,19585 1694,19585 C 1694,19581 1694,19581 1694,19581 C 1690,19581 1690,19581 1690,19581 C 1655,19581 1655,19581 1655,19581 C 1646,19566 1632,19557 1616,19555 C 1614,19555 1612,19555 1610,19555 C 1610,19555 1610,19555 1610,19555 Z" fill="#ffffff"/>
  <path d="M 1509 19585 C 1509,19592 1509,19592 1509,19592 C 1532,19592 1532,19592 1532,19592 C 1533,19589 1534,19587 1535,19585 Z" fill="#312d2a"/>
  <path d="M 1690 19592 C 1690,19585 1690,19585 1690,19585 C 1658,19585 1658,19585 1658,19585 C 1659,19587 1660,19589 1661,19592 Z" fill="#312d2a"/>
  <path d="M 1527 19610 C 1496,19610 1496,19610 1496,19610 C 1496,19617 1496,19617 1496,19617 C 1520,19617 1520,19617 1520,19617 C 1522,19615 1524,19612 1527,19610 Z" fill="#312d2a"/>
  <path d="M 1703 19617 C 1703,19610 1703,19610 1703,19610 C 1676,19610 1676,19610 1676,19610 C 1678,19612 1679,19615 1681,19617 Z" fill="#312d2a"/>
  <path d="M 1686 19642 C 1717,19642 1717,19642 1717,19642 C 1717,19635 1717,19635 1717,19635 C 1686,19635 1686,19635 1686,19635 C 1686,19637 1686,19640 1686,19642 Z" fill="#312d2a"/>
  <path d="M 1514 19635 C 1483,19635 1483,19635 1483,19635 C 1483,19642 1483,19642 1483,19642 C 1514,19642 1514,19642 1514,19642 C 1514,19640 1514,19637 1514,19635 Z" fill="#312d2a"/>
  <path d="M 1522 19661 C 1496,19661 1496,19661 1496,19661 C 1496,19668 1496,19668 1496,19668 C 1529,19668 1529,19668 1529,19668 C 1529,19667 1529,19667 1529,19666 C 1527,19665 1524,19663 1522,19661 Z" fill="#312d2a"/>
  <path d="M 1703 19668 C 1703,19661 1703,19661 1703,19661 C 1680,19661 1680,19661 1680,19661 C 1679,19663 1677,19665 1675,19668 Z" fill="#312d2a"/>
  <path d="M 1690 19693 C 1690,19686 1690,19686 1690,19686 C 1669,19686 1669,19686 1669,19686 C 1668,19689 1667,19691 1665,19693 Z" fill="#312d2a"/>
  <path d="M 1509 19686 C 1509,19693 1509,19693 1509,19693 C 1534,19693 1534,19693 1534,19693 C 1533,19691 1532,19689 1531,19686 Z" fill="#312d2a"/>
  <path d="M 1681 19642 C 1682,19626 1673,19610 1658,19603 C 1656,19580 1638,19562 1615,19559 C 1602,19558 1589,19562 1579,19571 C 1577,19570 1574,19570 1572,19569 C 1563,19568 1555,19571 1548,19577 C 1541,19582 1537,19590 1536,19599 C 1536,19602 1536,19606 1537,19610 C 1527,19614 1520,19624 1519,19634 C 1518,19647 1524,19658 1535,19664 C 1535,19666 1534,19668 1534,19670 C 1533,19679 1536,19687 1541,19693 C 1546,19700 1554,19704 1562,19705 C 1565,19705 1567,19705 1570,19704 C 1576,19713 1585,19718 1596,19719 C 1597,19719 1598,19719 1600,19719 C 1611,19719 1622,19714 1629,19704 C 1630,19705 1631,19705 1632,19705 C 1633,19705 1634,19705 1635,19705 C 1650,19705 1663,19694 1665,19678 C 1665,19675 1665,19673 1664,19670 C 1674,19663 1679,19653 1681,19642 Z M 1657 19669 C 1658,19672 1658,19675 1658,19678 C 1657,19684 1654,19689 1650,19693 C 1645,19697 1639,19699 1633,19698 C 1631,19698 1630,19697 1628,19697 C 1626,19696 1626,19696 1626,19696 C 1624,19698 1624,19698 1624,19698 C 1618,19708 1608,19713 1596,19712 C 1588,19711 1580,19706 1575,19699 C 1573,19696 1573,19696 1573,19696 C 1571,19697 1571,19697 1571,19697 C 1568,19698 1565,19698 1563,19698 C 1556,19697 1550,19694 1546,19689 C 1542,19684 1540,19678 1541,19671 C 1541,19669 1542,19666 1543,19664 C 1545,19660 1545,19660 1545,19660 C 1541,19659 1541,19659 1541,19659 C 1533,19656 1528,19650 1527,19642 C 1576,19642 1576,19642 1576,19642 C 1566,19652 1566,19652 1566,19652 C 1571,19657 1571,19657 1571,19657 C 1590,19638 1590,19638 1590,19638 C 1571,19620 1571,19620 1571,19620 C 1566,19625 1566,19625 1566,19625 C 1576,19635 1576,19635 1576,19635 C 1526,19635 1526,19635 1526,19635 C 1527,19626 1534,19618 1542,19616 C 1546,19614 1546,19614 1546,19614 C 1545,19611 1545,19611 1545,19611 C 1543,19607 1543,19603 1543,19599 C 1544,19592 1547,19586 1552,19582 C 1558,19578 1564,19576 1571,19576 C 1574,19577 1576,19577 1579,19578 C 1581,19579 1581,19579 1581,19579 C 1582,19578 1582,19578 1582,19578 C 1591,19569 1603,19565 1615,19566 C 1635,19568 1650,19585 1651,19606 C 1651,19608 1651,19608 1651,19608 C 1653,19609 1653,19609 1653,19609 C 1664,19613 1672,19623 1674,19635 C 1624,19635 1624,19635 1624,19635 C 1633,19626 1633,19626 1633,19626 C 1628,19621 1628,19621 1628,19621 C 1611,19638 1611,19638 1611,19638 C 1629,19657 1629,19657 1629,19657 C 1634,19652 1634,19652 1634,19652 C 1624,19642 1624,19642 1624,19642 C 1673,19642 1673,19642 1673,19642 C 1672,19652 1667,19660 1659,19665 C 1656,19666 1656,19666 1656,19666 Z" fill="#312d2a"/>
</svg>