<svg xmlns="http://www.w3.org/2000/svg" viewBox="0 0 385010 385010" width="40" height="40">
  <path d="M 20123 375845 C 9144,375845 0,366675 0,355677 L 0 20167 C 0,9166 9144,0 20123,0 L 355750 0 C 366723,0 375867,9166 375867,20167 L 375867 356594 C 375867,367593 366723,376762 355750,376762 L 20123 375845 Z" fill="#FFFFFF" transform="translate(4562,4584)"/>
  <path d="M 359407 9167 C 367634,9167 374949,16500 374949,24750 L 374949 361178 C 374949,369424 367634,376759 359407,376759 L 24692 376759 C 16459,375841 9144,368513 9144,360261 L 9144 24750 C 9144,16500 16459,9167 24692,9167 L 359407 9167 Z M 359407 0 L 24692 0 C 10973,0 0,11000 0,24750 L 0 361178 C 0,374012 10973,385011 24692,385011 L 360318 385011 C 374038,385011 385011,374012 385011,360261 L 385011 24750 C 384093,11000 373120,0 359407,0 Z" fill="#FFFFFF"/>
  <path d="M 0 314428 C 0,322674 7315,330008 15542,330008 L 351174 330008 C 359401,330008 366716,322674 366716,314428 L 366716 0 L 0 0 L 0 314428 Z M 13713 13750 L 352085 13750 L 352085 315339 C 352085,316257 351174,317174 350257,317174 L 15542 317174 C 14630,317174 13713,316257 13713,315339 L 13713 13750 Z" fill="#2D5967" transform="translate(9151,45839)"/>
  <path d="M 350257 0 L 15542 0 C 7315,0 0,7334 0,15584 L 0 26584 L 365805 26584 L 365805 15584 C 365805,7334 358490,0 350257,0 Z" fill="#2D5967" transform="translate(9151,9171)"/>
  <path d="M 275270 38501 C 275270,31167 268872,24750 261557,24750 L 110658 24750 L 96028 5500 C 93282,1833 89624,0 85055,0 L 13719 0 C 6404,0 0,6417 0,13751 L 0 209006 L 275270 209006 L 275270 38501 Z M 13719 13751 L 85055 13751 L 98768 31167 L 85055 48585 L 12808 48585 L 13719 13751 C 12808,13751 12808,13751 13719,13751 Z M 261557 195256 L 12808 195256 L 12808 62335 L 84138 62335 C 88713,62335 92371,60502 95111,56835 L 109747 37584 L 260640 37584 L 260640 195256 L 261557 195256 Z" fill="#2D5967" transform="translate(54864,105423)"/>
  <path d="M 53042 0 L 0 0 L 0 13751 L 53042 13751 L 53042 0 Z" fill="#2D5967" transform="translate(79562,130176)"/>
</svg>