<svg xmlns="http://www.w3.org/2000/svg" viewBox="0 0 385011 372202" width="40" height="39">
  <path d="M 129030 363376 C 123133,363350 117479,360988 113315,356805 C 109151,352621 106808,346955 106808,341051 L 106808 192283 L 0 192283 L 1007 178737 C 2239,163375 7379,148584 15946,135770 C 24512,122962 36210,112554 49929,105547 C 52875,104026 55441,101864 57437,99220 C 59426,96576 60799,93515 61454,90262 C 63475,79238 68147,68862 75058,60032 C 81975,51203 90920,44183 101142,39575 C 109965,35719 119494,33730 129126,33723 C 131256,33582 133393,33582 135524,33723 L 137718 33723 C 140600,33755 143448,33184 146099,32048 C 148742,30913 151123,29238 153080,27133 C 162474,17046 174172,9384 187173,4815 C 200173,246 214091,-1101 227727,901 C 241363,2897 254306,8178 265452,16282 C 276604,24393 285614,35083 291716,47442 C 293153,50555 295284,53282 297953,55425 C 300616,57568 303741,59063 307084,59795 C 320207,62759 332463,68714 342909,77191 C 353350,85674 361698,96454 367287,108691 C 372883,120934 375578,134301 375160,147750 C 374737,161200 371220,174374 364874,186245 L 361403 192739 L 269405 192739 L 269405 341051 C 269405,346955 267069,352621 262905,356805 C 258740,360988 253087,363350 247183,363376 L 129030 363376 Z" fill="#FFFFFF" transform="translate(4941,4252)"/>
  <path d="M 220483 9150 C 235479,9086 250193,13244 262950,21137 C 275706,29030 285992,40349 292634,53799 C 294424,57392 296997,60543 300160,63013 C 303324,65484 307007,67210 310922,68076 C 320194,70162 329036,73813 337077,78870 C 354813,89977 367653,107431 372985,127670 C 378318,147915 375751,169430 365792,187840 L 363598 191960 L 269591 191960 L 269591 345303 C 269591,349994 267736,354498 264425,357822 C 261121,361146 256629,363027 251938,363052 L 133971 363052 C 129280,363027 124795,361146 121484,357822 C 118179,354498 116324,349994 116324,345303 L 116324 192140 L 9876 192140 L 10517 183721 C 11525,169097 16260,154973 24262,142691 C 32264,130410 43275,120374 56244,113546 C 59779,111730 62860,109144 65266,105974 C 67672,102811 69341,99140 70143,95245 C 72144,84978 76598,75347 83130,67172 C 89656,59003 98062,52528 107636,48313 C 115888,44719 124788,42852 133791,42820 L 139823 42820 L 142383 42820 C 145816,42775 149205,42037 152349,40657 C 155487,39271 158323,37269 160678,34773 C 168327,26592 177599,20091 187892,15683 C 198184,11275 209285,9048 220483,9150 Z M 220483 0 C 208137,13 195926,2567 184613,7514 C 173300,12455 163129,19681 154729,28728 C 153183,30377 151309,31680 149237,32566 C 147157,33445 144918,33887 142659,33855 L 140920 33855 C 138636,33721 136345,33721 134061,33855 C 116902,33887 100276,39868 87025,50776 C 73768,61685 64701,76848 61364,93692 C 60838,96266 59747,98685 58169,100777 C 56584,102862 54549,104575 52214,105769 C 37879,113257 25687,124275 16787,137783 C 7893,151296 2586,166857 1373,182989 L 732 191498 L 0 201290 L 107181 201290 L 107181 345303 C 107181,352420 109998,359247 115022,364291 C 120040,369334 126854,372177 133971,372203 L 251938 372203 C 259054,372177 265869,369334 270893,364291 C 275918,359247 278735,352420 278735,345303 L 278735 201290 L 369084 201290 L 371644 196535 L 373839 192415 C 380647,179941 384446,166049 384953,151842 C 385460,137641 382649,123512 376745,110588 C 370842,97658 362013,86281 350950,77361 C 339894,68442 326906,62224 313026,59202 C 310447,58650 308015,57546 305897,55968 C 303786,54389 302034,52368 300777,50052 C 293410,35023 281988,22369 267794,13520 C 253600,4671 237205,-13 220483,0 Z" fill="#FFFFFF"/>
  <path d="M 135620 0 L 17653 0 C 12968,0 8483,1861 5172,5172 C 1861,8483 0,12975 0,17659 L 0 220136 C 0,224833 1861,229332 5166,232655 C 8470,235986 12962,237866 17653,237892 L 135620 237892 C 140310,237866 144796,235986 148107,232655 C 151412,229332 153266,224833 153266,220136 L 153266 17659 C 153266,12975 151412,8483 148100,5172 C 144789,1861 140298,0 135620,0 Z M 137538 220136 C 137538,220656 137340,221156 136980,221529 C 136627,221907 136140,222125 135620,222151 L 17653 222151 C 17133,222125 16645,221907 16286,221529 C 15927,221156 15728,220656 15728,220136 L 15728 17659 C 15728,17152 15933,16665 16292,16305 C 16652,15939 17139,15741 17653,15741 L 135620 15741 C 136127,15741 136614,15939 136980,16305 C 137340,16665 137538,17152 137538,17659 L 137538 220136 Z" fill="#2D5967" transform="translate(116318,125161)"/>
  <path d="M 90356 0 L 0 0 L 0 31475 L 90356 31475 L 90356 0 Z" fill="#2D5967" transform="translate(147780,158561)"/>
  <path d="M 19674 0 L 0 0 L 0 15734 L 19674 15734 L 19674 0 Z" fill="#2D5967" transform="translate(147780,209709)"/>
  <path d="M 19674 0 L 0 0 L 0 15734 L 19674 15734 L 19674 0 Z" fill="#2D5967" transform="translate(183169,209709)"/>
  <path d="M 19668 0 L 0 0 L 0 15734 L 19668 15734 L 19668 0 Z" fill="#2D5967" transform="translate(218474,209709)"/>
  <path d="M 19674 0 L 0 0 L 0 15741 L 19674 15741 L 19674 0 Z" fill="#2D5967" transform="translate(147780,243096)"/>
  <path d="M 19674 0 L 0 0 L 0 15741 L 19674 15741 L 19674 0 Z" fill="#2D5967" transform="translate(183169,243096)"/>
  <path d="M 19668 0 L 0 0 L 0 15741 L 19668 15741 L 19668 0 Z" fill="#2D5967" transform="translate(218474,243096)"/>
  <path d="M 19674 0 L 0 0 L 0 15734 L 19674 15734 L 19674 0 Z" fill="#2D5967" transform="translate(147780,278517)"/>
  <path d="M 19674 0 L 0 0 L 0 15734 L 19674 15734 L 19674 0 Z" fill="#2D5967" transform="translate(183169,278517)"/>
  <path d="M 19674 0 L 0 0 L 0 15734 L 19674 15734 L 19674 0 Z" fill="#2D5967" transform="translate(147780,311904)"/>
  <path d="M 19674 0 L 0 0 L 0 15734 L 19674 15734 L 19674 0 Z" fill="#2D5967" transform="translate(183169,311904)"/>
  <path d="M 19668 0 L 0 0 L 0 49127 L 19668 49127 L 19668 0 Z" fill="#2D5967" transform="translate(218474,278517)"/>
  <path d="M 327291 69720 C 319219,64657 310344,61006 301046,58927 C 297126,58060 293449,56334 290285,53864 C 287122,51393 284548,48242 282758,44649 C 276117,31199 265831,19880 253074,11987 C 240317,4095 225603,-57 210607,1 C 199519,26 188553,2323 178389,6764 C 168224,11204 159086,17685 151527,25803 C 148832,28678 145502,30885 141800,32252 C 138103,33619 134138,34100 130223,33670 C 119225,32688 108156,34478 98030,38887 C 88463,43103 80057,49577 73524,57752 C 66999,65921 62539,75553 60537,85826 C 59735,89721 58066,93385 55660,96549 C 53260,99718 50173,102304 46638,104120 C 33669,110948 22658,120984 14656,133266 C 6655,145547 1925,159671 911,174301 L 0 182990 L 94648 182990 L 94648 167070 L 17557 167070 C 19603,156706 23948,146927 30281,138470 C 36614,130012 44764,123089 54139,118212 C 59773,115292 64676,111134 68474,106045 C 72273,100957 74878,95079 76084,88842 C 77612,81071 81000,73782 85947,67602 C 90901,61423 97273,56527 104524,53344 C 112167,49975 120534,48589 128850,49320 C 135145,49981 141504,49173 147440,46965 C 153376,44765 158714,41216 163052,36602 C 169129,30063 176489,24847 184670,21272 C 192852,17698 201681,15844 210607,15831 C 222665,15735 234504,19052 244764,25399 C 255018,31745 263277,40863 268583,51695 C 271452,57412 275558,62411 280609,66338 C 285652,70265 291511,73012 297755,74385 C 305281,76169 312430,79268 318879,83535 C 332502,92159 342550,105417 347190,120862 C 351829,136314 350738,152914 344116,167621 L 271510 167621 L 271510 182990 L 353812 182990 L 356007 178877 C 366017,160441 368616,138887 363283,118603 C 357945,98313 345072,80834 327291,69720 Z" fill="#2D5967" transform="translate(9882,9150)"/>
</svg>