<svg xmlns="http://www.w3.org/2000/svg" viewBox="0 0 385009 354003" width="40" height="37">
  <path d="M 279691 345566 C 276771,345534 273896,344873 271253,343628 C 268615,344886 265734,345547 262815,345566 L 114406 345566 C 111486,345541 108605,344880 105968,343628 C 103330,344880 100456,345541 97536,345566 L 19745 345566 C 14508,345566 9484,343487 5782,339791 C 2079,336089 0,331071 0,325841 L 0 277714 C 26,274788 719,271907 2028,269289 C 719,266671 26,263784 0,260858 L 0 214079 C 19,211165 680,208284 1938,205653 C 693,203016 32,200141 0,197222 L 0 148678 C 32,145759 693,142884 1938,140246 C 680,137615 19,134734 0,131821 L 0 85042 C 32,82123 693,79248 1938,76611 C 687,73980 26,71099 0,68185 L 0 19719 C 0,14489 2079,9471 5782,5775 C 9484,2079 14508,0 19745,0 L 97029 0 C 99955,13 102843,706 105461,2021 C 108085,712 110973,19 113899,0 L 262481 0 C 265413,6 268301,693 270913,2021 C 273537,712 276425,19 279351,0 L 356892 0 C 362109,19 367114,2111 370797,5807 C 374480,9503 376547,14502 376547,19719 L 376547 67845 C 376534,70765 375866,73646 374609,76277 C 375854,78914 376515,81789 376547,84702 L 376547 131481 C 376534,134401 375866,137276 374609,139913 C 375854,142550 376515,145425 376547,148338 L 376547 196548 C 376515,199467 375854,202342 374609,204980 C 375866,207611 376534,210492 376547,213405 L 376547 259850 C 376515,262763 375854,265638 374609,268275 C 375866,270906 376534,273787 376547,276707 L 376547 324833 C 376547,330050 374480,335049 370797,338745 C 367114,342441 362109,344533 356892,344552 L 279691 345566 Z" fill="#FFFFFF" transform="translate(4248,4234)"/>
  <path d="M 361473 8437 C 363507,8437 365522,8835 367402,9618 C 369276,10400 370983,11543 372420,12986 C 373851,14424 374987,16137 375757,18017 C 376533,19897 376925,21912 376912,23946 L 376912 72073 C 376905,75076 375994,78015 374294,80498 C 375994,82981 376905,85920 376912,88930 L 376912 135708 C 376905,138712 375994,141651 374294,144134 C 375981,146624 376886,149556 376912,152566 L 376912 200775 C 376886,203778 375981,206711 374294,209201 C 375994,211684 376905,214623 376912,217632 L 376912 264071 C 376905,267081 375994,270013 374294,272503 C 375994,274986 376905,277919 376912,280928 L 376912 329054 C 377059,331172 376777,333296 376065,335292 C 375359,337294 374242,339129 372799,340675 C 371348,342228 369590,343460 367646,344307 C 365695,345148 363597,345578 361473,345578 L 283932 345578 C 280922,345552 277990,344647 275500,342960 C 273010,344660 270071,345571 267062,345578 L 118653 345578 C 115637,345571 112698,344660 110215,342960 C 107584,344756 104453,345674 101270,345578 L 23985 345578 C 19872,345578 15920,343941 13006,341035 C 10099,338121 8463,334181 8463,330068 L 8463 281942 C 8534,278945 9439,276026 11075,273510 C 9419,271008 8508,268081 8463,265085 L 8463 218306 C 8470,215297 9381,212358 11075,209874 C 9394,207385 8482,204452 8463,201449 L 8463 152899 C 8482,149896 9394,146964 11075,144474 C 9381,141991 8470,139052 8463,136042 L 8463 89263 C 8470,86260 9381,83321 11075,80838 C 9381,78355 8470,75416 8463,72406 L 8463 23946 C 8463,19833 10099,15887 13006,12980 C 15920,10067 19872,8437 23985,8437 L 101270 8437 C 104279,8443 107218,9354 109708,11049 C 112191,9354 115137,8443 118146,8437 L 266722 8437 C 269731,8443 272670,9354 275160,11049 C 277650,9367 280589,8456 283598,8437 L 361133 8437 L 361473 8437 Z M 361133 5 L 283932 5 C 281044,12 278182,557 275500,1609 C 272811,551 269949,5 267062,5 L 118653 5 C 115766,5 112897,551 110215,1609 C 107372,486 104331,-59 101270,5 L 23985 5 C 17633,5 11537,2527 7045,7019 C 2547,11511 25,17594 25,23946 L 25 72073 C 25,74954 571,77816 1629,80498 C 571,83180 25,86042 25,88930 L 25 135708 C 25,138590 571,141452 1629,144134 C 571,146823 31,149678 25,152566 L 25 200775 C 31,203656 571,206518 1629,209201 C 571,211883 25,214745 25,217632 L 25 263987 C 64,266869 609,269724 1629,272413 C 615,275114 76,277963 25,280845 L 25 328971 C -123,332205 384,335439 1527,338468 C 2662,341497 4401,344269 6641,346611 C 8880,348947 11575,350814 14559,352084 C 17537,353355 20745,354010 23985,354003 L 101270 354003 C 104157,354003 107019,353464 109708,352399 C 112397,353464 115259,354003 118146,354003 L 266722 354003 C 269609,354003 272471,353464 275160,352399 C 277849,353458 280711,353997 283598,354003 L 361133 354003 C 367473,353984 373549,351449 378022,346964 C 382501,342478 385010,336402 385010,330068 L 385010 281942 C 385010,279054 384471,276192 383406,273510 C 384471,270828 385010,267966 385010,265085 L 385010 218306 C 385010,215419 384471,212563 383406,209874 C 384464,207192 385003,204330 385010,201449 L 385010 152899 C 385003,150018 384464,147156 383406,144474 C 384471,141785 385010,138930 385010,136042 L 385010 89263 C 385010,86382 384471,83520 383406,80838 C 384471,78156 385010,75294 385010,72406 L 385010 23946 C 385010,17671 382546,11645 378144,7166 C 373742,2687 367755,121 361473,5 L 361133 5 Z" fill="#FFFFFF"/>
  <path d="M 368488 15511 C 368501,13483 368110,11468 367340,9588 C 366563,7702 365428,5995 363997,4551 C 362559,3113 360852,1965 358979,1188 C 357099,406 355084,8 353049,8 L 275508 8 C 272505,27 269566,938 267077,2619 C 264587,919 261648,14 258639,8 L 110230 8 C 107214,14 104275,919 101792,2619 C 99161,823 96029,-95 92847,8 L 15562 8 C 11449,8 7496,1638 4589,4544 C 1676,7458 40,11398 40,15511 L 40 63637 C 46,66647 957,69586 2658,72069 C 957,74552 46,77491 40,80494 L 40 127273 C 46,130282 957,133221 2658,135705 C 970,138194 59,141127 40,144130 L 40 192340 C 59,195349 970,198282 2658,200772 C 957,203255 46,206194 40,209197 L 40 255558 C 85,258555 996,261481 2658,263984 C 1015,266499 110,269419 40,272416 L 40 320542 C -114,322666 181,324803 893,326811 C 1606,328820 2722,330661 4179,332220 C 5635,333780 7400,335018 9357,335865 C 11314,336712 13432,337149 15562,337142 L 92847 337142 C 95856,337136 98795,336225 101285,334531 C 103768,336225 106713,337136 109723,337142 L 258298 337142 C 261308,337136 264247,336225 266737,334531 C 269233,336212 272165,337123 275175,337142 L 352709 337142 C 354744,337142 356758,336744 358639,335962 C 360519,335179 362226,334037 363657,332599 C 365094,331155 366230,329442 367000,327562 C 367770,325682 368161,323667 368148,321633 L 368148 273506 C 368142,270503 367231,267564 365537,265081 C 367231,262598 368142,259659 368148,256649 L 368148 209877 C 368142,206867 367231,203929 365537,201445 C 367218,198956 368129,196023 368148,193020 L 368148 144470 C 368129,141461 367218,138528 365537,136038 C 367231,133555 368142,130623 368148,127613 L 368148 80834 C 368142,77825 367231,74892 365537,72403 C 367231,69919 368142,66987 368148,63977 L 368488 15511 Z M 14131 15511 C 14150,15049 14343,14613 14670,14285 C 14997,13958 15440,13765 15902,13746 L 92847 13746 C 93302,13765 93732,13958 94046,14292 C 94361,14619 94534,15055 94534,15511 L 94534 63637 C 94534,64093 94361,64535 94046,64863 C 93732,65190 93302,65389 92847,65408 L 15562 65408 C 15100,65389 14664,65197 14336,64869 C 14003,64542 13810,64106 13791,63637 L 14131 15511 Z M 95041 321633 C 95041,322088 94868,322531 94553,322858 C 94239,323186 93809,323385 93353,323404 L 15562 323404 C 15100,323385 14664,323192 14336,322865 C 14003,322537 13810,322101 13791,321633 L 13791 273506 C 13810,273044 14003,272608 14336,272281 C 14664,271953 15100,271761 15562,271742 L 92847 271742 C 93302,271761 93732,271953 94046,272287 C 94361,272614 94534,273051 94534,273506 L 95041 321633 Z M 355071 321633 C 355071,322088 354898,322531 354583,322858 C 354269,323186 353839,323385 353383,323404 L 275508 323404 C 275053,323385 274629,323186 274315,322858 C 274000,322531 273821,322088 273821,321633 L 273821 273506 C 273821,273051 274000,272614 274315,272287 C 274629,271953 275053,271761 275508,271742 L 353049 271742 C 353505,271761 353935,271953 354250,272287 C 354564,272614 354737,273051 354737,273506 L 355071 321633 Z M 354397 127273 C 354397,127729 354224,128165 353909,128499 C 353595,128826 353165,129025 352709,129044 L 286141 129044 C 288060,133510 289664,138098 290954,142782 L 353049 142782 C 353492,142782 353922,142962 354243,143277 C 354558,143591 354737,144021 354737,144470 L 354737 192680 C 354737,193129 354558,193553 354243,193873 C 353922,194188 353492,194367 353049,194367 L 292551 194367 C 291570,199026 290274,203614 288676,208106 L 353049 208106 C 353505,208125 353935,208324 354250,208651 C 354564,208979 354737,209421 354737,209877 L 354737 256316 C 354737,256534 354692,256759 354609,256957 C 354519,257163 354397,257349 354243,257509 C 354083,257663 353897,257785 353691,257875 C 353486,257958 353268,258003 353049,258003 L 253152 258003 C 246337,263496 238849,268110 230879,271742 L 258215 271742 C 258677,271761 259120,271953 259447,272281 C 259774,272608 259967,273044 259986,273506 L 259986 321633 C 259967,322101 259774,322537 259447,322865 C 259120,323192 258677,323385 258215,323404 L 110230 323404 C 109774,323385 109344,323186 109030,322858 C 108715,322531 108542,322088 108542,321633 L 108542 273506 C 108542,273051 108715,272614 109030,272287 C 109344,271953 109774,271761 110230,271742 L 138406 271742 C 130443,268052 122935,263438 116050,258003 L 15562 258003 C 15106,258003 14670,257824 14336,257509 C 14009,257201 13810,256771 13791,256316 L 13791 209877 C 13810,209409 14003,208972 14336,208645 C 14664,208318 15100,208125 15562,208106 L 80616 208106 C 79044,203614 77773,199026 76817,194367 L 15562 194367 C 15106,194367 14670,194194 14336,193880 C 14009,193565 13810,193135 13791,192680 L 13791 144470 C 13810,144015 14009,143585 14336,143270 C 14670,142956 15106,142782 15562,142782 L 78421 142782 C 79666,138085 81277,133497 83228,129044 L 15735 129044 C 15267,129025 14831,128832 14503,128505 C 14176,128178 13984,127735 13958,127273 L 13958 80834 C 13984,80379 14176,79949 14510,79634 C 14837,79320 15273,79147 15735,79147 L 125412 79147 C 135069,72910 145664,68270 156803,65408 L 110230 65408 C 109774,65389 109344,65190 109030,64863 C 108715,64535 108542,64093 108542,63637 L 108542 15511 C 108542,15055 108715,14619 109030,14292 C 109344,13958 109774,13765 110230,13746 L 258298 13746 C 258760,13765 259203,13958 259530,14285 C 259858,14613 260050,15049 260069,15511 L 260069 63637 C 260050,64106 259858,64542 259530,64869 C 259203,65197 258760,65389 258298,65408 L 212399 65408 C 223564,68270 234190,72910 243873,79147 L 353049 79147 C 353268,79147 353486,79192 353691,79275 C 353897,79359 354083,79487 354243,79641 C 354397,79801 354519,79987 354609,80186 C 354692,80392 354737,80610 354737,80834 L 354397 127273 Z M 354397 63637 C 354397,64093 354224,64535 353909,64863 C 353595,65190 353165,65389 352709,65408 L 275508 65408 C 275053,65389 274629,65190 274315,64863 C 274000,64535 273821,64093 273821,63637 L 273821 15511 C 273821,15055 274000,14619 274315,14292 C 274629,13958 275053,13765 275508,13746 L 353049 13746 C 353505,13765 353935,13958 354250,14292 C 354564,14619 354737,15055 354737,15511 L 354397 63637 Z" fill="#2D5967" transform="translate(8424,8442)"/>
  <path d="M 99899 0 C 80141,0 60826,5852 44399,16819 C 27972,27785 15164,43371 7605,61602 C 46,79838 -1937,99904 1920,119263 C 5776,138623 15286,156404 29262,170361 C 43231,184317 61032,193821 80404,197671 C 99783,201521 119868,199545 138124,191992 C 156380,184439 171979,171644 182958,155236 C 193931,138822 199790,119533 199790,99795 C 199770,73332 189234,47966 170510,29255 C 151779,10543 126381,26 99899,0 Z M 99899 185428 C 82843,185428 66172,180371 51997,170893 C 37816,161422 26779,147953 20272,132206 C 13765,116459 12084,99134 15440,82431 C 18796,65721 27042,50391 39131,38373 C 51227,26354 66614,18192 83350,14919 C 100091,11647 117423,13411 133157,19989 C 148885,26566 162309,37661 171729,51867 C 181142,66074 186122,82758 186038,99795 C 185993,122594 176901,144450 160756,160562 C 144605,176681 122723,185742 99899,185761 L 99899 185428 Z" fill="#2D5967" transform="translate(93178,80588)"/>
  <path d="M 68961 50231 C 63603,43557 58668,36544 54196,29248 C 51854,24769 51052,19642 51918,14663 C 52848,10363 57148,6994 59933,3285 C 56519,1213 52617,83 48626,0 C 42979,116 37602,2413 33611,6404 C 20783,18288 21207,33714 26353,50488 C 23607,49718 20770,49294 17915,49224 C 13077,49140 8399,50918 4838,54197 C 7064,55056 9066,56417 10683,58169 C 12300,59927 13494,62025 14168,64316 C 14848,66600 14989,69013 14585,71368 C 14181,73717 13244,75943 11845,77875 C 10324,80660 8720,83271 7032,86306 C 1905,94366 -527,103850 95,113379 C 718,122908 4356,131994 10491,139322 C 15060,145046 21367,149127 28464,150950 C 27110,148678 26520,147414 25763,146317 C 21528,140715 19276,133868 19365,126842 C 19455,119822 21887,113033 26270,107546 C 27874,105441 29645,103414 31416,101476 C 35619,97786 38821,93089 40727,87827 C 42626,82566 43172,76912 42299,71387 C 42280,70386 42421,69392 42723,68435 C 49852,73787 54729,81603 56391,90349 C 57334,94757 57270,99320 56204,103696 C 55139,108079 53099,112160 50230,115638 C 53785,115805 57334,115169 60606,113783 C 63654,111878 66484,109644 69044,107123 C 77483,116145 75205,131821 61620,149269 C 81532,144039 95366,116061 90310,91953 C 86338,76649 79055,62410 68961,50231 Z" fill="#2D5967" transform="translate(148326,104613)"/>
</svg>