<svg xmlns="http://www.w3.org/2000/svg" viewBox="0 0 385010 385010" width="40" height="40">
  <path d="M 25667 193423 C 10999,193423 0,181507 0,167756 C 0,153087 11916,142088 25667,142088 C 26585,142088 26585,142088 27503,142088 L 82502 41254 C 79755,36672 77920,31167 77920,25667 C 77920,11005 89836,0 103587,0 C 118256,0 129255,11916 129255,25667 C 129255,28420 129255,30255 128337,33002 L 170502 68756 C 174173,66921 177836,66004 181507,66004 C 182424,66004 183336,66004 184253,66004 L 212674 17422 L 216338 20168 C 219090,22003 222754,23839 226425,25667 L 231007 27503 L 202586 76085 C 205339,80673 207174,85254 207174,90753 C 207174,105422 195258,116421 181507,116421 C 166838,116421 155840,104505 155840,90753 C 155840,88007 155840,86172 156757,83419 L 114586 47671 C 110922,49506 107251,50417 103587,50417 C 102670,50417 101752,50417 100834,50417 L 45836 150340 C 49500,154922 51335,160421 51335,165920 C 51335,181507 40336,193423 25667,193423 Z M 25667 162256 C 22915,162256 21086,164092 21086,166838 C 21086,169591 22915,171426 25667,171426 C 28420,171426 30249,169591 30249,166838 C 30249,164092 28420,162256 25667,162256 Z M 182424 87090 C 179672,87090 177836,88918 177836,91671 C 177836,94424 179672,96253 182424,96253 C 185171,96253 187006,94424 187006,91671 C 187006,88918 184253,87090 182424,87090 Z M 103587 21086 C 100834,21086 99005,22921 99005,25667 C 99005,28420 100834,30255 103587,30255 C 106334,30255 108169,28420 108169,25667 C 108169,22921 106334,21086 103587,21086 Z" fill="#FFFFFF" transform="translate(47670,120084)"/>
  <path d="M 109087 9170 C 121003,9170 130166,18333 130166,30249 C 130166,33002 129248,36666 128337,39419 L 175084 78837 C 178754,77002 182418,75167 187000,75167 C 188835,75167 190670,75167 192505,76084 L 220001 29338 C 223672,31167 227336,33919 231007,35755 L 203504 83419 C 207168,87089 209003,92589 209003,98088 C 209003,110004 199833,119174 187917,119174 C 176001,119174 166838,110004 166838,98088 C 166838,95335 167749,91671 168667,89836 L 121920 50417 C 118250,52252 114586,54088 109998,54088 C 108169,54088 106334,54088 105416,53170 L 46747 157675 C 50417,161339 53164,166838 53164,172337 C 53164,184253 44000,193423 32084,193423 C 20162,193423 10999,184253 10999,172337 C 10999,160421 19251,151258 31167,151258 C 32995,151258 33913,151258 35748,152169 L 93500 45836 C 89836,42171 88001,36666 88001,31167 C 88001,19251 97164,9170 109087,9170 Z M 109087 40336 C 114586,40336 118250,36666 118250,31167 C 118250,25667 114586,22003 109087,22003 C 103581,22003 99917,25667 99917,31167 C 99917,35755 104498,40336 109087,40336 Z M 187917 106340 C 193416,106340 197087,102669 197087,97170 C 197087,91671 193416,88001 187917,88001 C 182418,88001 178754,91671 178754,97170 C 178754,102669 182418,106340 187917,106340 Z M 31167 181507 C 36666,181507 40330,177836 40330,172337 C 40330,166838 36666,163174 31167,163174 C 25667,163174 21997,166838 21997,172337 C 21997,177836 26579,181507 31167,181507 Z M 109087 0 C 92582,0 78831,13751 78831,30249 C 78831,35755 80666,41254 83419,45836 L 30249 142088 C 13745,142088 0,155839 0,172337 C 0,188841 13745,202592 30249,202592 C 46747,202592 60498,188841 60498,172337 C 60498,166838 58663,161339 55916,156757 L 108169 61422 C 111833,61422 114586,60505 118250,59587 L 155833 91671 C 155833,93506 154915,95335 154915,97170 C 154915,113668 168667,127419 185171,127419 C 201669,127419 215420,113668 215420,97170 C 215420,91671 214502,87089 211756,82501 L 236506 40336 L 242005 32084 L 232835 27503 C 229171,25667 226418,23832 223672,22003 L 215420 16504 L 210838 24750 L 186089 66921 C 182418,66921 178754,67839 176001,68750 L 138418 36666 C 138418,34837 139335,33002 139335,31167 C 140253,13751 126502,0 109087,0 Z" fill="#FFFFFF" transform="translate(42171,114585)"/>
  <path d="M 0 375847 L 0 0 L 30255 0 L 30255 21086 L 21086 21086 L 21086 354762 L 57752 354762 L 57752 345592 L 79755 345592 L 79755 354762 L 135671 354762 L 135671 345592 L 157675 345592 L 157675 354762 L 213591 354762 L 213591 345592 L 235595 345592 L 235595 354762 L 291511 354762 L 291511 345592 L 313508 345592 L 313508 354762 L 354762 354762 L 354762 343763 L 375847 343763 L 375847 375847 L 0 375847 Z" fill="#FFFFFF" transform="translate(4581,4581)"/>
  <path d="M 30249 9170 L 30249 21086 L 21086 21086 L 21086 363007 L 66921 363007 L 66921 353844 L 78837 353844 L 78837 363007 L 144834 363007 L 144834 353844 L 156757 353844 L 156757 363007 L 222754 363007 L 222754 353844 L 234670 353844 L 234670 363007 L 300674 363007 L 300674 353844 L 312590 353844 L 312590 363007 L 363007 363007 L 363007 352926 L 375841 352926 L 375841 375841 L 9170 375841 L 9170 9170 L 30249 9170 Z M 39419 0 L 30249 0 L 9170 0 L 0 0 L 0 9170 L 0 375841 L 0 385011 L 9170 385011 L 375841 385011 L 385011 385011 L 385011 375841 L 385011 352926 L 385011 343757 L 375841 343757 L 363925 343757 L 354762 343757 L 354762 352926 L 354762 353844 L 322677 353844 L 322677 344674 L 313508 344674 L 301592 344674 L 292422 344674 L 292422 353844 L 244758 353844 L 244758 344674 L 235588 344674 L 223672 344674 L 214509 344674 L 214509 353844 L 166838 353844 L 166838 344674 L 157668 344674 L 145752 344674 L 136589 344674 L 136589 353844 L 88918 353844 L 88918 344674 L 79755 344674 L 66921 344674 L 57752 344674 L 57752 353844 L 30249 353844 L 30249 30249 L 39419 30249 L 39419 21086 L 39419 9170 L 39419 0 Z" fill="#FFFFFF"/>
  <path d="M 43083 233759 L 43083 211756 C 43083,200757 44000,187924 45836,176008 L 50417 144841 C 21086,134754 0,106340 0,74256 C 0,33002 33002,0 74256,0 C 115503,0 148505,33002 148505,74256 C 148505,105422 128337,132925 99923,143923 L 104505 176008 C 106340,188841 107251,200757 107251,211756 L 107251 233759 L 43083 233759 Z M 86172 212673 C 86172,201675 85254,190676 83419,178754 L 78837 147587 C 77002,147587 76084,147587 74256,147587 C 73338,147587 72421,147587 71503,147587 L 66921 178754 C 65086,189759 64168,200757 64168,211756 L 64168 212673 L 86172 212673 Z M 74256 21086 C 44918,21086 21086,44918 21086,74256 C 21086,103587 44918,127419 74256,127419 C 103587,127419 127419,103587 127419,74256 C 127419,44918 103587,21086 74256,21086 Z" fill="#FFFFFF" transform="translate(231924,4581)"/>
  <path d="M 78831 9170 C 117332,9170 148505,40336 148505,78837 C 148505,110004 127419,136589 98999,145752 L 100834 154922 L 104498 181507 C 106333,193423 107251,205339 107251,216337 L 107251 233759 L 52252 233759 L 52252 216337 C 52252,205339 53163,193423 54999,181507 L 58669 154922 L 60498 145752 C 31167,137506 10081,110922 10081,78837 C 9163,40336 40330,9170 78831,9170 Z M 78831 135671 C 110004,135671 136582,110004 136582,77920 C 136582,45836 110915,20168 78831,20168 C 46747,20168 21079,45836 21079,77920 C 21079,110004 47664,135671 78831,135671 Z M 78831 148505 C 77002,148505 74249,148505 72414,148505 L 70585 157668 L 66915 183336 C 65086,194341 64168,206257 64168,216337 L 64168 221837 L 94417 221837 L 94417 216337 C 94417,205339 93500,194341 91664,183336 L 88001 157668 L 86165 148505 C 84337,147587 81584,148505 78831,148505 Z M 78831 0 C 35748,0 0,35748 0,78837 C 0,110922 20168,140253 49499,152169 L 49499 154004 L 45836 180589 C 44000,193423 43083,205339 43083,217255 L 43083 234670 L 43083 243840 L 52252 243840 L 107251 243840 L 116421 243840 L 116421 234670 L 116421 217255 C 116421,205339 115503,193423 113668,180589 L 109086 154004 L 109086 152169 C 138418,139335 157668,110004 157668,78837 C 157668,35748 121920,0 78831,0 Z M 78831 126502 C 52252,126502 30249,104505 30249,77920 C 30249,51335 52252,29331 78831,29331 C 105416,29331 127419,51335 127419,77920 C 127419,105422 105416,126502 78831,126502 Z M 73332 212673 C 73332,203504 74249,194341 76084,184253 L 79748 159503 L 83419 184253 C 84337,194341 85248,203504 86165,212673 L 73332 212673 Z" fill="#FFFFFF" transform="translate(227342,0)"/>
  <path d="M 30249 84336 L 30249 72420 C 28420,71503 26585,70585 25667,69668 L 14669 76085 L 0 51335 L 10998 44918 C 10998,44000 10998,43089 10998,42172 C 10998,41254 10998,40336 10998,39419 L 0 33002 L 14669 8252 L 25667 14669 C 27503,13751 28420,12834 30249,11916 L 30249 0 L 57752 0 L 57752 11916 C 59587,12834 60505,13751 62333,14669 L 73338 8252 L 88001 33002 L 77002 39419 C 77002,40336 77002,41254 77002,42172 C 77002,43089 77002,44000 77002,44918 L 88001 51335 L 73338 76085 L 62333 69668 C 60505,70585 59587,71503 57752,72420 L 57752 84336 L 30249 84336 Z M 44000 30255 C 37583,30255 32084,35755 32084,42172 C 32084,48588 37583,54088 44000,54088 C 50417,54088 55916,48588 55916,42172 C 55916,35755 50417,30255 44000,30255 Z" fill="#FFFFFF" transform="translate(263090,36665)"/>
  <path d="M 59587 9170 L 59587 20168 C 62333,21086 66004,22915 67832,24750 L 77002 19251 L 87083 36666 L 77920 42165 C 77920,44000 77920,45836 77920,46753 C 77920,48582 77920,50417 77920,51335 L 87083 56834 L 77002 74249 L 67832 68750 C 65086,70585 62333,72421 59587,73338 L 59587 84337 L 41254 84337 L 41254 74249 C 37583,73338 34837,71503 32084,69668 L 22914 75167 L 12834 57752 L 22003 52252 C 22003,50417 21086,48582 21086,47671 C 21086,45836 21086,44000 22003,43083 L 12834 37583 L 22914 20168 L 32084 25667 C 34837,23832 37583,22003 41254,21086 L 41254 10081 L 59587 10081 M 50417 63251 C 59587,63251 66921,55916 66921,46753 C 66921,37583 59587,30249 50417,30249 C 41254,30249 33919,37583 33919,46753 C 33919,55916 41254,63251 50417,63251 Z M 68750 0 L 59587 0 L 41254 0 L 32084 0 L 32084 9170 L 32084 13751 L 27503 10998 L 19251 6417 L 14669 14669 L 4582 32084 L 0 39419 L 8252 44000 L 12834 46753 L 8252 49499 L 0 54087 L 4582 62333 L 14669 79755 L 19251 88001 L 27503 83419 L 32084 80666 L 32084 85254 L 32084 94417 L 41254 94417 L 59587 94417 L 68750 94417 L 68750 85254 L 68750 80666 L 73338 83419 L 81584 88001 L 86172 79755 L 96253 62333 L 100834 54087 L 92589 49499 L 88001 46753 L 92589 44000 L 100834 39419 L 96253 31167 L 86172 13751 L 81584 5499 L 73338 10998 L 68750 13751 L 68750 9170 L 68750 0 Z M 50417 54087 C 46753,54087 43083,51335 43083,46753 C 43083,43083 45836,39419 50417,39419 C 54088,39419 57752,42165 57752,46753 C 56834,50417 54088,54087 50417,54087 Z" fill="#FFFFFF" transform="translate(256674,32084)"/>
  <path d="M 21079 187006 C 33002,187006 42165,177836 42165,165920 C 42165,160421 39419,154922 35748,151251 L 94417 44000 C 96253,44000 98081,44918 98999,44918 C 103587,44918 107251,44000 110915,41254 L 157668 80666 C 156750,83419 155833,86172 155833,88918 C 155833,100834 165003,110004 176919,110004 C 188835,110004 198004,100834 198004,88918 C 198004,83419 196169,77920 192505,74249 L 220001 26585 C 216337,24750 212673,22915 209003,20168 L 181500 66921 C 179672,66921 177836,66004 176001,66004 C 171419,66004 167756,66921 164085,69668 L 117332 30249 C 118249,27503 119167,24750 119167,21086 C 119167,9170 110004,0 98081,0 C 86165,0 77002,9170 77002,21086 C 77002,26585 78831,32084 82501,35748 L 25667 143923 C 23832,143923 22914,143923 21079,143923 C 9163,143923 0,153087 0,165003 C 0,176919 9163,187006 21079,187006 Z M 21079 155839 C 26585,155839 30249,159503 30249,165003 C 30249,170502 26585,174172 21079,174172 C 15580,174172 11916,170502 11916,165003 C 11916,159503 16498,155839 21079,155839 Z M 89836 23832 C 89836,18333 93500,14669 98999,14669 C 104498,14669 108169,18333 108169,23832 C 108169,29331 104498,33002 98999,33002 C 94417,33002 89836,28420 89836,23832 Z M 177836 80666 C 183336,80666 187006,84337 187006,89836 C 187006,95335 183336,99005 177836,99005 C 172337,99005 168667,95335 168667,89836 C 168667,84337 172337,80666 177836,80666 Z" fill="#2D5967" transform="translate(52252,121920)"/>
  <path d="M 354755 354762 L 304338 354762 L 304338 345598 L 291504 345598 L 291504 354762 L 226418 354762 L 226418 345598 L 213585 345598 L 213585 354762 L 148499 354762 L 148499 345598 L 135665 345598 L 135665 354762 L 70585 354762 L 70585 345598 L 57752 345598 L 57752 354762 L 11916 354762 L 11916 11923 L 21079 11923 L 21079 0 L 0 0 L 0 366678 L 366671 366678 L 366671 343763 L 354755 343763 L 354755 354762 Z" fill="#2D5967" transform="translate(9169,9163)"/>
  <path d="M 139335 69668 C 139335,31167 108169,0 69668,0 C 31167,0 0,31167 0,69668 C 0,101752 21086,128337 50417,136582 L 48588 145752 L 44918 172337 C 43083,184253 42172,196169 42172,207168 L 42172 224589 L 97170 224589 L 97170 207168 C 97170,196169 96253,184253 94417,172337 L 90753 145752 L 88918 136582 C 118256,127419 139335,100834 139335,69668 Z M 69668 11916 C 100834,11916 127419,37583 127419,69668 C 127419,101752 101752,127419 69668,127419 C 37583,127419 11916,101752 11916,69668 C 11916,37583 38501,11916 69668,11916 Z M 79755 147587 L 83419 173255 C 85254,185171 86172,196169 86172,206256 L 86172 211756 L 55916 211756 L 55916 206256 C 55916,195252 56834,184253 58669,173255 L 62333 147587 L 64168 138418 C 66004,138418 68750,138418 70585,138418 C 73338,138418 76084,138418 78837,137500 L 79755 147587 Z" fill="#2D5967" transform="translate(236505,9169)"/>
  <path d="M 10081 10998 L 0 28414 L 9163 33919 C 9163,35748 8252,37584 8252,38501 C 8252,40336 8252,42165 9163,43083 L 0 48582 L 10081 66004 L 19251 60498 C 21997,62333 24750,64169 28414,65086 L 28414 75167 L 46753 75167 L 46753 64169 C 49499,63251 53170,61416 54999,59587 L 64168 65086 L 74249 47664 L 65086 42165 C 65086,40336 65086,38501 65086,37584 C 65086,35748 65086,33919 65086,33002 L 74249 27503 L 64168 10081 L 54999 15580 C 52252,13751 49499,11916 46753,10998 L 46753 0 L 28414 0 L 28414 10998 C 24750,11916 21997,13751 19251,15580 L 10081 10998 Z M 37583 21997 C 46753,21997 54081,29331 54081,38501 C 54081,47664 46753,54999 37583,54999 C 28414,54999 21086,47664 21086,38501 C 21086,29331 28414,21997 37583,21997 Z" fill="#2D5967" transform="translate(269507,40336)"/>
</svg>