<svg xmlns="http://www.w3.org/2000/svg" viewBox="0 0 366594 385011" width="38" height="40">
  <path d="M 41068 109453 L 0 41434 L 26116 41434 L 9946 0 L 26373 0 L 70071 68019 L 43314 68019 L 57174 109453 L 41068 109453 Z" fill="#2D5967" transform="translate(126797,125589)"/>
  <path d="M 31571 9351 L 55249 46018 L 69366 68110 L 44726 68110 L 58522 109545 L 51399 109545 L 23871 64810 L 15401 50693 L 40105 50693 L 38181 45835 L 23999 9167 L 31250 9167 M 36191 0 L 10973 0 L 15850 12467 L 27464 41618 L 0 41618 L 8406 55551 L 16941 69668 L 43956 114403 L 46651 118803 L 71676 118803 L 67698 106794 L 57880 77369 L 86114 77369 L 77002 63251 L 62885 41160 L 39207 4492 L 36641 184 L 36191 0 Z" fill="#FFFFFF" transform="translate(119096,120820)"/>
  <path d="M 340798 263732 L 332585 263732 L 332585 220006 C 332585,211389 328927,196172 305506,187738 L 306468 186821 L 300052 180313 L 291838 172154 L 315516 172154 L 318083 167296 L 320008 163812 C 329376,146241 331750,125773 326617,106524 C 321548,87274 309356,70669 292479,60043 C 284844,55229 276437,51785 267582,49868 C 265593,49412 263796,48536 262192,47302 C 260588,46067 259305,44503 258406,42718 C 252054,29884 242300,19079 230108,11528 C 217980,3977 203927,-16 189681,0 C 179094,24 168635,2216 158945,6442 C 149192,10667 140465,16836 133278,24568 C 132123,25822 130711,26813 129107,27478 C 127503,28141 125834,28461 124102,28418 L 122818 28418 L 116850 28418 C 108059,28449 99268,30290 91183,33826 C 81879,37998 73665,44333 67313,52305 C 60960,60277 56532,69655 54543,79661 C 54158,81611 53324,83452 52169,85041 C 50949,86630 49409,87925 47677,88827 C 35293,95198 24833,104631 17197,116220 C 9561,127809 5005,141167 4043,155012 L 3465 162254 L 2759 172063 L 59099 172063 C 58457,175363 57944,178755 57559,182147 L 54992 182147 C 19507,186089 0,199380 0,219731 L 0 314150 C 0,327715 13861,338623 39014,344764 L 42094 345592 L 42094 359523 C 42094,366261 44789,372716 49538,377490 C 54286,382258 60703,384959 67441,385011 L 153234 385011 C 160036,385011 166517,382328 171329,377554 C 176078,372774 178837,366293 178837,359523 L 178388 314150 L 187564 314150 C 196227,328735 210023,339599 226258,344674 L 229274 345502 L 229274 359523 C 229274,362892 229915,366222 231263,369328 C 232546,372434 234472,375251 236846,377619 C 239220,379986 242043,381854 245187,383124 C 248331,384395 251668,385036 255005,385011 L 340798 385011 C 344200,385036 347536,384395 350616,383124 C 353761,381854 356584,379986 358958,377619 C 361396,375251 363257,372434 364605,369328 C 365888,366222 366530,362892 366594,359523 L 366594 289399 C 366594,286021 365888,282676 364605,279556 C 363322,276436 361396,273602 359022,271217 C 356648,268832 353761,266944 350681,265659 C 347536,264375 344200,263720 340798,263732 Z" fill="#FFFFFF"/>
  <path d="M 0 41435 L 8534 55552 L 35677 100286 L 42800 100286 L 29004 58851 L 53645 58851 L 39527 36760 L 15849 0 L 8663 0 L 22844 36576 L 24769 41435 L 0 41435 Z" fill="#2D5967" transform="translate(134818,130172)"/>
  <path d="M 13347 118070 L 13347 90111 C 19251,92673 25410,94609 31699,95886 L 31699 94144 C 31699,90212 32533,86329 34266,82777 C 26758,81647 19635,78860 13347,74619 L 13347 43085 C 28812,50885 45944,54758 63206,54360 C 80339,54682 97343,50812 112615,43085 L 112615 68019 L 126027 68019 L 126027 24751 C 126027,17234 122048,6417 101835,0 L 90734 11184 C 103439,13659 112615,18059 112615,24751 C 112615,29426 93300,40610 62757,40610 C 32213,40610 13347,29334 13347,24751 C 13347,20167 22074,14575 36255,11459 L 25346 550 C 11229,4859 0,12376 0,24751 L 0 118895 C 0,128060 13796,136126 31699,140528 L 31699 126686 C 25026,125254 18737,122306 13347,118070 Z" fill="#2D5967" transform="translate(197382,195253)"/>
  <path d="M 80338 13384 C 98627,15218 113129,20076 113129,28509 C 113129,33184 93814,44368 63270,44368 C 32726,44368 13411,33184 13411,28601 C 13411,24018 26629,15950 46971,13567 L 46971 92 C 24961,2475 0,10267 0,28601 L 0 122745 C 0,131910 14053,140073 32084,144468 L 32084 130627 C 25346,129046 19058,125906 13796,121462 L 13796 93961 C 19635,96576 25795,98514 32084,99736 L 32084 97994 C 32148,94103 32982,90260 34586,86719 C 27015,85592 19764,82772 13411,78469 L 13411 46935 C 28876,54534 46008,58247 63270,57752 C 80531,58239 97664,54527 113129,46935 L 113129 71777 L 126411 71777 L 126411 28601 C 126411,18884 119995,3392 80595,0 C 80595,1009 80595,2017 80595,3026 L 80338 13384 Z" fill="#2D5967" transform="translate(9048,191402)"/>
  <path d="M 14823 140202 C 16556,131519 20213,123334 25539,116257 C 30801,109179 37667,103390 45559,99318 C 50244,96809 54286,93287 57495,89007 C 60640,84726 62821,79794 63848,74567 C 65837,64505 71484,55537 79697,49416 C 87911,43296 98114,40464 108316,41475 C 113642,42038 119033,41353 124038,39475 C 129043,37598 133535,34579 137192,30658 C 143160,24219 150603,19324 158881,16392 C 167159,13459 176014,12578 184741,13821 C 193404,15064 201682,18397 208804,23532 C 215927,28667 221702,35453 225681,43308 C 228055,48133 231520,52358 235755,55673 C 239990,58988 244931,61309 250257,62467 C 256545,63855 262513,66303 268032,69709 C 279454,76946 287859,88058 291774,101006 C 295624,113954 294726,127871 289208,140202 L 255069 140202 C 256995,144553 258663,149024 260011,153586 L 297420 153586 L 299346 150102 C 304415,140658 307238,130172 307624,119461 C 307944,108750 305827,98102 301399,88346 C 296972,78590 290298,69988 282021,63210 C 273743,56432 263989,51660 253530,49267 C 250193,48566 247113,47122 244417,45042 C 241723,42962 239541,40300 238065,37258 C 233124,27523 225937,19117 217082,12751 C 208227,6386 197959,2251 187180,694 C 176335,-862 165362,207 155031,3812 C 144764,7416 135524,13449 128016,21399 C 125770,23836 123011,25711 119867,26873 C 116787,28036 113450,28453 110177,28091 C 100937,27204 91568,28720 83099,32491 C 75078,36055 68018,41494 62500,48353 C 56982,55211 53196,63289 51463,71909 C 50886,75184 49474,78272 47485,80940 C 45495,83608 42929,85786 39913,87309 C 28812,92969 19379,101389 12449,111760 C 5583,122131 1476,134104 514,146527 L 0 153678 L 47998 153678 C 49346,149115 51014,144645 52939,140294 L 14823 140202 Z" fill="#2D5967" transform="translate(12577,9309)"/>
  <path d="M 227284 85694 L 218108 76527 L 201168 93394 C 199242,68008 187885,44272 169212,26950 C 150539,9627 126026,0 100616,0 C 75141,0 50628,9627 31956,26950 C 13283,44272 1925,68008 0,93394 L 0 109802 L 13411 109802 L 13411 93302 C 14438,70897 24063,49750 40297,34258 C 56468,18766 78092,10122 100487,10122 C 122946,10122 144507,18766 160677,34258 C 176912,49750 186537,70897 187564,93302 L 170624 76343 L 161447 85510 L 194558 118970 L 227284 85694 Z" fill="#2D5967" transform="translate(65966,101037)"/>
  <path d="M 29133 0 L 15208 13658 L 9433 7882 L 0 17328 L 15208 32453 L 38501 9532 L 29133 0 Z" fill="#2D5967" transform="translate(291581,320018)"/>
  <path d="M 102541 2 L 16748 2 C 14566,-34 12384,366 10331,1179 C 8341,1992 6481,3201 4877,4737 C 3337,6273 2117,8104 1283,10124 C 385,12144 0,14313 0,16503 L 0 86628 C 0,88810 449,90960 1283,92968 C 2117,94970 3401,96786 4941,98307 C 6481,99821 8341,101015 10395,101811 C 12384,102613 14566,102998 16748,102946 L 102541 102946 C 104723,102985 106841,102587 108894,101785 C 110883,100983 112744,99783 114284,98269 C 115824,96748 117043,94938 117877,92936 C 118712,90941 119160,88797 119160,86628 L 119160 16503 C 119160,14325 118712,12166 117877,10152 C 117107,8139 115824,6311 114284,4775 C 112744,3239 110947,2026 108894,1207 C 106905,387 104723,-22 102541,2 Z M 16748 89561 C 16362,89574 15978,89510 15592,89368 C 15208,89227 14887,89009 14631,88740 C 14309,88464 14117,88136 13988,87771 C 13796,87411 13732,87020 13732,86628 L 13732 36761 L 27464 36761 L 27464 89561 L 16748 89561 Z M 105493 86628 C 105493,87405 105172,88156 104658,88701 C 104081,89253 103311,89561 102541,89561 L 40490 89561 L 40490 36761 L 105493 36761 L 105493 86628 Z M 105493 23378 L 13796 23378 L 13796 16503 C 13796,15683 14117,14893 14694,14296 C 15272,13700 16042,13341 16876,13294 L 102669 13294 C 103439,13363 104209,13732 104723,14326 C 105301,14920 105557,15697 105557,16503 L 105493 23378 Z" fill="#2D5967" transform="translate(238258,272894)"/>
  <path d="M 16299 0 C 14181,12 11999,449 10011,1284 C 8085,2120 6224,3339 4748,4871 C 3208,6403 2054,8219 1220,10214 C 385,12209 0,14346 0,16500 L 0 86625 C 0,90957 1733,95102 4748,98163 C 7828,101224 11999,102944 16299,102944 L 102092 102944 C 106455,102944 110626,101230 113706,98169 C 116786,95115 118519,90963 118519,86625 L 118519 16500 C 118519,12140 116786,7957 113706,4865 C 110626,1774 106455,24 102092,0 L 16299 0 Z M 16299 89558 C 15529,89558 14759,89250 14245,88705 C 13668,88153 13411,87408 13411,86625 L 13411 36760 L 26759 36760 L 26759 89558 L 16299 89558 Z M 105172 86625 C 105172,87023 105044,87408 104915,87774 C 104787,88133 104531,88461 104274,88737 C 103953,89006 103632,89224 103247,89365 C 102926,89507 102541,89571 102092,89558 L 40426 89558 L 40426 36760 L 105429 36760 L 105172 86625 Z M 102092 13292 C 102926,13339 103696,13697 104274,14294 C 104851,14891 105172,15680 105172,16500 L 105172 23376 L 13475 23376 L 13475 16500 C 13475,15695 13796,14918 14309,14324 C 14888,13729 15593,13361 16427,13292 L 102092 13292 Z" fill="#2D5967" transform="translate(51142,272897)"/>
</svg>