<svg xmlns="http://www.w3.org/2000/svg" viewBox="0 0 385010 385010" width="40" height="40">
  <path d="M 343751 0 L 32084 0 C 14374,0 0,14361 0,32084 L 0 343757 C 0,361474 14374,375841 32084,375841 L 343751 375841 C 361525,375841 375835,361474 375835,343757 L 375835 32084 C 375835,14361 361525,0 343751,0 Z" fill="#FFFFFF" transform="translate(4555,4588)"/>
  <path d="M 348371 9170 C 355622,9170 362616,12064 367813,17223 C 372947,22382 375834,29376 375834,36666 L 375834 348345 C 375834,355634 372947,362629 367813,367788 C 362616,372947 355622,375841 348371,375841 L 36640 375841 C 29389,375841 22395,372947 17197,367788 C 12064,362629 9176,355634 9176,348345 L 9176 36666 C 9176,29376 12064,22382 17197,17223 C 22395,12064 29389,9170 36640,9170 L 348371 9170 Z M 348371 0 L 36640 0 C 26950,0 17646,3863 10716,10742 C 3850,17614 0,26944 0,36666 L 0 348345 C 0,358066 3850,367396 10716,374269 C 17646,381148 26950,385011 36640,385011 L 348371 385011 C 358060,385011 367364,381148 374294,374269 C 381161,367396 385011,358066 385011,348345 L 385011 36666 C 385011,26944 381161,17614 374294,10742 C 367364,3863 358060,0 348371,0 L 348371 0 Z" fill="#FFFFFF"/>
  <path d="M 339194 0 L 27463 0 C 20212,0 13218,2894 8021,8053 C 2887,13212 0,20207 0,27503 L 0 166010 L 0 339175 C 0,346471 2887,353465 8021,358625 C 13218,363777 20212,366678 27463,366678 L 339194 366678 C 346445,366678 353439,363777 358637,358625 C 363770,353465 366658,346471 366658,339175 L 366658 27503 C 366658,20207 363770,13212 358637,8053 C 353439,2894 346445,0 339194,0 Z M 139758 222754 C 147908,227009 155736,231789 163244,237058 C 155800,248518 148870,261166 142068,275007 C 133470,263732 124358,252734 115118,242371 C 122946,235325 131160,228773 139758,222754 Z M 158110 211756 C 167928,209356 177618,206295 186986,202586 C 182752,208271 178259,214599 173639,221567 C 167928,218083 162795,214778 157726,211756 L 158110 211756 Z M 102669 229171 C 98434,224776 94199,220650 90028,216703 C 96637,217672 103311,218166 109984,218173 L 115952 218173 C 111461,221105 107032,224865 102669,229171 Z M 57815 212949 C 68981,221638 79441,231135 89193,241363 C 78734,251624 68853,262423 59548,273723 C 50115,256712 39591,240336 28042,224679 C 37089,218821 47228,214836 57815,212949 Z M 38693 199108 C 31506,201649 24705,205031 18352,209189 L 18352 184074 C 24833,189348 31763,194097 39014,198281 L 38693 199108 Z M 47228 289310 C 36704,302907 27079,317146 18352,331937 L 18352 242557 C 28876,257566 38501,273172 47228,289310 Z M 56339 307643 C 63142,320862 69173,334446 74435,348345 L 30030 348345 C 38051,334189 46907,320534 56532,307457 L 56339 307643 Z M 68853 291511 C 78991,278652 89963,266408 101578,254839 C 112295,266941 123075,280140 133021,293705 C 125128,311467 118839,329871 114091,348711 L 93878 348711 C 86948,329011 78670,309831 69045,291325 L 68853 291511 Z M 145726 311673 C 153747,323467 161063,335710 167672,348345 L 133213 348345 C 136614,335883 140849,323634 145726,311673 Z M 154389 291966 C 161511,276951 169468,262353 178259,248242 C 193083,259715 207264,271952 220739,284908 C 215862,306077 212205,327497 209702,349076 L 188013 349076 C 178452,329017 167223,309818 154389,291690 L 154389 291966 Z M 236204 300032 C 251476,315343 265978,331468 279517,348345 L 228183 348345 C 230236,331295 232995,315157 236204,299757 L 236204 300032 Z M 188206 232745 C 197381,218449 206494,206712 213680,198281 C 224333,199891 234792,202561 244930,206257 C 237487,225263 231070,244662 225744,264374 C 213296,252638 200654,241915 188206,232476 L 188206 232745 Z M 229145 182238 C 241273,175141 252887,167332 264117,158862 C 265015,158252 265978,157733 267005,157303 C 262192,166472 257123,177381 252053,188931 C 244610,186262 236909,184029 229145,182238 Z M 290554 152535 C 309997,150629 329569,152310 348306,157489 L 348306 247504 C 324885,226316 298126,209099 269122,196542 C 275539,181520 282726,166832 290554,152535 Z M 348306 138418 C 333098,134735 317441,133098 301784,133560 C 308714,122376 314233,115227 316864,111287 C 330018,97902 340349,85530 348306,75629 L 348306 138418 Z M 27463 18333 L 339194 18333 C 341568,18333 343943,19302 345675,21022 C 347344,22735 348306,25071 348306,27503 L 348306 45284 C 335023,63636 320457,81032 304672,97350 L 303966 98268 C 260524,143282 190323,199108 110112,199108 C 75461,198274 42607,184010 18352,159324 L 18352 27503 C 18352,25071 19314,22735 20982,21022 C 22715,19302 25089,18333 27463,18333 Z M 339194 348345 L 302489 348345 C 283817,323550 263282,300257 241016,278677 C 246599,256314 253657,234330 262064,212853 C 294854,226733 324242,247453 348306,273633 L 348306 339175 C 348306,341607 347344,343937 345675,345656 C 343943,347376 341568,348345 339194,348345 Z" fill="#2D5967" transform="translate(9176,9170)"/>
</svg>