<svg xmlns="http://www.w3.org/2000/svg" viewBox="0 0 385010 342223" width="40" height="36">
  <path d="M 371278 67114 C 361590,67114 356199,63078 352670,60395 C 350103,58483 349398,57963 346831,57963 C 344328,57963 343622,58483 341055,60408 C 337462,63078 332072,67114 322382,67114 C 312757,67114 307303,63078 303774,60408 C 301207,58483 300501,57963 297934,57963 C 295367,57963 294726,58483 292159,60408 C 288566,63078 283175,67114 273486,67114 C 263861,67114 258406,63078 254878,60395 C 252311,58483 251605,57963 249038,57963 C 246535,57963 245830,58483 243263,60408 C 239670,63078 234279,67114 224589,67114 C 214964,67114 209510,63078 205981,60395 C 203414,58483 202709,57963 200142,57963 C 197639,57963 196933,58483 194366,60408 C 190773,63078 185383,67114 175757,67114 C 166068,67114 160678,63078 157084,60408 C 154518,58483 153812,57963 151310,57963 C 148743,57963 148037,58483 145470,60408 C 141876,63078 136486,67114 126861,67114 C 117172,67114 111782,63078 108188,60395 C 105622,58483 104916,57963 102413,57963 C 99846,57963 99141,58483 96574,60408 C 93044,63078 87590,67114 77965,67114 C 68275,67114 62885,63078 59292,60395 C 56725,58483 56083,57963 53517,57963 C 50950,57963 50244,58483 47677,60408 C 44148,63078 38758,67114 29068,67114 C 19379,67114 13989,63078 10395,60408 C 7829,58483 7187,57963 4621,57963 L 0 57963 L 0 36614 L 4621 36614 C 14309,36614 19700,40651 23229,43320 C 25796,45245 26502,45765 29068,45765 C 31571,45765 32277,45245 34844,43333 C 38437,40651 43828,36614 53517,36614 C 63207,36614 68596,40651 72125,43320 C 74692,45245 75398,45765 77965,45765 C 80467,45765 81173,45245 83740,43320 C 84767,42569 85857,41767 87141,40972 L 87141 21349 L 0 21349 L 0 0 L 375899 0 L 375899 21349 L 290298 21349 L 290298 37564 C 292736,36923 295239,36602 297934,36602 C 307624,36602 313014,40638 316608,43314 C 319174,45232 319880,45758 322382,45758 C 324949,45758 325655,45232 328157,43320 C 331751,40638 337141,36602 346831,36602 C 356520,36602 361910,40638 365504,43314 C 368070,45232 368712,45758 371278,45758 L 375899 45758 L 375899 67107 L 371278 67114 Z" fill="#FFFFFF" transform="translate(4555,246144)"/>
  <path d="M 375834 9157 L 375834 21355 L 290298 21355 L 290298 49037 C 293185,47286 297036,45758 302490,45758 C 310640,45758 315131,49108 318404,51553 C 321163,53651 322895,54909 326938,54909 C 331045,54909 332713,53651 335473,51553 C 338745,49108 343237,45758 351386,45758 C 359536,45758 364027,49108 367300,51553 C 370060,53651 371728,54909 375834,54909 L 375834 67107 C 367685,67107 363193,63758 359920,61319 C 357162,59221 355429,57957 351386,57957 C 347344,57957 345611,59221 342852,61319 C 339580,63758 335087,67107 326938,67107 C 318789,67107 314297,63758 311088,61319 C 308265,59221 306597,57957 302490,57957 C 298447,57957 296779,59221 293956,61319 C 290683,63758 286191,67107 278042,67107 C 269893,67107 265465,63758 262192,61319 C 259369,59221 257701,57957 253658,57957 C 249551,57957 247883,59221 245059,61319 C 241787,63758 237359,67107 229209,67107 C 221060,67107 216568,63758 213296,61319 C 210537,59221 208804,57957 204762,57957 C 200655,57957 198986,59221 196227,61319 C 192954,63758 188463,67107 180313,67107 C 172164,67107 167672,63758 164399,61319 C 161640,59221 159972,57957 155865,57957 C 151823,57957 150090,59221 147330,61319 C 144058,63758 139566,67107 131417,67107 C 123267,67107 118840,63758 115567,61319 C 112744,59221 111076,57957 106969,57957 C 102926,57957 101258,59221 98434,61319 C 95097,63771 90670,67120 82520,67120 C 74371,67120 69880,63771 66607,61326 C 63847,59227 62115,57970 58073,57970 C 53966,57970 52297,59227 49538,61326 C 46265,63771 41774,67120 33624,67120 C 25475,67120 20983,63771 17711,61326 C 14951,59227 13219,57970 9176,57970 L 9176 45771 C 17325,45771 21817,49121 25026,51559 C 27849,53658 29517,54921 33624,54921 C 37667,54921 39335,53658 42158,51559 C 45431,49121 49923,45771 58073,45771 C 66221,45771 70649,49121 73922,51559 C 76745,53651 78414,54909 82520,54909 C 86563,54909 88232,53651 91055,51553 C 92467,50481 94135,49255 96253,48203 L 96253 21355 L 9176 21355 L 9176 9157 L 375834 9157 Z M 385011 0 L 375834 0 L 9176 0 L 0 0 L 0 9157 L 0 21355 L 0 30505 L 9176 30505 L 87076 30505 L 87076 43115 C 86563,43500 86050,43872 85536,44231 C 83547,45758 83547,45758 82520,45758 C 81494,45758 81494,45758 79441,44238 C 75655,41389 69238,36608 58073,36608 C 46843,36608 40491,41389 36640,44238 C 34651,45771 34651,45771 33624,45771 C 32597,45771 32597,45771 30544,44251 C 26759,41389 20342,36608 9176,36608 L 0 36608 L 0 45758 L 0 57957 L 0 67107 L 9176 67107 C 10203,67107 10203,67107 12192,68628 C 16042,71484 22395,76264 33624,76264 C 44789,76264 51206,71496 54992,68641 C 57046,67107 57046,67107 58073,67107 C 59099,67107 59099,67107 61088,68628 C 64938,71496 71291,76270 82520,76270 C 93686,76270 100103,71490 103888,68647 C 105942,67120 105942,67120 106969,67120 C 107995,67120 107995,67120 109985,68647 C 113835,71503 120187,76270 131417,76270 C 142582,76270 148999,71490 152785,68647 C 154838,67120 154838,67120 155865,67120 C 156891,67120 156891,67120 158881,68641 C 162731,71496 169084,76270 180313,76270 C 191478,76270 197895,71490 201682,68647 C 203735,67120 203735,67120 204762,67120 C 205724,67120 205724,67120 207777,68641 C 211627,71496 217980,76270 229209,76270 C 240375,76270 246792,71490 250578,68647 C 252631,67120 252631,67120 253658,67120 C 254621,67120 254621,67120 256674,68647 C 260524,71503 266876,76270 278106,76270 C 289271,76270 295688,71490 299474,68647 C 301527,67120 301527,67120 302554,67120 C 303517,67120 303517,67120 305570,68641 C 309420,71496 315773,76270 327002,76270 C 338167,76270 344584,71490 348371,68647 C 350424,67120 350424,67120 351386,67120 C 352413,67120 352413,67120 354466,68641 C 358252,71496 364669,76270 375834,76270 L 385011 76270 L 385011 67120 L 385011 54921 L 385011 45771 L 375834 45771 C 374872,45771 374872,45771 372818,44251 C 368968,41395 362616,36614 351386,36614 C 340221,36614 333804,41389 330019,44238 C 327965,45771 327965,45771 326938,45771 C 325912,45771 325912,45771 323922,44251 C 320072,41395 313720,36614 302490,36614 C 301463,36614 300436,36666 299474,36743 L 299474 30525 L 375834 30525 L 385011 30525 L 385011 21374 L 385011 9170 L 385011 0 Z" fill="#FFFFFF" transform="translate(0,241562)"/>
  <path d="M 0 117448 L 0 96099 L 12256 96099 C 68661,96099 87141,32578 87141,10691 L 87141 7 L 108509 7 L 108509 10691 C 108509,23422 112552,44449 123974,61846 C 138155,83560 160229,94572 189490,94572 C 218301,94572 240054,83060 254108,60364 C 265786,41453 268930,20245 268930,10678 L 268930 0 L 290298 0 L 290298 10678 C 290298,32572 308778,96092 365183,96092 L 375899 96092 L 375899 117441 L 0 117448 Z" fill="#FFFFFF" transform="translate(4555,125648)"/>
  <path d="M 290298 9163 L 290298 15266 C 290298,38328 309870,105249 369738,105249 L 371278 105249 L 375834 105249 L 375834 117447 L 371278 117447 L 369738 117447 L 16812 117447 L 10716 117447 L 9176 117447 L 9176 105249 L 10716 105249 L 16812 105249 C 76681,105249 96253,38328 96253,15266 L 96253 9163 L 108509 9163 L 108509 15266 C 108509,28626 112744,50699 124680,68930 C 139823,92018 163116,103722 194045,103722 C 224525,103722 247626,91478 262577,67338 C 274769,47562 278042,25295 278042,15259 L 278042 9151 L 290298 9151 M 299474 13 L 290298 13 L 278042 13 L 268930 13 L 268930 9163 L 268930 15266 C 268930,23710 265978,44469 254748,62532 C 241402,84093 221574,94571 194045,94571 C 166068,94571 145855,84542 132379,63912 C 121535,47356 117685,27355 117685,15259 L 117685 9151 L 117685 0 L 108509 0 L 96253 0 L 87076 0 L 87076 9151 L 87076 15259 C 87076,35973 69815,96092 16812,96092 L 10716 96092 L 9176 96092 L 0 96092 L 0 105243 L 0 117441 L 0 126592 L 9176 126592 L 10716 126592 L 16812 126592 L 369738 126592 L 371278 126592 L 375834 126592 L 385011 126592 L 385011 117441 L 385011 105243 L 385011 96092 L 375834 96092 L 371278 96092 L 369738 96092 C 316735,96092 299474,35973 299474,15259 L 299474 9151 L 299474 13 Z" fill="#FFFFFF" transform="translate(0,121067)"/>
  <path d="M 371278 30512 C 361590,30512 356199,26476 352670,23794 C 350103,21881 349398,21362 346831,21362 C 344328,21362 343622,21881 341055,23806 C 337462,26476 332072,30512 322382,30512 C 312757,30512 307303,26476 303774,23806 C 301207,21881 300501,21362 297934,21362 C 295367,21362 294726,21881 292159,23806 C 288566,26476 283175,30512 273486,30512 C 263861,30512 258406,26476 254878,23794 C 252311,21881 251605,21362 249038,21362 C 246535,21362 245830,21881 243263,23806 C 239670,26476 234279,30512 224589,30512 C 214964,30512 209510,26476 205981,23794 C 203414,21881 202709,21362 200142,21362 C 197639,21362 196933,21881 194366,23806 C 190773,26476 185383,30512 175757,30512 C 166068,30512 160678,26476 157084,23806 C 154518,21881 153812,21362 151310,21362 C 148743,21362 148037,21881 145470,23806 C 141876,26476 136486,30512 126861,30512 C 117172,30512 111782,26476 108188,23794 C 105622,21881 104916,21362 102413,21362 C 99846,21362 99141,21881 96574,23806 C 93044,26476 87590,30512 77965,30512 C 68275,30512 62885,26476 59292,23794 C 56725,21881 56083,21362 53517,21362 C 50950,21362 50244,21881 47677,23806 C 44148,26476 38758,30512 29068,30512 C 19379,30512 13989,26476 10395,23806 C 7829,21881 7187,21362 4621,21362 L 0 21362 L 0 0 L 4621 0 C 14309,0 19700,4036 23229,6718 C 25796,8630 26502,9150 29068,9150 C 31571,9150 32277,8630 34844,6712 C 38437,4036 43828,0 53517,0 C 63142,0 68596,4036 72125,6712 C 74692,8630 75398,9150 77965,9150 C 80532,9150 81173,8630 83740,6712 C 87333,4036 92724,0 102413,0 C 112039,0 117493,4036 121022,6718 C 123588,8630 124294,9150 126861,9150 C 129364,9150 130070,8630 132636,6712 C 136229,4036 141620,0 151310,0 C 160935,0 166389,4036 169918,6718 C 172485,8630 173191,9150 175757,9150 C 178260,9150 178966,8630 181533,6712 C 185127,4036 190516,0 200142,0 C 209831,0 215221,4036 218815,6712 C 221381,8630 222087,9150 224589,9150 C 227156,9150 227862,8630 230429,6712 C 234023,4036 239413,0 249038,0 C 258728,0 264117,4036 267711,6718 C 270277,8630 270983,9150 273486,9150 C 276053,9150 276758,8630 279325,6712 C 282855,4036 288309,0 297934,0 C 307624,0 313014,4036 316608,6718 C 319174,8630 319816,9150 322382,9150 C 324949,9150 325655,8630 328222,6712 C 331751,4036 337141,0 346831,0 C 356520,0 361910,4036 365504,6712 C 368070,8630 368712,9150 371278,9150 L 375899 9150 L 375899 30512 L 371278 30512 Z" fill="#FFFFFF" transform="translate(4555,307149)"/>
  <path d="M 351386 9150 C 359536,9150 364027,12500 367300,14945 C 370060,17037 371791,18301 375834,18301 L 375834 30499 C 367685,30499 363193,27150 359920,24705 C 357162,22613 355493,21349 351386,21349 C 347344,21349 345611,22613 342852,24705 C 339580,27150 335087,30499 326938,30499 C 318789,30499 314361,27150 311088,24705 C 308265,22613 306597,21349 302490,21349 C 298447,21349 296779,22613 293956,24705 C 290683,27150 286255,30499 278106,30499 C 269956,30499 265465,27150 262192,24705 C 259369,22613 257701,21349 253658,21349 C 249551,21349 247883,22613 245059,24705 C 241850,27150 237359,30499 229209,30499 C 221060,30499 216568,27150 213296,24705 C 210537,22613 208804,21349 204762,21349 C 200719,21349 198986,22613 196227,24705 C 192954,27150 188463,30499 180313,30499 C 172164,30499 167672,27150 164464,24705 C 161640,22613 159972,21349 155865,21349 C 151823,21349 150154,22613 147330,24705 C 144058,27150 139566,30499 131417,30499 C 123267,30499 118840,27150 115567,24705 C 112744,22613 111076,21349 107033,21349 C 102926,21349 101258,22613 98434,24705 C 95097,27150 90670,30499 82520,30499 C 74371,30499 69880,27150 66607,24705 C 63847,22613 62115,21349 58073,21349 C 53966,21349 52297,22613 49538,24705 C 46265,27150 41774,30499 33624,30499 C 25475,30499 20983,27150 17711,24705 C 14951,22613 13219,21349 9176,21349 L 9176 9150 C 17325,9150 21817,12500 25026,14945 C 27849,17037 29517,18301 33624,18301 C 37667,18301 39335,17037 42158,14945 C 45431,12500 49923,9150 58073,9150 C 66221,9150 70649,12500 73922,14945 C 76745,17037 78414,18301 82520,18301 C 86563,18301 88232,17037 91055,14945 C 94327,12500 98820,9150 106969,9150 C 115118,9150 119546,12500 122818,14945 C 125641,17037 127310,18301 131353,18301 C 135459,18301 137128,17037 139952,14945 C 143224,12500 147652,9150 155801,9150 C 163951,9150 168442,12500 171715,14945 C 174474,17037 176206,18301 180249,18301 C 184356,18301 186024,17037 188784,14945 C 192056,12500 196548,9150 204697,9150 C 212847,9150 217338,12500 220611,14945 C 223371,17037 225038,18301 229145,18301 C 233188,18301 234921,17037 237680,14945 C 240953,12500 245444,9150 253594,9150 C 261743,9150 266171,12500 269443,14945 C 272267,17037 273935,18301 278042,18301 C 282084,18301 283753,17037 286576,14945 C 289849,12500 294276,9150 302426,9150 C 310575,9150 315067,12500 318339,14945 C 321163,17037 322832,18301 326874,18301 C 330980,18301 332649,17037 335473,14945 C 338745,12500 343237,9150 351386,9150 Z M 351386 0 C 340221,0 333804,4774 330019,7623 C 327965,9150 327965,9150 326938,9150 C 325912,9150 325912,9150 323922,7629 C 320072,4774 313720,0 302490,0 C 291325,0 284908,4774 281122,7623 C 279068,9150 279068,9150 278042,9150 C 277015,9150 277015,9150 275026,7623 C 271176,4768 264823,0 253594,0 C 242428,0 236012,4774 232225,7623 C 230172,9150 230172,9150 229145,9150 C 228119,9150 228119,9150 226129,7629 C 222280,4774 215927,0 204697,0 C 193532,0 187180,4774 183329,7623 C 181276,9150 181276,9150 180313,9150 C 179286,9150 179286,9150 177233,7629 C 173447,4774 167031,0 155865,0 C 144636,0 138283,4774 134433,7623 C 132379,9150 132379,9150 131417,9150 C 130390,9150 130390,9150 128337,7623 C 124551,4768 118134,0 106969,0 C 95740,0 89387,4774 85536,7623 C 83547,9150 83547,9150 82520,9150 C 81494,9150 81494,9150 79441,7629 C 75655,4774 69238,0 58073,0 C 46843,0 40491,4774 36640,7623 C 34651,9150 34651,9150 33624,9150 C 32597,9150 32597,9150 30544,7629 C 26759,4774 20342,0 9176,0 L 0 0 L 0 9150 L 0 21349 L 0 30499 L 9176 30499 C 10203,30499 10203,30499 12192,32020 C 16042,34876 22395,39650 33624,39650 C 44789,39650 51206,34882 54992,32026 C 57046,30499 57046,30499 58073,30499 C 59099,30499 59099,30499 61088,32020 C 64938,34882 71291,39650 82520,39650 C 93686,39650 100103,34876 103888,32026 C 105942,30499 105942,30499 106969,30499 C 107995,30499 107995,30499 109985,32020 C 113835,34876 120187,39650 131417,39650 C 142582,39650 148999,34876 152785,32026 C 154838,30499 154838,30499 155865,30499 C 156891,30499 156891,30499 158881,32020 C 162731,34876 169084,39650 180313,39650 C 191478,39650 197895,34876 201682,32026 C 203735,30499 203735,30499 204762,30499 C 205724,30499 205724,30499 207777,32020 C 211627,34876 217980,39650 229209,39650 C 240375,39650 246792,34876 250578,32026 C 252631,30499 252631,30499 253658,30499 C 254621,30499 254621,30499 256674,32020 C 260524,34876 266876,39650 278106,39650 C 289271,39650 295688,34876 299474,32026 C 301527,30499 301527,30499 302554,30499 C 303517,30499 303517,30499 305570,32020 C 309420,34876 315773,39650 327002,39650 C 338167,39650 344584,34876 348371,32026 C 350424,30499 350424,30499 351386,30499 C 352413,30499 352413,30499 354466,32020 C 358252,34876 364669,39650 375834,39650 L 385011 39650 L 385011 30499 L 385011 18301 L 385011 9150 L 375834 9150 C 374872,9150 374872,9150 372818,7629 C 368968,4774 362616,0 351386,0 Z" fill="#FFFFFF" transform="translate(0,302574)"/>
  <path d="M 12191 159131 L 12191 79819 L 0 79819 L 0 37115 L 11871 37115 C 11165,34625 10844,32058 10844,29466 C 10844,23556 12769,17531 16234,12525 C 21689,4614 30416,45 40233,0 C 52489,0 63526,7566 67761,18820 L 71933 29768 L 76104 18795 C 80338,7559 91376,0 103567,0 C 113449,38 122176,4601 127695,12519 C 131160,17525 133085,23543 133085,29473 C 133085,32065 132700,34638 131994,37115 L 143609 37115 L 143609 79826 L 131417 79826 L 131417 159138 L 12191 159131 Z" fill="#FFFFFF" transform="translate(121471,4575)"/>
  <path d="M 108252 9151 C 116530,9183 123910,13026 128530,19693 C 131481,23948 133085,29043 133085,34048 C 133085,38424 131931,42595 129749,46266 L 143609 46266 L 143609 79826 L 131417 79826 L 131417 159138 L 93237 159138 L 59613 159138 L 21433 159138 L 21433 79813 L 9176 79813 L 9176 46266 L 23357 46266 C 21176,42595 20021,38424 20021,34048 C 20021,29043 21625,23948 24577,19693 C 29197,13026 36576,9183 44854,9151 C 44854,9151 44918,9151 44918,9151 C 55249,9151 64554,15509 68083,25007 L 76168 46266 L 76938 46266 L 85023 24987 C 88617,15509 97921,9151 108188,9151 C 108188,9151 108252,9151 108252,9151 Z M 108316 0 L 108316 0 L 108188 0 C 94200,0 81559,8611 76553,21458 C 71548,8618 58907,0 44918,0 C 33497,51 23357,5332 17069,14496 C 13091,20258 10845,27201 10845,34048 C 10845,35074 10909,36101 10973,37115 L 9176 37115 L 0 37115 L 0 46266 L 0 79826 L 0 88976 L 9176 88976 L 12256 88976 L 12256 159138 L 12256 168288 L 21433 168288 L 59613 168288 L 93237 168288 L 131417 168288 L 140593 168288 L 140593 159138 L 140593 88963 L 143673 88963 L 152785 88963 L 152785 79813 L 152785 46266 L 152785 37115 L 143673 37115 L 142133 37115 C 142197,36101 142262,35074 142262,34048 C 142262,27201 140080,20258 136102,14496 C 129749,5332 119610,51 108316,0 L 108316 0 Z" fill="#FFFFFF" transform="translate(116850,0)"/>
  <path d="M 0 12198 L 87076 12198 L 87076 39047 C 84959,40112 83290,41337 81878,42396 C 79055,44482 77387,45746 73344,45746 C 69237,45746 67569,44482 64746,42390 C 61537,39945 57045,36595 48896,36595 C 40747,36595 36255,39945 32982,42396 C 30223,44495 28490,45752 24448,45752 C 20341,45752 18672,44495 15914,42396 C 12641,39945 8149,36595 0,36595 L 0 48794 C 4043,48794 5775,50058 8534,52150 C 11807,54594 16298,57944 24448,57944 C 32597,57944 37025,54594 40297,52150 C 43121,50058 44789,48794 48896,48794 C 52939,48794 54607,50058 57430,52150 C 60703,54607 65195,57951 73344,57951 C 81494,57951 85921,54607 89193,52163 C 92017,50064 93686,48800 97793,48800 C 101835,48800 103504,50064 106327,52163 C 109599,54607 114091,57951 122176,57951 C 130326,57951 134817,54607 138090,52163 C 140914,50064 142582,48800 146625,48800 C 150732,48800 152400,50064 155223,52163 C 158431,54607 162923,57951 171072,57951 C 179222,57951 183714,54607 186986,52163 C 189746,50064 191478,48800 195521,48800 C 199564,48800 201296,50064 204055,52163 C 207328,54607 211819,57951 219969,57951 C 228118,57951 232611,54607 235819,52163 C 238642,50064 240310,48800 244417,48800 C 248460,48800 250128,50064 252951,52163 C 256224,54607 260716,57951 268865,57951 C 277015,57951 281443,54607 284715,52163 C 287538,50064 289207,48800 293249,48800 C 297356,48800 299025,50064 301848,52163 C 305120,54607 309548,57951 317697,57951 C 325847,57951 330339,54607 333612,52163 C 336370,50064 338103,48800 342146,48800 C 346253,48800 347921,50064 350680,52163 C 353952,54607 358445,57951 366594,57951 L 366594 45752 C 362552,45752 360819,44495 358059,42396 C 354787,39951 350295,36602 342146,36602 C 333996,36602 329505,39951 326296,42396 C 323472,44495 321804,45752 317697,45752 C 313655,45752 311987,44495 309163,42396 C 305890,39951 301399,36602 293249,36602 C 287795,36602 283945,38142 281057,39881 L 281057 12198 L 366658 12198 L 366658 0 L 0 0 L 0 12198 Z M 99268 12198 L 268865 12198 L 268865 45752 C 264822,45752 263154,44495 260331,42396 C 257058,39951 252567,36602 244417,36602 C 236268,36602 231841,39951 228568,42396 C 225744,44495 224076,45752 220033,45752 C 215926,45752 214258,44495 211435,42396 C 208162,39951 203735,36602 195585,36602 C 187436,36602 182943,39951 179672,42396 C 176912,44495 175179,45752 171137,45752 C 167030,45752 165361,44495 162603,42396 C 159330,39951 154838,36602 146689,36602 C 138539,36602 134047,39951 130775,42396 C 128016,44495 126347,45752 122240,45752 C 118198,45752 116465,44495 113706,42396 C 110626,40112 106519,37077 99333,36679 L 99333 12198 L 99268 12198 Z" fill="#2D5967" transform="translate(9176,250725)"/>
  <path d="M 362102 96092 L 360562 96092 C 300693,96092 281121,29171 281121,6109 L 281121 0 L 268865 0 L 268865 6109 C 268865,16145 265592,38411 253401,58188 C 238449,82328 215349,94571 184869,94571 C 153940,94571 130583,82867 115503,59779 C 103504,41543 99268,19469 99268,6115 L 99268 13 L 87076 13 L 87076 6115 C 87076,29177 67505,96099 7636,96099 L 1540 96099 L 0 96099 L 0 108297 L 1540 108297 L 7636 108297 L 360562 108297 L 362102 108297 L 366658 108297 L 366658 96099 L 362102 96092 Z M 87076 96092 L 51142 96092 C 63976,87994 73216,77086 79632,67165 C 82456,62802 84895,58271 87076,53709 L 87076 96092 Z M 99268 96092 L 99268 56000 C 101065,59542 103054,63046 105236,66440 C 111974,76701 122305,88046 137705,96080 L 99268 96080 L 99268 96092 Z M 268865 96092 L 230749 96092 C 246535,87661 256994,75539 263796,64605 C 265657,61538 267325,58413 268865,55275 L 268865 96092 Z M 281121 96092 L 281121 53709 C 283303,58271 285741,62802 288565,67165 C 294982,77073 304158,87994 316991,96092 L 281121 96092 Z" fill="#2D5967" transform="translate(9176,130224)"/>
  <path d="M 342210 0 C 334060,0 329569,3350 326361,5788 C 323537,7886 321868,9151 317761,9151 C 313719,9151 312051,7886 309227,5788 C 305955,3350 301463,0 293314,0 C 285228,0 280737,3350 277464,5788 C 274640,7886 272972,9151 268929,9151 C 264822,9151 263154,7886 260331,5788 C 257058,3350 252631,0 244482,0 C 236332,0 231841,3350 228568,5788 C 225808,7886 224076,9151 220033,9151 C 215926,9151 214258,7886 211499,5788 C 208226,3350 203735,0 195585,0 C 187436,0 182943,3350 179672,5788 C 176912,7886 175244,9151 171137,9151 C 167094,9151 165361,7886 162603,5788 C 159330,3350 154838,0 146689,0 C 138539,0 134111,3350 130839,5788 C 128016,7886 126347,9151 122240,9151 C 118198,9151 116529,7886 113706,5788 C 110434,3350 105941,0 97857,0 C 89707,0 85215,3350 81942,5788 C 79055,7886 77387,9151 73344,9151 C 69237,9151 67569,7886 64746,5788 C 61537,3350 57045,0 48896,0 C 40747,0 36255,3350 32982,5788 C 30223,7886 28490,9151 24448,9151 C 20341,9151 18672,7886 15914,5788 C 12641,3350 8149,0 0,0 L 0 12198 C 4043,12198 5775,13456 8534,15554 C 11807,18000 16298,21349 24448,21349 C 32597,21349 37025,18000 40297,15554 C 43121,13456 44789,12198 48896,12198 C 52939,12198 54607,13456 57430,15554 C 60703,18000 65195,21349 73344,21349 C 81494,21349 85921,18000 89193,15554 C 92017,13456 93686,12198 97793,12198 C 101835,12198 103504,13456 106327,15554 C 109599,18000 114091,21349 122176,21349 C 130326,21349 134817,18000 138090,15554 C 140914,13456 142582,12198 146625,12198 C 150732,12198 152400,13456 155223,15554 C 158431,18000 162923,21349 171072,21349 C 179222,21349 183714,18000 186986,15554 C 189746,13456 191478,12198 195521,12198 C 199564,12198 201296,13456 204055,15554 C 207328,18000 211819,21349 219969,21349 C 228118,21349 232611,18000 235819,15554 C 238642,13456 240310,12198 244417,12198 C 248460,12198 250128,13456 252951,15554 C 256224,18000 260716,21349 268865,21349 C 277015,21349 281443,18000 284715,15554 C 287538,13456 289207,12198 293249,12198 C 297356,12198 299025,13456 301848,15554 C 305120,18000 309548,21349 317697,21349 C 325847,21349 330339,18000 333612,15554 C 336370,13456 338103,12198 342146,12198 C 346253,12198 347921,13456 350680,15554 C 353952,18000 358445,21349 366594,21349 L 366594 9151 C 362552,9151 360819,7886 358059,5788 C 354851,3350 350359,0 342210,0 Z" fill="#2D5967" transform="translate(9176,311724)"/>
  <path d="M 12256 149981 L 50436 149981 L 84060 149981 L 122240 149981 L 122240 70669 L 134497 70669 L 134497 37122 L 120573 37122 C 122754,33451 123909,29280 123909,24904 C 123909,19899 122305,14797 119353,10543 C 114733,3882 107354,39 99076,0 C 99076,0 99011,0 99011,0 C 88680,0 79441,6359 75847,15843 L 67761 37122 L 66991 37122 L 58906 15863 C 55377,6359 46072,0 35741,0 C 35741,0 35677,0 35677,0 C 27400,39 20021,3882 15401,10556 C 12448,14810 10844,19905 10844,24910 C 10844,29287 11999,33458 14181,37128 L 0 37128 L 0 70688 L 12256 70688 L 12256 149981 Z M 50436 137783 L 24448 137783 L 24448 70669 L 50436 70669 L 50436 137783 Z M 71804 137783 L 62628 137783 L 62628 70669 L 71804 70669 L 71804 137783 Z M 110049 137783 L 84060 137783 L 84060 70669 L 110049 70669 L 110049 137783 Z M 87269 20155 C 89066,15388 93750,12198 99011,12198 C 99011,12198 99011,12198 99076,12198 C 103247,12218 106969,14143 109279,17479 C 110819,19687 111717,22388 111717,24904 C 111717,28125 110434,31134 108188,33394 C 105749,35774 102541,37083 99076,37083 C 99011,37083 99011,37083 99011,37083 L 80788 37102 L 87269 20155 Z M 25475 17479 C 27785,14143 31507,12218 35741,12198 C 40939,12147 45688,15375 47485,20168 L 53966 37102 L 35806 37083 L 35741 37083 C 32277,37109 29004,35793 26630,33394 C 24320,31134 23100,28112 23100,24904 C 23100,22395 23935,19687 25475,17479 Z M 12256 49320 L 62885 49320 L 63077 49320 L 67377 49326 L 71676 49326 L 71868 49320 L 122240 49320 L 122240 58470 L 84060 58470 L 50436 58470 L 12256 58470 L 12256 49320 Z" fill="#2D5967" transform="translate(126026,9144)"/>
  <path d="M 0 12198 L 87076 12198 L 87076 39047 C 84959,40112 83290,41337 81878,42396 C 79055,44482 77387,45746 73344,45746 C 69237,45746 67569,44482 64746,42390 C 61537,39945 57045,36595 48896,36595 C 40747,36595 36255,39945 32982,42396 C 30223,44495 28490,45752 24448,45752 C 20341,45752 18672,44495 15914,42396 C 12641,39945 8149,36595 0,36595 L 0 48794 C 4043,48794 5775,50058 8534,52150 C 11807,54594 16298,57944 24448,57944 C 32597,57944 37025,54594 40297,52150 C 43121,50058 44789,48794 48896,48794 C 52939,48794 54607,50058 57430,52150 C 60703,54607 65195,57951 73344,57951 C 81494,57951 85921,54607 89193,52163 C 92017,50064 93686,48800 97793,48800 C 101835,48800 103504,50064 106327,52163 C 109599,54607 114091,57951 122176,57951 C 130326,57951 134817,54607 138090,52163 C 140914,50064 142582,48800 146625,48800 C 150732,48800 152400,50064 155223,52163 C 158431,54607 162923,57951 171072,57951 C 179222,57951 183714,54607 186986,52163 C 189746,50064 191478,48800 195521,48800 C 199564,48800 201296,50064 204055,52163 C 207328,54607 211819,57951 219969,57951 C 228118,57951 232611,54607 235819,52163 C 238642,50064 240310,48800 244417,48800 C 248460,48800 250128,50064 252951,52163 C 256224,54607 260716,57951 268865,57951 C 277015,57951 281443,54607 284715,52163 C 287538,50064 289207,48800 293249,48800 C 297356,48800 299025,50064 301848,52163 C 305120,54607 309548,57951 317697,57951 C 325847,57951 330339,54607 333612,52163 C 336370,50064 338103,48800 342146,48800 C 346253,48800 347921,50064 350680,52163 C 353952,54607 358445,57951 366594,57951 L 366594 45752 C 362552,45752 360819,44495 358059,42396 C 354787,39951 350295,36602 342146,36602 C 333996,36602 329505,39951 326296,42396 C 323472,44495 321804,45752 317697,45752 C 313655,45752 311987,44495 309163,42396 C 305890,39951 301399,36602 293249,36602 C 287795,36602 283945,38142 281057,39881 L 281057 12198 L 366658 12198 L 366658 0 L 0 0 L 0 12198 Z M 99268 12198 L 268865 12198 L 268865 45752 C 264822,45752 263154,44495 260331,42396 C 257058,39951 252567,36602 244417,36602 C 236268,36602 231841,39951 228568,42396 C 225744,44495 224076,45752 220033,45752 C 215926,45752 214258,44495 211435,42396 C 208162,39951 203735,36602 195585,36602 C 187436,36602 182943,39951 179672,42396 C 176912,44495 175179,45752 171137,45752 C 167030,45752 165361,44495 162603,42396 C 159330,39951 154838,36602 146689,36602 C 138539,36602 134047,39951 130775,42396 C 128016,44495 126347,45752 122240,45752 C 118198,45752 116465,44495 113706,42396 C 110626,40112 106519,37077 99333,36679 L 99333 12198 L 99268 12198 Z" fill="#2D5967" transform="translate(9176,250725)"/>
  <path d="M 362102 96092 L 360562 96092 C 300693,96092 281121,29171 281121,6109 L 281121 0 L 268865 0 L 268865 6109 C 268865,16145 265592,38411 253401,58188 C 238449,82328 215349,94571 184869,94571 C 153940,94571 130583,82867 115503,59779 C 103504,41543 99268,19469 99268,6115 L 99268 13 L 87076 13 L 87076 6115 C 87076,29177 67505,96099 7636,96099 L 1540 96099 L 0 96099 L 0 108297 L 1540 108297 L 7636 108297 L 360562 108297 L 362102 108297 L 366658 108297 L 366658 96099 L 362102 96092 Z M 87076 96092 L 51142 96092 C 63976,87994 73216,77086 79632,67165 C 82456,62802 84895,58271 87076,53709 L 87076 96092 Z M 99268 96092 L 99268 56000 C 101065,59542 103054,63046 105236,66440 C 111974,76701 122305,88046 137705,96080 L 99268 96080 L 99268 96092 Z M 268865 96092 L 230749 96092 C 246535,87661 256994,75539 263796,64605 C 265657,61538 267325,58413 268865,55275 L 268865 96092 Z M 281121 96092 L 281121 53709 C 283303,58271 285741,62802 288565,67165 C 294982,77073 304158,87994 316991,96092 L 281121 96092 Z" fill="#2D5967" transform="translate(9176,130224)"/>
  <path d="M 342210 0 C 334060,0 329569,3350 326361,5788 C 323537,7886 321868,9151 317761,9151 C 313719,9151 312051,7886 309227,5788 C 305955,3350 301463,0 293314,0 C 285228,0 280737,3350 277464,5788 C 274640,7886 272972,9151 268929,9151 C 264822,9151 263154,7886 260331,5788 C 257058,3350 252631,0 244482,0 C 236332,0 231841,3350 228568,5788 C 225808,7886 224076,9151 220033,9151 C 215926,9151 214258,7886 211499,5788 C 208226,3350 203735,0 195585,0 C 187436,0 182943,3350 179672,5788 C 176912,7886 175244,9151 171137,9151 C 167094,9151 165361,7886 162603,5788 C 159330,3350 154838,0 146689,0 C 138539,0 134111,3350 130839,5788 C 128016,7886 126347,9151 122240,9151 C 118198,9151 116529,7886 113706,5788 C 110434,3350 105941,0 97857,0 C 89707,0 85215,3350 81942,5788 C 79055,7886 77387,9151 73344,9151 C 69237,9151 67569,7886 64746,5788 C 61537,3350 57045,0 48896,0 C 40747,0 36255,3350 32982,5788 C 30223,7886 28490,9151 24448,9151 C 20341,9151 18672,7886 15914,5788 C 12641,3350 8149,0 0,0 L 0 12198 C 4043,12198 5775,13456 8534,15554 C 11807,18000 16298,21349 24448,21349 C 32597,21349 37025,18000 40297,15554 C 43121,13456 44789,12198 48896,12198 C 52939,12198 54607,13456 57430,15554 C 60703,18000 65195,21349 73344,21349 C 81494,21349 85921,18000 89193,15554 C 92017,13456 93686,12198 97793,12198 C 101835,12198 103504,13456 106327,15554 C 109599,18000 114091,21349 122176,21349 C 130326,21349 134817,18000 138090,15554 C 140914,13456 142582,12198 146625,12198 C 150732,12198 152400,13456 155223,15554 C 158431,18000 162923,21349 171072,21349 C 179222,21349 183714,18000 186986,15554 C 189746,13456 191478,12198 195521,12198 C 199564,12198 201296,13456 204055,15554 C 207328,18000 211819,21349 219969,21349 C 228118,21349 232611,18000 235819,15554 C 238642,13456 240310,12198 244417,12198 C 248460,12198 250128,13456 252951,15554 C 256224,18000 260716,21349 268865,21349 C 277015,21349 281443,18000 284715,15554 C 287538,13456 289207,12198 293249,12198 C 297356,12198 299025,13456 301848,15554 C 305120,18000 309548,21349 317697,21349 C 325847,21349 330339,18000 333612,15554 C 336370,13456 338103,12198 342146,12198 C 346253,12198 347921,13456 350680,15554 C 353952,18000 358445,21349 366594,21349 L 366594 9151 C 362552,9151 360819,7886 358059,5788 C 354851,3350 350359,0 342210,0 Z" fill="#2D5967" transform="translate(9176,311724)"/>
  <path d="M 12256 149981 L 50436 149981 L 84060 149981 L 122240 149981 L 122240 70669 L 134497 70669 L 134497 37122 L 120573 37122 C 122754,33451 123909,29280 123909,24904 C 123909,19899 122305,14797 119353,10543 C 114733,3882 107354,39 99076,0 C 99076,0 99011,0 99011,0 C 88680,0 79441,6359 75847,15843 L 67761 37122 L 66991 37122 L 58906 15863 C 55377,6359 46072,0 35741,0 C 35741,0 35677,0 35677,0 C 27400,39 20021,3882 15401,10556 C 12448,14810 10844,19905 10844,24910 C 10844,29287 11999,33458 14181,37128 L 0 37128 L 0 70688 L 12256 70688 L 12256 149981 Z M 50436 137783 L 24448 137783 L 24448 70669 L 50436 70669 L 50436 137783 Z M 71804 137783 L 62628 137783 L 62628 70669 L 71804 70669 L 71804 137783 Z M 110049 137783 L 84060 137783 L 84060 70669 L 110049 70669 L 110049 137783 Z M 87269 20155 C 89066,15388 93750,12198 99011,12198 C 99011,12198 99011,12198 99076,12198 C 103247,12218 106969,14143 109279,17479 C 110819,19687 111717,22388 111717,24904 C 111717,28125 110434,31134 108188,33394 C 105749,35774 102541,37083 99076,37083 C 99011,37083 99011,37083 99011,37083 L 80788 37102 L 87269 20155 Z M 25475 17479 C 27785,14143 31507,12218 35741,12198 C 40939,12147 45688,15375 47485,20168 L 53966 37102 L 35806 37083 L 35741 37083 C 32277,37109 29004,35793 26630,33394 C 24320,31134 23100,28112 23100,24904 C 23100,22395 23935,19687 25475,17479 Z M 12256 49320 L 62885 49320 L 63077 49320 L 67377 49326 L 71676 49326 L 71868 49320 L 122240 49320 L 122240 58470 L 84060 58470 L 50436 58470 L 12256 58470 L 12256 49320 Z" fill="#2D5967" transform="translate(126026,9144)"/>
</svg>