<svg xmlns="http://www.w3.org/2000/svg" viewBox="0 0 385010 293031" width="40" height="31">
  <path d="M 371259 283875 C 361178,283875 356597,280211 352926,277464 C 350180,275636 349262,274718 347427,274718 C 345592,274718 343763,275636 341928,277464 C 338258,280211 332758,283875 323595,283875 C 313508,283875 308926,280211 305262,277464 C 302509,275636 301592,274718 299757,274718 C 297928,274718 296092,275636 294257,277464 C 290593,280211 285094,283875 275924,283875 C 265843,283875 261255,280211 257591,277464 C 254839,275636 253927,274718 252092,274718 C 249339,274718 248422,275636 246593,277464 C 242923,280211 237423,283875 228260,283875 C 218173,283875 213591,280211 209921,277464 C 207174,275636 206257,274718 204422,274718 C 201675,274718 200757,275636 198922,277464 C 195258,280211 189759,283875 180589,283875 C 170508,283875 165920,280211 162256,277464 C 159504,275636 158586,274718 156757,274718 C 154004,274718 153087,275636 151258,277464 C 147587,280211 142088,283875 132919,283875 C 122838,283875 118256,280211 114586,277464 C 111839,275636 110922,274718 109086,274718 C 107251,274718 105422,275636 103587,277464 C 99923,280211 94418,283875 85254,283875 C 75167,283875 70585,280211 66921,277464 C 64168,275636 63251,274718 61422,274718 C 59587,274718 50417,274718 47671,277464 C 44000,280211 38501,283875 29338,283875 C 19251,283875 14669,280211 10999,277464 C 8252,275636 7334,274718 5499,274718 L 0 274718 L 0 228934 L 4582 228934 C 14669,228934 19251,232598 22921,235344 C 25667,237173 26585,238091 28420,238091 C 31167,238091 32084,237173 33919,235344 C 37584,232598 43083,228934 52252,228934 C 62333,228934 66921,232598 70585,235344 C 73338,237173 74256,238091 76085,238091 C 77920,238091 79755,237173 81584,235344 C 82502,234427 83419,233509 85254,232598 L 85254 213367 L 0 213367 L 0 167576 L 11916 167576 C 70585,167576 85254,102561 87090,84247 L 87090 71426 L 91671 71426 L 108169 71426 L 108169 82412 C 108169,95232 111839,116299 123755,133695 C 138424,155673 160421,166665 188841,166665 C 217255,166665 239258,154755 253010,132777 C 255756,128202 258509,123621 260344,118128 L 116421 118128 L 117338 107142 C 119174,86993 130172,69597 146670,61352 C 149423,59523 151258,56776 151258,54023 C 154004,40291 163174,28388 176008,22889 C 181507,20142 187924,19231 193423,19231 C 194341,19231 196176,19231 197087,19231 L 198005 19231 C 200757,19231 202593,18314 204422,16478 C 214509,5493 228260,0 242923,0 C 263091,0 280506,10986 289676,29299 C 290593,32046 293340,33881 296092,33881 C 302509,34799 308008,37545 312590,41209 C 336429,55859 344674,86993 330930,111717 L 328177 118128 L 297928 118128 C 306173,137359 324513,168493 363925,168493 L 374930 168493 L 374930 214278 L 289676 214278 L 289676 230763 C 292428,229845 294257,229845 297010,229845 C 307091,229845 311679,233509 315343,236255 C 318096,238091 319007,239008 320842,239008 C 323595,239008 324513,238091 326342,236255 C 330012,233509 335511,229845 344674,229845 C 354762,229845 359343,233509 363014,236255 C 365760,238091 366678,239008 368513,239008 L 373095 239008 L 373095 284792 L 371259 284792 L 371259 283875 Z" fill="#FFFFFF" transform="translate(4582,4582)"/>
  <path d="M 248422 9157 C 266755,9157 283259,19231 291511,35710 C 293339,39374 297010,42120 300674,43038 C 306173,43955 311673,46702 316261,49448 C 338257,63187 345592,91575 333676,114464 L 331841 118128 L 297927 118128 C 298839,119963 299756,121792 300674,124538 C 311673,150180 333676,177650 371259,177650 L 375841 177650 L 375841 189553 L 375841 214284 L 290593 214284 L 290593 241754 C 293339,239919 297010,238091 302509,238091 C 310761,238091 315343,241754 318089,243583 C 320842,245418 322677,247247 326341,247247 C 330012,247247 331841,246330 334593,243583 C 338257,240837 341928,238091 350174,238091 C 358426,238091 363007,241754 365760,243583 C 368513,245418 370342,247247 374012,247247 L 374012 256404 L 374012 260068 L 374012 283875 C 365760,283875 361178,280217 358426,278382 C 357508,275636 355679,274718 351091,274718 C 347427,274718 345592,275636 342845,278382 C 339175,280217 334593,283875 327259,283875 C 319007,283875 314425,280217 311673,278382 C 308008,275636 306173,274718 302509,274718 C 298839,274718 297010,275636 294257,278382 C 290593,281128 286923,283875 278677,283875 C 270425,283875 265843,280217 263091,278382 C 260338,276553 258509,274718 254838,274718 C 251174,274718 249339,275636 246593,278382 C 242005,280217 237423,283875 229171,283875 C 220925,283875 216337,280217 213591,278382 C 210838,275636 209003,274718 204421,274718 C 200757,274718 198922,275636 196169,278382 C 192505,280217 187924,283875 180589,283875 C 172337,283875 167756,280217 165003,278382 C 161339,275636 159503,274718 155840,274718 C 152169,274718 150340,275636 147587,278382 C 143923,281128 140253,283875 132001,283875 C 123755,283875 119167,280217 116421,278382 C 113668,276553 111839,274718 108169,274718 C 104505,274718 102669,275636 99917,278382 C 95335,280217 90753,283875 82501,283875 C 74249,283875 69668,280217 66921,278382 C 64168,275636 62333,274718 57752,274718 C 53170,274718 52252,275636 49499,278382 C 45836,280217 42165,283875 33919,283875 C 25667,283875 21086,280217 18333,278382 C 14669,275636 12834,274718 9170,274718 L 9170 249994 L 9170 245418 L 9170 238091 C 17415,238091 22003,241754 24750,243583 C 27503,246330 29331,247247 33919,247247 C 37583,247247 39419,246330 42165,243583 C 45836,241754 49499,238091 57752,238091 C 66004,238091 70585,241754 73338,243583 C 77002,246330 78837,247247 82501,247247 C 86172,247247 88001,246330 90753,243583 C 92589,242672 93500,240837 96253,239919 L 96253 213366 L 9170 213366 L 9170 188642 L 9170 175822 L 16498 175822 C 74249,175822 94417,113552 96253,88828 L 96253 80583 L 108169 80583 L 108169 86993 C 108169,100732 112750,122709 124673,141023 C 140253,163918 163174,175822 194341,175822 C 224589,175822 247504,163918 263091,139188 C 265843,134612 268590,129120 270425,124538 C 271343,122709 272260,120874 272260,118128 L 263091 118128 L 235588 118128 L 210838 118128 L 152169 118128 L 125584 118128 L 125584 112635 C 126502,95232 136589,78754 153087,70508 C 156757,68679 159503,65016 160421,61351 C 163174,47620 171419,36627 183336,32052 C 187924,30217 193423,28388 198922,28388 C 199840,28388 201675,28388 202586,28388 L 203504 28388 C 207174,28388 210838,26553 212673,24724 C 221837,14650 234670,9157 248422,9157 Z M 248422 0 C 232842,0 217255,6411 206257,18314 C 205339,19231 204421,19231 203504,19231 L 202586 19231 C 200757,19231 199840,19231 198004,19231 C 191588,19231 185171,21060 178754,22895 C 164085,29299 154004,42120 151251,57687 C 151251,58605 150340,60440 148505,60440 C 133836,67762 122838,82418 118256,98896 C 117338,94321 117338,89739 117338,86076 L 117338 80583 L 117338 71426 L 108169 71426 L 96253 71426 L 87083 71426 L 87083 80583 L 87083 88828 C 86172,104395 70585,167576 16498,167576 L 9170 167576 L 0 167576 L 0 176739 L 0 189553 L 0 214284 L 0 223441 L 9170 223441 L 87083 223441 L 87083 236262 C 86172,236262 86172,237173 85254,237173 C 83419,238091 83419,238091 82501,238091 C 81584,238091 81584,238091 79755,236262 C 75167,233509 69668,228934 57752,228934 C 46753,228934 40336,233509 36666,236262 C 34837,238091 34837,238091 33919,238091 C 33002,238091 33002,238091 31167,236262 C 26585,233509 20168,228934 9170,228934 L 0 228934 L 0 238091 L 0 246330 L 0 250911 L 0 274718 L 0 283875 L 9170 283875 C 10081,283875 10081,283875 11916,285710 C 15586,288456 22003,293032 33919,293032 C 44918,293032 51335,288456 54999,285710 C 56834,283875 56834,283875 57752,283875 C 58669,283875 58669,283875 60504,285710 C 65086,288456 71503,293032 82501,293032 C 93500,293032 99917,288456 103587,285710 C 105422,283875 105422,283875 106334,283875 C 107251,283875 107251,283875 109086,285710 C 112750,288456 119167,293032 130172,293032 C 141171,293032 147587,288456 151251,285710 C 154922,283875 154922,283875 155840,283875 C 156757,283875 156757,283875 158586,285710 C 162256,288456 168673,293032 179672,293032 C 190670,293032 197087,288456 200757,285710 C 202586,283875 202586,283875 203504,283875 C 204421,283875 204421,283875 206257,285710 C 209921,288456 216337,293032 227342,293032 C 238341,293032 244758,288456 248422,285710 C 250257,283875 250257,283875 251174,283875 C 252092,283875 252092,283875 253921,285710 C 257591,288456 264008,293032 275007,293032 C 286005,293032 292422,288456 296092,285710 C 301592,283875 301592,283875 302509,283875 C 303427,283875 303427,283875 305256,285710 C 308926,288456 315343,293032 326341,293032 C 337340,293032 343757,288456 347427,285710 C 349262,283875 349262,283875 350174,283875 C 351091,283875 351091,283875 352926,285710 C 356590,288456 363007,293032 374012,293032 L 383175 293032 L 383175 283875 L 383175 259151 L 383175 256404 L 383175 247247 L 383175 238091 L 374012 238091 C 373095,238091 373095,238091 371259,236262 C 367595,233509 361178,228934 350174,228934 C 339175,228934 332758,233509 329094,236262 C 328177,238091 328177,238091 327259,238091 C 326341,238091 326341,238091 324506,236262 C 319924,233509 313508,228934 302509,228934 C 301592,228934 300674,228934 299756,228934 L 299756 222523 L 375841 222523 L 385011 222523 L 385011 213366 L 385011 188642 L 385011 176739 L 385011 167576 L 375841 167576 L 369424 167576 C 336429,167576 319007,144687 309844,126373 L 330012 126373 L 335511 126373 L 338257 120874 L 340093 117210 C 354762,90657 345592,56776 319924,41209 C 314425,37545 308008,34798 301592,33881 C 299756,33881 298839,32963 297927,31134 C 289676,11903 269507,0 248422,0 Z M 127419 126373 L 152169 126373 L 210838 126373 L 235588 126373 L 258509 126373 C 257591,129120 255756,130948 254838,133695 C 241087,155673 221837,165747 194341,165747 C 166838,165747 145752,155673 132918,135530 C 130172,132784 129254,130031 127419,126373 Z" fill="#FFFFFF"/>
  <path d="M 62333 20149 L 32084 20149 C 21086,20149 11916,10992 11916,0 L 0 0 C 0,17402 14669,32052 32084,32052 L 59587 32052 C 59587,31134 60505,27477 62333,20149 Z" fill="#2C5967" transform="translate(204421,85158)"/>
  <path d="M 74256 96150 L 12834 96150 C 15587,85158 22003,76001 32084,70508 C 39419,66844 44000,60434 45836,52194 C 47671,43955 53170,36627 61422,33881 C 66004,32046 69668,31134 74256,32046 C 82502,32963 89836,30217 95335,23807 C 102669,16478 111839,11903 121920,11903 C 135671,11903 147587,19225 154004,32046 C 157675,39374 164092,43955 171426,45784 C 175090,46702 179672,48531 183342,50366 C 198922,60434 204422,79665 198005,96150 L 176008 96150 C 177843,102560 179672,107135 180589,108053 L 204422 108053 L 206257 104389 C 218173,81500 210838,53112 188841,39374 C 184260,36627 178754,33881 173255,32963 C 168673,32046 165920,29299 164092,25635 C 155840,10068 140253,0 121920,0 C 109086,0 96253,5493 87090,15567 C 84337,18314 80673,20142 76085,19225 C 69668,18314 63251,19225 56834,21978 C 44918,27471 36672,37545 34837,50366 C 33919,54941 31167,57687 27503,59523 C 11916,67762 1835,84247 0,101643 L 0 107135 L 84337 107135 C 80673,105307 77002,100725 74256,96150 Z" fill="#2C5967" transform="translate(126502,9157)"/>
  <path d="M 0 11909 L 87083 11909 L 87083 38462 C 85248,39380 83419,41209 81584,42127 C 78831,44873 77002,45790 73332,45790 C 69668,45790 67833,44873 65080,42127 C 61416,40291 56834,36634 48582,36634 C 40330,36634 36666,40291 32996,42127 C 30249,44873 28414,45790 24750,45790 C 21079,45790 19251,44873 16498,42127 C 12834,40291 8246,36634 0,36634 L 0 48537 C 3664,48537 5499,49454 8246,52201 C 11916,54947 15580,57694 23832,57694 C 32084,57694 36666,54947 40330,52201 C 43083,50366 44918,48537 48582,48537 C 52246,48537 54081,49454 56834,52201 C 60498,54947 65080,57694 73332,57694 C 81584,57694 86165,54030 88918,52201 C 91665,50366 93500,48537 97164,48537 C 100834,48537 102669,49454 105416,52201 C 109086,54947 112750,57694 121003,57694 C 129248,57694 133836,54030 136583,52201 C 139335,50366 141171,48537 144835,48537 C 148499,48537 150334,49454 153087,52201 C 156751,54947 160421,57694 168667,57694 C 176919,57694 181500,54030 184253,52201 C 187000,50366 188835,48537 192505,48537 C 196169,48537 198005,49454 200751,52201 C 204422,54947 208085,57694 216338,57694 C 224589,57694 229171,54030 231918,52201 C 234670,50366 236506,48537 240170,48537 C 243840,48537 245669,49454 248422,52201 C 252086,54947 255756,57694 264002,57694 C 272254,57694 276836,54030 279588,52201 C 282341,50366 284170,48537 287840,48537 C 291504,48537 293340,49454 296086,52201 C 299757,54947 303420,57694 311673,57694 C 319925,57694 324506,54030 327259,52201 C 330005,50366 331841,48537 335505,48537 C 339175,48537 341004,49454 343757,52201 C 347421,54947 351091,57694 359343,57694 L 359343 45790 C 355673,45790 353838,44873 351091,42127 C 347421,39380 343757,36634 335505,36634 C 327259,36634 322671,40291 319925,42127 C 317172,43955 315337,45790 311673,45790 C 308008,45790 306173,44873 303420,42127 C 306173,40291 301592,36634 293340,36634 C 287840,36634 284170,38462 281424,40291 L 281424 12821 L 366671 12821 L 366671 0 L 0 0 L 0 11909 Z M 268590 45790 C 264919,45790 263091,44873 260338,42127 C 256674,40291 252086,36634 244751,36634 C 237423,36634 231918,40291 229171,42127 C 225501,44873 223672,45790 220001,45790 C 216338,45790 214502,44873 211756,42127 C 208085,39380 204422,36634 196169,36634 C 187917,36634 183336,40291 180583,42127 C 177836,43955 176001,45790 172337,45790 C 168667,45790 166838,44873 164085,42127 C 159504,40291 154916,36634 146670,36634 C 138418,36634 133836,40291 131083,42127 C 128337,44873 126502,45790 121920,45790 C 118250,45790 116415,44873 113668,42127 C 110915,40291 106334,36634 98999,36634 L 98999 11909 L 268590 11909 L 268590 45790 Z" fill="#2C5967" transform="translate(9170,201457)"/>
  <path d="M 360255 96150 C 321753,96150 300674,68679 289669,43038 C 283252,28388 281424,14650 281424,6411 L 281424 0 L 269507 0 L 269507 8239 C 269507,16485 266755,29306 261255,42127 C 259420,46702 256674,52195 253921,56776 C 239252,80583 216338,93404 185171,93404 C 154004,93404 131083,81500 115503,58605 C 103581,40291 98999,18314 98999,4575 L 98999 0 L 87083 0 L 87083 8239 C 85248,33881 65080,95239 7328,95239 L 0 95239 L 0 108060 L 366671 108060 L 366671 95239 L 360255 95239 L 360255 96150 Z M 318089 96150 L 281424 96150 L 281424 53112 C 283252,57694 286005,62269 288758,66851 C 295175,76919 304338,87911 318089,96150 Z M 264002 64104 C 265837,61352 267672,57694 268590,54941 L 268590 96150 L 230089 96150 C 246586,87911 256674,76008 264002,64104 Z M 105416 65933 C 111833,76008 122831,87911 138418,96150 L 98999 96150 L 98999 55859 C 100834,59523 102669,63187 105416,65933 Z M 79749 66851 C 82502,62269 85248,57694 87083,53112 L 87083 96150 L 50417 96150 C 64168,87911 73332,76919 79749,66851 Z" fill="#2C5967" transform="translate(9170,80583)"/>
  <path d="M 341921 0 C 333676,0 329088,3664 326342,5493 C 323589,7328 321753,9157 318089,9157 C 314425,9157 312590,8239 309837,5493 C 306173,2747 302503,0 294257,0 C 286005,0 281424,3664 278671,5493 C 275924,7328 274089,9157 270419,9157 C 266755,9157 264919,8239 262173,5493 C 258503,2747 254839,0 246586,0 C 238335,0 233753,3664 231006,5493 C 228254,7328 226418,9157 222754,9157 C 219084,9157 217255,8239 214502,5493 C 210838,2747 207168,0 198922,0 C 190670,0 186088,3664 183336,5493 C 180583,7328 178754,9157 175084,9157 C 171420,9157 169584,8239 166838,5493 C 163168,2747 159504,0 151251,0 C 142999,0 138418,3664 135665,5493 C 132919,7328 131083,9157 127419,9157 C 123749,9157 121920,8239 119167,5493 C 115503,2747 111833,0 103581,0 C 95335,0 90747,3664 88001,5493 C 85248,7328 83419,9157 79749,9157 C 76085,9157 74249,8239 71497,5493 C 67833,2747 64168,0 55916,0 C 47664,0 36666,2747 32996,5493 C 30249,7328 28414,9157 24750,9157 C 21079,9157 19251,8239 16498,5493 C 12834,2747 8246,0 0,0 L 0 11904 C 3664,11904 5499,12821 8246,15567 C 11916,17396 16498,21060 24750,21060 C 32996,21060 37584,17396 40330,15567 C 43083,12821 44918,11904 48582,11904 C 52246,11904 54081,12821 56834,15567 C 60498,17396 65080,21060 73332,21060 C 81584,21060 86165,17396 88918,15567 C 91665,13732 93500,11904 97164,11904 C 100834,11904 102669,12821 105416,15567 C 109086,18314 112750,21060 121003,21060 C 129248,21060 133836,17396 136583,15567 C 139335,13732 141171,11904 144835,11904 C 148499,11904 150334,12821 153087,15567 C 156751,18314 160421,21060 168667,21060 C 176919,21060 181500,17396 184253,15567 C 187000,13732 188835,11904 192505,11904 C 196169,11904 198005,12821 200751,15567 C 204422,18314 208085,21060 216338,21060 C 224589,21060 229171,17396 231918,15567 C 234670,13732 236506,11904 240170,11904 C 243840,11904 245669,12821 248422,15567 C 252086,18314 255756,21060 264002,21060 C 272254,21060 276836,17396 279588,15567 C 282341,13732 284170,11904 287840,11904 C 291504,11904 293340,12821 296086,15567 C 299757,18314 303420,21060 311673,21060 C 319925,21060 324506,17396 327259,15567 C 330005,13732 331841,11904 335505,11904 C 339175,11904 341004,12821 343757,15567 C 347421,18314 351091,21060 359343,21060 L 359343 9157 C 355673,9157 353838,8239 351091,5493 C 354755,2747 350174,0 341921,0 Z" fill="#2C5967" transform="translate(9170,262814)"/>
</svg>