<svg xmlns="http://www.w3.org/2000/svg" viewBox="0 0 385010 341095" width="40" height="36">
  <path d="M 371253 212308 C 364580,212346 358099,210042 352901,205801 C 350270,203876 349628,203324 347061,203324 C 344495,203324 343853,203876 341286,205801 C 336031,210126 329441,212494 322632,212494 C 315824,212494 309228,210126 303979,205801 C 301412,203876 300674,203324 298203,203324 C 295727,203324 294995,203876 292428,205801 C 287263,210068 280788,212436 274096,212494 C 267383,212494 260889,210126 255756,205801 C 253190,203876 252458,203324 249891,203324 C 247325,203324 246683,203876 244116,205801 C 238828,210286 232123,212757 225186,212757 C 218250,212757 211544,210286 206257,205801 C 203600,203876 202958,203324 200392,203324 C 197825,203324 197183,203876 194617,205801 C 189361,210126 182764,212494 175963,212494 C 169155,212494 162558,210126 157309,205801 C 154742,203876 154004,203324 151534,203324 C 149057,203324 148325,203876 145759,205801 C 140593,210068 134118,212436 127419,212494 C 120714,212481 114226,210113 109086,205801 C 106520,203876 105788,203324 103221,203324 C 100655,203324 100013,203876 97446,205801 C 92306,210113 85819,212481 79114,212494 C 71991,212808 65016,210415 59587,205801 C 56930,203876 56289,203324 53722,203324 C 51155,203324 50417,203690 47671,205801 C 42531,210113 36043,212481 29338,212494 C 22632,212474 16145,210107 11005,205801 C 8438,203876 7797,203324 5230,203324 L 0 203324 L 0 157488 L 4588 157488 C 11294,157501 17781,159869 22921,164181 C 23659,164996 24570,165638 25584,166061 C 26591,166491 27689,166690 28786,166658 C 29864,166684 30929,166491 31924,166081 C 32918,165670 33817,165054 34561,164271 C 39663,159895 46169,157488 52894,157488 C 59606,157488 66100,159856 71227,164181 C 73890,166196 74532,166658 77098,166658 C 79665,166658 80307,166196 82874,164271 C 83958,163418 85087,162622 86262,161891 L 86262 142088 L 0 142088 L 0 96253 L 12192 96253 C 68757,96253 87090,32636 87090,10639 L 87090 0 L 108445 0 L 108445 10639 C 108804,28792 114098,46503 123755,61878 C 130840,72620 140625,81301 152131,87064 C 163636,92826 176457,95457 189297,94700 C 202092,95309 214817,92441 226110,86403 C 237410,80371 246862,71387 253465,60414 C 262577,45354 267685,28221 268320,10639 L 268320 0 L 289765 0 L 289765 10639 C 289765,32636 308105,96253 364580,96253 L 375873 96253 L 375873 142088 L 290317 142088 L 290317 158316 C 292801,157649 295355,157309 297928,157309 C 304652,157302 311159,159709 316261,164091 C 317005,164868 317903,165484 318898,165894 C 319892,166305 320958,166504 322036,166472 C 323114,166517 324185,166324 325180,165914 C 326181,165497 327073,164881 327811,164091 C 333047,159728 339650,157341 346484,157341 C 353286,157341 359895,159728 365093,164091 C 367788,166106 368430,166568 370996,166568 L 375552 166568 L 375552 212397 L 371253 212308 Z" fill="#FFFFFF" transform="translate(4581,124205)"/>
  <path d="M 290317 9349 L 290317 15400 C 290317,38501 309844,105602 369674,105602 L 375835 105602 L 375835 142274 L 290317 142274 L 290317 169770 C 294001,167595 298229,166510 302509,166658 C 308329,166613 313970,168705 318365,172523 C 320714,174653 323768,175834 326938,175834 C 330108,175834 333162,174653 335511,172523 C 339907,168705 345547,166613 351386,166658 C 357226,166619 362872,168705 367300,172523 C 369610,174679 372690,175860 375835,175821 L 375835 212494 C 370059,212570 364412,210517 359985,206718 C 357675,204498 354595,203279 351386,203324 C 348191,203279 345123,204498 342846,206718 C 338386,210453 332752,212500 326938,212500 C 321125,212500 315491,210453 311031,206718 C 308753,204498 305686,203279 302509,203324 C 299301,203279 296208,204498 293891,206718 C 289451,210446 283836,212494 278035,212494 C 272234,212494 266613,210446 262173,206718 C 259850,204543 256783,203337 253600,203337 C 250424,203337 247356,204543 245033,206718 C 240625,210504 234985,212558 229171,212494 C 223332,212551 217666,210504 213225,206718 C 210922,204530 207874,203311 204697,203311 C 201521,203311 198473,204530 196169,206718 C 191729,210504 186063,212551 180223,212494 C 174410,212558 168770,210504 164361,206718 C 162083,204498 159016,203279 155840,203324 C 152631,203279 149538,204498 147222,206718 C 142781,210446 137160,212494 131359,212494 C 125558,212494 119944,210446 115503,206718 C 113180,204543 110113,203337 106930,203337 C 103748,203337 100687,204543 98364,206718 C 93917,210446 88302,212494 82501,212494 C 76701,212494 71086,210446 66645,206718 C 64329,204498 61236,203279 58028,203324 C 54845,203279 51784,204498 49499,206718 C 45085,210492 39451,212538 33643,212494 C 27804,212551 22138,210504 17691,206718 C 15413,204498 12346,203279 9170,203324 L 9170 166658 C 14996,166600 20637,168686 25026,172523 C 27374,174653 30429,175834 33599,175834 C 36768,175834 39823,174653 42165,172523 C 46560,168705 52201,166613 58028,166658 C 63880,166619 69546,168705 73980,172523 C 76277,174698 79338,175879 82501,175821 C 85665,175860 88719,174679 91029,172523 C 92646,171214 94398,170078 96253,169129 L 96253 142274 L 9170 142274 L 9170 105602 L 16774 105602 C 76726,105602 96253,38501 96253,15400 L 96253 9349 L 108445 9349 L 108445 15400 C 108919,34471 114528,53061 124673,69212 C 132161,80596 142518,89810 154697,95925 C 166883,102040 180455,104838 194064,104049 C 207732,104735 221330,101688 233400,95232 C 245463,88770 255538,79139 262539,67377 C 272074,51598 277407,33643 278035,15220 L 278035 9169 L 290317 9169 M 299481 0 L 268866 0 L 268866 15220 C 268192,31949 263335,48241 254749,62609 C 248550,73011 239611,81507 228908,87166 C 218205,92819 206147,95431 194064,94693 C 181969,95527 169873,93108 159022,87692 C 148178,82276 138976,74063 132373,63892 C 123107,49288 117999,32424 117614,15124 L 117614 186 L 87083 186 L 87083 15400 C 87083,36210 69757,96439 16774,96439 L 0 96439 L 0 151437 L 87083 151437 L 87083 163995 L 85530 165189 C 83509,166658 83509,166658 82501,166658 C 81494,166658 81494,166658 79479,165189 C 73479,160145 65869,157411 58028,157488 C 50212,157411 42633,160139 36666,165189 C 34651,166658 34651,166658 33643,166658 C 32636,166658 32636,166658 30525,165189 C 24570,160126 16985,157392 9170,157488 L 0 157488 L 0 212494 L 9170 212494 C 10177,212494 10177,212494 12192,214047 C 18230,219019 25821,221714 33643,221657 C 41433,221714 48999,219019 54999,214047 C 57020,212494 57020,212494 58028,212494 C 59035,212494 59035,212494 61146,214047 C 67178,218962 74718,221644 82501,221644 C 90285,221644 97825,218962 103863,214047 C 105878,212494 105878,212494 106885,212494 C 107893,212494 107989,212494 110004,214047 C 116036,218962 123582,221644 131359,221644 C 139143,221644 146689,218962 152721,214047 C 154832,212494 154832,212494 155840,212494 C 156847,212494 156847,212494 158862,214047 C 164913,218968 172472,221657 180268,221657 C 188065,221657 195624,218968 201675,214047 C 203690,212494 203690,212494 204697,212494 C 205705,212494 205705,212494 207719,214047 C 213771,218968 221330,221657 229126,221657 C 236923,221657 244482,218968 250533,214047 C 252548,212494 252548,212494 253555,212494 C 254563,212494 254563,212494 256674,214047 C 262706,218962 270252,221644 278035,221644 C 285813,221644 293359,218962 299391,214047 C 301502,212494 301502,212494 302509,212494 C 303517,212494 303517,212494 305532,214047 C 311583,218968 319142,221657 326938,221657 C 334734,221657 342294,218968 348345,214047 C 350359,212494 350359,212494 351386,212494 C 352349,212494 352349,212494 354466,214047 C 360498,219032 368070,221734 375835,221657 L 385011 221657 L 385011 166658 L 375835 166658 C 374808,166658 374808,166658 372818,165189 C 366787,160222 359215,157501 351386,157501 C 343603,157501 336037,160222 330012,165189 C 327991,166658 327991,166658 326893,166658 C 325789,166658 325886,166658 323865,165189 C 317903,160139 310318,157411 302509,157488 L 299481 157488 L 299481 151258 L 385011 151258 L 385011 96253 L 369674 96253 C 316716,96253 299481,36031 299481,15220 L 299481 186 L 299481 0 Z" fill="#FFFFFF" transform="translate(0,119437)"/>
  <path d="M 14759 68391 L 16863 60594 L 9163 63071 L 276 42993 L 7148 38963 L 0 35203 L 7880 14759 L 15676 16780 L 13289 9080 L 33271 186 L 37397 7155 L 41068 0 L 61602 7886 L 59491 15587 L 67190 13206 L 76174 33278 L 69205 37314 L 76360 41068 L 68474 61512 L 60684 59497 L 63161 67197 L 43083 76091 L 38957 69122 L 35293 76271 L 14759 68391 Z" fill="#FFFFFF" transform="translate(112205,5769)"/>
  <path d="M 49320 11454 L 62154 16408 L 60318 23280 C 61672,24294 62905,25468 63989,26765 L 70772 24564 L 76361 37122 L 70220 40695 C 70406,42371 70406,44064 70220,45739 L 76547 48948 L 71593 61781 L 64810 60042 C 63771,61339 62603,62539 61326,63617 L 63437 70399 L 50879 75988 L 47305 69847 C 46266,69937 45219,69937 44187,69847 L 42351 69847 L 39053 76175 L 26219 71227 L 28054 64348 C 26720,63309 25494,62141 24384,60864 L 17602 63065 L 11737 50693 L 17877 47112 C 17691,45438 17691,43750 17877,42075 L 11551 38867 L 16504 26033 L 23377 27772 C 24365,26450 25501,25250 26771,24198 L 24570 17415 L 37128 11820 L 40702 17967 C 41767,17871 42845,17871 43911,17967 L 45650 17967 L 49320 11454 Z M 44552 0 L 42813 3388 L 40888 0 L 33368 3299 L 20810 9163 L 13296 12558 L 14483 16222 L 10819 15215 L 7790 22914 L 2933 35748 L 0 43359 L 3395 45187 L 90 47112 L 3395 54543 L 8984 67191 L 12378 74615 L 15952 73332 L 15035 77002 L 22645 79935 L 35479 84882 L 43179 87814 L 44918 84426 L 46843 87725 L 54364 84426 L 66921 78831 L 74436 75443 L 73242 71772 L 77002 72780 L 79935 65080 L 84888 52246 L 87821 44642 L 84337 42807 L 87731 40882 L 84337 33457 L 78748 20803 L 75443 13379 L 71779 14483 L 72697 10812 L 65086 7880 L 52252 2933 L 44552 0 Z" fill="#FFFFFF" transform="translate(106519,0)"/>
  <path d="M 46015 135761 L 44732 123749 L 35293 131359 L 4396 100468 L 11916 91023 L 0 89739 L 0 46015 L 11916 44731 L 4396 35293 L 35293 4396 L 44732 11916 L 46015 0 L 89650 0 L 91023 11916 L 100379 4396 L 131269 35293 L 123749 44731 L 135761 46015 L 135761 89739 L 123749 91023 L 131269 100468 L 100379 131269 L 91023 123749 L 89650 135761 L 46015 135761 Z" fill="#FFFFFF" transform="translate(127329,73884)"/>
  <path d="M 90208 9164 L 91857 24660 L 92499 24660 L 104691 14938 L 129717 40702 L 119995 52798 L 119995 53439 L 135492 55185 L 135492 90202 L 119995 91941 L 119995 92492 L 129717 104871 L 104691 129896 L 92499 120175 L 91857 120175 L 90208 135671 L 54729 135671 L 52990 120175 L 52349 120175 L 40247 129896 L 14759 104871 L 24480 92678 L 24480 92127 L 9080 90388 L 9080 54723 L 24480 52984 L 24480 52342 L 14759 40702 L 39881 15580 L 51977 25302 L 52618 25302 L 54363 9805 L 89836 9805 M 97998 642 L 46477 642 L 45656 8432 L 39515 3574 L 33740 9350 L 8618 34375 L 2843 40240 L 7700 46291 L 0 47209 L 0 98999 L 7700 99917 L 2843 105968 L 8618 111833 L 33740 136858 L 39515 142634 L 45656 137776 L 46477 145573 L 98364 145573 L 99281 137776 L 105333 142634 L 111108 136858 L 136223 111833 L 141998 105968 L 137141 99917 L 144931 98999 L 144931 46567 L 137141 45650 L 141998 39598 L 136223 33733 L 111108 8708 L 105333 2933 L 99281 7790 L 98364 0 L 97998 642 Z" fill="#FFFFFF" transform="translate(122741,69302)"/>
  <path d="M 0 12282 L 87083 12282 L 87083 39143 C 85228,40092 83477,41228 81859,42537 C 79549,44693 76495,45874 73332,45836 C 70168,45893 67107,44706 64810,42537 C 60376,38713 54710,36634 48858,36666 C 43031,36627 37397,38713 32995,42537 C 30653,44668 27599,45848 24429,45848 C 21259,45848 18204,44668 15856,42537 C 11467,38700 5826,36614 0,36666 L 0 48954 C 1565,48915 3125,49185 4588,49750 C 6051,50321 7386,51168 8522,52252 C 12955,56044 18596,58124 24429,58124 C 30262,58124 35902,56044 40330,52252 C 41465,51168 42800,50321 44263,49750 C 45726,49185 47285,48915 48858,48954 C 52053,48870 55153,50058 57475,52252 C 61890,56032 67518,58111 73332,58111 C 79152,58111 84773,56032 89194,52252 C 91536,50122 94590,48941 97760,48941 C 100931,48941 103991,50122 106333,52252 C 110755,56032 116376,58111 122189,58111 C 128009,58111 133631,56032 138052,52252 C 140375,50058 143474,48870 146670,48954 C 148236,48915 149795,49185 151258,49750 C 152721,50321 154062,51168 155191,52252 C 159587,56070 165227,58156 171054,58117 C 176906,58156 182572,56070 186999,52252 C 189335,50128 192371,48948 195528,48948 C 198685,48948 201720,50128 204056,52252 C 208483,56070 214149,58156 220001,58117 C 225828,58156 231468,56070 235864,52252 C 238206,50122 241260,48941 244430,48941 C 247600,48941 250661,50122 253003,52252 C 257424,56032 263046,58111 268865,58111 C 274679,58111 280307,56032 284722,52252 C 287044,50058 290144,48870 293339,48954 C 294905,48915 296464,49185 297927,49750 C 299391,50321 300732,51168 301861,52252 C 306295,56044 311936,58124 317768,58124 C 323601,58124 329242,56044 333676,52252 C 334805,51168 336146,50321 337609,49750 C 339072,49185 340612,48915 342217,48954 C 345425,48870 348505,50058 350815,52252 C 355179,56089 360825,58175 366665,58117 L 366665 45836 C 363521,45874 360440,44693 358130,42537 C 353703,38713 348056,36634 342217,36666 C 336377,36627 330737,38713 326341,42537 C 323993,44668 320938,45848 317768,45848 C 314598,45848 311544,44668 309196,42537 C 304800,38713 299166,36627 293339,36666 C 289040,36582 284812,37724 281147,39971 L 281147 12468 L 366665 12468 L 366665 0 L 0 0 L 0 12282 Z M 268865 45836 C 265702,45874 262648,44693 260338,42537 C 255904,38745 250263,36666 244430,36666 C 238604,36666 232963,38745 228530,42537 C 226219,44693 223165,45874 220001,45836 C 216819,45867 213738,44687 211383,42537 C 206969,38751 201341,36672 195528,36672 C 189714,36672 184086,38751 179672,42537 C 177323,44668 174268,45848 171099,45848 C 167929,45848 164874,44668 162526,42537 C 158130,38713 152490,36627 146670,36666 C 140818,36634 135152,38713 130717,42537 C 128414,44706 125360,45893 122189,45836 C 119032,45874 115978,44693 113668,42537 C 109606,39123 104569,37102 99275,36762 L 99275 12282 L 268865 12282 L 268865 45836 Z" fill="#2C5967" transform="translate(9169,249429)"/>
  <path d="M 360504 96253 C 300674,96253 281147,29152 281147,6051 L 281147 0 L 268865 0 L 268865 6051 C 268237,24474 262905,42428 253369,58207 C 246368,69970 236294,79601 224230,86056 C 212160,92518 198563,95566 184895,94879 C 171285,95669 157713,92871 145527,86756 C 133348,80641 122992,71426 115503,60042 C 105358,43891 99750,25302 99275,6231 L 99275 180 L 87083 180 L 87083 6231 C 87083,29332 67556,96432 7604,96432 L 0 96432 L 0 108625 L 366665 108625 L 366665 96253 L 360504 96253 Z M 87083 96253 L 51149 96253 C 62616,88745 72337,78870 79659,67287 C 82360,62924 84837,58426 87083,53812 L 87083 96253 Z M 99275 96253 L 99275 56103 C 101110,59587 103035,63161 105236,66549 C 113296,79030 124397,89252 137500,96253 L 99275 96253 Z M 268865 96253 L 230730 96253 C 244321,88809 255730,77933 263822,64720 C 265657,61602 267396,58483 268865,55551 L 268865 96253 Z M 281147 96253 L 281147 53812 C 283316,58464 285800,62962 288572,67287 C 295855,78863 305551,88745 316992,96253 L 281147 96253 Z" fill="#2C5967" transform="translate(9169,128792)"/>
  <path d="M 342217 13 C 336397,-6 330775,2041 326341,5788 C 324012,7957 320951,9163 317768,9163 C 314585,9163 311525,7957 309196,5788 C 304761,2041 299140,-6 293339,13 C 287507,0 281860,2041 277387,5788 C 275090,7970 272036,9189 268865,9189 C 265689,9189 262635,7970 260338,5788 C 255878,2047 250250,0 244430,0 C 238617,0 232983,2047 228530,5788 C 226245,8002 223184,9221 220001,9176 C 216800,9227 213700,8008 211383,5788 C 206943,2053 201328,13 195528,13 C 189726,13 184112,2053 179672,5788 C 177342,7957 174281,9163 171099,9163 C 167916,9163 164855,7957 162526,5788 C 158092,2041 152471,-6 146670,13 C 140837,0 135190,2041 130717,5788 C 129594,6892 128260,7758 126797,8342 C 125334,8926 123768,9208 122189,9176 C 119013,9221 115946,8002 113668,5788 C 109208,2047 103580,0 97760,0 C 91947,0 86313,2047 81859,5788 C 79575,8002 76515,9221 73332,9176 C 71759,9208 70194,8926 68731,8342 C 67261,7758 65933,6892 64810,5788 C 60337,2041 54691,0 48858,13 C 43050,-6 37429,2041 32995,5788 C 30672,7957 27612,9163 24429,9163 C 21246,9163 18179,7957 15856,5788 C 11435,2021 5807,-32 0,13 L 0 12205 C 3176,12160 6243,13379 8522,15593 C 12968,19379 18634,21432 24474,21368 C 30281,21420 35915,19366 40330,15593 C 42614,13379 45681,12160 48858,12205 C 52066,12153 55159,13373 57475,15593 C 61916,19328 67531,21368 73332,21368 C 79132,21368 84747,19328 89194,15593 C 91517,13424 94578,12218 97760,12218 C 100943,12218 104010,13424 106333,15593 C 110774,19328 116389,21368 122189,21368 C 127990,21368 133611,19328 138052,15593 C 140368,13373 143461,12153 146670,12205 C 149846,12160 152913,13379 155191,15593 C 159600,19385 165240,21432 171054,21368 C 176893,21432 182559,19379 186999,15593 C 189303,13411 192358,12192 195528,12192 C 198704,12192 201752,13411 204056,15593 C 208496,19379 214162,21432 220001,21368 C 225815,21432 231456,19385 235864,15593 C 238186,13424 241254,12218 244430,12218 C 247613,12218 250680,13424 253003,15593 C 257444,19328 263065,21368 268865,21368 C 274666,21368 280281,19328 284722,15593 C 287038,13373 290131,12153 293339,12205 C 296516,12160 299583,13379 301861,15593 C 306321,19334 311955,21381 317768,21381 C 323588,21381 329216,19334 333676,15593 C 335954,13379 339021,12160 342217,12205 C 345425,12153 348505,13373 350815,15593 C 355243,19398 360889,21452 366665,21368 L 366665 9176 C 363521,9221 360440,8002 358130,5788 C 353703,2041 348056,0 342217,13 Z" fill="#2C5967" transform="translate(9169,310563)"/>
  <path d="M 6417 35658 L 276 39232 L 5865 51796 L 12648 49596 C 13758,50873 14983,52034 16318,53080 L 14483 59952 L 27317 64900 L 30615 58579 L 32450 58579 C 33489,58669 34529,58669 35569,58579 L 39143 64720 L 51701 59125 L 49590 52342 C 50866,51271 52034,50070 53074,48768 L 59856 50513 L 64810 37679 L 58483 34375 C 58669,32700 58669,31012 58483,29338 L 64624 25757 L 58945 13109 L 52156 15310 C 51072,14014 49846,12840 48492,11826 L 50327 4954 L 37860 0 L 34561 6327 L 32816 6327 C 31751,6230 30673,6230 29607,6327 L 26033 186 L 13110 5961 L 15215 12744 C 13950,13796 12808,14996 11826,16318 L 4947 14579 L 0 27413 L 6327 30621 C 6173,32296 6205,33990 6417,35658 Z M 26765 19712 C 28555,18910 30493,18506 32450,18519 C 35626,18570 38687,19706 41132,21734 C 43571,23768 45252,26565 45881,29684 C 46509,32796 46060,36031 44603,38847 C 43141,41671 40766,43910 37860,45194 C 34491,46676 30673,46766 27233,45444 C 23800,44122 21028,41498 19527,38135 C 18769,36454 18359,34638 18314,32790 C 18269,30948 18596,29113 19270,27400 C 19944,25680 20951,24114 22241,22799 C 23531,21477 25071,20425 26765,19712 Z" fill="#2C5967" transform="translate(117980,11454)"/>
  <path d="M 0 31167 C -19,37359 1803,43416 5230,48569 C 8656,53722 13540,57745 19257,60119 C 24968,62500 31263,63122 37333,61922 C 43410,60716 48986,57739 53362,53362 C 57739,48986 60716,43410 61922,37333 C 63122,31263 62500,24968 60120,19257 C 57745,13540 53722,8656 48569,5230 C 43416,1803 37359,-19 31167,0 C 22908,26 14996,3317 9157,9157 C 3317,14996 26,22908 0,31167 Z M 31167 12192 C 34946,12173 38649,13276 41793,15368 C 44944,17454 47401,20431 48858,23922 C 50315,27406 50700,31250 49962,34959 C 49230,38661 47414,42069 44745,44745 C 42069,47414 38661,49230 34959,49962 C 31250,50700 27406,50315 23922,48858 C 20432,47401 17454,44944 15369,41793 C 13276,38649 12173,34946 12192,31167 C 12192,26136 14194,21310 17749,17749 C 21310,14194 26136,12192 31167,12192 Z" fill="#2C5967" transform="translate(163995,110550)"/>
  <path d="M 43910 15766 L 43269 15766 L 31167 6231 L 5679 31808 L 15400 43911 L 15400 44552 L 0 46291 L 0 81308 L 15400 83053 L 15400 83605 L 5679 95977 L 30801 121002 L 42897 111287 L 43538 111287 L 45283 126778 L 80756 126778 L 82411 111287 L 83053 111287 L 95245 121002 L 120637 95977 L 110915 83785 L 110915 83233 L 126411 81494 L 126411 45836 L 110915 44090 L 110915 43448 L 120637 31808 L 95611 6327 L 83419 15490 L 82777 15490 L 81128 0 L 45649 0 L 43910 15766 Z M 55185 24936 L 56558 12558 L 69847 12558 L 71227 24936 L 74981 26123 C 77149,26752 79242,27612 81218,28690 L 84702 30525 L 94693 22645 L 103857 32270 L 96156 41434 L 97992 45008 C 99031,46978 99891,49031 100558,51149 L 101752 54909 L 114034 56282 L 114034 69944 L 101752 71227 L 100558 75077 C 99878,77195 99018,79248 97992,81218 L 96156 84702 L 103857 94417 L 94693 104043 L 84978 96253 L 81494 98088 C 79498,99134 77413,99994 75257,100655 L 71503 101842 L 69847 114310 L 56558 114310 L 55185 101938 L 51514 101110 C 49397,100443 47337,99583 45373,98543 L 41799 96708 L 32174 104505 L 22549 94879 L 30249 85158 L 28414 81680 C 27425,79691 26572,77637 25847,75533 L 24660 71683 L 12372 70399 L 12372 56744 L 24660 55371 L 25847 51611 C 26553,49506 27413,47453 28414,45470 L 30249 41896 L 22549 32726 L 32084 22645 L 41709 30435 L 45283 28600 C 47228,27522 49288,26662 51424,26033 L 55185 24936 Z" fill="#2C5967" transform="translate(131821,78189)"/>
</svg>