<svg xmlns="http://www.w3.org/2000/svg" viewBox="0 0 385010 339178" width="40" height="36">
  <path d="M 371278 212398 C 364605,212385 358060,210017 352926,205705 C 350360,203780 349654,203235 347088,203235 C 344521,203235 343879,203780 341312,205705 C 336050,210036 329441,212404 322639,212404 C 315838,212404 309228,210036 304030,205705 C 301463,203780 300822,203235 298255,203235 C 295689,203235 294919,203780 292352,205705 C 287154,210030 280545,212391 273743,212391 C 266941,212391 260396,210030 255134,205705 C 252567,203780 251861,203235 249295,203235 C 246728,203235 246087,203780 243520,205705 C 238257,210030 231712,212391 224911,212391 C 218108,212391 211500,210030 206302,205705 C 203606,203780 202965,203235 200398,203235 C 197832,203235 197189,203780 194623,205705 C 189361,210036 182816,212404 176014,212404 C 169148,212404 162603,210036 157341,205705 C 154774,203780 154133,203235 151566,203235 C 149000,203235 148230,203780 145663,205705 C 140465,210030 133855,212391 127054,212391 C 120316,212391 113707,210030 108445,205705 C 105878,203780 105172,203235 102605,203235 C 100039,203235 99397,203780 96831,205705 C 91568,210030 85023,212391 78222,212391 C 71419,212391 64874,210030 59613,205705 C 57046,203780 56340,203235 53773,203235 C 51206,203235 50565,203780 47998,205705 C 42865,210017 36320,212385 29646,212398 C 22909,212379 16427,210011 11294,205705 C 8727,203780 8085,203235 5518,203235 L 0 203235 L 0 157399 L 4621 157399 C 11294,157392 17839,159767 22973,164092 C 25539,166017 26245,166562 28812,166562 C 31378,166562 32020,166017 34587,164092 C 39849,159767 46394,157405 53196,157405 C 59998,157405 66543,159767 71805,164092 C 74436,166017 75078,166562 77644,166562 C 80211,166562 80853,166017 83419,164092 L 86820 161705 L 86820 142088 L 0 142088 L 0 96253 L 12192 96253 C 68789,96253 87141,32636 87141,10729 L 87141 0 L 108445 0 L 108445 10729 C 108830,28882 114092,46593 123781,61968 C 130840,72710 140657,81398 152144,87154 C 163694,92916 176463,95547 189297,94790 C 202131,95367 214836,92492 226129,86454 C 237423,80422 246857,71458 253465,60505 C 262513,45418 267583,28298 268224,10729 L 268224 0 L 289721 0 L 289721 10729 C 289721,32636 308008,96253 364477,96253 L 375899 96253 L 375899 142088 L 290362 142088 L 290362 158317 C 292801,157681 295367,157367 297934,157399 C 304672,157412 311153,159780 316286,164092 C 318853,166017 319559,166562 322062,166562 C 324564,166562 325334,166017 327901,164092 C 333163,159767 339772,157405 346509,157405 C 353312,157405 359921,159767 365118,164092 C 367814,166017 368455,166562 371022,166562 L 375578 166562 L 375578 212398 L 371278 212398 Z" fill="#FFFFFF" transform="translate(4556,121830)"/>
  <path d="M 290298 9350 L 290298 15490 C 290298,38591 309870,105602 369674,105602 L 375834 105602 L 375834 142274 L 290298 142274 L 290298 169771 C 294019,167756 298255,166832 302490,167114 C 308330,167050 313976,169103 318339,172889 C 320714,175058 323729,176271 326938,176271 C 330146,176271 333163,175058 335537,172889 C 339900,169103 345547,167050 351386,167114 C 357226,167050 362873,169103 367300,172889 C 369610,175103 372690,176322 375834,176283 L 375834 212950 C 370060,212988 364413,210941 359985,207174 C 357675,204954 354595,203735 351386,203780 C 348178,203741 345098,204961 342852,207174 C 338360,210909 332777,212962 326938,212962 C 321099,212962 315516,210909 311024,207174 C 308778,204961 305698,203741 302490,203780 C 299282,203735 296202,204954 293892,207174 C 289464,210902 283817,212950 278042,212950 C 272203,212950 266620,210902 262192,207174 C 259818,204999 256802,203793 253594,203793 C 250450,203793 247370,204999 245059,207174 C 240567,210915 234985,212962 229145,212950 C 223371,212962 217724,210915 213232,207174 C 210922,204986 207842,203767 204697,203767 C 201553,203767 198473,204986 196163,207174 C 191671,210915 186024,212962 180249,212950 C 174410,212962 168827,210915 164335,207174 C 162090,204961 159010,203741 155865,203780 C 152657,203735 149513,204954 147202,207174 C 142775,210902 137192,212950 131353,212950 C 125577,212950 119930,210902 115503,207174 C 113193,204999 110113,203793 106905,203793 C 103761,203793 100680,204999 98370,207174 C 93943,210902 88296,212950 82520,212950 C 76681,212950 71098,210902 66671,207174 C 64361,204954 61217,203735 58009,203780 C 54864,203741 51784,204961 49474,207174 C 45046,210909 39400,212962 33624,212962 C 27785,212962 22138,210909 17711,207174 C 15401,204961 12321,203741 9176,203780 L 9176 167114 C 14951,167031 20598,169084 25026,172889 C 27336,175058 30416,176271 33624,176271 C 36768,176271 39848,175058 42158,172889 C 46586,169103 52233,167050 58009,167114 C 63847,167050 69558,169103 73986,172889 C 75077,173993 76425,174866 77901,175443 C 79376,176027 80916,176309 82520,176283 C 85665,176322 88745,175103 91055,172889 C 92723,171644 94456,170515 96253,169494 L 96253 142274 L 9176 142274 L 9176 105602 L 16748 105602 C 76745,105602 96253,38591 96253,15490 L 96253 9350 L 108445 9350 L 108445 15490 C 108894,34536 114540,53100 124680,69212 C 132123,80628 142518,89868 154646,96002 C 166838,102137 180442,104941 194045,104139 C 207713,104832 221317,101784 233381,95322 C 245444,88861 255518,79229 262513,67467 C 272074,51694 277400,33733 278042,15310 L 278042 9170 L 290298 9170 M 299474 0 L 268866 0 L 268866 15310 C 268160,32007 263347,48274 254748,62609 C 248588,73037 239605,81552 228953,87231 C 218237,92903 206173,95521 194045,94790 C 181982,95624 169918,93224 159010,87821 C 148165,82425 138989,74230 132379,64079 C 123139,49461 118006,32604 117620,15310 L 117620 186 L 87076 186 L 87076 15490 C 87076,36210 69751,96439 16748,96439 L 0 96439 L 0 151438 L 87076 151438 L 87076 164092 L 85536 165189 C 83483,167114 83483,167114 82520,167114 C 81494,167114 81494,167114 79505,165554 C 73408,160633 65901,157951 58073,157951 C 50244,157951 42736,160633 36640,165554 C 34651,167114 34651,167114 33624,167114 C 32662,167114 32662,167114 30544,165554 C 24512,160569 16941,157874 9176,157944 L 0 157944 L 0 212950 L 9176 212950 C 10203,212950 10203,212950 12192,214412 C 18159,219475 25796,222209 33624,222113 C 41453,222074 49025,219244 54992,214143 C 57046,212584 57046,212584 58009,212584 C 59035,212584 59035,212584 61024,214047 C 67056,219001 74628,221708 82456,221708 C 90285,221708 97857,219001 103888,214047 C 105878,212487 105878,212487 106905,212487 C 107867,212487 107995,212487 109985,214047 C 116016,218962 123588,221644 131353,221644 C 139117,221644 146689,218962 152721,214047 C 154838,212487 154838,212487 155865,212487 C 156827,212487 156827,212487 158881,214047 C 164913,218968 172485,221657 180249,221657 C 188078,221657 195649,218968 201682,214047 C 203671,212487 203671,212487 204697,212487 C 205724,212487 205724,212487 207713,214047 C 213745,218968 221317,221657 229145,221657 C 236910,221657 244482,218968 250514,214047 C 252567,212487 252567,212487 253530,212487 C 254556,212487 254556,212487 256674,214047 C 262705,218962 270277,221644 278042,221644 C 285806,221644 293378,218962 299410,214047 C 301527,212487 301527,212487 302490,212487 C 303517,212487 303517,212487 305506,214047 C 311602,218968 319109,221657 326938,221657 C 334767,221657 342274,218968 348371,214047 C 350359,212487 350359,212487 351386,212487 C 352349,212487 352349,212487 354466,214047 C 360434,219200 368006,222061 375834,222113 L 385011 222113 L 385011 167114 L 375834 167114 C 374808,167114 374808,167114 372818,165554 C 366787,160633 359215,157951 351386,157951 C 343622,157951 336050,160633 330019,165554 C 327965,167114 327965,167114 326874,167114 C 325783,167114 325912,167114 323858,165554 C 317891,160582 310318,157887 302490,157944 L 299474 157944 L 299474 151713 L 385011 151713 L 385011 96715 L 369674 96715 C 316735,96715 299474,36486 299474,15766 L 299474 186 L 299474 0 Z" fill="#FFFFFF" transform="translate(0,117063)"/>
  <path d="M 130647 150065 C 123140,150065 116016,147087 110691,141793 C 105429,136499 102413,129319 102413,121830 C 102413,111191 115246,79479 120765,66825 L 123524 60132 L 99590 60132 C 97600,63751 94713,66774 91183,68878 C 87654,70983 83612,72100 79505,72100 C 75398,72100 71355,70983 67826,68878 C 64297,66774 61410,63751 59420,60132 L 35421 60132 L 38181 66825 C 43763,79935 56469,111653 56469,121830 C 56469,129319 53516,136499 48255,141793 C 42929,147087 35742,150065 28234,150065 C 20791,150065 13604,147087 8278,141793 C 3016,136499 0,129319 0,121830 C 0,111191 12834,79479 18352,66825 L 21304 59587 L 15336 59587 C 13861,59722 12385,59548 10909,59074 C 9497,58599 8214,57835 7123,56834 C 6032,55827 5134,54601 4556,53234 C 3914,51874 3594,50398 3594,48903 C 3594,47414 3914,45938 4556,44572 C 5134,43205 6032,41986 7123,40978 C 8214,39971 9497,39207 10909,38732 C 12385,38264 13861,38091 15336,38225 L 59163 38225 C 61153,34118 64361,30705 68340,28414 L 68340 0 L 89772 0 L 89772 28510 C 93750,30801 96894,34215 98948,38315 L 143673 38315 C 145213,38116 146753,38245 148165,38687 C 149641,39130 150988,39881 152143,40888 C 153298,41896 154197,43134 154838,44527 C 155480,45913 155801,47427 155801,48948 C 155801,50475 155480,51990 154838,53376 C 154197,54768 153298,56006 152143,57014 C 150988,58021 149641,58772 148165,59215 C 146753,59657 145213,59786 143673,59587 L 137705 59587 L 140529 66273 C 146047,79383 158881,111101 158881,121278 C 158945,125032 158304,128761 156892,132251 C 155544,135742 153427,138919 150796,141601 C 148165,144276 145020,146407 141620,147863 C 138155,149314 134433,150065 130647,150065 Z" fill="#FFFFFF" transform="translate(113000,4588)"/>
  <path d="M 89579 9170 L 89579 36120 C 92146,37051 94520,38559 96445,40522 C 98370,42492 99846,44873 100744,47484 L 147587 47484 C 148422,47382 149320,47459 150154,47715 C 150988,47979 151758,48409 152400,48986 C 153042,49557 153555,50269 153940,51059 C 154261,51854 154453,52714 154453,53580 C 154453,54453 154261,55313 153940,56109 C 153555,56898 153042,57610 152400,58182 C 151758,58759 150988,59189 150154,59452 C 149320,59709 148422,59786 147587,59677 L 134754 59677 L 140272 72696 C 143288,79845 158560,116055 158560,126412 C 158560,132687 156121,138700 151630,143141 C 147202,147574 141235,150064 134946,150064 C 128658,150064 122626,147574 118199,143141 C 113770,138700 111268,132687 111268,126412 C 111268,116055 126347,79845 129620,72696 L 135139 59677 L 101194 59677 C 99910,63161 97536,66151 94456,68269 C 91440,70380 87783,71509 84060,71509 C 80339,71509 76681,70380 73665,68269 C 70585,66151 68211,63161 66928,59677 L 32983 59677 L 37603 72696 C 40618,79845 55890,116055 55890,126412 C 55890,132687 53452,138700 48961,143141 C 44533,147574 38565,150064 32277,150064 C 25989,150064 19956,147574 15529,143141 C 11101,138700 8598,132687 8598,126412 C 8598,116055 23550,79845 26950,72696 L 32470 59677 L 19251 59677 C 18416,59786 17518,59709 16684,59452 C 15849,59189 15079,58759 14438,58182 C 13796,57610 13283,56898 12898,56109 C 12513,55313 12385,54453 12385,53580 C 12385,52714 12513,51854 12898,51059 C 13283,50269 13796,49557 14438,48986 C 15079,48409 15849,47979 16684,47715 C 17518,47459 18416,47382 19251,47484 L 66094 47484 C 66991,44873 68468,42492 70393,40522 C 72318,38559 74692,37051 77259,36120 L 77259 9170 L 89579 9170 Z M 98755 0 L 68083 0 L 68083 30531 C 65067,32598 62436,35248 60383,38321 L 19251 38321 C 15401,38482 11743,40099 8984,42852 C 6288,45604 4684,49288 4556,53157 C 4491,57026 5840,60793 8342,63706 C 10908,66620 14502,68455 18352,68846 C 11358,85440 0,114682 0,126046 C 0,134754 3465,143102 9625,149256 C 15785,155409 24127,158868 32790,158868 C 41517,158868 49859,155409 56019,149256 C 62179,143102 65644,134754 65644,126046 C 65644,114958 53902,85440 46843,68846 L 61409 68846 C 63976,72517 67313,75513 71291,77586 C 75205,79659 79633,80737 84060,80737 C 88489,80737 92916,79659 96830,77586 C 100808,75513 104145,72517 106712,68846 L 121278 68846 C 114220,85440 102477,114682 102477,126046 C 102477,134754 105942,143102 112102,149256 C 118263,155409 126604,158868 135331,158868 C 143994,158868 152336,155409 158496,149256 C 164656,143102 168121,134754 168121,126046 C 168121,114958 156378,85440 149769,68846 C 153747,68448 157405,66517 159972,63469 C 162538,60421 163822,56487 163501,52516 C 163244,48543 161384,44834 158431,42184 C 155480,39534 151566,38148 147587,38321 L 106455 38321 C 104402,35248 101771,32598 98755,30531 L 98755 0 Z" fill="#FFFFFF" transform="translate(109086,0)"/>
  <path d="M 0 11826 L 87076 11826 L 87076 38680 C 85215,39662 83482,40798 81878,42075 C 80724,43237 79441,44167 77964,44815 C 76488,45457 74948,45803 73344,45835 C 71740,45861 70200,45579 68724,44995 C 67248,44417 65900,43544 64810,42441 C 60382,38655 54671,36602 48832,36666 C 43057,36602 37410,38655 32982,42441 C 30672,44616 27592,45823 24448,45823 C 21239,45823 18159,44616 15849,42441 C 11421,38642 5775,36582 0,36666 L 0 48858 C 3144,48813 6224,50038 8534,52252 C 12961,56038 18608,58085 24448,58027 C 30287,58072 35934,56025 40297,52252 C 42607,50038 45688,48813 48832,48858 C 52040,48813 55185,50032 57495,52252 C 61922,55981 67505,58027 73344,58027 C 79119,58027 84766,55981 89193,52252 C 91503,50077 94584,48870 97728,48870 C 100937,48870 104017,50077 106327,52252 C 110754,55981 116401,58027 122176,58027 C 128016,58027 133598,55981 138026,52252 C 140336,50032 143481,48813 146689,48858 C 149833,48813 152913,50038 155159,52252 C 159587,56038 165234,58092 171072,58027 C 176912,58085 182559,56038 186986,52252 C 189297,50064 192377,48845 195521,48845 C 198665,48845 201745,50064 204055,52252 C 208483,56038 214130,58085 219969,58027 C 225808,58092 231455,56038 235882,52252 C 238193,50077 241273,48870 244417,48870 C 247626,48870 250641,50077 253016,52252 C 257444,55981 263026,58027 268865,58027 C 274640,58027 280287,55981 284715,52252 C 287025,50032 290105,48813 293314,48858 C 296522,48813 299602,50038 301848,52252 C 306340,55987 311923,58034 317761,58034 C 323601,58034 329184,55987 333676,52252 C 335922,50038 339002,48813 342210,48858 C 345418,48813 348498,50032 350808,52252 C 355236,56051 360883,58104 366658,58027 L 366658 45835 C 363513,45874 360434,44655 358124,42441 C 353696,38655 348049,36602 342210,36666 C 336370,36602 330724,38655 326361,42441 C 323986,44616 320970,45823 317761,45823 C 314553,45823 311537,44616 309163,42441 C 304800,38655 299153,36602 293314,36666 C 289014,36576 284779,37724 281121,39964 L 281121 12468 L 366658 12468 L 366658 0 L 0 0 L 0 11826 Z M 99268 11826 L 268865 11826 L 268865 45835 C 265657,45874 262641,44655 260331,42441 C 255904,38706 250257,36653 244417,36653 C 238578,36653 232995,38706 228504,42441 C 226257,44655 223177,45874 219969,45835 C 216760,45880 213680,44661 211370,42441 C 206943,38713 201296,36666 195521,36666 C 189746,36666 184099,38713 179672,42441 C 177361,44616 174281,45823 171072,45823 C 167928,45823 164848,44616 162538,42441 C 158110,38655 152463,36602 146689,36666 C 140849,36602 135138,38655 130711,42441 C 129556,43544 128273,44417 126796,44995 C 125320,45579 123780,45861 122176,45835 C 119032,45874 115952,44655 113642,42441 C 109599,38989 104594,36961 99268,36666 L 99268 11826 Z" fill="#2C5967" transform="translate(9176,247511)"/>
  <path d="M 360498 96253 C 300693,96253 281121,29242 281121,6141 L 281121 0 L 268865 0 L 268865 6141 C 268224,24564 262898,42525 253337,58297 C 246342,70059 236268,79691 224204,86153 C 212140,92614 198537,95662 184869,94969 C 171265,95771 157661,92967 145469,86833 C 133341,80698 122946,71458 115503,60042 C 105364,43923 99717,25366 99268,6320 L 99268 180 L 87076 180 L 87076 6320 C 87076,29421 67569,96432 7571,96432 L 0 96432 L 0 108721 L 366658 108721 L 366658 96253 L 360498 96253 Z M 87076 96253 L 51142 96253 C 62628,88770 72381,78889 79632,67280 C 82392,62930 84830,58432 87076,53805 L 87076 96253 Z M 99268 96253 L 99268 56102 C 101065,59683 103054,63167 105236,66549 C 113257,79030 124422,89246 137512,96253 L 99268 96253 Z M 268865 96253 L 230749 96253 C 244353,88861 255775,77977 263796,64714 C 265657,61749 267325,58688 268865,55550 L 268865 96253 Z M 281121 96253 L 281121 53805 C 283303,58470 285741,62975 288565,67280 C 295816,78882 305506,88770 316991,96253 L 281121 96253 Z" fill="#2C5967" transform="translate(9176,126419)"/>
  <path d="M 342210 13 C 336370,-51 330724,2002 326361,5788 C 323986,7957 320970,9163 317761,9163 C 314553,9163 311537,7957 309163,5788 C 304800,2002 299153,-51 293314,13 C 287474,-51 281827,2002 277400,5788 C 275090,7970 272009,9189 268865,9189 C 265657,9189 262641,7970 260331,5788 C 255904,2047 250257,0 244417,0 C 238578,0 232995,2047 228504,5788 C 226257,8002 223177,9221 219969,9176 C 216760,9227 213680,8008 211370,5788 C 206943,2053 201296,13 195521,13 C 189746,13 184099,2053 179672,5788 C 177361,7957 174281,9163 171072,9163 C 167928,9163 164848,7957 162538,5788 C 158110,2002 152463,-51 146689,13 C 140849,-51 135138,2002 130711,5788 C 129556,6892 128273,7758 126796,8342 C 125320,8926 123780,9208 122176,9176 C 119032,9221 115952,8002 113642,5788 C 109214,2047 103567,0 97728,0 C 91953,0 86306,2047 81878,5788 C 79568,8002 76488,9221 73344,9176 C 71740,9208 70200,8926 68724,8342 C 67248,7758 65900,6892 64810,5788 C 60382,2002 54671,-51 48832,13 C 43057,-51 37410,2002 32982,5788 C 30672,7957 27592,9163 24448,9163 C 21239,9163 18159,7957 15849,5788 C 11421,1983 5775,-70 0,13 L 0 12570 C 3144,12526 6224,13745 8534,15959 C 12961,19700 18608,21747 24448,21747 C 30223,21747 35870,19700 40297,15959 C 42607,13745 45688,12526 48832,12570 C 52040,12526 55185,13745 57495,15959 C 61922,19693 67505,21740 73344,21740 C 79119,21740 84766,19693 89193,15959 C 91503,13790 94584,12583 97728,12583 C 100937,12583 104017,13790 106327,15959 C 110754,19693 116401,21740 122176,21740 C 128016,21740 133598,19693 138026,15959 C 140336,13745 143481,12526 146689,12570 C 149833,12526 152913,13745 155159,15959 C 159651,19706 165234,21753 171072,21734 C 176848,21753 182495,19706 186986,15959 C 189297,13777 192377,12558 195521,12558 C 198665,12558 201745,13777 204055,15959 C 208547,19706 214194,21753 219969,21734 C 225808,21753 231391,19706 235882,15959 C 238193,13790 241273,12583 244417,12583 C 247626,12583 250641,13790 253016,15959 C 257444,19693 263026,21740 268865,21740 C 274640,21740 280287,19693 284715,15959 C 287025,13745 290105,12526 293314,12570 C 296522,12526 299602,13745 301848,15959 C 306340,19700 311923,21747 317761,21747 C 323601,21747 329184,19700 333676,15959 C 335922,13745 339002,12526 342210,12570 C 345418,12526 348498,13745 350808,15959 C 355236,19725 360883,21779 366658,21734 L 366658 9176 C 363513,9221 360434,8002 358124,5788 C 353696,2002 348049,-51 342210,13 Z" fill="#2C5967" transform="translate(9176,308278)"/>
  <path d="M 0 117248 C 0,123518 2503,129536 6931,133971 C 11358,138405 17390,140894 23679,140894 C 29967,140894 35934,138405 40362,133971 C 44854,129536 47292,123518 47292,117248 C 47292,106885 32277,70675 29004,63527 L 23486 50513 L 57431 50513 C 58714,53991 61088,56982 64104,59099 C 67185,61210 70842,62339 74564,62339 C 78286,62339 81879,61210 84959,59099 C 88040,56982 90350,53991 91697,50513 L 125578 50513 L 120637 63527 C 117621,70675 102349,106885 102349,117248 C 102349,123518 104788,129536 109279,133971 C 113707,138405 119674,140894 125963,140894 C 132251,140894 138283,138405 142711,133971 C 147139,129536 149641,123518 149641,117248 C 149641,106885 134689,70675 131289,63527 L 125770 50513 L 138989 50513 C 139823,50616 140722,50539 141556,50282 C 142390,50025 143160,49589 143802,49018 C 144443,48440 144957,47728 145342,46939 C 145727,46143 145855,45283 145855,44417 C 145855,43544 145727,42685 145342,41896 C 144957,41100 144443,40394 143802,39816 C 143160,39239 142390,38809 141556,38552 C 140722,38289 139823,38212 138989,38321 L 92146 38321 C 91248,35703 89772,33323 87847,31359 C 85922,29389 83547,27881 80981,26950 L 80981 0 L 68661 0 L 68661 26950 C 66094,27881 63720,29389 61794,31359 C 59870,33323 58393,35703 57495,38321 L 10652 38321 C 9818,38212 8920,38289 8085,38552 C 7251,38809 6481,39239 5840,39816 C 5198,40394 4684,41100 4300,41896 C 3978,42685 3787,43544 3787,44417 C 3787,45283 3978,46143 4300,46939 C 4684,47728 5198,48440 5840,49018 C 6481,49589 7251,50025 8085,50282 C 8920,50539 9818,50616 10652,50513 L 23486 50513 L 17967 63527 C 14952,70675 0,106885 0,117248 Z M 137513 117248 L 114605 117248 C 117236,105319 121022,93679 125963,82501 C 130904,93686 134754,105319 137449,117248 L 137513 117248 Z M 74821 38045 C 76039,38045 77195,38405 78222,39078 C 79248,39752 80019,40715 80467,41838 C 80981,42960 81109,44193 80852,45386 C 80596,46573 80019,47670 79184,48531 C 78286,49390 77195,49974 76039,50211 C 74821,50449 73602,50327 72446,49859 C 71355,49397 70393,48607 69687,47600 C 69045,46586 68661,45399 68661,44186 C 68661,42556 69302,40997 70457,39842 C 71612,38693 73216,38045 74821,38045 Z M 23679 82501 C 28620,93795 32405,105557 35036,117614 L 12192 117614 C 14888,105563 18673,93801 23679,82501 Z" fill="#2C5967" transform="translate(117684,9170)"/>
</svg>