<svg xmlns="http://www.w3.org/2000/svg" viewBox="0 0 385010 221573" width="40" height="23">
  <path d="M 371259 212397 C 364554,212384 358066,210016 352926,205704 C 352188,204890 351277,204248 350263,203824 C 349256,203394 348159,203195 347061,203228 C 344495,203228 343853,203228 341286,205615 C 336185,209991 329678,212397 322953,212397 C 316248,212378 309760,210010 304620,205704 C 302054,203690 301412,203228 298845,203228 C 297754,203195 296670,203388 295656,203799 C 294649,204209 293731,204825 292974,205615 C 287872,209991 281366,212397 274641,212397 C 267935,212384 261448,210016 256308,205704 C 255570,204890 254659,204248 253645,203824 C 252631,203394 251540,203195 250443,203228 C 247876,203228 247234,203228 244668,205615 C 239560,209991 233060,212397 226335,212397 C 219623,212397 213129,210029 208002,205704 C 205339,203690 204697,203228 202131,203228 C 199564,203228 198922,203228 196355,205615 C 191254,209991 184747,212397 178022,212397 C 171317,212384 164829,210016 159690,205704 C 157123,203690 156481,203228 153914,203228 C 152836,203189 151765,203381 150770,203792 C 149769,204203 148877,204825 148139,205615 C 142903,209972 136300,212365 129485,212365 C 122671,212365 116068,209972 110832,205615 C 110087,204800 109183,204158 108169,203735 C 107155,203305 106064,203099 104960,203138 C 103889,203112 102817,203305 101822,203715 C 100828,204126 99929,204742 99185,205518 C 94084,209901 87577,212308 80852,212308 C 74121,212365 67595,209953 62519,205518 C 61762,204735 60851,204120 59837,203709 C 58830,203298 57745,203099 56654,203138 C 54088,203138 53446,203138 50879,205518 C 45771,209901 39271,212308 32546,212308 C 25841,212282 19353,209921 14213,205615 C 11647,203593 11005,203138 8438,203138 L 0 203138 L 0 157302 L 4588 157302 C 11294,157315 17781,159683 22921,163995 C 25488,165920 26219,166472 28786,166472 C 31353,166472 31994,165920 34561,163995 C 39675,159651 46182,157276 52894,157302 C 59606,157302 66100,159670 71227,163995 C 73890,165920 74532,166472 77098,166472 C 79665,166472 80307,165920 82873,163995 L 86262 161614 L 86262 142088 L 0 142088 L 0 96253 L 12192 96253 C 68756,96253 87089,32636 87089,10722 L 87089 0 L 108445 0 L 108445 10722 C 108804,28876 114098,46593 123755,61967 C 130852,72690 140644,81359 152150,87102 C 163649,92845 176463,95463 189297,94693 C 202079,95290 214791,92434 226085,86415 C 237372,80397 246837,71445 253465,60498 C 262500,45418 267582,28292 268224,10722 L 268224 0 L 289675 0 L 289675 10722 C 289675,32636 308008,96253 364477,96253 L 375847 96253 L 375847 142088 L 290317 142088 L 290317 158310 C 292800,157674 295361,157367 297928,157392 C 304640,157367 311146,159741 316260,164085 C 318827,166010 319559,166562 322125,166562 C 324692,166562 325334,166010 327901,164085 C 333143,159766 339720,157399 346509,157399 C 353305,157399 359882,159766 365118,164085 C 367781,166010 368423,166562 370990,166562 L 375571 166562 L 375571 212397 L 371259 212397 Z" fill="#FFFFFF" transform="translate(4581,4588)"/>
  <path d="M 290317 9170 L 290317 15310 C 290317,38411 309844,105422 369700,105422 L 375841 105422 L 375841 142088 L 290317 142088 L 290317 169591 C 294013,167447 298242,166402 302509,166568 C 308323,166498 313957,168551 318365,172343 C 320695,174512 323755,175719 326938,175719 C 330121,175719 333182,174512 335511,172343 C 339919,168551 345553,166498 351367,166568 C 357206,166504 362872,168558 367319,172343 C 369597,174557 372665,175777 375841,175732 L 375841 212397 C 370014,212455 364374,210370 359985,206532 C 357662,204338 354563,203151 351367,203234 C 349801,203196 348242,203465 346779,204036 C 345316,204601 343975,205448 342845,206532 C 338411,210325 332771,212404 326938,212404 C 321105,212404 315465,210325 311031,206532 C 309901,205448 308560,204601 307097,204036 C 305634,203465 304075,203196 302509,203234 C 299314,203151 296214,204338 293891,206532 C 289470,210318 283849,212397 278035,212397 C 272215,212397 266594,210318 262173,206532 C 259831,204402 256770,203221 253600,203221 C 250430,203221 247376,204402 245034,206532 C 240638,210357 234998,212442 229171,212397 C 223319,212436 217653,210351 213225,206532 C 210890,204408 207854,203228 204697,203228 C 201540,203228 198505,204408 196169,206532 C 191742,210351 186076,212436 180223,212397 C 174397,212442 168757,210357 164361,206532 C 163232,205448 161891,204601 160428,204036 C 158964,203465 157405,203196 155839,203234 C 152644,203151 149544,204338 147222,206532 C 142800,210318 137179,212397 131359,212397 C 125546,212397 119924,210318 115503,206532 C 113155,204402 110100,203221 106930,203221 C 103760,203221 100706,204402 98364,206532 C 93943,210318 88321,212397 82501,212397 C 76688,212397 71060,210318 66645,206532 C 64322,204338 61223,203151 58028,203234 C 56455,203196 54896,203465 53433,204036 C 51970,204601 50635,205448 49500,206532 C 45065,210325 39432,212404 33599,212404 C 27766,212404 22125,210325 17691,206532 C 16555,205448 15221,204601 13758,204036 C 12295,203465 10735,203196 9170,203234 L 9170 166568 C 14983,166485 20624,168538 25026,172343 C 27349,174512 30416,175719 33599,175719 C 36781,175719 39842,174512 42165,172343 C 46580,168551 52214,166498 58028,166568 C 63867,166504 69533,168558 73980,172343 C 75103,173447 76431,174313 77900,174897 C 79363,175481 80929,175764 82501,175732 C 85684,175777 88745,174557 91029,172343 C 92672,171067 94417,169931 96253,168949 L 96253 142088 L 9170 142088 L 9170 105422 L 16774 105422 C 76726,105422 96253,38411 96253,15310 L 96253 9170 L 108445 9170 L 108445 15310 C 108907,34356 114515,52913 124673,69032 C 132161,80416 142518,89631 154697,95746 C 166883,101861 180454,104659 194065,103863 C 207732,104556 221330,101508 233400,95046 C 245464,88584 255538,78959 262539,67197 C 272068,51412 277400,33457 278035,15035 L 278035 9170 L 290317 9170 Z M 299480 0 L 268866 0 L 268866 15310 C 268192,32014 263334,48274 254749,62616 C 248563,73024 239624,81532 228921,87192 C 218211,92852 206154,95451 194065,94700 C 166010,94700 145848,84702 132373,63989 C 123114,49410 118012,32578 117614,15310 L 117614 0 L 87083 0 L 87083 15310 C 87083,36031 69758,96253 16774,96253 L 0 96253 L 0 151258 L 87083 151258 L 87083 163906 L 85530 165009 C 83509,166568 83509,166568 82501,166568 C 81494,166568 81494,166568 79479,165009 C 73447,160023 65850,157328 58028,157399 C 50231,157328 42659,160023 36666,165009 C 34651,166568 34651,166568 33643,166568 C 32636,166568 32636,166568 30525,165009 C 24532,160023 16966,157328 9170,157399 L 0 157399 L 0 212397 L 9170 212397 C 10177,212397 10177,212397 12192,213867 C 18185,218930 25802,221663 33643,221567 C 41453,221651 49037,218917 54999,213867 C 57020,212397 57020,212397 58028,212397 C 59035,212397 59035,212397 61050,213867 C 67050,218917 74660,221644 82501,221567 C 90317,221663 97908,218930 103863,213867 C 105878,212397 105878,212397 106885,212397 C 107893,212397 107989,212397 110004,213867 C 116010,218846 123563,221574 131359,221574 C 139162,221574 146715,218846 152721,213867 C 154832,212397 154832,212397 155839,212397 C 156847,212397 156847,212397 158862,213867 C 164887,218840 172459,221554 180268,221554 C 188078,221554 195643,218840 201675,213867 C 203690,212397 203690,212397 204697,212397 C 205705,212397 205705,212397 207720,213867 C 213751,218840 221317,221554 229126,221554 C 236935,221554 244507,218840 250533,213867 C 252548,212397 252548,212397 253555,212397 C 254563,212397 254563,212397 256674,213867 C 262680,218846 270233,221574 278035,221574 C 285832,221574 293384,218846 299391,213867 C 301502,212397 301502,212397 302509,212397 C 303517,212397 303517,212397 305532,213867 C 311557,218840 319129,221554 326938,221554 C 334747,221554 342319,218840 348345,213867 C 350360,212397 350360,212397 351367,212397 C 352374,212397 352374,212397 354486,213867 C 360440,218930 368025,221663 375841,221567 L 385011 221567 L 385011 166568 L 375841 166568 C 374833,166568 374833,166568 372819,165009 C 366767,160087 359208,157399 351412,157399 C 343615,157399 336056,160087 330012,165009 C 327990,166568 327990,166568 326983,166568 C 325976,166568 325886,166568 323864,165009 C 317871,160023 310306,157328 302509,157399 L 299480 157399 L 299480 151258 L 385011 151258 L 385011 96253 L 369700 96253 C 316716,96253 299480,36031 299480,15310 L 299480 0 Z" fill="#FFFFFF"/>
  <path d="M 0 12192 L 87083 12192 L 87083 39053 C 85248,40035 83502,41164 81860,42441 C 79575,44661 76514,45881 73332,45836 C 71760,45868 70194,45585 68731,45001 C 67261,44417 65933,43551 64810,42441 C 60363,38655 54697,36608 48858,36666 C 43044,36602 37410,38655 32995,42441 C 30672,44616 27612,45823 24429,45823 C 21246,45823 18179,44616 15856,42441 C 11454,38642 5814,36589 0,36666 L 0 48858 C 3176,48820 6244,50039 8522,52252 C 12981,55993 18609,58041 24429,58041 C 30243,58041 35877,55993 40330,52252 C 42614,50039 45675,48820 48858,48858 C 52066,48813 55159,50032 57476,52252 C 61916,55981 67531,58028 73332,58028 C 79133,58028 84747,55981 89194,52252 C 91517,50083 94578,48871 97761,48871 C 100943,48871 104011,50083 106333,52252 C 110774,55981 116389,58028 122189,58028 C 127990,58028 133612,55981 138052,52252 C 140368,50032 143461,48813 146670,48858 C 149846,48820 152913,50039 155191,52252 C 159625,56000 165247,58047 171054,58028 C 176880,58041 182533,55993 187000,52252 C 189303,50064 192351,48845 195528,48845 C 198704,48845 201752,50064 204056,52252 C 208522,55993 214175,58041 220001,58028 C 225809,58047 231430,56000 235864,52252 C 238187,50083 241254,48871 244430,48871 C 247613,48871 250680,50083 253003,52252 C 257444,55981 263065,58028 268866,58028 C 274667,58028 280281,55981 284722,52252 C 287038,50032 290131,48813 293340,48858 C 296516,48820 299583,50039 301861,52252 C 306321,55993 311955,58041 317768,58041 C 323582,58041 329216,55993 333676,52252 C 335954,50039 339021,48820 342197,48858 C 345406,48813 348499,50032 350815,52252 C 355236,56019 360864,58066 366671,58028 L 366671 45836 C 363495,45881 360428,44661 358150,42441 C 353703,38655 348037,36608 342197,36666 C 336384,36602 330750,38655 326341,42441 C 324012,44616 320951,45823 317768,45823 C 314586,45823 311525,44616 309196,42441 C 304787,38655 299153,36602 293340,36666 C 289053,36557 284824,37673 281148,39874 L 281148 12378 L 366671 12378 L 366671 0 L 0 0 L 0 12192 Z M 268866 45836 C 265683,45881 262616,44661 260338,42441 C 255878,38707 250250,36660 244430,36660 C 238617,36660 232983,38707 228529,42441 C 226245,44661 223184,45881 220001,45836 C 216799,45881 213700,44661 211384,42441 C 206943,38713 201328,36666 195528,36666 C 189727,36666 184112,38713 179672,42441 C 177342,44616 174281,45823 171099,45823 C 167916,45823 164855,44616 162526,42441 C 158117,38655 152483,36602 146670,36666 C 140830,36608 135164,38655 130718,42441 C 129595,43551 128260,44417 126797,45001 C 125334,45585 123768,45868 122189,45836 C 119013,45881 115946,44661 113668,42441 C 109619,39027 104562,37032 99275,36762 L 99275 12192 L 268866 12192 L 268866 45836 Z" fill="#2C5967" transform="translate(9169,129896)"/>
  <path d="M 360530 96253 C 300674,96253 281148,29242 281148,6141 L 281148 0 L 268866 0 L 268866 6141 C 268230,24564 262898,42518 253369,58303 C 246368,70066 236294,79691 224230,86152 C 212160,92614 198563,95662 184895,94969 C 171285,95765 157713,92967 145528,86852 C 133348,80737 122992,71522 115503,60139 C 105345,44019 99737,25462 99275,6417 L 99275 0 L 87083 0 L 87083 6141 C 87083,29242 67557,96253 7604,96253 L 0 96253 L 0 108444 L 366671 108444 L 366671 96253 L 360530 96253 Z M 87083 96253 L 51149 96253 C 62635,88770 72363,78889 79659,67287 C 82379,62936 84856,58438 87083,53812 L 87083 96253 Z M 99275 96253 L 99275 56102 C 101085,59683 103074,63174 105236,66556 C 113296,79030 124397,89252 137500,96253 L 99275 96253 Z M 268866 96253 L 230730 96253 C 244341,88835 255756,77958 263822,64720 C 265657,61602 267396,58483 268866,55550 L 268866 96253 Z M 281148 96253 L 281148 53812 C 283297,58477 285780,62975 288572,67287 C 295836,78889 305532,88770 316992,96253 L 281148 96253 Z" fill="#2C5967" transform="translate(9169,9169)"/>
  <path d="M 342197 6 C 336377,-39 330737,2047 326341,5871 C 323993,8002 320938,9182 317768,9182 C 314598,9182 311544,8002 309196,5871 C 304800,2047 299160,-39 293340,6 C 287487,-32 281821,2053 277387,5871 C 275058,7995 272016,9176 268866,9176 C 265709,9176 262667,7995 260338,5871 C 255904,2079 250263,0 244430,0 C 238604,0 232963,2079 228529,5871 C 227394,6956 226059,7803 224596,8374 C 223133,8939 221574,9208 220001,9169 C 216806,9253 213713,8066 211384,5871 C 206969,2085 201341,6 195528,6 C 189714,6 184086,2085 179672,5871 C 177323,8002 174269,9182 171099,9182 C 167929,9182 164874,8002 162526,5871 C 158130,2047 152490,-39 146670,6 C 140818,-32 135152,2053 130718,5871 C 129588,6962 128253,7815 126790,8387 C 125327,8951 123762,9221 122189,9169 C 120624,9208 119064,8939 117601,8374 C 116138,7803 114804,6956 113668,5871 C 109234,2079 103593,0 97761,0 C 91928,0 86294,2079 81860,5871 C 80724,6956 79389,7803 77926,8374 C 76463,8939 74904,9208 73332,9169 C 71766,9221 70200,8951 68737,8387 C 67274,7815 65933,6962 64810,5871 C 60376,2053 54710,-32 48858,6 C 43031,-39 37391,2047 32995,5871 C 30698,8040 27637,9227 24474,9169 C 21278,9253 18179,8066 15856,5871 C 11467,2034 5827,-51 0,6 L 0 12288 C 1566,12250 3125,12519 4588,13090 C 6051,13655 7386,14502 8522,15586 C 12956,19379 18596,21458 24429,21458 C 30262,21458 35896,19379 40330,15586 C 41466,14502 42800,13655 44263,13090 C 45726,12519 47286,12250 48858,12288 C 52053,12205 55153,13392 57476,15586 C 61890,19372 67518,21451 73332,21451 C 79152,21451 84773,19372 89194,15586 C 91536,13456 94591,12275 97761,12275 C 100931,12275 103985,13456 106333,15586 C 110755,19372 116376,21451 122189,21451 C 128010,21451 133631,19372 138052,15586 C 140375,13392 143474,12205 146670,12288 C 148235,12250 149795,12519 151258,13090 C 152721,13655 154062,14502 155191,15586 C 159587,19411 165227,21496 171054,21451 C 176906,21490 182572,19404 187000,15586 C 189335,13462 192371,12282 195528,12282 C 198685,12282 201720,13462 204056,15586 C 208483,19404 214149,21490 220001,21451 C 225828,21496 231468,19411 235864,15586 C 238206,13456 241260,12275 244430,12275 C 247600,12275 250661,13456 253003,15586 C 257424,19372 263046,21451 268866,21451 C 274679,21451 280307,19372 284722,15586 C 287045,13392 290144,12205 293340,12288 C 294905,12250 296465,12519 297928,13090 C 299391,13655 300732,14502 301861,15586 C 306295,19379 311936,21458 317768,21458 C 323601,21458 329242,19379 333676,15586 C 334805,14502 336146,13655 337609,13090 C 339072,12519 340632,12250 342197,12288 C 345393,12205 348492,13392 350815,15586 C 355204,19424 360845,21509 366671,21451 L 366671 9169 C 365105,9208 363546,8939 362083,8374 C 360620,7803 359285,6956 358150,5871 C 353716,2053 348050,-32 342197,6 Z" fill="#2C5967" transform="translate(9169,190946)"/>
</svg>