<svg xmlns="http://www.w3.org/2000/svg" viewBox="0 0 385010 295436" width="40" height="31">
  <path d="M 0 86282 L 0 44649 C 26,37096 3042,29858 8387,24523 C 13732,19190 20970,16195 28516,16195 L 83355 16195 C 86114,11334 90099,7281 94905,4440 C 99718,1599 105185,68 110768,0 L 177124 0 C 182707,78 188168,1612 192980,4452 C 197786,7293 201771,11340 204537,16195 L 259375 16195 C 266921,16195 274160,19190 279505,24523 C 284850,29858 287866,37096 287892,44649 L 287892 86282 L 0 86282 Z" fill="#FFFFFF" transform="translate(48800,204579)"/>
  <path d="M 182148 9150 C 187410,9152 192563,10672 196984,13528 C 201412,16383 204922,20454 207097,25253 L 264855 25253 C 271201,25277 277278,27810 281763,32302 C 286249,36788 288777,42871 288803,49224 L 288803 86281 L 9144 86281 L 9144 49224 C 9163,42871 11698,36788 16183,32302 C 20669,27810 26745,25277 33085,25253 L 90843 25253 C 93025,20454 96529,16383 100956,13528 C 105377,10672 110530,9152 115798,9150 L 182148 9150 Z M 182148 0 L 115798 0 C 109824,6 103940,1477 98672,4284 C 93397,7091 88892,11149 85543,16103 L 33085 16103 C 24313,16103 15894,19593 9689,25804 C 3491,32014 0,40439 0,49224 L 0 95431 L 297940 95431 L 297940 49224 C 297940,40439 294456,32014 288251,25804 C 282046,19593 273633,16103 264855,16103 L 212397 16103 C 209054,11149 204550,7091 199275,4284 C 194000,1477 188123,6 182148,0 Z" fill="#FFFFFF" transform="translate(44232,200005)"/>
  <path d="M 282861 207926 C 277195,207904 271625,206460 266658,203727 C 261698,200994 257495,197059 254441,192281 L 205268 192281 C 199898,194810 194026,196121 188090,196121 C 182148,196121 176283,194810 170906,192281 L 122106 192281 C 119058,197080 114855,201032 109876,203770 C 104903,206508 99314,207944 93635,207944 C 87956,207944 82367,206508 77394,203770 C 72414,201032 68211,197080 65163,192281 L 0 192281 L 1007 178740 C 2239,163376 7379,148584 15939,135772 C 24500,122959 36191,112553 49904,105544 C 52824,103950 55332,101699 57238,98968 C 59144,96237 60383,93101 60870,89806 C 63963,74005 72446,59771 84869,49540 C 97286,39309 112872,33717 128959,33721 C 131115,33581 133284,33581 135447,33721 L 137641 33721 C 140516,33753 143365,33184 146009,32050 C 148659,30915 151033,29240 152997,27133 C 162378,17043 174070,9384 187064,4814 C 200058,245 213963,-1099 227593,899 C 241222,2897 254158,8176 265298,16284 C 276438,24391 285440,35084 291543,47444 C 293000,50535 295136,53254 297799,55394 C 300456,57534 303568,59039 306898,59796 C 316633,61942 325911,65782 334318,71142 C 352965,82919 366453,101338 372068,122682 C 377683,144026 375000,166707 364567,186151 L 361095 192647 L 311377 192647 C 308259,197359 304024,201221 299044,203888 C 294065,206555 288508,207942 282861,207926 Z" fill="#FFFFFF" transform="translate(4948,4250)"/>
  <path d="M 220348 9150 C 235338,9088 250039,13240 262789,21133 C 275539,29027 285819,40345 292454,53799 C 294244,57394 296817,60541 299981,63011 C 303138,65481 306815,67210 310736,68072 C 319995,70161 328831,73812 336871,78869 C 354595,89978 367428,107428 372754,127670 C 378087,147911 375520,169427 365568,187839 L 363373 191957 L 313655 191957 C 311191,196671 307476,200620 302926,203375 C 298377,206130 293160,207586 287840,207586 C 282521,207586 277304,206130 272754,203375 C 268205,200620 264489,196671 262019,191957 L 209382 191957 C 204364,194483 198819,195799 193205,195799 C 187584,195799 182046,194483 177028,191957 L 124384 191957 C 121901,196589 118211,200464 113706,203170 C 109208,205877 104056,207316 98807,207335 C 93551,207353 88392,205952 83868,203277 C 79351,200602 75629,196754 73113,192140 L 9869 192140 L 10511 183722 C 11518,169095 16247,154970 24249,142688 C 32245,130405 43243,120374 56205,113545 C 59741,111728 62821,109140 65227,105974 C 67627,102807 69295,99142 70098,95247 C 72100,84978 76553,75346 83079,67173 C 89605,59000 98004,52528 107572,48309 C 115818,44715 124711,42847 133708,42820 L 139740 42820 L 142300 42820 C 145727,42773 149115,42036 152252,40653 C 155397,39269 158227,37268 160575,34768 C 168224,26591 177490,20091 187776,15682 C 198062,11272 209157,9048 220348,9150 Z M 220348 0 C 208008,10 195810,2567 184504,7510 C 173197,12453 163026,19677 154633,28730 C 153087,30374 151219,31679 149140,32561 C 147068,33443 144828,33884 142569,33853 L 140837 33853 C 138552,33717 136262,33717 133984,33853 C 116831,33885 100218,39863 86967,50772 C 73723,61681 64662,76847 61326,93691 C 60806,96262 59715,98682 58130,100773 C 56545,102863 54518,104571 52188,105768 C 37859,113260 25680,124281 16786,137791 C 7899,151302 2592,166857 1373,182990 L 732 191407 L 0 201289 L 67723 201289 C 71278,206131 75924,210067 81282,212780 C 86640,215493 92563,216907 98569,216907 C 104569,216907 110492,215493 115850,212780 C 121208,210067 125854,206131 129409,201289 L 175109 201289 C 180859,203852 187089,205176 193384,205176 C 199686,205176 205910,203852 211666,201289 L 257360 201289 C 260922,206131 265567,210067 270925,212780 C 276284,215493 282200,216907 288206,216907 C 294212,216907 300129,215493 305487,212780 C 310845,210067 315490,206131 319052,201289 L 369225 201289 L 371785 196531 L 373980 192414 C 385081,171898 387930,147911 381950,125359 C 375969,102807 361608,83395 341806,71092 C 332925,65444 323120,61417 312834,59197 C 310254,58647 307829,57544 305711,55965 C 303600,54386 301848,52367 300591,50048 C 293230,35023 281815,22367 267627,13520 C 253440,4672 237057,-12 220348,0 Z" fill="#FFFFFF"/>
  <path d="M 45149 0 L 0 0 C 1136,3707 1720,7562 1739,11437 L 1739 15737 L 45149 15737 C 47331,15737 49422,16603 50969,18149 C 52509,19696 53375,21788 53375,23969 L 53375 61027 L 69096 61027 L 69096 23969 C 69071,17623 66543,11540 62057,7048 C 57572,2557 51495,24 45149,0 Z" fill="#2D5967" transform="translate(263938,225259)"/>
  <path d="M 327092 69720 C 319026,64654 310158,61002 300867,58923 C 296946,58061 293269,56332 290105,53862 C 286948,51392 284375,48244 282585,44650 C 275944,31196 265670,19878 252920,11985 C 240170,4091 225469,-61 210479,1 C 199397,23 188437,2325 178279,6763 C 168128,11201 158990,17682 151438,25802 C 148742,28677 145412,30884 141716,32250 C 138020,33615 134061,34102 130146,33671 C 119154,32685 108092,34478 97972,38886 C 88411,43105 80005,49577 73479,57749 C 66960,65922 62507,75554 60504,85823 C 59696,89718 58034,93384 55628,96550 C 53228,99717 50141,102304 46612,104122 C 33650,110950 22651,120981 14650,133264 C 6654,145546 1925,159672 918,174299 L 0 182990 L 49904 182990 C 48287,178563 47446,173889 47433,169175 C 47433,168535 47433,167894 47433,167253 L 17550 167253 C 19591,156886 23935,147112 30268,138655 C 36595,130197 44738,123273 54107,118395 C 59734,115474 64637,111314 68436,106228 C 72234,101141 74833,95260 76040,89025 C 77567,81252 80949,73964 85896,67783 C 90850,61602 97215,56710 104460,53525 C 112096,50155 120457,48770 128773,49500 C 135081,50137 141446,49305 147376,47067 C 153305,44829 158637,41246 162956,36598 C 169033,30060 176386,24843 184561,21270 C 192736,17697 201560,15845 210479,15829 C 222530,15736 234362,19054 244616,25399 C 254864,31745 263116,40860 268423,51695 C 271291,57410 275392,62412 280435,66337 C 285479,70263 291338,73012 297575,74386 C 307264,76536 316357,80824 324185,86938 C 332007,93051 338373,100837 342813,109725 C 347254,118615 349654,128384 349846,138320 C 350032,148256 348005,158110 343911,167162 L 319142 167162 C 319142,167802 319142,168443 319142,169083 C 319167,173822 318365,178529 316767,182990 L 353324 182990 L 355519 178873 C 365542,160475 368186,138941 362905,118659 C 357624,98378 344815,80876 327092,69720 Z" fill="#2D5967" transform="translate(9869,9149)"/>
  <path d="M 69097 0 L 23948 0 C 17601,24 11525,2557 7039,7048 C 2554,11540 26,17623 0,23969 L 0 61027 L 15721 61027 L 15721 23969 C 15721,21788 16587,19696 18134,18149 C 19674,16603 21766,15737 23948,15737 L 67358 15737 L 67358 11437 C 67377,7562 67961,3707 69097,0 Z" fill="#2D5967" transform="translate(53369,225259)"/>
  <path d="M 121278 27449 C 121278,20169 118391,13187 113244,8040 C 108105,2892 101129,0 93859,0 L 27419 0 C 20149,0 13174,2892 8027,8040 C 2888,13187 0,20169 0,27449 L 0 77038 L 15721 77038 L 15721 27449 C 15721,24317 16960,21316 19173,19103 C 21381,16889 24384,15646 27509,15646 L 93859 15646 C 96984,15646 99987,16889 102195,19103 C 104408,21316 105647,24317 105647,27449 L 105647 77038 L 121368 77038 L 121278 27449 Z" fill="#2D5967" transform="translate(132617,209248)"/>
  <path d="M 37288 74660 C 44661,74660 51874,72471 58002,68368 C 64136,64267 68917,58436 71734,51615 C 74557,44794 75295,37288 73858,30047 C 72421,22806 68866,16154 63655,10934 C 58438,5713 51797,2157 44559,717 C 37327,-723 29832,16 23017,2841 C 16203,5667 10383,10452 6282,16590 C 2188,22729 0,29947 0,37330 C 0,47231 3927,56726 10922,63726 C 17916,70727 27400,74660 37288,74660 Z M 37288 15737 C 41555,15737 45720,17003 49269,19376 C 52817,21749 55583,25121 57213,29066 C 58849,33012 59272,37354 58438,41543 C 57610,45731 55557,49579 52541,52598 C 49519,55618 45682,57675 41498,58508 C 37314,59341 32976,58913 29036,57279 C 25090,55645 21721,52877 19353,49326 C 16985,45775 15721,41600 15721,37330 C 15811,31667 18128,26268 22164,22297 C 26200,18327 31629,16102 37288,16103 L 37288 15737 Z" fill="#2D5967" transform="translate(155923,121142)"/>
  <path d="M 0 29553 C 0,35398 1732,41111 4973,45972 C 8220,50832 12827,54620 18224,56856 C 23614,59093 29550,59679 35280,58538 C 41004,57397 46265,54583 50391,50450 C 54524,46317 57334,41051 58470,35318 C 59612,29586 59028,23644 56789,18244 C 54556,12843 50776,8228 45919,4981 C 41068,1733 35357,0 29517,0 C 25642,0 21804,764 18224,2250 C 14643,3735 11383,5912 8643,8656 C 5903,11400 3728,14658 2246,18244 C 764,21829 0,25672 0,29553 Z M 29517 16103 C 32251,16103 34914,16914 37186,18432 C 39457,19950 41222,22107 42268,24632 C 43314,27157 43590,29935 43057,32614 C 42524,35295 41209,37756 39277,39688 C 37346,41620 34888,42936 32212,43469 C 29537,44002 26758,43729 24236,42683 C 21715,41638 19558,39867 18044,37594 C 16530,35323 15721,32651 15721,29919 C 15721,26255 17171,22741 19757,20150 C 22350,17559 25860,16103 29517,16103 Z" fill="#2D5967" transform="translate(69084,148589)"/>
  <path d="M 59042 29644 C 59054,23796 57341,18073 54107,13201 C 50879,8329 46272,4527 40882,2276 C 35485,25 29550,-573 23820,557 C 18083,1687 12815,4494 8676,8624 C 4543,12753 1720,18019 571,23754 C -571,29489 7,35436 2240,40841 C 4473,46247 8252,50867 13110,54119 C 17967,57370 23678,59106 29518,59106 C 37333,59106 44828,56005 50360,50482 C 55897,44960 59016,37466 59042,29644 Z M 29518 43643 C 26155,43254 23056,41641 20804,39110 C 18551,36580 17306,33308 17306,29919 C 17306,26530 18551,23259 20804,20728 C 23056,18198 26155,16584 29518,16195 C 31456,15971 33413,16159 35267,16746 C 37122,17334 38835,18308 40285,19604 C 41742,20900 42903,22489 43699,24267 C 44495,26044 44905,27971 44905,29919 C 44905,31867 44495,33793 43699,35571 C 42903,37349 41742,38938 40285,40234 C 38835,41530 37122,42504 35267,43091 C 33413,43679 31456,43867 29518,43643 Z" fill="#2D5967" transform="translate(258284,148494)"/>
</svg>