<svg xmlns="http://www.w3.org/2000/svg" viewBox="0 0 385010 333104" width="40" height="35">
  <path d="M 28375 167011 C -9458,129177 -9458,67357 28375,28600 C 46830,10145 71741,0 97581,0 C 123415,0 148332,10145 166787,28600 L 184317 46137 L 201849 28600 C 220303,10145 245214,0 271054,0 C 296888,0 321805,10145 340259,28600 C 358721,47055 368860,71971 368860,97805 C 368860,117184 365202,131949 355962,145791 L 349481 153170 L 353202 155942 C 357759,159632 361480,163321 365202,167935 L 366999 170701 C 366999,171625 367961,171625 367961,172549 L 369758 175314 C 371619,179010 373479,181776 375341,185466 C 375341,186390 376239,187314 376239,188238 C 378998,195617 379961,202997 379961,210382 C 379961,217762 378998,225141 376239,232527 C 376239,233451 375341,234369 375341,235293 C 373479,238982 372581,242679 369758,245444 L 367961 248210 C 367961,248210 366999,249134 366999,250058 L 365202 252824 C 361480,257437 357759,261133 353202,264823 L 350379 266665 C 349481,266665 349481,267589 348582,267589 L 345823 269437 C 342101,271278 339336,273126 335646,274974 C 334722,274974 333798,275892 332874,275892 C 325495,278664 318115,279588 310729,279588 C 303350,279588 295964,278664 288585,275892 C 286737,274974 285819,274974 285819,274974 C 282123,273126 278434,272202 275668,269437 L 272896 267589 C 271978,267589 271978,266665 271054,266665 C 270130,265747 269206,265747 268282,264823 C 263668,261133 259978,257437 256289,252824 L 255365 251906 L 253523 251906 L 250751 254672 L 183393 322029 L 28375 167011 Z" fill="#FFFFFF" transform="translate(4151,4614)"/>
  <path d="M 274282 9228 C 299198,9228 322267,18455 339797,36910 C 358253,55365 366530,78433 366530,102419 C 366530,119033 363771,133791 354531,148556 L 345335 159632 C 345335,159632 346253,159632 346253,160556 C 347177,161473 348101,161473 349025,162398 L 349975 163321 C 350873,164246 351771,164246 352734,165170 C 356391,167935 360113,171625 363771,176239 C 364734,177163 364734,178087 365632,179011 L 366530 179928 C 367493,180852 367493,181776 368391,182700 C 370252,185466 372113,189156 373011,192852 C 373011,193770 373910,194693 373910,195618 C 375770,202079 377631,208535 377631,215920 C 377631,223300 376733,229755 373910,236217 C 373910,237141 373011,238065 373011,238983 C 372113,242679 370252,245444 368391,249134 C 367493,250058 367493,250982 366530,251906 L 365632 252824 C 364734,253748 364734,254672 363771,255596 C 361012,259285 357354,262975 352734,266665 C 351771,267589 350873,267589 349975,268513 L 349025 269437 C 348101,270361 347177,270361 346253,271278 C 343487,273127 339797,274975 336108,275892 C 335184,275892 334260,276816 333336,276816 C 326880,278664 320419,280506 313039,280506 C 305654,280506 299198,279588 292736,276816 C 291813,276816 290895,275892 289971,275892 C 286281,274975 283509,273127 279819,271278 C 278895,270361 277971,270361 277054,269437 L 276130 268513 C 275206,267589 274282,267589 273357,266665 C 269668,263899 265978,260210 262289,255596 C 261365,254672 261365,253748 260440,252824 L 259516 251906 C 259516,250982 258599,250982 258599,250058 L 251213 258361 L 187545 322029 L 35293 167935 C -693,131950 -693,72895 35293,36910 C 53747,18455 76816,9228 101733,9228 C 126643,9228 149711,18455 167249,36910 L 187545 57206 L 208766 36910 C 226303,18455 249371,9228 274282,9228 Z M 274282 0 C 246599,0 221689,11069 202310,29524 L 188469 43365 L 174628 29524 C 154325,11069 128491,0 101733,0 C 74050,0 49134,11069 29761,29524 C -9920,69206 -9920,134715 29761,174397 L 182008 326643 L 188469 333105 L 194925 326643 L 258599 262975 C 261365,266665 265054,269437 268744,272203 L 271516 274051 C 272440,274051 272440,274975 273357,274975 C 274282,274975 274282,275892 275206,275892 C 278895,277740 282585,279588 286281,281430 C 287199,281430 288123,282354 289971,282354 C 297350,285120 305654,286044 313039,286044 C 321343,286044 328722,285120 336108,282354 C 337025,282354 338874,281430 339797,281430 C 343487,279588 347177,277740 350873,275892 C 351771,274975 352734,274975 353632,274051 C 353632,274051 354531,273127 355493,273127 L 358253 271278 C 362872,267589 366530,263899 370252,259285 L 372113 256520 C 372113,255596 373011,255596 373011,254672 C 373910,253748 373910,252824 374872,251906 C 376733,248210 378530,244520 380391,240831 C 380391,239907 381289,238983 381289,237141 C 384112,229755 385011,221452 385011,214072 C 385011,205769 384112,198383 381289,191004 C 381289,190080 380391,188238 380391,187314 C 378530,183624 376733,179928 374872,176239 C 373910,175315 373910,174397 373011,173473 C 373011,173473 372113,172549 372113,171625 L 370252 168859 C 366530,164246 362872,160556 358253,156860 L 361012 154094 L 361974 153170 L 361974 152246 C 371150,136563 375770,121798 375770,101495 C 375770,73819 364734,48903 346253,29524 C 327798,11069 301964,0 274282,0 Z" fill="#FFFFFF"/>
  <path d="M 179241 290657 L 38065 148556 C 7610,118108 7610,68282 38065,37827 C 52823,23069 72202,14759 93429,14759 C 114650,14759 134029,23069 148787,37827 L 180165 69206 L 211538 37827 C 226302,23069 245675,14759 266902,14759 C 288123,14759 307502,23069 322266,37827 C 349050,64592 352708,105191 333336,135639 C 337949,137487 342569,139329 346227,142101 C 355467,127336 360087,110723 360087,93192 C 360087,69206 350847,45213 333336,27682 C 313957,9227 290888,0 265978,0 C 241062,0 217993,9227 200462,27682 L 180165 47979 L 158939 27682 C 141408,10145 118339,0 93429,0 C 68513,0 45444,9227 26989,27682 C -8996,63668 -8996,122722 26989,158708 L 179241 310960 L 242909 247292 C 240144,242679 237372,238982 235530,233451 L 179241 290657 Z" fill="#2D5967" transform="translate(8303,9228)"/>
  <path d="M 150404 0 L 123646 98736 L 104267 29530 L 88584 29530 L 76585 64592 L 0 64592 L 14765 79357 L 85812 79357 L 94122 54447 L 114419 126418 L 129184 126418 L 157790 28606 L 170707 78433 L 188238 78433 C 191928,72902 195624,68288 200237,63674 L 181783 63674 L 165169 0 L 150404 0 Z" fill="#2D5967" transform="translate(62975,95958)"/>
  <path d="M 125462 44289 C 125462,43371 124564,42447 124564,41523 C 123665,37834 121804,35062 119943,31372 C 119045,30448 119045,29530 118083,28606 L 117184 27682 C 116286,26758 116286,25834 115323,24917 C 112564,21221 108907,17531 104286,13841 C 103324,12917 102425,12917 101527,11993 L 100578 11075 C 99653,10151 98729,10151 97806,9227 C 95040,7379 91350,5538 87654,4614 C 86736,4614 85812,3690 84888,3690 C 78427,1848 71971,0 64586,0 C 57206,0 50744,924 44289,3690 C 43365,3690 42441,4614 41517,4614 C 37827,5538 35062,7379 31372,9227 C 30448,10151 29524,10151 28600,11075 L 27676 11993 C 26758,12917 25834,12917 24910,13841 C 21221,16607 17531,20303 13841,24917 C 12917,25834 12917,26758 11993,27682 L 11069 28606 C 10145,29530 10145,30448 9227,31372 C 7379,34144 5531,37834 4614,41523 C 4614,42447 3690,43371 3690,44289 C 1842,50751 0,57212 0,64592 C 0,71971 918,78433 3690,84895 C 3690,85812 4614,86736 4614,87661 C 5531,91350 7379,94116 9227,97812 C 10145,98729 10145,99654 11069,100578 L 11993 101502 C 12917,102426 12917,103343 13841,104267 C 16607,107957 20296,111653 24910,115343 C 25834,116267 26758,116267 27676,117184 L 28600 118108 C 29524,119032 30448,119032 31372,119956 C 34138,121798 37827,123646 41517,124570 C 42441,124570 43365,125494 44289,125494 C 50744,127336 57206,129184 64586,129184 C 71971,129184 78427,128260 84888,125494 C 85812,125494 86736,124570 87654,124570 C 91350,123646 94116,121798 97806,119956 C 98729,119032 99653,119032 100578,118108 L 101527 117184 C 102425,116267 103324,116267 104286,115343 C 107944,112571 111666,108881 115323,104267 C 116286,103343 116286,102426 117184,101502 L 118083 100578 C 119045,99654 119045,98729 119943,97812 C 121804,95040 123665,91350 124564,87661 C 124564,86736 125462,85812 125462,84895 C 127323,78433 129184,71971 129184,64592 C 129184,57212 128286,50751 125462,44289 Z M 65509 114419 C 38751,114419 16607,92274 16607,65516 C 16607,38758 38751,16607 65509,16607 C 92268,16607 114425,38758 114425,65516 C 114425,92274 92268,114419 65509,114419 Z" fill="#2D5967" transform="translate(248447,149481)"/>
  <path d="M 21221 29524 L 10151 17531 L 0 27682 L 21221 49827 L 60902 10151 L 50751 0 L 21221 29524 Z" fill="#2D5967" transform="translate(283509,191928)"/>
</svg>