<svg xmlns="http://www.w3.org/2000/svg" viewBox="0 0 287840 385010" width="30" height="40">
  <path d="M 19251 375845 C 9164,375845 0,367593 0,356594 L 0 55918 C 0,45834 8246,36667 19251,36667 L 66915 36667 C 69668,29334 77002,23833 85248,23833 L 105416 23833 C 110004,10083 123749,0 138418,0 C 153087,0 166838,10083 171419,23833 L 192505 23833 C 200751,23833 208086,29334 210838,36667 L 258503 36667 C 268590,36667 277753,44918 277753,55918 L 277753 356594 C 277753,366675 269507,375845 258503,375845 L 19251 375845 Z" fill="#FFFFFF" transform="translate(4588,4584)"/>
  <path d="M 143923 9167 C 158592,9167 170508,19251 173255,33001 L 198004 33001 C 205339,33001 211756,38501 212673,45835 L 264008 45835 C 272260,45835 278677,52252 278677,60502 L 278677 361179 C 278677,369424 272260,375841 264008,375841 L 23838 375841 C 15586,375841 9169,369424 9169,361179 L 9169 60502 C 9169,52252 15586,45835 23838,45835 L 75173 45835 C 76084,38501 82501,33001 89836,33001 L 114586 33001 C 117338,19251 129254,9167 143923,9167 Z M 143923 0 C 128337,0 113674,10083 107257,23834 L 88918 23834 C 79755,23834 71503,29334 67839,36668 L 23838 36668 C 10087,36668 0,47668 0,60502 L 0 361179 C 0,374012 10087,385011 23838,385011 L 264008 385011 C 276842,385011 287840,374012 287840,361179 L 287840 60502 C 287840,47668 277759,36668 264008,36668 L 219090 36668 C 215426,29334 207174,23834 198004,23834 L 179672 23834 C 174172,10083 159503,0 143923,0 Z" fill="#FFFFFF"/>
  <path d="M 254839 36668 L 203504 36668 C 202586,29334 196170,23834 188835,23834 L 164085 23834 C 161339,10083 149423,0 134754,0 C 120085,0 108169,10083 105416,23834 L 79749 23834 C 72421,23834 66915,29334 66004,36668 L 14669 36668 C 6417,36668 0,43085 0,51335 L 0 352011 C 0,360263 6417,366680 14669,366680 L 254839 366680 C 263091,366680 269507,360263 269507,352011 L 269507 51335 C 268590,43085 262173,36668 254839,36668 Z M 75167 327261 L 39419 291508 L 75167 291508 L 75167 327261 Z M 34831 278675 L 34831 72419 L 65086 72419 L 65086 85252 L 202586 85252 L 202586 72419 L 232842 72419 L 232842 331843 L 88001 331843 L 88001 278675 L 34831 278675 Z M 78837 38501 C 78837,37585 78837,36668 79749,36668 L 116421 36668 L 116421 30251 C 116421,20168 124667,12834 133836,12834 C 143006,12834 151252,21084 151252,30251 L 151252 36668 L 187924 36668 C 188835,36668 189753,37585 189753,38501 L 189753 72419 L 78837 72419 L 78837 38501 Z M 256674 352011 C 256674,352928 255756,353846 254839,353846 L 14669 353846 C 13751,353846 12834,352928 12834,352011 L 12834 51335 C 12834,50418 13751,49501 14669,49501 L 66004 49501 L 66004 59585 L 22915 59585 L 22915 292425 L 75167 344676 L 247504 344676 L 247504 59585 L 204421 59585 L 204421 49501 L 255756 49501 C 256674,49501 257591,50418 257591,51335 L 256674 352011 Z" fill="#2D5967" transform="translate(9169,9167)"/>
  <path d="M 8252 0 C 3670,0 0,3667 0,8250 C 0,12834 3670,16500 8252,16500 C 12834,16500 16504,12834 16504,8250 C 16504,3667 11916,0 8252,0 Z" fill="#2D5967" transform="translate(135671,32084)"/>
  <path d="M 173255 0 L 0 0 L 0 12834 L 173255 12834 L 173255 0 Z" fill="#2D5967" transform="translate(56834,236508)"/>
  <path d="M 121920 0 L 0 0 L 0 12834 L 121920 12834 L 121920 0 Z" fill="#2D5967" transform="translate(56834,262175)"/>
  <path d="M 23838 61418 L 36672 61418 L 36672 36668 L 60505 36668 L 60505 23834 L 36672 23834 L 36672 0 L 23838 0 L 23838 23834 L 0 23834 L 0 36668 L 23838 36668 L 23838 61418 Z" fill="#2D5967" transform="translate(113668,133838)"/>
  <path d="M 54087 109086 C 84337,109086 108169,84335 108169,55001 C 108169,25667 84337,0 54087,0 C 23838,0 0,24750 0,54084 C 0,83419 23838,109086 54087,109086 Z M 54087 12834 C 77002,12834 95335,31167 95335,54084 C 95335,77002 77002,95336 54087,95336 C 31167,95336 12834,77002 12834,54084 C 12834,31167 31167,12834 54087,12834 Z" fill="#2D5967" transform="translate(89836,110004)"/>
</svg>