<svg xmlns="http://www.w3.org/2000/svg" viewBox="0 0 385010 362846" width="40" height="38">
  <path d="M 286166 351717 C 237179,327308 207944,288931 205525,246755 L 205525 209927 L 0 209927 L 0 0 L 301868 0 L 301868 135840 L 376386 168183 L 376386 246841 C 373967,289362 344559,327654 295740,352064 L 290997 354477 L 286166 351717 Z" fill="#FFFFFF" transform="translate(4306,4314)"/>
  <path d="M 301868 8625 L 301868 142999 L 376560 174997 L 376560 250809 C 374230,291518 345765,328433 298332,352150 L 295483 353619 L 292640 352150 C 245200,328433 216652,291776 214329,250809 L 214329 209928 L 8624 209928 L 8624 8625 L 301868 8625 Z M 310492 0 L 0 0 L 0 218552 L 205531 218552 L 205531 250119 L 205531 250636 C 208118,294709 238302,334298 288585,359484 L 291434 360864 L 295316 362847 L 299108 360864 L 301951 359484 C 352233,334298 382508,294709 385011,250895 L 385011 169305 L 379839 167063 L 310492 137307 L 310492 0 Z" fill="#FFFFFF"/>
  <path d="M 12770 12765 L 280307 12765 L 280307 123939 L 286692 121178 L 293076 123939 L 293076 0 L 0 0 L 0 201303 L 195957 201303 L 195957 188538 L 12770 188538 L 12770 12765 Z" fill="#2D5967" transform="translate(8625,8625)"/>
  <path d="M 81160 0 L 0 34499 L 0 110311 C 2329,151020 30878,187933 78317,211650 L 81160 213119 L 84009 211650 C 131442,187933 159908,151278 162237,110311 L 162237 34757 L 81160 0 Z M 149468 109879 C 147574,143171 125148,173874 87545,195435 L 87545 87110 L 74782 87110 L 74782 195608 C 37173,174047 14406,143344 12769,110052 L 12769 43124 L 74782 16559 L 74782 73483 L 87718 73483 L 87718 16559 L 149641 43124 L 149468 109879 Z" fill="#2D5967" transform="translate(214143,140243)"/>
  <path d="M 9054 21993 L 0 30963 L 23800 54767 L 69514 9056 L 60543 0 L 23800 36742 L 9054 21993 Z" fill="#2D5967" transform="translate(172498,42433)"/>
  <path d="M 51489 42434 L 34754 25788 L 51489 9056 L 42518 0 L 25783 16732 L 9054 0 L 0 9056 L 16729 25788 L 0 42434 L 9054 51490 L 25783 34757 L 42518 51490 L 51489 42434 Z" fill="#2D5967" transform="translate(178972,109014)"/>
  <path d="M 86935 49851 L 86935 21907 C 86935,16097 84632,10525 80519,6416 C 76412,2308 70842,0 65028,0 L 21907 0 C 16093,0 10524,2308 6417,6416 C 2304,10525 0,16097 0,21907 L 0 49851 L 12333 49851 L 12333 21907 C 12333,20695 12571,19495 13033,18375 C 13501,17256 14181,16238 15035,15381 C 15895,14525 16908,13844 18031,13381 C 19148,12917 20348,12678 21561,12678 L 64682 12678 C 65895,12678 67088,12918 68205,13382 C 69321,13848 70329,14528 71182,15386 C 72029,16245 72703,17263 73158,18382 C 73608,19501 73839,20699 73826,21907 L 73826 49851 L 86935 49851 Z" fill="#2D5967" transform="translate(51053,119197)"/>
  <path d="M 29671 59339 C 35536,59339 41273,57599 46156,54338 C 51033,51078 54838,46445 57084,41023 C 59330,35602 59914,29637 58772,23881 C 57623,18126 54800,12839 50648,8690 C 46503,4541 41215,1715 35459,570 C 29704,-575 23736,13 18320,2258 C 12898,4504 8265,8307 5005,13186 C 1739,18065 0,23801 0,29669 C 0,37538 3125,45084 8695,50649 C 14258,56213 21804,59339 29671,59339 Z M 29671 12765 C 33085,12765 36416,13777 39252,15672 C 42088,17567 44302,20261 45611,23413 C 46914,26565 47254,30033 46586,33379 C 45925,36726 44283,39799 41870,42212 C 39457,44624 36384,46267 33034,46933 C 29691,47598 26219,47257 23069,45951 C 19918,44646 17223,42434 15330,39597 C 13431,36761 12423,33426 12423,30015 C 12423,25439 14239,21052 17473,17817 C 20707,14582 25096,12765 29671,12765 Z" fill="#2D5967" transform="translate(64688,49504)"/>
</svg>