<svg xmlns="http://www.w3.org/2000/svg" viewBox="0 0 385010 365758" width="40" height="38">
  <path d="M 140997 331365 L 140997 290985 C 140638,280766 137327,270871 131456,262502 C 124635,251396 119931,239117 117582,226291 L 75180 226291 L 75180 201803 L 116716 201803 C 117037,198881 117531,195982 118192,193119 L 0 193119 L 956 180007 C 2053,164567 7091,149669 15574,136732 C 24057,123795 35716,113251 49429,106108 C 52419,104566 55025,102367 57052,99676 C 59080,96984 60472,93870 61134,90564 C 63212,79482 67955,69075 74949,60240 C 81943,51404 90985,44407 101283,39851 C 110094,36022 119597,34042 129203,34033 C 131398,34033 133567,34033 135710,34033 L 137962 34033 C 140888,34074 143789,33500 146477,32348 C 149166,31196 151579,29492 153568,27346 C 162937,17214 174622,9511 187616,4898 C 200610,286 214528,-1097 228177,868 C 241825,2832 254787,8085 265959,16177 C 277131,24268 286178,34955 292313,47319 C 293712,50460 295804,53241 298428,55453 C 301059,57665 304158,59248 307489,60084 C 320694,62914 333060,68795 343603,77258 C 354139,85721 362558,96532 368179,108830 C 373807,121128 376489,134572 376008,148090 C 375527,161608 371901,174827 365414,186693 L 361942 193032 L 263174 193032 C 263790,195897 264226,198797 264477,201716 L 304537 201716 L 304537 226204 L 263527 226204 C 261153,239037 256417,251316 249564,262415 C 243699,270785 240381,280679 240022,290898 L 240022 331275 L 190510 357327 L 140997 331365 Z" fill="#FFFFFF" transform="translate(4684,3561)"/>
  <path d="M 220688 8684 C 235716,8644 250456,12820 263238,20740 C 276021,28659 286332,40005 293006,53492 C 294822,57137 297427,60326 300642,62821 C 303857,65317 307585,67055 311563,67907 C 320797,69952 329601,73596 337577,78675 C 355275,89931 368077,107467 373415,127772 C 378754,148077 376239,169652 366369,188177 L 364111 192345 L 262224 192345 C 263970,197979 264958,203818 265169,209713 L 304890 209713 L 304890 225778 L 264477 225778 C 262565,239410 257803,252487 250520,264160 C 244238,273177 240715,283827 240368,294814 L 240368 332500 L 195194 356037 L 150013 332243 L 150013 294553 C 149660,283581 146169,272942 139958,263899 C 132700,252305 127946,239320 125995,225778 L 84202 225778 L 84202 209713 L 125302 209713 C 125610,203808 126688,197969 128510,192345 L 9362 192345 L 9972 183661 C 11076,168959 15894,154779 23980,142458 C 32065,130137 43153,120081 56192,113236 C 59741,111395 62834,108776 65234,105573 C 67640,102371 69289,98669 70066,94740 C 72959,79896 80916,66521 92576,56905 C 104235,47289 118872,42031 133971,42029 C 135967,42029 137962,42029 140041,42029 L 142646 42029 C 146099,42163 149544,41585 152766,40330 C 155987,39076 158919,37171 161377,34735 C 168956,26556 178125,20024 188328,15543 C 198531,11061 209548,8727 220688,8684 Z M 220688 0 C 208368,14 196182,2566 184888,7495 C 173601,12425 163437,19628 155044,28657 C 153472,30369 151553,31728 149416,32641 C 147273,33554 144969,34002 142646,33954 L 140824 33954 C 138572,33954 136229,33954 133971,33954 C 116928,33918 100398,39800 87192,50598 C 73993,61397 64938,76444 61569,93177 C 61030,95849 59888,98363 58239,100530 C 56584,102696 54460,104458 52028,105681 C 37667,113178 25468,124233 16588,137793 C 7707,151353 2445,166965 1303,183140 L 693 191824 L 0 201029 L 75526 201029 L 75526 234462 L 118885 234462 C 121541,246475 126200,257954 132675,268415 C 137962,276104 140972,285137 141344,294466 L 141344 337454 L 146028 339879 L 191203 363673 L 195194 365758 L 199269 363673 L 244449 339879 L 249044 337454 L 249044 294553 C 249384,285217 252394,276175 257713,268502 C 264278,258019 269058,246515 271849,234462 L 313559 234462 L 313559 201029 L 369488 201029 L 371914 196427 L 374172 192259 C 385094,171811 387885,147980 381982,125556 C 376078,103131 361916,83776 342345,71381 C 333464,65725 323666,61670 313386,59397 C 310671,58817 308130,57634 305936,55936 C 303748,54237 301964,52067 300725,49585 C 293339,34659 281924,22103 267781,13340 C 253632,4576 237321,-45 220688,0 Z" fill="#FFFFFF"/>
  <path d="M 328819 70295 C 320842,65215 312038,61572 302805,59527 C 298832,58675 295098,56937 291883,54441 C 288674,51945 286063,48757 284254,45112 C 278421,33301 269803,23093 259138,15371 C 248480,7650 236101,2649 223069,800 C 210043,-1047 196766,315 184382,4767 C 171997,9221 160889,16630 152009,26355 C 149320,29251 145990,31481 142287,32867 C 138585,34254 134613,34760 130679,34344 C 114637,32787 98595,37257 85658,46886 C 72729,56515 63835,70616 60703,86447 C 59927,90375 58271,94078 55872,97280 C 53472,100482 50379,103102 46830,104943 C 33785,111787 22703,121843 14618,134165 C 6526,146486 1707,160666 610,175368 L 0 184052 L 106834 184052 C 108310,178564 110402,173261 113078,168247 L 17691 168247 C 19745,157828 24102,148003 30448,139496 C 36800,130989 44976,124019 54370,119098 C 60017,116163 64926,111993 68737,106897 C 72555,101800 75167,95908 76399,89660 C 77933,81827 81340,74484 86320,68254 C 91305,62024 97716,57094 105012,53883 C 112673,50534 121054,49160 129376,49888 C 135768,50577 142230,49767 148248,47521 C 154267,45275 159683,41655 164066,36949 C 171240,29329 180140,23553 190022,20113 C 199898,16672 210460,15668 220804,17184 C 231154,18701 240984,22695 249461,28826 C 257938,34958 264817,43046 269507,52406 C 272363,58149 276476,63175 281533,67113 C 286589,71051 292467,73801 298730,75158 C 306250,76826 313437,79762 319976,83841 C 333663,92499 343763,105819 348415,121346 C 353068,136873 351964,153561 345297,168335 L 259452 168335 C 261994,173377 264002,178675 265433,184139 L 354839 184139 L 357091 179971 C 367056,161489 369687,139918 364445,119579 C 359202,99239 346477,81636 328819,70295 Z" fill="#2D5967" transform="translate(9362,8366)"/>
  <path d="M 0 0 L 0 27868 C 2881,27526 5775,27352 8676,27347 C 11018,27347 13270,27347 15612,27347 L 15612 0 L 0 0 Z" fill="#2D5967" transform="translate(187302,104205)"/>
  <path d="M 0 16061 L 28439 16061 L 28439 0 L 1039 0 C 1039,1042 1039,2084 1039,3126 C 937,7453 590,11772 0,16061 Z" fill="#2D5967" transform="translate(276444,209714)"/>
  <path d="M 29222 0 L 0 0 L 0 16061 L 29826 16061 C 29370,11852 29132,7621 29132,3386 C 29132,2084 29132,1042 29222,0 Z" fill="#2D5967" transform="translate(84202,209714)"/>
  <path d="M 0 11112 L 21503 32556 C 23062,30733 24621,28910 26360,27173 C 28093,25437 30435,23267 32604,21444 L 11184 0 L 0 11112 Z" fill="#2D5967" transform="translate(110736,129130)"/>
  <path d="M 20373 0 L 0 20402 C 4081,23727 7829,27449 11184,31515 L 31475 11200 L 20373 0 Z" fill="#2D5967" transform="translate(247485,129736)"/>
  <path d="M 115415 151184 C 115762,140197 119285,129547 125567,120530 C 135359,105316 140512,87571 140390,69469 C 140390,51045 133081,33375 120074,20347 C 107067,7319 89421,0 71024,0 C 52466,-5 34647,7261 21377,20244 C 8107,33226 432,50895 2,69469 C -120,87571 5033,105316 14831,120530 C 21043,129573 24534,140212 24887,151184 L 24887 188868 L 70241 212662 L 115415 188868 L 115415 151184 Z M 71197 15978 C 85352,16001 98924,21644 108941,31670 C 118951,41697 124585,55290 124611,69469 C 124707,84894 120241,100001 111777,112888 C 106002,122118 102164,132431 100503,143195 L 78133 143195 L 78133 110196 C 83562,108327 88163,104587 91102,99643 C 94041,94699 95138,88871 94188,83196 C 93239,77521 90313,72365 85930,68647 C 81547,64928 75984,62888 70241,62888 C 64491,62888 58934,64928 54552,68647 C 50162,72365 47236,77521 46293,83196 C 45343,88871 46441,94699 49380,99643 C 52318,104587 56913,108327 62348,110196 L 62348 143195 L 40326 143195 C 38657,132323 34698,121932 28704,112715 C 20273,99818 15839,84711 15954,69296 C 16429,54960 22467,41373 32779,31418 C 43091,21463 56868,15925 71197,15978 Z M 70241 95694 C 68527,95694 66846,95185 65422,94231 C 63997,93277 62887,91921 62226,90334 C 61572,88747 61398,87001 61738,85317 C 62072,83632 62893,82085 64106,80871 C 65319,79656 66866,78829 68547,78494 C 70228,78159 71973,78331 73558,78988 C 75143,79645 76497,80759 77453,82186 C 78403,83615 78910,85293 78910,87011 C 78910,89314 77999,91523 76369,93151 C 74745,94780 72538,95694 70241,95694 Z M 99636 170895 L 99636 179577 L 70241 195298 L 40845 179756 L 40845 159088 L 99636 159088 L 99636 170895 Z" fill="#2D5967" transform="translate(124953,143369)"/>
</svg>