<svg xmlns="http://www.w3.org/2000/svg" viewBox="0 0 385005 350789" width="40" height="37">
  <path d="M 269315 342104 C 264052,342149 258855,340840 254235,338312 C 249615,335784 245700,332113 242877,327654 C 240118,323194 238514,318092 238193,312837 C 237936,307575 239027,302333 241337,297610 C 242236,295698 243326,293888 244610,292220 C 233701,296769 221894,299099 210087,299073 C 188976,299054 168570,291771 152272,278450 C 135973,265132 124743,246594 120508,225970 C 120123,224069 119738,222148 119546,220214 C 116915,227091 111974,232821 105557,236372 C 99076,239924 91568,241064 84381,239589 C 77194,238114 70713,234120 66221,228324 C 61666,222528 59420,215311 59740,207969 C 59740,202474 61216,197086 64040,192344 L 0 192344 L 1668 178821 C 2887,163477 8021,148704 16555,135909 C 25154,123113 36833,112721 50565,105721 C 53452,104118 56019,101867 57879,99142 C 59805,96416 61024,93290 61537,90004 C 64617,74209 73151,59981 85600,49762 C 98049,39542 113642,33967 129748,33992 C 131866,33992 134048,33992 136165,33992 L 138347 33992 C 141235,34025 144122,33457 146753,32323 C 149383,31191 151758,29518 153747,27413 C 161704,18814 171329,11944 182110,7228 C 192826,2513 204441,53 216183,1 C 232032,-54 247561,4326 261037,12644 C 274448,20962 285357,32884 292351,47058 C 293762,50264 295816,53106 298511,55358 C 301206,57610 304350,59211 307752,60034 C 317441,62160 326745,65996 335152,71364 C 353825,83126 367300,101521 372947,122837 C 378529,144152 375898,166804 365439,186222 L 361974 192710 L 300052 192710 C 301014,197861 301527,203092 301527,208335 C 301463,222251 298319,235981 292158,248475 C 285998,260969 277143,271899 266106,280429 L 266106 280886 L 268929 280886 L 271625 280886 C 273486,281044 275282,281380 277079,281891 C 284266,283865 290554,288382 294661,294600 C 298832,300825 300565,308332 299538,315737 C 298575,323142 294982,329938 289335,334872 C 283753,339801 276502,342534 269058,342566 L 269315 342104 Z" fill="#FFFFFF" transform="translate(4299,3937)"/>
  <path d="M 220483 9138 C 235498,9076 250193,13223 262962,21106 C 275732,28989 285998,40292 292608,53728 C 294405,57318 296972,60461 300180,62928 C 303324,65395 306982,67121 310896,67983 C 320201,70069 329056,73715 337077,78765 C 354787,89860 367621,107286 373011,127502 C 378337,147717 375771,169204 365824,187593 L 363579 191704 L 298769 191704 C 303003,208658 301977,226498 295816,242852 C 289656,259206 278684,273301 264309,283261 L 268416 289842 C 270085,289477 271817,289297 273550,289291 L 275796 289291 C 277400,289432 278940,289708 280480,290112 C 286063,291633 290939,294931 294469,299513 C 297998,304094 299859,309696 299859,315465 C 299923,321234 297998,326842 294533,331436 C 291004,336024 286127,339342 280544,340876 C 274962,342409 269059,342069 263732,339919 C 258342,337763 253851,333913 250898,328953 C 247947,323993 246727,318205 247370,312475 C 248075,306744 250578,301393 254621,297241 L 250642 291030 C 238770,296535 225808,299275 212718,299051 C 199628,298820 186730,295624 175052,289701 C 163373,283784 153170,275293 145277,264871 C 137321,254448 131866,242366 129300,229533 C 128658,226517 128208,223466 127951,220395 L 120444 220395 C 119160,224272 116979,227798 114156,230697 C 111268,233596 107739,235787 103888,237097 C 100038,238408 95867,238803 91825,238250 C 87783,237697 83932,236211 80596,233911 C 77195,231610 74435,228557 72446,224994 C 70457,221431 69302,217454 69110,213378 C 68917,209302 69687,205239 71355,201509 C 73024,197779 75526,194485 78671,191887 L 9882 191887 L 10524 183481 C 11551,168873 16235,154766 24256,142500 C 32277,130234 43249,120215 56212,113396 C 59805,111581 62885,108997 65260,105834 C 67698,102672 69366,99011 70136,95121 C 72125,84866 76617,75247 83098,67084 C 89643,58922 98050,52459 107611,48246 C 115889,44656 124807,42791 133791,42764 L 139823 42764 L 142389 42764 C 145790,42717 149192,41981 152336,40599 C 155480,39218 158304,37220 160678,34723 C 168314,26555 177619,20065 187885,15661 C 198216,11257 209253,9036 220483,9138 Z M 220483 0 C 208162,10 195906,2563 184613,7500 C 173319,12437 163116,19650 154710,28692 C 153170,30334 151309,31638 149256,32519 C 147139,33400 144892,33839 142646,33809 L 140914 33809 C 138668,33672 136358,33672 134048,33809 C 116915,33840 100295,39811 87013,50706 C 73794,61600 64681,76747 61345,93568 C 60832,96135 59741,98552 58137,100641 C 56596,102729 54543,104434 52233,105630 C 37860,113111 25667,124117 16812,137611 C 7893,151103 2567,166638 1347,182749 L 706 191156 L 0 201024 L 61666 201024 C 60447,204588 59805,208321 59805,212081 C 59805,219230 61923,226217 65965,232124 C 70008,238032 75719,242583 82392,245182 C 89066,247781 96381,248306 103311,246687 C 110305,245068 116594,241382 121471,236112 C 126797,256658 138861,274848 155673,287853 C 172485,300860 193083,307951 214387,308021 C 222921,308009 231455,306873 239797,304646 C 238257,309311 237744,314246 238257,319129 C 238770,324006 240310,328722 242813,332970 C 245893,338392 250385,342890 255775,346022 C 261229,349147 267390,350796 273614,350790 C 279774,350815 285806,349205 291196,346125 C 295239,343815 298769,340728 301656,337038 C 304479,333355 306597,329139 307816,324641 C 309035,320143 309356,315446 308778,310826 C 308137,306199 306661,301739 304351,297697 C 302040,293648 298960,290099 295239,287263 C 291581,284420 287346,282346 282854,281160 L 281314 280703 C 290491,271781 297806,261114 302747,249328 C 307752,237543 310383,224879 310383,212081 C 310383,208384 310126,204692 309613,201024 L 369097 201024 L 371664 196273 L 373845 192161 C 380647,179701 384433,165828 384946,151642 C 385459,137457 382636,123350 376733,110438 C 370830,97528 362039,86167 350937,77259 C 339900,68352 326938,62141 313014,59120 C 310447,58570 308008,57469 305891,55892 C 303773,54315 302040,52299 300757,49982 C 293442,34978 281956,22338 267775,13502 C 253594,4666 237230,-12 220483,0 Z" fill="#FFFFFF"/>
  <path d="M 327323 69629 C 319238,64569 310318,60923 301014,58846 C 297099,57985 293442,56258 290298,53791 C 287089,51325 284523,48181 282726,44591 C 276116,31155 265849,19852 253080,11969 C 240310,4086 225616,-61 210600,1 C 199499,23 188527,2322 178388,6754 C 168249,11187 159073,17659 151502,25768 C 148806,28639 145469,30843 141812,32207 C 138091,33571 134111,34057 130197,33627 C 119225,32643 108124,34433 98049,38835 C 88488,43048 80082,49511 73537,57673 C 66991,65836 62564,75455 60510,85710 C 59740,89600 58072,93261 55634,96423 C 53259,99586 50179,102170 46651,103985 C 33688,110804 22651,120823 14630,133089 C 6673,145355 1925,159462 898,174070 L 0 182750 L 53131 182750 C 57623,175453 64425,169857 72446,166851 L 17582 166851 C 19571,156497 23935,146736 30287,138289 C 36640,129843 44789,122928 54158,118057 C 59740,115139 64681,110985 68467,105905 C 72254,100825 74884,94953 76104,88726 C 77644,80963 80981,73685 85922,67512 C 90926,61338 97279,56453 104530,53272 C 112166,49906 120508,48523 128850,49252 C 135138,49912 141491,49109 147459,46906 C 153362,44702 158688,41158 163051,36550 C 169148,30021 176463,24810 184676,21242 C 192826,17674 201681,15825 210600,15809 C 222664,15716 234471,19029 244738,25366 C 255005,31703 263282,40806 268609,51627 C 271432,57335 275539,62330 280608,66250 C 285678,70170 291517,72917 297741,74288 C 305249,76069 312436,79163 318853,83426 C 332520,92040 342531,105277 347215,120704 C 351835,136131 350744,152711 344135,167399 L 296265 167399 C 298255,172386 299859,177518 301014,182750 L 353696 182750 L 355942 178638 C 365952,160242 368519,138721 363257,118464 C 357931,98207 345034,80741 327323,69629 Z" fill="#2D5967" transform="translate(9882,9149)"/>
  <path d="M 199371 206608 L 195264 200485 C 206686,192513 216055,181894 222472,169532 C 228952,157170 232354,143432 232354,129487 C 232354,115542 228952,101803 222472,89441 C 216055,77080 206686,66461 195264,58489 L 198729 52001 C 200719,52467 202708,52713 204762,52732 L 207007 52732 C 208612,52547 210152,52272 211692,51910 C 216953,50501 221638,47512 225103,43350 C 228568,39187 230685,34052 231199,28645 C 231648,23238 230429,17820 227669,13129 C 224974,8438 220868,4702 215927,2428 C 210986,155 205467,-545 200141,424 C 194751,1393 189874,3984 186024,7843 C 182238,11703 179672,16644 178773,21995 C 177875,27345 178645,32845 180955,37747 C 182110,40051 183522,42200 185190,44143 L 181533 50813 C 170239,45636 157983,42955 145598,42955 C 125577,42976 106135,49909 90670,62580 C 75141,75251 64490,92883 60510,112491 C 59869,115507 59420,118558 59163,121629 L 51656 121629 C 49795,115592 45816,110427 40490,107070 C 35100,103712 28747,102386 22459,103331 C 16235,104276 10524,107431 6353,112222 C 2246,117013 0,123122 0,129441 C 0,135760 2246,141869 6353,146660 C 10524,151451 16235,154606 22459,155551 C 28747,156497 35100,155170 40490,151813 C 45816,148456 49795,143290 51656,137254 L 58970 137254 C 59227,140324 59740,143375 60383,146391 C 62949,159224 68404,171306 76296,181728 C 84253,192151 94392,200641 106071,206563 C 117749,212480 130647,215675 143737,215906 C 156827,216137 169789,213391 181725,207885 L 185639 214097 C 183650,216163 181982,218544 180763,221136 C 178837,225147 178003,229587 178260,234028 C 178516,238468 179929,242767 182303,246528 C 184677,250281 188014,253368 191928,255498 C 195842,257622 200205,258726 204633,258687 C 211050,258687 217210,256365 222023,252162 C 226771,247958 229915,242151 230749,235831 C 231584,229510 230108,223100 226578,217793 C 223050,212480 217660,208636 211499,206974 C 209959,206563 208419,206287 206879,206153 C 204312,205928 201809,206082 199371,206608 Z M 195264 20660 C 196163,19043 197511,17696 199115,16751 C 200719,15805 202515,15294 204376,15268 C 206237,15271 208034,15777 209574,16731 C 211692,18268 213167,20534 213745,23094 C 214258,25653 213873,28325 212590,30594 C 211243,32863 209189,34570 206686,35384 C 204184,36198 201489,36063 199051,35005 C 196741,33562 195008,31268 194302,28599 C 193596,25929 193917,23087 195264,20660 Z M 216440 129121 C 216440,143186 212333,156939 204505,168641 C 196676,180344 185575,189470 172613,194864 C 159587,200259 145277,201680 131481,198947 C 117685,196214 104979,189451 95033,179513 C 85087,169574 78285,156908 75526,143115 C 72767,129323 74178,115025 79569,102029 C 84959,89034 94071,77926 105749,70111 C 117492,62295 131224,58123 145277,58123 C 164143,58148 182238,65632 195585,78939 C 208869,92246 216376,110290 216440,129121 Z M 26245 139812 C 24127,139812 22074,139185 20277,138010 C 18545,136835 17197,135166 16363,133212 C 15529,131259 15336,129110 15721,127036 C 16171,124962 17197,123057 18673,121561 C 20149,120066 22074,119049 24127,118636 C 26245,118223 28363,118435 30352,119244 C 32277,120053 33945,121423 35164,123182 C 36320,124940 36961,127007 36961,129121 C 36961,130528 36704,131925 36127,133227 C 35614,134529 34843,135713 33817,136708 C 32854,137703 31635,138490 30352,139023 C 29068,139556 27656,139824 26245,139812 Z M 213681 227078 C 214836,229478 215028,232224 214258,234759 C 213488,237300 211756,239450 209446,240784 C 207136,242119 204441,242543 201809,241965 C 199243,241388 196933,239854 195393,237672 C 194494,236068 193981,234239 193981,232385 C 193981,230530 194494,228702 195393,227091 C 196355,225480 197639,224146 199307,223209 C 200911,222278 202708,221784 204569,221778 C 206430,221771 208226,222265 209830,223196 C 211435,224126 212783,225461 213681,227078 Z" fill="#2D5967" transform="translate(69045,82779)"/>
  <path d="M 46907 36459 L 36319 47058 L 47356 58206 L 76552 29148 L 47356 0 L 36319 11148 L 45431 20742 L 7957 20742 C 4556,25566 1860,30860 0,36459 L 46907 36459 Z" fill="#2D5967" transform="translate(158304,157259)"/>
  <path d="M 29389 21930 L 40169 11148 L 29132 0 L 0 29057 L 29132 58206 L 40169 47058 L 31057 37920 L 66991 37920 C 70841,33194 73921,27890 76104,22204 L 29389 21930 Z" fill="#2D5967" transform="translate(193660,210985)"/>
</svg>