<svg xmlns="http://www.w3.org/2000/svg" viewBox="0 0 385013 366830" width="40" height="39">
  <path d="M 69687 298442 L 69687 192477 L 0 192477 L 963 179329 C 2054,163894 7123,148999 15593,136060 C 24063,123121 35742,112569 49474,105406 C 52490,103884 55120,101698 57110,99012 C 59163,96327 60575,93213 61217,89907 C 64361,74138 72831,59940 85280,49720 C 97664,39500 113257,33887 129300,33834 C 131481,33703 133663,33703 135845,33834 L 138091 33834 C 141042,33868 143930,33289 146625,32134 C 149256,30979 151694,29274 153684,27129 C 163052,17036 174795,9376 187821,4808 C 200783,240 214707,-1100 228375,904 C 242043,2908 254941,8196 266106,16314 C 277272,24431 286255,35134 292352,47503 C 293892,50551 296073,53219 298769,55313 C 301463,57406 304607,58873 307944,59606 C 317762,61719 327066,65551 335537,70926 C 354274,82683 367814,101118 373461,122493 C 379043,143869 376348,166585 365824,186033 L 362359 192477 L 307367 192477 L 307367 300706 L 188398 357822 L 69687 298442 Z" fill="#FFFFFF" transform="translate(4685,4041)"/>
  <path d="M 220804 8707 C 235819,8660 250578,12827 263347,20738 C 276181,28648 286448,39985 293122,53461 C 294918,57105 297549,60291 300757,62781 C 303966,65270 307687,66996 311666,67828 C 320906,69931 329762,73581 337783,78625 C 355557,89831 368391,107344 373717,127636 C 379043,147927 376541,169491 366594,187986 L 364348 192165 L 307687 192165 L 307687 301787 L 193083 356993 L 78349 299785 L 78349 192165 L 8727 192165 L 9304 183458 C 10459,168712 15401,154510 23614,142209 C 31827,129908 43057,119917 56212,113192 C 59805,111360 62885,108749 65324,105553 C 67698,102357 69366,98659 70200,94733 C 72189,84440 76681,74786 83226,66588 C 89772,58389 98178,51886 107803,47628 C 116016,44051 124936,42185 133919,42143 C 135973,42143 137962,42143 140015,42143 L 142711 42143 C 146176,42282 149640,41704 152849,40446 C 156121,39188 159010,37275 161512,34829 C 169084,26635 178196,20087 188398,15593 C 198601,11099 209639,8755 220804,8707 Z M 220804 0 C 208483,18 196291,2571 184997,7499 C 173704,12427 163565,19625 155160,28646 C 153555,30340 151630,31686 149513,32601 C 147395,33515 145085,33977 142775,33958 L 140978 33958 C 138604,33828 136294,33828 133984,33958 C 116915,33958 100424,39852 87205,50643 C 73986,61434 64938,76456 61537,93166 C 61024,95807 59933,98298 58329,100454 C 56725,102609 54607,104374 52233,105617 C 37860,113082 25667,124096 16748,137613 C 7828,151130 2503,166702 1283,182849 L 706 191556 L 0 200873 L 69623 200873 L 69623 305357 L 74435 307706 L 188911 364912 L 192698 366830 L 196612 365002 L 311153 309798 L 316029 307359 L 316029 200873 L 369290 200873 L 371728 196258 L 374038 192165 C 385011,171776 387898,147980 382059,125560 C 376219,103140 362103,83758 342595,71311 C 333612,65664 323794,61627 313398,59382 C 310704,58813 308137,57631 305955,55925 C 303773,54220 302040,52037 300822,49543 C 293378,34650 282020,22121 267839,13367 C 253722,4613 237423,-17 220804,0 Z" fill="#FFFFFF"/>
  <path d="M 328543 69637 C 320458,64594 311666,60944 302426,58841 C 298447,58008 294662,56282 291453,53793 C 288245,51304 285678,48117 283881,44474 C 277978,32797 269315,22722 258728,15111 C 248075,7500 235755,2581 222793,775 C 209831,-1031 196676,330 184356,4740 C 172036,9152 160999,16481 152144,26102 C 149449,29007 146047,31238 142390,32614 C 138668,33990 134625,34474 130711,34026 C 114669,32583 98691,37124 85857,46771 C 72959,56419 64168,70490 61088,86268 C 60190,90171 58522,93833 56019,96983 C 53581,100133 50436,102690 46843,104466 C 33817,111304 22652,121373 14566,133717 C 6481,146062 1668,160271 642,174993 L 0 183700 L 57560 183700 L 57560 167679 L 17518 167679 C 19507,157259 23871,147429 30224,138924 C 36576,130420 44789,123462 54159,118571 C 59805,115633 64747,111462 68532,106367 C 72382,101273 74949,95385 76232,89141 C 78542,77124 85280,66407 95034,59081 C 104852,51755 117043,48347 129235,49524 C 135652,50236 142133,49432 148165,47180 C 154261,44927 159651,41286 164079,36551 C 171266,28933 180185,23166 190067,19739 C 200013,16312 210601,15326 220932,16864 C 231327,18403 241145,22420 249615,28576 C 258086,34731 264952,42844 269636,52223 C 272524,57966 276630,62993 281700,66927 C 286769,70862 292672,73603 298897,74948 C 308651,77132 317762,81453 325591,87597 C 333484,93741 339837,101556 344328,110475 C 348756,119394 351194,129193 351386,139162 C 351579,149131 349589,159021 345483,168115 L 310062 168115 L 310062 183874 L 355044 183874 L 357354 179695 C 367428,161131 370124,139404 364734,118949 C 359407,98495 346445,80857 328543,69637 Z" fill="#2D5967" transform="translate(9369,8721)"/>
  <path d="M 0 18198 L 17711 27079 L 36511 17675 L 125449 62168 L 106648 71572 L 115375 75925 L 115375 84807 L 135203 74881 L 135203 183284 L 115375 192861 L 115375 210364 L 150988 193210 L 150988 57292 L 36511 0 L 0 18198 Z" fill="#2D5967" transform="translate(156700,108577)"/>
  <path d="M 122754 185637 L 122754 78886 L 150347 65042 L 150347 56335 L 141684 52068 L 115567 65390 L 26117 20723 L 50052 8707 L 31956 0 L 0 15846 L 0 149761 L 114733 206966 L 150347 189551 L 150347 172136 L 122754 185637 Z M 16106 33435 L 106905 78886 L 106905 185374 L 16106 140010 L 16106 33435 Z" fill="#2D5967" transform="translate(78350,150020)"/>
  <path d="M 0 0 L 0 21681 L 27593 35525 L 27593 13844 L 0 0 Z" fill="#2D5967" transform="translate(106391,204178)"/>
  <path d="M 118390 67044 L 118390 99609 L 138026 89683 L 138026 57206 L 19764 0 L 0 9839 L 118390 67044 Z" fill="#2D5967" transform="translate(122177,133213)"/>
  <path d="M 0 42405 L 19636 32562 L 19636 0 L 0 9840 L 0 42405 Z" fill="#2D5967" transform="translate(240568,292995)"/>
  <path d="M 328543 69637 C 320458,64594 311666,60944 302426,58841 C 298447,58008 294662,56282 291453,53793 C 288245,51304 285678,48117 283881,44474 C 277978,32797 269315,22722 258728,15111 C 248075,7500 235755,2581 222793,775 C 209831,-1031 196676,330 184356,4740 C 172036,9152 160999,16481 152144,26102 C 149449,29007 146047,31238 142390,32614 C 138668,33990 134625,34474 130711,34026 C 114669,32583 98691,37124 85857,46771 C 72959,56419 64168,70490 61088,86268 C 60190,90171 58522,93833 56019,96983 C 53581,100133 50436,102690 46843,104466 C 33817,111304 22652,121373 14566,133717 C 6481,146062 1668,160271 642,174993 L 0 183700 L 57560 183700 L 57560 167679 L 17518 167679 C 19507,157259 23871,147429 30224,138924 C 36576,130420 44789,123462 54159,118571 C 59805,115633 64747,111462 68532,106367 C 72382,101273 74949,95385 76232,89141 C 78542,77124 85280,66407 95034,59081 C 104852,51755 117043,48347 129235,49524 C 135652,50236 142133,49432 148165,47180 C 154261,44927 159651,41286 164079,36551 C 171266,28933 180185,23166 190067,19739 C 200013,16312 210601,15326 220932,16864 C 231327,18403 241145,22420 249615,28576 C 258086,34731 264952,42844 269636,52223 C 272524,57966 276630,62993 281700,66927 C 286769,70862 292672,73603 298897,74948 C 308651,77132 317762,81453 325591,87597 C 333484,93741 339837,101556 344328,110475 C 348756,119394 351194,129193 351386,139162 C 351579,149131 349589,159021 345483,168115 L 310062 168115 L 310062 183874 L 355044 183874 L 357354 179695 C 367428,161131 370124,139404 364734,118949 C 359407,98495 346445,80857 328543,69637 Z" fill="#2D5967" transform="translate(9369,8721)"/>
  <path d="M 0 18198 L 17711 27079 L 36511 17675 L 125449 62168 L 106648 71572 L 115375 75925 L 115375 84807 L 135203 74881 L 135203 183284 L 115375 192861 L 115375 210364 L 150988 193210 L 150988 57292 L 36511 0 L 0 18198 Z" fill="#2D5967" transform="translate(156700,108577)"/>
  <path d="M 122754 185637 L 122754 78886 L 150347 65042 L 150347 56335 L 141684 52068 L 115567 65390 L 26117 20723 L 50052 8707 L 31956 0 L 0 15846 L 0 149761 L 114733 206966 L 150347 189551 L 150347 172136 L 122754 185637 Z M 16106 33435 L 106905 78886 L 106905 185374 L 16106 140010 L 16106 33435 Z" fill="#2D5967" transform="translate(78350,150020)"/>
  <path d="M 0 0 L 0 21681 L 27593 35525 L 27593 13844 L 0 0 Z" fill="#2D5967" transform="translate(106391,204178)"/>
  <path d="M 118390 67044 L 118390 99609 L 138026 89683 L 138026 57206 L 19764 0 L 0 9839 L 118390 67044 Z" fill="#2D5967" transform="translate(122177,133213)"/>
  <path d="M 0 42405 L 19636 32562 L 19636 0 L 0 9840 L 0 42405 Z" fill="#2D5967" transform="translate(240568,292995)"/>
</svg>