<svg xmlns="http://www.w3.org/2000/svg" viewBox="0 0 385013 385009" width="40" height="40">
  <path d="M 259497 376278 C 250417,376265 241716,372665 235293,366274 C 232142,363117 229652,359370 227958,355244 C 226270,351118 225417,346703 225449,342243 C 225449,337700 226386,333202 228208,329037 L 47574 148794 C 43339,150648 38764,151587 34138,151546 C 29652,151573 25205,150702 21067,148985 C 16928,147267 13174,144739 10029,141547 C 6859,138414 4338,134685 2618,130577 C 892,126467 6,122060 0,117607 C 13,108560 3619,99886 10029,93483 C 16459,87136 25141,83576 34182,83576 C 43230,83576 51912,87136 58342,93483 C 59214,94419 60049,95399 60825,96418 L 307713 30650 C 308368,24263 310819,18189 314784,13127 C 318744,8066 324063,4221 330121,2036 C 336178,-149 342730,-586 349025,775 C 355320,2137 361101,5241 365709,9731 C 370309,14222 373550,19917 375052,26160 C 376559,32404 376264,38944 374204,45029 C 372145,51113 368404,56495 363418,60555 C 358426,64616 352387,67190 345996,67983 L 279466 314727 C 280993,315741 282412,316909 283695,318212 C 288418,322993 291626,329057 292909,335647 C 294193,342230 293500,349051 290914,355244 C 288335,361442 283977,366743 278388,370484 C 272799,374225 266228,376240 259497,376278 Z" fill="#FFFFFF" transform="translate(4544,4389)"/>
  <path d="M 346215 9174 C 350098,9147 353948,9897 357535,11378 C 361122,12859 364375,15041 367102,17796 C 369868,20517 372062,23760 373564,27334 C 375059,30908 375836,34743 375836,38618 C 375836,42492 375059,46327 373564,49901 C 372062,53475 369868,56718 367102,59439 C 361770,64825 354538,67920 346947,68062 L 278762 321041 C 281046,322241 283131,323788 284928,325629 C 288868,329486 291647,334363 292949,339714 C 294258,345059 294040,350668 292314,355897 C 290594,361127 287443,365773 283215,369315 C 278986,372857 273853,375148 268386,375931 C 262919,376714 257342,375963 252286,373756 C 247223,371548 242885,367974 239753,363444 C 236622,358907 234825,353594 234562,348095 C 234306,342595 235589,337135 238278,332328 L 53036 147589 C 48679,150107 43726,151436 38682,151441 C 34799,151457 30956,150702 27369,149222 C 23782,147741 20528,145565 17795,142818 C 12277,137285 9177,129799 9177,121997 C 9177,114194 12277,106709 17795,101175 C 20541,98440 23795,96271 27382,94791 C 30962,93311 34806,92550 38682,92550 C 42564,92550 46408,93311 49988,94791 C 53575,96271 56829,98440 59575,101175 C 61090,102622 62424,104256 63528,106036 L 316679 38618 C 316685,30810 319797,23324 325322,17796 C 328062,15050 331316,12873 334902,11393 C 338490,9912 342333,9158 346215,9174 Z M 346215 1 C 337193,-42 328447,3077 321498,8811 C 314555,14545 309851,22530 308208,31371 L 67025 95580 L 66107 94663 C 61603,90185 56065,86881 49982,85042 C 43899,83203 37450,82885 31213,84117 C 24976,85349 19136,88092 14215,92106 C 9293,96119 5436,101278 2991,107127 C 540,112977 -429,119338 174,125648 C 777,131959 2927,138024 6437,143310 C 9947,148596 14708,152940 20298,155957 C 25887,158975 32143,160574 38502,160614 C 42692,160646 46863,159964 50829,158596 L 227324 334529 C 225970,338418 225290,342512 225303,346631 C 225341,352971 226946,359202 229974,364778 C 232997,370355 237354,375097 242660,378594 C 247961,382097 254044,384241 260377,384837 C 266711,385434 273089,384472 278954,382033 C 284826,379595 290004,375751 294027,370842 C 298051,365933 300803,360120 302042,353902 C 303274,347684 302960,341254 301111,335190 C 299270,329126 295952,323601 291461,319117 C 290729,318474 290081,317741 289343,317190 L 354217 76409 C 361584,74914 368341,71275 373634,65952 C 379076,60540 382778,53637 384274,46122 C 385769,38606 384986,30818 382021,23747 C 379063,16676 374065,10642 367654,6414 C 361244,2186 353717,-47 346029,1 L 346215 1 Z" fill="#FFFFFF"/>
  <path d="M 357925 8626 C 353793,4507 348524,1702 342794,566 C 337064,-570 331128,13 325732,2241 C 320329,4471 315715,8245 312474,13088 C 309228,17931 307495,23624 307495,29448 C 307457,34323 308637,39132 310915,43444 C 313199,47756 316517,51439 320573,54162 C 324628,56885 329299,58565 334170,59052 C 339034,59539 343943,58817 348467,56951 C 352984,55085 356969,52134 360062,48359 C 363161,44584 365272,40105 366209,35319 C 367146,30534 366877,25592 365433,20934 C 363982,16276 361403,12048 357925,8626 Z M 346605 38987 C 344180,41460 340869,42877 337404,42931 C 333939,42848 330640,41435 328202,38987 C 325757,36542 324345,33262 324243,29815 C 324365,26371 325777,23098 328202,20642 C 330666,18225 333945,16818 337404,16698 C 340798,16785 344045,18146 346484,20508 C 348922,22871 350379,26063 350558,29448 C 350494,32904 349076,36197 346605,38620 L 346605 38987 Z M 50391 91730 C 47651,88995 44392,86826 40811,85346 C 37224,83866 33380,83105 29504,83105 C 25622,83105 21785,83866 18198,85346 C 14617,86826 11358,88995 8618,91730 C 3099,97264 0,104749 0,112552 C 0,120354 3099,127840 8618,133373 C 14156,138896 21670,141998 29504,141998 C 37339,141998 44854,138896 50391,133373 C 55929,127851 59041,120361 59041,112552 C 59041,104742 55929,97252 50391,91730 Z M 39072 122367 C 37814,123620 36326,124614 34683,125293 C 33040,125972 31282,126321 29504,126321 C 27727,126321 25969,125972 24326,125293 C 22683,124614 21188,123620 19930,122367 C 17415,119826 16003,116398 16003,112827 C 16003,109256 17415,105828 19930,103287 C 21188,102034 22683,101040 24326,100361 C 25969,99682 27727,99333 29504,99333 C 31282,99333 33040,99682 34683,100361 C 36326,101040 37814,102034 39072,103287 C 41594,105828 43005,109256 43005,112827 C 43005,116398 41594,119826 39072,122367 Z M 233971 316644 C 229838,320764 227028,326006 225885,331717 C 224750,337428 225334,343351 227573,348728 C 229806,354112 233592,358707 238450,361941 C 243307,365181 249018,366907 254858,366907 C 260703,366907 266415,365181 271272,361941 C 276129,358707 279916,354112 282148,348728 C 284388,343351 284972,337428 283830,331717 C 282694,326006 279877,320764 275751,316644 C 273011,313898 269758,311716 266171,310231 C 262590,308744 258740,307979 254858,307979 C 250976,307979 247132,308744 243545,310231 C 239964,311716 236711,313898 233971,316644 Z M 264432 347002 C 261878,349511 258445,350923 254858,350923 C 251277,350923 247838,349511 245290,347002 C 244032,345751 243031,344262 242351,342626 C 241671,340990 241324,339238 241324,337467 C 241324,335696 241671,333938 242351,332301 C 243031,330665 244032,329176 245290,327925 C 247825,325397 251270,323972 254858,323972 C 258451,323972 261891,325397 264432,327925 C 266966,330453 268391,333886 268391,337467 C 268391,341041 266966,344474 264432,347002 Z M 318724 66688 C 323595,69039 328869,70440 334272,70816 L 272619 300132 C 267743,297828 262462,296488 257072,296188 L 318724 66688 Z M 225411 308112 C 223524,310020 221830,312107 220354,314347 L 52695 147224 C 54941,145753 57039,144063 58952,142179 C 60947,140267 62763,138180 64380,135942 L 231674 302700 C 229421,304172 227329,305862 225411,307745 L 225411 308112 Z M 70912 108883 C 70386,103499 68827,98267 66312,93473 L 295624 32291 C 295990,37647 297395,42881 299763,47702 L 70912 108883 Z M 307681 58800 C 305762,56894 304036,54805 302528,52563 L 226797 128420 C 222369,125981 217403,124688 212346,124659 C 208464,124654 204627,125413 201039,126893 C 197453,128373 194199,130544 191459,133282 C 189393,135331 187654,137682 186307,140253 L 71098 113102 C 70983,118363 69892,123558 67877,128420 L 182899 155938 C 183329,163191 186448,170026 191652,175112 C 196856,180198 203773,183173 211056,183456 L 237834 299949 C 242775,297779 248088,296565 253478,296371 L 226700 179879 C 229088,178520 231282,176855 233233,174926 C 235986,172197 238167,168952 239650,165378 C 241138,161804 241895,157972 241883,154104 C 241915,149057 240612,144091 238110,139703 L 313841 64212 C 311647,62716 309581,61027 307681,59167 L 307681 58800 Z M 198820 153828 C 198877,150370 200295,147074 202779,144656 C 204030,143402 205525,142408 207168,141729 C 208810,141051 210569,140701 212346,140701 C 214123,140701 215882,141051 217524,141729 C 219167,142408 220662,143402 221914,144656 C 224397,147074 225821,150370 225873,153828 C 225790,157280 224371,160567 221914,163001 C 220662,164255 219167,165249 217524,165928 C 215882,166606 214123,166956 212346,166956 C 210569,166956 208810,166606 207168,165928 C 205525,165249 204030,164255 202779,163001 C 200321,160567 198903,157280 198820,153828 Z" fill="#2D5967" transform="translate(9170,9165)"/>
</svg>