<svg xmlns="http://www.w3.org/2000/svg" viewBox="0 0 385011 385011" width="40" height="40">
  <path d="M 187917 375841 C 291703,375841 375841,291703 375841,187917 C 375841,84131 291703,0 187917,0 C 84131,0 0,84131 0,187917 C 0,291703 84131,375841 187917,375841 Z" fill="#FFFFFF" transform="translate(4589,4588)"/>
  <path d="M 192506 9170 C 228767,9170 264214,19918 294360,40067 C 324513,60209 348012,88841 361891,122344 C 375764,155846 379396,192711 372318,228273 C 365247,263835 347787,296503 322145,322145 C 296503,347787 263836,365247 228273,372318 C 192711,379396 155846,375764 122344,361891 C 88841,348011 60210,324513 40067,294360 C 19918,264213 9170,228767 9170,192505 C 9170,143878 28485,97247 62866,62866 C 97248,28484 143879,9170 192506,9170 Z M 192506 0 C 154435,0 117210,11287 85556,32444 C 53895,53594 29223,83663 14657,118834 C 84,154011 -3728,192717 3697,230063 C 11127,267403 29460,301707 56385,328626 C 83304,355551 117608,373884 154948,381315 C 192294,388739 231001,384927 266178,370355 C 301348,355788 331418,331116 352567,299455 C 373724,267801 385011,230577 385011,192505 C 385011,141453 364727,92486 328626,56385 C 292525,20284 243564,0 192506,0 L 192506 0 Z" fill="#FFFFFF"/>
  <path d="M 137500 15311 C 163103,15272 188373,21099 211364,32354 C 234356,43603 254466,59972 270149,80211 L 200571 132187 L 26399 57476 C 57045,30326 96560,15330 137500,15311 Z M 137500 0 C 111441,32 85697,5634 61980,16434 C 38263,27233 17133,42974 0,62609 L 203048 149699 L 291601 83605 C 274936,57906 252111,36794 225193,22190 C 198274,7585 168128,-45 137500,0 Z" fill="#2D5967" transform="translate(55006,9169)"/>
  <path d="M 28258 20168 L 108745 54729 L 129645 244026 C 96315,232668 67375,211166 46893,182527 C 26404,153882 15405,119546 15425,84337 C 15418,62307 19782,40497 28258,20168 Z M 20655 0 C 7545,25218 486,53138 24,81558 C -438,109972 5716,138103 17991,163739 C 30267,189368 48337,211794 70770,229242 C 93203,246696 119384,258689 147246,264284 L 122952 44276 L 20655 0 Z" fill="#2D5967" transform="translate(9050,108169)"/>
  <path d="M 169039 25571 C 171420,36967 172619,48582 172613,60222 C 172600,101104 157707,140574 130718,171278 C 103729,201976 66485,221804 25943,227060 L 16318 139515 L 169039 25571 Z M 178209 0 L 0 132643 L 12289 243564 C 40882,242371 68802,234497 93808,220579 C 118815,206661 140215,187083 156295,163405 C 172376,139733 182694,112622 186422,84247 C 190144,55871 187173,27021 177747,0 L 178209 0 Z" fill="#2D5967" transform="translate(187918,132277)"/>
</svg>