<svg xmlns="http://www.w3.org/2000/svg" viewBox="0 0 296246 385010" width="31" height="40">
  <path d="M 138065 372267 C 53946,330397 3658,265773 0,194783 L 0 60979 L 142640 0 L 285274 60979 L 285274 193872 C 280705,265773 231327,330397 147209,371356 L 142640 374089 L 138065 372267 Z" fill="#FFFFFF" transform="translate(4563,4562)"/>
  <path d="M 147209 10010 L 285274 69174 L 285274 198422 C 281616,267595 232245,331308 149955,372267 L 147209 374089 L 144469 372267 C 62179,331308 12802,268506 9144,198422 L 9144 69174 L 147209 10010 Z M 147209 0 L 143551 1822 L 5486 60986 L 0 62802 L 0 69174 L 0 198422 L 0 199333 C 4575,272145 55775,338591 140811,381372 L 143551 383188 L 148126 385011 L 152695 383188 L 155442 381372 C 240471,338591 291671,273056 296246,200244 L 296246 69174 L 296246 62802 L 290760 60074 L 150866 1822 L 147209 0 Z" fill="#FFFFFF"/>
  <path d="M 138065 0 L 0 59157 L 0 188405 C 3658,257578 53035,321291 135325,362250 L 138065 364072 L 140811 362250 C 223101,321291 272472,257578 276130,188405 L 276130 59157 L 138065 0 Z M 263328 188405 C 259670,252118 213957,310370 138982,349513 C 62179,310370 17377,252118 13719,188405 L 13719 67351 L 138065 14560 L 262417 67351 C 263328,67351 263328,188405 263328,188405 Z" fill="#2D5967" transform="translate(9138,10010)"/>
  <path d="M 31090 0 C 13719,0 0,13655 0,30948 C 0,48242 13719,61897 31090,61897 C 45720,61897 57604,51880 61262,38232 L 102406 38232 L 102406 61897 L 116119 61897 L 116119 38232 L 131667 38232 L 131667 63713 L 145380 63713 L 145380 25488 L 62179 25488 C 58522,10928 46631,0 31090,0 Z M 31090 49153 C 21034,49153 13719,40959 13719,31860 C 13719,22754 21946,14566 31090,14566 C 40234,14566 48460,22754 48460,31860 C 48460,40959 41145,49153 31090,49153 Z" fill="#2D5967" transform="translate(74988,151090)"/>
</svg>