<svg xmlns="http://www.w3.org/2000/svg" viewBox="0 0 322138 385010" width="34" height="40">
  <path d="M 49198 0 C 22048,0 0,22047 0,49197 C 0,66527 8951,81738 22529,90500 L 22529 166176 L 49198 148074 L 75866 166079 L 75866 90404 C 89342,81642 98300,66431 98300,49197 C 98300,22047 76251,0 49102,0 L 49198 0 Z M 43320 137775 L 34465 143742 L 34465 95988 C 37352,96854 40240,97528 43320,97913 L 43320 137775 Z M 64021 143742 L 55165 137775 L 55165 97913 C 58246,97528 61133,96854 64021,95988 L 64021 143742 Z M 49198 86456 C 28593,86456 11935,69704 11935,49197 C 11935,28690 28690,11938 49198,11938 C 69706,11938 86454,28690 86454,49197 C 86454,69704 69706,86456 49198,86456 Z" fill="#2C5A67" transform="translate(112148,202086)"/>
  <path d="M 0 24840 L 24743 24840 L 0 0 L 0 24840 Z" fill="#FFFFFF" transform="translate(208914,89250)"/>
  <path d="M 23300 51412 L 35139 51412 L 35139 23299 L 49583 38318 L 58150 30135 L 29267 0 L 0 30135 L 8566 38414 L 23300 23203 L 23300 51412 Z" fill="#2C5A67" transform="translate(132078,12805)"/>
  <path d="M 11942 8472 L 27150 23203 L 0 23203 L 0 35045 L 27053 35045 L 11942 49486 L 20219 58055 L 50353 29172 L 20219 0 L 11942 8472 Z" fill="#2C5A67" transform="translate(258965,162611)"/>
  <path d="M 315497 185429 L 285363 156257 L 279011 150095 L 272844 156450 L 264566 164922 L 258984 170698 L 258984 110044 L 256385 107445 L 215946 66912 L 213347 64313 L 181096 64313 L 181385 63735 L 187834 57573 L 196400 49390 L 202856 43228 L 196689 36777 L 167807 6643 L 161454 0 L 155005 6643 L 125834 36777 L 119668 43132 L 126027 49294 L 134497 57573 L 140850 63735 L 141138 64217 L 63443 64217 L 63443 171276 L 57572 165114 L 49391 156546 L 43224 150095 L 36775 156257 L 6641 185140 L 0 191495 L 6641 197945 L 36775 227116 L 43128 233279 L 49294 226924 L 57572 218452 L 63443 212387 L 63443 307508 L 125834 307508 L 125834 385011 L 139791 375578 L 161454 360845 L 183118 375482 L 196978 384818 L 196978 307315 L 258984 307315 L 258984 212290 L 264566 218067 L 272748 226635 L 278914 233086 L 285363 226924 L 315497 198041 L 322138 191687 L 315497 185236 L 315497 185429 Z M 63347 197656 L 36005 197656 L 51123 212387 L 42839 220859 L 12705 191687 L 42839 162804 L 51027 171373 L 36005 185814 L 63251 185814 L 63251 197656 L 63347 197656 Z M 140657 51219 L 132187 42940 L 161358 12805 L 190240 42940 L 181674 51123 L 167326 36104 L 167326 64120 L 155487 64120 L 155487 36007 L 140753 51219 L 140657 51219 Z M 188123 292585 L 188123 368256 L 161454 350257 L 134786 368352 L 134786 292681 C 121208,283920 112256,268708 112256,251378 C 112256,224228 134304,202181 161454,202181 C 188604,202181 210652,224228 210652,251378 C 210652,268612 201701,283824 188219,292585 L 188123 292585 Z M 108021 191783 L 108021 179941 L 214791 179941 L 214791 191687 L 107925 191687 L 108021 191783 Z M 108021 157605 L 108021 145763 L 214791 145763 L 214791 157508 L 107925 157508 L 108021 157605 Z M 250122 298746 L 196978 298746 L 196978 297399 C 200931,294318 204396,290852 207379,286905 L 238187 286905 L 238187 125930 L 196978 125930 L 196978 85012 L 84240 85012 L 84240 286808 L 115433 286808 C 118416,290659 121882,294126 125834,297206 L 125834 298650 L 72305 298650 L 72305 73171 L 209593 73171 L 250026 113703 L 250026 298458 L 250122 298746 Z M 279203 220859 L 271015 212290 L 286037 197945 L 259080 197945 L 259080 186103 L 286230 186103 L 271015 171373 L 279299 162900 L 309433 192072 L 279299 220955 L 279203 220859 Z" fill="#FFFFFF"/>
  <path d="M 38321 8568 L 30140 0 L 0 28883 L 30140 58054 L 38418 49582 L 23203 34852 L 50546 34852 L 50546 23010 L 23300 23010 L 38321 8568 Z" fill="#2C5A67" transform="translate(12783,162805)"/>
  <path d="M 0 0 L 0 225576 L 53433 225576 L 53433 224036 C 49487,220955 46022,217489 43038,213638 L 11845 213638 L 11845 11842 L 124679 11842 L 124679 52760 L 165888 52760 L 165888 213445 L 135081 213445 C 132091,217393 128625,220859 124679,223940 L 124679 225384 L 177823 225384 L 177823 40533 L 137391 0 L 0 0 Z M 136525 40918 L 136525 16079 L 161268 40918 L 136525 40918 Z" fill="#2C5A67" transform="translate(72318,73170)"/>
  <path d="M 106770 0 L 0 0 L 0 11842 L 106770 11842 L 106770 0 Z" fill="#2C5A67" transform="translate(107932,179846)"/>
  <path d="M 106770 0 L 0 0 L 0 11842 L 106770 11842 L 106770 0 Z" fill="#2C5A67" transform="translate(107932,145572)"/>
  <path d="M 0 47755 L 8855 41781 L 8855 1926 C 5775,1541 2887,963 0,0 L 0 47755 Z" fill="#FFFFFF" transform="translate(146632,298170)"/>
  <path d="M 0 41781 L 8855 47755 L 8855 0 C 6064,866 3080,1541 0,1926 L 0 41781 Z" fill="#FFFFFF" transform="translate(167320,298170)"/>
  <path d="M 37256 0 C 16652,0 0,16752 0,37259 C 0,57766 16748,74518 37256,74518 C 57765,74518 74512,57766 74512,37259 C 74512,16752 57765,0 37256,0 Z M 29171 63639 L 9048 43517 L 17422 35141 L 29171 46887 L 55262 20699 L 63636 29075 L 29171 63639 Z" fill="#FFFFFF" transform="translate(124109,214024)"/>
  <path d="M 20123 26091 L 8477 14442 L 0 22818 L 20219 42940 L 54684 8280 L 46214 0 L 20123 26091 Z" fill="#2C5A67" transform="translate(133054,234722)"/>
</svg>