<svg xmlns="http://www.w3.org/2000/svg" viewBox="0 0 385010 385010" width="40" height="40">
  <path d="M 306731 375845 L 306731 352924 L 334035 352924 L 206609 224589 C 202971,268590 192961,307091 177483,336426 C 158374,369428 139258,375845 126514,375845 C 124692,375845 121965,375845 119231,374927 C 82822,368510 60068,312591 51880,263091 C 48235,244756 46419,222756 45508,199838 L 0 199838 L 0 176921 L 45508 176921 C 46419,153087 48235,130170 51880,110920 C 63713,43084 91928,916 126514,916 C 146541,916 182033,15583 201149,112753 C 202971,125587 204793,138420 205698,151254 L 333130 22917 L 305820 22917 L 305820 0 L 372267 0 L 372267 66918 L 350424 66918 L 350424 37584 L 212981 176921 L 330397 176921 L 312192 159504 L 327670 143004 L 374994 187922 L 328574 234673 L 312192 218173 L 331308 198922 L 213893 198922 L 350424 337344 L 350424 308925 L 373178 308925 L 373178 375845 L 306731 375845 Z" fill="#FFFFFF" transform="translate(4556,4584)"/>
  <path d="M 373178 9167 L 373178 66919 L 359523 66919 L 359523 31167 L 207521 185171 L 207521 186088 L 345874 186088 L 323120 164088 L 332219 154004 L 373178 192505 L 333130 232840 L 324025 223673 L 347690 199839 L 207521 199839 L 359523 352926 L 359523 318092 L 373178 318092 L 373178 375841 L 315837 375841 L 315837 362096 L 349513 362096 L 206616 218173 C 204793,260340 195688,303425 177490,338257 C 160196,367595 142903,374930 130159,374930 C 128337,374930 125603,374930 123787,374012 C 89201,367595 68262,311675 60074,265841 C 57341,246590 54614,222756 54614,198922 L 9099 198922 L 9099 185171 L 54614 185171 C 54614,160421 57341,136587 60986,115503 C 72818,51335 99211,10083 131070,10083 C 149269,10083 182039,24750 200244,118253 C 202971,132920 204793,148504 205705,165921 L 349513 22917 L 315837 22917 L 315837 9167 L 373178 9167 Z M 382277 0 L 373178 0 L 315837 0 L 306731 0 L 306731 9167 L 306731 22917 L 306731 32084 L 315837 32084 L 327670 32084 L 213893 145754 C 212981,135671 211165,126504 210254,117336 C 191139,21084 157463,917 131975,917 C 94661,917 65535,44001 52791,114586 C 49153,132920 47331,154004 46419,176921 L 9099 176921 L 0 176921 L 0 186088 L 0 199839 L 0 209006 L 9099 209006 L 45508 209006 C 46419,230089 48242,251174 51880,268590 C 60986,319925 83740,376758 122876,384093 C 125603,384093 128337,385011 131070,385011 C 144719,385011 165657,377676 185678,343757 C 200244,315342 210254,280508 213893,240173 L 327670 352926 L 315837 352926 L 306731 352926 L 306731 362096 L 306731 375841 L 306731 385011 L 315837 385011 L 373178 385011 L 382277 385011 L 382277 375841 L 382277 318092 L 382277 308925 L 373178 308925 L 359523 308925 L 350424 308925 L 350424 318092 L 350424 330923 L 229370 208089 L 324936 208089 L 316748 216339 L 310376 222756 L 316748 229173 L 325847 238340 L 332219 244757 L 338591 238340 L 378639 198005 L 385011 191588 L 378639 185171 L 338591 146670 L 332219 140254 L 325847 146670 L 316748 156754 L 310376 163171 L 316748 169588 L 323120 176005 L 228459 176005 L 350424 53168 L 350424 66919 L 350424 76085 L 359523 76085 L 373178 76085 L 382277 76085 L 382277 66919 L 382277 9167 L 382277 0 Z" fill="#FFFFFF"/>
  <path d="M 364072 57752 L 364072 0 L 306731 0 L 306731 13751 L 340407 13751 L 197510 156755 C 196599,139337 194777,123753 192050,109086 C 173845,14667 141081,917 122876,917 C 91017,917 64624,42168 52791,107253 C 48235,128337 46419,152171 45508,176921 L 0 176921 L 0 190672 L 45508 190672 C 45508,214506 48235,237423 51880,257591 C 60068,303425 81006,359342 115593,365759 C 117415,365759 119231,366676 121965,366676 C 134709,366676 152002,359342 169296,330011 C 187500,295175 195688,252090 198422,209923 L 341318 353843 L 307643 353843 L 307643 366676 L 364072 366676 L 364072 308925 L 350424 308925 L 350424 343762 L 198422 190672 L 337680 190672 L 314015 214506 L 323114 223673 L 364072 183338 L 324025 144837 L 314926 154921 L 337680 176921 L 198422 176921 L 198422 176005 L 350424 22001 L 350424 57752 L 364072 57752 Z M 153818 320841 C 145630,333675 134709,349261 121054,349261 C 120143,349261 119231,349261 118320,349261 C 98300,345591 76457,306175 68262,254840 C 64624,235590 62802,213589 61890,190672 L 142897 190672 L 119231 214506 L 129248 223673 L 169296 183338 L 127426 143004 L 118320 153087 L 142897 176921 L 62802 176921 C 62802,154004 65535,130170 69174,110920 C 80095,46751 104672,18334 121965,18334 C 138347,18334 161101,43085 174756,112753 C 186589,175088 183855,264007 153818,320841 Z" fill="#2D5967" transform="translate(9099,9171)"/>
</svg>