<svg xmlns="http://www.w3.org/2000/svg" viewBox="0 0 385012 381805" width="40" height="40">
  <path d="M 113514 365707 L 101001 362133 L 86698 347823 L 18769 347823 C 8939,347823 0,339776 0,329047 L 0 18777 C 0,8941 8040,0 18769,0 L 328921 0 C 339650,0 347690,8047 347690,18777 L 347690 102827 C 384337,145746 384337,210125 347690,253939 L 347690 329047 C 347690,339776 339650,347823 328921,347823 L 137648 347823 L 116196 369281 L 113514 365707 Z" fill="#FFFFFF" transform="translate(4479,4477)"/>
  <path d="M 333393 8942 C 341440,8942 347697,15201 347697,23248 L 347697 109086 C 384343,151112 384343,214597 347697,256621 L 347697 333519 C 347697,341565 341440,347822 333393,347822 L 139438 347822 L 120662 366604 L 108149 362131 L 92954 346930 L 23242 346930 C 15195,346930 8939,340673 8939,332627 L 8939 23248 C 8939,15201 15195,8942 23242,8942 L 333393 8942 Z M 333393 0 L 23242 0 C 10729,0 0,10730 0,23248 L 0 333519 C 0,346038 10729,356767 23242,356767 L 89380 356767 L 101893 369286 L 103683 371070 L 105467 371968 L 115304 375543 L 119770 381805 L 127817 374651 L 144796 358557 L 334285 358557 C 346798,358557 357527,347822 357527,335309 L 357527 259304 C 394174,214597 394174,149323 357527,105510 L 357527 23248 C 356629,10730 345906,0 333393,0 Z" fill="#FFFFFF"/>
  <path d="M 181443 63482 C 181443,64380 180551,65272 179652,65272 L 12513 65272 C 11621,66170 10723,67062 9831,67954 L 0 77791 L 179652 77791 C 187699,77791 193956,71535 193956,63482 L 193956 0 C 190381,3577 185915,7153 181443,10730 L 181443 63482 Z" fill="#2D5967" transform="translate(153722,270043)"/>
  <path d="M 66145 332709 L 65253 330919 L 63463 325555 L 14303 325555 C 13411,325555 12513,324663 12513,323764 L 12513 13497 C 12513,12603 13411,11709 14303,11709 L 324455 11709 C 325353,11709 326245,12603 326245,13497 L 326245 75194 C 330711,78770 335184,82347 338758,85923 L 338758 14392 C 338758,6344 332502,85 324455,85 L 14303 85 C 6256,-809 0,5450 0,13497 L 0 323764 C 0,331817 6256,338074 14303,338074 L 71509 338074 L 67935 334500 L 66145 332709 Z" fill="#2D5967" transform="translate(8932,9747)"/>
  <path d="M 8939 39342 L 17877 39342 L 17877 0 L 11621 0 L 0 8047 L 0 13412 L 8939 9836 L 8939 39342 Z" fill="#2D5967" transform="translate(36640,41136)"/>
  <path d="M 8939 0 L 0 0 L 0 8045 L 8939 8045 L 8939 0 Z" fill="#2D5967" transform="translate(69706,72427)"/>
  <path d="M 8939 0 L 0 0 L 0 8044 L 8939 8044 L 8939 0 Z" fill="#2D5967" transform="translate(69706,50968)"/>
  <path d="M 8939 40237 L 17877 25037 L 26816 40237 L 36647 40237 L 24134 19671 L 35755 0 L 25924 0 L 17877 14307 L 9831 0 L 0 0 L 11621 19671 L 0 40237 L 8939 40237 Z" fill="#2D5967" transform="translate(93834,40236)"/>
  <path d="M 18769 0 C 12513,0 8047,1788 5364,5365 C 1790,8942 0,14306 0,20566 C 0,26825 1790,32189 4466,35766 C 8047,39343 12513,41131 17877,41131 C 24134,41131 28600,39343 31282,35766 C 34856,32189 35755,26825 35755,20566 C 35755,14306 33964,8942 31282,5365 C 29498,1788 25026,0 18769,0 Z M 26816 31296 C 25026,33978 22343,34872 19661,34872 C 16979,34872 13405,33084 11621,31296 C 9830,29507 8939,25930 8939,21460 C 8939,16989 9830,13413 11621,11624 C 13405,8942 16087,8047 18769,8047 C 21451,8047 24134,8942 25918,11624 C 27708,14306 28600,16989 28600,21460 C 28600,25037 27708,28613 26816,31296 Z" fill="#2D5967" transform="translate(140317,39328)"/>
  <path d="M 35755 0 L 25924 0 L 17877 13412 L 9837 0 L 0 0 L 11621 19671 L 0 40237 L 8939 40237 C 8939,40237 9837,40237 9837,39343 L 17877 25037 L 22350 32189 C 25032,31296 27708,29507 30390,28613 L 25032 18778 L 35755 0 Z" fill="#2D5967" transform="translate(188591,40236)"/>
  <path d="M 31282 5363 C 27708,1788 23235,0 17871,0 C 11614,0 7148,1788 4466,5363 C 892,8939 0,14301 0,20558 C 0,22345 0,23239 0,24133 C 1784,24133 4466,23239 8040,23239 C 8040,22345 8040,21452 8040,21452 C 8040,16983 8939,13407 10722,11620 C 12513,8939 15195,8045 17871,8045 C 20553,8045 23235,8939 25026,11620 C 26809,14301 27708,16983 27708,21452 L 27708 22345 C 30390,22345 33964,22345 36647,22345 L 36647 21452 C 35748,14301 34856,8939 31282,5363 Z" fill="#2D5967" transform="translate(236852,39328)"/>
  <path d="M 35755 0 L 25924 0 L 17877 13412 L 9837 0 L 0 0 L 11621 19671 L 8939 25037 C 11621,25930 14303,26825 16985,26825 L 17877 25037 L 19668 27719 C 24134,29507 28606,31296 32180,33084 L 24134 19671 L 35755 0 Z" fill="#2D5967" transform="translate(284228,40236)"/>
  <path d="M 15195 26824 C 16979,24141 18769,22354 20553,20565 C 22343,18777 23235,16989 23235,15200 C 24134,13412 25026,12518 25026,10730 C 25026,7153 24134,4471 21451,2682 C 18769,894 16087,0 11614,0 C 9831,0 8040,0 5358,894 C 3574,1788 1784,1788 0,2682 L 0 9835 C 3574,8047 7148,7153 9831,7153 C 14297,7153 16087,8941 16087,12518 C 16087,12518 16087,13412 16087,14306 C 16087,15200 15195,16094 14297,17882 C 13405,18777 11614,20565 9831,23248 L 0 33977 L 0 39342 L 25026 39342 L 25026 32189 L 9831 32189 L 15195 26824 Z" fill="#2D5967" transform="translate(37532,112665)"/>
  <path d="M 8939 0 L 0 0 L 0 8044 L 8939 8044 L 8939 0 Z" fill="#2D5967" transform="translate(69706,143965)"/>
  <path d="M 8939 0 L 0 0 L 0 8045 L 8939 8045 L 8939 0 Z" fill="#2D5967" transform="translate(69706,123392)"/>
  <path d="M 35755 0 L 25924 0 L 17877 13412 L 9831 0 L 0 0 L 11621 18777 L 0 39342 L 8939 39342 L 17877 25036 L 26816 39342 L 36647 39342 L 24134 18777 L 35755 0 Z" fill="#2D5967" transform="translate(94732,112665)"/>
  <path d="M 5364 6259 C 1784,9836 0,15201 0,21460 C 0,27719 1784,33084 4466,36660 C 5364,33084 7148,28613 8040,25037 C 8040,24142 8040,22354 8040,20565 C 8040,16095 8939,12519 10722,10730 C 12513,8942 14303,7153 17877,7153 C 19661,4471 20559,2683 22343,0 C 21451,0 19661,0 17877,0 C 13405,894 8939,2683 5364,6259 Z" fill="#2D5967" transform="translate(141209,110878)"/>
  <path d="M 95643 25036 L 78658 46496 C 72401,54543 65253,62591 58098,70635 L 42903 85836 L 17877 61696 L 33072 46496 C 40227,39342 48268,32189 57206,25930 L 79550 9836 C 76874,6259 74191,3577 71509,0 L 49159 16095 C 40227,22354 32180,30401 24134,37555 L 0 61696 L 42011 103720 L 66145 79580 C 74191,71533 81340,63484 87596,54543 L 105474 33083 C 102791,30401 99217,27719 95643,25036 Z" fill="#2D5967" transform="translate(90260,251256)"/>
  <path d="M 4466 0 L 0 3581 L 4466 16992 L 29492 41132 L 42005 45604 L 46477 41132 L 4466 0 Z" fill="#2D5967" transform="translate(78651,320993)"/>
  <path d="M 111504 224208 C 140104,224208 168704,213478 191054,191125 C 234849,147311 234849,76673 191054,32860 C 147252,-10953 76641,-10953 32846,32860 C -10949,76673 -10949,147311 32846,191125 C 54298,213478 82898,224208 111504,224208 Z M 41785 41802 C 61446,22130 86472,12294 112396,12294 C 138314,12294 163346,22130 183007,41802 C 221444,80250 221444,143734 183007,182183 C 144570,220631 81114,220631 41785,182183 C 2456,143734 2456,81144 41785,41802 Z" fill="#2D5967" transform="translate(151279,69974)"/>
  <path d="M 33964 72426 C 44693,72426 52734,68850 58098,63484 C 63463,57225 66145,48284 66145,36660 C 66145,25036 63463,16095 57206,9836 C 51842,3577 43795,0 33072,0 C 22343,0 15195,3577 8939,9836 C 3574,16095 0,25036 0,36660 C 0,48284 2682,57225 8939,63484 C 16087,68850 23242,72426 33964,72426 Z M 21451 18777 C 24134,14306 28600,12518 34856,12518 C 40221,12518 44693,14306 48268,18777 C 50950,23248 52734,28613 52734,35766 C 52734,42919 50950,49178 48268,53649 C 45585,58120 40221,59908 33964,59908 C 28600,59908 24134,58120 20560,53649 C 17877,49178 16087,43814 16087,35766 C 16985,28613 17877,22354 21451,18777 Z" fill="#2D5967" transform="translate(196625,145751)"/>
  <path d="M 32181 25036 L 17877 894 L 898 894 L 21452 33978 L 0 69743 L 16093 69743 L 31289 43814 L 46484 69743 L 48268 69743 C 50950,65273 52740,60802 54524,55437 L 41119 33978 L 53632 13412 C 51842,8941 50058,4471 47376,0 L 45585 0 L 32181 25036 Z" fill="#2D5967" transform="translate(271715,145751)"/>
  <path d="M 88488 177265 C 110832,177265 134067,168324 151052,151335 C 185909,116463 185909,61026 151052,26154 C 116196,-8718 60774,-8718 25918,26154 C 8939,43143 0,65497 0,88745 C 0,111992 8939,134346 25918,151335 C 43795,168324 66138,177265 88488,177265 Z M 34856 35095 C 50051,19895 68820,12742 88488,12742 C 108149,12742 127811,19895 142114,35095 C 171612,64603 171612,112887 142114,142393 C 112616,171901 64354,171901 34856,142393 C 20553,128087 12513,109310 12513,88745 C 12513,68179 20553,49402 34856,35095 Z" fill="#2D5967" transform="translate(174288,93658)"/>
</svg>