<svg xmlns="http://www.w3.org/2000/svg" viewBox="0 0 385012 344368" width="40" height="36">
  <path d="M 101598 336335 L 101598 192026 L 0 192026 L 905 179153 C 1983,163731 7014,148845 15509,135923 C 24012,123000 35697,112475 49442,105360 C 52464,103802 55095,101586 57142,98875 C 59195,96164 60600,93028 61268,89699 C 64406,73947 72908,59766 85338,49570 C 97767,39375 113353,33795 129441,33780 C 131571,33657 133714,33657 135844,33780 L 138148 33780 C 141100,33813 144026,33232 146740,32075 C 149455,30917 151899,29208 153915,27056 C 163309,16994 175007,9357 188007,4801 C 201008,245 214919,-1096 228549,896 C 242184,2887 255127,8151 266273,16235 C 277426,24319 286441,34982 292550,47308 C 294109,50399 296343,53102 299089,55216 C 301829,57330 305012,58803 308400,59525 C 318173,61721 327503,65546 335999,70840 C 354614,82638 368070,101025 373678,122314 C 379280,143602 376617,166220 366222,185631 L 362853 191944 L 297151 191944 C 297151,218100 297151,229579 296246,234580 L 296984 234580 C 296715,241329 295297,247982 292801,254259 L 309221 265984 C 316530,271428 323441,277370 329922,283774 L 344456 298289 L 314149 328545 L 305936 336168 L 101598 336335 Z" fill="#FFFFFF" transform="translate(4428,3864)"/>
  <path d="M 220765 8200 C 235851,8147 250648,12313 263476,20225 C 276309,28138 286666,39480 293372,52968 C 295194,56634 297825,59838 301066,62338 C 304312,64838 308086,66569 312096,67399 C 321420,69454 330313,73117 338379,78222 C 356148,89435 369001,106953 374352,127249 C 379704,147544 377150,169109 367210,187600 L 364990 191782 L 297395 191782 L 297395 238436 C 297119,245800 295335,253028 292139,259672 L 311191 273365 C 318339,278669 325090,284481 331398,290750 L 342980 302307 L 315632 329694 L 308650 336091 L 110139 336091 L 110139 191782 L 8868 191782 L 9445 183583 C 10505,168873 15317,154678 23428,142349 C 31532,130021 42666,119969 55769,113151 C 59337,111307 62449,108684 64868,105476 C 67280,102268 68943,98558 69732,94620 C 71785,84316 76290,74655 82861,66450 C 89438,58246 97889,51738 107508,47474 C 115798,43868 124743,41998 133791,41981 C 135812,41856 137847,41856 139868,41981 L 142499 41981 C 146041,41984 149544,41257 152798,39846 C 156045,38436 158971,36371 161390,33782 C 169000,25685 178202,19237 188418,14836 C 198633,10436 209645,8177 220765,8200 Z M 220765 1 C 208438,-22 196233,2502 184927,7412 C 173621,12322 163456,19514 155063,28534 C 153407,30281 151405,31665 149185,32596 C 146965,33528 144578,33988 142172,33946 L 140362 33946 C 138065,33946 135761,33946 133464,33946 C 116446,34029 99975,39973 86839,50773 C 73704,61574 64701,76568 61351,93227 C 60819,95954 59664,98523 57983,100739 C 56308,102956 54145,104761 51662,106018 C 37314,113466 25128,124462 16254,137956 C 7380,151450 2124,166990 988,183091 L 327 191290 L 0 199982 L 101925 199982 L 101925 344369 L 312096 344369 L 314399 342155 L 321381 335764 L 348973 308210 L 354807 302390 L 348973 296653 L 336737 284923 C 330153,278410 323127,272356 315709,266805 L 301829 256802 C 303761,250969 304896,244901 305198,238764 C 305198,235156 305198,228433 305198,215068 L 305198 199982 L 369591 199982 L 371888 195636 L 374108 191536 C 385049,171219 387885,147519 382033,125203 C 376181,102886 362077,83610 342569,71253 C 333676,65685 323897,61665 313655,59364 C 310870,58753 308252,57522 306006,55762 C 303761,54001 301938,51757 300680,49197 C 293288,34366 281886,21898 267762,13203 C 253638,4509 237359,-65 220765,1 Z" fill="#FFFFFF"/>
  <path d="M 329177 70032 C 321169,64944 312327,61282 303061,59209 C 299076,58356 295342,56615 292127,54116 C 288912,51617 286307,48424 284503,44778 C 278645,33069 270033,22953 259401,15296 C 248768,7639 236435,2670 223460,817 C 210485,-1038 197247,278 184895,4650 C 172536,9022 161428,16320 152516,25920 C 149801,28847 146452,31110 142717,32533 C 138989,33955 134978,34498 131000,34119 C 114887,32579 98774,37083 85812,46754 C 72844,56425 63950,70569 60857,86430 C 60074,90367 58412,94078 55993,97285 C 53580,100494 50468,103117 46894,104961 C 33797,111779 22664,121831 14553,134159 C 6449,146487 1636,160683 577,175393 L 0 183592 L 89521 183592 L 89521 167767 L 17332 167767 C 19353,157330 23717,147486 30088,138967 C 36461,130448 44674,123476 54126,118571 C 59785,115641 64714,111472 68545,106376 C 72369,101279 74993,95386 76219,89136 C 78548,77118 85286,66400 95117,59077 C 104941,51753 117152,48351 129357,49533 C 135729,50175 142165,49339 148165,47092 C 154158,44846 159555,41248 163931,36579 C 171118,28856 180063,22987 190016,19474 C 199968,15961 210626,14909 221073,16408 C 231519,17907 241453,21913 250007,28082 C 258567,34251 265497,42400 270213,51829 C 273069,57581 277195,62617 282270,66563 C 287346,70509 293243,73263 299532,74623 C 307084,76266 314291,79236 320803,83397 C 334523,92033 344655,105326 349333,120830 C 354011,136333 352920,153002 346265,167767 L 300270 167767 L 300270 183592 L 355788 183592 L 358008 179410 C 367948,160919 370502,139354 365150,119058 C 359805,98763 346952,81245 329177,70032 Z" fill="#2D5967" transform="translate(9035,8200)"/>
  <path d="M 187256 42718 L 144469 0 L 0 0 L 0 236961 L 181917 236961 L 178799 233759 C 174737,229768 170900,225552 167300,221137 L 15849 221137 L 15849 15579 L 129357 15579 L 129357 59445 L 171490 59445 L 171490 82321 C 174416,84383 177162,86686 179704,89208 C 182591,92023 185177,95128 187423,98474 L 187256 42718 Z M 145123 22876 L 166151 43866 L 145123 43866 L 145123 22876 Z" fill="#2D5967" transform="translate(110133,99220)"/>
  <path d="M 0 0 L 0 15825 L 28580 15825 C 29389,10404 30820,5093 32854,0 L 0 0 Z" fill="#2D5967" transform="translate(147838,209745)"/>
  <path d="M 49275 0 L 0 0 L 0 15824 L 77862 15824 C 67159,13013 57334,7572 49275,0 Z" fill="#2D5967" transform="translate(147838,284763)"/>
  <path d="M 0 15742 L 34497 15742 C 32033,10750 30236,5458 29158,0 L 0 0 L 0 15742 Z" fill="#2D5967" transform="translate(147838,249258)"/>
  <path d="M 45912 15743 C 46323,15333 46734,14841 47222,14431 C 53343,8251 60626,3346 68660,0 L 0 0 L 0 15743 L 45912 15743 Z" fill="#2D5967" transform="translate(147838,174239)"/>
  <path d="M 104225 78231 C 109795,66582 111052,53344 107780,40857 C 104514,28372 96923,17442 86361,10002 C 75798,2562 62939,-909 50060,203 C 37182,1316 25112,6940 15981,16080 C 6856,25220 1260,37288 189,50150 C -883,63011 2633,75837 10122,86359 C 17604,96880 28577,104418 41096,107646 C 53615,110867 66866,109571 78519,103975 L 92238 123078 C 97519,130163 103307,136849 109564,143086 L 121229 154733 L 155066 120865 L 143483 109308 C 137163,103019 130386,97207 123199,91924 L 104225 78231 Z M 26857 82166 C 20440,75755 16443,67319 15551,58295 C 14659,49271 16930,40218 21974,32679 C 27024,25140 34532,19580 43220,16948 C 51915,14316 61251,14774 69644,18244 C 78031,21713 84962,27981 89242,35977 C 93522,43974 94895,53206 93124,62099 C 91353,70992 86547,78997 79527,84749 C 72507,90501 63703,93646 54623,93646 C 49464,93659 44356,92652 39588,90682 C 34820,88711 30496,85817 26857,82166 Z M 132562 120460 L 133056 120460 L 121557 132017 L 121063 131529 C 115294,125972 109917,120030 104963,113735 L 91494 95204 C 92155,94548 92810,93973 93387,93318 L 95273 91350 L 113671 104630 C 120344,109443 126658,114730 132562,120460 Z" fill="#2D5967" transform="translate(187755,181442)"/>
  <path d="M 39996 25172 L 39996 15661 L 0 0 L 0 12053 L 24718 20334 L 0 28862 L 0 40997 L 39996 25172 Z" fill="#2D5967" transform="translate(226515,217854)"/>
</svg>