<svg xmlns="http://www.w3.org/2000/svg" viewBox="0 0 385034 364695" width="40" height="38">
  <path d="M 42531 356615 L 42531 341683 L 61711 332129 L 71689 332129 L 71689 263096 L 108926 263096 C 109747,260401 111416,258040 113681,256371 C 115946,254697 118692,253798 121510,253805 L 108143 204658 C 106038,202842 104357,200590 103196,198062 C 102413,196380 101887,194596 101636,192768 L 0 192768 L 956 179652 C 2047,164200 7084,149287 15580,136338 C 24070,123389 35742,112833 49474,105672 C 52438,104132 55025,101944 57040,99268 C 59054,96592 60440,93499 61101,90220 C 64201,74415 72690,60183 85120,49954 C 97543,39720 113142,34124 129235,34124 C 131404,33996 133573,33996 135742,34124 L 138001 34124 C 140908,34137 143789,33553 146465,32398 C 149134,31249 151547,29562 153536,27438 C 162892,17286 174577,9560 187584,4928 C 200591,301 214528,-1098 228196,859 C 241857,2816 254845,8065 266030,16163 C 277214,24255 286268,34952 292403,47324 C 293860,50429 295996,53163 298659,55325 C 301316,57494 304428,59028 307765,59824 C 317550,61993 326893,65842 335363,71201 C 353992,83014 367467,101443 373082,122779 C 378703,144115 376046,166792 365657,186255 L 362186 192678 L 277214 192678 L 290407 276469 L 306552 276469 L 306552 332129 L 315227 332129 L 334407 341683 L 334407 356615 L 42531 356615 Z M 212295 332129 L 212295 276469 L 228440 276469 L 244148 176700 C 241678,174666 239637,172163 238142,169327 C 236653,166497 235742,163391 235466,160202 L 177580 132328 C 174205,134413 170342,135581 166382,135716 L 138084 183649 C 138790,185716 139143,187891 139130,190073 C 139137,192678 138610,195251 137584,197644 C 136551,200032 135036,202188 133137,203965 L 121946 253805 C 125212,253952 128305,255313 130621,257629 C 132148,259156 133284,261036 133919,263096 L 171760 263096 L 171760 332565 L 212295 332129 Z" fill="#FFFFFF" transform="translate(4684,3742)"/>
  <path d="M 220624 8682 C 235658,8638 250411,12802 263200,20701 C 275995,28607 286319,39933 293012,53402 C 294815,57040 297414,60223 300616,62712 C 303812,65208 307534,66954 311499,67820 C 320720,69925 329518,73563 337532,78588 C 355262,89811 368083,107329 373428,127625 C 378773,147922 376245,169488 366350,187995 L 364092 192076 L 276778 192076 L 291363 284549 L 306898 284549 L 306898 340209 L 318789 340209 L 334587 348108 L 334587 356007 L 51553 356007 L 51553 348108 L 67351 340209 L 80717 340209 L 80717 271176 L 117428 271176 C 117351,269944 117537,268712 117967,267564 C 118404,266408 119077,265363 119950,264490 C 120758,263637 121734,262956 122818,262494 C 123896,262026 125064,261788 126238,261788 C 127419,261788 128581,262026 129665,262494 C 130743,262956 131718,263637 132533,264490 C 133400,265363 134073,266408 134510,267564 C 134946,268712 135126,269944 135049,271176 L 172369 271176 L 172369 340639 L 221233 340639 L 221233 284549 L 236685 284549 L 250052 199712 L 253433 178357 C 250719,176534 248505,174057 246991,171163 C 245476,168269 244706,165035 244751,161769 L 244751 160986 L 182264 131032 C 178985,133650 174917,135088 170720,135113 L 168988 135113 L 138257 187212 C 139836,190254 140298,193744 139573,197094 C 138841,200437 136967,203421 134266,205532 L 132707 212565 L 131058 219861 L 126194 241306 L 120380 220117 L 116472 205968 C 114367,204460 112686,202420 111614,200058 C 110736,198159 110293,196080 110312,193982 C 110267,193404 110267,192827 110312,192249 L 9375 192249 L 9978 183561 C 11037,168873 15837,154698 23922,142384 C 32001,130076 43102,120040 56154,113232 C 59702,111378 62789,108760 65195,105558 C 67595,102356 69251,98659 70040,94732 C 72972,79929 80935,66595 92582,57001 C 104229,47408 118833,42146 133919,42114 C 135915,42114 138000,42114 139996,42114 L 142685 42114 C 146150,42230 149596,41633 152823,40362 C 156045,39092 158977,37180 161435,34735 C 168981,26560 178132,20027 188315,15542 C 198505,11063 209497,8727 220624,8682 Z M 220624 0 C 208310,26 196131,2587 184844,7515 C 173556,12443 163405,19642 155012,28658 C 153433,30346 151527,31687 149403,32598 C 147286,33509 144995,33971 142685,33952 L 140863 33952 C 138552,33824 136236,33824 133919,33952 C 116831,33971 100276,39920 87077,50777 C 73877,61641 64849,76746 61538,93520 C 60954,96106 59798,98531 58162,100623 C 56526,102708 54447,104403 52073,105590 C 37712,113072 25501,124109 16613,137655 C 7726,151201 2451,166793 1303,182957 L 693 191640 L 0 200758 L 102676 200758 L 103716 203536 C 104979,206225 106712,208663 108836,210742 L 112051 222293 L 117864 243128 L 120816 253722 C 118153,254537 115741,256000 113783,257977 C 112571,259209 111544,260614 110748,262148 L 72036 262148 L 72036 331610 L 65356 331610 L 63533 332566 L 47735 340382 L 42877 342724 L 42877 364695 L 343263 364695 L 343263 342724 L 338488 340382 L 322697 332476 L 321131 331527 L 315927 331527 L 315927 275867 L 298826 275867 L 286936 200758 L 369475 200758 L 371907 196240 L 374160 192076 C 385113,171645 387917,147819 382001,125405 C 376091,102997 361910,83657 342306,71292 C 333426,65690 323653,61634 313405,59305 C 310703,58734 308162,57560 305974,55878 C 303780,54197 301990,52048 300738,49583 C 293352,34651 281930,22094 267768,13328 C 253613,4563 237276,-51 220624,0 Z M 174018 143622 C 177034,143192 179967,142281 182700,140927 L 235986 166980 C 237019,172832 239875,178215 244148,182348 L 241543 198756 L 229306 276124 L 212552 276124 L 212552 331783 L 181051 331783 L 181051 262494 L 141729 262494 C 140927,260941 139868,259530 138610,258323 C 136794,256507 134600,255115 132187,254242 L 134702 243128 L 139477 221683 L 141125 214387 L 142165 209960 C 146285,205628 148582,199879 148588,193898 C 148588,191903 148325,189920 147806,187995 L 173845 143706 L 174018 143622 Z" fill="#FFFFFF"/>
  <path d="M 21349 0 L 40882 19539 L 0 40811 L 21349 0 Z" fill="#FFFFFF" transform="translate(132014,227850)"/>
  <path d="M 32983 14849 L 44090 25962 L 20746 38116 L 32983 14849 Z M 30724 346 L 25257 10767 L 13110 34125 L 0 58611 L 24480 45842 L 47735 33688 L 58240 28215 L 49557 19533 L 39060 8682 L 30377 0 L 30724 346 Z" fill="#FFFFFF" transform="translate(121509,220291)"/>
  <path d="M 0 19539 L 19527 0 L 40792 40811 L 0 19539 Z" fill="#FFFFFF" transform="translate(80198,227850)"/>
  <path d="M 25950 14502 L 38103 37769 L 14842 25616 L 25950 14502 Z M 28208 0 L 19527 8682 L 8676 19449 L 0 28131 L 10414 33605 L 33759 45759 L 58239 58522 L 45823 33778 L 33675 10421 L 28208 0 Z" fill="#FFFFFF" transform="translate(72645,220644)"/>
  <path d="M 328331 69933 C 320316,64915 311518,61270 302297,59165 C 298326,58318 294604,56580 291402,54083 C 288200,51587 285601,48398 283811,44753 C 277965,33036 269360,22910 258740,15255 C 248120,7600 235800,2639 222838,798 C 209869,-1037 196657,304 184330,4712 C 171997,9114 160928,16449 152060,26087 C 149346,28981 145996,31201 142274,32568 C 138552,33941 134561,34429 130621,33986 C 114592,32510 98582,37014 85671,46633 C 72754,56246 63854,70299 60665,86084 C 59888,90011 58239,93714 55833,96916 C 53427,100118 50334,102742 46779,104584 C 33721,111386 22626,121428 14547,133736 C 6462,146050 1662,160224 603,174913 L 0 183595 L 89136 183595 C 89528,177787 91819,172269 95643,167880 L 17531 167880 C 19552,157452 23903,147615 30262,139100 C 36621,130591 44815,123629 54242,118733 C 59876,115801 64778,111642 68590,106560 C 72408,101484 75039,95613 76290,89382 C 78593,77300 85325,66513 95168,59140 C 105012,51767 117255,48340 129492,49527 C 135883,50227 142351,49418 148383,47172 C 154408,44926 159831,41301 164207,36591 C 171400,29032 180301,23308 190163,19907 C 200026,16506 210556,15524 220881,17052 C 231199,18573 240997,22557 249461,28660 C 257919,34769 264791,42815 269488,52133 C 272414,57805 276547,62759 281603,66641 C 286659,70530 292512,73257 298736,74624 C 308477,76773 317608,81066 325475,87201 C 333336,93329 339734,101145 344193,110064 C 348653,118983 351059,128788 351245,138767 C 351431,148738 349384,158626 345258,167706 L 282681 167706 C 281378,170138 279806,172410 277997,174483 L 279383 183165 L 355153 183165 L 357412 179083 C 367204,160571 369649,139042 364258,118804 C 358868,98571 346035,81111 328331,69933 Z" fill="#2D5967" transform="translate(9375,8648)"/>
  <path d="M 11611 81135 C 10649,81295 9712,81584 8833,82001 C 5291,83490 2461,86287 934,89817 C 934,90773 330,91639 67,92595 C -22,93609 -22,94623 67,95637 C 48,97735 491,99808 1370,101713 C 2441,104075 4116,106109 6228,107617 L 10135 121772 L 15949 142961 L 20813 121509 L 22462 114220 L 24022 107187 C 26723,105076 28596,102092 29328,98742 C 30053,95399 29591,91902 28012,88860 L 58736 36762 L 60475 36762 C 64563,36736 68529,35363 71756,32854 L 133903 62988 L 133903 63771 C 133852,67037 134622,70264 136137,73165 C 137651,76059 139865,78529 142579,80352 L 139544 101540 L 126178 186204 L 110726 186204 L 110726 229614 L 196391 229614 L 196391 186204 L 180855 186204 L 164191 80352 C 167778,78048 170518,74647 172006,70656 C 173495,66658 173649,62295 172443,58207 C 171243,54120 168747,50526 165333,47979 C 161926,45425 157774,44052 153513,44058 C 148848,44090 144337,45746 140756,48749 L 78616 18615 C 78635,15709 77968,12840 76671,10241 C 75375,7636 73482,5377 71153,3645 C 68817,1912 66109,751 63248,263 C 60379,-225 57440,-32 54668,821 C 51890,1681 49355,3183 47270,5204 C 45184,7232 43599,9715 42649,12462 C 41706,15208 41418,18147 41815,21022 C 42213,23903 43285,26649 44940,29036 L 14126 81135 C 13293,81045 12445,81045 11611,81135 Z M 180599 214419 L 126524 214419 L 126524 202175 L 180599 202175 L 180599 214419 Z M 164884 186377 L 142149 186377 L 147526 152252 L 153513 114303 L 164884 186377 Z" fill="#2D5967" transform="translate(110508,98178)"/>
  <path d="M 267230 0 L 15792 0 L 0 7899 L 0 15805 L 15792 15805 L 267230 15805 L 283028 15805 L 283028 7899 L 267230 0 Z" fill="#2D5967" transform="translate(51559,340209)"/>
  <path d="M 0 66613 L 91652 66613 L 91652 9388 L 54332 9388 C 54408,8162 54229,6930 53792,5775 C 53356,4620 52682,3574 51816,2701 C 51001,1848 50026,1168 48948,706 C 47864,237 46702,0 45521,0 C 44347,0 43179,237 42101,706 C 41017,1168 40041,1848 39226,2701 C 38360,3574 37686,4620 37250,5775 C 36820,6930 36634,8162 36711,9388 L 0 9388 L 0 66613 Z M 15708 25192 L 75507 25192 L 75507 51245 L 15708 51245 L 15708 25192 Z" fill="#2D5967" transform="translate(80717,261782)"/>
  <path d="M 23344 11114 L 12237 0 L 0 23274 L 23344 11114 Z" fill="#2D5967" transform="translate(142255,235139)"/>
  <path d="M 0 11114 L 23255 23274 L 11108 0 L 0 11114 Z" fill="#2D5967" transform="translate(87487,235139)"/>
</svg>