<svg xmlns="http://www.w3.org/2000/svg" viewBox="0 0 479832 513347" width="50" height="54">
  <path d="M 462244 164225 L 454409 164225 L 452740 157292 C 446952,132114 432784,109650 412558,93577 C 392332,77505 367249,68777 341414,68823 L 340516 68823 L 338719 64201 L 327804 33898 L 324724 25680 L 315863 23883 L 199147 1669 L 190035 0 L 183997 6933 L 106314 96814 L 100154 104005 L 103362 112736 L 110421 131996 L 111711 142397 C 110838,132247 106179,122797 98665,115922 C 91145,109047 81321,105252 71131,105289 L 0 105289 L 0 158447 L 59709 158447 L 80121 419745 C 80878,427875 84061,435588 89258,441883 C 94456,448184 101431,452772 109266,455050 C 109202,456167 109202,457277 109266,458394 C 109266,472966 115060,486942 125366,497254 C 135671,507559 149647,513347 164226,513347 C 178799,513347 192775,507559 203087,497254 C 213392,486942 219180,472966 219180,458394 L 219180 456597 L 308162 456597 L 308162 458394 C 308162,472966 313950,486942 324256,497254 C 334561,507559 348544,513347 363116,513347 C 377695,513347 391671,507559 401977,497254 C 412282,486942 418070,472966 418070,458394 C 418134,457797 418134,457194 418070,456597 L 447607 456597 L 447607 403690 L 132251 403690 L 132251 398300 L 412038 398300 C 422722,398306 433034,394386 441010,387282 C 448993,380179 454081,370393 455307,359780 L 477650 182073 L 479832 164225 L 462244 164225 Z" fill="#FFFFFF"/>
  <path d="M 248325 95017 C 249686,75310 258323,56813 272562,43122 C 286801,29430 305621,21520 325366,20929 C 341928,20916 358060,26242 371355,36119 C 384658,45995 394418,59895 399198,75757 L 420637 75757 C 415516,54247 403311,35084 385986,21346 C 368660,7607 347222,89 325109,0 C 299833,694 275738,10837 257578,28428 C 239419,46018 228510,69778 227009,95017 L 82816 95017 L 79864 58550 C 79222,52467 76348,46838 71792,42756 C 67236,38674 61326,36432 55211,36466 L 0 36466 L 0 57780 L 55211 57780 C 56051,57743 56879,58026 57527,58574 C 58169,59122 58579,59894 58676,60734 L 80121 333716 C 80698,339876 83560,345606 88148,349764 C 92736,353922 98710,356213 104902,356187 L 113629 356187 C 110787,362059 109484,368553 109837,375072 C 110190,381585 112198,387906 115664,393431 C 119129,398962 123941,403518 129646,406682 C 135357,409839 141774,411494 148300,411494 C 154826,411494 161242,409839 166953,406682 C 172658,403518 177477,398962 180942,393431 C 184407,387906 186409,381585 186762,375072 C 187122,368553 185813,362059 182970,356187 L 311371 356187 C 308554,362059 307270,368546 307643,375047 C 308021,381547 310036,387848 313501,393360 C 316973,398872 321779,403415 327484,406566 C 333182,409710 339592,411359 346105,411359 C 352612,411359 359022,409710 364720,406566 C 370425,403415 375231,398872 378703,393360 C 382168,387848 384189,381547 384561,375047 C 384933,368546 383650,362059 380833,356187 L 414605 356187 L 414605 334871 L 104902 334871 C 104056,334909 103228,334627 102586,334075 C 101944,333530 101534,332760 101431,331919 L 98736 297634 L 396112 297634 C 402856,297595 409356,295118 414406,290652 C 419456,286192 422722,280052 423595,273365 L 446317 95017 L 248325 95017 Z M 166017 373904 C 166017,377408 164983,380834 163033,383748 C 161088,386661 158316,388933 155082,390274 C 151842,391615 148280,391968 144841,391281 C 141408,390601 138251,388913 135774,386436 C 133291,383953 131603,380796 130923,377363 C 130236,373924 130589,370362 131930,367122 C 133271,363888 135543,361116 138456,359171 C 141369,357221 144796,356187 148300,356187 C 150629,356187 152933,356643 155082,357535 C 157232,358427 159183,359729 160832,361372 C 162474,363021 163783,364972 164669,367122 C 165561,369271 166017,371575 166017,373904 L 166017 373904 Z M 364400 373904 C 364400,377414 363354,380847 361403,383761 C 359452,386680 356674,388952 353433,390287 C 350186,391621 346619,391968 343173,391275 C 339733,390582 336576,388881 334106,386385 C 331635,383895 329954,380725 329287,377280 C 328619,373834 328985,370266 330345,367032 C 331706,363798 333997,361039 336929,359107 C 339862,357176 343301,356162 346811,356187 C 349128,356187 351425,356643 353568,357535 C 355711,358427 357656,359736 359292,361385 C 360928,363028 362218,364985 363097,367135 C 363976,369284 364419,371581 364400,373904 L 364400 373904 Z M 402920 271184 C 402734,272717 401983,274122 400828,275143 C 399667,276157 398171,276715 396625,276702 L 97068 276702 L 84227 117102 L 421792 117102 L 402920 271184 Z" fill="#2C5967" transform="translate(15927,84746)"/>
  <path d="M 41985 144965 L 23498 94503 L 85132 23112 L 177708 40832 L 183746 57909 C 190561,55570 197562,53808 204672,52644 L 193757 22342 L 77041 0 L 0 89881 L 20033 144965 L 41985 144965 Z" fill="#2C5967" transform="translate(119019,17460)"/>
</svg>