<svg xmlns="http://www.w3.org/2000/svg" viewBox="0 0 385010 350622" width="40" height="37">
  <path d="M 357745 0 L 27265 0 C 20033,0 13097,2875 7983,7989 C 2875,13103 0,20033 0,27265 L 0 257463 C 0,261044 706,264592 2073,267897 C 3446,271208 5454,274211 7983,276746 C 10517,279274 13520,281282 16831,282656 C 20136,284022 23685,284728 27265,284728 L 108875 284728 C 105737,287564 103099,290914 101072,294636 L 42781 294636 C 37969,294636 33348,296548 29947,299949 C 26546,303350 24634,307970 24634,312783 C 24634,317595 26546,322209 29947,325610 C 33348,329017 37969,330930 42781,330930 L 101072 330930 C 104338,336891 109138,341864 114983,345329 C 120829,348794 127503,350623 134298,350623 C 141094,350623 147761,348794 153606,345329 C 159452,341864 164258,336891 167524,330930 L 341883 330930 C 346696,330930 351309,329017 354710,325610 C 358118,322209 360030,317595 360030,312783 C 360030,307970 358118,303350 354710,299949 C 351309,296548 346696,294636 341883,294636 L 167524 294636 C 165497,290895 162827,287539 159632,284728 L 357745 284728 C 364971,284703 371894,281828 377002,276720 C 382110,271612 384985,264688 385011,257463 L 385011 27265 C 385011,20033 382136,13103 377028,7989 C 371914,2875 364977,0 357745,0 Z" fill="#FBF9F8"/>
  <path d="M 346875 262898 L 16395 262898 C 12064,262898 7906,261185 4832,258124 C 1758,255070 26,250924 0,246593 L 0 16389 C 0,12045 1726,7873 4800,4800 C 7873,1726 12044,0 16395,0 L 346875 0 C 351213,19 355358,1758 358413,4832 C 361467,7906 363180,12057 363180,16389 L 363180 246593 C 363180,250918 361467,255063 358406,258124 C 355352,261178 351200,262898 346875,262898 Z M 16395 14553 C 15907,14553 15439,14746 15092,15092 C 14746,15432 14553,15901 14553,16389 L 14553 246593 C 14553,247081 14746,247549 15092,247895 C 15439,248236 15907,248435 16395,248435 L 346875 248435 C 347357,248409 347818,248210 348159,247870 C 348499,247530 348698,247074 348717,246593 L 348717 16389 C 348717,15901 348524,15432 348178,15092 C 347838,14746 347369,14553 346875,14553 L 16395 14553 Z" fill="#2C5967" transform="translate(10871,10877)"/>
  <path d="M 306379 14553 L 7277 14553 C 5345,14553 3497,13783 2130,12423 C 764,11056 0,9202 0,7277 C 0,5345 764,3497 2130,2130 C 3497,764 5345,0 7277,0 L 306379 0 C 308310,0 310158,764 311525,2130 C 312885,3497 313655,5345 313655,7277 C 313655,9202 312885,11056 311525,12423 C 310158,13783 308310,14553 306379,14553 Z" fill="#2C5967" transform="translate(35505,305506)"/>
  <path d="M 19725 39451 C 30621,39451 39451,30621 39451,19725 C 39451,8830 30621,0 19725,0 C 8830,0 0,8830 0,19725 C 0,30621 8830,39451 19725,39451 Z" fill="#FFFFFF" transform="translate(114573,293057)"/>
  <path d="M 27000 53996 C 21661,53996 16438,52417 11998,49446 C 7557,46482 4098,42266 2051,37331 C 11,32397 -522,26968 518,21732 C 1557,16496 4131,11683 7910,7910 C 11683,4130 16496,1557 21732,518 C 26968,-522 32397,11 37331,2052 C 42266,4099 46482,7557 49446,11998 C 52417,16438 53996,21661 53996,27000 C 53996,34161 51153,41027 46090,46090 C 41027,51153 34161,53996 27000,53996 Z M 27000 14552 C 24536,14552 22130,15283 20083,16650 C 18036,18017 16438,19961 15501,22232 C 14558,24511 14308,27013 14789,29426 C 15270,31845 16457,34059 18196,35798 C 19935,37543 22155,38730 24568,39205 C 26987,39686 29490,39442 31761,38499 C 34039,37556 35984,35965 37351,33918 C 38717,31871 39449,29458 39449,27000 C 39462,25364 39147,23734 38525,22220 C 37902,20705 36985,19332 35830,18171 C 34668,17016 33295,16098 31774,15475 C 30260,14853 28636,14539 27000,14552 Z" fill="#2C5967" transform="translate(107298,285783)"/>
  <path d="M 248794 0 C 237924,32 227426,3934 219167,10998 C 210915,18070 205442,27843 203735,38572 L 183746 38572 C 182129,33778 179043,29607 174936,26656 C 170823,23704 165888,22119 160825,22119 C 155762,22119 150828,23704 146715,26656 C 142601,29607 139521,33778 137898,38572 L 122209 38572 C 120566,33791 117467,29633 113353,26694 C 109234,23755 104299,22177 99243,22177 C 94180,22177 89245,23755 85132,26694 C 81013,29633 77913,33791 76271,38572 L 60318 38572 C 58676,33791 55583,29633 51463,26694 C 47343,23755 42409,22177 37352,22177 C 32290,22177 27361,23755 23242,26694 C 19122,29633 16029,33791 14386,38572 L 8072 38572 C 7058,38462 6025,38565 5056,38880 C 4081,39188 3183,39701 2419,40388 C 1662,41068 1052,41902 635,42839 C 218,43769 0,44783 0,45803 C 0,46830 218,47837 635,48774 C 1052,49705 1662,50545 2419,51226 C 3183,51906 4081,52419 5056,52734 C 6025,53048 7058,53151 8072,53035 L 13944 53035 C 15362,58162 18416,62673 22645,65894 C 26874,69109 32039,70855 37352,70855 C 42666,70855 47831,69109 52060,65894 C 56288,62673 59343,58162 60755,53035 L 76187 53035 C 77599,58162 80653,62673 84882,65894 C 89111,69109 94276,70855 99589,70855 C 104902,70855 110074,69109 114297,65894 C 118525,62673 121580,58162 122998,53035 L 137551 53035 C 138937,58194 141985,62757 146227,66004 C 150462,69257 155660,71015 160999,71015 C 166344,71015 171535,69257 175770,66004 C 180012,62757 183060,58194 184446,53035 L 203998 53035 C 205339,61653 209125,69706 214900,76232 C 220682,82764 228209,87500 236595,89881 C 244982,92255 253876,92184 262224,89662 C 270573,87141 278016,82277 283682,75648 C 289348,69019 292999,60909 294193,52272 C 295386,43634 294077,34837 290426,26919 C 286769,19000 280923,12301 273576,7610 C 266228,2913 257687,430 248967,443 L 248794 0 Z M 37352 56372 C 35408,56372 33509,55794 31898,54716 C 30281,53638 29023,52105 28279,50308 C 27541,48511 27342,46541 27721,44636 C 28099,42730 29036,40984 30409,39611 C 31783,38238 33534,37301 35434,36923 C 37340,36544 39316,36736 41106,37481 C 42903,38225 44437,39483 45515,41093 C 46593,42711 47170,44610 47170,46554 C 47170,49153 46137,51649 44295,53491 C 42454,55332 39958,56372 37352,56372 Z M 99243 56372 C 97299,56372 95399,55794 93789,54716 C 92172,53638 90914,52105 90169,50308 C 89425,48511 89233,46541 89611,44636 C 89990,42730 90927,40984 92300,39611 C 93673,38238 95418,37301 97324,36923 C 99230,36544 101206,36736 102997,37481 C 104793,38225 106327,39483 107405,41093 C 108483,42711 109061,44610 109061,46554 C 109061,47837 108804,49114 108310,50308 C 107816,51502 107097,52580 106186,53491 C 105275,54402 104190,55127 102997,55621 C 101810,56115 100533,56372 99243,56372 Z M 160607 56372 C 158656,56385 156751,55826 155127,54755 C 153497,53690 152227,52163 151470,50372 C 150712,48576 150507,46599 150879,44687 C 151245,42781 152175,41023 153542,39643 C 154915,38257 156661,37314 158567,36929 C 160479,36544 162455,36730 164252,37474 C 166055,38212 167589,39470 168673,41087 C 169757,42704 170335,44603 170335,46554 C 170335,49095 169353,51540 167582,53375 C 165818,55204 163411,56276 160870,56372 L 160607 56372 Z M 248268 76617 C 242127,76617 236127,74801 231026,71387 C 225924,67980 221946,63135 219597,57463 C 217249,51790 216633,45553 217832,39534 C 219026,33515 221984,27984 226322,23646 C 230660,19302 236191,16350 242210,15150 C 248229,13950 254473,14566 260139,16915 C 265811,19263 270656,23242 274070,28343 C 277477,33451 279299,39451 279299,45585 C 279280,53722 276072,61518 270374,67319 C 264669,73120 256924,76457 248794,76617 L 248268 76617 Z" fill="#2C5967" transform="translate(46542,53562)"/>
  <path d="M 0 40150 L 35947 20072 L 0 0 L 0 40150 Z" fill="#2C5967" transform="translate(280339,79075)"/>
  <path d="M 284208 38681 L 230294 38681 C 228645,27913 223197,18095 214926,10998 C 206661,3901 196131,0 185235,0 C 174346,0 163809,3901 155544,10998 C 147279,18095 141831,27913 140182,38681 L 122645 38681 C 121079,33746 117986,29440 113809,26380 C 109632,23325 104594,21676 99416,21676 C 94238,21676 89201,23325 85023,26380 C 80846,29440 77753,33746 76187,38681 L 60491 38681 C 58958,33733 55878,29408 51707,26341 C 47530,23267 42486,21612 37307,21612 C 32129,21612 27085,23267 22915,26341 C 18737,29408 15657,33733 14123,38681 L 8072 38681 C 7058,38572 6025,38674 5056,38982 C 4081,39297 3183,39810 2419,40497 C 1662,41177 1052,42011 635,42948 C 218,43878 0,44892 0,45913 C 0,46939 218,47947 635,48883 C 1052,49814 1662,50648 2419,51335 C 3183,52015 4081,52528 5056,52843 C 6025,53157 7058,53260 8072,53144 L 14123 53144 C 15638,58124 18712,62487 22895,65586 C 27079,68686 32148,70361 37352,70361 C 42556,70361 47626,68686 51810,65586 C 55993,62487 59067,58124 60581,53144 L 76187 53144 C 77702,58124 80775,62487 84959,65586 C 89143,68686 94212,70361 99416,70361 C 104620,70361 109689,68686 113873,65586 C 118057,62487 121131,58124 122645,53144 L 140182 53144 C 142050,63687 147575,73235 155782,80114 C 163989,86993 174352,90766 185062,90766 C 195771,90766 206135,86993 214342,80114 C 222549,73235 228074,63687 229947,53144 L 284035 53144 C 285813,52952 287462,52105 288655,50770 C 289849,49435 290510,47703 290510,45913 C 290510,44122 289849,42396 288655,41061 C 287462,39727 285813,38880 284035,38681 L 284208 38681 Z M 37352 56211 C 34747,56211 32251,55178 30409,53337 C 28568,51495 27535,48999 27535,46394 C 27535,43795 28568,41292 30409,39451 C 32251,37609 34747,36576 37352,36576 C 39958,36576 42454,37609 44295,39451 C 46137,41292 47170,43795 47170,46394 C 47170,48999 46137,51495 44295,53337 C 42454,55178 39958,56211 37352,56211 Z M 99243 56211 C 97299,56211 95399,55640 93789,54562 C 92172,53478 90914,51944 90169,50154 C 89425,48357 89233,46387 89611,44481 C 89990,42576 90927,40824 92300,39451 C 93673,38077 95418,37147 97324,36768 C 99230,36390 101206,36582 102997,37327 C 104793,38071 106327,39329 107405,40939 C 108483,42556 109061,44456 109061,46394 C 108945,48922 107861,51309 106032,53054 C 104203,54806 101771,55775 99243,55775 L 99243 56211 Z M 185235 76899 C 179126,76867 173158,75026 168089,71618 C 163020,68205 159073,63373 156738,57726 C 154402,52073 153786,45861 154967,39868 C 156154,33874 159080,28356 163379,24018 C 167685,19680 173171,16709 179158,15477 C 185145,14245 191363,14804 197029,17094 C 202695,19379 207559,23287 211018,28330 C 214470,33374 216357,39322 216446,45431 C 216434,49519 215619,53561 214040,57334 C 212468,61107 210164,64528 207270,67409 C 204370,70290 200931,72574 197151,74127 C 193372,75680 189323,76476 185235,76463 L 185235 76899 Z" fill="#2C5967" transform="translate(46542,140940)"/>
  <path d="M 0 40150 L 35857 20072 L 0 0 L 0 40150 Z" fill="#2C5967" transform="translate(216787,166299)"/>
</svg>