<svg xmlns="http://www.w3.org/2000/svg" viewBox="0 0 385013 348976" width="40" height="37">
  <path d="M 377330 8030 C 374769,5438 371708,3391 368333,2011 C 364964,631 361345,-49 357700,3 L 27310 3 C 20066,3 13123,2884 7995,8004 C 2875,13125 0,20068 0,27313 L 0 258069 C 0,265313 2875,272263 7995,277384 C 13123,282504 20066,285379 27310,285379 L 106962 285379 C 104890,287561 103106,289993 101636,292617 L 43622 292617 C 39014,292938 34702,294998 31552,298373 C 28401,301748 26649,306195 26649,310809 C 26649,315429 28401,319876 31552,323251 C 34702,326626 39014,328680 43622,329001 L 101380 329001 C 104614,335039 109426,340082 115304,343599 C 121182,347115 127901,348976 134747,348976 C 141594,348976 148319,347115 154197,343599 C 160068,340082 164881,335039 168121,329001 L 343564 329001 C 348171,328680 352490,326626 355641,323251 C 358785,319876 360543,315429 360543,310809 C 360543,306195 358785,301748 355641,298373 C 352490,294998 348171,292938 343564,292617 L 167858 292617 C 166363,290012 164579,287586 162539,285379 L 357700 285379 C 361288,285379 364836,284673 368147,283300 C 371465,281927 374474,279918 377009,277384 C 379543,274842 381558,271833 382931,268522 C 384298,265211 385011,261656 385011,258069 L 385011 27313 C 385062,23751 384407,20216 383092,16905 C 381776,13593 379819,10578 377330,8030 Z" fill="#FFFFFF"/>
  <path d="M 346798 263565 L 16408 263565 C 12057,263565 7880,261833 4806,258759 C 1732,255686 0,251515 0,247164 L 0 16401 C 0,12051 1732,7880 4806,4806 C 7880,1726 12057,0 16408,0 L 346798 0 C 351142,13 355313,1739 358400,4800 C 359927,6321 361140,8130 361961,10119 C 362782,12109 363206,14245 363200,16401 L 363200 247164 C 363200,251515 361474,255686 358393,258759 C 355320,261833 351149,263565 346798,263565 Z M 16408 14573 C 15920,14573 15452,14765 15112,15105 C 14765,15452 14573,15914 14573,16401 L 14573 247164 C 14573,247645 14765,248114 15112,248460 C 15452,248800 15920,248993 16408,248993 L 346798 248993 C 347286,248993 347748,248800 348095,248460 C 348434,248114 348627,247645 348627,247164 L 348627 16401 C 348710,16016 348646,15612 348454,15266 C 348261,15015 348011,14823 347716,14701 C 347427,14579 347113,14534 346798,14573 L 16408 14573 Z" fill="#2C5967" transform="translate(10902,10911)"/>
  <path d="M 306475 14573 L 6532 14573 C 4736,14374 3080,13520 1874,12179 C 667,10832 0,9093 0,7289 C 0,5480 667,3741 1874,2393 C 3080,1052 4736,199 6532,0 L 306475 0 C 308272,199 309927,1052 311133,2393 C 312340,3741 313007,5480 313007,7289 C 313007,9093 312340,10832 311133,12179 C 309927,13520 308272,14374 306475,14573 Z" fill="#2C5967" transform="translate(37089,303525)"/>
  <path d="M 19719 39431 C 30608,39431 39438,30608 39438,19719 C 39438,8830 30608,0 19719,0 C 8830,0 0,8830 0,19719 C 0,30608 8830,39431 19719,39431 Z" fill="#FFFFFF" transform="translate(114983,291314)"/>
  <path d="M 27043 54092 C 21698,54092 16468,52507 12021,49536 C 7574,46565 4103,42336 2056,37395 C 9,32454 -524,27013 522,21770 C 1562,16521 4141,11702 7921,7923 C 11707,4137 16526,1564 21768,518 C 27017,-522 32452,11 37393,2058 C 42334,4105 46563,7570 49534,12023 C 52505,16470 54090,21700 54090,27045 C 54090,34219 51241,41098 46171,46167 C 41096,51243 34217,54092 27043,54092 Z M 27043 14660 C 24572,14660 22160,15392 20106,16765 C 18053,18138 16455,20095 15512,22380 C 14569,24664 14325,27180 14819,29599 C 15306,32024 16500,34245 18252,35984 C 20010,37729 22237,38910 24662,39378 C 27094,39853 29603,39590 31881,38634 C 34159,37678 36103,36067 37464,34001 C 38824,31935 39536,29515 39524,27045 C 39498,23753 38176,20602 35834,18280 C 33498,15957 30341,14660 27043,14660 Z" fill="#2C5967" transform="translate(107659,283982)"/>
  <path d="M 49641 0 C 39823,0 30224,2907 22061,8361 C 13899,13822 7534,21573 3780,30640 C 19,39714 -962,49692 956,59324 C 2869,68955 7598,77798 14541,84741 C 21484,91684 30326,96413 39958,98325 C 49590,100244 59568,99262 68641,95502 C 77708,91748 85466,85383 90921,77220 C 96375,69058 99282,59458 99282,49641 C 99262,36480 94026,23871 84722,14566 C 75417,5255 62802,19 49641,0 Z" fill="#FFFFFF" transform="translate(143166,93271)"/>
  <path d="M 50599 101202 C 40595,101202 30810,98231 22487,92674 C 14164,87111 7683,79212 3852,69965 C 22,60719 -979,50541 971,40730 C 2922,30912 7741,21897 14819,14819 C 21897,7741 30912,2922 40730,971 C 50548,-979 60718,22 69965,3852 C 79212,7677 87117,14164 92674,22487 C 98231,30810 101202,40589 101202,50599 C 101202,57247 99893,63824 97352,69965 C 94805,76100 91083,81682 86380,86379 C 81682,91077 76106,94805 69965,97346 C 63824,99893 57247,101202 50599,101202 Z M 50599 14569 C 43477,14569 36508,16680 30585,20639 C 24656,24598 20042,30226 17315,36809 C 14588,43393 13869,50638 15262,57626 C 16654,64620 20081,71037 25124,76081 C 30161,81118 36585,84551 43573,85937 C 50561,87329 57805,86617 64389,83890 C 70973,81163 76600,76543 80559,70620 C 84519,64690 86630,57728 86630,50599 C 86630,41044 82837,31881 76080,25118 C 69323,18361 60154,14569 50599,14569 Z" fill="#2C5967" transform="translate(142034,92313)"/>
  <path d="M 32713 18583 L 0 0 L 0 37166 L 32713 18583 Z" fill="#2C5967" transform="translate(179986,124412)"/>
  <path d="M 12827 99897 L 873 91171 C 9298,79325 13809,65137 13783,50603 C 13803,35524 8971,20842 0,8727 L 11691 0 C 22414,14393 28305,31815 28510,49763 C 28709,67711 23223,85261 12827,99897 Z" fill="#2C5967" transform="translate(249865,92046)"/>
  <path d="M 13084 150494 L 1219 141767 C 14945,122247 22202,98909 21984,75051 C 21766,51187 14079,27990 0,8721 L 11775 0 C 27599,21721 36229,47850 36467,74731 C 36698,101604 28523,127881 13084,149885 L 13084 150494 Z" fill="#2C5967" transform="translate(285203,66314)"/>
  <path d="M 12827 99897 L 873 91171 C 9298,79325 13809,65137 13783,50603 C 13803,35524 8971,20842 0,8727 L 11691 0 C 22414,14393 28305,31815 28510,49763 C 28709,67711 23223,85261 12827,99897 Z" fill="#2C5967" transform="translate(249865,92046)"/>
  <path d="M 15625 98152 C 5461,83804 0,66658 0,49076 C 0,31494 5461,14348 15625,0 L 27490 8727 C 19084,20630 14573,34850 14573,49422 C 14573,64002 19084,78215 27490,90124 L 15625 98152 Z" fill="#2C5967" transform="translate(107039,93791)"/>
  <path d="M 15625 98152 C 5461,83804 0,66658 0,49076 C 0,31494 5461,14348 15625,0 L 27490 8727 C 19084,20630 14573,34850 14573,49422 C 14573,64002 19084,78215 27490,90124 L 15625 98152 Z" fill="#2C5967" transform="translate(107039,93791)"/>
  <path d="M 23518 148313 C 8214,126611 0,100712 0,74153 C 0,47600 8214,21702 23518,0 L 35383 8721 C 21843,27984 14573,50956 14573,74506 C 14573,98049 21843,121022 35383,140285 L 23518 148313 Z" fill="#2C5967" transform="translate(63725,68579)"/>
</svg>