<svg xmlns="http://www.w3.org/2000/svg" viewBox="0 0 329120 385009" width="35" height="40">
  <path d="M 0 116421 L 898 105422 C 1861,89836 11038,77002 24770,69674 C 25667,68756 26566,67839 27529,66004 C 30288,55005 37603,45836 47677,41254 C 52233,39419 56854,38501 61410,38501 C 62372,38501 64168,38501 65067,38501 C 66030,38501 66928,38501 66928,37584 C 67826,37584 68789,35755 70585,34837 C 71484,33919 73345,33002 74243,32084 C 79762,12834 97151,0 117364,0 C 142069,0 162282,20168 162282,44918 C 162282,50417 161320,55923 159523,60505 C 161320,62340 163181,64168 164079,65086 C 174153,78837 175116,96253 167736,110922 L 165042 116421 L 0 116421 Z" fill="#FFFFFF" transform="translate(151245,4581)"/>
  <path d="M 121920 9170 C 143930,9170 162218,27503 162218,49499 C 162218,55916 160421,61416 158560,66921 C 161320,68750 163181,70585 164977,72421 C 173255,84337 175052,99917 167736,112750 L 165875 115503 L 111846 115503 L 93494 115503 L 32983 115503 L 28427 115503 L 9176 115503 L 9176 109086 C 10075,95335 18288,83419 30223,77002 C 32983,76084 34844,73338 34844,70585 C 36640,61416 43057,53170 52233,49499 C 55890,47671 60511,46753 64168,46753 C 65067,46753 65965,46753 67826,46753 C 67826,46753 67826,46753 68724,46753 C 69623,46753 71484,46753 73345,45836 C 75141,44918 79762,41254 82456,39419 C 87975,22003 103568,9170 121920,9170 Z M 121920 0 C 99911,0 81558,13751 75141,33919 C 74243,34837 73345,34837 72382,35748 C 70585,36666 69623,37583 68724,38501 C 67826,38501 65965,38501 65067,38501 C 59548,38501 54094,39419 49474,42165 C 37538,47671 29325,57752 26566,70585 L 26566 71503 C 11871,79755 1797,94417 0,110922 L 0 117338 L 0 125584 L 9176 125584 L 29325 125584 L 33881 125584 L 94392 125584 L 112744 125584 L 166838 125584 L 172292 125584 L 175052 121002 L 176913 118256 C 185126,102669 184227,82501 173255,67833 C 172292,66921 171394,66004 170496,64168 C 172292,59587 172292,54999 172292,49499 C 171394,22003 149384,0 121920,0 Z" fill="#FFFFFF" transform="translate(146689,0)"/>
  <path d="M 0 143923 L 0 131090 L 10973 125584 L 10973 0 L 70585 16498 C 78799,7334 90734,1835 103568,1835 C 128337,1835 148486,22003 148486,46753 L 148486 47671 L 148486 125584 L 159458 131090 L 159458 143923 L 0 143923 Z" fill="#FFFFFF" transform="translate(165940,236505)"/>
  <path d="M 21112 11916 L 77002 27503 C 84317,18333 95354,11916 108188,11916 C 130198,11916 148486,30249 148486,52252 C 148486,53170 148486,53170 148486,53170 L 148486 133836 L 159523 139335 L 159523 145752 L 148486 145752 L 109985 145752 L 99012 145752 L 80659 145752 L 50436 145752 L 21112 145752 L 10074 145752 L 10074 140253 L 21112 134754 L 21112 11916 Z M 11935 0 L 11935 11916 L 11935 128337 L 5518 131090 L 0 133836 L 0 139335 L 0 145752 L 0 154922 L 9176 154922 L 20149 154922 L 50436 154922 L 80659 154922 L 99012 154922 L 109985 154922 L 148486 154922 L 159523 154922 L 168699 154922 L 168699 145752 L 168699 140253 L 168699 134754 L 164078 132001 L 158560 129254 L 158560 54999 C 158560,54088 158560,54088 158560,53170 C 158560,25667 136615,3664 109086,3664 C 96253,3664 83419,9170 74243,18333 L 22908 3664 L 11935 0 Z" fill="#FFFFFF" transform="translate(160421,230088)"/>
  <path d="M 70585 157675 C 49539,157675 0,154922 0,132925 L 0 25667 C 0,2753 49539,0 70585,0 C 91697,0 141171,2753 141171,25667 L 141171 56834 L 213617 56834 C 215478,56834 216377,56834 218173,55923 L 204441 42171 L 234729 11916 L 264952 42171 L 250257 55923 L 244803 50417 C 242942,65086 230108,77002 214515,77002 L 142133 77002 L 142133 78837 L 214515 78837 C 230108,78837 242942,89836 244803,105422 L 250257 99923 L 264952 113674 L 233766 144841 L 204441 114586 L 218173 100841 C 217274,99923 215478,99923 213617,99923 L 141171 99923 L 141171 132925 C 141171,154922 91697,157675 70585,157675 Z" fill="#FFFFFF" transform="translate(4556,105416)"/>
  <path d="M 75141 9170 C 81558,9170 141171,10081 141171,30249 L 141171 65086 L 141171 66004 L 141171 66921 L 218173 66921 C 226451,66921 232867,60505 232867,52252 L 232867 44918 L 223691 54999 L 215413 47671 L 238322 23832 L 261229 47671 L 253016 54999 L 242942 44918 L 242942 51335 C 242942,65086 231006,77002 217274,77002 L 140272 77002 L 140272 88001 L 217274 88001 C 231006,88001 242942,99917 242942,113668 L 242942 120085 L 253016 110004 L 261229 117338 L 238322 141171 L 215413 118256 L 223691 110922 L 232867 121002 L 232867 114586 C 232867,106334 226451,99917 218173,99917 L 141171 99917 L 141171 101752 L 141171 102669 L 141171 136589 C 141171,155840 81558,156757 75141,156757 C 68724,156757 9176,156757 9176,136589 L 9176 101752 L 9176 100834 L 9176 65086 L 9176 64168 L 9176 29331 C 9176,9170 68724,9170 75141,9170 Z M 75141 0 C 46779,0 0,3664 0,30249 L 0 65086 L 0 66004 L 0 101752 L 0 102669 L 0 136589 C 0,162256 46779,165920 75141,165920 C 103568,165920 150347,162256 150347,136589 L 150347 108169 L 211756 108169 L 208099 110922 L 202579 118256 L 208996 124673 L 231905 148505 L 238322 154922 L 244738 148505 L 267646 124673 L 275026 118256 L 268609 111839 L 260331 104505 L 253914 98088 L 250257 101752 C 247497,93500 241080,87083 233766,83419 C 241080,79755 247497,73338 250257,65086 L 253914 68750 L 260331 62333 L 268609 54999 L 275026 48582 L 268609 42165 L 245701 18333 L 238322 10081 L 231905 16498 L 208996 40336 L 202579 46753 L 208996 53170 L 212654 55916 L 151245 55916 L 151245 29331 C 150347,3664 103568,0 75141,0 Z" fill="#FFFFFF" transform="translate(0,101751)"/>
  <path d="M 90734 32084 L 24770 32084 C 17454,32084 11038,25667 11038,18333 L 0 18333 C 0,32084 11038,43083 24770,43083 L 97151 43083 L 99012 40330 C 106328,27496 104531,10999 96253,0 C 94457,3664 91697,6417 88938,10081 C 93494,15580 93494,23832 90734,32084 Z" fill="#2C5967" transform="translate(215413,73338)"/>
  <path d="M 23806 69668 L 62307 69668 C 57752,66915 54094,63251 51335,58669 L 23806 58669 L 19251 58669 L 11935 58669 C 13731,51335 19251,44918 25667,41247 C 31186,38501 34843,33002 36640,26585 C 37603,20168 42158,15580 47677,12834 C 50436,10998 54094,10998 57752,10998 C 59548,10998 62307,10998 64168,10998 C 64168,8246 63270,5499 63270,2746 C 63270,1829 63270,917 63270,0 C 61409,917 60510,917 58649,917 C 53131,0 47677,917 43057,3664 C 33880,7334 27463,15580 25667,24750 C 24769,27496 22908,30249 21047,31167 C 9176,37583 898,49499 0,63251 L 0 69668 L 20148 69668 C 19251,69668 23806,69668 23806,69668 Z" fill="#2C5967" transform="translate(156764,46753)"/>
  <path d="M 0 40330 C 0,62333 18352,80666 40362,80666 C 62372,80666 80724,62333 80724,40330 C 80724,18333 62372,0 39464,0 C 16556,0 0,18333 0,40330 Z M 68789 40330 C 68789,56834 55955,69668 39464,69668 C 22973,69668 10139,56834 10139,40330 C 10139,23832 22973,10999 39464,10999 C 55955,10999 68789,23832 68789,40330 Z" fill="#2C5967" transform="translate(229146,9169)"/>
  <path d="M 12834 13751 L 7380 9163 L 0 17415 L 12834 30249 L 34843 8246 L 26630 0 L 12834 13751 Z" fill="#2C5967" transform="translate(251156,34837)"/>
  <path d="M 138412 122838 L 138412 68757 C 135652,73338 131995,77002 127439,80673 L 127439 123755 L 99911 123755 L 99911 90753 L 99012 90753 C 95355,90753 92595,90753 88938,89836 L 88938 123755 L 70585 123755 L 70585 96253 L 40362 96253 L 40362 123755 L 22010 123755 L 22010 14669 L 53196 23839 C 54993,20168 55955,16504 58650,13751 L 11038 0 L 11038 122838 L 0 128337 L 0 133836 L 11038 133836 L 40362 133836 L 70585 133836 L 88938 133836 L 99911 133836 L 138412 133836 L 149449 133836 L 149449 128337 L 138412 122838 Z M 51335 122838 L 51335 106340 L 59613 106340 L 59613 122838 L 51335 122838 Z" fill="#2C5967" transform="translate(170496,242004)"/>
  <path d="M 0 10998 L 25667 10998 C 23806,7334 21945,3664 21047,0 L 0 0 L 0 10998 Z" fill="#2C5967" transform="translate(200784,295174)"/>
  <path d="M 0 11923 L 20149 11923 C 20149,10087 20149,9170 20149,7334 C 20149,4588 20149,2753 21047,0 L 898 0 L 0 11923 Z" fill="#2C5967" transform="translate(200784,275006)"/>
  <path d="M 0 10998 L 45816 10998 C 40297,8252 35741,4582 32084,0 L 0 0 L 0 10998 Z" fill="#2C5967" transform="translate(200784,314425)"/>
  <path d="M 10973 10081 L 10973 0 C 7315,1835 3657,2753 0,3664 L 0 10081 L 10973 10081 Z" fill="#2C5967" transform="translate(278684,327259)"/>
  <path d="M 10973 0 L 0 0 L 0 11005 L 10973 11005 L 10973 0 Z" fill="#2C5967" transform="translate(278684,345591)"/>
  <path d="M 0 40336 C 0,62340 18352,80673 40362,80673 C 62372,80673 80724,62340 80724,40336 C 80724,18333 62372,0 40362,0 C 18352,0 0,18333 0,40336 Z M 68789 40336 C 68789,56834 55955,69668 39464,69668 C 22973,69668 10139,56834 10139,40336 C 10139,23839 22973,11005 39464,11005 C 55955,11916 68789,24750 68789,40336 Z" fill="#2C5967" transform="translate(229146,242004)"/>
  <path d="M 12834 13751 L 7380 9170 L 0 16504 L 12834 29338 L 34843 7334 L 26630 0 L 12834 13751 Z" fill="#2C5967" transform="translate(251156,268589)"/>
  <path d="M 68724 54081 C 82456,54081 94392,42165 94392,28414 L 94392 21997 L 104466 32084 L 112744 24750 L 88873 0 L 65965 23832 L 74243 31167 L 83419 21079 L 83419 27496 C 83419,35748 77002,42165 68724,42165 L 0 42165 L 0 53164 L 68724 53164 L 68724 54081 Z" fill="#2C5967" transform="translate(149449,124672)"/>
  <path d="M 69687 10087 C 77965,10087 84382,16504 84382,24750 L 84382 31173 L 75205 21086 L 66927 29338 L 89836 53170 L 112744 29338 L 104531 22003 L 94456 32084 L 94456 25667 C 94456,11916 82520,0 68788,0 L 0 0 L 0 11005 L 69687 11005 L 69687 10087 Z" fill="#2C5967" transform="translate(148486,190670)"/>
  <path d="M 131994 128337 L 131994 93500 L 131994 92589 L 131994 56834 L 131994 55916 L 131994 21086 C 131994,918 72381,0 65965,0 C 59548,0 0,918 0,21086 L 0 55916 L 0 56834 L 0 92589 L 0 93500 L 0 128337 C 0,147587 59548,148505 65965,148505 C 72381,148505 131994,148505 131994,128337 Z M 121022 92589 C 118262,96253 98049,101752 65965,101752 C 33880,101752 13731,95335 10973,92589 L 10973 68750 C 28426,76084 61409,77002 65965,77002 C 70585,77002 103567,77002 121022,68750 L 121022 92589 Z M 65965 42165 C 70585,42165 103567,42165 121022,33919 L 121022 55916 C 118262,59587 98049,65086 65965,65086 C 33880,65086 13731,58669 10973,55916 L 10973 33919 C 28426,42165 61409,42165 65965,42165 Z M 121022 21086 C 117299,24750 98049,31167 65965,31167 C 33880,31167 14630,24750 10973,21086 C 14630,17415 33880,10998 65965,10998 C 98049,10998 117299,17415 121022,21086 Z M 10973 105422 C 28426,112750 61409,113668 65965,113668 C 70585,113668 103567,113668 121022,105422 L 121022 128337 C 118262,132001 98049,137507 65965,137507 C 33880,137507 13731,131090 10973,128337 L 10973 105422 Z" fill="#2C5967" transform="translate(9177,110004)"/>
</svg>