<svg xmlns="http://www.w3.org/2000/svg" viewBox="0 0 385010 385010" width="40" height="40">
  <path d="M 20123 375845 C 9151,375845 0,366675 0,355677 L 0 20167 C 0,9166 9151,0 20123,0 L 355750 0 C 366723,0 375867,9166 375867,20167 L 375867 356594 C 375867,367593 366723,376762 355750,376762 L 20123 375845 Z" fill="#FFFFFF" transform="translate(4582,4584)"/>
  <path d="M 359407 9167 C 367634,9167 374949,16500 374949,24750 L 374949 361179 C 374949,369424 367634,376759 359407,376759 L 24692 376759 C 16459,375841 9144,368513 9144,360261 L 9144 24750 C 9144,16500 16459,9167 24692,9167 L 359407 9167 Z M 359407 0 L 24692 0 C 10973,0 0,11000 0,24750 L 0 361179 C 0,374012 10973,385011 24692,385011 L 360318 385011 C 374038,385011 385011,374012 385011,360261 L 385011 24750 C 384093,11000 373120,0 359407,0 Z" fill="#FFFFFF"/>
  <path d="M 350257 0 L 15542 0 C 7315,0 0,7334 0,15584 L 0 352008 C 0,359342 7315,366676 15542,366676 L 69501 366676 L 106994 366676 L 165522 366676 L 203016 366676 L 261550 366676 L 299044 366676 L 351168 366676 C 359401,366676 366716,359342 366716,351090 L 366716 15584 C 365805,7334 358490,0 350257,0 Z M 13713 105420 L 352085 105420 L 352085 122837 L 276181 181505 L 181070 155838 L 86878 230089 L 13713 196172 L 13713 105420 Z M 15542 13751 L 351168 13751 C 352085,13751 352997,14667 352997,15584 L 352997 91669 L 14630 91669 L 14630 15584 C 13713,14667 14630,13751 15542,13751 Z M 83220 352925 L 83220 295175 L 93275 295175 L 93275 352925 L 83220 352925 Z M 178330 352925 L 178330 220923 L 188385 220923 L 188385 352925 L 178330 352925 Z M 274352 352925 L 274352 246590 L 284414 246590 L 284414 353843 L 274352 353843 L 274352 352925 Z M 350257 352925 L 298126 352925 L 298126 232840 L 260633 232840 L 260633 352925 L 202105 352925 L 202105 207172 L 164611 207172 L 164611 352925 L 106083 352925 L 106083 281424 L 69501 281424 L 69501 352925 L 15542 352925 C 14630,352925 13713,352008 13713,351090 L 13713 210839 L 88706 245673 L 183817 170505 L 278921 196172 L 352085 140254 L 352085 352008 C 352085,352008 351168,352925 350257,352925 Z" fill="#2D5967" transform="translate(9151,9171)"/>
  <path d="M 43898 0 L 0 0 L 0 44001 L 43898 44001 L 43898 0 Z M 31090 31167 L 13713 31167 L 13713 13750 L 30178 13750 L 31090 31167 Z" fill="#2D5967" transform="translate(39323,39416)"/>
</svg>