<svg xmlns="http://www.w3.org/2000/svg" viewBox="0 0 340096 385010" width="36" height="40">
  <path d="M 248435 374955 C 188926,374955 173358,359407 170612,356661 L 167866 353921 L 167866 313681 L 60749 313681 C 40607,311852 25040,304537 14054,292647 C -3342,271612 322,245091 322,245091 C 4897,216742 21375,203023 34196,195707 C 40607,192050 46100,190221 53421,188392 C 64407,160043 87296,152727 90960,151810 C 96452,149981 102863,149070 109273,149070 C 116595,149070 123005,149981 129416,152727 C 127581,150899 125752,149070 123923,147241 C 112931,132604 113848,113405 116595,100597 C 117513,96939 118430,94199 119341,90542 C 120259,89624 120259,88713 120259,87795 L 120259 86884 C 119341,85966 118430,85966 118430,85055 C 115677,82309 113848,78651 112020,74994 C 109273,70418 106527,64932 104692,59446 L 102863 55788 C 101945,53959 101945,53042 101034,51213 C 101034,50302 100116,49384 100116,48473 C 99199,46644 96452,43898 94624,41158 C 93706,40240 92788,39329 92788,38411 C 91877,37500 91877,37500 90960,36583 C 85467,31096 76310,21035 81803,10062 C 83638,5486 87296,2746 91877,918 C 93706,0 96452,0 99199,0 C 110185,0 122088,5486 128498,9151 C 129416,10062 131244,10979 132162,11890 C 133074,12808 133991,12808 134909,13719 C 148641,13719 161462,17377 174276,22863 C 198082,34754 219136,53042 233786,74076 C 236532,77734 238367,81391 239278,85055 C 240196,86884 241114,88713 242025,90542 C 246607,100597 251182,107912 254846,114316 C 255763,115234 255763,116145 256674,117974 C 257592,119803 259421,122549 261256,124378 C 263085,126206 265831,127118 268578,127118 C 270413,128035 272242,128035 274071,128946 C 279563,131693 285056,133522 289638,136268 C 300623,141754 309780,149070 318019,157296 C 321684,160954 320766,163700 319848,165529 C 318019,170104 313445,170104 310692,171015 L 308863 171015 C 306116,171933 303370,171933 299706,171933 C 296960,171933 295131,172844 292384,172844 L 291467 172844 C 293302,173762 294213,174673 296049,174673 L 297877 175591 C 299706,176502 300623,177419 302452,177419 C 308863,181077 315273,186563 320766,192050 L 325341 195707 C 327176,197536 328088,198454 328088,199365 C 329005,201194 329005,203023 329005,203940 C 329005,206680 328088,210338 328088,211255 C 327176,213084 325341,218571 325341,220399 L 325341 353003 L 320766 356661 C 322595,358490 300623,374955 248435,374955 Z M 166954 167358 C 175193,167358 183433,169186 190754,172844 C 184350,170104 178851,165529 174276,161871 L 172447 160043 C 166037,155467 161462,149981 156880,143583 C 155962,148152 154133,152727 147723,155467 C 145894,156385 144066,156385 142230,156385 L 141319 156385 C 146812,159125 151387,163700 155962,167358 C 159626,167358 163290,167358 166954,167358 Z" fill="#FFFFFF" transform="translate(2852,4582)"/>
  <path d="M 103879 9144 C 113954,9144 125851,14630 131344,18288 C 132261,19206 133179,19206 134090,20117 C 135008,21035 136843,21946 138671,22863 C 151486,22863 165224,25603 177121,32007 C 200010,43898 220152,61274 235720,82309 C 237549,85966 239384,88706 241212,92364 C 242130,94193 243041,96022 243959,97850 C 248541,107001 253116,115227 257691,122542 C 258609,123460 258609,124371 259526,125289 C 260438,128029 262273,130775 264101,132604 C 266848,134433 269594,136262 273258,137179 C 275087,138090 276922,138090 277834,139008 C 283327,141748 288826,143577 293401,146323 C 303469,151810 313543,158214 320865,166440 C 321783,167358 322700,169186 321783,170098 C 320865,171926 318119,171926 316290,172844 L 314461 172844 C 311714,173755 308962,173755 306215,173755 C 303469,173755 300723,174673 297976,174673 L 297065 174673 C 294318,175584 290654,176502 287908,176502 C 289737,180159 296147,182906 300723,185646 C 302557,186563 304386,187474 305304,188392 C 311714,192050 317207,196618 322700,202105 L 325446 203934 C 326358,204851 328193,205769 328193,205769 C 328193,205769 330022,206680 330022,207598 C 330022,208509 330939,209426 330939,210338 C 330939,212166 330939,214913 330022,215824 C 329104,218571 326358,225886 326358,225886 L 326358 356661 L 323611 358490 C 322700,359407 301640,374949 251287,374949 C 193606,374949 178956,359407 177121,358490 L 176210 356661 L 176210 313681 L 63594 313681 C 44370,311852 30637,305448 20563,293558 C 5913,274352 8660,250578 8660,248749 C 13241,222228 27891,209426 39788,203023 C 46198,199365 52609,197536 59930,195707 C 70005,166440 91976,160954 95640,160043 C 101133,158214 106626,157296 113036,157296 C 129515,157296 145993,164611 156985,177413 C 161560,176502 165224,176502 168882,176502 C 180785,176502 189942,180159 197264,185646 L 197264 173755 C 190860,171926 183532,166440 178039,161871 C 172546,157296 167971,152721 164307,147234 C 162478,144494 160643,141748 159731,139008 L 158814 137179 L 158814 138090 C 158814,139008 158814,139008 158814,139919 C 158814,141748 157897,143577 157897,145406 C 155150,149063 155150,153638 149657,155467 C 148740,155467 146911,156385 145993,156385 C 141418,156385 136843,153638 132261,147234 C 122193,134433 123104,116145 125851,104254 C 126768,101508 127686,97850 128597,95110 C 128597,94193 129515,94193 129515,93282 C 130432,92364 130432,90535 131344,89624 C 131344,88706 130432,87795 129515,86878 C 128597,85966 128597,85966 127686,85049 C 125851,82309 123104,79562 121275,75905 C 118529,71330 116700,66761 114865,61274 L 113036 56699 C 112119,55788 112119,53959 112119,53042 C 112119,52130 111201,50295 111201,49384 C 109372,46638 107543,43898 104797,41151 C 103879,40240 103879,40240 102962,39322 C 102051,38411 101133,37494 100215,36582 C 95640,32007 88312,23774 91976,16459 C 93812,12802 96558,10973 99304,10062 C 100215,9144 102051,9144 103879,9144 Z M 103879 0 C 100215,0 97469,918 94722,918 C 89230,2746 84655,7315 81908,12802 C 75498,26521 86483,37494 91059,42980 L 91976 43898 C 92894,44809 92894,44809 92894,45726 C 93812,46638 93812,47555 94722,47555 C 96558,49384 98386,51213 99304,53959 C 99304,54870 100215,54870 100215,55788 C 101133,57617 101133,59446 102051,61274 L 103879 65843 C 105708,71330 108455,75905 111201,81391 C 113036,85049 115782,88706 118529,91453 C 117611,95110 116700,98768 115782,101508 C 113036,114316 112119,132604 121275,147234 C 118529,147234 115782,146323 113036,146323 C 106626,146323 100215,147234 93812,149063 C 88312,149981 65423,157296 53526,185646 C 48034,189303 41623,192050 36130,194790 C 22392,202105 5002,217653 421,246920 L 421 247831 L 421 248749 C -497,253318 -1408,278927 15070,299044 C 26056,312763 42534,320996 64512,321907 L 167971 321907 L 167971 356661 L 167971 360319 L 169800 363065 L 171628 364894 C 175293,369462 192689,385011 252198,385011 C 304386,385011 327275,369462 330022,367634 L 332768 365805 L 336432 363065 L 336432 358490 L 336432 227714 C 337350,224968 339179,220399 339179,218571 C 339179,217653 340096,213084 340096,210338 C 340096,210338 340096,206680 338261,203934 C 338261,203023 337350,202105 334603,199365 C 334603,199365 332768,197536 331857,197536 L 329104 195707 C 324529,190221 319036,185646 312626,181988 C 313543,181988 314461,181988 316290,181077 L 318119 181077 C 321783,180159 329104,179242 330939,172844 C 331857,171015 332768,165529 327275,160043 C 319036,150892 308962,143577 297065,138090 C 292483,135350 286990,132604 280580,130775 C 278751,129864 276922,129864 275087,128946 C 273258,128946 271430,128029 270512,127118 C 269594,125289 268683,124371 267765,122542 C 266848,120714 266848,119803 265937,118885 C 262273,112487 257691,104254 253116,95110 C 252198,93282 251287,91453 250369,89624 C 248541,85966 246705,81391 243959,78651 C 227481,56699 206420,38411 182620,25603 C 169800,19206 156067,16459 142335,15548 C 142335,15548 141418,15548 141418,14630 C 140500,13719 138671,12802 136843,11890 C 129515,6404 115782,0 103879,0 Z M 155150 162783 C 157897,161871 159731,159125 160643,157296 C 163389,160954 166136,163700 169800,166440 L 168882 166440 C 166136,166440 163389,166440 159731,167358 C 158814,165529 156985,164611 155150,162783 Z" fill="#FFFFFF"/>
  <path d="M 57885 50897 L 62467 50897 L 64296 46329 C 71624,20719 89931,16144 90849,16144 L 91766 16144 C 122895,7000 140291,30781 141202,31692 L 143948 35349 L 148530 34438 C 166837,29863 177823,34438 185151,41753 C 186980,40836 188814,40836 189726,39925 C 192472,39007 196136,38096 198883,37178 C 189726,26205 174165,15233 148530,19808 C 132962,2431 109156,-3973 87185,2431 C 83521,3342 61549,9746 51481,38096 C 44153,39007 37743,41753 31339,45411 C 19436,51815 4786,65528 204,91137 C 204,92049 -2542,116741 12108,135035 C 21265,146926 35914,153323 55139,155152 L 157687 155152 L 157687 141433 L 56057 141433 C 41407,140521 30421,135035 23093,126802 C 12108,113083 13943,94795 13943,92966 C 21265,54555 56057,50897 57885,50897 Z" fill="#2D5967" transform="translate(8449,157612)"/>
  <path d="M 10074 1829 C 9157,918 8239,0 6410,0 C 4575,0 1829,0 0,0 C 1829,1829 2746,2746 4575,5493 C 6410,8233 8239,10062 9157,12808 C 11903,11890 13732,8233 12821,5493 C 11903,3658 10985,2746 10074,1829 Z" fill="#2D5967" transform="translate(137761,44809)"/>
  <path d="M 240867 200879 C 240867,200879 239956,199968 239956,199050 C 239956,198139 239038,197221 238120,196310 C 237203,195392 236292,195392 235374,194481 L 232627 192652 C 228052,187166 221642,182591 215231,178933 C 213403,178016 212485,177104 210656,176187 C 206074,173447 199671,170700 197835,167043 C 200582,167043 204246,166132 206992,165214 L 207910 165214 C 210656,164303 213403,164303 216149,164303 C 218896,164303 221642,163385 224388,163385 L 226217 163385 C 228963,163385 231710,162474 231710,160645 C 231710,159728 231710,158816 230799,156981 C 222560,148755 213403,141440 203328,136864 C 198753,134124 193260,132289 187767,129549 C 186850,128632 185021,128632 183186,127720 C 179528,126803 176782,125892 174035,123145 C 172200,121316 170371,118576 169454,115830 C 168536,114919 168536,114001 167625,113090 C 163043,105768 158468,98453 153893,88398 C 152975,86569 152058,84740 151146,82912 C 149311,79248 147482,75590 145647,72850 C 131004,51816 110861,34439 87055,22548 C 75152,17062 62331,13404 48599,13404 C 46770,12493 45852,11576 44024,10664 C 44024,9747 43106,8836 42188,8836 C 35785,5178 19300,-2144 8314,603 C 4656,1514 1910,4260 992,7007 C -2672,15233 4656,22548 9232,27123 C 10149,28035 11060,28952 11978,29870 C 12896,30781 12896,31699 13807,31699 C 16553,34439 18389,37185 20217,39925 C 21135,40843 21135,42672 21135,43583 C 21135,44500 22052,46329 22052,47240 L 23881 51816 C 25710,56391 27545,61877 30292,66446 C 32120,69192 33949,72850 36696,75590 C 37613,76508 37613,76508 38531,77419 C 39442,78336 40359,79248 40359,80165 C 40359,81083 39442,82912 38531,83823 C 38531,84740 37613,84740 37613,85652 C 36696,88398 35785,92056 34867,94796 C 32120,106686 31203,124063 41277,137782 C 46770,146008 53181,148755 59585,146008 C 65084,144180 65995,139611 66912,134124 C 66912,132289 67830,130460 67830,128632 C 67830,127720 67830,127720 67830,126803 L 67830 125892 L 68741 127720 C 70577,130460 72405,133207 73323,135953 C 76981,141440 81562,146926 87055,151495 C 92548,156070 98958,161556 106280,163385 L 107197 163385 L 107197 161556 L 106280 161556 C 105362,160645 104451,160645 103533,159728 L 102616 158816 C 99870,156070 97123,153324 94377,150584 C 87055,142351 81562,134124 76069,124974 C 73323,121316 71488,116748 69659,113090 L 68741 112172 C 68741,111261 67830,111261 67830,110344 C 67830,109432 66912,107604 65995,106686 C 65084,107604 64166,108515 63248,109432 C 61420,111261 59585,113090 58673,115830 C 56838,121316 55009,126803 55009,132289 C 55009,134124 55009,135036 54092,136864 C 49516,135953 48599,132289 46770,128632 L 45852 127720 C 40359,117659 40359,102111 44024,91138 C 44024,90227 44941,90227 44941,89309 C 47688,83823 49516,78336 47688,76508 C 46770,74679 45852,73761 44024,71932 C 43106,71021 42188,71021 41277,70103 C 39442,67363 37613,64617 35785,60960 C 33949,57302 32120,53644 31203,49987 C 29374,45412 27545,40843 25710,37185 C 23881,34439 22052,30781 19300,28035 L 17471 26206 C 16553,25295 15642,24377 14724,23466 C 11060,19808 6485,15233 7403,11576 C 7403,10664 8314,9747 9232,8836 C 14724,7007 26628,12493 33038,16151 C 33949,16151 33949,17062 34867,17062 C 36696,17980 38531,18891 40359,19808 C 43106,20720 46770,21637 49516,21637 C 51345,21637 52263,21637 54092,21637 C 58673,22548 63248,23466 67830,24377 C 76981,27123 86137,31699 95294,37185 C 111773,48158 125505,62788 136497,79248 C 137408,81083 138326,82912 139243,84740 C 140154,85652 140154,87480 141072,89309 C 142901,92967 144736,96624 146565,100282 C 148394,103940 150229,106686 152058,110344 L 152975 112172 C 155722,118576 159386,124063 163961,129549 C 165790,131378 171282,133207 175864,134124 C 177693,135036 179528,135036 180439,135036 C 187767,137782 194171,140522 201499,144180 C 205164,146008 207910,147837 211567,149666 C 211567,149666 212485,150584 213403,150584 C 215231,151495 217067,152412 218896,154241 C 206074,154241 196007,155152 187767,157899 C 186850,157899 186850,157899 185932,157899 C 184103,157899 181357,158816 181357,161556 C 182275,162474 182275,162474 182275,163385 C 182275,164303 183186,165214 183186,165214 C 185932,168872 188678,171618 191425,174358 C 195089,176187 197835,178933 201499,180762 C 204246,182591 207910,183502 211567,185337 C 215231,186248 217978,188077 221642,189906 C 223471,190824 226217,192652 228052,193564 C 229881,194481 230799,195392 232627,196310 C 233545,196310 233545,197221 234456,197221 C 235374,198139 236292,199050 238120,199050 L 239038 199050 L 240867 200879 Z" fill="#2D5967" transform="translate(89162,9459)"/>
  <path d="M 125436 6398 C 108952,1829 92473,0 75077,0 C 57681,0 41203,1829 24724,6398 C 4582,12802 0,21028 0,27432 L 0 155467 L 1835 157296 C 3664,159125 17396,174666 75995,174666 C 126348,174666 147408,159125 148325,159125 L 151072 157296 L 151072 24685 C 149237,19199 143744,11884 125436,6398 Z M 75077 11884 C 118108,11884 137333,22857 137333,26521 C 137333,30178 118108,41151 75077,41151 C 32046,41151 12821,30178 12821,26521 C 12821,22857 32963,11884 75077,11884 Z M 137333 149063 C 130012,152721 110787,160954 75077,160954 C 32963,160954 16485,152721 12821,149974 L 12821 124371 C 22889,128946 42120,133515 75077,133515 C 105294,133515 125436,128029 137333,122542 L 137333 149063 Z M 137333 109741 C 130012,113398 110787,121625 75077,121625 C 32963,121625 16485,113398 12821,110652 L 12821 83220 C 22889,87789 42120,92364 75077,92364 C 105294,92364 125436,86878 137333,82302 L 137333 109741 Z M 137333 67672 C 132758,70412 113533,79562 75077,79562 C 32963,79562 16485,71330 12821,68583 L 12821 42980 C 16485,44809 21060,46638 24724,47549 C 41203,52124 57681,53953 75077,53953 C 92473,53953 108952,52124 125436,47549 C 130012,46638 133675,44809 137333,42980 L 137333 67672 Z" fill="#2D5967" transform="translate(176217,201194)"/>
</svg>