<svg xmlns="http://www.w3.org/2000/svg" viewBox="0 0 385010 359343" width="40" height="38">
  <path d="M 189143 346779 L 172331 338405 L 172331 328350 L 132822 328350 C 123576,328350 76502,326675 53799,297356 C 33624,274744 32784,246265 32784,245425 L 31943 211922 L 52958 237885 C 52958,237885 61364,247940 72298,252965 C 73139,252965 73980,253805 74820,253805 C 73139,249615 71458,245425 67248,242075 C 46233,224487 22696,200193 15972,159991 C 8406,118942 20174,85440 21015,83765 L 26059 69526 L 36987 79575 C 42871,83765 56320,91305 64727,91305 L 66408 91305 C 69770,92139 73139,92139 75661,92139 C 81545,92139 85748,91305 90792,90465 C 94154,89624 97516,88790 102560,88790 C 105082,88790 106763,87949 109285,87949 L 98357 82091 C 94995,82925 86589,84600 75661,84600 C 60524,84600 47914,81250 36146,73710 C 7566,54447 3362,23454 3362,21779 L 0 0 L 20174 10889 C 27740,15079 42030,23454 51277,25969 C 68089,30993 82386,38533 91632,46907 C 96676,51931 105923,64496 109285,71201 L 112648 73710 L 121054 60312 C 121894,59471 138706,36018 177374,33509 L 178215 33509 C 181577,33509 213520,35183 236217,55281 C 242101,61146 247145,67011 251348,72876 C 253029,63661 250507,56122 249666,56122 L 237898 30153 L 264804 41883 C 264804,41883 288341,51931 309356,71201 C 353067,111403 374083,156635 374083,207732 C 374083,230352 374083,256314 353067,288148 C 332893,319135 300109,325000 299269,325000 L 283297 327516 L 255551 328350 L 255551 339239 L 238739 347620 L 189143 347620 L 189143 346779 Z M 141228 90465 C 145431,91305 148794,92980 152156,94655 C 151316,92980 150475,91305 149634,89624 C 143750,79575 129460,77900 129460,77900 L 118532 77060 L 141228 90465 Z" fill="#FFFFFF" transform="translate(5044,8380)"/>
  <path d="M 10928 15920 L 22696 23454 C 22696,23454 42871,35183 54640,38533 C 70611,43557 84901,50263 93307,58637 C 98357,63661 108445,77066 110967,82931 L 144591 103029 C 152156,105544 158041,108060 162243,111409 C 162243,106385 161403,100520 158041,96330 L 158041 95495 C 151316,83765 135344,82091 134503,82091 L 122735 81250 L 129460 71201 C 130301,70361 145431,48588 182418,46073 C 184099,46073 216042,46907 237898,66177 C 247985,74551 253869,83765 257232,91305 C 258073,90465 258073,89630 258913,87956 C 263957,73717 259754,62827 258913,61987 L 251348 46073 L 267319 52772 C 268160,52772 290863,62827 311037,81250 C 353908,120624 374923,164181 374923,214438 C 374923,236217 374923,261345 354749,292338 C 335415,321650 305153,326681 303472,327515 L 287494 330031 L 256391 330865 L 256391 342595 L 242942 349294 L 195027 349294 L 181577 342595 L 181577 330865 L 139547 330865 C 139547,330865 138707,330865 137866,330865 C 129460,330865 83220,329190 62205,301547 C 42871,281449 42030,254639 42030,253805 L 41190 233701 L 53799 249615 C 53799,249615 62205,260504 74814,265529 C 79017,267204 81539,268885 84060,269719 C 83220,263020 81539,254639 73973,247940 C 52958,230352 31102,207732 23537,168365 C 15972,128998 27740,96330 28580,94655 L 31943 86281 L 39508 92139 C 44552,95495 58842,104704 69770,104704 C 69770,104704 69770,104704 70611,104704 C 73973,104704 77336,105544 79858,105544 C 86582,105544 90786,104704 95829,103869 C 99198,103029 102560,102195 106763,102195 C 111807,101354 116851,101354 121054,101354 C 123576,101354 126097,101354 128619,101354 L 102560 86281 C 101720,86281 92467,89630 79858,89630 C 68930,89630 55480,87115 42871,79575 C 16812,60312 12609,30993 12609,30159 L 10928 15920 Z M 0 0 L 2522 17595 L 4203 31834 C 4203,32668 7566,56962 26900,76226 L 24378 82931 L 21015 91305 C 20174,92980 8406,127323 15972,169206 C 19334,186794 25218,201033 32784,213597 L 33624 233701 L 33624 253805 C 33624,254639 34465,284799 56320,308252 C 79858,339245 128619,340920 138707,340920 C 139547,340920 140388,340920 140388,340920 L 174012 340920 L 174012 344270 L 174012 349294 L 179056 351810 L 192505 358509 L 194187 359343 L 195868 359343 L 243782 359343 L 245463 359343 L 247145 358509 L 260595 351810 L 265638 349294 L 265638 344270 L 265638 340080 L 288335 339245 L 289181 339245 L 290022 339245 L 305993 336730 C 309356,335889 342139,330031 363155,298197 C 385011,265529 385011,237892 385011,215272 C 385011,163341 363155,117268 318603,76226 C 296747,56122 273203,46073 272363,46073 L 256391 39374 L 236217 30993 L 243782 50263 L 251348 66177 C 251348,66177 251348,67011 252188,68686 C 249667,66177 247145,62827 243782,60312 C 220245,39374 186621,37699 183259,37699 C 142909,40208 126097,63661 123576,66177 L 116851 75391 C 112648,67852 105082,56962 99198,51938 C 89945,42723 74814,34343 57161,30159 C 48755,27644 34465,20104 26900,15920 L 15131 9214 L 0 0 Z" fill="#FFFFFF"/>
  <path d="M 31943 61987 C 44552,70361 58002,72042 68930,72042 C 81539,72042 91626,68686 91626,68686 L 99192 66177 L 95829 59471 C 93307,53613 87423,47748 81539,41883 C 73133,33509 59683,26810 43712,21779 C 31943,19270 11768,7540 11768,7540 L 0 0 L 1681 14245 C 1681,15080 5884,44398 31943,61987 Z M 40349 36018 C 53799,40208 66408,46073 73133,52772 C 73973,53613 76495,56122 79017,58637 C 68930,59471 52958,59471 39508,51097 C 29421,44398 23537,35184 20174,26810 C 26059,30159 33624,33509 40349,36018 Z" fill="#2D5967" transform="translate(10928,15914)"/>
  <path d="M 26900 24345 C 10087,41100 0,62878 0,86332 C 0,112301 11768,136589 31943,153343 L 33624 155018 L 138700 155018 L 140381 153343 C 162237,135754 174012,109785 172331,82142 C 171490,65394 165599,50314 156353,36909 L 147106 47799 C 152990,57013 157193,68743 158034,80467 L 138700 80467 L 138700 93872 L 158034 93872 C 156353,108111 150468,122350 141222,133239 L 130294 120675 L 125250 125699 L 120207 130724 L 131975 142454 L 42030 142454 L 53799 130724 L 48755 125699 L 43712 120675 L 31102 133239 C 21856,122350 15972,108945 15131,94706 L 32784 94706 L 32784 81308 L 15131 81308 C 15972,66228 21856,52823 31102,41100 L 43712 53664 L 48755 48639 L 53799 43615 L 41190 31051 C 52118,21836 66408,15971 80698,14296 L 80698 33560 L 94148 33560 L 94148 14296 C 105916,15131 116844,19321 126932,25186 L 137860 15971 C 124410,6757 108438,892 91626,58 C 66408,-783 44552,7597 26900,24345 Z" fill="#2D5967" transform="translate(131141,172498)"/>
  <path d="M 288836 35177 C 268655,16754 245959,6699 245118,6699 L 229147 0 L 236712 15914 C 236712,16754 241756,27644 236712,41883 C 235872,42717 235872,44392 235031,45232 C 231668,37692 225784,29319 215697,20104 C 193841,834 161898,0 160217,0 L 159376 0 C 123230,2509 107259,24288 106418,25128 L 99693 35177 L 112302 34343 C 112302,34343 129114,36018 135840,47741 L 135840 48582 C 138361,52772 140042,58631 140042,63662 C 129955,56122 112302,49422 85403,52772 C 81193,53606 77831,54447 74469,54447 C 66903,56122 61859,56956 49251,56122 C 38323,56122 23192,46907 18148,43557 L 10583 37692 L 7220 46067 C 6379,47741 -4548,80409 2177,119783 C 9742,159151 31598,181763 52613,199352 C 60178,205217 61859,214432 62700,221131 C 60178,220297 56816,218622 53453,216947 C 40845,211923 32438,201033 32438,201033 L 19829 185113 L 19829 206058 C 19829,206892 20670,233695 40004,255474 C 61019,283118 107259,284792 115665,284792 C 116506,284792 116506,284792 117346,284792 L 132477 284792 L 122390 273903 C 120708,272228 85403,232861 104737,176739 C 105578,174224 125752,114752 194682,113918 C 221581,113918 241756,122292 256046,133182 L 266974 124808 C 251002,111403 227466,101354 194682,100513 C 153492,100513 127433,119783 113143,136531 C 98012,154126 92128,171715 92128,172549 C 76991,217781 92968,252965 103896,271394 C 88766,269713 64381,264688 51772,247940 L 51772 247100 C 45047,240401 41685,232020 39163,225321 C 42526,226996 45047,229511 49251,231186 C 63541,237885 69425,237885 70266,238726 L 76991 239560 L 77831 232861 C 77831,232020 81193,206058 62700,190978 C 50091,180929 24032,159151 17307,118943 C 13105,94648 16467,72036 18989,60306 C 24873,64496 36641,69520 47569,69520 C 61859,71195 68585,69520 76150,67845 C 79512,67011 82034,66171 86244,66171 C 124912,60306 138361,80409 139202,81250 L 147608 95489 L 151811 79575 C 151811,78735 157695,56122 147608,41042 C 142564,31828 134158,26803 126593,23454 C 133318,18429 144246,12564 160217,11724 C 162739,11724 189638,13398 206450,28478 C 224103,44392 226625,59471 226625,60306 L 228306 75385 L 238394 63662 C 239234,62821 244278,56956 249321,44392 C 252684,36852 252684,29319 252684,23454 C 260249,27644 270336,34343 280430,43557 C 320779,80409 340113,120617 340113,166690 C 340113,187628 340113,210241 322460,237051 C 314895,248774 303967,256315 295561,260504 C 303967,241235 314895,206892 301445,170874 C 298923,162500 293039,150770 283792,139047 L 275380 149936 C 282111,159151 286314,168365 288836,175898 C 306489,223646 276221,268878 275380,268878 L 266134 282283 L 282111 279768 C 283792,279768 314054,273903 333388,244585 C 353563,213597 353563,188463 353563,166690 C 352722,118102 332548,74551 288836,35177 Z" fill="#2D5967" transform="translate(22201,47747)"/>
  <path d="M 7086 103863 C 11289,107212 16333,108888 20536,108888 C 23898,108888 27260,108053 30623,106379 C 33145,105538 34826,103863 36507,101354 C 40710,96323 42392,90465 41551,84600 L 108800 0 L 23898 67011 C 17173,66170 9608,68686 4564,74545 C 3724,75385 2883,76226 2883,77060 C -2160,86274 -480,97164 7086,103863 Z M 15492 82925 C 17173,81250 18854,80410 21376,80410 C 23058,80410 24739,81250 26420,82084 C 29782,84600 29782,89624 27260,92974 C 24739,96323 19695,96323 16333,93814 C 12970,91299 12970,86274 15492,82925 Z" fill="#2D5967" transform="translate(196347,171714)"/>
  <path d="M 13450 0 L 0 0 L 0 6706 L 13450 13405 L 61364 13405 L 74814 6706 L 74814 0 L 61364 0 L 13450 0 Z" fill="#2D5967" transform="translate(181577,337564)"/>
</svg>