<svg xmlns="http://www.w3.org/2000/svg" viewBox="0 0 512064 513347" width="54" height="54">
  <path d="M 249936 502317 C 234022,502317 221766,490067 221766,474141 C 221766,463110 227862,454537 236460,449635 L 236460 373672 C 215670,371227 196035,365099 177683,354075 L 154390 384703 C 145790,395727 137256,405532 127438,415330 L 89451 453312 L 82072 460665 L 62500 454537 L 30608 422684 L 24513 403080 L 31892 395727 L 69815 357745 C 78414,346721 89451,336923 99268,329569 L 129877 306289 C 99268,254832 104145,191126 142133,144565 L 109022 109035 C 102926,111486 95547,112712 89451,112712 L 53902 227881 C 61281,234003 66158,243808 66158,253606 C 66158,271984 51463,286685 33111,286685 C 14695,286685 0,271984 0,253606 C 0,236454 12256,222979 28170,220528 L 64938 105365 C 51463,96785 44084,83310 44084,67383 C 44084,42877 64938,22048 89451,22048 C 106584,22048 121278,31853 129877,46554 L 213167 30628 C 215670,13475 231584,0 249936,0 C 268353,0 283047,13475 286705,30628 L 371214 46554 C 378594,31853 394507,22048 411641,22048 C 436153,22048 457007,42877 457007,67383 C 457007,82084 449629,96785 437372,105365 L 471702 220528 C 487616,222979 501091,236454 501091,253606 C 501091,271984 486397,286685 469264,286685 L 438591 363874 C 452066,373672 459446,389605 459446,406757 C 459446,436159 434934,460665 405544,460665 C 376155,460665 351643,436159 351643,406757 C 351643,395727 355301,385928 360177,377349 L 333227 349173 C 313655,363874 289143,372453 264631,374898 L 264631 450860 C 273229,455763 279325,465561 279325,475366 C 278106,490067 265850,502317 249936,502317 Z" fill="#FFFFFF" transform="translate(7316,6128)"/>
  <path d="M 257251 12250 C 274384,12250 287859,25732 287859,41658 L 380968 58810 C 387129,44109 400604,34304 417736,34304 C 439811,34304 456944,51457 456944,73511 C 456944,88212 448409,101688 436153,107816 L 474141 231558 C 488835,231558 501091,243808 501091,258509 C 501091,273216 488835,285466 474141,285466 C 472858,285466 471638,285466 471638,285466 L 437372 371227 C 450847,379806 459382,394508 459382,411660 C 459382,437385 438591,459440 411641,459440 C 385909,459440 363835,438610 363835,411660 C 363835,400629 367493,389605 374872,381026 L 340542 344277 C 318532,361429 291582,371227 264631,372453 L 264631 458214 C 273165,461891 279325,469238 279325,479043 C 279325,491293 269507,501098 257251,501098 C 244995,501098 235177,491293 235177,479043 C 235177,469238 241337,460665 249936,458214 L 249936 372453 C 226643,371227 203350,363873 183778,350398 L 176399 358977 L 156764 385928 C 149449,396959 139631,406757 131096,416556 L 93108 454537 L 88167 459440 L 73473 454537 L 44084 425135 L 39207 410434 L 42865 404306 L 80852 366325 C 90606,356526 100424,347947 111461,340600 L 138412 320996 L 147010 314868 C 113899,264637 117557,197254 159266,151919 L 117557 107816 C 111461,111493 104081,112718 96766,112718 C 95547,112718 94328,112718 93108,112718 L 53902 235235 C 61217,240131 67377,248710 67377,258509 C 67377,273216 55120,285466 40426,285466 C 25732,285466 13475,273216 13475,258509 C 13475,243808 25732,231558 40426,231558 L 78414 109041 C 66158,101688 57559,89438 57559,73511 C 57559,51457 74692,34304 96766,34304 C 113899,34304 127374,44109 133535,58810 L 226643 41658 C 226643,25732 240119,12250 257251,12250 Z M 257251 0 C 237680,0 220483,13475 215606,31853 L 139631 46554 C 129813,31853 113899,23280 96766,23280 C 68596,22055 45303,45329 45303,73511 C 45303,89438 52683,102913 63655,112718 L 29390 220534 C 12192,225430 0,241357 0,259734 C 0,281789 17133,298942 39207,298942 C 61217,298942 78414,281789 78414,259734 C 78414,249936 74692,240131 67377,232784 L 100424 126194 C 105365,126194 109022,124968 113899,122517 L 140850 150693 C 105365,197254 100424,259734 128594,309966 L 102862 330795 C 91890,339374 80852,347947 71035,357752 L 33047 395733 L 28170 400629 L 24449 406757 L 26951 414111 L 31828 428812 L 33047 431263 L 35485 433714 L 64874 463116 L 66158 465568 L 68596 465568 L 83290 470464 L 90606 472915 L 95547 468019 L 100424 463116 L 138412 425135 C 148229,415337 158047,404306 165362,393282 L 184998 366325 C 200912,374904 218044,381026 235177,383477 L 235177 450867 C 225424,456988 220483,468019 220483,479043 C 220483,498647 236460,513347 254813,513347 C 273165,513347 289143,497421 289143,479043 C 289143,468019 282983,456988 274384,450867 L 274384 383477 C 296459,381026 317313,372453 335665,360203 L 356520 382251 C 351579,390831 349141,400629 349141,411660 C 349141,444739 376091,471689 409202,471689 C 442249,471689 469199,444739 469199,411660 C 469199,394508 461884,378581 449629,367550 L 477799 298942 C 497370,296490 512064,279338 512064,259734 C 512064,241357 498589,225430 481456,221753 L 449629 115163 C 461884,105365 467981,90664 467981,75963 C 467981,47780 444687,24506 416517,24506 C 399384,24506 382252,33079 373653,47780 L 297677 33079 C 294020,13475 276887,0 257251,0 Z" fill="#FFFFFF"/>
  <path d="M 14759 0 L 14759 74737 C 6160,78414 0,85761 0,95566 C 0,107816 9818,117621 22074,117621 C 34330,117621 44148,107816 44148,95566 C 44148,85761 37988,77188 29453,74737 L 29453 0 C 26950,0 24512,0 22074,0 C 19636,0 17197,0 14759,0 Z M 22074 102913 C 18416,102913 14759,99243 14759,95566 C 14759,91889 18416,88212 22074,88212 C 25732,88212 29453,91889 29453,95566 C 29453,99243 25732,102913 22074,102913 Z" fill="#2C5967" transform="translate(235178,384703)"/>
  <path d="M 461948 219302 L 423960 96785 C 436217,90664 444752,77182 444752,62481 C 444752,40426 427618,23274 405544,23274 C 388412,23274 374936,33079 368776,47780 L 275667 30628 C 275667,13475 262192,0 245059,0 C 227926,0 214451,13475 214451,29402 L 121343 46554 C 115182,31853 101707,22048 84574,22048 C 62500,22048 45367,40426 45367,61255 C 45367,75956 53966,89438 66158,95560 L 27015 219302 C 12256,220528 0,231558 0,247485 C 0,262186 12256,274436 27015,274436 C 41709,274436 53966,262186 53966,247485 C 53966,237680 49025,229107 40491,224205 L 79697 101688 C 80916,101688 82136,101688 83355,101688 C 90670,101688 98050,99236 104145,95560 L 137256 131090 C 138475,128638 140914,127413 142133,126194 C 143352,124968 145855,122517 147074,121291 L 113963 86987 C 118840,80859 121343,72286 121343,63706 L 215670 46554 C 222985,55134 232803,61255 245059,61255 C 257315,61255 267133,53908 273229,44103 L 367557 61255 C 367557,71060 371278,79633 377375,86987 L 343108 120066 C 344328,121291 345547,122517 347985,123742 C 350424,126194 351643,127413 354082,129864 L 388412 95560 C 393289,98011 399448,100462 406764,100462 C 407983,100462 409266,100462 410485,100462 L 448473 224205 C 441094,229107 436217,237680 436217,247485 C 436217,256058 439875,263411 447189,268314 L 412924 352849 C 409266,351624 405544,351624 400667,351624 C 390850,351624 382315,354075 374936,358971 L 347985 330795 C 344328,334471 340606,338148 336948,340593 L 363899 368776 C 356584,377349 352862,387154 352862,399404 C 352862,425135 373717,447183 400667,447183 C 427618,447183 448473,426361 448473,399404 C 448473,382251 439875,367550 426399,358971 L 460665 273210 C 461948,273210 463168,273210 463168,273210 C 477862,273210 490118,260960 490118,246259 C 490118,231558 476643,219302 461948,219302 Z M 381032 61255 C 381032,47780 392069,36756 405544,36756 C 419020,36756 430057,47780 430057,61255 C 430057,74731 419020,85761 405544,85761 C 392069,85761 381032,74731 381032,61255 Z M 245059 46554 C 236460,46554 229145,39201 229145,30628 C 229145,22048 236460,14701 245059,14701 C 253658,14701 260973,22048 260973,30628 C 260973,39201 253658,46554 245059,46554 Z M 109086 61255 C 109086,74731 98050,85761 84574,85761 C 71098,85761 60062,74731 60062,61255 C 60062,47780 71098,36756 84574,36756 C 98050,36756 109086,47780 109086,61255 Z M 27015 258509 C 20855,258509 14759,253606 14759,246259 C 14759,238905 19636,234003 27015,234003 C 34330,234003 39207,238905 39207,246259 C 39207,253606 34330,258509 27015,258509 Z M 399448 432482 C 381032,432482 366337,417781 366337,399404 C 366337,381026 381032,366325 399448,366325 C 417801,366325 432495,381026 432495,399404 C 432495,417781 417801,432482 399448,432482 Z M 461948 258509 C 455788,258509 449692,253606 449692,246259 C 449692,238905 454569,234003 461948,234003 C 469264,234003 474141,238905 474141,246259 C 474141,253606 469264,258509 461948,258509 Z" fill="#2C5967" transform="translate(12192,12256)"/>
  <path d="M 139695 157322 L 142133 156096 C 171522,132822 181340,93616 170303,58085 C 161768,32354 140914,12750 115182,4178 C 87012,-4402 57623,501 35550,16427 C 13475,32354 0,59311 0,87487 C 0,114444 12256,138944 31892,156096 L 34330 157322 L 80916 157322 L 80916 194078 C 83355,194078 85793,194078 89450,194078 C 91889,194078 94392,194078 96830,194078 L 96830 157322 L 139695 157322 Z M 23293 121792 L 44148 113219 L 41709 105865 L 39207 98518 L 19635 107091 C 17197,99737 15978,93616 15978,86262 C 15978,78915 17197,72787 18416,66658 L 39207 75238 L 42928 67884 L 46586 60537 L 25732 50732 C 30673,40933 37988,32354 46586,26232 C 49025,23781 51463,22555 53966,21330 L 62500 44610 L 75975 39708 L 67441 16427 C 80916,12750 95611,11525 110305,16427 L 99268 40933 L 112744 45829 L 121343 22555 C 134818,28677 144572,39708 150732,53183 L 128658 62988 L 134818 76463 L 155608 66658 C 159330,81359 159330,94841 155608,108316 L 136037 99737 L 133598 107091 L 131096 114444 L 151951 123018 C 148293,130371 142133,136493 136037,142621 L 40490 142621 C 31892,136493 27015,129146 23293,121792 Z" fill="#2C5967" transform="translate(170239,152644)"/>
  <path d="M 19572 50231 C 24513,50231 29390,47786 31828,44109 C 35485,40432 36705,35530 36705,30634 C 36705,28183 35485,26957 35485,24506 L 48961 0 L 24513 14701 C 22010,13482 19572,13482 17133,13482 C 12256,13482 7315,15927 4877,19603 C 1220,23280 0,28183 0,33079 C 0,37981 2438,42884 6096,45335 C 9754,47786 13476,50231 18352,50231 L 19572 50231 Z" fill="#2C5967" transform="translate(238899,210729)"/>
  <path d="M 207071 267088 C 241402,267088 275667,253613 301399,227881 C 354081,175199 354081,90664 301399,39207 C 275667,13482 241402,0 207071,0 C 172805,0 138475,13482 112744,39207 C 67441,84542 61280,155602 95610,208284 L 87012 214406 L 60062 234010 C 49025,241363 39207,251162 29453,259741 L 0 289143 L 50244 339374 L 79632 309972 C 89450,300167 98049,290369 105364,279345 L 125000 252387 L 132315 243814 C 155608,259741 181340,267088 207071,267088 Z M 115182 243814 L 95610 270765 C 88232,280564 79632,290369 71098,298942 L 52682 317319 L 23293 287917 L 41709 269540 C 50244,260967 60062,252387 69880,245034 L 96830 225437 L 105364 218083 C 107867,220534 110305,224211 112744,226662 C 115182,229107 118839,231558 121342,234010 L 115182 243814 Z M 123780 216857 C 77194,170303 77194,95566 123780,49012 C 147074,25732 177682,14701 208290,14701 C 238963,14701 269572,25732 292865,49012 C 339387,95566 339387,170303 292865,216857 C 269572,240138 238963,251162 208290,251162 C 177682,251162 147074,240138 123780,216857 Z" fill="#2C5967" transform="translate(50180,106590)"/>
  <path d="M 0 4903 L 4941 20829 L 34330 50231 L 49025 55134 L 55185 50231 L 4941 0 L 0 4903 Z" fill="#2C5967" transform="translate(37924,404306)"/>
</svg>