<svg xmlns="http://www.w3.org/2000/svg" viewBox="0 0 384368 385010" width="40" height="40">
  <path d="M 323859 148537 C 321292,148537 318918,148826 316415,149211 L 289785 103805 C 304800,93410 314554,76386 314554,57238 C 314554,25687 287988,0 255391,0 C 229210,0 206943,16543 199179,39348 L 212911 39348 C 213617,39348 214323,39348 214964,39444 C 221959,24628 237487,14239 255391,14239 C 275668,14239 292865,27515 298127,45502 L 299025 49063 C 299539,51662 299795,54351 299795,57142 C 299795,80807 279903,100148 255391,100148 C 237487,100148 221959,89759 214964,74942 C 214323,74942 213617,75039 212911,75039 L 199179 75039 C 203286,86968 211307,97164 221766,104190 L 193404 150270 C 189618,149115 185640,148441 181468,148441 C 177297,148441 173512,149018 169919,150173 L 124937 75135 L 117043 75135 L 112744 83406 L 156892 157001 C 150090,162487 145213,170181 143417,178940 L 77195 178940 C 76104,173646 73922,168840 70842,164605 L 62437 180865 C 62885,182591 63078,184324 63078,186153 C 63078,198948 52297,209433 39015,209433 C 25667,209433 14952,198948 14952,186153 C 14952,176630 20919,168455 29261,164894 L 34202 155275 C 34844,152965 35999,150751 37475,148826 L 37475 148633 C 16812,149307 0,165856 0,186153 C 0,206456 17390,223768 38886,223768 C 42095,223768 45046,223383 48062,222709 L 71099 260902 C 57110,271394 48126,287744 48126,306218 C 48126,337770 74692,363456 107290,363456 C 133471,363456 155737,346914 163502,324108 L 147587 324108 C 140529,338925 125128,349121 107226,349121 C 82713,349121 62757,329883 62757,306122 C 62757,282360 82649,263116 107226,263116 C 112552,263116 117750,264079 122498,265811 L 122690 265619 L 123204 266100 C 133984,270143 142711,278125 147460,288225 L 163373 288225 C 159587,277259 152528,267833 143417,260902 L 167544 221362 C 171843,222902 176399,223768 181212,223768 C 185961,223768 190709,222902 195008,221266 L 234279 288225 L 243134 288225 L 247241 281205 L 207521 213668 C 213488,208374 217660,201258 219264,193275 L 285485 193275 C 286384,197889 288309,202220 290748,206071 L 299923 190291 C 299603,188944 299539,187500 299539,186153 C 299539,173357 310255,162872 323602,162872 C 336884,162872 347665,173357 347665,186153 C 347665,196060 341184,204530 332200,207893 L 327387 216267 C 327067,217229 326682,218096 326040,218962 C 325591,219828 324949,220598 324372,221266 L 322896 223768 C 322896,223768 323281,223768 323473,223768 C 344841,223768 362360,206937 362360,186153 C 362360,165375 344970,148537 323473,148537 L 323859 148537 Z M 181404 209433 C 168186,209433 157341,198948 157341,186153 C 157341,173357 168058,162872 181404,162872 C 194688,162872 205467,173357 205467,186153 C 205467,198948 194688,209433 181404,209433 Z M 128209 252439 C 125385,251476 122498,250610 119610,250032 C 115632,249262 111653,248781 107482,248781 C 99141,248781 91184,250417 84061,253497 L 61667 216652 C 69495,211165 75206,202894 77195,193372 L 143417 193372 C 145021,201450 149256,208470 155224,213861 L 130968 253594 C 130070,253209 129171,252824 128209,252535 L 128209 252439 Z M 206366 157386 L 234857 111018 C 241338,113328 248204,114675 255455,114675 C 262706,114675 270214,113328 276823,110825 L 302619 154890 C 293956,160370 287796,169033 285678,179132 L 219456 179132 C 217788,170470 212975,162969 206237,157482 L 206366 157386 Z" fill="#2C5967" transform="translate(10588,10871)"/>
  <path d="M 334446 148633 C 334446,148633 333612,148633 333098,148633 L 314617 117082 C 328285,104287 336242,86583 336242,68019 C 336242,30493 304736,0 265978,0 C 235562,0 208675,18756 199242,46753 L 198024 50218 C 198024,50218 197125,50218 196740,50218 L 196355 50218 C 191157,50218 186537,52239 183200,55608 C 179863,52336 175179,50218 170111,50218 L 169725 50218 C 164527,50218 159843,52239 156570,55608 C 153234,52336 148549,50218 143481,50218 L 143031 50218 C 137769,50218 133021,52336 129620,55801 C 126155,52047 121213,49833 115888,49833 C 112166,49833 108572,50892 105493,53009 C 97728,58201 95354,68019 99525,75905 C 96894,76386 94456,77349 92274,78792 C 84509,83984 82135,93801 86306,101688 C 83675,102169 81237,103131 78991,104575 C 71291,109766 68853,119584 73087,127471 C 70457,127952 67954,128914 65773,130358 C 59548,134491 56725,141710 58136,148537 L 48318 148826 C 35357,149211 23165,154408 14117,163450 C 4940,172491 0,184420 0,197023 C 0,223672 22330,245322 49858,245322 C 51014,245322 52105,245322 53259,245226 L 67954 269565 C 55249,282168 48126,299006 48126,316992 C 48126,354511 79632,385011 118390,385011 C 148806,385011 175693,366248 185126,338251 L 186345 334600 C 187307,334792 188398,334889 189425,334889 L 189874 334889 C 194687,334889 198922,333156 202195,330268 C 205531,333156 209766,334889 214579,334889 L 215028 334889 C 219841,334889 224076,333156 227413,330268 C 230685,333156 234921,334889 239733,334889 L 240182 334889 C 244866,334889 249230,333156 252567,330365 C 253530,331327 254748,332097 255904,332771 C 258727,334311 261807,335081 264951,335081 C 271625,335081 277785,331616 281057,325937 L 281057 325745 C 281763,324788 282148,323826 282469,322863 C 282661,322478 282790,321997 282854,321516 L 282854 321131 C 283753,318147 283753,314971 282854,311897 C 282790,311416 282597,311031 282341,310549 C 284587,310164 286640,309394 288565,308240 C 291196,306603 293506,304389 294982,301791 C 297805,297081 298062,291498 296072,286595 C 298383,286210 300565,285440 302553,284285 C 305249,282649 307559,280435 309035,277836 C 311794,273126 312115,267544 310126,262635 C 312371,262250 314617,261480 316607,260331 C 319238,258695 321548,256481 323024,253882 C 324628,251187 325334,248306 325398,245322 L 333612 245322 C 333612,245322 334189,245515 334446,245515 C 362038,245515 384368,223864 384368,197215 C 384368,170573 362038,148922 334446,148922 L 334446 148633 Z M 334446 234548 C 334446,234548 334060,234548 333868,234548 L 335344 232046 C 335986,231276 336563,230506 337076,229736 C 337526,228869 337975,228003 338360,227041 L 343237 218673 C 352284,215304 358637,206841 358637,196933 C 358637,184138 347921,173646 334573,173646 C 321227,173646 310510,184138 310510,196933 C 310510,198370 310703,199718 310896,201065 L 301784 216844 C 299281,212994 297356,208669 296458,204049 L 230236 204049 C 228696,212032 224397,219058 218557,224442 L 258214 291979 L 254107 299006 L 245252 299006 L 205980 232046 C 201745,233586 197061,234548 192184,234548 C 187307,234548 182816,233682 178580,232142 L 154389 271683 C 163629,278606 170688,288033 174409,299006 L 158496 299006 C 153683,288899 144956,280916 134240,276874 L 133727 276393 L 133534 276585 C 128721,274853 123588,273896 118198,273896 C 93750,273896 73729,293134 73729,316896 C 73729,340657 93622,359901 118198,359901 C 136101,359901 151502,349609 158560,334889 L 174474 334889 C 166709,357688 144443,374237 118326,374237 C 85665,374237 59163,348550 59163,316992 C 59163,298621 68211,282168 82135,271683 L 59035 233490 C 56083,234163 53067,234548 49858,234548 C 28490,234548 11037,217711 11037,196933 C 11037,176149 27720,160081 48575,159407 L 48575 159600 C 46907,161525 45816,163739 45238,166049 L 40233 175668 C 31763,179325 25924,187500 25924,196933 C 25924,209728 36640,220213 49987,220213 C 63334,220213 74050,209728 74050,196933 C 74050,195104 73858,193372 73473,191639 L 81815 175379 C 84895,179614 87076,184516 88167,189714 L 154389 189714 C 156186,180961 161063,173261 167928,167781 L 123780 94186 L 128016 85909 L 135908 85909 L 180955 160947 C 184612,159888 188527,159215 192505,159215 C 196484,159215 200654,159888 204441,161043 L 232738 114964 C 222279,107938 214258,97741 210152,85812 L 223883 85812 C 224589,85812 225295,85812 226001,85716 C 232931,100533 248460,110922 266363,110922 C 290811,110922 310831,91684 310831,67922 C 310831,65131 310510,62436 309997,59837 L 309099 56276 C 303837,38193 286768,25013 266363,25013 C 248460,25013 232931,35402 226001,50218 C 225295,50218 224589,50122 223883,50122 L 210152 50122 C 217916,27323 240182,10774 266363,10774 C 298960,10774 325526,36461 325526,68019 C 325526,87160 315773,104190 300757,114579 L 327387 159985 C 329825,159503 332264,159311 334895,159311 C 356262,159311 373781,176149 373781,196933 C 373781,217711 356327,234548 334895,234548 L 334446 234548 Z M 282661 299102 C 281507,299769 280159,300154 278811,300154 C 276309,300154 273806,298909 272395,296696 L 272395 296503 C 270149,293134 271304,288707 274833,286692 C 275988,286018 277272,285633 278683,285633 C 281186,285633 283688,286884 285036,289092 L 285036 289284 C 286640,291594 286576,294386 285228,296503 C 284651,297562 283753,298428 282661,299102 Z M 189104 324115 C 184997,324115 181725,320938 181725,316992 C 181725,313046 184997,309876 189104,309876 L 189617 309876 C 192377,309876 194879,311416 196034,313623 C 195841,314682 195778,315837 195778,316992 C 195778,318147 195841,319302 196034,320361 C 194751,322575 192377,324115 189617,324115 L 189104 324115 Z M 103311 341139 L 92852 331038 L 107931 316414 L 92852 301791 L 103311 291690 L 118390 306314 L 133534 291690 L 143929 301791 L 128850 316414 L 139309 326515 L 143929 331038 L 143737 331231 L 133534 341139 L 118390 326515 L 103311 341139 Z M 156763 316992 C 156763,313046 160036,309876 164143,309876 L 164335 309876 C 167094,309876 169597,311416 170816,313623 C 170624,314682 170495,315837 170495,316992 C 170495,318147 170624,319302 170816,320361 C 169532,322575 167094,324115 164335,324115 L 164143 324115 C 160036,324115 156763,320938 156763,316992 Z M 324628 227137 C 323408,227811 322125,228196 320778,228196 C 318275,228196 315773,226944 314361,224731 L 314361 224538 C 312115,221176 313270,216748 316799,214727 C 317954,214053 319238,213668 320649,213668 C 323152,213668 325655,214919 327002,217133 L 327002 217326 C 328606,219636 328478,222427 327195,224538 C 326617,225597 325719,226463 324628,227137 Z M 328478 200680 L 328478 200488 C 326232,197119 327387,192698 330916,190676 C 332072,190003 333355,189618 334766,189618 C 337269,189618 339771,190869 341119,193083 L 341119 193275 C 342723,195585 342659,198370 341311,200488 C 340734,201547 339836,202413 338745,203087 C 337526,203760 336242,204145 334895,204145 C 332392,204145 329889,202894 328478,200680 Z M 271239 320553 L 271239 320746 C 269764,323056 267261,324403 264695,324403 C 263475,324403 262192,324115 260972,323441 C 258598,322093 257187,319687 257187,317088 C 257123,314586 258406,312089 260780,310646 C 261999,309972 263282,309587 264566,309587 C 267069,309587 269572,310838 270919,313046 L 270919 313238 C 272395,315452 272523,318243 271112,320457 L 271239 320553 Z M 206815 316992 C 206815,313046 210087,309876 214130,309876 L 214643 309876 C 218750,309876 222023,313046 222023,316992 C 222023,320938 218750,324115 214643,324115 L 214130 324115 C 210087,324115 206815,320938 206815,316992 Z M 232867 320361 C 233059,319302 233124,318147 233124,316992 C 233124,315837 233059,314682 232867,313623 C 234151,311416 236525,309876 239284,309876 L 239797 309876 C 242620,309876 245059,311416 246278,313720 C 246086,314778 245893,315933 245893,317088 C 245893,318243 245957,319398 246150,320457 C 244866,322671 242492,324211 239733,324211 L 239219 324211 C 236460,324211 233958,322671 232738,320457 L 232867 320361 Z M 296586 275141 C 295367,275815 294084,276200 292736,276200 C 290234,276200 287731,274949 286319,272741 L 286319 272549 C 284073,269180 285228,264753 288758,262731 C 289913,262057 291196,261672 292608,261672 C 295111,261672 297613,262924 298960,265138 L 298960 265330 C 300565,267640 300436,270431 299153,272549 C 298575,273608 297677,274468 296586,275141 Z M 310639 251091 C 309420,251765 308136,252150 306725,252150 C 304222,252150 301784,250899 300372,248685 L 300372 248492 C 298062,245130 299281,240702 302746,238681 C 303966,238007 305249,237622 306660,237622 C 309099,237622 311601,238873 313013,241087 L 313013 241280 C 314617,243590 314490,246381 313206,248492 C 312628,249551 311730,250417 310639,251091 Z M 111525 61858 C 112808,60992 114348,60607 115695,60607 C 118069,60607 120380,61666 121792,63687 L 121792 63880 C 123460,66093 123588,68878 122497,71092 C 121984,72151 121086,73114 119995,73787 C 118712,74654 117235,75039 115824,75039 C 113449,75039 111139,73980 109728,71958 L 109728 71766 C 107289,68500 108188,64072 111525,61858 Z M 177489 68115 C 177489,72055 174152,75231 170111,75231 L 169725 75231 C 165618,75231 162346,72055 162346,68115 C 162346,64168 165618,60992 169725,60992 L 170111 60992 C 174152,60992 177489,64168 177489,68115 Z M 58522 164797 C 59805,163931 61345,163546 62692,163546 C 65130,163546 67377,164605 68788,166626 L 68788 166819 C 70457,169033 70585,171817 69494,174031 C 68981,175090 68083,176053 66991,176726 C 65708,177592 64233,177977 62820,177977 C 60446,177977 58136,176919 56725,174898 L 56725 174705 C 54286,171432 55185,167011 58522,164797 Z M 52875 190003 C 56532,191735 58072,196067 56275,199622 L 56275 199814 C 54864,202317 52297,203760 49602,203760 C 48511,203760 47420,203568 46329,202990 C 42607,201258 41131,196933 42928,193372 L 42928 193179 C 44340,190676 46907,189233 49666,189233 C 50757,189233 51848,189425 52939,190003 L 52875 190003 Z M 230878 67249 L 222985 74846 L 223434 75231 C 219327,75231 216055,72055 216055,68115 C 216055,64168 219327,60992 223434,60992 L 223627 60992 C 227413,60992 230492,63783 230942,67345 L 230878 67249 Z M 196868 60896 C 200911,60896 204184,64072 204184,68019 C 204184,71958 200911,75135 196868,75135 L 196484 75135 C 192377,75135 189104,71958 189104,68019 C 189104,64072 192377,60896 196484,60896 L 196868 60896 Z M 150732 68019 C 150732,71958 147459,75135 143352,75135 L 142967 75135 C 138860,75135 135588,71958 135588,68019 C 135588,64072 138860,60896 142967,60896 L 143352 60896 C 147459,60896 150732,64072 150732,68019 Z M 98306 87545 C 99589,86679 101129,86294 102477,86294 C 104851,86294 107161,87353 108572,89374 L 108572 89566 C 110241,91780 110369,94565 109278,96779 C 108765,97838 107867,98800 106776,99474 C 105493,100340 103953,100725 102605,100725 C 100231,100725 97921,99666 96509,97645 L 96509 97453 C 94006,94186 94905,89759 98306,87545 Z M 85087 113328 C 86370,112462 87846,112077 89258,112077 C 91632,112077 93942,113135 95354,115157 L 95354 115349 C 97023,117563 97150,120348 95996,122562 C 95546,123621 94648,124583 93557,125257 C 92274,126123 90733,126508 89386,126508 C 86948,126508 84702,125449 83290,123428 L 83290 123235 C 80788,119969 81686,115542 85087,113328 Z M 71868 139111 C 73151,138244 74628,137859 76039,137859 C 78414,137859 80724,138918 82135,140939 L 82135 141132 C 83804,143346 83868,146131 82777,148345 C 82328,149403 81429,150366 80338,151040 C 78991,151906 77515,152291 76168,152291 C 73729,152291 71483,151232 70071,149211 L 70071 149018 C 67569,145746 68467,141324 71868,139111 Z" fill="#FFFFFF"/>
  <path d="M 79376 68307 C 81366,58207 87590,49551 96253,44064 L 70521 0 C 63847,2503 56660,3850 49153,3850 C 41581,3850 35036,2503 28555,192 L 0 46567 C 6674,52047 11422,59555 13219,68211 L 79441 68211 L 79376 68307 Z" fill="#FFFFFF" transform="translate(217018,121503)"/>
  <path d="M 24063 0 C 10845,0 0,10485 0,23280 C 0,36076 10781,46561 24063,46561 C 37411,46561 48126,36076 48126,23280 C 48126,10485 37411,0 24063,0 Z M 24063 35787 C 16941,35787 11165,30211 11165,23280 C 11165,16357 16941,10774 24063,10774 C 31250,10774 37025,16357 37025,23280 C 37025,30211 31250,35787 24063,35787 Z" fill="#FFFFFF" transform="translate(167993,173743)"/>
  <path d="M 81751 96 L 15528 96 C 13668,9619 7957,17890 0,23376 L 22395 60222 C 29582,57238 37538,55506 45880,55506 C 50051,55506 54094,55891 58008,56757 C 60960,57334 63783,58201 66543,59163 C 67441,59452 68339,59837 69301,60222 L 93622 20489 C 87654,15195 83355,8079 81751,0 L 81751 96 Z" fill="#FFFFFF" transform="translate(72126,204050)"/>
  <path d="M 13805 3658 L 13805 3465 C 12329,1251 9826,0 7324,0 C 6040,0 4757,289 3602,1059 C 1163,2503 -120,5005 9,7508 C 9,10010 1292,12506 3795,13854 C 4950,14528 6169,14816 7452,14816 C 10019,14816 12521,13469 13933,11165 L 13933 10973 C 15281,8759 15281,5968 13933,3754 L 13805 3658 Z" fill="#2C5967" transform="translate(257371,309581)"/>
  <path d="M 13996 10870 C 15279,8656 15279,5865 13868,3651 L 13868 3459 C 12392,1245 9889,0 7451,0 C 6168,0 4756,379 3537,1052 C 71,3074 -1019,7501 1034,10870 L 1034 11063 C 2574,13270 5013,14521 7515,14521 C 8798,14521 10211,14136 11429,13462 C 12521,12795 13419,11929 13996,10870 Z" fill="#2C5967" transform="translate(327444,189522)"/>
  <path d="M 13960 10870 C 15308,8656 15308,5865 13897,3651 L 13897 3459 C 12420,1245 9918,0 7416,0 C 6132,0 4720,385 3565,1052 C 100,3074 -1055,7501 1063,10870 L 1063 11063 C 2539,13276 5042,14521 7543,14521 C 8827,14521 10239,14136 11394,13469 C 12484,12795 13383,11929 13960,10870 Z" fill="#2C5967" transform="translate(313427,213572)"/>
  <path d="M 13868 3658 L 13868 3465 C 12392,1251 9889,0 7451,0 C 6104,0 4756,385 3537,1059 C 71,3080 -1019,7501 1034,10870 L 1034 11063 C 2574,13276 5013,14528 7515,14528 C 8799,14528 10211,14143 11429,13469 C 12521,12795 13419,11929 13996,10870 C 15279,8656 15279,5871 13868,3658 Z" fill="#2C5967" transform="translate(299274,237526)"/>
  <path d="M 13912 3658 L 13912 3465 C 12435,1251 9933,0 7431,0 C 6147,0 4735,385 3581,1059 C 51,3080 -1040,7501 1078,10870 L 1078 11063 C 2554,13276 5056,14528 7559,14528 C 8842,14528 10189,14143 11409,13469 C 12499,12795 13398,11929 13976,10870 C 15323,8656 15323,5871 13912,3658 Z" fill="#2C5967" transform="translate(285242,261577)"/>
  <path d="M 13868 3658 L 13868 3465 C 12392,1251 9889,0 7451,0 C 6104,0 4756,385 3537,1059 C 71,3080 -1019,7501 1034,10870 L 1034 11063 C 2574,13276 5013,14528 7515,14528 C 8798,14528 10211,14143 11429,13469 C 12521,12795 13419,11929 13996,10870 C 15279,8656 15279,5871 13868,3658 Z" fill="#2C5967" transform="translate(271232,285627)"/>
  <path d="M 64 7213 C 64,11159 3400,14329 7443,14329 L 7058 13950 L 14887 6346 C 14502,2785 11421,0 7571,0 L 7315 0 C 3273,0 0,3170 0,7116 L 64 7213 Z" fill="#2C5967" transform="translate(215735,60896)"/>
  <path d="M 0 7123 C 0,11063 3273,14239 7315,14239 L 7764 14239 C 11807,14239 15079,11063 15079,7123 C 15079,3176 11807,0 7764,0 L 7315 0 C 3273,0 0,3176 0,7123 Z" fill="#2C5967" transform="translate(135396,60993)"/>
  <path d="M 0 7123 C 0,11063 3273,14239 7380,14239 L 7764 14239 C 11871,14239 15144,11063 15144,7123 C 15144,3176 11871,0 7764,0 L 7380 0 C 3273,0 0,3176 0,7123 Z" fill="#2C5967" transform="translate(188976,60993)"/>
  <path d="M 0 7123 C 0,11063 3337,14239 7380,14239 L 7765 14239 C 11872,14239 15144,11063 15144,7123 C 15144,3176 11872,0 7765,0 L 7380 0 C 3337,0 0,3176 0,7123 Z" fill="#2C5967" transform="translate(162218,60993)"/>
  <path d="M 55569 10004 L 45046 0 L 19058 25590 L 10395 17126 L 2823 24339 L 0 27130 L 192 27515 L 19186 45983 L 55569 10004 Z" fill="#2C5967" transform="translate(239798,48775)"/>
  <path d="M 50885 39541 L 51206 39348 L 46394 34728 L 36063 24724 L 51206 10100 L 40683 0 L 25539 14624 L 10395 0 L 0 10100 L 15079 24724 L 0 39348 L 10395 49448 L 25539 34824 L 40683 49448 L 50885 39541 Z" fill="#2C5967" transform="translate(92916,291595)"/>
  <path d="M 1178 11159 L 1178 11351 C 2782,13373 5092,14432 7466,14432 C 8942,14432 10355,14046 11638,13180 C 12729,12506 13499,11544 14140,10485 C 15295,8271 15103,5480 13627,3273 L 13627 3080 C 12023,1059 9776,0 7338,0 C 5862,0 4451,385 3168,1251 C -169,3465 -1003,7983 1307,11159 L 1178 11159 Z" fill="#2C5967" transform="translate(108357,60704)"/>
  <path d="M 1179 11159 L 1179 11351 C 2783,13373 5093,14431 7467,14431 C 8943,14431 10355,14046 11638,13180 C 12729,12506 13563,11544 14140,10485 C 15296,8271 15103,5480 13627,3266 L 13627 3073 C 12023,1059 9777,0 7403,0 C 5863,0 4515,385 3168,1251 C -169,3459 -1003,7982 1307,11159 L 1179 11159 Z" fill="#2C5967" transform="translate(95074,86391)"/>
  <path d="M 1196 11159 L 1196 11351 C 2800,13373 5046,14431 7484,14431 C 8960,14431 10372,14046 11655,13180 C 12746,12506 13516,11544 14094,10485 C 15312,8278 15120,5486 13644,3272 L 13644 3080 C 12040,1059 9730,0 7356,0 C 5880,0 4468,385 3185,1251 C -216,3465 -986,7989 1324,11159 L 1196 11159 Z" fill="#2C5967" transform="translate(81903,112167)"/>
  <path d="M 1196 11159 L 1196 11351 C 2801,13373 5111,14431 7485,14431 C 8961,14431 10372,14046 11656,13180 C 12746,12506 13516,11544 14158,10485 C 15313,8278 15120,5486 13645,3273 L 13645 3080 C 12040,1059 9730,0 7356,0 C 5881,0 4468,385 3185,1251 C -216,3465 -986,7989 1324,11159 L 1196 11159 Z" fill="#2C5967" transform="translate(68619,137854)"/>
  <path d="M 1211 11159 L 1211 11351 C 2751,13373 5061,14431 7435,14431 C 8975,14431 10323,14046 11606,13180 C 12697,12506 13531,11544 14109,10485 C 15327,8271 15135,5480 13596,3272 L 13596 3080 C 12055,1059 9745,0 7371,0 C 5895,0 4483,385 3199,1251 C -201,3465 -971,7982 1275,11159 L 1211 11159 Z" fill="#2C5967" transform="translate(55450,163643)"/>
  <path d="M 846 3940 L 846 4132 C -1080,7694 396,11929 4118,13758 C 5209,14239 6300,14528 7391,14528 C 10086,14528 12781,13084 13936,10581 L 13936 10389 C 15861,6827 14321,2599 10664,770 C 9573,289 8481,0 7391,0 C 4696,0 2000,1444 717,3940 L 846 3940 Z" fill="#2C5967" transform="translate(42211,189329)"/>
  <path d="M 7572 14239 C 11679,14239 14952,11063 14952,7123 C 14952,3176 11679,0 7572,0 L 7380 0 C 3337,0 0,3176 0,7123 C 0,11063 3337,14239 7380,14239 L 7572 14239 Z" fill="#2C5967" transform="translate(215926,60993)"/>
  <path d="M 13863 3658 L 13863 3465 C 12323,1251 9884,0 7382,0 C 6099,0 4815,289 3596,1059 C 1222,2503 -62,5005 2,7508 C 2,10010 1286,12506 3789,13854 C 5008,14528 6163,14816 7446,14816 C 10077,14816 12580,13469 13927,11165 L 13927 10973 C 15339,8759 15339,5968 13927,3754 L 13863 3658 Z" fill="#2C5967" transform="translate(232095,309581)"/>
  <path d="M 13862 3658 L 13862 3465 C 12386,1251 9884,0 7381,0 C 6098,0 4815,289 3595,1059 C 1221,2503 -62,5005 2,7508 C 2,10010 1350,12506 3788,13854 C 5007,14528 6226,14816 7510,14816 C 10076,14816 12579,13469 13926,11165 L 13926 10973 C 15339,8759 15339,5968 13926,3754 L 13862 3658 Z" fill="#2C5967" transform="translate(206877,309581)"/>
  <path d="M 13805 3658 L 13805 3465 C 12329,1251 9826,0 7388,0 C 6041,0 4757,289 3602,1059 C 1228,2503 -120,5005 8,7508 C 8,10010 1292,12506 3794,13854 C 4950,14528 6168,14816 7452,14816 C 10019,14816 12522,13469 13933,11165 L 13933 10973 C 15345,8759 15345,5968 13933,3754 L 13805 3658 Z" fill="#2C5967" transform="translate(181652,309581)"/>
  <path d="M 13863 3658 L 13863 3465 C 12322,1251 9884,0 7382,0 C 6098,0 4815,289 3595,1059 C 1221,2503 -62,5005 2,7508 C 2,10010 1285,12506 3788,13854 C 5008,14528 6162,14816 7446,14816 C 10076,14816 12579,13469 13926,11165 L 13926 10973 C 15339,8759 15339,5968 13926,3754 L 13863 3658 Z" fill="#2C5967" transform="translate(156248,309581)"/>
</svg>