<svg xmlns="http://www.w3.org/2000/svg" viewBox="0 0 345419 385010" width="36" height="40">
  <path d="M 285935 172472 C 309035,172472 327836,153696 327836,130583 C 327836,107469 309035,88694 285935,88694 C 274063,88694 263476,93602 255904,101502 L 200912 61531 C 203992,55660 205789,49012 205789,41889 C 205789,18776 187051,0 163886,0 C 140786,0 122048,18776 122048,41889 C 122048,49012 123781,55660 126925,61531 L 71933 101502 C 64361,93602 53645,88790 41902,88790 C 18802,88790 0,107566 0,130679 C 0,153792 18802,172568 41902,172568 C 44405,172568 46843,172375 49153,171894 L 55313 190869 L 57239 187205 C 57687,186242 58201,185280 58778,184317 C 58971,183932 59227,183547 59548,183162 C 59805,182681 60126,182200 60511,181719 C 60767,181237 61153,180756 61537,180178 C 61730,179890 62051,179601 62244,179216 C 62628,178638 63078,178061 63463,177580 L 60511 168237 C 68853,164091 75719,157257 79762,148877 L 114349 159953 C 115119,160049 115760,160241 116530,160434 C 117621,160723 118647,160915 119610,161300 C 119931,161300 120316,161493 120573,161589 C 121343,161781 122048,162070 122818,162359 C 123267,162551 123845,162744 124358,162936 C 124936,163129 125578,163418 126155,163706 C 126733,163899 127246,164188 127824,164476 C 128080,164573 128273,164675 128594,164868 C 130518,165830 132444,166889 134176,168044 C 135139,152349 148229,139829 164207,139829 C 180185,139829 194045,153119 194366,169584 C 195136,169007 195906,168429 196676,167948 L 196933 167755 C 197832,167178 198665,166697 199564,166119 C 201361,164964 203414,164091 205403,163225 L 205403 162840 L 248460 148973 C 252503,157354 259369,164188 267710,168333 L 264823 177188 C 265336,177868 265914,178446 266363,179120 L 266876 179697 C 267262,180275 267710,180852 268096,181430 C 268417,181815 268673,182296 268994,182681 C 269250,183162 269572,183547 269829,184029 C 270406,184991 270919,185857 271497,186916 L 273101 190092 L 279004 171894 C 281314,172279 283817,172568 286191,172568 L 285935 172472 Z M 41774 160723 C 25219,160723 11679,147241 11679,130583 C 11679,113925 25154,100443 41774,100443 C 58457,100443 71933,113925 71933,130583 C 71933,147241 58457,160723 41774,160723 Z M 157918 128273 C 143866,130294 132123,139155 126155,151476 L 83034 137705 C 83419,135395 83612,133085 83612,130679 C 83612,123550 81879,116908 78671,111030 L 133663 71066 C 140016,77618 148422,82046 157854,83393 L 157854 128369 L 157918 128273 Z M 133663 41889 C 133663,25327 147139,11749 163822,11749 C 180506,11749 193981,25231 193981,41889 C 193981,58547 180506,72029 163822,72029 C 147139,72029 133663,58547 133663,41889 Z M 244033 130583 C 244033,132989 244225,135395 244610,137609 L 201489 151476 C 195521,139155 183650,130294 169662,128273 L 169662 83297 C 179159,81949 187500,77522 193853,70970 L 248845 110934 C 245765,116812 243968,123454 243968,130486 L 244033 130583 Z M 255775 130583 C 255775,114021 269250,100443 285935,100443 C 302619,100443 316094,113925 316094,130583 C 316094,147241 302619,160723 285935,160723 C 269250,160723 255775,147241 255775,130583 Z" fill="#2C5967" transform="translate(8856,8675)"/>
  <path d="M 293763 190003 C 293763,190003 294405,190003 294790,190003 C 322703,190003 345419,167274 345419,139348 C 345419,111422 322703,88694 294790,88694 C 283496,88694 272908,92351 264182,98999 L 220547 67313 C 222408,62019 223371,56340 223371,50655 C 223371,22729 200591,0 172677,0 C 144764,0 122048,22729 122048,50655 C 122048,56340 123011,61922 124808,67313 L 81173 98999 C 72446,92351 61858,88694 50693,88694 C 22716,88694 0,111422 0,139348 C 0,167274 22716,190003 50693,190003 C 51079,190003 51335,190003 51720,190003 L 55699 202233 L 58393 210517 L 23614 277830 L 19572 285627 L 20149 285915 C 17133,294007 15593,302580 15593,311435 C 15593,351983 48640,385011 89194,385011 C 124230,385011 154582,360068 161448,325591 L 161448 325013 C 162859,319045 167031,312975 173062,312975 C 179159,312975 183265,318853 184548,324628 L 184741 325591 C 191478,359972 221831,385011 256931,385011 C 297485,385011 330532,351983 330532,311435 C 330532,302676 328992,294103 325976,286012 L 326553 285723 L 322511 277926 L 287603 209741 L 290298 201367 L 294020 189906 L 293763 190003 Z M 321484 311627 C 321484,347357 292416,376341 256738,376341 C 225359,376341 199051,353812 193211,324051 C 191351,313655 183778,304312 172870,304312 C 162025,304312 154582,313944 152528,324051 C 146689,353812 120508,376341 89002,376341 C 53260,376341 24256,347260 24256,311627 C 24256,301040 26887,290927 31443,282065 L 31314 282065 L 73794 199923 C 81943,183259 97601,176521 112295,176521 C 115953,176521 119610,176906 123075,177772 C 141876,182104 154004,196259 154004,213694 L 154004 216196 C 159908,213309 166325,211769 172999,211769 C 180377,211769 187500,213598 193853,217159 L 193853 214175 C 193853,196548 205724,182200 224012,177772 C 227413,177002 230878,176521 234536,176521 C 248588,176521 263796,183162 272331,199442 L 314618 281969 L 314554 281969 C 319045,290831 321676,300944 321676,311531 L 321484 311627 Z M 248396 169681 L 253081 168141 C 254235,169777 255519,171317 256866,172863 C 254171,171509 251348,170451 248396,169681 Z M 88232 173345 C 89643,171702 91120,170066 92403,168237 L 97280 169777 C 94135,170643 91120,171798 88232,173248 L 88232 173345 Z M 279967 195585 C 279454,194623 278877,193660 278298,192698 C 278042,192217 277721,191832 277464,191350 C 277144,190965 276887,190484 276566,190099 C 276181,189521 275796,188944 275347,188366 L 274834 187789 C 274384,187115 273807,186442 273293,185864 L 276181 177002 C 267839,172863 260973,166023 256931,157643 L 213810 171509 L 213810 171901 C 211756,172767 209767,173730 207906,174788 C 207072,175366 206173,175847 205339,176425 L 205019 176617 C 204249,177195 203414,177676 202708,178254 C 202516,161788 189168,148499 172613,148499 C 156058,148499 143481,161018 142519,176713 C 140786,175558 138861,174500 136935,173537 C 136679,173441 136486,173248 136165,173152 C 135588,172863 135139,172671 134561,172382 C 133984,172093 133406,171901 132701,171606 C 132251,171413 131738,171221 131161,171028 C 130391,170739 129748,170547 128978,170258 C 128658,170162 128273,170066 128016,169969 C 126925,169681 125963,169392 124936,169103 C 124166,168911 123460,168814 122690,168622 L 88103 157546 C 84060,165927 77259,172767 68853,176906 L 71869 186249 C 71355,186826 70971,187404 70585,187885 C 70393,188174 70136,188463 69944,188848 C 69558,189329 69238,189810 68853,190388 C 68596,190869 68275,191350 67891,191832 C 67634,192217 67441,192602 67121,192987 C 66543,193949 66094,194912 65580,195874 L 63655 199538 L 57495 180564 C 55185,180949 52810,181237 50308,181237 C 27207,181237 8406,162462 8406,139348 C 8406,116235 27207,97459 50308,97459 C 62051,97459 72703,102368 80339,110171 L 135331 70207 C 132251,64329 130391,57688 130391,50558 C 130391,27445 149192,8669 172292,8669 C 195393,8669 214194,27445 214194,50558 C 214194,57688 212462,64329 209253,70207 L 264246 110171 C 271882,102272 282534,97363 294341,97363 C 317441,97363 336178,116138 336178,139252 C 336178,162365 317441,181141 294341,181141 C 291838,181141 289399,180949 287089,180467 L 281186 198672 L 279582 195489 L 279967 195585 Z" fill="#FFFFFF"/>
  <path d="M 0 12224 L 0 57200 C 14117,59221 25859,68083 31827,80409 L 74948 66543 C 74564,64232 74371,61916 74371,59510 C 74371,52483 76104,45739 79312,39964 L 24319 0 C 17967,6545 9561,10973 128,12320 L 0 12224 Z" fill="#FFFFFF" transform="translate(178517,79838)"/>
  <path d="M 60318 30146 C 60318,13578 46778,0 30159,0 C 13475,0 0,13482 0,30146 C 0,46804 13475,60286 30159,60286 C 46778,60286 60318,46804 60318,30146 Z" fill="#FFFFFF" transform="translate(142519,20418)"/>
  <path d="M 60254 30140 C 60254,13578 46779,0 30095,0 C 13475,0 0,13482 0,30140 C 0,46798 13475,60280 30095,60280 C 46779,60280 60254,46798 60254,30140 Z" fill="#FFFFFF" transform="translate(264631,109112)"/>
  <path d="M 0 40060 C 3080,45938 4941,52580 4941,59709 C 4941,62115 4748,64425 4364,66735 L 47485 80512 C 53452,68185 65324,59324 79248,57302 L 79248 12327 C 69815,10979 61473,6552 55120,0 L 128 39964 L 0 40060 Z" fill="#FFFFFF" transform="translate(87526,79639)"/>
  <path d="M 30159 0 C 13604,0 0,13482 0,30146 C 0,46804 13475,60286 30159,60286 C 46778,60286 60318,46804 60318,30146 C 60318,13482 46778,0 30159,0 Z" fill="#FFFFFF" transform="translate(20406,109208)"/>
  <path d="M 44212 0 C 19829,0 0,19841 0,44206 C 0,68570 19829,88405 44212,88405 C 68532,88405 88360,68570 88360,44206 C 88360,19841 68532,0 44212,0 Z M 44212 76848 C 26181,76848 11422,62211 11422,44109 C 11422,26001 26053,11364 44212,11364 C 62308,11364 76938,26001 76938,44109 C 76938,62211 62308,76848 44212,76848 Z" fill="#2C5967" transform="translate(44790,267332)"/>
  <path d="M 32790 0 C 14759,0 0,14643 0,32745 C 0,50847 14695,65484 32790,65484 C 50886,65484 65516,50847 65516,32745 C 65516,14643 50886,0 32790,0 Z" fill="#FFFFFF" transform="translate(56212,278792)"/>
  <path d="M 247883 22921 C 239349,6545 224076,0 210023,0 C 206366,0 202901,481 199564,1251 C 181276,5775 169533,20123 169533,37654 L 169533 40638 C 163116,37173 155993,35248 148614,35248 C 141941,35248 135524,36788 129620,39675 L 129620 37173 C 129620,19642 117492,5583 98820,1251 C 95354,481 91761,0 88039,0 C 73281,0 57623,6738 49538,23402 L 7058 105448 L 7123 105448 C 2631,114406 0,124423 0,135010 C 0,170739 29068,199724 64746,199724 C 96124,199724 122433,177195 128273,147433 C 130326,137327 137705,127695 148614,127695 C 159458,127695 167095,137038 168955,147433 C 174795,177195 200975,199724 232482,199724 C 268224,199724 297228,170643 297228,135010 C 297228,124423 294597,114406 290041,105544 L 290169 105544 L 247883 23017 L 247883 22921 Z M 67505 187981 C 66671,187981 65708,187981 64810,187981 C 63976,187981 63013,187981 62115,187981 C 34201,186531 11871,163328 11871,135010 C 11871,106699 34201,83490 62115,82046 C 63013,82046 63976,82046 64810,82046 C 65708,82046 66671,82046 67505,82046 C 95418,83490 117813,106699 117813,135010 C 117813,163328 95418,186531 67505,187981 Z M 117813 97940 C 106071,81179 86692,70297 64746,70297 C 53837,70297 43571,72998 34587,77811 L 59997 28696 C 65901,16658 77323,11749 88103,11749 C 90927,11749 93622,12038 96124,12616 C 106135,14926 117877,22728 117877,37077 L 117877 97940 L 117813 97940 Z M 167865 122684 C 162538,118545 155801,116042 148486,116042 C 141171,116042 134754,118449 129428,122491 L 129428 53446 C 134946,49307 141555,46997 148486,46997 C 156121,46997 163437,49788 169148,54793 L 167865 122684 Z M 181147 37750 C 181147,23017 192505,15022 202259,12616 C 204633,12038 207328,11653 210023,11653 C 219777,11653 230749,15888 237295,28311 L 262642 77811 C 253594,72998 243263,70200 232289,70200 C 210793,70200 191735,80698 179993,96779 L 181083 37654 L 181147 37750 Z M 232418 188270 C 203029,188270 179159,164387 179159,135010 C 179159,105641 203029,81757 232418,81757 C 261743,81757 285614,105641 285614,135010 C 285614,164387 261743,188270 232418,188270 Z" fill="#2C5967" transform="translate(24256,176521)"/>
  <path d="M 55634 0 C 54800,0 53837,0 52939,0 C 52105,0 51142,0 50244,0 C 22330,1444 0,24654 0,52965 C 0,81276 22330,104485 50244,105929 C 51142,105929 52105,105929 52939,105929 C 53837,105929 54800,105929 55634,105929 C 83547,104485 105942,81276 105942,52965 C 105942,24654 83547,1444 55634,0 Z M 52939 97074 C 28619,97074 8727,77233 8727,52868 C 8727,28504 28619,8669 52939,8669 C 77323,8669 97151,28504 97151,52868 C 97151,77233 77323,97074 52939,97074 Z" fill="#FFFFFF" transform="translate(36127,258566)"/>
  <path d="M 0 6455 L 0 75501 C 5198,71458 11872,69052 18994,69052 C 26117,69052 32918,71554 38309,75693 L 39592 7803 C 33881,2791 26566,0 18994,0 C 12064,0 5391,2310 0,6455 Z" fill="#FFFFFF" transform="translate(153876,223518)"/>
  <path d="M 61537 866 C 58970,289 56276,0 53580,0 C 42800,0 31314,4909 25475,16947 L 0 66061 C 9048,61345 19251,58554 30159,58554 C 52105,58554 71484,69527 83226,86191 L 83226 25327 C 83226,10979 71548,3177 61537,866 Z" fill="#FFFFFF" transform="translate(58843,188270)"/>
  <path d="M 52169 58554 C 63142,58554 73473,61249 82520,66158 L 57174 16658 C 50757,4235 39785,0 29967,0 C 27143,0 24513,385 22139,963 C 12385,3369 1027,11364 1027,26097 L 0 85229 C 11743,69142 30801,58650 52297,58650 L 52169 58554 Z" fill="#FFFFFF" transform="translate(204569,188270)"/>
  <path d="M 88937 44488 C 88937,19931 69045,0 44468,0 C 19892,0 0,19931 0,44488 C 0,69045 19892,88982 44468,88982 C 69045,88982 88937,69045 88937,44488 Z M 11807 44488 C 11807,26482 26502,11749 44597,11749 C 62693,11749 77322,26386 77322,44488 C 77322,62596 62693,77233 44597,77233 C 26502,77233 11807,62596 11807,44488 Z" fill="#2C5967" transform="translate(212141,267049)"/>
  <path d="M 53259 0 C 23935,0 0,23877 0,53253 C 0,82623 23935,106507 53259,106507 C 82648,106507 106519,82623 106519,53253 C 106519,23877 82648,0 53259,0 Z M 8791 53253 C 8791,28696 28747,8759 53259,8759 C 77836,8759 97793,28696 97793,53253 C 97793,77811 77836,97741 53259,97741 C 28747,97741 8791,77811 8791,53253 Z" fill="#FFFFFF" transform="translate(203479,258284)"/>
  <path d="M 65451 32745 C 65451,14739 50822,0 32726,0 C 14631,0 0,14643 0,32745 C 0,50847 14631,65484 32726,65484 C 50822,65484 65451,50847 65451,32745 Z" fill="#FFFFFF" transform="translate(223948,278792)"/>
</svg>