<svg xmlns="http://www.w3.org/2000/svg" viewBox="0 0 346547 385010" width="36" height="40">
  <path d="M 168707 375847 C 151208,375847 34,374468 34,326072 L 34 54819 C -11,54242 -11,53658 34,53080 C -11,52374 -11,51675 34,50969 C 34,13751 90922,0 168707,0 C 246492,0 337380,13751 337380,50969 C 337425,51675 337425,52374 337380,53080 C 337425,53658 337425,54242 337380,54819 L 337380 326072 C 337380,374468 185930,375847 168707,375847 Z" fill="#FFFFFF" transform="translate(4592,4582)"/>
  <path d="M 173293 9170 C 252272,9170 337384,23653 337384,55551 C 337430,56314 337430,57078 337384,57841 C 337436,58361 337436,58881 337384,59401 L 337384 330653 C 337384,366678 230005,375841 173293,375841 C 116581,375841 9202,366678 9202,330653 L 9202 59401 C 9150,58881 9150,58361 9202,57841 C 9157,57078 9157,56314 9202,55551 C 9202,23653 94225,9170 173293,9170 Z M 173293 0 C 144340,0 38,2657 38,55551 C -7,56256 -7,56956 38,57662 C -13,58239 -13,58823 38,59401 L 38 330653 C 38,382354 144340,385011 173293,385011 C 202246,385011 346548,382354 346548,330653 L 346548 59401 C 346548,58759 346548,58207 346548,57662 C 346548,57110 346548,56192 346548,55551 C 346548,2657 202246,0 173293,0 Z" fill="#FFFFFF"/>
  <path d="M 89425 0 C 75128,1008 60107,1559 44713,1559 C 29319,1559 14297,1008 0,0 L 0 15311 C 16222,16504 31796,16960 44713,16960 C 57630,16960 73114,16504 89425,15311 L 89425 0 Z" fill="#2D5967" transform="translate(128587,268224)"/>
  <path d="M 0 15304 C 16215,16498 31795,16960 44712,16960 C 57629,16960 73113,16498 89425,15304 L 89425 0 C 75128,1008 60107,1559 44712,1559 C 29318,1559 14297,1008 0,0 L 0 15304 Z" fill="#2D5967" transform="translate(128311,178940)"/>
  <path d="M 328228 46387 C 328228,14483 243108,0 164130,0 C 85158,0 38,14483 38,46387 C 0,47151 0,47915 38,48678 C -13,49198 -13,49718 38,50238 L 38 321484 C 38,357508 107328,366678 164130,366678 C 220939,366678 328228,357508 328228,321484 L 328228 50238 C 328273,49718 328273,49198 328228,48678 C 328266,47915 328266,47151 328228,46387 Z M 273255 340458 C 237520,348095 201040,351694 164502,351187 C 127715,351752 90985,348152 55012,340458 C 22485,332668 15157,323961 15157,321484 L 15157 251726 C 32976,260659 52188,266485 71965,268956 L 71965 253376 C 66010,252272 60325,251174 55012,249891 C 22485,242101 15157,233297 15157,230917 L 15157 162436 C 32976,171375 52188,177201 71965,179672 L 71965 164092 C 66010,162988 60325,161891 55012,160607 C 22485,152811 15157,144013 15157,141633 L 15157 67563 C 43192,84702 105127,92679 163764,92679 C 222401,92679 284337,84702 312372,67563 L 312372 141633 C 312372,144013 305044,152811 272517,160607 C 267204,161891 261525,162988 255570,164092 L 255570 179672 C 275347,177188 294553,171362 312372,162436 L 312372 230917 C 312372,233297 305044,242101 272517,249891 C 267204,251174 261525,252272 255570,253376 L 255570 268956 C 275347,266472 294553,260646 312372,251726 L 312372 321484 C 312744,323961 305410,332668 272889,340458 L 273255 340458 Z M 164130 15490 C 200661,14996 237122,18718 272793,26585 C 305596,34651 312744,43545 312744,46387 C 312744,49230 305596,58117 272793,66183 C 237122,74050 200661,77772 164130,77278 C 127451,77798 90837,74076 55012,66183 C 22671,58117 15522,49134 15522,46387 C 15522,43635 22671,34651 55012,26585 C 90837,18699 127451,14977 164130,15490 Z" fill="#2D5967" transform="translate(9169,9170)"/>
  <path d="M 48928 194527 C 54190,194533 59439,194014 64592,192968 L 64592 173621 C 61595,174333 58515,174673 55429,174635 C 53427,174853 51406,174654 49480,174057 C 47555,173454 45778,172466 44251,171150 C 41851,167628 40753,163386 41138,159138 L 41138 112757 L 20894 97357 L 41138 81860 L 41138 35389 C 40753,31141 41851,26900 44251,23377 C 45778,22062 47555,21073 49480,20470 C 51406,19873 53427,19674 55429,19893 C 58515,19905 61583,20239 64592,20900 L 64592 1650 C 59446,533 54190,-19 48928,0 C 28035,0 17595,10909 17595,32726 L 17595 75539 L 0 90388 L 0 104595 L 17595 119078 L 17595 161891 C 17595,183644 28035,194527 48928,194527 Z" fill="#2D5967" transform="translate(75449,129620)"/>
  <path d="M 15946 1 C 10678,-25 5422,527 276,1650 L 276 20900 C 3286,20246 6359,19906 9439,19893 C 11428,19675 13437,19874 15349,20471 C 17255,21074 19019,22062 20527,23377 C 22812,26907 23813,31110 23364,35293 L 23364 81681 L 43705 97171 L 23364 112572 L 23364 159049 C 23755,163290 22652,167538 20252,171055 C 18744,172370 16979,173358 15073,173962 C 13167,174558 11152,174757 9163,174539 C 6083,174571 3003,174237 0,173532 L 0 192872 C 5159,193918 10408,194438 15670,194431 C 36557,194431 47003,183523 47003,161705 L 47003 118898 L 64688 104409 L 64688 90292 L 47003 75630 L 47003 32727 C 47189,10910 36833,1 15946,1 Z" fill="#2D5967" transform="translate(206186,129716)"/>
</svg>