<svg xmlns="http://www.w3.org/2000/svg" viewBox="0 0 385010 382868" width="40" height="40">
  <path d="M 0 76575 L 0 0 L 135973 0 L 135973 46492 L 110434 46492 C 104017,46492 98563,51962 98563,58343 L 98563 76575 L 0 76575 Z" fill="#FFFFFF" transform="translate(193404,41943)"/>
  <path d="M 136871 9116 L 136871 46491 L 115888 46491 C 106776,46491 99461,53784 99461,62900 L 99461 76574 L 10010 76574 L 10010 9116 L 136871 9116 Z M 145983 0 L 136871 0 L 9111 0 L 0 0 L 0 9116 L 0 76574 L 0 85690 L 9111 85690 L 98563 85690 L 107674 85690 L 107674 76574 L 107674 62900 C 107674,59254 111332,55607 114925,55607 L 135973 55607 L 145085 55607 L 145085 46491 L 145085 9116 L 145983 0 Z" fill="#FFFFFF" transform="translate(188848,37380)"/>
  <path d="M 17326 373754 L 0 365553 L 0 354613 L 35614 288065 L 35614 123977 C 35614,113038 44726,103922 55634,103922 L 176079 103922 L 176079 46491 L 44726 46491 L 41966 74751 L 45624 74751 L 45624 102099 L 15529 102099 L 15529 74751 L 19186 74751 L 15529 30994 L 15529 0 L 45624 0 L 45624 23701 L 338488 23701 L 338488 74751 L 355814 74751 C 367685,74751 376798,83867 376798,95718 L 376798 200552 C 376798,212403 367685,221518 355814,221518 L 337590 221518 L 337590 285331 L 373140 353702 L 373140 364642 L 355814 372843 L 17326 372843 L 17326 373754 Z M 279197 104834 L 279197 95718 C 279197,83867 288309,74751 300180,74751 L 316608 74751 L 316608 46491 L 197960 46491 L 197960 104834 L 279197 104834 Z" fill="#FFFFFF" transform="translate(4556,4565)"/>
  <path d="M 45624 9116 L 45624 32817 L 338488 32817 L 338488 83867 L 360370 83867 C 369482,83867 376797,91160 376797,100275 L 376797 205109 C 376797,214226 369482,221518 360370,221518 L 337590 221518 L 337590 291712 L 373140 360082 L 373140 366461 L 360370 373757 L 22780 373757 L 9112 367372 L 9112 360994 L 44725 294446 L 44725 128535 C 44725,120331 51976,113038 60190,113038 L 185190 113038 L 185190 46491 L 44725 46491 L 41966 83867 L 45624 83867 L 45624 85690 L 45624 102099 L 24640 102099 L 24640 85690 L 24640 83867 L 28298 83867 L 24640 35552 L 24640 9116 L 45624 9116 Z M 197959 113950 L 287411 113950 L 287411 100275 C 287411,91160 294662,83867 303837,83867 L 324821 83867 L 324821 46491 L 197959 46491 L 197959 113950 Z M 54736 0 L 45624 0 L 24640 0 L 15529 0 L 15529 9116 L 15529 35552 L 18224 74751 L 15529 74751 L 15529 83867 L 15529 85690 L 15529 102099 L 15529 111215 L 24640 111215 L 42865 111215 C 38308,115773 34651,122154 34651,129447 L 34651 291712 L 0 355526 L 0 358260 L 0 360082 L 0 366461 L 0 371934 L 5454 374668 L 18224 381957 L 20085 382869 L 21882 382869 L 359472 382869 L 361269 382869 L 363129 381957 L 376797 375579 L 381353 372846 L 381353 367372 L 381353 360994 L 381353 359171 L 380455 357349 L 345804 290800 L 345804 232458 L 359472 232458 C 373140,232458 385011,220607 385011,206933 L 385011 100275 C 385011,85690 373140,74751 359472,74751 L 346702 74751 L 346702 32817 L 346702 23701 L 337590 23701 L 54736 23701 L 54736 9116 L 54736 0 Z M 52939 55607 L 175180 55607 L 175180 104834 L 60190 104834 C 58393,104834 56596,104834 55634,105745 L 55634 102099 L 55634 85690 L 55634 83867 L 55634 74751 L 51976 74751 L 52939 55607 Z M 207072 55607 L 315644 55607 L 315644 74751 L 303837 74751 C 290105,74751 278234,86602 278234,100275 L 278234 104834 L 207072 104834 L 207072 55607 Z" fill="#FFFFFF"/>
  <path d="M 13668 0 L 0 0 L 0 13674 L 13668 13674 L 13668 0 Z" fill="#2D5967" transform="translate(320265,60164)"/>
  <path d="M 13668 13674 L 13668 0 L 6353 0 L 0 0 L 0 13674 L 6353 13674 L 13668 13674 Z" fill="#2D5967" transform="translate(320265,32822)"/>
  <path d="M 13668 0 L 0 0 L 0 13674 L 13668 13674 L 13668 0 Z" fill="#2D5967" transform="translate(104017,32822)"/>
  <path d="M 13668 0 L 0 0 L 0 13674 L 13668 13674 L 13668 0 Z" fill="#2D5967" transform="translate(130454,32822)"/>
  <path d="M 13668 0 L 0 0 L 0 13674 L 13668 13674 L 13668 0 Z" fill="#2D5967" transform="translate(157854,32822)"/>
  <path d="M 13668 0 L 0 0 L 0 13674 L 13668 13674 L 13668 0 Z" fill="#2D5967" transform="translate(292865,32822)"/>
  <path d="M 13732 0 L 0 0 L 0 13674 L 13732 13674 L 13732 0 Z" fill="#2D5967" transform="translate(211627,32822)"/>
  <path d="M 13732 0 L 0 0 L 0 13674 L 13732 13674 L 13732 0 Z" fill="#2D5967" transform="translate(265465,32822)"/>
  <path d="M 13668 0 L 0 0 L 0 13674 L 13668 13674 L 13668 0 Z" fill="#2D5967" transform="translate(239027,32822)"/>
  <path d="M 0 2734 L 0 3646 L 0 13674 L 7315 13674 L 7315 0 L 0 0 L 0 2734 Z" fill="#2D5967" transform="translate(55634,32822)"/>
  <path d="M 13668 0 L 0 0 L 0 13674 L 13668 13674 L 13668 0 Z" fill="#2D5967" transform="translate(76617,32822)"/>
  <path d="M 222600 0 L 0 0 L 0 13674 L 222600 13674 L 222600 0 Z" fill="#2D5967" transform="translate(80275,311764)"/>
  <path d="M 69301 0 L 0 0 L 0 13674 L 69301 13674 L 69301 0 Z" fill="#2D5967" transform="translate(208933,113949)"/>
  <path d="M 315708 174115 L 49281 174115 L 49281 14586 C 49281,13674 49281,13674 51078,13674 L 166068 13674 L 166068 0 L 51078 0 C 42864,0 35613,7293 35613,15497 L 35613 180496 L 0 246133 L 0 252512 L 13668 259808 L 351258 259808 L 364926 253423 L 364926 247045 L 329376 177762 L 329376 118508 L 315708 118508 L 315708 174115 Z M 349461 246133 L 15528 246133 L 47421 186878 L 319302 186878 L 349461 246133 Z" fill="#2D5967" transform="translate(9112,113949)"/>
  <path d="M 108573 0 L 0 0 L 0 13674 L 108573 13674 L 108573 0 Z" fill="#2D5967" transform="translate(137769,334556)"/>
  <path d="M 0 26436 L 3658 65635 L 18224 65635 L 20983 26436 L 20983 0 L 0 0 L 0 26436 Z" fill="#2D5967" transform="translate(24640,9121)"/>
  <path d="M 0 0 L 0 1823 L 0 18232 L 20983 18232 L 20983 1823 L 20983 0 L 0 0 Z" fill="#2D5967" transform="translate(24640,83863)"/>
  <path d="M 72959 0 L 16427 0 C 7315,0 0,7293 0,16409 L 0 121242 C 0,130359 7315,137652 16427,137652 L 72959 137652 C 82071,137652 89386,130359 89386,121242 L 89386 17320 C 89386,8205 82071,0 72959,0 Z M 72959 125800 L 16427 125800 C 14566,125800 13668,123977 13668,122154 L 13668 114861 L 75718 114861 L 75718 122154 C 75718,123977 73921,125800 72959,125800 Z M 12769 102099 L 12769 17320 C 12769,15497 14566,14585 15528,14585 L 72061 14585 C 73921,14585 74820,15497 74820,17320 L 74820 102099 L 12769 102099 Z" fill="#2D5967" transform="translate(288309,82944)"/>
  <path d="M 0 16409 L 1797 41933 L 11871 41933 L 13668 16409 L 13668 0 L 0 0 L 0 16409 Z" fill="#2D5967" transform="translate(326617,112133)"/>
  <path d="M 13668 0 L 0 0 L 0 11860 L 13668 11860 L 13668 0 Z" fill="#2D5967" transform="translate(326617,159531)"/>
  <path d="M 13732 0 L 0 0 L 0 13674 L 13732 13674 L 13732 0 Z" fill="#2D5967" transform="translate(185190,60164)"/>
  <path d="M 13732 0 L 0 0 L 0 13674 L 13732 13674 L 13732 0 Z" fill="#2D5967" transform="translate(185190,86597)"/>
  <path d="M 0 13674 L 12769 13674 L 12769 3646 L 12769 0 L 0 0 L 0 3646 L 0 13674 Z" fill="#2D5967" transform="translate(185190,32822)"/>
  <path d="M 13732 0 L 0 0 L 0 13674 L 13732 13674 L 13732 0 Z" fill="#2D5967" transform="translate(185190,113949)"/>
  <path d="M 4556 94806 L 26438 94806 L 30994 38287 L 30994 13674 L 30994 0 L 0 0 L 0 13674 L 0 38287 L 4556 94806 Z" fill="#2D5967" transform="translate(176078,140381)"/>
  <path d="M 30095 0 L 0 0 L 0 27348 L 30095 27348 L 30095 0 Z" fill="#2D5967" transform="translate(176078,247044)"/>
</svg>