<svg xmlns="http://www.w3.org/2000/svg" viewBox="0 0 379492 385010" width="40" height="40">
  <path d="M 92082 375796 C 60767,375796 35934,350007 35934,319610 L 35934 300270 C 23935,299346 11935,297504 0,293821 L 1796 284613 C 10138,285530 17454,286454 25796,286454 C 29453,286454 33110,286454 35934,286454 L 35934 122504 C 34971,55262 90220,0 158431,0 L 176848 0 C 185126,0 194301,1842 201681,5525 C 209060,1842 217338,0 225616,0 L 267069 0 C 304864,0 336178,31314 336178,69077 L 336178 166716 C 361012,172241 373910,181449 373910,193423 L 373910 342640 C 373910,373037 299345,375796 276309,375796 C 253273,375796 178645,373037 178645,343558 L 178645 335274 L 176848 335274 C 174089,358297 153812,375796 130775,375796 L 92082 375796 Z" fill="#FFFFFF" transform="translate(1861,4607)"/>
  <path d="M 268930 9208 C 304864,9208 333419,38687 333419,73685 L 333419 175007 C 354595,179607 371214,186056 371214,198030 C 371214,198030 371214,198030 371214,198954 L 371214 347247 L 371214 348165 C 371214,374878 288309,375802 278170,375802 C 268930,375802 185126,374878 185126,348165 L 185126 347247 L 185126 334349 L 174987 334349 C 174089,357379 155673,374878 132636,374878 L 93044 374878 C 64490,374878 41453,351855 41453,323300 L 41453 322376 L 41453 309484 L 41453 300270 C 41453,300270 41453,300270 40554,300270 L 39592 300270 L 38694 300270 C 25796,299352 13796,297511 1861,293821 C 10138,294745 18416,295669 25796,295669 C 29453,295669 34074,295669 37795,294745 C 38694,294745 39592,294745 40554,294745 L 40554 127111 C 41453,62635 94841,9208 160293,9208 L 178709 9208 C 186987,9208 194366,11050 201745,14739 L 203542 15657 C 210922,11050 219200,9208 227477,9208 L 268930 9208 Z M 268930 0 L 227477 0 C 219200,0 210922,1842 203542,4607 C 195265,1842 186987,0 178709,0 L 160293 0 C 89323,0 32213,57110 32213,127111 L 32213 286454 C 30416,286454 28555,286454 26694,286454 C 19315,286454 11999,285537 3657,284613 L 0 303035 C 11037,306719 22074,308560 32213,309484 L 32213 310402 L 32213 322376 L 32213 324217 C 32213,358297 59869,385011 93044,385011 L 132636 385011 C 151951,385011 169469,373961 177746,357379 C 188848,380403 243134,385011 277272,385011 C 315003,385011 379492,380403 379492,348165 L 379492 347247 L 379492 199872 L 379492 198954 C 379492,185139 366594,174082 341697,168558 L 341697 73685 C 342660,33156 309484,0 268930,0 Z" fill="#FFFFFF"/>
  <path d="M 13796 117897 C 13796,60787 60768,13815 118840,13815 L 137256 13815 C 142775,13815 149192,14733 154710,17499 L 163052 21182 L 165812 19340 C 171330,15657 178710,13815 185127,13815 L 226579 13815 C 255134,13815 277272,36839 277272,64470 L 277272 151976 C 281828,152894 286448,152894 291068,153818 C 291068,152894 291068,152894 291068,151976 L 291068 64470 C 291068,28549 261615,0 226579,0 L 185127 0 C 176849,0 168571,1842 161191,5525 L 159331 4601 C 152914,1842 144636,0 137256,0 L 118840 0 C 53389,0 0,53420 0,117897 L 0 276322 C 4621,274480 9176,273556 13796,271715 L 13796 117897 Z" fill="#2C5967" transform="translate(41453,9214)"/>
  <path d="M 106841 0 L 93044 0 C 87526,0 82007,1842 78286,4607 C 76489,6449 74628,8291 72767,10132 C 70008,13816 68147,19341 68147,24872 L 68147 37763 L 82007 37763 L 82007 24872 C 82007,18423 86627,13816 93044,13816 L 106841 13816 C 114220,13816 119738,19341 119738,26713 L 119738 48820 C 119738,64477 106841,77368 91184,77368 L 51592 77368 C 30416,77368 13861,59869 13861,39605 L 13861 26713 C 9241,26713 4620,25790 0,25790 L 0 40529 C 0,69084 23036,92107 51592,92107 L 91184 92107 C 114220,92107 133599,72767 133599,49737 L 133599 27631 C 133599,11974 121600,0 106841,0 Z" fill="#2C5967" transform="translate(42351,285536)"/>
  <path d="M 133534 14916 C 136294,9391 133534,3866 128978,1101 C 123396,-1659 117877,1101 115118,5708 L 111461 13075 L 110562 13999 L 109599 15840 L 109599 16758 L 109599 17682 L 109599 18606 C 108701,19524 108701,20448 107738,22289 C 104979,26890 101321,31497 97664,36105 C 90285,44395 81045,51762 70007,56369 C 64489,59128 58970,60970 53452,61894 C 47869,63735 41453,64660 35934,64660 C 23935,65577 11999,65577 0,62818 C 11999,66501 23935,68343 36833,69260 C 43314,69260 49731,69260 56211,68343 C 62628,67419 69109,66501 74628,64660 C 86563,60970 98563,54527 108701,46237 C 114219,41629 118839,37022 122497,31497 C 123396,30580 124358,28738 125256,26890 L 126219 26890 L 126219 25972 L 126219 25048 L 127117 23207 L 128016 22289 L 132636 15840 C 133534,15840 133534,14916 133534,14916 Z" fill="#2C5967" transform="translate(2760,231009)"/>
  <path d="M 5518 3681 C 1860,6446 0,11972 0,16579 C 0,19344 898,20262 1860,22104 C 1860,23028 2759,23945 3657,24869 C 4620,25787 4620,26711 5518,27628 C 6417,26711 6417,25787 7379,24869 C 8277,23945 8277,23028 9176,22104 C 10138,20262 11037,18420 11037,18420 C 11999,16579 13796,15655 14758,14737 C 15657,13813 16555,12895 18416,11972 C 21175,11054 24833,9212 27656,6446 C 24833,3681 21175,1839 18416,922 C 13796,-920 9176,-2 5518,3681 Z" fill="#2C5967" transform="translate(101322,120664)"/>
  <path d="M 186088 177772 L 186088 29473 C 186088,29473 186088,29473 186088,28555 C 186088,6449 128016,0 93044,0 C 58009,0 0,5525 0,28555 C 0,28555 0,28555 0,29473 L 0 177772 L 0 178690 C 0,205403 82906,206321 93044,206321 C 103183,205403 186088,204479 186088,177772 Z M 172228 177772 C 168571,183297 140016,191588 93044,191588 C 46073,191588 17518,182373 13796,177772 L 13796 145534 C 37795,156584 85665,157508 93044,157508 C 100424,157508 148293,157508 172228,145534 L 172228 177772 Z M 93044 56186 C 116979,56186 152914,53427 172228,44212 L 172228 78292 C 168571,83817 140016,92107 93044,92107 C 46073,92107 17518,82899 13796,78292 L 13796 44212 C 34074,53427 69110,56186 93044,56186 Z M 172228 28555 C 168571,34080 140914,43294 93943,43294 C 46972,43294 18416,34080 15658,28555 C 19379,23030 46972,13816 93943,13816 C 140914,13816 168571,23030 172228,28555 Z M 93044 106847 C 100424,106847 148293,106847 172228,94873 L 172228 128953 C 168571,134478 140016,142768 93044,142768 C 46073,142768 17518,133560 13796,128953 L 13796 94873 C 38694,105923 86563,106847 93044,106847 Z" fill="#2C5967" transform="translate(185126,170399)"/>
</svg>