<svg xmlns="http://www.w3.org/2000/svg" viewBox="0 0 385010 385010" width="40" height="40">
  <path d="M 20123 375845 C 9144,375845 0,366675 0,355677 L 0 20167 C 0,9166 9144,0 20123,0 L 355750 0 C 366723,0 375867,9166 375867,20167 L 375867 356594 C 375867,367593 366723,376762 355750,376762 L 20123 375845 Z" fill="#FFFFFF" transform="translate(4562,4584)"/>
  <path d="M 359407 9167 C 367634,9167 374949,16500 374949,24750 L 374949 361179 C 374949,369424 367634,376759 359407,376759 L 24692 376759 C 16459,375841 9144,368513 9144,360261 L 9144 24750 C 9144,16500 16459,9167 24692,9167 L 359407 9167 Z M 359407 0 L 24692 0 C 10973,0 0,11000 0,24750 L 0 361179 C 0,374012 10973,385011 24692,385011 L 360319 385011 C 374038,385011 385011,374012 385011,360261 L 385011 24750 C 384093,11000 373120,0 359407,0 Z" fill="#FFFFFF"/>
  <path d="M 350257 0 L 15542 0 C 7315,0 0,7334 0,15584 L 0 352008 C 0,359342 7315,366676 15542,366676 L 351168 366676 C 359401,366676 366716,359342 366716,351090 L 366716 15584 C 365805,7334 358490,0 350257,0 Z M 352086 351090 C 352086,352008 351168,352925 350257,352925 L 15542 352925 C 14630,352925 13713,352008 13713,351090 L 13713 15584 C 13713,14667 14630,13751 15542,13751 L 351168 13751 C 352086,13751 352997,14667 352997,15584 L 352086 351090 Z" fill="#2D5967" transform="translate(9150,9171)"/>
  <path d="M 0 81586 L 103343 81586 L 103343 0 L 0 0 L 0 81586 Z M 13719 13751 L 89624 13751 L 89624 67836 L 13719 67836 L 13719 13751 Z" fill="#2D5967" transform="translate(49384,252089)"/>
  <path d="M 0 81586 L 284414 81586 L 284414 0 L 0 0 L 0 81586 Z M 13719 13751 L 270701 13751 L 270701 67836 L 13719 67836 L 13719 13751 Z" fill="#2D5967" transform="translate(49384,49504)"/>
  <path d="M 192050 0 L 0 0 L 0 81585 L 191138 81585 L 191138 0 L 192050 0 Z M 178330 67835 L 13719 67835 L 13719 12834 L 178330 12834 L 178330 67835 Z" fill="#2D5967" transform="translate(49384,152171)"/>
  <path d="M 69501 0 L 0 0 L 0 67836 L 69501 67836 L 69501 0 Z" fill="#2D5967" transform="translate(257899,158594)"/>
  <path d="M 69501 0 L 0 0 L 0 67835 L 69501 67835 L 69501 0 Z" fill="#2D5967" transform="translate(257899,258513)"/>
  <path d="M 69501 0 L 0 0 L 0 67835 L 69501 67835 L 69501 0 Z" fill="#2D5967" transform="translate(171939,258513)"/>
</svg>