<svg xmlns="http://www.w3.org/2000/svg" viewBox="0 0 384086 385010" width="40" height="40">
  <path d="M 140927 377644 L 135402 331590 C 131718,330666 128953,328825 125269,326983 L 89348 355538 L 21188 287376 L 49743 251454 C 47895,247770 46978,245007 46054,241323 L 0 235796 L 0 140925 L 46054 135399 C 46978,131714 48819,128951 49743,125267 L 21188 89345 L 89348 21185 L 125269 49738 C 128953,47896 131718,46975 135402,46054 L 140927 0 L 237641 0 L 242249 46054 C 245932,46975 248691,48817 252375,49738 L 288302 21185 L 356462 89345 L 327907 125267 C 329749,128951 330666,131714 332508,135399 L 378568 140925 L 378568 237638 L 332508 242243 C 331590,245928 329749,248691 327907,252376 L 356462 288297 L 288302 356456 L 252375 327901 C 248691,329749 245932,330666 242249,332508 L 237641 378562 L 140927 378562 L 140927 377644 Z" fill="#FFFFFF" transform="translate(4594,4607)"/>
  <path d="M 237635 9211 L 242242 53423 C 247767,55264 252375,57107 257899,59870 L 292903 32238 L 355538 94871 L 327900 129872 C 329749,134477 332508,140004 334349,144609 L 378562 149215 L 378562 237638 L 334349 242243 C 332508,246849 330666,252375 327900,256980 L 355538 291982 L 292903 354614 L 257899 326983 C 253298,328825 247767,331590 243166,333432 L 237635 377644 L 149217 377644 L 144610 333432 C 139085,331590 134478,329749 129871,326983 L 94873 354614 L 32238 291982 L 59869 256980 C 58028,252375 55262,246849 53420,242243 L 9208 237638 L 9208 149215 L 53420 144609 C 55262,139082 57110,134477 59869,128951 L 32238 93950 L 94873 31317 L 129871 58949 C 134478,57107 140003,54344 144610,52501 L 149217 9211 L 237635 9211 Z M 245926 0 L 237635 0 L 149217 0 L 140927 0 L 140003 8290 L 135395 46975 C 133554,47896 131712,48817 129871,48817 L 99474 23948 L 93031 18421 L 87500 25790 L 25789 87503 L 20265 93029 L 25789 99476 L 50661 129872 C 49737,131714 48819,133556 48819,135399 L 10132 140004 L 0 140925 L 0 149215 L 0 237638 L 0 245928 L 8291 246849 L 46978 251454 C 47895,253297 48819,255139 48819,256060 L 23948 286455 L 18423 292903 L 23948 298429 L 86582 361063 L 92107 366588 L 98556 361063 L 128953 336191 C 130794,337115 132636,338033 134478,338033 L 139085 376720 L 140003 385011 L 148293 385011 L 236717 385011 L 245008 385011 L 245926 376720 L 250533 338033 C 252375,337115 254216,336191 255140,336191 L 285537 361063 L 291979 366588 L 297511 361063 L 360139 298429 L 365670 292903 L 360139 286455 L 335274 256060 C 336191,254217 337115,252375 337115,251454 L 375802 246849 L 384087 245928 L 384087 237638 L 384087 149215 L 384087 140925 L 375802 140004 L 337115 135399 C 336191,133556 335274,131714 335274,129872 L 360139 99476 L 365670 93029 L 360139 87503 L 297511 24869 L 291979 19343 L 285537 24869 L 255140 49738 C 253298,48817 251457,47896 250533,47896 L 245926 9211 L 245926 0 Z" fill="#FFFFFF"/>
  <path d="M 368430 228427 L 368430 140004 L 324217 135399 C 322376,129872 320534,125266 317768,120661 L 345406 85660 L 282771 23027 L 247767 50659 C 243166,48817 237635,46054 233034,44211 L 228427 0 L 140003 0 L 135396 44211 C 129871,46054 125263,47896 119738,50659 L 84741 23027 L 22106 85660 L 49737 120661 C 47896,125266 45130,130793 43288,135399 L 0 140004 L 0 228427 L 44212 233033 C 46054,238559 47896,243164 50661,248691 L 23024 283692 L 85658 346325 L 120662 318694 C 125263,320535 130794,323301 135396,325143 L 140003 369355 L 228427 369355 L 233034 325143 C 237635,323301 243166,321453 247767,318694 L 282771 346325 L 345406 283692 L 317768 248691 C 319610,244086 322376,238559 324217,233954 L 368430 228427 Z M 326983 281850 L 281847 326984 L 249609 301192 L 245926 303956 C 239477,307640 232110,310403 224744,313169 L 221060 314086 L 216453 355533 L 152901 355533 L 147369 314086 L 142768 312245 C 135396,310403 128029,306719 121580,303035 L 117897 301192 L 85658 326984 L 40529 281850 L 66318 249612 L 64477 245927 C 60793,239480 58028,232111 56186,224743 L 54345 221058 L 12892 216453 L 12892 152899 L 54345 147372 L 56186 142767 C 58028,136319 61711,128951 64477,122503 L 66318 118819 L 40529 86581 L 85658 41448 L 117897 67239 L 122504 64475 C 128953,60791 136320,58028 143686,56186 L 147369 54344 L 151977 12895 L 215529 12895 L 221060 54344 L 225661 56186 C 232110,58028 239477,61712 245926,64475 L 249609 66317 L 281847 40527 L 326983 85660 L 301194 117898 L 303036 121582 C 306719,128029 309485,135399 312244,142767 L 314085 147372 L 355538 151978 L 355538 215532 L 314085 221058 L 312244 225664 C 310402,233033 306719,239480 303036,246849 L 301194 250533 L 326983 281850 Z" fill="#2D5967" transform="translate(9214,9213)"/>
  <path d="M 34080 0 L 0 0 L 0 34080 L 34080 34080 L 34080 0 Z" fill="#2D5967" transform="translate(233033,153823)"/>
  <path d="M 34080 0 L 0 0 L 0 34080 L 34080 34080 L 34080 0 Z" fill="#2D5967" transform="translate(277252,153823)"/>
  <path d="M 34080 0 L 0 0 L 0 34080 L 34080 34080 L 34080 0 Z" fill="#2D5967" transform="translate(233033,198958)"/>
  <path d="M 34080 0 L 0 0 L 0 34080 L 34080 34080 L 34080 0 Z" fill="#2D5967" transform="translate(277252,198958)"/>
  <path d="M 0 0 L 39605 39607 L 0 79213 L 31314 79213 L 70001 39607 L 31314 0 L 0 0 Z" fill="#2D5967" transform="translate(153824,153823)"/>
  <path d="M 13816 27632 C 21445,27632 27631,21446 27631,13816 C 27631,6186 21445,0 13816,0 C 6186,0 0,6186 0,13816 C 0,21446 6186,27632 13816,27632 Z" fill="#2D5967" transform="translate(69096,157507)"/>
  <path d="M 11050 22106 C 17158,22106 22106,17157 22106,11053 C 22106,4949 17158,0 11050,0 C 4947,0 0,4949 0,11053 C 0,17157 4947,22106 11050,22106 Z" fill="#2D5967" transform="translate(107777,210931)"/>
  <path d="M 17505 35001 C 27169,35001 35004,27166 35004,17501 C 35004,7835 27169,0 17505,0 C 7835,0 0,7835 0,17501 C 0,27166 7835,35001 17505,35001 Z" fill="#2D5967" transform="translate(63552,194350)"/>
  <path d="M 23024 46054 C 35742,46054 46054,35744 46054,23027 C 46054,10310 35742,0 23024,0 C 10312,0 0,10310 0,23027 C 0,35744 10312,46054 23024,46054 Z" fill="#2D5967" transform="translate(106853,153823)"/>
</svg>