<svg xmlns="http://www.w3.org/2000/svg" viewBox="0 0 345675 385010" width="36" height="40">
  <path d="M 42094 369465 L 13732 341115 L 8277 324650 L 22908 310021 L 49409 283500 C 57623,274355 67697,267039 76809,259722 L 105172 237774 C 93300,217655 86884,195707 86884,171929 C 86884,168271 86884,163698 87846,160041 L 55826 160041 C 51206,170100 41196,177416 29260,177416 C 13732,177416 0,164613 0,149066 C 0,133519 12834,120716 29260,120716 C 30223,120716 32020,120716 32918,120716 L 75013 47555 C 71355,41153 69494,35666 69494,29265 C 69494,13718 82328,0 98820,0 C 115246,0 127117,12804 127117,29265 C 127117,35666 125321,41153 121663,45726 L 137192 71332 C 159137,54871 184740,45726 213103,45726 C 246920,45726 278042,58529 301784,82307 C 325591,106084 338360,138092 338360,171015 C 338360,203937 325591,235945 301784,259722 C 278042,283500 246920,296303 213103,296303 C 189297,296303 167351,289901 147266,278013 L 124423 307277 C 117107,317335 108829,326485 100616,334711 L 74114 361232 L 59484 375863 L 42094 369465 Z" fill="#FFFFFF" transform="translate(2696,4572)"/>
  <path d="M 100552 9145 C 114284,9145 125257,20119 125257,33837 C 125257,40239 122497,45726 118840,50298 L 138091 82306 C 160036,64931 186538,54871 214900,54871 C 246920,54871 277978,67674 300822,90537 C 323730,113400 336500,143579 336500,176501 C 336500,209424 323730,239603 300822,262466 C 277978,285329 247818,298132 214900,298132 C 191094,298132 167352,290816 148101,278012 L 141748 286243 L 123460 310020 C 116145,319165 107867,328311 99654,337455 L 73152 363976 L 61217 374949 L 47549 370380 L 20983 343859 L 16427 330140 L 29261 317337 L 55763 290816 C 63078,282585 72189,274354 82264,267038 L 106071 248748 L 114284 242346 C 101515,223141 94200,199364 94200,175587 C 94200,170100 95098,164613 95098,159126 L 55763 159126 C 53003,169185 43891,176501 32918,176501 C 19186,176501 8214,165527 8214,152724 C 8214,139921 19186,128032 32918,128032 C 34715,128032 37474,128032 39271,128946 L 84125 50298 C 79569,45726 76809,40239 76809,33837 C 76809,20119 86884,9145 100552,9145 Z M 100552 0 C 82264,0 67634,14632 67634,33837 C 67634,40239 69495,46640 73152,52127 L 33817 118887 L 32918 118887 C 14631,118887 0,133519 0,151810 C 0,170100 14631,184732 33817,184732 C 45688,184732 57559,177416 63078,167356 L 85922 167356 C 85922,170100 85922,172843 85922,174672 C 85922,197535 91440,219484 103311,239603 L 101515 240517 L 77708 258807 C 67634,266124 58522,274354 49346,283499 L 21946 310935 L 9112 323736 L 5454 327394 L 7315 332880 L 11871 346599 L 12769 348428 L 14631 350257 L 41132 376778 L 42929 378607 L 44789 379524 L 58522 384093 L 63078 385011 L 66735 381353 L 79569 369463 L 106071 342942 C 115183,333798 123460,324654 130775,314593 L 149063 290816 L 149962 288986 C 169148,299960 191992,306363 214900,306363 C 249615,306363 282534,292645 307238,267953 C 331943,243261 345675,210338 345675,175587 C 345675,140835 331943,107913 307238,83221 C 282534,58529 249615,45726 214900,45726 C 187436,45726 162731,53957 140786,68588 L 129813 49384 C 132572,43897 134433,38409 134433,32922 C 134433,14632 118840,0 100552,0 Z" fill="#FFFFFF"/>
  <path d="M 47549 136262 C 46651,132605 44789,128946 42031,126203 L 86884 47555 C 88680,47555 90542,48469 92338,48469 C 94199,48469 96958,48469 98755,47555 L 114284 74075 C 117942,70418 120700,67674 124358,64931 L 110626 41153 C 114284,36580 117043,31093 117043,24692 C 117043,10974 106071,0 93301,0 C 78671,0 68596,10974 68596,24692 C 68596,31093 71291,37495 75911,42068 L 31057 120716 C 28363,118887 26502,118887 24705,118887 C 10973,118887 0,129861 0,143579 C 0,157297 10973,167356 24705,167356 C 35677,167356 44789,160040 47549,149980 L 76809 149980 C 77708,145408 77708,140835 79569,136262 L 47549 136262 Z M 81365 24692 C 81365,19205 85986,13718 92338,13718 C 97857,13718 103311,18290 103311,24692 C 103311,31093 98755,35666 92338,35666 C 86884,34752 81365,30179 81365,24692 Z M 24705 153638 C 19186,153638 13732,149066 13732,142664 C 13732,137177 18288,131690 24705,131690 C 31057,131690 35677,136262 35677,142664 C 35677,149066 30159,153638 24705,153638 Z" fill="#2D5967" transform="translate(8214,9146)"/>
  <path d="M 187500 242346 C 219520,242346 250578,229543 273422,206680 C 296330,183817 309100,153638 309100,120716 C 309100,87793 296330,57614 273422,34751 C 250578,12803 219520,0 187500,0 C 155480,0 124358,12803 101514,35666 C 78671,58529 65837,88708 65837,121630 C 65837,145408 73152,169185 85986,188389 L 77772 194792 L 53966 213081 C 44789,220398 35678,228628 26502,236859 L 0 263380 L 45752 309104 L 72254 282583 C 80467,274357 88745,265209 96060,255149 L 114348 231372 L 120701 223141 C 139952,235030 163694,242346 187500,242346 Z M 111589 44811 C 131674,24691 159138,13717 187500,13717 C 215863,13717 243263,24691 263412,44811 C 283496,64930 295367,92366 295367,120716 C 295367,149066 284394,176501 263412,196620 C 243263,216740 215863,227714 187500,227714 C 159138,227714 131674,216740 111589,195706 C 91440,175587 80467,148151 80467,119801 C 80467,91452 91440,64930 111589,44811 Z M 103375 222227 L 85087 246004 C 77772,255149 70457,263380 63142,271610 L 46651 288069 L 20149 261551 L 36576 245089 C 44789,237774 53067,229543 62179,223141 L 85986 204851 L 94200 198449 C 96060,201193 98755,203936 101514,206680 C 104274,209423 107033,211253 109728,213996 L 103375 222227 Z" fill="#2D5967" transform="translate(27400,54872)"/>
  <path d="M 95803 192048 C 121407,192048 145149,181988 163437,163698 C 200976,126203 200976,65845 163437,28350 C 145149,10060 121407,0 95803,0 C 70200,0 46394,10060 28106,28350 C -9369,65845 -9369,126203 28106,163698 C 46394,181988 70200,192048 95803,192048 Z M 95803 13717 C 117749,13717 138797,21948 154325,37495 C 186345,69503 186345,121630 154325,153638 C 138797,169185 117749,177415 95803,177415 C 73858,177415 52811,169185 37282,153638 C 5262,121630 5262,69503 37282,37495 C 52811,22863 73858,13717 95803,13717 Z" fill="#2D5967" transform="translate(119097,79563)"/>
  <path d="M 0 4569 L 4556 18288 L 32020 44809 L 45688 49384 L 49345 44809 L 4556 0 L 0 4569 Z" fill="#2D5967" transform="translate(15529,325571)"/>
  <path d="M 18288 61272 L 4556 61272 L 0 61272 C 0,63101 0,64931 0,66760 C 0,69503 0,72247 898,74990 L 19186 74990 C 22844,100597 45752,120716 72254,120716 C 101515,120716 126220,96939 126220,66760 C 126220,36580 102413,12803 72254,12803 C 64938,12803 58522,14632 52105,16461 L 44789 4573 L 42095 0 C 37474,1829 33817,3658 30160,6401 L 39335 22863 C 27464,32008 19186,45726 18288,61272 Z M 71355 106084 C 49410,106084 31122,87793 31122,65845 C 31122,43897 49410,25606 71355,25606 C 93301,25606 111589,43897 111589,65845 C 111589,87793 93301,106084 71355,106084 Z" fill="#2D5967" transform="translate(143545,109742)"/>
</svg>