<svg xmlns="http://www.w3.org/2000/svg" viewBox="0 0 384099 385010" width="40" height="40">
  <path d="M 290818 374953 C 271612,374953 207591,373124 207591,346603 L 207591 250577 L 206680 250577 C 204851,251491 203022,251491 201194,251491 L 200276 251491 C 198447,251491 196618,252406 193878,252406 C 191132,252406 189303,252406 187474,252406 L 186557 252406 C 183817,252406 181071,252406 178331,251491 L 177413 251491 C 174673,251491 172844,250577 170098,249663 L 169187 251491 C 147234,245090 128947,227714 122542,205766 L 99679 182903 L 83220 182903 C 64015,182903 0,181074 0,154553 L 0 29265 C 0,2744 64015,0 83220,0 C 102425,0 166440,1829 166440,29265 L 166440 123459 C 167358,123459 167358,123459 168269,122545 C 170098,121631 172844,121631 174673,120716 L 175584 120716 C 177413,120716 179242,119801 181071,119801 C 181988,119801 183817,119801 184728,119801 L 188392 119801 C 191132,119801 192961,119801 195707,120716 L 197536 120716 C 200276,120716 202105,121631 203934,121631 C 204851,121631 205762,121631 206680,122545 C 208509,123459 210338,123459 212167,124374 L 213995 125288 C 216742,126203 218571,127118 220399,128946 L 221311 129861 C 223139,130775 224968,131690 225886,133519 C 226797,134433 227714,134433 228626,135348 C 229543,136263 230454,137177 232283,138092 C 233201,139006 234112,139921 235030,139921 C 235941,140835 236858,142664 238687,143579 C 239605,145408 241434,146323 242345,148151 C 243262,149066 245091,151810 245091,151810 L 245091 152724 C 247831,157297 249660,162784 251489,167356 L 275270 191133 L 291729 191133 C 310934,191133 374949,192963 374949,220398 L 374949 346603 C 374038,373124 310934,374953 290818,374953 Z" fill="#FFFFFF" transform="translate(4575,4571)"/>
  <path d="M 87795 9145 C 96028,9145 166447,10060 166447,33837 C 166447,33837 166447,33837 166447,34752 L 166447 74075 L 166447 76819 L 166447 117058 L 166447 117972 L 166447 135348 C 169187,134434 171015,133519 173762,132605 C 175591,131690 177419,131690 179248,131690 L 180159 131690 C 181988,131690 182906,130775 184734,130775 C 185646,130775 187474,130775 188392,130775 C 189304,130775 190221,130775 190221,130775 C 192967,130775 194796,130775 197536,131690 C 198454,131690 199365,131690 200283,131690 C 202111,131690 203940,132605 204851,132605 C 205769,132605 206680,132605 207598,133519 C 209427,134434 211255,134434 213084,135348 C 213995,135348 213995,135348 214913,136263 C 216742,137177 219488,138092 221317,139006 C 222228,139006 222228,139921 223146,139921 C 224974,140835 225886,141750 226803,142664 C 227714,143579 228632,143579 228632,144493 C 229543,145408 230461,146323 231372,147237 C 232290,148151 233201,148151 233201,149066 C 234119,149980 235030,150895 235947,152724 C 236858,154553 238687,155467 239605,157297 C 240516,158211 240516,159126 241434,160040 C 241434,160954 242345,160954 242345,161869 C 245091,166441 247838,171928 248749,177416 L 274359 203022 C 282585,203022 291729,203022 292647,203022 C 300880,203022 371291,203937 371291,227714 C 371291,227714 371291,227714 371291,228629 L 371291 267953 L 371291 270696 L 371291 311850 L 371291 354832 C 371291,377695 300880,378607 292647,378607 C 284414,378607 213995,377695 213995,354832 L 213995 311850 L 213995 270696 L 213995 267953 L 213995 252406 C 213084,252406 213084,252406 213084,253320 C 211255,254235 210338,254235 208509,255150 L 207598 255150 C 205769,256064 203940,256064 203023,256064 L 202111 256064 C 200283,256064 198454,256978 196625,256978 C 196625,256978 196625,256978 195707,256978 C 193878,256978 191132,256978 189304,256978 C 186564,256978 183817,256978 181988,256064 C 181077,256064 181077,256064 180159,256064 C 178331,256064 175591,255150 173762,255150 L 172844 255150 C 151810,249663 135351,233201 128947,212167 L 106084 182903 C 96939,182903 88707,182903 87795,182903 C 79562,182903 9144,182903 9144,159126 L 9144 117058 L 9144 116144 L 9144 75905 L 9144 74075 L 9144 34752 C 9144,34752 9144,34752 9144,33837 C 9144,10060 79562,9145 87795,9145 Z M 87795 0 C 54871,0 0,4573 0,33837 C 0,33837 0,33837 0,34752 L 0 74075 L 0 76819 L 0 117058 L 0 117972 L 0 160040 C 0,188390 54871,192048 87795,192048 L 102426 192048 L 123460 213081 C 130775,235945 149981,254235 172844,260637 L 173762 260637 C 176502,261551 179248,261551 181077,262466 C 181988,262466 181988,262466 182906,262466 C 185646,262466 189304,263380 192050,263380 C 193878,263380 196625,263380 199365,263380 L 200283 263380 C 202111,263380 203940,262466 206680,262466 L 207598 262466 L 208509 262466 L 208509 265209 L 208509 267953 L 208509 309106 L 208509 352086 C 208509,380435 263380,385011 296304,385011 C 329229,385011 384100,380435 384100,352086 L 384100 309106 L 384100 267953 L 384100 265209 L 384100 225885 L 384100 224971 C 384100,195706 329229,191133 296304,191133 C 295393,191133 288989,191133 281674,191133 L 260640 170100 C 257893,164613 256064,160040 253324,155467 L 252407 153638 C 252407,152724 251495,152724 251495,151810 C 250578,150895 250578,149980 249667,149066 L 249667 148151 C 248749,146323 246920,144493 246009,142664 C 245091,141750 244180,139921 242345,139006 C 241434,138092 240516,138092 240516,137177 L 239605 137177 C 238687,136263 236858,135348 235947,134434 C 235030,133519 234119,133519 233201,132605 C 231372,131690 230461,130775 228632,129861 L 227714 129861 C 226803,129861 226803,128946 225886,128946 C 223146,128032 221317,126203 218571,125288 C 217653,125288 217660,125288 216742,124374 C 213995,123459 212167,122545 210338,122545 C 209427,122545 208509,121631 207598,121631 C 205769,121631 203940,120716 202111,120716 L 201194 120716 C 200283,120716 199365,120716 199365,120716 C 196625,120716 193878,119801 192050,119801 C 191132,119801 191132,119801 190221,119801 L 189304 119801 L 188392 119801 C 187474,119801 185646,119801 184734,119801 C 182906,119801 181077,120716 179248,120716 C 178331,120716 178331,120716 178331,120716 C 177419,120716 176502,120716 175591,121631 L 175591 117058 L 175591 116144 L 175591 75905 L 175591 74075 L 175591 34752 L 175591 33837 C 175591,4573 120720,0 87795,0 Z" fill="#FFFFFF"/>
  <path d="M 157296 24692 C 157296,914 86878,0 78645,0 C 77733,0 74987,0 71329,0 L 66761 5487 L 57610 14632 C 64014,13718 71329,13718 78645,13718 C 115227,13718 138090,20119 143577,24692 C 139002,29265 115227,35666 78645,35666 C 61268,35666 46638,33837 36576,32008 C 33836,36580 30178,40239 26521,43897 C 47555,49384 74076,49384 78645,49384 C 84131,49384 122542,49384 143577,40239 L 143577 66760 C 139919,70418 117973,77734 78645,77734 C 39322,77734 17377,70418 13713,66760 L 13713 53957 C 9144,56700 4569,58529 0,60358 L 0 64016 L 0 66760 L 0 107913 L 0 150896 C 0,173759 70418,174670 78645,174670 C 86878,174670 157296,173759 157296,150896 L 157296 107913 L 157296 66760 L 157296 64016 L 157296 24692 Z M 78645 160957 C 39322,160957 17377,153636 13713,149978 L 13713 122546 C 34747,131690 73158,131690 78645,131690 C 84131,131690 122542,131690 143577,122546 L 143577 149978 C 140830,153636 117973,160957 78645,160957 Z M 78645 90537 C 84131,90537 122542,90537 143577,81392 L 143577 106998 C 139919,110657 117973,117972 78645,117972 C 39322,117972 17377,110657 13713,106998 L 13713 81392 C 34747,90537 73158,90537 78645,90537 Z" fill="#2D5967" transform="translate(216741,200278)"/>
  <path d="M 99686 160040 C 93282,160954 85967,160954 78651,160954 C 39329,160954 17377,153638 13719,149980 L 13719 123459 C 34754,132605 73165,132605 78651,132605 C 84138,132605 114316,132605 136268,126203 C 142666,120716 149981,117058 157296,114314 L 157296 108827 L 157296 107913 L 157296 66760 L 157296 64931 L 157296 25606 C 157296,25606 157296,25606 157296,24692 C 157296,914 86884,0 78651,0 C 70418,0 0,914 0,24692 C 0,24692 0,24692 0,25606 L 0 64931 L 0 67674 L 0 107913 L 0 108827 L 0 150895 C 0,173758 70418,173758 78651,173758 C 79563,173758 82309,173758 85055,173758 L 90542 168271 L 99686 160040 Z M 78651 118887 C 39329,118887 17377,111571 13719,107913 L 13719 81392 C 34754,90537 73165,90537 78651,90537 C 84138,90537 122549,90537 143584,81392 L 143584 106998 C 139926,111571 117974,118887 78651,118887 Z M 78651 49384 C 84138,49384 122549,49384 143584,40239 L 143584 66760 C 139926,70418 117974,77734 78651,77734 C 39329,77734 17377,70418 13719,66760 L 13719 39324 C 34754,48469 73165,49384 78651,49384 Z M 142666 24692 C 138097,29265 114316,35666 77734,35666 C 41158,35666 19206,29265 13719,24692 C 18295,20119 42069,13718 78651,13718 C 115234,13718 138097,20119 142666,24692 Z" fill="#2D5967" transform="translate(9143,9146)"/>
  <path d="M 26521 84135 L 32007 78648 L 42069 68588 L 55788 54871 L 46644 45726 L 34754 57614 C 37494,32922 58528,13718 83220,13718 C 101514,13718 117974,23778 126207,39324 L 131693 33837 L 136262 29265 C 125289,10974 105172,0 83220,0 C 50302,0 22864,25606 21035,58529 L 9144 46640 L 0 55785 L 26521 84135 Z" fill="#2D5967" transform="translate(109740,128951)"/>
  <path d="M 108823 0 L 80474 28350 L 89618 37495 L 101508 25606 C 98768,50298 77734,69503 53042,69503 C 34747,69503 18288,59443 10055,43896 L 0 53956 C 10973,72247 31089,83221 53042,83221 C 85960,83221 113398,57614 115227,24692 L 127118 36581 L 136262 27435 L 108823 0 Z" fill="#2D5967" transform="translate(139008,170102)"/>
  <path d="M 0 64931 L 13719 64931 L 16466 51213 L 32925 51213 L 35665 64931 L 50302 64931 L 32007 0 L 18295 0 L 0 64931 Z M 24692 15547 L 30178 40239 L 19206 40239 L 24692 15547 Z" fill="#2D5967" transform="translate(166439,156385)"/>
</svg>