<svg xmlns="http://www.w3.org/2000/svg" viewBox="0 0 351429 385010" width="37" height="40">
  <path d="M 301823 206898 C 307322,212398 314560,215420 322356,215420 C 330147,215420 337385,212398 342884,206898 C 348383,201399 351406,194154 351406,186364 C 351406,178574 348383,171330 342884,165830 C 337385,160331 330147,157303 322356,157303 C 314560,157303 307322,160331 301823,165830 C 300263,167390 298890,169129 297697,171054 L 282668 171054 L 282668 97536 L 282668 93686 L 280012 91029 L 263783 74801 L 294122 74801 L 297883 74801 L 300539 72145 L 315478 57200 C 317768,57752 320059,58027 322446,58027 C 330236,58027 337474,54999 342974,49500 C 354248,38225 354248,19802 342974,8432 C 337385,3022 330147,0 322356,0 C 314560,0 307322,3022 301823,8528 C 296323,13931 293301,21265 293301,29062 C 293301,31256 293577,33368 294033,35383 L 285139 44276 L 242249 44276 L 233079 44276 L 229325 44276 L 220156 44276 L 82495 44276 L 73325 44276 L 73325 53446 L 73325 116055 L 53895 116055 C 48672,107437 39322,102028 29056,102028 C 25025,102028 21176,102856 17415,104505 C 10357,107617 4858,113302 2021,120547 C -821,127785 -642,135671 2477,142730 C 7058,153273 17505,160145 29056,160145 C 33092,160145 37032,159324 40695,157668 C 46015,155377 50507,151438 53529,146580 L 73325 146580 L 73325 224500 L 53709 224500 C 52522,222575 51149,220829 49589,219270 C 44090,213867 36846,210838 29056,210838 C 21265,210838 14027,213867 8528,219366 C 3029,224865 0,232104 0,239900 C 0,247690 3029,254935 8528,260434 C 14027,265933 21265,268956 29056,268956 C 36846,268956 44090,265843 49589,260434 C 51149,258875 52522,257039 53709,255204 L 73325 255204 L 73325 298017 L 73325 307181 L 73325 308740 L 73325 313328 L 73325 319007 L 78369 321574 L 90651 327715 L 92576 328632 L 94770 328632 L 145553 328632 L 136749 340824 L 107238 340824 C 102015,332392 92756,327073 82585,327073 C 66543,327073 53529,340093 53529,356135 C 53529,372177 66543,385011 82495,385011 C 92756,385011 101925,379691 107148,371259 L 147658 371259 L 152336 371259 L 155082 367409 L 183130 328453 L 261217 328453 L 263418 328453 L 265343 327445 L 277169 321574 L 279550 320386 L 284407 325244 L 290914 331751 L 297420 325244 L 332341 290317 L 338854 283811 L 332341 277297 L 321073 266023 C 313918,258875 305852,251906 297055,245309 L 279184 232476 C 283124,222575 284683,212032 284042,201579 L 297883 201579 C 298890,203600 300263,205339 301823,206898 Z" fill="#FFFFFF"/>
  <path d="M 51694 56412 L 70752 37348 C 73691,38901 76803,39638 80012,39638 C 85055,39638 90189,37713 94039,33863 C 101733,26163 101733,13509 94039,5809 C 86338,-1981 73691,-1891 65991,5809 C 62320,9383 60215,14427 60215,19746 C 60215,22858 60947,25797 62320,28544 L 46650 44220 L 0 44220 L 12282 56412 L 51694 56412 Z M 74698 14337 C 76161,12867 78176,12136 80101,12136 C 82026,12136 84048,12867 85511,14337 C 88443,17359 88443,22127 85511,25156 C 82578,28088 77721,28178 74698,25156 C 73229,23686 72497,21761 72497,19746 C 72497,17725 73229,15710 74698,14337 Z" fill="#2C5967" transform="translate(242249,9315)"/>
  <path d="M 64162 13785 L 38771 13785 C 37860,10852 36204,8190 33913,5809 C 26219,-1891 13565,-1981 5872,5809 C 2111,9569 0,14606 0,19926 C 0,25239 2111,30193 5775,33953 C 9625,37803 14759,39728 19802,39728 C 24840,39728 29973,37803 33823,33953 C 36114,31656 37763,28910 38681,25977 L 64162 25977 L 64162 13785 Z M 25302 25335 C 22369,28268 17512,28358 14483,25335 C 13020,23866 12282,21941 12282,19926 C 12282,17911 13110,15986 14483,14517 C 15952,13047 17967,12316 19892,12316 C 21817,12316 23832,13047 25302,14517 C 28234,17449 28234,22307 25302,25335 Z" fill="#2C5967" transform="translate(9164,219974)"/>
  <path d="M 25661 5764 C 23370,8055 21715,10711 20803,13740 L 0 13740 L 0 25932 L 20803 25932 C 21715,28865 23370,31617 25661,33908 C 29505,37758 34638,39683 39682,39683 C 44719,39683 49853,37758 53703,33908 C 61397,26208 61397,13554 53703,5854 C 46002,-1936 33355,-1936 25661,5764 Z M 45085 25200 C 42152,28133 37295,28223 34272,25200 C 32803,23731 32072,21806 32072,19791 C 32072,17770 32899,15845 34272,14382 C 35736,12912 37757,12181 39682,12181 C 41601,12181 43622,12912 45085,14382 C 48017,17404 48017,22262 45085,25200 Z" fill="#2C5967" transform="translate(282668,166573)"/>
  <path d="M 19802 39704 C 22458,39704 25115,39152 27778,38055 C 33091,35758 36851,31362 38590,26229 L 64071 26229 L 64071 14037 L 38776 14037 C 38590,13299 38314,12657 38038,11926 C 33643,1935 21913,-2743 11922,1659 C 7064,3770 3304,7710 1379,12657 C -546,17611 -457,23020 1655,27878 C 4863,35302 12191,39704 19802,39704 Z M 12653 17059 C 13385,15134 14854,13671 16683,12843 C 17690,12388 18704,12202 19712,12202 C 20629,12202 21637,12388 22458,12753 C 24383,13485 25853,14954 26674,16783 C 27502,18618 27502,20729 26770,22655 C 26032,24580 24569,26043 22734,26870 C 18884,28520 14392,26774 12653,22924 C 12011,21095 11922,18984 12653,17059 Z" fill="#2C5967" transform="translate(9254,111277)"/>
  <path d="M 170207 236409 L 170117 236230 L 168372 233753 L 12282 233753 L 12282 12282 L 134459 12282 L 134459 56558 L 178728 56558 L 178728 102670 C 179280,103215 179832,103677 180377,104222 C 184503,108348 188078,112936 191010,117794 L 191010 44090 L 146837 0 L 0 0 L 0 245945 L 177811 245945 C 175244,242922 172684,239714 170207,236409 Z M 146651 17229 L 173871 44366 L 146651 44366 L 146651 17229 Z" fill="#2C5967" transform="translate(82489,53445)"/>
  <path d="M 198614 0 L 32078 0 L 19886 0 L 19886 1559 L 19886 6147 L 32168 12288 L 100822 12288 L 78824 42813 L 38771 42813 C 36204,34837 28690,29062 19886,29062 C 8984,29062 0,37956 0,48954 C 0,59953 8984,68756 19886,68756 C 28690,68756 36204,62981 38771,55005 L 85055 55005 L 115850 12192 L 198614 12192 L 210351 6327 C 208329,4312 206315,2201 204300,0 L 198614 0 Z M 19886 56564 C 15670,56564 12282,53170 12282,48954 C 12282,44648 15670,41254 19886,41254 C 24102,41254 27496,44648 27496,48864 C 27586,53080 24102,56564 19886,56564 Z" fill="#2C5967" transform="translate(62603,307090)"/>
  <path d="M 103754 12006 C 105493,12006 107142,12102 108791,12192 L 136011 12192 L 136011 0 L 32257 0 L 0 0 L 0 12192 L 37301 12192 L 98621 12192 C 100360,12102 102008,12006 103754,12006 Z" fill="#2C5967" transform="translate(109991,125314)"/>
  <path d="M 54614 4864 C 56353,3119 58188,1469 60023,0 L 0 0 L 0 12192 L 48197 12192 C 50122,9625 52233,7155 54614,4864 Z" fill="#2C5967" transform="translate(109991,152810)"/>
  <path d="M 39400 0 L 0 0 L 0 12192 L 35646 12192 C 36563,7976 37847,3940 39400,0 Z" fill="#2C5967" transform="translate(109991,180313)"/>
  <path d="M 0 12192 L 35190 12192 C 34548,8342 34176,4492 34176,552 C 34176,366 34176,180 34176,0 L 0 0 L 0 12192 Z" fill="#2C5967" transform="translate(109991,206256)"/>
  <path d="M 0 12192 L 37295 12192 L 46278 12192 C 43615,8342 41421,4216 39586,0 L 32257 0 L 0 0 L 0 12192 Z" fill="#2C5967" transform="translate(109991,233752)"/>
  <path d="M 138678 107619 L 114756 90389 C 127403,67192 123919,37495 104302,17879 C 80477,-5960 41707,-5960 17874,17879 C -5958,41711 -5958,80488 17874,104320 C 29790,116236 45460,122198 61040,122198 C 70852,122198 80567,119907 89454,115229 L 106869 139433 C 113197,147865 119793,155565 126665,162348 L 137940 173622 L 172860 138695 L 161592 127421 C 154899,120638 147199,114035 138678,107619 Z M 26582 95703 C 7518,76638 7518,45651 26582,26587 C 36111,17051 48669,12284 61136,12284 C 73694,12284 86156,17051 95691,26587 C 114756,45651 114756,76638 95691,95703 C 76717,114773 45646,114773 26582,95703 Z M 138126 156483 L 135469 153820 C 129053,147403 122822,140165 116860,132278 L 99811 108536 C 101370,107253 102929,105880 104399,104410 C 105682,103127 106780,101843 107877,100560 L 131433 117520 C 139409,123481 146647,129712 153064,136129 L 155721 138792 L 138126 156483 Z" fill="#2C5967" transform="translate(152699,145108)"/>
  <path d="M 11454 0 L 0 4312 C 642,5961 1097,7610 1373,9349 L 13379 7245 C 13013,4858 12372,2387 11454,0 Z" fill="#2C5967" transform="translate(240048,192139)"/>
  <path d="M 23742 11095 C 17788,5133 10267,1283 1925,0 L 0 12102 C 5775,13020 10909,15676 15035,19712 C 16870,21548 18333,23563 19616,25764 L 30345 19802 C 28600,16684 26309,13751 23742,11095 Z" fill="#2C5967" transform="translate(218782,167113)"/>
</svg>