<svg xmlns="http://www.w3.org/2000/svg" viewBox="0 0 385010 381805" width="40" height="40">
  <path d="M 19956 372713 C 10011,372713 1797,365442 0,355439 L 0 18181 C 898,8181 9048,0 19956,0 L 294213 0 C 305121,0 314169,9091 314169,19999 L 314169 40907 L 329633 25454 L 374102 69997 L 329633 114541 L 313271 99996 L 313271 159084 L 328735 143631 L 373204 188174 L 328735 232718 L 313271 218173 L 313271 276352 L 328735 260899 L 373204 305442 L 328735 349984 L 313271 335444 L 313271 352712 C 313271,363620 304158,372713 293314,372713 L 19956 372713 Z M 313271 334533 L 330532 317258 L 313271 317258 L 313271 334533 Z M 330532 294533 L 313271 278170 L 313271 295442 L 330532 295442 L 330532 294533 Z M 313271 216355 L 330532 199083 L 313271 199083 L 313271 216355 Z M 329633 176357 L 313271 159994 L 313271 176357 L 329633 176357 Z M 313271 98178 L 330532 80906 L 313271 80906 L 313271 98178 Z M 330532 59089 L 313271 41817 L 313271 59089 L 330532 59089 Z" fill="#FFFFFF" transform="translate(4555,4549)"/>
  <path d="M 297870 9091 C 306019,9091 313270,16363 313270,24544 L 313270 68179 L 345996 68179 L 324179 46362 L 333227 37272 L 371407 75452 L 333227 113632 L 324179 103632 L 345996 81815 L 313270 81815 L 313270 186356 L 345034 186356 L 323281 164539 L 332329 154539 L 370508 192720 L 332329 230900 L 323281 221809 L 345996 199083 L 313270 199083 L 313270 303624 L 345996 303624 L 323281 281807 L 332329 272716 L 370508 310896 L 332329 349080 L 323281 339987 L 345996 317260 L 313270 317260 L 313270 357261 C 313270,365442 306019,372713 297870,372713 L 24512 372713 C 16363,372713 10011,366347 9112,359077 L 9112 22727 C 10011,14545 16363,9091 24512,9091 L 297870 9091 Z M 297870 0 L 24512 0 C 11807,0 1797,9091 0,21817 L 0 22727 L 0 23636 L 0 359988 L 0 360893 L 0 361804 C 1797,372713 11807,381805 24512,381805 L 298769 381805 C 312372,381805 323281,370897 323281,357261 L 323281 350896 L 327772 355439 L 334189 361804 L 340541 355439 L 378658 317260 L 385011 310896 L 378658 304533 L 340541 266353 L 334189 259989 L 326874 265444 L 322382 269989 L 322382 233627 L 326874 238172 L 333227 244536 L 339580 238172 L 377759 199992 L 384112 193628 L 377759 187265 L 339580 149085 L 333227 142722 L 326874 148176 L 322382 152721 L 322382 115450 L 326874 119995 L 333227 126359 L 339580 119995 L 377759 81815 L 384112 75452 L 377759 69088 L 339580 30908 L 333227 24544 L 326874 29999 L 322382 34544 L 322382 24544 C 322382,10909 311474,0 297870,0 Z M 322382 59089 L 322382 57270 L 323281 58180 L 322382 58180 L 322382 59089 Z M 322382 90906 L 324179 90906 L 322382 92723 L 322382 90906 Z M 322382 176357 L 322382 175447 L 323281 176357 L 322382 176357 Z M 322382 208173 L 324179 208173 L 322382 209991 L 322382 208173 Z M 322382 294533 L 322382 293625 L 323281 294533 L 322382 294533 Z M 322382 326351 L 324179 326351 L 322382 328167 L 322382 326351 Z" fill="#FFFFFF"/>
  <path d="M 288758 0 L 15464 0 C 7315,0 963,5454 0,13636 L 18159 13636 L 288758 13636 C 289721,13636 290618,14545 290618,15454 L 290618 349079 C 290618,349984 289721,350895 288758,350895 L 18159 350895 L 0 350895 C 963,357260 7315,363619 15464,363619 L 289721 363619 C 297869,363619 305120,356349 305120,348168 L 305120 15454 C 304222,7272 297869,0 288758,0 Z" fill="#2D5967" transform="translate(9048,9074)"/>
  <path d="M 39079 0 L 0 0 L 0 39089 L 39079 39089 L 39079 0 Z" fill="#2D5967" transform="translate(230621,56354)"/>
  <path d="M 39014 0 L 0 0 L 0 39089 L 39014 39089 L 39014 0 Z" fill="#2D5967" transform="translate(165298,56354)"/>
  <path d="M 39078 0 L 0 0 L 0 39089 L 39078 39089 L 39078 0 Z" fill="#2D5967" transform="translate(99846,56354)"/>
  <path d="M 39014 0 L 0 0 L 0 39089 L 39014 39089 L 39014 0 Z" fill="#2D5967" transform="translate(34522,56354)"/>
  <path d="M 39079 0 L 0 0 L 0 39089 L 39079 39089 L 39079 0 Z" fill="#2D5967" transform="translate(230621,173625)"/>
  <path d="M 39014 0 L 0 0 L 0 39089 L 39014 39089 L 39014 0 Z" fill="#2D5967" transform="translate(165298,173625)"/>
  <path d="M 39079 0 L 0 0 L 0 39087 L 39079 39087 L 39079 0 Z" fill="#2D5967" transform="translate(230621,291794)"/>
  <path d="M 39014 0 L 0 0 L 0 39087 L 39014 39087 L 39014 0 Z" fill="#2D5967" transform="translate(165298,291794)"/>
  <path d="M 39078 0 L 0 0 L 0 39087 L 39078 39087 L 39078 0 Z" fill="#2D5967" transform="translate(99846,291794)"/>
  <path d="M 0 9090 L 21753 30907 L 0 30907 L 0 44543 L 22716 44543 L 0 67270 L 9048 76360 L 47228 38180 L 9946 0 L 0 9090 Z" fill="#2D5967" transform="translate(323280,154534)"/>
  <path d="M 0 67270 L 9048 77269 L 47228 39089 L 9946 0 L 898 9090 L 22716 30907 L 0 30907 L 0 45452 L 22716 45452 L 0 67270 Z" fill="#2D5967" transform="translate(323280,36352)"/>
  <path d="M 963 9090 L 22716 30908 L 0 30908 L 0 44544 L 22716 44544 L 0 67270 L 9112 76363 L 47228 38180 L 9112 0 L 963 9090 Z" fill="#2D5967" transform="translate(322317,272703)"/>
</svg>