<svg xmlns="http://www.w3.org/2000/svg" viewBox="0 0 385928 385010" width="41" height="40">
  <path d="M 20168 375845 C 9170,375845 0,366675 0,355677 L 0 20167 C 0,9166 9170,0 20168,0 L 356597 0 C 367595,0 376765,9166 376765,20167 L 376765 356594 C 376765,367593 367595,376762 356597,376762 L 20168 375845 Z" fill="#FFFFFF" transform="translate(4582,4584)"/>
  <path d="M 360261 9167 C 368513,9167 375841,16500 375841,24750 L 375841 361178 C 375841,369424 368513,376759 360261,376759 L 24750 376759 C 16498,375841 9170,368513 9170,360261 L 9170 24750 C 9170,16500 16498,9167 24750,9167 L 360261 9167 Z M 360261 0 L 24750 0 C 10998,0 0,11000 0,24750 L 0 361178 C 0,374012 10998,385011 24750,385011 L 361178 385011 C 374930,385011 385928,374012 385928,360261 L 385928 24750 C 385011,11000 374012,0 360261,0 Z" fill="#FFFFFF"/>
  <path d="M 351091 366674 L 15580 366674 C 7328,366674 0,359340 0,351094 L 0 15583 C 0,7333 7328,0 15580,0 L 352009 0 C 359343,0 366671,7333 366671,15583 L 366671 352012 C 366671,359340 359343,366674 351091,366674 Z M 15580 13750 C 14663,13750 13745,14667 13745,15583 L 13745 352012 C 13745,352923 14663,353841 15580,353841 L 352009 353841 C 352926,353841 353838,352923 353838,352012 L 353838 15583 C 353838,14667 352926,13750 352009,13750 L 15580 13750 Z" fill="#2D5967" transform="translate(9170,9166)"/>
  <path d="M 81584 81586 L 0 81586 L 0 0 L 81584 0 L 81584 81586 Z M 12834 68752 L 66915 68752 L 66915 13750 L 12834 13750 L 12834 68752 Z" fill="#2D5967" transform="translate(105422,105419)"/>
  <path d="M 81590 81586 L 0 81586 L 0 0 L 81590 0 C 80673,916 80673,81586 81590,81586 Z M 12834 68752 L 66921 68752 L 66921 13750 L 12834 13750 L 12834 68752 Z" fill="#2D5967" transform="translate(197087,105419)"/>
  <path d="M 81584 81586 L 0 81586 L 0 0 L 81584 0 L 81584 81586 Z M 13745 68752 L 68750 68752 L 68750 13751 L 13745 13751 L 13745 68752 Z" fill="#2D5967" transform="translate(151258,197087)"/>
  <path d="M 81584 81586 L 0 81586 L 0 0 L 81584 0 L 81584 81586 Z M 13751 68752 L 68750 68752 L 68750 13751 L 13751 13751 L 13751 68752 Z" fill="#2D5967" transform="translate(242922,197087)"/>
  <path d="M 80666 81586 L 0 81586 L 0 0 L 81584 0 L 80666 81586 Z M 12834 68752 L 67833 68752 L 67833 13751 L 12834 13751 L 12834 68752 Z" fill="#2D5967" transform="translate(60504,197087)"/>
</svg>