<svg xmlns="http://www.w3.org/2000/svg" viewBox="0 0 385928 385010" width="41" height="40">
  <path d="M 20168 375845 C 9170,375845 0,366675 0,355677 L 0 20167 C 0,9166 9170,0 20168,0 L 356597 0 C 367595,0 376765,9166 376765,20167 L 376765 356594 C 376765,367593 367595,376762 356597,376762 L 20168 375845 Z" fill="#FFFFFF" transform="translate(4581,4584)"/>
  <path d="M 360261 9167 C 368513,9167 375841,16500 375841,24750 L 375841 361179 C 375841,369424 368513,376759 360261,376759 L 24750 376759 C 16498,375841 9170,368513 9170,360261 L 9170 24750 C 9170,16500 16498,9167 24750,9167 L 360261 9167 Z M 360261 0 L 24750 0 C 10998,0 0,11000 0,24750 L 0 361179 C 0,374012 10998,385011 24750,385011 L 361178 385011 C 374930,385011 385928,374012 385928,360261 L 385928 24750 C 385011,11000 374012,0 360261,0 Z" fill="#FFFFFF"/>
  <path d="M 351091 0 L 15580 0 C 7328,0 0,7334 0,15584 L 0 352011 C 0,359345 7328,366680 15580,366680 L 352009 366680 C 360254,366680 367589,359345 367589,351093 L 367589 15584 C 366671,7334 359343,0 351091,0 Z M 352926 351093 C 352926,352011 352009,352928 351091,352928 L 15580 352928 C 14663,352928 13745,352011 13745,351093 L 13745 15584 C 13745,14667 14663,13751 15580,13751 L 352009 13751 C 352926,13751 353838,14667 353838,15584 L 352926 351093 Z" fill="#2D5967" transform="translate(9169,9167)"/>
  <path d="M 0 81586 L 285094 81586 L 285094 0 L 0 0 L 0 81586 Z M 13751 13751 L 271343 13751 L 271343 67836 L 13751 67836 L 13751 13751 Z" fill="#2D5967" transform="translate(49499,252089)"/>
  <path d="M 10087 20167 C 15657,20167 20168,15653 20168,10083 C 20168,4515 15657,0 10087,0 C 4517,0 0,4515 0,10083 C 0,15653 4517,20167 10087,20167 Z" fill="#2D5967" transform="translate(280505,282341)"/>
  <path d="M 0 81585 L 285094 81585 L 285094 0 L 0 0 L 0 81585 Z M 13751 13750 L 271343 13750 L 271343 67835 L 13751 67835 L 13751 13750 Z" fill="#2D5967" transform="translate(49499,49502)"/>
  <path d="M 10087 20167 C 15657,20167 20168,15653 20168,10083 C 20168,4514 15657,0 10087,0 C 4517,0 0,4514 0,10083 C 0,15653 4517,20167 10087,20167 Z" fill="#2D5967" transform="translate(280505,80671)"/>
  <path d="M 0 81586 L 285094 81586 L 285094 0 L 0 0 L 0 81586 Z M 13751 13750 L 271343 13750 L 271343 68752 L 13751 68752 L 13751 13750 Z" fill="#2D5967" transform="translate(49499,151256)"/>
  <path d="M 10087 20167 C 15657,20167 20168,15653 20168,10083 C 20168,4515 15657,0 10087,0 C 4517,0 0,4515 0,10083 C 0,15653 4517,20167 10087,20167 Z" fill="#2D5967" transform="translate(280505,182422)"/>
</svg>