<svg xmlns="http://www.w3.org/2000/svg" viewBox="0 0 385010 385010" width="40" height="40">
  <path d="M 20123 375845 C 9144,375845 0,366675 0,355677 L 0 20167 C 0,9166 9144,0 20123,0 L 355750 0 C 366723,0 375867,9166 375867,20167 L 375867 356594 C 375867,367593 366723,376762 355750,376762 L 20123 375845 Z" fill="#FFFFFF" transform="translate(4582,4584)"/>
  <path d="M 359407 9167 C 367634,9167 374949,16500 374949,24750 L 374949 361178 C 374949,369424 367634,376758 359407,376758 L 24692 376758 C 16459,375841 9144,368513 9144,360261 L 9144 24750 C 9144,16500 16459,9167 24692,9167 L 359407 9167 Z M 359407 0 L 24692 0 C 10973,0 0,11000 0,24750 L 0 361178 C 0,374012 10973,385011 24692,385011 L 360318 385011 C 374038,385011 385011,374012 385011,360261 L 385011 24750 C 384093,11000 373120,0 359407,0 Z" fill="#FFFFFF"/>
  <path d="M 61268 0 L 0 0 L 0 13750 L 61268 13750 L 61268 0 Z" fill="#2D5967" transform="translate(156385,68752)"/>
  <path d="M 61274 0 L 0 0 L 0 13751 L 61274 13751 L 61274 0 Z" fill="#2D5967" transform="translate(108830,187011)"/>
  <path d="M 13713 0 L 0 0 L 0 13751 L 13713 13751 L 13713 0 Z" fill="#2D5967" transform="translate(38418,187011)"/>
  <path d="M 37494 0 L 0 0 L 0 13750 L 37494 13750 L 37494 0 Z" fill="#2D5967" transform="translate(38418,68752)"/>
  <path d="M 13713 0 L 0 0 L 0 13750 L 13713 13750 L 13713 0 Z" fill="#2D5967" transform="translate(227715,68752)"/>
  <path d="M 13719 0 L 0 0 L 0 13750 L 13719 13750 L 13719 0 Z" fill="#2D5967" transform="translate(108830,68752)"/>
  <path d="M 13719 0 L 0 0 L 0 13750 L 13719 13750 L 13719 0 Z" fill="#2D5967" transform="translate(85049,68752)"/>
  <path d="M 13719 0 L 0 0 L 0 13750 L 13719 13750 L 13719 0 Z" fill="#2D5967" transform="translate(251489,68752)"/>
  <path d="M 6404 12834 C 9940,12834 12802,9960 12802,6417 C 12802,2873 9940,0 6404,0 C 2868,0 0,2873 0,6417 C 0,9960 2868,12834 6404,12834 Z" fill="#2D5967" transform="translate(133522,68752)"/>
  <path d="M 6404 12834 C 9940,12834 12808,9960 12808,6417 C 12808,2873 9940,0 6404,0 C 2868,0 0,2873 0,6417 C 0,9960 2868,12834 6404,12834 Z" fill="#2D5967" transform="translate(275264,68752)"/>
  <path d="M 6404 12834 C 9940,12834 12808,9961 12808,6417 C 12808,2873 9940,0 6404,0 C 2868,0 0,2873 0,6417 C 0,9961 2868,12834 6404,12834 Z" fill="#2D5967" transform="translate(203934,187919)"/>
  <path d="M 6404 12834 C 9940,12834 12808,9961 12808,6417 C 12808,2873 9940,0 6404,0 C 2868,0 0,2873 0,6417 C 0,9961 2868,12834 6404,12834 Z" fill="#2D5967" transform="translate(275264,307096)"/>
  <path d="M 13719 0 L 0 0 L 0 13751 L 13719 13751 L 13719 0 Z" fill="#2D5967" transform="translate(180160,187011)"/>
  <path d="M 6404 12834 C 9940,12834 12808,9961 12808,6417 C 12808,2873 9940,0 6404,0 C 2868,0 0,2873 0,6417 C 0,9961 2868,12834 6404,12834 Z" fill="#2D5967" transform="translate(85967,187919)"/>
  <path d="M 13719 0 L 0 0 L 0 13751 L 13719 13751 L 13719 0 Z" fill="#2D5967" transform="translate(61275,187011)"/>
  <path d="M 61268 0 L 0 0 L 0 13751 L 61268 13751 L 61268 0 Z" fill="#2D5967" transform="translate(227715,187011)"/>
  <path d="M 61274 0 L 0 0 L 0 13751 L 61274 13751 L 61274 0 Z" fill="#2D5967" transform="translate(180160,306178)"/>
  <path d="M 13719 0 L 0 0 L 0 13751 L 13719 13751 L 13719 0 Z" fill="#2D5967" transform="translate(251489,306178)"/>
  <path d="M 6404 12834 C 9940,12834 12808,9961 12808,6417 C 12808,2873 9940,0 6404,0 C 2868,0 0,2873 0,6417 C 0,9961 2868,12834 6404,12834 Z" fill="#2D5967" transform="translate(157297,307096)"/>
  <path d="M 6398 12834 C 9933,12834 12802,9961 12802,6417 C 12802,2873 9933,0 6398,0 C 2862,0 0,2873 0,6417 C 0,9961 2862,12834 6398,12834 Z" fill="#2D5967" transform="translate(38418,307096)"/>
  <path d="M 61274 0 L 0 0 L 0 13751 L 61274 13751 L 61274 0 Z" fill="#2D5967" transform="translate(61275,306178)"/>
  <path d="M 13719 0 L 0 0 L 0 13751 L 13719 13751 L 13719 0 Z" fill="#2D5967" transform="translate(132604,306178)"/>
  <path d="M 350257 0 L 15542 0 C 7315,0 0,7333 0,15583 L 0 352009 C 0,359343 7315,366678 15542,366678 L 351174 366678 C 359401,366678 366716,359343 366716,351091 L 366716 15583 C 365805,7333 358490,0 350257,0 Z M 352085 351091 C 352085,352009 351174,352926 350257,352926 L 15542 352926 C 14630,352926 13713,352009 13713,351091 L 13713 15583 C 13713,14667 14630,13750 15542,13750 L 351174 13750 C 352085,13750 353003,14667 353003,15583 L 352085 351091 Z" fill="#2D5967" transform="translate(9151,9169)"/>
  <path d="M 0 9167 L 21952 31167 L 0 31167 L 0 44918 L 22863 44918 L 0 67835 L 9151 77918 L 48473 38501 L 9151 0 L 0 9167 Z" fill="#2D5967" transform="translate(299051,155835)"/>
  <path d="M 0 10083 L 21952 32084 L 0 32084 L 0 45834 L 21952 45834 L 0 67835 L 9151 77918 L 48473 38501 L 9151 0 L 0 10083 Z" fill="#2D5967" transform="translate(299051,36668)"/>
  <path d="M 0 10084 L 21952 32084 L 0 32084 L 0 45835 L 21952 45835 L 0 67834 L 9151 77921 L 48473 39418 L 9151 0 L 0 10084 Z" fill="#2D5967" transform="translate(299051,274094)"/>
</svg>