<svg xmlns="http://www.w3.org/2000/svg" viewBox="0 0 385010 385010" width="40" height="40">
  <path d="M 20123 375847 C 9144,375847 0,366678 0,355679 L 0 20168 C 0,9170 9144,0 20123,0 L 355750 0 C 366723,0 375867,9170 375867,20168 L 375867 356597 C 375867,367595 366723,376765 355750,376765 L 20123 375847 Z" fill="#FFFFFF" transform="translate(4582,4582)"/>
  <path d="M 359407 9170 C 367634,9170 374949,16498 374949,24750 L 374949 361179 C 374949,369424 367634,376758 359407,376758 L 24692 376758 C 16459,375841 9144,368513 9144,360261 L 9144 24750 C 9144,16498 16459,9170 24692,9170 L 359407 9170 Z M 359407 0 L 24692 0 C 10973,0 0,10998 0,24750 L 0 361179 C 0,374012 10973,385011 24692,385011 L 360318 385011 C 374038,385011 385011,374012 385011,360261 L 385011 24750 C 384093,10998 373120,0 359407,0 Z" fill="#FFFFFF"/>
  <path d="M 90535 12834 L 115227 55916 L 90535 98999 L 41151 98999 L 16459 55916 L 41151 12834 L 90535 12834 Z M 98768 0 L 32918 0 L 0 56834 L 32918 113668 L 98768 113668 L 131686 56834 L 98768 0 Z" fill="#2D5967" transform="translate(187474,93507)"/>
  <path d="M 56706 12834 C 80480,12834 99686,32084 99686,55916 C 99686,79755 80480,99005 56706,99005 C 32925,99005 13719,79755 13719,55916 C 13719,32084 32925,12834 56706,12834 Z M 56706 0 C 25610,0 0,25667 0,56834 C 0,88001 25610,113668 56706,113668 C 87795,113668 113405,88001 113405,56834 C 113405,24750 87795,0 56706,0 Z" fill="#2D5967" transform="translate(132591,224590)"/>
  <path d="M 62192 27503 L 102426 99923 L 22863 99923 L 62192 27503 Z M 62192 0 L 0 113674 L 125289 113674 L 62192 0 Z" fill="#2D5967" transform="translate(62179,89836)"/>
  <path d="M 350257 330005 L 15542 330005 C 7315,330005 0,322671 0,314425 L 0 0 L 365805 0 L 365805 314425 C 365805,322671 358490,330005 350257,330005 Z M 13713 13745 L 13713 315337 C 13713,316254 14630,317172 15542,317172 L 351168 317172 C 352086,317172 353003,316254 353003,315337 L 353003 13745 L 13713 13745 Z" fill="#2D5967" transform="translate(9150,45842)"/>
  <path d="M 365805 26585 L 0 26585 L 0 15587 C 0,7334 7315,0 15542,0 L 351168 0 C 358490,0 365805,7334 365805,15587 L 365805 26585 Z" fill="#2D5967" transform="translate(9150,9170)"/>
</svg>