<svg xmlns="http://www.w3.org/2000/svg" viewBox="0 0 385010 385010" width="40" height="40">
  <path d="M 241402 201399 L 241402 195714 L 241402 66831 L 241402 61236 L 236461 58669 L 126925 2111 L 122818 0 L 118712 2021 L 5134 58579 L 0 61146 L 0 66831 L 0 195810 L 0 201489 L 5198 204056 L 118776 259061 L 122883 260986 L 126925 258965 L 236397 203876 L 241402 201399 Z" fill="#FFFFFF" transform="translate(71804,61967)"/>
  <path d="M 94327 0 L 9176 0 L 0 0 L 0 9170 L 0 22273 L 0 31442 L 9176 31442 L 72061 31442 L 72061 94328 L 72061 103497 L 81237 103497 L 94327 103497 L 103504 103497 L 103504 94328 L 103504 9170 L 103504 0 L 94327 0 Z" fill="#FFFFFF" transform="translate(281507,0)"/>
  <path d="M 22266 103497 L 31443 103497 L 31443 94328 L 31443 31442 L 94327 31442 L 103504 31442 L 103504 22273 L 103504 9170 L 103504 0 L 94327 0 L 9176 0 L 0 0 L 0 9170 L 0 94328 L 0 103497 L 9176 103497 L 22266 103497 Z" fill="#FFFFFF"/>
  <path d="M 81237 0 L 72061 0 L 72061 9170 L 72061 72055 L 9176 72055 L 0 72055 L 0 81218 L 0 94328 L 0 103497 L 9176 103497 L 94327 103497 L 103504 103497 L 103504 94328 L 103504 9170 L 103504 0 L 94327 0 L 81237 0 Z" fill="#FFFFFF" transform="translate(281507,281513)"/>
  <path d="M 31443 72055 L 31443 9170 L 31443 0 L 22266 0 L 9176 0 L 0 0 L 0 9170 L 0 94328 L 0 103497 L 9176 103497 L 94327 103497 L 103504 103497 L 103504 94328 L 103504 81218 L 103504 72055 L 94327 72055 L 31443 72055 Z" fill="#FFFFFF" transform="translate(0,281513)"/>
  <path d="M 223178 56558 L 113579 0 L 0 56558 L 0 185537 L 113706 240542 L 223178 185447 L 223178 56558 Z M 202131 60505 L 113514 104781 L 21368 60505 L 113450 14669 L 202131 60505 Z M 13155 70951 L 107098 116145 L 107098 222754 L 13155 177291 L 13155 70951 Z M 120187 222575 L 120187 116145 L 210023 71227 L 210023 177381 L 120187 222575 Z" fill="#2C5967" transform="translate(80916,72234)"/>
  <path d="M 0 0 L 0 13110 L 72061 13110 L 72061 85164 L 85151 85164 L 85151 0 L 0 0 Z" fill="#2C5967" transform="translate(290683,9163)"/>
  <path d="M 13090 13110 L 85151 13110 L 85151 0 L 0 0 L 0 85164 L 13090 85164 L 13090 13110 Z" fill="#2C5967" transform="translate(9176,9163)"/>
  <path d="M 72061 72048 L 0 72048 L 0 85158 L 85151 85158 L 85151 0 L 72061 0 L 72061 72048 Z" fill="#2C5967" transform="translate(290683,290682)"/>
  <path d="M 13090 0 L 0 0 L 0 85158 L 85151 85158 L 85151 72048 L 13090 72048 L 13090 0 Z" fill="#2C5967" transform="translate(9176,290682)"/>
</svg>