<svg xmlns="http://www.w3.org/2000/svg" viewBox="0 0 385010 356134" width="40" height="37">
  <path d="M 194155 194956 L 317358 194956 C 323499,206520 335691,214143 349076,214143 C 368879,214143 385011,197985 385011,178067 C 385011,158149 368879,141992 349076,141992 C 335691,141992 323499,149615 317358,161178 L 194155 161178 L 191864 161178 L 191864 150712 L 194155 150712 L 271708 150712 L 275469 150712 L 278125 148056 L 304986 121156 C 308464,122260 312045,122812 315709,122812 C 335511,122812 351643,106654 351643,86736 C 351643,66819 335511,50667 315709,50667 C 295906,50667 279774,66819 279774,86736 C 279774,90317 280326,93808 281334,97202 L 261531 117030 L 194155 117030 L 191864 117030 L 191864 96195 L 200661 87385 L 217717 70309 C 221195,71413 224776,71958 228439,71958 C 248242,71958 264374,55807 264374,35889 C 264374,15972 248146,0 228350,0 C 213957,0 201579,8534 195900,20835 L 195900 20560 L 192139 28176 L 189387 20925 C 189387,20835 189297,20746 189297,20649 C 184439,8907 173255,642 159869,186 C 158952,186 158130,186 157213,186 C 147587,186 137962,1925 128703,5416 C 112109,11563 97722,22947 87821,37635 C 48402,44886 19251,79671 19251,120239 C 19251,121618 19251,123088 19340,124557 C 6872,139515 0,158425 0,178157 C 0,197895 6872,216799 19340,231853 C 19251,233233 19251,234516 19251,235896 C 19251,276187 48216,310883 87359,318410 C 102946,342088 128703,356135 157213,356135 C 157944,356135 158682,356135 159414,356135 C 176553,355673 190394,341909 191588,325109 L 192961 325109 C 195438,342550 210286,356135 228439,356135 C 248242,356135 264374,339977 264374,320059 C 264374,300141 248242,283990 228439,283990 C 224776,283990 221195,284542 217717,285639 L 200661 268571 L 191864 259760 L 191864 239104 L 194155 239104 L 261531 239104 L 281700 259388 C 280968,262327 280602,265266 280602,268295 C 280602,288123 296734,304364 316536,304364 C 336332,304364 352471,288213 352471,268295 C 352471,248377 336332,232219 316536,232219 C 312410,232219 308285,232957 304345,234330 L 278125 207989 L 275469 205326 L 271708 205326 L 194155 205326 L 191864 205326 L 191864 194867 L 194155 194867 L 194155 194956 Z" fill="#FFFFFF"/>
  <path d="M 21452 50391 C 25302,52503 29697,53696 34285,53696 C 49044,53696 61050,41671 61050,26803 C 61050,11935 49044,0 34285,0 C 19527,0 7514,12025 7514,26900 C 7514,31488 8708,35710 10633,39470 L 0 50116 L 0 71779 L 21452 50391 Z M 34285 15330 C 40606,15330 45739,20470 45739,26803 C 45739,33137 40606,38276 34285,38276 C 27958,38276 22825,33137 22825,26803 C 22825,20470 27958,15330 34285,15330 Z" fill="#2C5967" transform="translate(194065,9176)"/>
  <path d="M 34195 18083 C 29517,18083 25116,19276 21362,21387 L 0 0 L 0 21663 L 10633 32309 C 8618,36076 7521,40388 7521,44886 C 7521,59664 19526,71779 34285,71779 C 49044,71779 61050,59754 61050,44886 C 61050,30018 48954,18083 34195,18083 Z M 34195 56449 C 27868,56449 22735,51309 22735,44976 C 22735,38642 27868,33502 34195,33502 C 40516,33502 45649,38642 45649,44976 C 45649,51309 40516,56449 34195,56449 Z" fill="#2C5967" transform="translate(194155,275083)"/>
  <path d="M 173434 251438 L 173434 24173 C 173434,11044 163257,488 150334,33 C 140984,-243 131725,1226 122741,4621 C 106610,10588 93044,21965 84151,36654 C 47388,41614 19251,73371 19251,110909 C 19251,113296 19340,115683 19706,118346 C 6962,132111 0,150013 0,168918 C 0,187828 6962,205635 19616,219495 C 19340,221972 19251,224359 19251,226656 C 19251,264009 47298,295772 83785,300726 C 97164,323583 121458,337719 148043,337719 C 148684,337719 149326,337719 149968,337719 C 162988,337347 173524,326522 173524,313579 L 173434 251438 Z M 149878 15452 C 154460,15632 158220,19585 158220,24263 L 158220 89342 L 158220 117153 L 110183 117153 L 105416 112379 C 107341,108618 108534,104396 108534,99898 C 108534,85120 96522,73005 81763,73005 C 67004,73005 54999,85024 54999,99898 C 54999,114766 67004,126791 81763,126791 C 86441,126791 90933,125507 94783,123396 L 103953 132573 L 158310 132573 L 158310 161391 L 86441 161391 C 83143,150289 72876,142211 60774,142211 C 46015,142211 34009,154236 34009,169104 C 34009,183882 46015,195997 60774,195997 C 72876,195997 83143,187918 86441,176817 L 158310 176817 L 158310 205635 L 103953 205635 L 95977 213617 C 91850,211050 86993,209491 81763,209491 C 67004,209491 54999,221516 54999,236384 C 54999,251162 67004,263277 81763,263277 C 96522,263277 108534,251252 108534,236384 C 108534,232348 107617,228581 106057,225187 L 110183 221054 L 158220 221054 L 158220 313855 C 158220,318622 154370,322569 149512,322665 C 148961,322665 148498,322665 147953,322665 C 125674,322665 105505,310274 95239,290356 L 93314 286589 L 89098 286224 C 58483,283747 34555,257771 34555,226932 C 34555,224269 34830,221516 35293,218115 L 35838 214265 L 33092 211506 C 21631,200219 15304,185165 15304,169104 C 15304,153042 21631,137988 33092,126695 L 35838 123942 L 35293 120092 C 34741,116691 34555,113848 34555,111185 C 34555,80256 58663,54184 89374,51894 L 93589 51618 L 95611 47851 C 102669,34632 114220,24539 128061,19309 L 149878 15452 Z M 81673 111371 C 75347,111371 70213,106231 70213,99898 C 70213,93564 75347,88425 81673,88425 C 88001,88425 93134,93564 93134,99898 C 93134,106135 88001,111371 81673,111371 Z M 72048 168918 C 72048,175251 66915,180391 60588,180391 C 54267,180391 49134,175251 49134,168918 C 49134,162584 54267,157444 60588,157444 C 66915,157444 72048,162584 72048,168918 Z M 93134 236018 C 93134,242352 88001,247492 81673,247492 C 75347,247492 70213,242352 70213,236018 C 70213,229685 75347,224545 81673,224545 C 88001,224545 93134,229685 93134,236018 Z" fill="#2C5967" transform="translate(9170,9240)"/>
  <path d="M 0 66459 L 0 81783 L 77554 81783 L 108721 50488 C 112570,52599 116973,53793 121554,53793 C 136313,53793 148319,41767 148319,26900 C 148319,12025 136313,0 121554,0 C 106796,0 94789,12025 94789,26900 C 94789,31488 95977,35710 97901,39470 L 71137 66273 L 0 66273 L 0 66459 Z M 121554 15516 C 127881,15516 133015,20656 133015,26989 C 133015,33323 127881,38463 121554,38463 C 115227,38463 110094,33323 110094,26989 C 110094,20656 115227,15516 121554,15516 Z" fill="#2C5967" transform="translate(194155,59843)"/>
  <path d="M 122382 26893 C 117248,26893 112384,28363 108355,30929 L 77554 0 L 0 0 L 0 15323 L 71227 15323 L 98178 42499 C 96528,45983 95611,49750 95611,53786 C 95611,68564 107623,80679 122382,80679 C 137141,80679 149147,68654 149147,53786 C 149147,39008 137141,26893 122382,26893 Z M 122382 65259 C 116055,65259 110922,60120 110922,53786 C 110922,47453 116055,42313 122382,42313 C 128703,42313 133836,47453 133836,53786 C 133836,60120 128703,65259 122382,65259 Z" fill="#2C5967" transform="translate(194155,214508)"/>
  <path d="M 154922 0 C 142819,0 132553,8079 129254,19186 L 0 19186 L 0 34516 L 129254 34516 C 132553,45617 142819,53696 154922,53696 C 169681,53696 181686,41671 181686,26803 C 181686,12025 169681,0 154922,0 Z M 154922 38366 C 148595,38366 143461,33226 143461,26893 C 143461,20560 148595,15420 154922,15420 C 161249,15420 166382,20560 166382,26893 C 166382,33226 161249,38366 154922,38366 Z" fill="#2C5967" transform="translate(194155,151264)"/>
</svg>