<svg xmlns="http://www.w3.org/2000/svg" viewBox="0 0 350744 385010" width="37" height="40">
  <path d="M 36448 231186 L 69238 198422 L 0 198422 L 0 49147 L 111139 49147 L 111139 0 L 228696 0 L 228696 117415 L 111139 117415 L 111139 70996 L 22780 70996 L 22780 176572 L 70136 176572 L 36448 142897 L 52810 126514 L 112936 187500 L 52810 247568 L 36448 231186 Z" fill="#FFFFFF" transform="translate(4556,4549)"/>
  <path d="M 228696 9099 L 228696 117415 L 120252 117415 L 120252 71907 L 22779 71907 L 22779 185678 L 86563 185678 L 48254 147453 L 57366 138347 L 111139 192050 L 57366 245752 L 48254 236647 L 85600 199333 L 9111 199333 L 9111 58252 L 120252 58252 L 120252 9099 L 228696 9099 Z M 237808 0 L 228696 0 L 120252 0 L 111139 0 L 111139 9099 L 111139 49153 L 9111 49153 L 0 49153 L 0 58252 L 0 198422 L 0 207521 L 9111 207521 L 62820 207521 L 41004 229370 L 34587 235742 L 41004 242108 L 50115 251213 L 56468 257585 L 63783 252124 L 117492 198422 L 123909 192050 L 117492 185678 L 63783 131070 L 57366 124699 L 51014 131070 L 41901 140169 L 35485 146541 L 41901 152913 L 63783 176579 L 31892 176579 L 31892 81006 L 112038 81006 L 112038 117415 L 112038 126515 L 121150 126515 L 229594 126515 L 238706 126515 L 238706 117415 L 238706 9099 L 238706 0 L 237808 0 Z" fill="#FFFFFF"/>
  <path d="M 117557 0 L 0 0 L 0 117415 L 117557 117415 L 117557 0 Z" fill="#FFFFFF" transform="translate(115696,260312)"/>
  <path d="M 117557 9106 L 117557 117415 L 9112 117415 L 9112 9106 L 117557 9106 Z M 126668 0 L 117557 0 L 9112 0 L 0 0 L 0 9106 L 0 117415 L 0 126521 L 9112 126521 L 117557 126521 L 126668 126521 L 126668 117415 L 126668 9106 L 126668 0 Z" fill="#FFFFFF" transform="translate(111140,255762)"/>
  <path d="M 114862 182944 L 174987 122876 L 190452 138347 L 156764 172023 L 205018 172023 L 205018 67351 L 113899 67351 L 113899 72812 L 101194 74634 C 101194,75545 100231,75545 100231,76457 L 109343 87378 L 87526 109221 L 76553 100122 C 75655,100122 75655,101027 74756,101027 L 72895 114682 L 41966 114682 L 40105 101027 C 39207,101027 39207,100122 38308,100122 L 27336 109221 L 5518 87378 L 14631 76457 C 14631,75545 13668,75545 13668,74634 L 0 72812 L 0 41863 L 13668 40048 C 13668,39136 14631,39136 14631,38225 L 5518 27304 L 27336 5461 L 38308 14560 C 39207,14560 39207,13649 40105,13649 L 41966 0 L 72895 0 L 74756 13649 C 75655,13649 75655,14560 76553,14560 L 87526 5461 L 109343 27304 L 100231 38225 C 100231,39136 101194,39136 101194,40048 L 114862 41863 L 114862 45508 L 227798 45508 L 227798 194777 L 158560 194777 L 191350 227548 L 175886 243019 L 114862 182944 Z" fill="#FFFFFF" transform="translate(118391,134709)"/>
  <path d="M 71933 9099 L 73794 21843 C 76488,22754 78349,23665 80146,24570 L 90156 16382 L 106584 32764 L 98370 43686 C 99268,45508 100231,48235 101129,50058 L 113899 51880 L 113899 55519 L 226835 55519 L 226835 195688 L 150346 195688 L 187693 233008 L 178580 242108 L 124807 188405 L 178580 134709 L 187693 143808 L 149383 182033 L 213167 182033 L 213167 68262 L 112936 68262 L 112936 73723 L 100231 75546 C 99268,78273 98370,80095 97471,81917 L 105685 91928 L 89258 108310 L 79248 100116 C 77451,101027 74691,101938 72895,102849 L 71034 115593 L 49217 115593 L 47356 102849 C 44661,101938 42800,101027 41003,100116 L 30993 108310 L 14566 91928 L 22779 81917 C 21881,80095 20918,77361 20021,75546 L 7250 73723 L 7250 50969 L 20021 49147 C 20918,46420 21881,44597 22779,42775 L 14566 32764 L 30993 16382 L 41003 24570 C 42800,23665 45559,22754 47356,21843 L 49217 9099 L 71933 9099 Z M 80146 0 L 71933 0 L 49217 0 L 41003 0 L 40105 8188 L 40105 11833 L 37346 9099 L 30993 3638 L 25475 9099 L 9111 25481 L 3657 30942 L 9111 37314 L 11807 40048 L 8213 40048 L 0 40959 L 0 49147 L 0 71901 L 0 80095 L 8213 81006 L 11807 81006 L 9111 83733 L 3657 90105 L 9111 95566 L 25475 111948 L 30993 117409 L 37346 111948 L 40105 109221 L 40105 112860 L 41003 121054 L 49217 121054 L 71933 121054 L 80146 121054 L 81044 112860 L 81044 109221 L 83804 111948 L 90156 117409 L 95675 111948 L 112936 98300 L 118455 92839 L 112936 86467 L 110241 83733 L 113899 83733 L 122048 82822 L 122048 78273 L 204055 78273 L 204055 173845 L 172164 173845 L 194943 151091 L 201360 144719 L 194943 138347 L 185832 129242 L 179479 122876 L 173126 129242 L 119353 182944 L 112936 189316 L 119353 195688 L 173126 249391 L 179479 255763 L 185832 249391 L 194943 240285 L 201360 233920 L 194943 226636 L 173126 204787 L 226835 204787 L 235947 204787 L 235947 195688 L 235947 55519 L 235947 46420 L 226835 46420 L 123010 46420 L 123010 43686 L 114797 42775 L 111139 42775 L 113899 40048 L 119353 33676 L 112936 26393 L 96573 10010 L 91119 4550 L 84702 10010 L 82007 12738 L 82007 9099 L 80146 0 Z" fill="#FFFFFF" transform="translate(114798,129248)"/>
  <path d="M 48255 79190 L 38245 89201 L 76489 127426 L 13668 127426 L 13668 12744 L 101129 12744 L 101129 0 L 0 0 L 0 140169 L 76489 140169 L 38245 177490 L 48255 187500 L 102028 133797 L 48255 79190 Z" fill="#2D5967" transform="translate(9112,58252)"/>
  <path d="M 108445 0 L 0 0 L 0 108316 L 108445 108316 L 108445 0 Z M 94777 94661 L 13668 94661 L 13668 13655 L 94777 13655 L 94777 94661 Z" fill="#2D5967" transform="translate(120252,9099)"/>
  <path d="M 0 108310 L 108445 108310 L 108445 0 L 0 0 L 0 108310 Z M 13668 13655 L 94777 13655 L 94777 94661 L 13668 94661 L 13668 13655 Z" fill="#2D5967" transform="translate(120252,264868)"/>
  <path d="M 102926 0 L 0 0 L 0 12744 L 90221 12744 L 90221 126515 L 26437 126515 L 64681 89201 L 55570 79184 L 898 132886 L 55570 187500 L 64681 177490 L 27336 140169 L 102926 140169 L 102926 0 Z" fill="#2D5967" transform="translate(238707,184767)"/>
  <path d="M 91120 33682 L 99333 23665 L 82906 7283 L 72896 15478 C 71099,14566 68340,13655 66543,12744 L 64682 0 L 41902 0 L 40105 12744 C 37411,13655 35550,14566 33753,15478 L 23743 7283 L 7315 23665 L 15529 33682 C 14631,35498 13668,38232 12770,40054 L 0 41870 L 0 64624 L 12770 66446 C 13668,69180 14631,70996 15529,72818 L 7315 82829 L 23743 99211 L 33753 91023 C 35550,91934 38309,92839 40105,93750 L 41902 106494 L 64682 106494 L 66543 93750 C 69238,92839 71099,91934 72896,91023 L 82906 99211 L 99333 82829 L 91120 72818 C 92018,70996 92981,68269 93878,66446 L 106649 64624 L 106649 41870 L 93878 40054 C 92981,37320 92018,35498 91120,33682 Z M 53773 81013 C 38309,81013 25540,68269 25540,52791 C 25540,37320 38309,24577 53773,24577 C 69238,24577 82007,37320 82007,52791 C 82007,68269 69238,81013 53773,81013 Z" fill="#2D5967" transform="translate(122048,139258)"/>
</svg>