<svg xmlns="http://www.w3.org/2000/svg" viewBox="0 0 385928 385010" width="41" height="40">
  <path d="M 20168 375845 C 9170,375845 0,366675 0,355677 L 0 20167 C 0,9166 9170,0 20168,0 L 356597 0 C 367595,0 376765,9166 376765,20167 L 376765 356594 C 376765,367593 367595,376762 356597,376762 L 20168 375845 Z" fill="#FFFFFF" transform="translate(4581,4584)"/>
  <path d="M 360261 9167 C 368513,9167 375841,16500 375841,24750 L 375841 361178 C 375841,369424 368513,376759 360261,376759 L 24750 376759 C 16498,375841 9170,368513 9170,360261 L 9170 24750 C 9170,16500 16498,9167 24750,9167 L 360261 9167 Z M 360261 0 L 24750 0 C 10998,0 0,11000 0,24750 L 0 361178 C 0,374012 10998,385011 24750,385011 L 361178 385011 C 374930,385011 385928,374012 385928,360261 L 385928 24750 C 385011,11000 374012,0 360261,0 Z" fill="#FFFFFF"/>
  <path d="M 351091 0 L 15580 0 C 7328,0 0,7333 0,15583 L 0 352012 C 0,359340 7328,366674 15580,366674 L 352009 366674 C 360254,366674 367589,359340 367589,351094 L 367589 15583 C 366671,7333 359343,0 351091,0 Z M 352926 351094 C 352926,352012 352009,352923 351091,352923 L 15580 352923 C 14663,352923 13745,352012 13745,351094 L 13745 15583 C 13745,14667 14663,13750 15580,13750 L 352009 13750 C 352926,13750 353838,14667 353838,15583 L 352926 351094 Z" fill="#2D5967" transform="translate(9169,9166)"/>
  <path d="M 81584 0 L 0 0 L 0 81586 L 81584 81586 L 81584 0 Z M 67832 68752 L 13745 68752 L 13745 13751 L 67832 13751 L 67832 68752 Z" fill="#2D5967" transform="translate(105422,49500)"/>
  <path d="M 81590 0 L 0 0 L 0 81586 L 81590 81586 C 80673,81586 80673,0 81590,0 Z M 67839 68752 L 13751 68752 L 13751 13751 L 67839 13751 L 67839 68752 Z" fill="#2D5967" transform="translate(197087,49500)"/>
  <path d="M 12834 13751 L 67839 13751 L 67839 35751 L 80672 38501 L 80672 0 L 0 0 L 0 38501 L 12834 35751 L 12834 13751 Z" fill="#2D5967" transform="translate(152169,141170)"/>
  <path d="M 12834 13751 L 67833 13751 L 67833 58669 L 80666 61418 L 80666 0 L 0 0 L 0 41251 L 12834 44918 L 12834 13751 Z" fill="#2D5967" transform="translate(243840,141170)"/>
  <path d="M 12834 13751 L 67832 13751 L 67832 44918 L 80666 41251 L 80666 0 L 0 0 L 0 61418 L 12834 58669 L 12834 13751 Z" fill="#2D5967" transform="translate(60504,141170)"/>
  <path d="M 144835 0 L 0 35751 L 1829 42168 C 18333,108170 77002,154006 144835,154006 C 212667,154006 272254,108170 287840,42168 L 289669 35751 L 144835 0 Z M 138418 15584 L 138418 140254 C 81584,138421 32995,99920 16498,45835 L 138418 15584 Z M 151251 140254 L 151251 15584 L 273171 45835 C 256674,99920 208085,138421 151251,140254 Z" fill="#2D5967" transform="translate(47671,180588)"/>
</svg>