<svg xmlns="http://www.w3.org/2000/svg" viewBox="0 0 385010 385010" width="40" height="40">
  <path d="M 225295 217987 L 239862 217987 L 245316 217987 L 251220 217987 L 256481 217987 L 270406 217987 L 286127 217987 L 289143 217987 C 291709,218538 294276,219000 297292,219000 C 300180,219000 302875,218538 305377,217987 L 308522 217987 L 324115 217987 L 338681 217987 L 344135 217987 L 350039 217987 L 355301 217987 L 369354 217987 L 385011 217987 L 377054 204242 L 365888 184805 L 384562 153087 L 368712 153087 L 354723 153087 L 349397 153087 L 344135 153087 L 338874 153087 L 324949 153087 L 308971 153087 L 304928 153087 C 302490,152445 299987,152079 297292,152079 C 294597,152079 292031,152535 289592,153087 L 285742 153087 L 269893 153087 L 255904 153087 L 250578 153087 L 245316 153087 L 240054 153087 L 226129 153087 L 225231 153087 L 225231 138604 L 225359 138604 L 239990 138604 L 245380 138604 L 251348 138604 L 256545 138604 L 270534 138604 L 286191 138604 L 289143 138604 C 291709,139246 294276,139611 297292,139611 C 300180,139611 302875,139156 305377,138604 L 308457 138604 L 324051 138604 L 338617 138604 L 344007 138604 L 349975 138604 L 355172 138604 L 369354 138604 L 385011 138604 L 377054 124853 L 365888 105422 L 384562 73704 L 368712 73704 L 354723 73704 L 349397 73704 L 344135 73704 L 338874 73704 L 324949 73704 L 309100 73704 L 304993 73704 C 302554,73062 300052,72696 297356,72696 C 294662,72696 292159,73152 289721,73704 L 285806 73704 L 269956 73704 L 256032 73704 L 250706 73704 L 245380 73704 L 240183 73704 L 226129 73704 L 225231 73704 L 225231 9170 L 225231 0 L 216183 0 L 204184 0 L 195201 0 L 195201 9170 L 195201 51976 L 8984 51976 L 0 51976 L 0 61146 L 0 357508 L 0 366678 L 8984 366678 L 36768 366678 L 40554 366678 L 43121 363925 L 86563 319283 L 195136 319283 L 195136 375841 L 195136 385011 L 204120 385011 L 216183 385011 L 225231 385011 L 225231 375841 L 225231 297466 L 225359 297376 L 239990 297376 L 245380 297376 L 251348 297376 L 256545 297376 L 270534 297376 L 286191 297376 L 289271 297376 C 291774,297927 294405,298383 297356,298383 C 300244,298383 302939,297927 305442,297376 L 308650 297376 L 324179 297376 L 338810 297376 L 344200 297376 L 350167 297376 L 355365 297376 L 369354 297376 L 385011 297376 L 377054 283625 L 365888 264188 L 384562 232476 L 368712 232476 L 354723 232476 L 349397 232476 L 344135 232476 L 338874 232476 L 324949 232476 L 308971 232476 L 304928 232476 C 302490,231834 299987,231462 297292,231462 C 294597,231462 292031,231924 289592,232476 L 285742 232476 L 269893 232476 L 255904 232476 L 250578 232476 L 245316 232476 L 240054 232476 L 226129 232476 L 225231 232476 L 225231 217987 L 225295 217987 Z" fill="#FFFFFF"/>
  <path d="M 68853 236781 L 22844 284170 L 11999 284170 L 11999 12192 L 186153 12192 L 186153 0 L 0 0 L 0 296362 L 27785 296362 L 73922 248973 L 186153 248973 L 186153 236781 L 68853 236781 Z" fill="#2C5967" transform="translate(8984,61146)"/>
  <path d="M 42993 71689 L 54993 71689 L 54993 59497 L 54993 35844 L 54993 23653 L 47934 23653 L 50629 16684 L 57110 0 L 39464 0 L 27143 0 L 20534 0 L 17069 5596 L 1925 29428 L 0 32450 L 0 36024 L 0 59587 L 0 71779 L 11935 71779 L 42993 71779 L 42993 71689 Z M 11935 35844 L 27079 12012 L 39400 12012 L 30223 35658 L 42929 35658 L 42929 59311 L 11935 59311 L 11935 35844 Z" fill="#2C5967" transform="translate(52041,149878)"/>
  <path d="M 42929 71689 L 54929 71689 L 54929 59497 L 54929 35844 L 54929 23653 L 47806 23653 L 50501 16684 L 56982 0 L 39335 0 L 27080 0 L 20599 0 L 17069 5596 L 1861 29242 L 0 32270 L 0 35844 L 0 59401 L 0 71593 L 11935 71593 L 42929 71593 L 42929 71689 Z M 11935 35844 L 27080 12012 L 39400 12012 L 30224 35658 L 42929 35658 L 42929 59311 L 11935 59311 L 11935 35844 Z" fill="#2C5967" transform="translate(115246,149878)"/>
  <path d="M 11999 0 L 0 0 L 0 366678 L 11999 366678 L 11999 0 Z" fill="#2C5967" transform="translate(204120,9169)"/>
  <path d="M 44598 0 L 30608 0 L 22909 14213 L 14759 0 L 834 0 L 13861 22286 L 0 46670 L 14566 46670 L 22716 31179 L 31250 46670 L 45239 46670 L 31378 22555 L 44598 0 Z" fill="#2C5967" transform="translate(225295,162160)"/>
  <path d="M 34137 2836 C 30801,911 26887,0 22202,0 C 17518,0 13539,911 10203,2836 C 6866,4761 4364,7514 2631,11185 C 898,14759 0,19161 0,24294 C 0,31995 1925,38046 5775,42261 C 9689,46484 15079,48685 22202,48685 C 29325,48685 34715,46573 38565,42261 C 42479,38046 44341,31995 44341,24294 C 44341,19161 43442,14759 41709,11185 C 40041,7514 37474,4761 34137,2836 Z M 22266 37866 C 16171,37866 13091,33368 13091,24294 C 13091,15311 16171,10723 22266,10723 C 28427,10723 31443,15214 31443,24294 C 31443,33368 28427,37866 22266,37866 Z" fill="#2C5967" transform="translate(275090,161159)"/>
  <path d="M 44597 0 L 30608 0 L 22908 14213 L 14759 0 L 834 0 L 13796 22286 L 0 46670 L 14566 46670 L 22587 31179 L 31250 46670 L 45239 46670 L 31378 22555 L 44597 0 Z" fill="#2C5967" transform="translate(324115,162160)"/>
  <path d="M 44598 0 L 30608 0 L 22909 14207 L 14759 0 L 834 0 L 13861 22279 L 0 46670 L 14566 46670 L 22716 31173 L 31250 46670 L 45239 46670 L 31378 22555 L 44598 0 Z" fill="#2C5967" transform="translate(225295,82687)"/>
  <path d="M 34137 2843 C 30801,918 26887,0 22202,0 C 17518,0 13539,918 10203,2843 C 6866,4768 4364,7514 2631,11184 C 898,14759 0,19161 0,24294 C 0,31994 1925,38045 5775,42268 C 9689,46484 15079,48685 22202,48685 C 29325,48685 34715,46573 38565,42268 C 42479,38045 44341,31994 44341,24294 C 44341,19161 43442,14759 41709,11184 C 40041,7610 37474,4768 34137,2843 Z M 22266 37956 C 16171,37956 13091,33464 13091,24384 C 13091,15400 16171,10819 22266,10819 C 28427,10819 31443,15310 31443,24384 C 31443,33374 28427,37956 22266,37956 Z" fill="#2C5967" transform="translate(275090,81680)"/>
  <path d="M 14566 46670 L 22587 31173 L 31250 46670 L 45239 46670 L 31378 22555 L 44597 0 L 30608 0 L 22908 14207 L 14759 0 L 834 0 L 13796 22279 L 0 46670 L 14566 46670 Z" fill="#2C5967" transform="translate(324115,82687)"/>
  <path d="M 44598 0 L 30608 0 L 22909 14123 L 14759 0 L 834 0 L 13861 22189 L 0 46580 L 14566 46580 L 22716 31173 L 31250 46580 L 45239 46580 L 31378 22465 L 44598 0 Z" fill="#2C5967" transform="translate(225295,241639)"/>
  <path d="M 34137 2843 C 30801,918 26887,0 22202,0 C 17518,0 13539,918 10203,2843 C 6866,4768 4364,7521 2631,11185 C 898,14759 0,19161 0,24294 C 0,32001 1925,38052 5775,42268 C 9689,46484 15079,48685 22202,48685 C 29325,48685 34715,46580 38565,42268 C 42479,38052 44341,32001 44341,24294 C 44341,19161 43442,14759 41709,11185 C 40041,7521 37474,4768 34137,2843 Z M 22266 37866 C 16171,37866 13091,33374 13091,24294 C 13091,15310 16171,10729 22266,10729 C 28427,10729 31443,15221 31443,24294 C 31443,33374 28427,37866 22266,37866 Z" fill="#2C5967" transform="translate(275090,240631)"/>
  <path d="M 44597 0 L 30608 0 L 22908 14123 L 14759 0 L 834 0 L 13796 22189 L 0 46580 L 14566 46580 L 22587 31173 L 31250 46580 L 45239 46580 L 31378 22465 L 44597 0 Z" fill="#2C5967" transform="translate(324115,241639)"/>
</svg>