<svg xmlns="http://www.w3.org/2000/svg" viewBox="0 0 362551 385010" width="38" height="40">
  <path d="M 61339 59439 L 93384 31090 L 93384 0 L 0 0 L 0 62186 L 31128 32007 L 61339 59439 Z" fill="#FFFFFF" transform="translate(30217,24699)"/>
  <path d="M 30211 30178 L 30211 0 L 0 0 C 2747,15542 14650,27432 30211,30178 Z" fill="#FFFFFF" transform="translate(25642,323736)"/>
  <path d="M 84228 107919 L 13732 107919 L 13732 94199 L 14650 95111 L 45778 64932 L 75989 92371 L 108034 63103 L 108034 91453 C 112609,88713 117185,86884 121766,85055 L 121766 0 L 0 0 L 0 122549 L 71407 122549 C 74153,118891 77817,115234 80563,111576 C 82399,109747 83310,108830 84228,107919 Z M 13732 13719 L 107116 13719 L 107116 44815 L 75071 73165 L 44860 45726 L 13732 75905 L 13732 13719 Z" fill="#2C5967" transform="translate(16485,10973)"/>
  <path d="M 89727 51213 C 89727,69501 75995,85049 58599,88706 L 58599 53953 L 73249 39322 C 69585,36576 65920,33836 62256,30178 L 48524 43891 L 14650 43891 C 17396,27432 31128,14630 48524,12802 C 45778,8226 43032,4569 41203,0 C 17396,4569 0,25603 0,51213 L 0 58528 L 44867 58528 L 44867 103337 L 52189 103337 C 79652,103337 101630,82302 104377,55782 C 99795,53953 95220,52124 90638,50295 C 89727,50295 89727,50295 89727,51213 Z" fill="#2C5967" transform="translate(35703,241434)"/>
  <path d="M 0 7322 C 0,35671 22889,59445 52188,59445 L 59510 59445 L 59510 0 L 0 0 L 0 7322 Z M 44867 14637 L 44867 44815 C 29300,42069 17396,30185 14650,14637 L 44867 14637 Z" fill="#2C5967" transform="translate(10986,309099)"/>
  <path d="M 14649 13719 L 108034 13719 L 108034 107919 L 95213 107919 L 95213 34754 L 80563 34754 L 80563 107919 L 68660 107919 L 68660 53042 L 53099 53042 L 53099 107919 L 42114 107919 L 42114 72247 L 27464 72247 L 27464 98768 C 32957,102426 37532,106090 42114,110658 C 45778,114316 48524,117974 52181,121631 L 122677 121631 L 122677 0 L 0 0 L 0 85966 C 4575,87795 9150,89624 13732,91453 L 13732 13719 L 14649 13719 Z" fill="#2C5967" transform="translate(205083,10973)"/>
  <path d="M 139390 139002 C 154957,123454 163196,103337 163196,81391 C 163196,59439 154957,39322 139390,23774 C 123829,8226 103686,0 81715,0 C 59744,0 39601,8226 24034,23774 C -8011,55782 -8011,106994 24034,138090 C 39601,153638 59744,161865 81715,161865 C 103686,161865 123829,153638 139390,139002 Z" fill="#FFFFFF" transform="translate(90410,115234)"/>
  <path d="M 49435 22857 L 18307 0 C 15561,3658 12814,7315 9150,10973 C 6404,13713 3657,16459 0,19199 L 24718 52124 C 31128,61268 34785,64926 43025,73158 L 56763 86878 L 86974 56699 L 78734 48466 C 68660,39322 59510,30178 49435,22857 Z" fill="#FFFFFF" transform="translate(230718,253324)"/>
  <path d="M 357059 314592 L 352483 310023 L 345156 302702 L 326848 284414 C 316774,274352 306706,265208 295720,256982 L 269167 237776 C 274660,224968 277407,210338 277407,196618 C 277407,177413 272831,159125 262763,143577 L 325930 143577 L 336916 143577 L 336916 132604 L 336916 10973 L 336916 0 L 325930 0 L 205082 0 L 194097 0 L 194097 10973 L 194097 94193 C 186769,92364 179447,91453 171208,91453 C 162968,91453 154729,92364 147401,94193 L 147401 10973 L 147401 0 L 137333 0 L 16478 0 L 5493 0 L 5493 10973 L 5493 133522 L 5493 144494 L 16478 144494 L 81487 144494 C 72330,160043 66838,178330 66838,197536 C 66838,209426 68667,221311 72330,232290 C 44860,238687 24724,263379 24724,292646 L 24724 299962 L 10985 299962 L 0 299962 L 0 310934 L 0 318250 C 0,353003 28382,380435 62256,380435 L 69584 380435 L 80570 380435 L 80570 369462 L 80570 355743 L 87892 355743 C 119937,355743 146490,331969 150148,300873 C 157476,302702 164797,303619 173037,303619 C 187686,303619 203253,299962 216986,294475 L 237128 320996 C 243532,330140 248114,335626 257264,344771 L 281071 368551 L 288398 375867 L 292974 380435 L 297549 385011 L 303960 383182 L 318609 378607 L 321356 377695 L 323184 375867 L 353401 345688 L 355230 343859 L 356148 341113 L 360723 326483 L 362552 320079 L 357059 314592 Z M 205082 10973 L 326848 10973 L 326848 133522 L 256353 133522 C 253606,129864 249942,126200 246278,122542 C 241703,117974 237128,114316 231635,110658 L 231635 83220 L 247196 83220 L 247196 118885 L 259099 118885 L 259099 64015 L 274660 64015 L 274660 118885 L 286563 118885 L 286563 45726 L 301213 45726 L 301213 118885 L 314027 118885 L 314027 24692 L 219732 24692 L 219732 102426 C 215150,100597 210575,97850 206000,96939 L 206000 10973 L 205082 10973 Z M 16478 132604 L 16478 10973 L 137333 10973 L 137333 96939 C 132752,98768 128176,100597 123601,103343 L 123601 74076 L 91556 103343 L 61345 75905 L 30217 106083 L 29299 105172 L 29299 118885 L 100712 118885 C 99795,119803 98877,120714 97048,121631 C 93384,125289 90638,128946 87892,132604 L 16478 132604 Z M 69584 368551 L 62256 368551 C 33874,368551 10074,345688 10074,316421 L 10074 309106 L 69584 309106 L 69584 368551 Z M 86980 343859 L 80570 343859 L 80570 299044 L 34792 299044 L 34792 292646 C 34792,267954 52188,246920 75988,241434 C 77823,246003 80570,250578 83316,254235 C 65920,256064 52188,268866 49442,285331 L 84234 285331 L 97966 271612 C 101623,275270 105288,278010 108952,280756 L 94302 295386 L 94302 329223 C 111698,325565 125430,310023 125430,291729 L 125430 290818 C 130005,292646 134587,295386 139162,296304 C 136415,323736 114445,343859 86980,343859 Z M 287481 359407 L 263674 335626 C 254518,326483 250860,321907 244449,312763 L 219732 278927 C 206000,287160 189515,290818 173037,290818 C 171208,290818 170290,290818 168461,290818 C 167544,290818 167544,290818 166626,290818 C 165715,290818 164797,290818 163880,290818 C 162968,290818 162051,290818 161133,290818 C 160222,290818 160222,290818 159304,290818 C 158387,290818 157476,290818 156558,290818 C 155641,290818 155641,290818 154729,290818 C 153812,290818 152894,290818 151983,289900 L 151065 289900 C 145572,288989 140080,287160 135498,284414 C 133669,283503 132752,283503 130923,282585 C 125430,279838 119937,276181 114445,272523 L 113527 271612 C 112616,270694 112616,270694 111698,269783 L 110780 268866 C 108952,267954 108034,266126 106205,265208 C 106205,265208 106205,265208 105288,264297 C 99795,258811 94302,251489 90638,245091 C 87892,240516 86063,235947 84234,230454 C 84234,230454 84234,230454 84234,229543 C 82399,228626 82399,227714 82399,227714 C 82399,226797 82399,226797 81487,225886 C 81487,224968 80570,223139 80570,222228 C 80570,221311 80570,221311 79652,220399 C 79652,219482 79652,218571 78741,218571 C 78741,217653 78741,217653 78741,216742 C 78741,215824 78741,214913 78741,214913 C 78741,213995 78741,213995 78741,213084 C 78741,212166 78741,212166 78741,211255 C 78741,210338 78741,208509 78741,207598 C 78741,206680 78741,206680 78741,205769 C 78741,204851 78741,203934 78741,203934 C 78741,203023 78741,203023 78741,202105 C 78741,201194 78741,200276 78741,200276 C 78741,199365 78741,199365 78741,198447 C 78741,197536 78741,196618 78741,195707 C 78741,194790 78741,193878 78741,192961 C 78741,192050 78741,191132 78741,190221 C 78741,189303 78741,189303 78741,188392 C 78741,187474 78741,186563 78741,185646 C 78741,184734 78741,184734 78741,183817 C 78741,182906 78741,181988 78741,181077 C 78741,180159 78741,180159 78741,179242 C 78741,178330 79652,176502 79652,175584 C 79652,174673 79652,174673 79652,173755 C 79652,172844 79652,171926 80570,171015 C 80570,170098 80570,170098 81487,169186 C 81487,168269 82399,167358 82399,166440 C 82399,165529 82399,164611 82399,164611 C 82399,163700 83316,162783 83316,161871 C 83316,161871 83316,160954 84234,160954 C 85145,160043 85145,159125 86063,157296 C 86063,156385 86063,156385 86980,155467 C 86980,154556 87892,153638 87892,152721 C 87892,151810 88809,151810 88809,150892 C 88809,149981 89727,149063 90638,148152 C 90638,148152 90638,147234 91556,147234 C 92473,146323 93384,144494 93384,143577 L 94302 142666 C 97966,138090 101623,132604 106205,128946 C 107116,128029 108034,127118 108952,126200 C 109869,125289 110780,125289 110780,124371 L 111698 123460 C 112616,122542 113527,121631 114445,120714 C 117191,117974 120855,116145 123601,114316 C 125430,113398 128176,111570 130005,110658 C 130923,109741 131841,109741 133669,108830 C 134587,107912 136415,107912 137333,107001 C 140997,105172 145572,104254 150148,103343 C 150148,103343 150148,103343 151065,103343 C 151983,103343 153812,102426 154729,102426 L 155641 102426 C 156558,102426 157476,102426 159304,101508 C 160222,101508 160222,101508 161133,101508 C 162051,101508 162968,101508 163880,101508 C 164797,101508 165715,101508 166626,101508 C 167544,101508 168461,101508 168461,101508 C 170290,101508 171208,101508 173037,101508 C 174872,101508 175783,101508 177618,101508 C 178530,101508 178530,101508 179447,101508 C 180364,101508 181276,101508 182193,101508 C 183111,101508 184022,101508 184940,101508 C 185857,101508 185857,101508 186769,101508 C 187686,101508 188604,101508 189515,101508 C 190433,101508 190433,101508 191350,101508 C 192261,101508 193179,101508 194097,102426 L 195008 102426 C 198672,103343 203253,104254 206911,106083 C 211493,107912 216068,109741 220643,112487 C 224307,114316 227971,117056 231635,119803 C 231635,119803 231635,119803 232546,120714 C 233464,121631 234382,121631 235293,122542 L 236210 123460 C 237128,124371 237128,124371 238039,125289 C 238957,126200 239875,127118 240786,128029 C 246278,133522 249942,139008 253606,144494 C 253606,145406 254518,145406 254518,146323 C 255435,147234 255435,148152 255435,149063 C 255435,149981 256353,149981 256353,150892 C 256353,151810 257264,152721 257264,152721 C 257264,153638 258182,153638 258182,154556 C 258182,155467 259099,156385 259099,156385 C 259099,157296 260017,157296 260017,158214 C 260017,159125 260928,160043 260928,160043 C 260928,160954 261845,160954 261845,161871 C 261845,162783 262763,163700 262763,163700 C 262763,164611 263674,165529 263674,165529 C 263674,166440 263674,167358 264592,167358 C 264592,168269 264592,169186 265510,169186 C 265510,170098 265510,171015 266421,171015 C 266421,171926 266421,172844 267338,173755 C 267338,174673 267338,175584 267338,175584 C 267338,176502 267338,177413 267338,178330 C 267338,179242 267338,179242 267338,180159 C 267338,181077 267338,181988 267338,182906 C 267338,183817 267338,183817 267338,184734 C 267338,185646 267338,186563 267338,187474 C 267338,188392 267338,188392 267338,189303 C 267338,191132 267338,192050 267338,193878 C 267338,209426 263674,224968 256353,238687 L 288398 262468 C 299384,270694 309452,278927 318609,288989 L 336916 307277 L 287481 359407 Z M 344244 337455 L 314027 367634 L 299384 372209 L 294803 367634 L 304877 357572 L 335087 327394 L 345156 317339 L 349737 321907 L 344244 337455 Z" fill="#FFFFFF"/>
  <path d="M 49441 0 L 39374 10062 L 10074 39322 L 0 49384 L 4582 54870 L 20142 49384 L 49441 20117 L 54934 4575 L 49441 0 Z" fill="#2C5967" transform="translate(294803,317339)"/>
  <path d="M 239868 186557 C 230718,177413 220643,168269 209657,160036 L 177612 137173 C 184940,123454 188597,108823 188597,92364 C 188597,90535 188597,89618 188597,87789 C 188597,86878 188597,86878 188597,85960 C 188597,85049 188597,84131 188597,83220 C 188597,82303 188597,82303 188597,81391 C 188597,80474 188597,79563 188597,78645 C 188597,77734 188597,77734 188597,76816 C 188597,75905 188597,74987 188597,74076 C 188597,73158 188597,72241 188597,72241 C 188597,71330 188597,70412 187686,69501 C 187686,68583 187686,67672 186769,67672 C 186769,66755 186769,65843 185851,65843 C 185851,64926 185851,64015 184940,64015 C 184940,63097 184940,62186 184022,62186 C 184022,61268 183104,60357 183104,60357 C 183104,59439 182193,59439 182193,58528 C 182193,57611 181276,56699 181276,56699 C 181276,55782 180358,55782 180358,54871 C 180358,53953 179447,53042 179447,53042 C 179447,52124 178530,52124 178530,51213 C 178530,50295 177612,49384 177612,49384 C 177612,48466 176701,48466 176701,47549 C 176701,46638 175783,45720 175783,44809 C 175783,43891 174865,43891 174865,42980 C 171208,37494 166626,31090 162051,26521 C 161133,25603 160216,24692 159304,23775 C 158387,22863 158387,22863 157469,21946 L 156558 21028 C 155641,20117 154723,20117 153812,19199 C 153812,19199 153812,19199 152894,18288 C 149230,15542 145572,12802 141908,10973 C 137333,8226 132752,6398 128176,4569 C 124512,2740 120848,1829 116273,911 L 115356 911 C 114445,911 113527,911 112609,0 C 111698,0 111698,0 110780,0 C 109863,0 108952,0 108034,0 C 107116,0 107116,0 106205,0 C 105288,0 104370,0 103459,0 C 102541,0 101623,0 100712,0 C 99795,0 99795,0 98877,0 C 97048,0 96131,0 94302,0 C 92467,0 91556,0 89720,0 C 88809,0 87892,0 87892,0 C 86974,0 86063,0 85145,0 C 84227,0 83316,0 82399,0 C 81481,0 81481,0 80570,0 C 79652,0 78735,0 76906,911 L 75988 911 C 75077,911 73242,1829 72330,1829 C 72330,1829 72330,1829 71413,1829 C 66831,2740 63174,3658 58592,5486 C 57681,6398 55846,6398 54934,7315 C 54017,8226 53100,8226 51271,9144 C 49442,10055 46695,10973 44860,12802 C 41203,14631 38450,16459 35703,19199 C 34792,20117 33874,21028 32957,21946 L 32046 22863 C 31128,23775 30211,23775 30211,24692 C 29299,25603 28382,26521 27464,27432 C 22889,32007 19225,36576 15567,41151 L 14650 42063 C 12821,41151 11903,42063 11903,43891 C 11903,43891 11903,44809 10985,44809 C 10074,45720 10074,46638 9157,47549 C 9157,48466 8239,48466 8239,49384 C 8239,50295 7322,51213 7322,52124 C 7322,53042 7322,53042 6411,53953 C 5493,54871 5493,55782 4575,57611 C 4575,57611 4575,58528 3664,58528 C 3664,59439 2746,60357 2746,61268 C 3664,60357 3664,61268 3664,62186 C 3664,63097 2746,64015 2746,64926 C 2746,65843 2746,65843 1829,66755 C 1829,67672 918,68583 918,69501 C 918,70412 918,70412 918,71330 C 918,72241 0,74076 0,74987 C 0,75905 0,75905 0,76816 C 0,77734 0,78645 0,79563 C 0,80474 0,80474 0,81391 C 0,82303 0,83220 0,84131 C 0,85049 0,85049 0,85960 C 0,86878 0,87789 0,88706 C 0,89618 0,90535 0,91446 C 0,92364 0,93275 0,94193 C 0,95104 0,95104 0,96022 C 0,96933 0,97851 0,97851 C 0,98762 0,98762 0,99679 C 0,100597 0,101508 0,101508 C 0,102426 0,102426 0,103337 C 0,104254 0,106083 0,106994 C 0,107912 0,107912 0,108823 C 0,109741 0,109741 0,110652 C 0,111570 0,112481 0,112481 C 0,113399 0,113399 0,114310 C 0,115227 0,116138 918,116138 C 918,117056 918,117056 1829,117967 C 1829,118885 2746,120714 2746,121625 C 2746,122543 2746,122543 3664,123454 C 3664,123454 3664,124371 4575,125289 C 4575,125289 4575,125289 4575,126200 C 6411,130775 8239,136262 10985,140831 C 14650,148146 20142,154550 25635,160036 C 25635,160036 25635,160036 26553,160954 C 28382,162783 29299,163694 31128,164611 L 32046 165523 C 32957,166440 32957,166440 33874,167351 L 34792 168269 C 40285,171926 44860,175584 51271,178331 C 53100,179242 54017,179242 55846,180159 C 61339,181988 65920,183817 71413,185646 L 72330 185646 C 73242,185646 74159,185646 75077,186557 C 75988,186557 75988,186557 76906,186557 C 77823,186557 78735,186557 79652,186557 C 80570,186557 80570,186557 81481,186557 C 82399,186557 83316,186557 84227,186557 C 85145,186557 86063,186557 86974,186557 C 87892,186557 87892,186557 88809,186557 C 90638,186557 91556,186557 93384,186557 C 109863,186557 126341,181988 140080,174666 L 164797 208509 C 171208,217653 174865,222222 184022,231372 L 207829 255147 L 257264 205763 L 239868 186557 Z M 208740 235030 L 195008 221311 C 186769,213078 184022,208509 176701,200276 L 151977 167351 C 154723,164611 158387,162783 161133,159125 C 164797,155467 167544,151810 170290,148146 L 201418 171009 C 211486,178331 221561,186557 229800,195701 L 238039 203934 L 208740 235030 Z" fill="#2C5967" transform="translate(78741,104261)"/>
  <path d="M 23346 139002 C 38907,154550 59049,162782 81021,162782 C 102998,162782 123140,154550 138702,139002 C 154269,123454 162508,103337 162508,81391 C 162508,59439 154269,39322 138702,23774 C 123140,8226 102998,0 81021,0 C 59049,0 38907,8226 23346,23774 C -7782,55782 -7782,106994 23346,139002 Z" fill="#FFFFFF" transform="translate(91099,115234)"/>
  <path d="M 92467 10055 L 82399 0 L 30211 51213 L 10068 30178 L 0 40240 L 30211 71330 L 92467 10055 Z" fill="#2C5967" transform="translate(124519,147241)"/>
  <path d="M 117191 0 L 48524 68590 L 9157 30178 L 0 39329 L 48524 88713 L 126348 10062 L 117191 0 Z" fill="#2C5967" transform="translate(107116,164611)"/>
</svg>