<svg xmlns="http://www.w3.org/2000/svg" viewBox="0 0 385015 371108" width="40" height="39">
  <path d="M 258919 341764 C 248140,330804 238065,319099 228889,306734 L 204312 272485 C 190195,279517 174602,282909 158881,282351 C 143160,281793 127824,277304 114220,269292 C 100681,261280 89387,250001 81302,236484 C 73216,222967 68660,207641 68018,191905 L 0 191905 L 963 178766 C 2054,163370 7123,148522 15593,135630 C 24127,122737 35742,112230 49409,105105 C 52426,103563 54993,101368 57046,98684 C 59035,96000 60447,92896 61088,89603 C 64168,73811 72703,59588 85087,49364 C 97536,39139 113129,33548 129171,33547 C 131353,33547 133599,33547 135652,33547 L 137962 33547 C 140849,33584 143737,33011 146369,31865 C 149063,30718 151437,29023 153427,26890 C 161448,18368 171137,11584 181917,6960 C 192634,2334 204248,-34 215927,1 C 231776,-55 247305,4332 260781,12661 C 274256,20991 285101,32930 292095,47123 C 293635,50185 295816,52864 298512,54958 C 301207,57051 304351,58505 307687,59210 C 317441,61430 326746,65279 335280,70596 C 353889,82436 367300,100866 372947,122203 C 378594,143540 375898,166212 365567,185686 L 362039 192080 L 256481 192080 C 255968,205320 252631,218300 246727,230180 L 280801 254704 C 293186,263902 304864,273970 315837,284835 L 335087 304013 L 278170 360950 L 258919 341764 Z" fill="#FFFFFF" transform="translate(4748,4376)"/>
  <path d="M 220675 8759 C 235690,8723 250450,12898 263219,20809 C 275988,28720 286255,40050 292929,53516 C 294726,57155 297356,60337 300565,62824 C 303773,65311 307495,67040 311474,67880 C 320778,69907 329697,73553 337718,78654 C 355429,89868 368263,107371 373588,127647 C 378915,147923 376412,169470 366530,187963 L 364284 192079 L 256931 192079 L 256931 192692 C 256931,207842 253144,222753 245893,236048 L 282918 262762 C 295111,271820 306661,281743 317441,292454 L 333547 308570 L 282854 359109 L 266748 342990 C 256096,332261 246214,320787 237166,308660 L 210087 271521 C 196419,278986 181019,282766 165426,282488 C 149833,282211 134625,277888 121150,269940 C 107739,261992 96638,250695 88873,237153 C 81173,223611 77066,208291 77066,192692 L 77066 192254 L 9433 192254 L 10074 183496 C 11165,168847 15914,154716 23999,142450 C 32084,130185 43185,120192 56212,113426 C 59741,111557 62821,108921 65195,105708 C 67634,102495 69238,98788 70008,94857 C 72061,84554 76553,74893 83098,66690 C 89643,58487 98050,51985 107675,47735 C 115952,44153 124936,42305 133919,42305 C 135909,42305 137962,42305 139952,42305 L 142582 42305 C 146047,42460 149513,41895 152785,40643 C 155994,39392 158945,37482 161448,35035 C 168955,26824 178132,20254 188334,15734 C 198537,11213 209574,8840 220675,8759 Z M 220675 0 C 208355,7 196163,2554 184870,7482 C 173576,12410 163437,19612 155031,28641 C 153491,30331 151566,31671 149449,32577 C 147266,33482 145020,33931 142711,33897 L 140849 33897 C 138604,33897 136294,33897 134048,33897 C 116915,33784 100295,39631 87013,50434 C 73729,61236 64681,76322 61281,93106 C 60832,95704 59869,98171 58329,100325 C 56789,102478 54800,104261 52554,105543 C 38052,112989 25796,124017 16812,137573 C 7828,151129 2503,166759 1283,182970 L 706 191729 L 0 200838 L 68660 200838 C 70714,225513 82007,248504 100231,265261 C 118455,282017 142262,291315 167031,291315 C 181019,291294 194815,288309 207585,282556 L 230044 313825 C 239413,326158 249615,337863 260524,348861 L 276630 364974 L 282854 371108 L 289079 364974 L 339771 314261 L 345868 308044 L 339771 301826 L 323922 286148 C 312950,275157 301270,264944 288886,255580 L 257701 233158 C 262321,222940 265144,212008 266042,200838 L 369417 200838 L 371856 196283 L 374166 192167 C 385075,171729 387898,147906 381995,125484 C 376091,103063 361974,83704 342403,71296 C 333483,65636 323602,61575 313334,59297 C 310640,58713 308137,57537 305955,55854 C 303773,54173 302040,52027 300822,49574 C 293378,34651 281956,22097 267839,13335 C 253658,4573 237359,-46 220675,0 Z" fill="#FFFFFF"/>
  <path d="M 328286 70070 C 320201,64969 311345,61323 302041,59297 C 298063,58456 294341,56727 291068,54240 C 287859,51752 285293,48571 283432,44932 C 276823,31447 266556,20089 253786,12147 C 241081,4206 226322,-3 211307,0 C 200206,80 189168,2454 178966,6974 C 168763,11495 159587,18065 152080,26276 C 149320,29095 145983,31241 142262,32548 C 138540,33855 134625,34286 130711,33808 C 114605,32236 98435,36758 85473,46483 C 72511,56208 63655,70434 60640,86361 C 59870,90284 58201,93979 55827,97176 C 53389,100374 50309,102992 46779,104842 C 33688,111608 22652,121600 14566,133866 C 6481,146132 1668,160263 642,174912 L 0 183671 L 55121 183671 C 55185,178392 55570,173122 56404,167904 L 17518 167904 C 19572,157502 23935,147693 30288,139204 C 36641,130714 44789,123760 54159,118856 C 59870,115929 64747,111762 68596,106666 C 72382,101570 75013,95677 76232,89426 C 78606,77515 85280,66890 94970,59586 C 104659,52281 116659,48810 128786,49837 C 135139,50504 141556,49689 147523,47455 C 153491,45221 158881,41629 163245,36962 C 170367,29149 179287,23187 189233,19595 C 199115,16002 209831,14887 220291,16345 C 230750,17803 240696,21791 249231,27963 C 257829,34134 264759,42304 269443,51764 C 272331,57505 276438,62531 281507,66472 C 286576,70413 292416,73169 298704,74537 C 306212,76178 313399,79144 319880,83295 C 333547,91921 343622,105197 348306,120678 C 352991,136160 351900,152806 345291,167554 L 258856 167554 C 259690,172772 260075,178042 260075,183320 L 354787 183320 L 357097 179203 C 366915,160729 369418,139222 364092,118988 C 358702,98752 345932,81281 328286,70070 Z" fill="#2D5967" transform="translate(9368,8751)"/>
  <path d="M 142447 142808 C 135582,149736 127368,155234 118384,158986 C 109337,162737 99712,164669 89958,164669 C 80204,164669 70515,162737 61467,158986 C 52484,155234 44270,149736 37404,142808 C 27458,132937 20592,120410 17512,106723 L 33490 122663 L 71221 84913 L 112417 126167 L 118064 120561 L 209889 28945 L 209889 44623 L 225610 44623 L 225610 829 L 182297 829 L 182297 16595 L 199814 16595 L 112866 103569 L 104525 94811 L 71670 61966 L 33939 99803 L 16421 82286 C 17961,68402 23351,55232 32014,44287 C 40676,33343 52291,25069 65445,20413 C 78600,15758 92845,14911 106449,17969 C 120053,21028 132566,27868 142447,37704 C 145720,40945 148672,44495 151239,48302 L 162596 37003 C 159966,33299 157014,29813 153870,26580 C 142063,14715 127240,6368 110941,2474 C 94707,-1420 77702,-706 61788,4536 C 45939,9777 31821,19338 21106,32148 C 10325,44958 3331,60510 957,77061 C -1482,93612 764,110507 7438,125852 C 14111,141198 24891,154387 38559,163942 C 52291,173496 68398,179038 85081,179946 C 101829,180855 118449,177093 133079,169085 L 159902 206312 C 168949,218433 178831,229907 189483,240642 L 205846 256671 L 256539 205959 L 240433 189842 C 229653,179192 218102,169328 205910,160326 L 168885 133612 C 178382,116151 181911,96061 178896,76417 L 164201 91132 C 164072,110551 156244,129129 142447,142808 Z M 196670 173114 C 208220,181651 219129,190987 229396,201054 L 234273 205959 L 205910 234334 L 201033 229432 C 190895,219248 181527,208359 172927,196850 L 146683 160150 C 149185,158160 151560,156025 153870,153757 C 156180,151392 158298,149027 160351,146575 L 196670 173114 Z" fill="#2D5967" transform="translate(77008,102437)"/>
</svg>