<svg xmlns="http://www.w3.org/2000/svg" viewBox="0 0 385010 348231" width="40" height="37">
  <path d="M 182296 336017 C 125828,307655 91928,263373 89098,214514 L 89098 192281 L 0 192281 L 1007 178740 C 2239,163376 7379,148584 15939,135772 C 24493,122959 36185,112553 49897,105544 C 52804,103939 55307,101685 57213,98956 C 59112,96227 60363,93097 60857,89807 C 63045,78818 67839,68518 74833,59775 C 81834,51032 90830,44104 101065,39576 C 109895,35755 119405,33763 129024,33720 C 131154,33584 133291,33584 135421,33720 L 137616 33720 C 140490,33754 143339,33184 145983,32050 C 148627,30915 151008,29241 152965,27133 C 162353,17042 174038,9384 187032,4814 C 200019,245 213925,-1099 227554,899 C 241177,2897 254113,8176 265247,16283 C 276386,24391 285395,35084 291492,47445 C 292948,50535 295085,53254 297748,55394 C 300404,57534 303517,59039 306847,59796 C 316575,61942 325854,65782 334260,71142 C 352901,82919 366389,101338 372004,122682 C 377612,144026 374936,166707 364502,186151 L 361031 192647 L 286647 192647 L 286647 214606 C 283907,263738 250096,308020 193449,336383 L 187872 339129 L 182296 336017 Z" fill="#FFFFFF" transform="translate(4947,4252)"/>
  <path d="M 220309 9149 C 235293,9088 250000,13239 262744,21133 C 275488,29027 285768,40345 292403,53799 C 294193,57393 296760,60540 299923,63010 C 303087,65480 306764,67209 310678,68072 C 319937,70161 328773,73812 336814,78868 C 354531,89978 367364,107427 372690,127670 C 378023,147911 375449,169426 365503,187839 L 363309 191956 L 287013 191956 L 287013 218490 C 284362,265701 251284,308614 196278,336149 L 192800 337888 L 189239 336149 C 134414,308704 101245,265701 98595,218490 L 98595 192139 L 9869 192139 L 10511 183721 C 11518,169095 16247,154969 24243,142687 C 32238,130404 43237,120373 56199,113545 C 59728,111728 62808,109140 65214,105974 C 67621,102807 69283,99141 70085,95246 C 72087,84977 76540,75345 83066,67172 C 89586,59000 97985,52528 107553,48309 C 115798,44715 124692,42847 133682,42820 L 139714 42820 L 142364 42820 C 145791,42772 149179,42035 152317,40652 C 155461,39269 158291,37268 160639,34768 C 168275,26602 177522,20109 187795,15699 C 198062,11290 209131,9060 220309,9149 Z M 220309 0 C 207970,10 195771,2566 184465,7509 C 173165,12453 163001,19676 154607,28729 C 153074,30363 151219,31661 149159,32542 C 147100,33424 144879,33870 142640,33853 L 140811 33853 C 138527,33716 136242,33716 133958,33853 C 116806,33884 100199,39863 86955,50772 C 73710,61681 64650,76847 61313,93690 C 60793,96261 59702,98681 58117,100772 C 56539,102863 54505,104570 52175,105768 C 37853,113259 25674,124280 16786,137791 C 7899,151301 2592,166857 1373,182990 L 732 191407 L 0 201289 L 89457 201289 L 89457 218215 L 89457 218855 C 92383,269727 127195,315384 185222,344478 L 188694 346217 L 192800 348232 L 196914 346217 L 200385 344478 C 258413,315384 293320,269635 296150,219130 L 296150 201289 L 369251 201289 L 371811 196531 L 373999 192414 C 385094,171887 387930,147892 381937,125339 C 375937,102786 361563,83380 341748,71092 C 332842,65429 323005,61401 312686,59197 C 310126,58635 307713,57526 305615,55948 C 303523,54369 301784,52356 300533,50048 C 293179,35023 281764,22367 267582,13519 C 253395,4671 237019,-13 220309,0 Z" fill="#FFFFFF"/>
  <path d="M 0 45747 C 0,54795 2682,63640 7700,71163 C 12718,78687 19854,84550 28202,88012 C 36550,91475 45739,92381 54601,90615 C 63463,88851 71606,84494 77997,78096 C 84381,71698 88732,63546 90497,54672 C 92261,45798 91357,36600 87898,28241 C 84439,19881 78587,12736 71073,7710 C 63559,2683 54723,0 45688,0 C 33573,0 21952,4820 13379,13399 C 4813,21978 0,33614 0,45747 Z M 75930 45747 C 75930,51723 74159,57564 70842,62532 C 67524,67499 62814,71368 57296,73651 C 51784,75934 45714,76526 39861,75354 C 34009,74181 28638,71296 24423,67064 C 20213,62833 17345,57444 16196,51581 C 15041,45719 15651,39645 17948,34129 C 20245,28614 24121,23905 29094,20598 C 34061,17291 39900,15536 45868,15554 C 49852,15518 53805,16272 57495,17773 C 61185,19274 64541,21493 67370,24300 C 70200,27107 72446,30448 73980,34129 C 75507,37810 76296,41759 76296,45747 L 75930 45747 Z" fill="#2D5967" transform="translate(146195,136327)"/>
  <path d="M 98595 15 L 88816 15 L 86441 3034 C 83624,6698 80005,9665 75866,11707 C 71721,13748 67165,14810 62545,14810 C 57931,14810 53375,13748 49230,11707 C 45091,9665 41472,6698 38655,3034 L 36371 15 L 26136 15 C 21034,68 16016,1311 11480,3646 C 6943,5981 3010,9343 0,13464 C 2284,20408 5352,27069 9138,33319 C 9138,28781 10941,24429 14143,21221 C 17345,18012 21695,16209 26226,16209 L 28876 16209 C 33156,20912 38373,24669 44186,27239 C 50000,29809 56282,31136 62641,31136 C 68994,31136 75282,29809 81096,27239 C 86910,24669 92120,20912 96400,16209 L 98595 16209 C 103138,16209 107489,18009 110710,21215 C 113931,24421 115747,28773 115773,33319 L 115773 34600 C 120027,27994 123460,20897 126008,13464 C 122876,9160 118744,5685 113963,3342 C 109189,998 103914,-144 98595,15 Z" fill="#2D5967" transform="translate(129838,224423)"/>
  <path d="M 327034 69720 C 318968,64654 310100,61003 300809,58923 C 296888,58062 293218,56332 290054,53862 C 286891,51392 284324,48244 282534,44650 C 275892,31196 265619,19878 252875,11985 C 240125,4091 225424,-61 210434,1 C 199359,23 188398,2325 178247,6763 C 168089,11202 158958,17682 151405,25803 C 148710,28677 145386,30884 141690,32250 C 137994,33615 134035,34102 130114,33671 C 119129,32685 108066,34479 97953,38886 C 88392,43105 79992,49577 73466,57750 C 66941,65923 62487,75554 60492,85823 C 59683,89718 58021,93384 55615,96550 C 53215,99717 50135,102304 46599,104122 C 33644,110950 22639,120982 14643,133264 C 6648,145547 1919,159672 911,174299 L 0 182991 L 76938 182991 L 76938 167071 L 17544 167071 C 19584,156703 23928,146929 30255,138472 C 36582,130014 44732,123090 54094,118212 C 59722,115291 64624,111131 68423,106045 C 72215,100958 74814,95078 76020,88842 C 77548,81070 80929,73782 85883,67600 C 90830,61419 97196,56527 104441,53343 C 112077,49972 120438,48587 128748,49317 C 135036,49978 141395,49174 147324,46967 C 153254,44761 158586,41213 162924,36599 C 168994,30061 176348,24843 184523,21270 C 192698,17697 201515,15845 210434,15830 C 222485,15737 234317,19054 244565,25399 C 254819,31745 263065,40860 268372,51695 C 271240,57410 275340,62412 280384,66337 C 285428,70263 291280,73013 297517,74386 C 307206,76536 316299,80825 324121,86938 C 331950,93052 338309,100837 342749,109726 C 347190,118615 349590,128384 349782,138320 C 349968,148257 347940,158110 343847,167162 L 289021 167162 L 289021 182991 L 353530 182991 L 355724 178873 C 365728,160443 368327,138885 362994,118600 C 357662,98316 344796,80832 327034,69720 Z" fill="#2D5967" transform="translate(9869,9149)"/>
  <path d="M 0 40441 L 0 128550 C 2650,175762 35729,218676 90644,246210 L 94206 247949 L 97684 246210 C 152509,218766 185768,175762 188418,128550 L 188418 40441 L 94206 0 L 0 40441 Z M 172793 127818 C 170322,168259 141819,205406 94206,230386 C 46599,205406 18096,168259 15715,127818 L 15715 50780 L 94206 17110 L 172793 50780 L 172793 127818 Z" fill="#2D5967" transform="translate(98588,89945)"/>
</svg>