<svg xmlns="http://www.w3.org/2000/svg" viewBox="0 0 333675 385010" width="35" height="40">
  <path d="M 35928 317749 L 0 40028 L 161352 0 L 323441 40028 L 285684 317749 L 161448 375231 L 35928 317749 Z" fill="#FFFFFF" transform="translate(5031,4754)"/>
  <path d="M 166382 9138 L 323351 48255 L 286506 319854 L 166478 374686 L 45162 319854 L 10151 48255 L 166382 9138 Z M 166382 0 L 164553 545 L 7867 39387 L 0 41305 L 1007 49442 L 36569 320586 L 37211 325610 L 41780 327708 L 163091 383272 L 166934 385011 L 170771 383272 L 290805 327708 L 295374 325610 L 296015 320586 L 332585 49442 L 333676 41395 L 325725 39387 L 168577 545 L 166382 0 Z" fill="#FFFFFF"/>
  <path d="M 156231 0 L 0 39117 L 35011 310716 L 156321 365548 L 276354 310716 L 312924 39573 L 156231 0 Z M 264105 301579 L 156231 350924 L 47446 301579 L 14900 49352 L 156231 14168 L 298204 49352 L 264105 301579 Z" fill="#2D5967" transform="translate(10151,9137)"/>
  <path d="M 71490 0 C 64175,0 0,642 0,22754 C 0,22754 0,23300 0,23576 C 0,23851 0,24127 0,24307 L 0 136531 C 0,157643 59516,158740 71490,158740 C 83464,158740 142884,157643 142884,136531 L 142884 24307 C 142929,24063 142929,23819 142884,23576 C 142929,23306 142929,23024 142884,22754 C 142884,1097 78439,0 71490,0 Z M 71490 145213 C 37205,145213 17094,139092 13533,135524 L 13533 113315 C 32315,118975 51874,121657 71490,121272 C 91075,121651 110601,118969 129357,113315 L 129357 135524 C 125790,139092 105865,145213 71490,145213 Z M 129357 98145 C 125790,101624 105679,107745 71490,107745 C 37301,107745 17094,101624 13533,98145 L 13533 76399 C 32315,82052 51874,84735 71490,84350 C 91075,84728 110601,82046 129357,76399 L 129357 98145 Z M 129357 61595 C 125790,65067 105679,71189 71490,71189 C 37301,71189 17094,65067 13533,61230 L 13533 37648 C 32296,43429 51855,46233 71490,45964 C 91094,46227 110620,43423 129357,37648 L 129357 61595 Z M 128440 23120 C 123050,26778 103575,32258 71490,32258 C 39400,32258 19841,26681 14534,23120 C 19841,19462 39400,13982 71490,13982 C 103575,13982 123050,19373 128440,22754 L 128440 23120 Z" fill="#2D5967" transform="translate(95258,163398)"/>
  <path d="M 46259 45874 L 36660 55012 L 63443 81789 L 90137 55101 L 81000 45964 L 70483 56385 L 70483 54832 C 70342,40330 64515,26469 54261,16215 C 44007,5961 30134,141 15632,0 L 0 0 L 0 12975 L 14900 12975 C 25976,13001 36589,17409 44417,25231 C 52246,33059 56655,43667 56680,54736 L 56680 56289 L 46259 45874 Z" fill="#2D5967" transform="translate(54851,74300)"/>
  <path d="M 74872 0 C 60364,141 46497,5961 36242,16215 C 25988,26469 20162,40330 20021,54832 L 20021 56385 L 9593 45964 L 0 55101 L 26784 81789 L 53478 55012 L 43878 45874 L 33547 56295 L 33547 54736 C 33547,43679 37936,33066 45752,25237 C 53568,17409 64168,13001 75231,12975 L 90317 12975 L 90317 0 L 74872 0 Z" fill="#2D5967" transform="translate(188783,73748)"/>
  <path d="M 30076 25860 L 30076 97870 L 43609 97870 L 43609 25860 L 64085 46330 L 73685 36826 L 36839 0 L 0 36826 L 9510 46330 L 30076 25860 Z" fill="#2D5967" transform="translate(129909,50635)"/>
</svg>