<svg xmlns="http://www.w3.org/2000/svg" viewBox="0 0 367942 385010" width="39" height="40">
  <path d="M 40619 0 L 0 0 L 0 11092 L 40619 11092 L 40619 0 Z" fill="#FFFFFF" transform="translate(162731,149877)"/>
  <path d="M 0 262907 L 114669 262907 L 114669 0 L 0 0 L 0 262907 Z M 79312 236688 C 76809,237958 74114,238940 71355,239620 C 68211,240390 64938,240762 61666,240724 C 56725,241051 51784,240204 47292,238260 C 42736,236316 38693,233332 35549,229539 C 29003,220246 25795,209002 26373,197639 C 26116,189140 27592,180673 30800,172797 C 33367,166881 37731,161915 43249,158588 C 48832,155404 55120,153819 61537,154004 C 64810,153955 68083,154324 71291,155105 C 73408,155516 75462,156226 77387,157213 L 77387 171055 C 75462,170191 73473,169516 71419,169038 C 69109,168558 66735,168313 64425,168305 C 61537,168118 58650,168668 56019,169903 C 53388,171138 51142,173017 49474,175363 C 45559,181973 43763,189617 44340,197272 C 43891,204767 45624,212231 49217,218814 C 50821,221355 53067,223411 55762,224772 C 58393,226126 61409,226729 64425,226517 C 69558,226337 74692,225054 79312,222756 L 79312 236688 Z M 11101 11092 L 103247 11092 L 103247 25943 L 11101 25943 L 11101 11092 Z M 11101 49960 L 22202 49960 L 22202 37035 L 92530 37035 L 92530 49960 L 103247 49960 L 103247 64810 L 92530 64810 L 92530 77736 L 22202 77736 L 22202 64810 L 11101 64810 L 11101 49960 Z M 11101 88828 L 103247 88828 L 103247 103586 L 11101 103586 L 11101 88828 Z M 11101 114770 L 103247 114770 L 103247 129620 L 11101 129620 L 11101 114770 Z" fill="#FFFFFF" transform="translate(125707,98085)"/>
  <path d="M 357097 144655 L 285999 161155 L 264759 165647 L 264759 155838 L 308843 155838 L 311410 150980 L 313142 146672 C 321676,130762 323794,112231 319238,94789 C 314682,77347 303645,62285 288438,52619 C 281507,48274 273871,45171 265914,43452 C 264567,43168 263347,42594 262256,41769 C 261166,40945 260332,39892 259690,38685 C 253979,27030 245060,17221 234087,10380 C 223050,3539 210280,-58 197318,1 C 187821,64 178389,2073 169662,5902 C 160871,9732 153042,15304 146497,22276 C 145791,23091 144893,23736 143930,24164 C 142903,24592 141813,24793 140722,24752 L 139952 24752 L 134433 24752 C 120894,24622 107803,29223 97280,37760 C 86820,46296 79633,58232 77002,71503 C 76810,72779 76296,73984 75462,75019 C 74692,76054 73729,76891 72511,77461 C 61410,83272 51913,91839 44982,102347 C 38116,112856 34010,124958 33047,137505 L 32534 145480 L 31764 155838 L 101771 155838 L 101771 196723 L 0 196723 L 0 385011 L 367942 385011 L 367942 141996 L 357097 144655 Z M 266299 298109 L 266299 283259 L 281122 283259 L 281122 298109 L 266299 298109 Z M 281122 309201 L 281122 323961 L 266299 323961 L 266299 309201 L 281122 309201 Z M 266299 272533 L 266299 257316 L 281122 257316 L 281122 272167 L 266299 272533 Z M 266299 246591 L 266299 231374 L 281122 231374 L 281122 246224 L 266299 246591 Z M 266299 220648 L 266299 205431 L 281122 205431 L 281122 220007 L 266299 220648 Z M 41709 146672 L 42223 138696 C 42415,135924 42801,133168 43314,130446 C 45496,119529 50373,109339 57495,100837 C 62885,94548 69431,89351 76746,85528 C 79120,84294 81173,82564 82777,80459 C 84382,78354 85537,75924 86114,73336 C 87975,63592 92788,54646 99846,47669 C 101194,46289 102669,45003 104209,43819 C 107418,41416 110819,39387 114477,37768 C 116209,37002 118070,36329 119867,35751 L 121600 35751 L 125450 34927 L 127503 34927 L 131353 34927 C 133792,34743 136294,34743 138732,34927 C 136936,34927 135075,34927 133214,34927 L 134176 34927 C 135652,34833 137192,34833 138732,34927 C 139759,35020 140786,35020 141876,34927 L 143289 34927 L 145534 34377 L 146882 34377 C 147652,34122 148422,33751 149064,33277 L 150154 32727 C 151181,31978 152144,31150 153042,30252 C 154390,28785 155930,27318 157534,25943 C 168314,16461 182174,11136 196548,10917 C 210922,10699 224911,15602 235947,24752 C 240183,27787 243904,31328 247241,35293 C 248845,37684 250257,40163 251541,42719 C 252824,45053 254556,47082 256738,48665 C 258856,50247 261294,51346 263925,51885 C 270984,53541 277785,56426 283881,60411 C 297100,68825 306661,81935 310640,97115 C 314682,112295 312757,128424 305378,142271 L 303260 146213 L 266620 146213 L 266620 131362 L 294149 131362 C 298383,121059 298833,109588 295432,98972 C 292031,88357 285036,79278 275604,73336 C 271047,70393 265979,68312 260716,67194 C 255839,66124 251284,63958 247305,60862 C 243391,57765 240247,53818 238065,49319 C 234279,41715 228440,35322 221189,30854 C 214002,26385 205660,24018 197126,24018 C 190837,24014 184677,25306 178902,27814 C 173127,30322 167929,33991 163629,38594 C 160357,42171 156251,44934 151694,46667 C 147139,48400 142197,49057 137385,48585 C 131545,48023 125771,48971 120444,51335 C 115375,53590 110947,57024 107546,61348 C 104146,65673 101771,70759 100745,76178 C 99782,80966 97793,85478 94841,89381 C 91890,93284 88104,96478 83804,98728 C 77452,102026 71933,106647 67570,112279 C 63207,117910 60062,124419 58457,131362 L 99846 131362 L 99846 146672 L 41709 146672 Z M 9176 375847 L 9176 205431 L 99846 205431 L 99846 220007 L 23999 220007 L 23999 360992 L 59100 360992 L 59100 340645 L 73922 340645 L 73922 360992 L 101386 360992 L 101386 375847 L 9176 375847 Z M 35101 298109 L 35101 283259 L 99846 283259 L 99846 298109 L 35101 298109 Z M 99846 309201 L 99846 323961 L 35101 323961 L 35101 309201 L 99846 309201 Z M 35101 272533 L 35101 257316 L 99846 257316 L 99846 272167 L 35101 272533 Z M 35101 246591 L 35101 231374 L 99846 231374 L 99846 246224 L 35101 246591 Z M 238835 375847 L 110626 375847 L 110626 83236 L 255198 83236 L 255198 375847 L 238835 375847 Z M 358766 360992 L 358766 375847 L 266299 375847 L 266299 360992 L 292223 360992 L 292223 340645 L 307047 340645 L 307047 360992 L 343686 360992 L 343686 172156 L 265914 190489 L 265914 175089 L 358381 153547 L 358766 360992 Z M 307047 231374 L 307047 246224 L 292223 246224 L 292223 231374 L 307047 231374 Z M 292223 220007 L 292223 205431 L 307047 205431 L 307047 220007 L 292223 220007 Z M 307047 256674 L 307047 271525 L 292223 271525 L 292223 257316 L 307047 256674 Z M 307047 282617 L 307047 297468 L 292223 297468 L 292223 283259 L 307047 282617 Z M 307047 308559 L 307047 323319 L 292223 323319 L 292223 309201 L 307047 308559 Z M 332842 230732 L 332842 245582 L 318083 245582 L 318083 231374 L 332842 230732 Z M 318083 220007 L 318083 205431 L 332842 205431 L 332842 220007 L 318083 220007 Z M 332842 256674 L 332842 271525 L 318083 271525 L 318083 257316 L 332842 256674 Z M 332842 282617 L 332842 297468 L 318083 297468 L 318083 283259 L 332842 282617 Z M 332842 308559 L 332842 323319 L 318083 323319 L 318083 309201 L 332842 308559 Z" fill="#FFFFFF"/>
  <path d="M 0 0 L 0 292607 L 144315 292607 L 144315 0 L 0 0 Z M 129492 277758 L 14823 277758 L 14823 14851 L 129492 14851 L 129492 277758 Z" fill="#2D5967" transform="translate(110883,83234)"/>
  <path d="M 92467 0 L 0 0 L 0 14850 L 92467 14850 L 92467 0 Z" fill="#2D5967" transform="translate(136808,109177)"/>
  <path d="M 11101 40701 L 81429 40701 L 81429 27776 L 92146 27776 L 92146 12925 L 81429 12925 L 81429 0 L 11101 0 L 11101 12925 L 0 12925 L 0 27776 L 11101 27776 L 11101 40701 Z M 25924 14759 L 66543 14759 L 66543 25943 L 25924 25943 L 25924 14759 Z" fill="#2D5967" transform="translate(136808,135120)"/>
  <path d="M 92467 0 L 0 0 L 0 14851 L 92467 14851 L 92467 0 Z" fill="#2D5967" transform="translate(136808,186912)"/>
  <path d="M 92467 0 L 0 0 L 0 14851 L 92467 14851 L 92467 0 Z" fill="#2D5967" transform="translate(136808,212855)"/>
  <path d="M 22525 64825 C 18932,58241 17263,50776 17648,43282 C 17135,35627 18932,27983 22781,21373 C 24514,19026 26760,17148 29327,15913 C 31958,14678 34845,14128 37733,14315 C 40107,14323 42482,14569 44792,15048 C 46845,15525 48834,16201 50760,17065 L 50760 3223 C 48770,2236 46717,1526 44599,1114 C 41390,334 38182,-35 34909,15 C 28493,-171 22140,1414 16557,4598 C 11167,7982 6996,12943 4494,18806 C 1285,26682 -191,35150 66,43649 C -512,55013 2697,66256 9242,75547 C 12386,79404 16365,82465 20921,84473 C 25413,86482 30418,87380 35359,87098 C 38632,87136 41904,86770 45049,86000 C 47807,85314 50503,84332 53005,83068 L 53005 68765 C 48257,71049 42995,72268 37733,72339 C 34781,72576 31765,71999 29071,70677 C 26440,69355 24130,67331 22525,64825 Z" fill="#2D5967" transform="translate(152013,252077)"/>
  <path d="M 64746 0 L 0 0 L 0 14851 L 64746 14851 L 64746 0 Z" fill="#2D5967" transform="translate(35101,231372)"/>
  <path d="M 64746 0 L 0 0 L 0 14851 L 64746 14851 L 64746 0 Z" fill="#2D5967" transform="translate(35101,257316)"/>
  <path d="M 64746 0 L 0 0 L 0 14850 L 64746 14850 L 64746 0 Z" fill="#2D5967" transform="translate(35101,283259)"/>
  <path d="M 64746 0 L 0 0 L 0 14849 L 64746 14849 L 64746 0 Z" fill="#2D5967" transform="translate(35101,309202)"/>
  <path d="M 14823 0 L 0 0 L 0 14850 L 14823 14850 L 14823 0 Z" fill="#2D5967" transform="translate(266299,205430)"/>
  <path d="M 14823 0 L 0 0 L 0 14851 L 14823 14851 L 14823 0 Z" fill="#2D5967" transform="translate(266299,231372)"/>
  <path d="M 14823 0 L 0 0 L 0 14850 L 14823 14850 L 14823 0 Z" fill="#2D5967" transform="translate(292223,205430)"/>
  <path d="M 14823 0 L 0 0 L 0 14851 L 14823 14851 L 14823 0 Z" fill="#2D5967" transform="translate(292223,231372)"/>
  <path d="M 14823 0 L 0 0 L 0 14851 L 14823 14851 L 14823 0 Z" fill="#2D5967" transform="translate(292223,257316)"/>
  <path d="M 14823 0 L 0 0 L 0 14850 L 14823 14850 L 14823 0 Z" fill="#2D5967" transform="translate(292223,283259)"/>
  <path d="M 14887 0 L 0 0 L 0 14850 L 14887 14850 L 14887 0 Z" fill="#2D5967" transform="translate(318084,205430)"/>
  <path d="M 14887 0 L 0 0 L 0 14851 L 14887 14851 L 14887 0 Z" fill="#2D5967" transform="translate(318084,231372)"/>
  <path d="M 14887 0 L 0 0 L 0 14851 L 14887 14851 L 14887 0 Z" fill="#2D5967" transform="translate(318084,257316)"/>
  <path d="M 14887 0 L 0 0 L 0 14850 L 14887 14850 L 14887 0 Z" fill="#2D5967" transform="translate(318084,283259)"/>
  <path d="M 14823 0 L 0 0 L 0 14849 L 14823 14849 L 14823 0 Z" fill="#2D5967" transform="translate(292223,309202)"/>
  <path d="M 14823 0 L 0 0 L 0 14851 L 14823 14851 L 14823 0 Z" fill="#2D5967" transform="translate(266299,257316)"/>
  <path d="M 14823 0 L 0 0 L 0 14850 L 14823 14850 L 14823 0 Z" fill="#2D5967" transform="translate(266299,283259)"/>
  <path d="M 14823 0 L 0 0 L 0 14849 L 14823 14849 L 14823 0 Z" fill="#2D5967" transform="translate(266299,309202)"/>
  <path d="M 14887 0 L 0 0 L 0 14849 L 14887 14849 L 14887 0 Z" fill="#2D5967" transform="translate(318084,309202)"/>
  <path d="M 0 21451 L 0 36668 L 77708 18701 L 77708 207449 L 40619 207449 L 40619 187095 L 25924 187095 L 25924 207449 L 0 207449 L 0 222297 L 92467 222297 L 92467 214873 L 92467 207449 L 92467 0 L 0 21451 Z" fill="#2D5967" transform="translate(266299,153543)"/>
  <path d="M 64746 155562 L 64746 135214 L 49987 135214 L 49987 155562 L 14822 155562 L 14822 14850 L 90670 14850 L 90670 0 L 0 0 L 0 155562 L 0 162987 L 0 170411 L 92467 170411 L 92467 155562 L 64746 155562 Z" fill="#2D5967" transform="translate(9177,205430)"/>
  <path d="M 16556 122194 C 18160,115250 21304,108741 25667,103110 C 30031,97479 35614,92857 41902,89560 C 46266,87331 50052,84145 53067,80241 C 56020,76337 58073,71815 59035,67009 C 60062,61590 62437,56504 65837,52180 C 69238,47855 73666,44421 78735,42167 C 84061,39802 89836,38855 95675,39417 C 100552,39917 105493,39275 110049,37541 C 114669,35807 118776,33029 122113,29425 C 126412,24822 131610,21152 137385,18645 C 143096,16138 149320,14845 155608,14850 C 164079,14884 172356,17266 179544,21732 C 186794,26199 192570,32574 196356,40150 C 198602,44560 201746,48422 205596,51452 C 209510,54481 214002,56603 218815,57659 C 224205,58868 229338,61075 233894,64168 C 243391,70150 250450,79305 253786,89999 C 257123,100694 256609,112234 252246,122561 L 224782 122561 L 224782 137503 L 261359 137503 L 263476 133561 C 270984,119686 272973,103472 268994,88194 C 265080,72915 255455,59709 242172,51242 C 236076,47447 229466,44719 222472,43175 C 219841,42636 217403,41537 215285,39954 C 213168,38371 211371,36342 210087,34009 C 208740,31290 207200,28657 205532,26125 C 202323,21546 198538,17415 194238,13841 C 183201,4692 169212,-211 154838,7 C 140465,225 126605,5551 115824,15033 C 114220,16408 112680,17875 111333,19342 C 110434,20240 109472,21067 108445,21817 L 107354 22366 C 106712,22841 105942,23212 105172,23466 L 103825 23466 L 101579 24016 L 100167 24016 C 99076,24109 98050,24109 97023,24016 C 94584,23833 92082,23833 89644,24016 L 85793 24016 L 83740 24016 L 79890 24841 L 78157 24841 C 76361,25418 74499,26091 72768,26858 C 69110,28476 65708,30506 62500,32908 C 60960,34093 59484,35379 58137,36758 C 50757,44202 45945,53802 44405,64168 C 43828,66772 42736,69227 41132,71364 C 39592,73502 37539,75268 35228,76543 C 27850,80293 21240,85427 15786,91668 C 8727,100013 3851,110005 1604,120728 C 1091,123450 706,126206 514,128978 L 0 137503 L 58137 137503 L 58137 122194 L 16556 122194 Z" fill="#2D5967" transform="translate(41710,9164)"/>
</svg>