<svg xmlns="http://www.w3.org/2000/svg" viewBox="0 0 289807 385010" width="30" height="40">
  <path d="M 52746 376115 L 52746 361260 L 68275 353829 L 68275 146283 L 0 146283 L 898 132985 C 1733,121253 5518,109926 11935,100073 C 18352,90219 27143,82165 37538,76673 C 39271,75749 40811,74448 42030,72863 C 43249,71278 44084,69448 44468,67501 C 46201,59013 49987,51072 55442,44362 C 60896,37652 67890,32374 75847,28982 C 82649,26031 89964,24501 97407,24489 C 99076,24396 100744,24396 102413,24489 L 103696 24489 C 105428,24521 107097,24186 108701,23506 C 110305,22826 111717,21816 112872,20545 C 118969,14038 126347,8858 134561,5325 C 142775,1792 151630,-20 160550,1 C 172677,-51 184548,3308 194879,9696 C 205210,16085 213488,25246 218878,36136 C 219777,37929 221060,39501 222664,40737 C 224204,41974 226065,42845 227991,43289 C 235498,45076 242620,48181 249037,52461 C 263283,61475 273614,75557 277913,91874 C 282213,108192 280160,125535 272202,140413 L 268866 146742 L 225103 146742 L 225103 353829 L 240182 361260 L 240182 376115 L 52746 376115 Z" fill="#FFFFFF" transform="translate(4941,4583)"/>
  <path d="M 165491 9172 C 176720,9120 187821,12240 197382,18174 C 206943,24109 214707,32620 219648,42738 C 220932,45073 222728,47103 224846,48687 C 226964,50271 229402,51370 232033,51910 C 241402,53968 250128,58174 257572,64197 C 265016,70219 270983,77892 275026,86614 C 279004,95335 280930,104866 280608,114456 C 280288,124046 277785,133434 273229,141880 L 271112 145823 L 225359 145823 L 225359 361352 L 240439 368776 L 240439 376021 L 62243 376021 L 62243 368686 L 77451 361255 L 77451 146740 L 9882 146740 L 10395 138762 C 11101,127676 14631,116955 20662,107648 C 26759,98340 35100,90764 44918,85660 C 47292,84415 49345,82670 50949,80547 C 52554,78425 53709,75976 54286,73370 C 56469,62209 62436,52155 71227,44928 C 79954,37702 90991,33750 102348,33750 C 103825,33657 105365,33657 106905,33750 L 108637 33750 C 111012,33776 113322,33307 115503,32375 C 117620,31443 119610,30069 121150,28339 C 126861,22283 133727,17458 141363,14161 C 148999,10864 157213,9166 165491,9172 Z M 165491 0 C 155930,17 146432,2004 137705,5838 C 128914,9671 121022,15270 114476,22286 C 113770,23076 112808,23703 111846,24128 C 110819,24553 109728,24770 108637,24763 L 107803 24763 L 102348 24763 C 88873,24732 75847,29378 65387,37908 C 54992,46437 47869,58321 45175,71536 C 44982,72813 44469,74018 43699,75054 C 42865,76090 41902,76926 40747,77497 C 29582,83311 20085,91881 13219,102395 C 6288,112909 2182,125017 1283,137569 L 706 145548 L 0 155912 L 68275 155912 L 68275 355570 L 58200 360524 L 53067 363001 L 53067 383265 L 59933 385011 L 61024 385011 L 249680 385011 L 249680 363001 L 244546 360524 L 234600 355570 L 234600 155912 L 276630 155912 L 279197 151051 L 281250 147199 C 289849,131205 292095,112533 287411,94973 C 282790,77413 271625,62279 256288,52643 C 249358,48296 241723,45192 233766,43472 C 232418,43214 231199,42648 230108,41820 C 229081,40991 228183,39924 227605,38703 C 221894,27090 213039,17313 202066,10474 C 191094,3636 178389,8 165491,0 L 165491 0 Z" fill="#FFFFFF"/>
  <path d="M 0 283758 L 15144 276423 L 15144 0 L 154004 0 L 154004 276423 L 169019 283758 L 0 283758 Z" fill="#FFFFFF" transform="translate(66864,87770)"/>
  <path d="M 154068 9171 L 154068 283670 L 24320 283670 L 24320 9171 L 154068 9171 Z M 163181 0 L 15208 0 L 15208 278164 L 0 285595 L 0 292840 L 178324 292840 L 178324 285499 L 163181 278075 L 163181 0 Z" fill="#FFFFFF" transform="translate(62243,83187)"/>
  <path d="M 163181 278164 L 163181 0 L 15208 0 L 15208 278164 L 0 285595 L 0 292840 L 178324 292840 L 178324 285499 L 163181 278164 Z M 30352 14858 L 148294 14858 L 148294 278164 L 30352 278164 L 30352 14858 Z M 41709 25955 L 136551 25955 L 136551 40812 L 41709 40812 L 41709 25955 Z M 125193 51909 L 53067 51909 L 53067 64933 L 41709 64933 L 41709 79790 L 53067 79790 L 53067 92721 L 125193 92721 L 125193 79790 L 136551 79790 L 136551 64933 L 125193 64933 L 125193 51909 Z M 109985 77864 L 68275 77864 L 68275 66767 L 109985 66767 L 109985 77864 Z M 100039 211581 L 121535 254043 L 102478 254043 L 88745 224238 L 75591 254043 L 56725 254043 L 78414 211031 L 57816 170494 L 76810 170494 L 89580 198008 L 101964 170494 L 120252 170494 L 100039 211581 Z M 56725 118585 L 41709 118585 L 41709 103819 L 56725 103819 L 56725 118585 Z M 83291 118585 L 68275 118585 L 68275 103819 L 83483 103819 L 83291 118585 Z M 109856 118585 L 94841 118585 L 94841 103819 L 109985 103819 L 109856 118585 Z M 121278 103727 L 136358 103727 L 136358 118585 L 121471 118585 L 121278 103727 Z M 57174 144539 L 41709 144539 L 41709 129774 L 56725 129774 L 57174 144539 Z M 68532 129682 L 83740 129682 L 83740 144539 L 68275 144539 L 68532 129682 Z M 95098 129682 L 110306 129682 L 110306 144539 L 94841 144539 L 95098 129682 Z M 121728 129682 L 136808 129682 L 136808 144539 L 121471 144539 L 121728 129682 Z" fill="#2D5967" transform="translate(62243,83187)"/>
  <path d="M 263347 133380 L 261229 137324 L 224654 137324 L 224654 122467 L 252117 122467 C 256417,112135 256994,100590 253657,89890 C 250321,79190 243262,70031 233765,64046 C 229274,61112 224204,59030 218943,57901 C 214130,56856 209638,54738 205788,51705 C 201938,48672 198794,44802 196612,40384 C 193339,33747 188463,28012 182430,23670 C 176463,19328 169532,16509 162154,15454 C 154838,14399 147395,15140 140401,17613 C 133406,20086 127117,24218 122112,29653 C 118776,33265 114669,36048 110048,37784 C 105493,39519 100551,40158 95675,39650 C 89900,39087 84060,40035 78735,42402 C 73665,44634 69237,48059 65773,52387 C 62307,56714 59933,61815 58842,67255 C 57880,72046 55890,76560 52939,80465 C 50051,84370 46265,87565 41901,89817 C 35613,93116 30095,97739 25667,103373 C 21304,109007 18224,115520 16555,122467 L 58136 122467 L 58136 137783 L 0 137783 L 577 129804 C 1219,118718 4748,107997 10780,98690 C 16876,89383 25218,81806 35036,76702 C 37410,75457 39463,73713 41067,71590 C 42671,69467 43827,67018 44404,64413 C 45816,56641 49152,49340 54029,43140 C 58970,36941 65259,32028 72510,28828 C 80082,25429 88488,24070 96766,24884 C 99397,25192 102027,24870 104530,23945 C 107032,23020 109215,21519 111011,19565 C 117685,12323 126027,6813 135267,3512 C 144507,210 154453,-784 164143,616 C 173896,2015 183136,5767 191093,11545 C 199051,17323 205467,24955 209830,33781 C 211050,36116 212846,38145 214964,39729 C 217081,41313 219584,42413 222151,42952 C 231519,45011 240246,49217 247690,55239 C 255198,61261 261165,68935 265144,77656 C 269122,86377 271047,95908 270726,105498 C 270406,115089 267903,124476 263347,132922" fill="#2D5967" transform="translate(9882,8951)"/>
</svg>