<svg xmlns="http://www.w3.org/2000/svg" viewBox="0 0 385010 351379" width="40" height="37">
  <path d="M 185678 342998 L 185678 338814 L 185165 342998 L 179453 342998 C 141722,341721 105660,326988 77746,301462 C 49897,275937 32123,241295 27503,203788 L 15246 216253 L 0 201026 L 27503 173920 C 28144,165772 29428,157687 31353,149742 C 21727,144595 14027,136368 9535,126362 C 5044,116357 4017,105144 6648,94499 C 9279,83853 15375,74382 23973,67583 C 32572,60784 43160,57047 54132,56961 C 64399,56990 74410,60269 82752,66331 C 108675,44510 140952,31605 174769,29520 C 178106,29269 181122,29269 184073,29269 L 192929 29269 C 199987,18531 210062,10129 221933,5126 C 233740,122 246830,-1257 259471,1160 C 272048,3578 283727,9685 292839,18709 C 302015,27733 308303,39269 310870,51858 L 319854 42907 L 335126 58216 L 334420 58886 L 332110 61563 L 307790 85908 C 326912,108538 339040,136189 342826,165554 L 357649 150746 L 372857 165973 L 343917 194920 C 343403,203938 342120,212896 340067,221691 C 345778,224959 350783,229340 354761,234572 C 358740,239805 361628,245785 363232,252156 C 364900,258527 365221,265159 364258,271660 C 363232,278161 360986,284399 357521,290001 C 354120,295603 349564,300461 344238,304279 C 338848,308097 332816,310805 326399,312236 C 319982,313666 313309,313795 306828,312614 C 300411,311433 294187,308963 288732,305350 C 273716,318017 256584,327803 238039,334213 L 236435 334720 C 233419,335805 230339,336645 227259,337479 L 225976 337479 L 223858 338063 L 219879 339071 L 214746 340072 L 210575 340906 C 209163,340906 207752,340906 206212,341413 L 200565 342080 C 195174,342581 190426,342831 186063,342831 L 185678 342998 Z" fill="#FFFFFF" transform="translate(5929,4199)"/>
  <path d="M 253144 8366 C 268545,8391 283368,14248 294597,24756 C 305891,35265 312757,49646 313784,65005 L 325783 53041 L 335087 62327 L 307944 89434 C 330019,114286 343237,145730 345547,178868 L 363579 160881 L 372883 170168 L 345804 197274 C 345291,207579 343814,217810 341248,227810 C 346958,230530 352028,234419 356135,239224 C 360242,244029 363257,249642 365054,255700 C 366851,261756 367300,268122 366466,274382 C 365632,280642 363514,286653 360177,292031 C 356905,297408 352477,302028 347279,305596 C 342082,309157 336114,311583 329954,312712 C 323729,313848 317313,313655 311217,312160 C 305057,310665 299346,307893 294341,304024 C 279261,317499 261679,327901 242621,334645 L 241209 335145 C 238193,336153 235177,336987 232162,337828 L 228889 338745 C 224654,339753 220547,340670 215863,341338 L 209639 342095 L 206045 342095 C 201361,342595 196612,342845 191928,342845 L 189233 342845 C 150347,342518 113000,327458 84702,300693 C 56468,273930 39400,237453 36961,198612 L 21176 214508 L 11807 205222 L 36897 180123 C 37603,170500 39207,160970 41838,151678 C 32341,147498 24641,140191 19892,130986 C 15208,121779 13796,111233 15914,101113 C 18096,90993 23614,81917 31635,75404 C 39720,68891 49731,65337 60062,65340 C 70585,65386 80724,69149 88745,75965 C 114412,53500 146753,40120 180763,37899 C 183907,37899 186987,37397 190067,37313 L 191350 37313 C 195072,37313 198794,37313 202387,37899 L 201553 37062 C 207007,28298 214643,21068 223627,16049 C 232675,11030 242813,8386 253144,8366 Z M 253144 0 C 242172,60 231392,2705 221574,7719 C 211820,12734 203414,19977 196933,28863 L 190003 28863 C 186923,28863 183907,28863 180955,29365 L 180185 29365 C 146561,31436 114412,43953 88167,65172 C 79697,59726 69880,56822 59805,56806 C 48126,56794 36768,60609 27464,67668 C 18160,74727 11422,84641 8278,95895 C 5127,107148 5762,119120 10074,129980 C 14374,140839 22138,149989 32148,156029 C 30608,162698 29582,169462 29004,176275 L 5942 199366 L 0 205222 L 5942 211162 L 15208 220448 L 21176 226388 L 27015 220448 L 30608 216851 C 36897,252864 55121,285714 82328,310113 C 109600,334516 144250,349051 180699,351380 L 189104 351380 L 191928 351380 C 196419,351380 201296,351380 206815,350623 L 209382 350623 L 210665 350623 L 212526 350623 L 217081 350039 L 225488 348704 L 231006 347363 L 233252 346779 L 234343 346779 L 243712 343012 L 244803 343012 L 245316 343012 C 263347,336782 280160,327407 294982,315317 C 303003,320053 312180,322543 321484,322517 C 335665,322491 349269,316851 359279,306834 C 369290,296811 374936,283227 375000,269056 C 375000,260195 372754,251472 368583,243682 C 364348,235893 358252,229285 350809,224464 C 352413,216655 353439,208744 353953,200788 L 379043 175689 L 385011 169749 L 379043 163809 L 369803 154523 L 363835 148583 L 357932 154523 L 351964 160546 C 347151,134724 336050,110493 319559,90019 L 341248 68352 L 347215 62412 L 346381 61491 L 341248 55970 L 331686 47101 L 325783 41161 L 319944 47101 L 318981 47938 C 314490,34032 305698,21910 293827,13302 C 282020,4694 267775,39 253144,0 L 253144 0 Z" fill="#FFFFFF"/>
  <path d="M 201938 319681 L 204056 332650 C 196163,333914 188142,334556 180121,334575 L 177425 334575 L 177425 321439 C 185575,321523 193660,320939 201681,319681 L 201938 319681 Z M 70264 288226 C 76489,294579 83162,300399 90349,305628 L 98113 294919 C 91504,290215 85344,284896 79697,279024 L 70264 288226 Z M 101450 312905 C 109086,317480 117107,321375 125385,324539 L 130454 312238 C 122818,309357 115503,305802 108573,301611 L 101450 312905 Z M 141619 316088 L 138026 328716 C 142326,329890 146432,330975 150988,331816 C 155608,332650 159779,333317 164143,333741 L 165554 320689 C 161576,320272 157212,319598 153427,318847 C 149641,318096 145534,317172 141619,316088 Z M 213809 317256 L 217018 329974 C 225616,327933 234022,325136 242107,321606 L 236845 309478 C 229466,312963 221766,315761 213809,317840 L 213809 317256 Z M 57944 249826 L 46779 256268 C 51078,264030 56019,271393 61666,278273 L 71868 269905 C 66735,263615 62179,256898 58200,249826 L 57944 249826 Z M 47292 225815 C 47292,224477 46329,223138 46009,221883 C 45688,220628 45495,220042 45239,219122 C 42415,208861 40747,198306 40298,187666 L 59227 206489 L 68532 196785 L 34266 162567 L 0 196785 L 9368 206071 L 27207 188251 C 27657,198698 29197,209070 31763,219206 C 31763,220210 32341,221130 32597,222134 C 32854,223124 33111,224101 33431,225062 C 33431,226484 34266,227906 34779,229245 C 35293,230583 35228,230751 35485,231504 C 36961,235771 38758,239870 40554,244304 L 52554 238866 C 50501,234181 48768,229998 47292,225815 Z M 3144 102080 C 3144,93137 5775,84391 10780,76949 C 15721,69507 22780,63703 30993,60273 C 39271,56844 48383,55942 57174,57683 C 65901,59423 73986,63728 80274,70051 C 86627,76374 90927,84431 92659,93203 C 94392,101974 93493,111065 90092,119323 C 86627,127582 80852,134636 73409,139594 C 65965,144552 57238,147189 48254,147173 C 36319,147151 24833,142393 16427,133941 C 7957,125489 3208,114032 3144,102080 Z M 16299 102080 C 16299,108424 18159,114630 21689,119913 C 25218,125195 30223,129315 36063,131751 C 41902,134186 48383,134827 54607,133594 C 60832,132360 66543,129307 71034,124820 C 75526,120334 78542,114617 79761,108394 C 81044,102170 80403,95721 77964,89863 C 75526,84004 71355,79000 66093,75486 C 60832,71971 54607,70104 48254,70121 C 39784,70143 31699,73517 25667,79506 C 19699,85494 16299,93610 16299,102080 Z M 94263 71962 C 116850,54107 144443,43726 173190,42261 C 174410,37644 176142,33162 178260,28876 C 144635,29396 112102,40980 85729,61838 C 88937,64865 91761,68264 94135,71962 L 94263 71962 Z M 304351 92458 C 302233,96708 299731,100719 296714,104422 C 309869,124096 317762,146783 319687,170347 L 301912 152444 L 292672 161730 L 326874 195948 L 361075 161730 L 351771 152444 L 333034 171184 C 331109,142785 321227,115504 304543,92458 L 304351 92458 Z M 354723 259781 C 354723,268721 352092,277458 347087,284889 C 342146,292320 335088,298108 326810,301528 C 318532,304942 309484,305834 300693,304082 C 291902,302337 283881,298024 277592,291697 C 271240,285370 266940,277313 265208,268544 C 263476,259775 264374,250689 267839,242435 C 271240,234181 277079,227131 284523,222177 C 291966,217224 300693,214588 309612,214604 C 321612,214627 333034,219396 341505,227866 C 349974,236336 354723,247815 354723,259781 Z M 341568 259781 C 341632,253437 339708,247231 336242,241948 C 332713,236666 327708,232546 321869,230110 C 315965,227675 309548,227034 303324,228268 C 297100,229501 291389,232555 286897,237041 C 282405,241527 279325,247244 278106,253467 C 276887,259691 277528,266140 279966,271999 C 282405,277857 286512,282861 291774,286378 C 297100,289888 303260,291755 309612,291742 C 318083,291717 326232,288341 332200,282354 C 338168,276367 341568,268251 341568,259781 Z M 68853 97143 L 59548 87857 L 44340 103000 L 37025 95721 L 27785 105091 L 44533 121824 L 68853 97143 Z M 249615 225815 C 249615,243384 205210,248069 181725,248069 C 158175,248069 114797,243384 114797,225815 L 114797 122410 C 114797,102331 170560,101326 181725,101326 L 183521 101326 C 187051,106403 191222,110965 196034,114880 C 191606,114880 186794,114880 181725,114880 C 152143,114880 133919,119816 128850,123246 C 134369,126509 152592,131612 181725,131612 C 194045,131742 206430,130705 218622,128516 C 225937,131004 233637,132276 241337,132281 C 244161,132287 246920,132119 249743,131779 L 249615 225815 Z M 236140 190091 C 236075,190559 236075,191046 236140,191514 L 236781 191514 L 236781 169678 C 219071,175109 200590,177679 182045,177292 C 163886,177594 145790,175141 128337,170013 L 128337 191095 C 132572,194358 151181,199462 182045,199462 C 215092,199462 234086,193271 236524,190175 L 236140 190091 Z M 128016 136715 L 128016 155539 C 132251,158719 150860,163905 181725,163905 C 214772,163905 233766,157798 236140,154703 C 236011,155139 236011,155605 236140,156042 L 236781 156042 L 236781 136297 C 219071,141728 200590,144298 182045,143910 C 163886,144250 145790,141824 128337,136715 L 128016 136715 Z M 237102 225146 L 237102 205234 C 219392,210665 200911,213235 182367,212847 C 164207,213151 146111,210696 128658,205569 L 128658 225229 C 131866,228492 150282,235269 182367,235269 C 212590,235269 233380,228911 237102,225146 Z M 318917 242548 L 310575 250913 L 302169 242548 L 292864 251917 L 301271 260284 L 292864 268650 L 302169 277937 L 310575 269570 L 318917 277937 L 328221 268650 L 319816 260284 L 328221 251917 L 318917 242548 Z M 265400 291993 C 259690,296362 253786,300335 247562,303870 L 253914 315331 C 261037,311404 267774,306899 274128,301862 C 270791,299013 267839,295785 265208,292243 L 265400 291993 Z M 190580 29963 L 198537 37827 L 199179 38497 C 203927,29386 211499,22059 220803,17612 C 230043,13163 240503,11833 250578,13820 C 260652,15807 269828,21003 276758,28633 C 283625,36262 287859,45916 288822,56149 L 277272 44604 L 267967 53891 L 295624 81582 L 323280 53891 L 313976 44604 L 302041 56568 C 301142,43753 296201,31551 287923,21712 C 279646,11874 268481,4903 256032,1801 C 243583,-1302 230429,-378 218493,4441 C 206622,9260 196548,17726 189746,28625 L 190836 29628 L 190580 29963 Z M 266107 88861 L 266107 89363 L 252182 89363 L 249166 76061 L 233380 76061 L 230300 89363 L 216761 89363 L 216761 88861 L 234984 25864 L 247946 25864 L 266107 88861 Z M 235947 65101 L 246599 65101 L 241273 41759 L 235947 65101 Z M 159715 67862 L 169020 77148 L 180634 65436 C 181597,78217 186538,90366 194879,100144 C 203157,109922 214322,116828 226771,119873 C 239220,122918 252310,121947 264181,117098 C 276052,112249 286063,103771 292800,92877 L 283432 83590 C 278619,92576 271047,99774 261807,104127 C 252566,108480 242171,109758 232161,107773 C 222151,105788 213039,100645 206173,93100 C 199307,85554 195072,76005 193981,65854 L 205724 77399 L 215092 68113 L 187115 39919 L 159458 67611 L 159715 67862 Z" fill="#2D5967" transform="translate(11807,8438)"/>
</svg>