<svg xmlns="http://www.w3.org/2000/svg" viewBox="0 0 363007 385010" width="38" height="40">
  <path d="M 67832 375845 C 56834,375845 45836,374927 36666,373092 C 33919,372174 31167,372174 29331,371257 C 26585,370345 24750,370345 22914,369428 C 18333,367593 14669,365757 11916,363929 C 3664,359341 0,352924 0,345589 L 0 268590 C 0,261257 3664,254840 11916,250257 C 13751,249340 15580,248423 17415,247507 C 19251,246590 21086,245673 23832,244756 C 28414,242923 33002,242006 38501,241090 C 42165,240173 46753,239256 52252,239256 L 52252 167754 L 0 167754 L 918 155837 C 2746,128337 18333,104503 43083,91669 C 47664,88919 51335,84335 52252,78835 C 55916,59585 68750,43084 87083,34834 C 94417,31167 103587,29334 111833,29334 C 113668,29334 115503,29334 117338,29334 C 118249,29334 118249,29334 119167,29334 C 123755,29334 128337,27501 132001,23833 C 145752,9166 165920,0 186088,0 C 211756,0 235588,12834 249339,35751 L 257591 43084 C 258509,43084 260338,43084 260338,43084 C 263091,43084 265837,43084 268590,44001 L 270425 44001 C 273171,44001 275007,44918 276842,44918 L 278670 45834 C 281423,46751 283259,47667 286005,48584 C 288758,49501 291504,51335 294257,52251 C 297010,54084 298839,55001 300674,56835 L 301592 57752 C 303427,59585 305256,60501 307091,62334 L 308008 63251 C 309844,65085 311672,66918 313508,68751 C 315343,70585 316261,72419 318089,75168 L 319007 76085 L 320842 78835 C 322677,82502 324506,87086 326341,91669 L 352926 118253 L 337340 132920 L 328177 123753 C 328177,124670 327259,128337 327259,128337 C 327259,129253 326341,131086 326341,132003 L 324506 133837 C 323588,134754 323588,136587 322677,137503 L 321760 139337 C 320842,140254 320842,142087 319924,143004 L 319007 144837 C 318089,145753 317172,147587 316261,148504 L 315343 150337 C 314425,151254 313508,153087 312590,154004 L 311672 154921 C 309844,156754 308926,157671 308008,158587 L 307091 159504 C 305256,160421 304338,162254 303427,163171 L 302509 164088 C 300674,165004 299756,165921 298839,166838 L 297921 167754 C 296092,168671 295175,169587 293339,170504 L 291504 171421 C 289676,172338 288758,173255 287840,173255 C 286923,173255 286923,173255 286005,174171 L 283259 170504 L 285087 175088 C 284176,175088 283259,176004 282341,176004 C 281423,176004 281423,176004 280506,176921 L 277760 177838 L 277760 308008 L 286005 308008 L 303427 316258 L 303427 330009 L 138418 330009 L 138418 347425 C 138418,354759 134754,361176 126502,365757 C 122838,368510 117338,370345 111833,372174 C 110922,372174 109086,373092 108169,373092 C 105416,374009 103587,374009 100834,374927 C 89836,374927 79748,375845 67832,375845 Z" fill="#FFFFFF" transform="translate(5493,4584)"/>
  <path d="M 192505 9167 C 217255,9167 239252,22001 252086,43085 L 262173 52252 C 264008,52252 264920,52252 266754,52252 C 269507,52252 271336,52252 274089,53168 C 275007,53168 275007,53168 275924,53168 C 277753,53168 279588,54085 281423,54085 C 282341,54085 282341,54085 283259,54085 C 286923,55001 288758,55001 290587,55918 C 293339,56835 295175,57752 297921,59585 C 299756,60502 301592,62335 303421,63251 L 304338 64168 C 306173,65085 308008,66919 308926,68752 L 309837 69668 C 311672,71502 313508,73336 315343,75169 C 317172,77002 318089,78835 319007,80669 C 319007,80669 319007,80669 319924,81586 C 322671,86169 325424,91669 327259,97170 L 351091 121003 L 341922 130170 L 330005 119170 L 330005 120087 C 330005,121003 330005,122837 330005,123753 C 330005,124670 330005,125587 330005,126504 C 330005,127420 329088,129254 329088,130170 C 329088,131087 329088,132003 328177,132920 C 328177,133837 327259,135671 327259,136587 C 327259,137504 326341,137504 326341,138420 C 325424,139337 325424,141171 324506,142087 C 324506,143004 323588,143004 323588,143921 C 322671,144837 322671,146670 321760,147587 C 321760,148504 320842,148504 320842,149421 C 319924,150338 319007,152171 318089,153087 L 317172 154004 C 316254,154921 315343,155837 314425,157671 L 313508 158588 C 312590,159504 311672,160421 310755,161338 L 309837 162254 C 308926,163171 308008,164088 306173,165005 L 305256 165921 C 304338,166838 303421,167755 301592,168671 C 300674,168671 300674,169588 299756,169588 C 298839,170505 297004,171421 296092,171421 C 295175,171421 295175,172338 294257,172338 C 293339,173255 291504,173255 290587,174172 C 289676,174172 288758,175088 288758,175088 C 287840,175088 286923,176005 285087,176005 C 284170,176005 283259,176921 282341,176921 C 281423,176921 280506,177838 279588,177838 C 278670,177838 277753,177838 277753,177838 L 277753 316259 L 289676 316259 L 303421 322677 L 303421 329094 L 289676 329094 L 138418 329094 L 138418 351091 C 138418,356590 134754,361178 128337,365760 C 124666,368513 120085,370342 114586,371259 C 113668,371259 112750,372177 110915,372177 C 109086,373094 106333,373094 103587,374012 C 94417,374930 84337,375841 73332,375841 C 62333,375841 52252,374930 43083,373094 C 40330,372177 38501,372177 35748,371259 C 33002,370342 31167,370342 29331,369424 C 25667,367595 21997,366678 19251,364842 C 12834,361178 9163,355679 9163,350173 L 9163 273174 C 9163,267674 12834,263091 19251,258507 C 21080,257591 21997,256674 23832,255757 C 25667,254840 27496,253923 29331,253007 C 33002,251174 37583,250257 43083,249340 C 48582,248424 54081,247507 60498,247507 L 60498 166838 L 10998 166838 L 11916 159504 C 13751,133837 28414,110920 51335,99003 C 57752,95336 62333,89836 63251,83419 C 66915,65085 78831,50418 95335,43085 C 102669,40334 110004,38501 118249,38501 C 120085,38501 121920,38501 123749,38501 C 124666,38501 125584,38501 125584,38501 C 132001,38501 137500,35751 142088,31167 C 154922,17417 173255,9167 192505,9167 Z M 192505 0 C 170502,0 149416,9167 134754,24750 C 132001,27501 129254,28418 125584,28418 C 125584,28418 124666,28418 123749,28418 C 121920,28418 120085,28418 117332,28418 C 108169,28418 98999,30251 90753,33918 C 72414,43085 58669,60502 54081,81586 C 53164,85252 50417,88919 46747,90753 C 21080,104503 4582,130170 1829,158588 L 918 165921 L 0 176005 L 10081 176005 L 50417 176005 L 50417 239256 C 46747,239256 44000,240173 40330,241090 C 34830,242007 30249,243840 25667,244757 C 22914,245673 21080,246590 19251,247507 C 17415,248424 15580,249340 13751,250257 C 2746,257591 0,266757 0,272258 L 0 349262 C 0,355679 2746,363925 14663,371259 C 18333,373094 21997,375841 26585,376758 C 28414,377676 31167,378594 33913,378594 C 36666,379511 39419,379511 42165,380429 C 51335,384093 62333,385011 73332,385011 C 85248,385011 95335,384093 105416,382258 C 108169,381347 110915,381347 113668,380429 C 114586,380429 116421,379511 117332,379511 C 123749,377676 128337,374930 132918,372177 C 144834,364842 146670,355679 146670,350173 L 146670 337340 L 288758 337340 L 302509 337340 L 311672 337340 L 311672 328177 L 311672 321760 L 311672 316259 L 306173 313508 L 293339 306175 L 291504 305258 L 289676 305258 L 286923 305258 L 286923 183338 C 287840,183338 287840,183338 288758,183338 C 289676,183338 290587,182422 292422,182422 L 293339 182422 L 294257 182422 C 295175,182422 295175,182422 296092,181505 C 297004,180589 298839,180589 299756,179672 L 300674 179672 C 301592,179672 301592,178755 302509,178755 C 303421,177838 305256,176921 306173,176005 L 307091 176005 L 308008 175088 C 308926,174172 310755,173255 311672,172338 L 312590 171421 C 313508,170505 315343,169588 316254,168671 C 317172,167755 317172,167755 317172,167755 C 318089,166838 319924,165921 320842,164088 L 321760 163171 C 322671,162254 323588,160421 324506,159504 L 325424 157671 C 326341,156754 327259,154921 328177,154004 C 328177,153087 329088,153087 329088,152171 C 330005,151254 330923,149421 330923,148504 C 330923,147587 331841,147587 331841,146670 C 332758,145754 332758,143921 333676,143004 C 333676,142087 334593,141171 334593,140254 L 334593 139337 L 341010 145754 L 347427 139337 L 356590 130170 L 363007 123753 L 356590 117336 L 333676 94419 C 332758,90753 330923,88002 330005,85252 L 326341 78835 L 325424 77919 C 324506,76085 322671,74252 320842,71502 C 319007,69668 317172,66919 315343,65085 L 314425 64168 C 312590,62335 310755,60502 308926,59585 L 308008 58669 C 305256,56835 303421,55918 301592,54085 C 298839,52252 296092,51335 293339,50418 C 291504,49501 288758,48584 286005,47668 C 285087,47668 285087,47668 284170,46751 C 281423,45835 279588,45835 277753,45835 L 276842 45835 C 275924,45835 275924,45835 275007,45835 C 272254,45835 269507,44918 266754,44918 L 265837 44918 L 264920 44918 L 259420 36668 C 244758,13751 220002,0 192505,0 Z" fill="#FFFFFF"/>
  <path d="M 230089 37584 C 231006,36668 231006,36668 231924,36668 L 232842 36668 C 233759,36668 234677,35751 234677,35751 L 235588 35751 C 236506,35751 236506,35751 237423,34834 L 238341 34834 L 239258 34834 C 229171,12834 206257,0 181507,0 C 162256,0 143923,8250 130172,22001 C 125590,26584 119173,29334 111839,28418 C 102669,27501 92588,29334 84337,33001 C 67839,41251 55916,55918 52252,74252 C 51335,80669 46753,87086 40336,89836 C 17415,101753 2753,124670 918,150338 L 0 157671 L 39419 157671 L 39419 143921 L 14669 143921 C 18333,125587 29338,110003 45836,101753 C 55916,96253 62333,87086 65086,76085 C 67839,63251 77002,51335 89836,45835 C 96253,43085 103587,42168 110922,42168 C 121920,43085 132918,39418 140253,31167 C 151258,20168 165920,12834 181507,12834 C 200757,12834 217255,22001 227342,37584 C 228260,37584 228260,37584 230089,37584 C 229171,37584 229171,37584 230089,37584 Z" fill="#2D5967" transform="translate(11005,9171)"/>
  <path d="M 27502 138632 L 27502 37796 C 56834,22212 87083,14878 117338,13962 L 125584 5712 L 131083 212 C 90753,-1622 50417,8462 11916,30462 L 15580 35962 L 11916 30462 L 0 36879 L 3664 42379 L 13751 41463 L 13751 137715 C 18333,138632 21997,138632 27502,138632 C 27502,138632 26585,138632 27502,138632 Z" fill="#2D5967" transform="translate(46747,97872)"/>
  <path d="M 189753 0 C 188835,0 187924,0 187006,0 L 186088 0 C 185171,0 185171,0 184253,0 C 183336,0 182418,0 181507,0 C 181507,0 181507,0 180589,0 C 179672,0 178754,0 177836,0 L 177836 127420 L 164085 127420 L 164085 19251 L 89836 19251 L 89836 128337 L 76084 128337 L 76084 19251 L 0 19251 L 0 50418 C 4582,50418 9164,51335 13751,52251 L 13751 33001 L 61416 33001 L 61416 56835 L 33919 56835 C 38501,58668 42165,60502 45836,62335 C 50417,65085 53170,67835 55916,70585 L 62333 70585 L 62333 92586 L 62333 106336 L 62333 128337 L 62333 142088 L 203504 142088 L 217255 142088 L 217255 135671 L 203504 129253 L 191588 129253 L 189753 0 Z M 149423 91669 L 101752 91669 L 101752 69668 L 149423 69668 L 149423 91669 Z M 149423 33001 L 149423 56835 L 101752 56835 L 101752 33001 L 149423 33001 Z M 101752 105420 L 149423 105420 L 149423 127420 L 101752 127420 L 101752 105420 Z" fill="#2D5967" transform="translate(88000,187000)"/>
  <path d="M 74250 0 L 0 0 L 0 51335 L 74250 51335 L 74250 0 Z M 60498 37584 L 12834 37584 L 12834 13750 L 60498 13750 L 60498 37584 Z" fill="#2D5967" transform="translate(88000,141173)"/>
  <path d="M 0 50418 L 74256 50418 L 74256 43084 C 67839,41251 62334,39417 56834,36667 L 12834 36667 L 12834 12834 L 30249 12834 L 29338 11917 C 29338,11917 29338,11000 28420,11000 L 25667 3667 C 24750,2750 24750,916 23832,0 L 0 0 L 0 50418 Z" fill="#2D5967" transform="translate(176001,142092)"/>
  <path d="M 33002 0 L 19251 0 L 0 65085 L 13751 65085 L 16504 51335 L 33919 51335 L 36672 65085 L 52252 65085 L 33002 0 Z M 26585 15583 L 32084 40334 L 21086 40334 L 26585 15583 Z" fill="#2D5967" transform="translate(241087,78832)"/>
  <path d="M 116421 25667 L 128337 37584 L 137507 28417 L 109086 0 L 80673 28417 L 89836 37584 L 101752 25667 C 99006,50418 77920,70585 53170,70585 C 34837,70585 18333,60501 10087,44918 L 0 55001 C 10998,73335 31167,84335 53170,84335 C 87090,83419 114586,57752 116421,25667 Z" fill="#2D5967" transform="translate(213578,93505)"/>
  <path d="M 0 55001 L 28414 83419 L 56834 55001 L 47665 45834 L 34831 57752 C 37583,33001 58669,12834 83419,12834 C 101752,12834 118250,22917 126502,38501 L 137500 29334 C 126502,11000 106334,0 84337,0 C 51335,0 23832,25667 21997,58668 L 9164 45834 L 0 55001 Z" fill="#2D5967" transform="translate(183335,52253)"/>
  <path d="M 128337 25667 L 128337 24751 C 128337,23834 128337,23834 128337,22918 C 128337,22001 127419,20168 126502,19251 C 126502,18334 125584,18334 125584,17417 C 123755,14667 121002,12834 118256,11000 C 116421,10084 115503,9167 113668,8250 C 112750,8250 111839,7334 110922,7334 C 107251,5501 102669,4584 98088,3667 C 97170,3667 95335,2750 94417,2750 C 85254,917 75167,0 64168,0 C 53170,0 43083,917 33919,2750 C 28420,3667 23832,4584 20168,6417 C 18333,7334 16498,8250 14669,8250 C 12834,9167 10998,10084 10081,11000 C 3664,14667 0,20168 0,25667 L 0 102671 C 0,108171 3664,112752 10081,117334 C 12834,119169 16498,121004 20168,121922 C 22003,122840 24750,122840 26585,123751 C 28420,124668 31167,124668 33919,125586 C 42165,128339 52252,129256 63251,129256 C 74249,129256 84337,128339 93500,126504 C 96253,125586 98088,125586 100834,124668 C 101752,124668 102669,123751 104505,123751 C 110004,121922 114586,120087 118256,118252 C 124673,114588 128337,109088 128337,103589 L 128337 25667 Z M 12834 25667 C 12834,24751 14669,23834 16498,22001 C 19251,21084 22003,19251 26585,18334 C 31167,16501 36666,15584 43083,14667 C 49499,13751 56834,12834 65086,12834 C 73338,12834 80666,13751 87083,14667 C 93500,15584 98088,16501 103587,18334 C 107251,19251 110922,21084 113668,22918 C 115503,23834 117338,25667 117338,26584 C 117338,27501 116421,28418 113668,30251 C 110922,32084 108169,33001 103587,34834 C 99006,36668 93500,37585 87083,38501 C 79755,39418 72421,40334 65086,40334 C 56834,40334 49499,39418 43083,38501 C 36666,37585 32084,36668 26585,34834 C 22914,33918 19251,32084 16498,30251 C 13751,28418 12834,26584 12834,25667 Z M 10998 42168 C 17415,44918 24750,47668 34837,49501 C 44000,51335 53170,52252 63251,52252 L 69668 52252 L 75167 52252 L 83419 51335 C 86172,51335 88001,50418 90753,50418 L 99006 48585 L 101752 47668 C 102669,47668 104505,46751 105422,46751 L 110004 44918 L 113668 43085 L 114586 43085 L 116421 42168 L 116421 65085 C 116421,66002 115503,66919 112750,68752 C 110004,70585 107251,71502 102669,73336 C 98088,75169 92589,76086 86172,77004 C 78837,77922 71503,78833 64168,78833 C 55916,78833 48582,77922 42165,77004 C 35748,76086 31167,75169 25667,73336 C 22003,72419 18333,70585 15587,68752 C 13751,67836 11916,66002 11916,65085 L 10998 42168 Z M 101752 110917 C 97170,112752 91671,113670 85254,114588 C 77920,115505 70585,116423 63251,116423 C 54999,116423 47671,115505 41254,114588 C 34837,113670 30249,112752 24750,110917 C 21086,110006 17415,108171 14669,106335 C 12834,105418 10998,103589 10998,102671 L 10998 80668 C 17415,83421 24750,86167 34837,88003 C 44000,89838 53170,90755 63251,90755 L 69668 90755 C 78837,90755 87083,89838 95335,88920 C 103587,87085 110004,85250 115503,82503 L 115503 103589 C 115503,104500 114586,105418 111839,107253 C 109086,108171 105422,109088 101752,110917 Z" fill="#2D5967" transform="translate(10087,246584)"/>
</svg>