<svg xmlns="http://www.w3.org/2000/svg" viewBox="0 0 365555 385010" width="38" height="40">
  <path d="M 0 166838 L 0 137500 C 0,114586 18352,95335 41261,95335 L 52233 95335 L 52233 88001 C 44918,80666 41261,70585 41261,59580 L 41261 33913 C 41261,12834 53196,0 72446,0 L 125577 0 L 125577 58669 C 125577,68750 121920,79748 114605,87083 L 114605 95335 L 124680 95335 C 135652,95335 145790,99917 154004,107251 C 162282,115503 165939,125584 165939,137500 L 165939 166838 L 0 166838 Z" fill="#FFFFFF" transform="translate(87975,213591)"/>
  <path d="M 125577 9170 L 125577 14669 L 125577 62340 C 125577,72420 121022,82501 114605,88918 L 114605 103587 L 129235 103587 C 149448,103587 165939,120091 165939,141170 L 165939 166838 L 118262 166838 L 44019 166838 L 8277 166838 L 8277 142088 C 8277,121002 24769,104505 44918,104505 L 60510 104505 L 60510 90753 C 53195,84336 49474,74256 49474,64168 L 49474 44000 L 49474 38501 C 49474,20168 59612,9170 76104,9170 L 125577 9170 Z M 134754 0 L 125577 0 L 77002 0 C 54992,0 41260,14669 41260,38501 L 41260 44000 L 41260 64168 C 41260,75173 44918,86172 52232,94424 L 52232 95335 L 45816 95335 C 20148,95335 0,116421 0,142088 L 0 166838 L 0 176007 L 9176 176007 L 44019 176007 L 118262 176007 L 165939 176007 L 175115 176007 L 175115 166838 L 175115 142088 C 175115,129254 170495,117338 161319,109086 C 153106,99923 141171,95335 129235,95335 L 123780 95335 L 123780 93506 C 131096,85254 134754,74256 134754,63251 L 134754 15586 L 134754 10087 L 134754 0 Z" fill="#FFFFFF" transform="translate(84318,209003)"/>
  <path d="M 281443 250257 C 263091,250257 231969,247511 231969,231006 L 231969 187006 L 197125 187006 L 198024 176008 C 198922,161339 207200,149423 220034,143006 C 220931,142088 221894,141171 221894,140253 C 223691,130172 231006,121003 241145,117338 C 242942,116421 243840,116421 245701,115503 C 238386,108169 230108,100841 220931,94424 L 220931 129254 C 220931,136589 215477,142088 208098,142088 L 125641 142088 C 118262,142088 112808,136589 112808,129254 L 112808 93506 C 111845,93506 111845,94424 110947,94424 C 92595,105422 77965,121003 68788,140253 L 66927 142088 C 88039,144841 99011,151258 99011,161339 L 99011 231006 C 99011,247511 71548,250257 49538,250257 C 31186,250257 0,247511 0,231006 L 0 160421 C 0,143923 27529,141171 45881,140253 L 47677 134754 C 59613,108169 79761,86172 106391,72421 L 112808 69668 L 112808 25667 C 112808,18333 118262,12834 125641,12834 L 141171 12834 C 142133,10087 144892,8252 147587,8252 L 154004 8252 C 155865,3671 160421,0 165939,0 C 171458,0 176014,3671 177875,8252 L 184292 8252 C 187051,8252 189810,10087 190708,12834 L 206302 12834 C 213617,12834 219135,18333 219135,25667 L 219135 70585 C 223691,72421 223691,73338 223691,73338 C 240182,81590 253978,93506 264952,107257 C 271369,102669 278683,100841 286961,100841 C 301592,100841 315388,109086 321805,121920 C 322703,122838 323601,123755 324564,123755 C 329120,124673 332777,126508 337397,129254 C 354787,140253 361204,163174 351129,181507 L 348371 187006 L 331879 187006 L 331879 231006 C 331879,247511 300693,250257 281443,250257 Z" fill="#FFFFFF" transform="translate(5455,4581)"/>
  <path d="M 171394 9170 C 176014,9170 179672,12834 179672,17415 L 190644 17415 C 192505,17415 193404,18333 193404,20168 L 193404 22003 L 212654 22003 C 217210,22003 220931,25667 220931,30249 L 220931 77920 C 227348,81584 228247,81584 228247,81584 C 244738,90753 259432,102669 271304,118256 C 277720,112750 285998,110004 294212,110004 C 307046,110004 318981,117338 324499,129254 C 325398,131090 327259,132918 330018,133836 C 333676,134754 337333,136589 340991,138418 C 356584,148505 362102,168673 352926,184253 L 351065 187006 L 332713 187006 L 332713 188841 L 332713 189753 L 332713 212673 L 332713 213591 L 332713 236506 C 332713,250257 297934,251174 287795,251174 C 277720,251174 242877,250257 242877,236506 L 242877 213591 L 242877 212673 L 242877 189753 L 242877 188841 L 242877 187924 L 208098 187924 L 208098 181507 C 208996,168673 216312,157668 227348,152169 C 229145,151251 231006,149423 231905,146670 C 233765,137506 240182,130172 248396,126502 C 252053,124673 255711,123755 259432,123755 C 259432,123755 259432,123755 260331,123755 C 251155,112750 241080,103587 228247,95335 C 224589,93500 222728,91671 220931,91671 L 220931 134754 C 220931,139335 217210,143006 212654,143006 L 130133 143006 C 125577,143006 121920,139335 121920,134754 L 121920 89836 C 120059,90753 118262,91671 113642,94417 C 94392,105422 78798,122838 69623,142088 C 69623,142088 66927,147587 65965,149423 C 80659,150340 99910,154004 99910,164085 L 99910 186088 L 99910 187006 L 99910 209921 L 99910 210838 L 99910 233759 C 99910,247504 65067,248422 54992,248422 C 43955,248422 10074,247504 10074,233759 L 10074 210838 L 10074 209921 L 10074 187006 L 10074 186088 L 10074 165003 C 10074,151251 43057,149423 54992,149423 C 55890,147587 58650,142088 58650,141171 C 70585,115503 89836,94417 114540,80666 C 114540,80666 114540,80666 122818,76084 L 122818 30249 C 122818,25667 126476,22003 131096,22003 L 150346 22003 L 150346 20168 C 150346,18333 151245,17415 153042,17415 L 163180 17415 C 163180,12834 166838,9170 171394,9170 Z M 171394 0 C 164977,0 159458,3664 156763,8252 L 153042 8252 C 149383,8252 145726,10081 143929,12834 L 131096 12834 C 120957,12834 113642,21086 113642,30249 L 113642 72421 C 109086,73338 109086,73338 109086,73338 C 82456,87083 60510,110004 48575,138418 C 48575,138418 47677,139335 47677,141171 C 16491,142088 0,150340 0,165003 L 0 187006 L 0 187924 L 0 210838 L 0 211756 L 0 234670 C 0,254838 29325,258509 54094,258509 C 89836,258509 108124,250257 108124,234670 L 108124 211756 L 108124 210838 L 108124 187924 L 108124 187006 L 108124 165003 C 108124,153087 98049,145752 78798,142088 C 87076,127419 98049,114586 111845,105422 L 111845 132918 C 111845,143006 120059,150340 129235,150340 L 210793 150340 C 203478,157668 197959,167756 197959,179672 L 197959 186088 L 197061 196169 L 207135 196169 L 232802 196169 L 232802 211756 L 232802 212673 L 232802 235588 C 232802,255756 262128,259427 286897,259427 C 311666,259427 340991,254838 340991,235588 L 340991 212673 L 340991 211756 L 340991 196169 L 350167 196169 L 355685 196169 L 358380 191588 L 360242 188841 C 371214,168673 364797,143006 344648,130172 C 340093,127419 335472,125584 330916,124673 C 323601,110004 308907,100834 292415,100834 C 285100,100834 277720,102669 271304,106334 C 260331,93500 246599,82501 231006,74249 C 231006,74249 231006,74249 229145,73338 L 229145 30249 C 229145,20168 220931,12834 211756,12834 L 198922 12834 C 197061,10081 193404,8252 189746,8252 L 186088 8252 C 183329,3664 177810,0 171394,0 Z M 230044 127419 L 230044 107251 C 234664,110922 238322,113668 241979,117338 C 237423,119167 233765,122838 230044,127419 Z" fill="#FFFFFF"/>
  <path d="M 120059 94417 L 105429 94417 L 105429 79755 C 111846,72421 116402,63251 116402,53170 L 116402 5499 L 116402 0 L 67826 0 C 51335,0 41261,10998 41261,29331 L 41261 34837 L 41261 54999 C 41261,65086 44918,74249 52233,81584 L 52233 95335 L 36640 95335 C 16492,95335 0,111839 0,132918 L 0 156757 L 10973 156757 L 10973 132001 C 10973,117338 22909,105422 36640,105422 L 54993 105422 L 78799 131090 L 102669 105422 L 120059 105422 C 133855,105422 145726,117338 145726,132001 L 145726 156757 L 156764 156757 L 156764 132001 C 156764,110922 140272,94417 120059,94417 Z M 67826 10081 L 105429 10081 C 103568,22914 95354,22914 92595,22914 L 53132 22914 C 54094,14669 59548,10081 67826,10081 Z M 92595 33919 C 97151,33919 101771,33002 105429,30249 L 105429 53170 C 105429,66921 94392,79755 80660,80666 C 73345,81584 65965,78837 60511,73338 C 54993,68750 52233,61415 52233,54088 L 52233 33919 L 92595 33919 Z M 78799 114586 L 63270 98088 L 63270 88001 C 67826,89836 73345,90753 78799,90753 C 79762,90753 80660,90753 81558,90753 C 86179,90753 90734,88918 94392,87083 L 94392 97170 L 78799 114586 Z" fill="#2C5967" transform="translate(93493,219090)"/>
  <path d="M 23870 32084 C 26566,31173 30287,31173 32983,32084 C 33945,31173 34844,30255 35741,29338 C 25667,17422 13732,7334 0,0 L 0 12834 C 9176,18339 16491,24756 23870,32084 Z" fill="#2C5967" transform="translate(229146,82501)"/>
  <path d="M 0 61422 C 2759,61422 6417,61422 11935,62340 C 22009,42172 37603,24750 56853,13751 L 56853 0 C 32084,13751 11037,34837 0,61422 Z" fill="#2C5967" transform="translate(56789,81583)"/>
  <path d="M 144829 74249 C 154004,57752 148486,37583 132893,28420 C 129235,26585 125578,24750 121920,23832 C 119161,22915 117300,22003 116402,19251 C 110883,7334 98948,0 86114,0 C 77002,0 67826,3664 61410,10998 C 59548,12834 57752,13751 54993,13751 C 50372,12834 44918,13751 40298,15586 C 32084,19251 25667,26585 23807,35748 C 22909,38501 21946,40336 19251,41254 C 8214,46753 898,58669 0,70585 L 0 77002 L 25667 77002 L 25667 71503 L 25667 66004 L 11871 66004 C 13732,59587 18288,54087 24705,51335 C 26566,50417 27464,49499 29325,48582 C 30224,46753 31122,45836 32983,44918 C 33881,43083 34780,41254 35742,38501 C 36641,33002 40298,28420 45816,26585 C 48576,25667 51335,24750 54030,24750 C 59548,25667 65067,22915 69623,19251 C 74243,14669 79697,11916 87077,11916 C 96253,11916 103568,16498 108124,24750 C 110883,30249 115503,33919 120957,34837 C 123717,35748 126476,36666 128337,37583 C 137449,44000 142069,55916 137449,66004 L 133791 66004 L 133791 67833 L 133791 71503 L 133791 77002 L 143866 77002 L 144829 74249 Z" fill="#2C5967" transform="translate(208098,109086)"/>
  <path d="M 44918 0 C 33945,0 0,918 0,15580 L 0 37584 L 0 38501 L 0 61416 L 0 62333 L 0 85248 C 0,98999 34844,99917 44918,99917 C 54992,99917 89836,98999 89836,85248 L 89836 62333 L 89836 61416 L 89836 38501 L 89836 37584 L 89836 14663 C 90734,918 55955,0 44918,0 Z M 79762 83419 C 77002,85248 65067,88918 45816,88918 C 26566,88918 14695,86165 11935,83419 L 11935 72414 C 22908,76085 39400,77002 45816,77002 C 52233,77002 68788,77002 79762,72414 L 79762 83419 Z M 44918 65997 C 25667,65997 13732,63251 11037,60498 L 11037 49500 C 22010,53164 38501,54081 44918,54081 C 51335,54081 67826,54081 78863,49500 L 78863 60498 C 76104,62333 64168,65997 44918,65997 Z M 79762 36666 C 77002,38501 65067,42165 45816,42165 C 26566,42165 14695,39419 11935,36666 L 11935 25667 C 22908,29331 39400,30249 45816,30249 C 52233,30249 68788,30249 79762,25667 L 79762 36666 Z M 44918 10999 C 60511,10999 71484,12834 77002,15580 C 72446,17415 61409,20168 44918,20168 C 28427,20168 18352,18333 12834,15580 C 18352,12834 29325,10999 44918,10999 Z" fill="#2C5967" transform="translate(241979,150340)"/>
  <path d="M 44918 0 C 34780,0 0,918 0,14663 L 0 36666 L 0 37584 L 0 60498 L 0 61416 L 0 84337 C 0,98081 34780,98999 44918,98999 C 54993,98999 89836,98081 89836,84337 L 89836 61416 L 89836 60498 L 89836 37584 L 89836 36666 L 89836 14663 C 90734,918 55891,0 44918,0 Z M 44918 10999 C 60447,10999 71484,12834 77002,15580 C 72382,17415 61410,20168 44918,20168 C 28363,20168 18288,16498 13732,14663 C 18288,12834 29325,10999 44918,10999 Z M 44918 65997 C 25667,65997 13732,63251 10973,60498 L 10973 49500 C 21946,53164 38501,54081 44918,54081 C 51335,54081 67826,54081 78799,49500 L 78799 60498 C 76039,62333 64168,65997 44918,65997 Z M 79697 36666 C 76039,39419 64168,42165 44918,42165 C 25667,42165 13732,39419 10973,36666 L 10973 25667 C 21946,29331 38501,30249 44918,30249 C 51335,30249 67826,30249 78799,25667 L 78799 36666 L 79697 36666 Z M 10973 72414 C 21946,76085 38501,77002 44918,77002 C 51335,77002 67826,77002 78799,72414 L 78799 83419 C 76039,85248 64168,88918 44918,88918 C 25667,88918 13732,86165 10973,83419 L 10973 72414 Z" fill="#2C5967" transform="translate(9176,150340)"/>
  <path d="M 99011 110915 L 99011 8246 C 99011,3664 95290,0 90734,0 L 79761 0 L 79761 10999 L 87975 10999 L 87975 108169 L 10973 108169 L 10973 10999 L 19251 10999 L 19251 0 L 8213 0 C 3657,0 0,3664 0,8246 L 0 111833 C 0,116421 3657,120085 8213,120085 L 90734 120085 C 95290,119167 99011,115503 99011,110915 Z" fill="#2C5967" transform="translate(121920,22003)"/>
  <path d="M 0 10999 L 0 12834 L 0 23832 L 0 25667 L 43058 25667 L 43058 23832 L 43058 12834 L 43058 10999 C 43058,9163 42159,8246 40298,8246 L 29325 8246 C 29325,3664 25667,0 21047,0 C 16492,0 12834,3664 12834,8246 L 2695 8246 C 898,8246 0,9163 0,10999 Z" fill="#2C5967" transform="translate(150347,9169)"/>
  <path d="M 58650 0 L 0 0 L 0 10998 L 58650 10998 L 58650 0 Z" fill="#2C5967" transform="translate(141171,51334)"/>
  <path d="M 58650 0 L 0 0 L 0 10999 L 58650 10999 L 58650 0 Z" fill="#2C5967" transform="translate(141171,67838)"/>
  <path d="M 46714 7334 L 38501 0 L 16491 21997 L 8213 12834 L 0 21079 L 16491 37584 L 46714 7334 Z" fill="#2C5967" transform="translate(147588,86171)"/>
</svg>