<svg xmlns="http://www.w3.org/2000/svg" viewBox="0 0 385013 363209" width="40" height="38">
  <path d="M 187577 355230 L 171657 355230 C 154075,354620 136570,352593 119308,349172 C 114066,348088 108894,346670 103824,344931 C 99326,343526 95001,341613 90933,339226 C 87263,337584 84112,334978 81808,331687 C 79511,328395 78144,324545 77868,320534 L 77868 192227 L 0 192227 L 956 179076 C 2066,163653 7110,148771 15606,135852 C 24102,122932 35767,112405 49493,105275 C 52471,103734 55069,101542 57091,98861 C 59112,96181 60511,93080 61172,89788 C 63321,78817 68096,68529 75083,59806 C 82078,51081 91074,44181 101316,39694 C 110132,35852 119642,33849 129261,33810 C 131423,33681 133592,33681 135748,33810 L 137911 33810 C 140843,33832 143744,33251 146432,32105 C 149127,30959 151559,29272 153574,27148 C 162930,17088 174589,9442 187539,4865 C 200494,286 214367,-1088 227971,859 C 241568,2805 254498,8015 265651,16044 C 276803,24072 285845,34680 292005,46962 C 293513,50027 295701,52711 298396,54808 C 301097,56907 304235,58365 307578,59074 C 320720,61987 333008,67907 343481,76368 C 353953,84829 362321,95602 367929,107841 C 373537,120079 376232,133451 375802,146907 C 375372,160362 371837,173535 365458,185392 L 362000 191794 L 297279 191794 L 297279 319841 C 297254,322889 296509,325879 295111,328587 C 293712,331289 291703,333631 289233,335415 C 287584,336711 285851,337892 284042,338963 C 265702,349776 231006,353324 211884,354454 C 203927,354967 195451,355230 187577,355230 Z" fill="#FFFFFF" transform="translate(4928,4000)"/>
  <path d="M 220624 8653 C 235659,8589 250411,12747 263200,20655 C 275988,28563 286294,39903 292955,53384 C 294783,57000 297395,60165 300597,62649 C 303799,65133 307514,66874 311467,67746 C 320656,69860 329428,73486 337423,78474 C 355185,89638 368064,107117 373454,127392 C 378850,147667 376361,169233 366498,187748 L 364246 191901 L 297883 191901 L 297883 324272 C 297793,326588 297170,328847 296080,330881 C 294982,332922 293442,334686 291569,336040 C 290125,337227 288591,338299 286987,339242 C 271586,347892 242685,352564 216729,354213 C 208079,354733 199859,354906 192505,354906 L 176758 354906 C 159324,354328 141960,352333 124846,348932 C 119783,347879 114784,346519 109882,344864 C 105679,343471 101624,341674 97767,339505 C 94770,338222 92172,336156 90253,333519 C 88334,330888 87166,327782 86865,324535 L 86865 191901 L 8996 191901 L 9606 183249 C 10697,168576 15510,154425 23595,142132 C 31680,129839 42768,119811 55807,112995 C 59407,111204 62564,108626 65035,105450 C 67505,102275 69231,98585 70078,94653 C 73004,79863 80968,66545 92608,56969 C 104254,47392 118859,42150 133932,42136 C 135922,42136 138001,42136 139990,42136 L 142582 42136 C 146060,42242 149525,41629 152759,40333 C 155987,39038 158913,37089 161358,34609 C 168930,26453 178099,19942 188296,15477 C 198492,11011 209497,8689 220624,8653 Z M 220624 1 C 208310,9 196131,2556 184850,7484 C 173563,12411 163418,19613 155044,28639 C 153427,30311 151489,31639 149352,32546 C 147209,33453 144912,33919 142582,33917 L 140856 33917 C 138546,33787 136236,33787 133932,33917 C 123717,33937 113617,36057 104254,40146 C 93365,44920 83798,52263 76373,61545 C 68943,70827 63873,81772 61602,93442 C 60966,96032 59766,98452 58092,100530 C 56417,102608 54306,104294 51912,105468 C 37609,112990 25456,124030 16607,137547 C 7751,151065 2483,166614 1296,182730 L 693 191382 L 0 200553 L 78472 200553 L 78472 324272 C 78703,329052 80243,333673 82931,337625 C 85620,341578 89342,344716 93699,346686 C 98011,349182 102560,351242 107283,352827 C 112044,354386 117409,355856 123287,357152 C 140805,360617 158567,362638 176412,363209 C 181866,363209 187314,363209 192505,363209 C 200462,363209 209029,363209 217338,362433 C 241042,361047 273229,357068 291312,346339 C 293346,345172 295290,343843 297106,342355 C 299975,340205 302317,337426 303947,334231 C 305583,331035 306468,327512 306539,323932 L 306539 200553 L 369437 200553 L 371862 195967 L 374108 191814 C 380795,179383 384510,165573 384966,151466 C 385421,137360 382604,123339 376739,110501 C 370874,97664 362115,86358 351155,77470 C 340189,68581 327317,62351 313546,59267 C 310845,58689 308304,57510 306115,55818 C 303927,54125 302150,51963 300911,49490 C 293500,34556 282046,22001 267852,13253 C 253658,4505 237295,-87 220624,1 Z" fill="#FFFFFF"/>
  <path d="M 328080 69822 C 320085,64833 311313,61208 302124,59093 C 298165,58221 294456,56480 291254,53997 C 288052,51513 285440,48348 283612,44731 C 276951,31251 266639,19912 253857,12003 C 241068,4095 226316,-63 211281,1 C 200148,37 189149,2360 178953,6824 C 168757,11289 159587,17802 152015,25957 C 149288,28807 145945,30998 142242,32362 C 138533,33727 134568,34229 130647,33830 C 114643,32354 98665,36836 85761,46416 C 72863,55995 63950,69998 60735,85741 C 59946,89673 58284,93377 55878,96581 C 53465,99785 50366,102408 46804,104256 C 33733,111095 22626,121164 14541,133506 C 6449,145847 1656,160052 603,174770 L 0 183422 L 69218 183422 L 69218 167502 L 17306 167502 C 19321,157088 23672,147267 30024,138771 C 36377,130275 44571,123327 53991,118446 C 59632,115514 64534,111345 68339,106251 C 72145,101158 74750,95271 75963,89029 C 78298,77003 85036,66282 94867,58968 C 104691,51654 116896,48273 129088,49490 C 135460,50170 141902,49359 147908,47122 C 153914,44885 159317,41282 163694,36599 C 170861,28912 179781,23076 189688,19587 C 199602,16099 210209,15063 220611,16568 C 231006,18073 240888,22074 249403,28229 C 257919,34385 264817,42510 269507,51912 C 272395,57634 276515,62644 281571,66579 C 286628,70515 292499,73277 298749,74667 C 306276,76275 313450,79204 319950,83319 C 333618,91932 343725,105191 348396,120658 C 353068,136126 352002,152760 345387,167502 L 297196 167502 L 297196 183248 L 354903 183248 L 357155 179096 C 367018,160581 369507,139015 364111,118740 C 358721,98465 345842,80986 328080,69822 Z" fill="#2D5967" transform="translate(9336,8647)"/>
  <path d="M 211052 33310 C 211096,33052 211096,32789 211052,32531 C 211096,32186 211096,31838 211052,31493 C 210955,29134 210333,26826 209242,24733 C 208151,22640 206611,20812 204737,19380 C 203274,18195 201741,17098 200149,16093 C 184749,6835 155854,2422 129898,778 C 121248,259 113028,0 105674,0 C 100740,0 95465,0 89927,0 C 72480,543 55109,2598 38015,6143 C 32939,7184 27934,8572 23044,10296 C 18854,11754 14805,13578 10936,15746 C 7920,17123 5321,19273 3409,21978 C 1497,24682 329,27846 34,31147 C -11,31492 -11,31840 34,32185 C -11,32443 -11,32706 34,32964 L 34 205225 C 335,208472 1503,211572 3422,214209 C 5340,216846 7939,218912 10936,220189 C 14792,222365 18848,224161 23044,225554 C 27953,227209 32946,228570 38015,229622 C 55129,233023 72486,235019 89927,235590 L 105674 235590 C 113028,235590 121331,235590 129898,234897 C 155854,233254 184749,229019 200149,219933 C 201760,218983 203294,217918 204737,216731 C 206611,215377 208151,213612 209248,211572 C 210339,209531 210955,207272 211052,204962 L 211052 33310 Z M 105674 14362 C 160788,14362 193835,25436 196691,31666 C 193835,37809 160788,48970 105674,48970 C 50560,48970 17507,37895 14658,31666 C 17507,25436 50560,14362 105674,14362 Z M 14568 48970 C 36199,59612 77556,62640 105674,62640 C 133793,62640 174886,59266 196780,48364 L 196780 90153 C 194701,93960 168919,106765 105674,106765 C 42430,106765 16993,94306 14568,90499 L 14568 48970 Z M 196780 107716 L 196780 147861 C 194701,151754 168919,164559 105674,164559 C 42430,164559 16993,151495 14568,147601 L 14568 107457 C 36199,118099 77812,121387 105674,121387 C 133530,121387 175149,118099 196780,107457 L 196780 107716 Z M 105674 221575 C 42430,221575 16647,208774 14568,204962 L 14568 164646 C 36199,175115 77556,178576 105674,178576 C 133793,178576 174886,175288 196780,164646 L 196780 204962 C 194701,208774 168919,221575 105674,221575 Z" fill="#2D5967" transform="translate(86831,119053)"/>
</svg>