<svg xmlns="http://www.w3.org/2000/svg" viewBox="0 0 350004 385010" width="37" height="40">
  <path d="M 108188 195252 C 88937,195252 43057,192505 43057,171420 L 43057 108169 L 0 108169 L 898 96253 C 1797,78831 12834,63251 28427,54999 C 30223,54081 31186,52252 32084,49500 C 34844,36666 43057,26585 54992,21079 C 60511,19251 65965,17415 71484,17415 C 73345,17415 74243,17415 76104,17415 C 77901,17415 79762,16498 80659,15580 C 89836,5499 102669,0 115503,0 C 133855,0 150347,10081 158560,26585 C 159523,28414 161320,30249 163181,30249 C 168635,31167 174153,33913 178773,36666 C 200719,50417 208099,78831 196163,101752 L 193404 107251 L 173255 107251 L 173255 171420 C 173255,193423 127438,195252 108188,195252 Z" fill="#FFFFFF" transform="translate(143031,2753)"/>
  <path d="M 121022 9170 C 137512,9170 152207,18333 159523,33002 C 161384,36666 164143,38501 167801,39419 C 172356,40336 177875,42165 181532,44918 C 200782,56834 208098,83419 197125,103587 L 195264 106334 L 173255 106334 L 173255 110004 L 173255 110922 L 173255 142088 L 173255 143006 L 173255 174172 C 173255,192505 122883,193423 112808,193423 C 102669,193423 52297,192505 52297,174172 L 52297 143006 L 52297 142088 L 52297 110922 L 52297 110004 L 52297 107251 L 10138 107251 L 10138 100834 C 11037,85254 21111,70585 34843,63251 C 37603,61416 40361,58669 40361,54999 C 42223,44000 50436,34837 60510,30249 C 65131,28420 69687,27503 75205,27503 C 76104,27503 77965,27503 78862,27503 L 79761 27503 C 82520,27503 85279,26585 88039,23832 C 97215,13751 108188,9170 121022,9170 Z M 121022 0 C 106391,0 92595,6417 82520,16498 L 81622 17415 C 79761,17415 78862,17415 77002,17415 C 70585,17415 65131,18333 59612,21086 C 44918,26585 35806,38501 33047,52252 C 33047,53170 32084,54087 32084,54087 C 14694,63251 3721,80666 1860,99005 L 963 105422 L 0 115503 L 10138 115503 L 43121 115503 L 43121 141171 L 43121 142088 L 43121 174172 C 43121,197087 80724,202586 112808,202586 C 144892,202586 182430,198004 182430,174172 L 182430 143006 L 182430 142088 L 182430 116421 L 195264 116421 L 200782 116421 L 203542 111839 L 205339 109086 C 218173,84337 210857,53170 187051,38501 C 181532,34837 176014,33002 169597,31167 C 168698,31167 168698,30249 167801,30249 C 158624,10998 141171,0 121022,0 Z" fill="#FFFFFF" transform="translate(138411,0)"/>
  <path d="M 118262 316261 L 104466 304344 L 103567 305256 L 84317 305256 L 84317 316261 L 63206 316261 L 63206 305256 L 43057 305256 L 42158 303427 L 27463 315343 L 0 315343 L 0 275924 C 0,270425 1796,265843 5454,262173 L 22908 243840 C 17389,199840 32084,157668 61409,125584 L 61409 61416 C 61409,41254 77900,25667 97150,25667 L 99910 25667 L 88873 14669 L 103567 0 L 140208 36666 L 103567 73338 L 88873 57752 L 99910 46753 L 97150 46753 C 88873,46753 82456,53170 82456,61416 L 82456 125584 C 103567,148505 118262,176007 122818,207174 C 124679,219090 124679,231924 123716,243840 L 130133 251174 L 140208 262173 C 143929,265843 145726,271343 145726,275924 L 145726 315343 L 118262 315343 L 118262 316261 Z" fill="#FFFFFF" transform="translate(4620,64169)"/>
  <path d="M 108188 12834 L 138412 43083 L 108188 73338 L 99911 65086 L 115503 49499 L 101771 49499 C 91697,49499 82520,57752 82520,68750 L 82520 134754 C 104531,156757 118263,185171 122883,215420 C 124680,228254 124680,240176 123781,253010 L 131995 262173 L 142133 273171 C 144829,275924 146689,279588 146689,284176 L 146689 318089 L 124680 318089 L 114605 309844 L 107290 304344 L 105429 307091 L 84382 307091 L 84382 316261 L 84382 318089 L 72446 318089 L 72446 316261 L 72446 307091 L 50436 307091 L 48576 304344 C 48576,304344 48576,304344 48576,303427 L 41261 308926 L 31186 318089 L 9176 318089 L 9176 283259 C 9176,279588 11038,275007 13796,272260 L 24769 260338 L 32084 252092 C 26630,209921 39464,166838 70585,134754 L 70585 68750 C 70585,51335 84382,37583 101771,37583 L 115503 37583 L 99911 22003 L 108188 12834 Z M 108188 0 L 101771 6417 L 93494 14669 L 87077 22003 L 93494 28420 L 94457 29331 C 75206,33002 61410,49499 61410,68750 L 61410 131090 C 32084,163174 18352,206257 22909,249339 L 18352 254838 L 7380 266755 C 2760,271343 0,276842 0,283259 L 0 318089 L 0 327259 L 9176 327259 L 31186 327259 L 34844 327259 L 36705 325424 L 46779 317178 L 50436 317178 L 62372 317178 L 62372 318089 L 62372 327259 L 71548 327259 L 83419 327259 L 92595 327259 L 92595 318089 L 92595 316261 L 105429 316261 L 108188 316261 L 118263 324506 L 121022 326341 L 124680 326341 L 146689 326341 L 155865 326341 L 155865 317178 L 155865 282341 C 155865,275924 153106,269507 149449,264926 L 138412 253921 L 132958 248422 C 133855,236506 132958,224589 131995,212673 C 127438,181507 113707,153087 91697,130172 L 91697 67833 L 93494 69668 L 101771 77920 L 108188 84337 L 114605 77920 L 144829 47671 L 151245 41254 L 144829 34837 L 114605 6417 L 108188 0 Z" fill="#FFFFFF" transform="translate(0,57752)"/>
  <path d="M 60510 0 C 54094,0 0,917 0,20168 L 0 50417 L 0 51335 L 0 82501 L 0 83419 L 0 114586 C 0,132918 50372,133836 60510,133836 C 70585,133836 120957,132918 120957,114586 L 120957 83419 L 120957 82501 L 120957 51335 L 120957 50417 L 120957 20168 C 120957,917 66927,0 60510,0 Z M 60510 11916 C 86178,11916 102669,16498 107225,19251 C 102669,22914 87076,27496 60510,27496 C 33880,27496 18288,22914 13731,20168 C 18288,16498 34843,11916 60510,11916 Z M 109086 113668 C 105428,116421 88873,121002 61409,121002 C 33880,121002 16491,116421 13731,113668 L 13731 96253 C 29325,102669 54992,102669 61409,102669 C 67826,102669 93493,102669 109086,96253 L 109086 113668 Z M 109086 82501 C 105428,85248 88873,89836 61409,89836 C 33880,89836 16491,85248 13731,82501 L 13731 64168 C 29325,70585 54992,70585 61409,70585 C 67826,70585 93493,70585 109086,64168 L 109086 82501 Z M 109086 50417 C 105428,53164 88873,57752 61409,57752 C 33880,57752 16491,53164 13731,50417 L 13731 33002 C 30223,39419 57752,39419 61409,39419 C 65066,39419 93493,39419 109086,33002 L 109086 50417 Z" fill="#2C5967" transform="translate(190709,59587)"/>
  <path d="M 169597 35748 C 165041,33002 160421,31167 155865,30249 C 152207,29331 149449,27496 147587,23832 C 140272,9163 125577,0 109086,0 C 97151,0 85280,4582 77002,13751 C 75205,16498 71484,17415 68788,17415 C 62372,16498 56853,17415 50436,20168 C 40362,24750 32084,33913 30287,44918 C 29325,48582 27529,51335 24769,53164 C 11037,60498 898,75167 0,90753 L 0 97170 L 32983 97170 L 32983 85248 L 13732 85248 C 16491,76085 22908,68750 31186,64168 C 37603,61416 42158,54999 43121,47664 C 44019,40330 49538,33913 55955,31167 C 59613,29331 63270,29331 67826,29331 C 74243,30249 81622,27496 87076,21997 C 92595,15580 100873,11916 109985,11916 C 121920,11916 132957,18333 137512,29331 C 140272,35748 146689,40330 154004,42165 C 157661,43083 161320,44000 164078,46747 C 176912,54999 182430,71503 176912,86165 L 170495 86165 L 170495 98081 L 183329 98081 L 185190 95335 C 196163,74249 189746,48582 169597,35748 Z" fill="#2C5967" transform="translate(150347,9170)"/>
  <path d="M 11935 109086 L 11935 55916 C 11935,45836 20213,36666 31186,36666 L 44918 36666 L 29325 52252 L 37603 60504 L 67826 30249 L 37603 0 L 29325 8252 L 44918 23832 L 31186 23832 C 13796,23832 0,37583 0,54999 L 0 108169 L 6417 101752 L 11935 109086 Z" fill="#2C5967" transform="translate(70585,70585)"/>
  <path d="M 20213 0 C 9176,0 0,9170 0,20168 C 0,31167 9176,40336 20213,40336 C 31186,40336 40362,31167 40362,20168 C 40362,9170 31186,0 20213,0 Z M 20213 27502 C 15593,27502 12834,23832 12834,20168 C 12834,15586 16492,12834 20213,12834 C 23871,12834 27529,16498 27529,20168 C 27529,23832 24769,27502 20213,27502 Z" fill="#2C5967" transform="translate(57751,251175)"/>
  <path d="M 122818 133843 L 114605 124673 C 115503,112757 115503,99923 113706,87089 C 109086,55923 94456,27503 71484,4588 L 66927 0 L 62372 4588 C 30287,36672 16491,80672 22009,124673 L 14695 132925 L 4620 144841 C 1861,148505 0,152175 0,155840 L 0 190676 L 22009 190676 L 32084 182425 L 39400 176925 C 39400,176925 39400,176925 39400,177843 L 41260 180589 L 62372 180589 L 62372 189759 L 62372 190676 L 74243 190676 L 74243 188841 L 74243 179672 L 96253 179672 L 98114 176925 L 105428 182425 L 115503 190676 L 137512 190676 L 137512 155840 C 137512,152175 135652,147587 132957,144841 L 122818 133843 Z M 66927 18339 C 72446,24756 77901,32084 82520,39419 L 51335 39419 C 55955,32084 61409,24756 66927,18339 Z M 26566 170508 L 17454 177843 L 11935 177843 L 11935 155840 C 11935,154922 11935,154004 12834,153093 L 18352 148505 L 25667 140259 C 27529,148505 30287,156757 33945,165009 L 26566 170508 Z M 75205 167756 L 75205 121920 L 63270 121920 L 63270 167756 L 48575 167756 C 29325,130172 29325,88007 44918,51335 L 88937 51335 C 106327,88007 107289,131090 88937,167756 L 75205 167756 Z M 125577 178760 L 121022 178760 L 112744 171426 L 105428 165009 C 109086,156757 111845,148505 113706,140259 L 121022 148505 L 125577 153093 C 126540,154004 126540,154922 126540,155840 C 125577,155840 125577,178760 125577,178760 Z" fill="#2C5967" transform="translate(9176,185171)"/>
</svg>