<svg xmlns="http://www.w3.org/2000/svg" viewBox="0 0 385010 329429" width="40" height="35">
  <path d="M 131770 321586 L 131770 307469 L 150597 298055 L 152945 298055 L 153735 294135 L 84709 294135 L 84709 192167 L 0 192167 L 783 179617 C 3138,148243 21176,120006 49410,105888 C 55685,102750 60395,96476 61178,90201 C 65882,68239 80788,49414 101181,40002 C 109805,36081 119219,34512 129415,34512 C 131770,34512 133336,34512 135691,34512 C 136473,34512 137263,34512 138046,34512 C 144321,34512 149808,32159 153735,27453 C 170200,10196 192948,0 216479,0 C 248640,0 278446,18040 292563,47061 C 295701,53336 301194,58042 308252,59611 C 317659,61964 327073,65886 335704,71376 C 374134,95691 387468,146674 366293,186676 L 364721 192167 L 294918 192167 L 294918 294135 L 225892 294135 L 226675 298055 L 230596 298055 L 249423 307469 L 249423 321586 L 131770 321586 Z" fill="#FFFFFF" transform="translate(3908,3917)"/>
  <path d="M 221189 7844 C 252560,7844 280012,25099 294135,52552 C 298056,59611 304332,65102 312956,66670 C 322369,69023 331000,72161 339624,77651 C 376489,101182 389040,149028 368648,187461 L 366293 191383 L 294918 191383 L 294918 292565 L 225109 292565 L 226681 304327 L 233740 304327 L 249423 312175 L 249423 320016 L 233740 320016 L 156090 320016 L 140401 320016 L 140401 312175 L 156090 304327 L 160793 304327 L 162359 292565 L 92557 292565 L 92557 192167 L 8631 192167 L 9413 183540 C 11768,152949 29023,127066 55692,112947 C 62750,109025 68237,101966 69809,94123 C 73730,72945 87847,55689 107456,47062 C 116087,43140 124711,41571 134125,41571 C 136480,41571 138046,41571 140401,41571 C 141183,41571 141966,41571 142755,41571 C 149814,41571 156873,38434 161576,33728 C 177265,17256 198441,7844 221189,7844 Z M 221189 0 C 196086,0 172555,10197 156090,28237 C 152952,32159 148242,33728 142755,33728 C 141966,33728 141183,33728 141183,33728 C 138828,33728 136480,33728 134125,33728 C 123928,33728 113732,36081 104319,40003 C 82360,49415 66671,69808 61961,93339 C 61178,98829 57258,103535 51765,106672 C 22748,122360 3138,150596 783,183540 L 0 192167 L 0 200011 L 8631 200011 L 84709 200011 L 84709 293348 L 84709 301196 L 92557 301196 L 146676 301196 L 136480 305899 L 131770 308254 L 131770 313741 L 131770 321588 L 131770 329430 L 139618 329430 L 155300 329430 L 232951 329430 L 248640 329430 L 256481 329430 L 256481 321588 L 256481 313741 L 256481 309037 L 251778 306682 L 241581 301979 L 293346 301979 L 301194 301979 L 301194 294131 L 301194 200011 L 364727 200011 L 369430 200011 L 371785 196089 L 374140 192167 C 396882,149812 382765,97260 342762,71376 C 334138,65886 323941,61964 313745,59611 C 308252,58042 302760,54905 300411,49415 C 286287,18825 255698,0 221189,0 Z" fill="#FFFFFF"/>
  <path d="M 0 156870 L 69802 156870 L 68237 168638 L 63533 168638 L 47844 176480 L 47844 184321 L 63533 184321 L 141183 184321 L 156866 184321 L 156866 176480 L 141183 168638 L 134125 168638 L 132553 156870 L 202362 156870 L 202362 0 L 0 0 L 0 156870 Z M 83926 168638 L 85492 156870 L 116863 156870 L 118436 168638 L 83926 168638 Z M 15683 15687 L 186672 15687 L 186672 112947 L 160793 112947 L 160793 120791 L 145104 120791 L 145104 112947 L 126277 112947 L 126277 120791 L 110594 120791 L 110594 112947 L 91767 112947 L 91767 120791 L 76078 120791 L 76078 112947 L 57258 112947 L 57258 120791 L 41568 120791 L 41568 112947 L 18038 112947 L 18038 15687 L 15683 15687 Z M 15683 128636 L 186672 128636 L 186672 140398 L 15683 140398 L 15683 128636 Z" fill="#2D5967" transform="translate(92563,137261)"/>
  <path d="M 330217 70592 C 322369,65101 312962,61964 303549,59611 C 295701,58042 288642,52551 284722,45492 C 271388,17256 243936,0 212564,0 C 189817,0 167852,9412 152952,25884 C 147459,31374 139618,34512 131776,33727 C 120008,32943 109029,34512 98832,39218 C 79222,47845 65105,65886 61178,86279 C 59613,94122 54120,101181 47061,105103 C 20393,119222 3138,145890 783,175695 L 0 184323 L 72164 184323 L 72164 168636 L 17255 168636 C 21182,147458 34516,129419 54120,119222 C 65888,112947 73730,101966 76085,89416 C 79222,73729 90202,60395 105108,53336 C 112949,50198 121573,48630 129421,49414 C 142756,50983 155307,46277 163931,36080 C 177265,23531 194520,15687 212564,15687 C 237661,15687 260408,29806 271388,51767 C 276880,63532 287860,72161 301194,74514 C 309035,76083 316094,79220 322369,83142 C 350610,101181 361589,138046 348255,167852 L 298839 167852 L 298839 183539 L 358451 183539 L 360806 179617 C 380416,141968 367865,93338 330217,70592 Z" fill="#2D5967" transform="translate(8624,7842)"/>
  <path d="M 0 0 L 0 28237 L 0 36081 L 15683 36081 L 15683 28237 L 15683 0 L 0 0 Z" fill="#2D5967" transform="translate(131776,221971)"/>
  <path d="M 0 0 L 0 43924 L 0 51767 L 15683 51767 L 15683 43924 L 15683 0 L 0 0 Z" fill="#2D5967" transform="translate(167075,206289)"/>
  <path d="M 0 0 L 0 65886 L 0 73730 L 15683 73730 L 15683 65886 L 15683 0 L 0 0 Z" fill="#2D5967" transform="translate(202374,184327)"/>
  <path d="M 0 0 L 0 85495 L 0 93339 L 16472 93339 L 16472 85495 L 16472 0 L 0 0 Z" fill="#2D5967" transform="translate(236877,164719)"/>
</svg>