<svg xmlns="http://www.w3.org/2000/svg" viewBox="0 0 385010 334103" width="40" height="35">
  <path d="M 175006 326142 C 150347,326142 126482,323762 108984,319783 C 85915,314213 73980,305461 73980,293532 L 73980 178187 L 0 178187 L 796 166255 C 3183,136822 19892,111367 46143,97844 C 51707,94662 55685,89889 57277,83525 C 61255,62843 75571,45343 94668,37388 C 102618,34206 111371,31819 120912,31819 C 122504,31819 124891,31819 127278,31819 C 128074,31819 128869,31819 129665,31819 C 135235,31819 140805,29433 143987,25456 C 157508,10341 175802,1591 195688,0 L 203645 0 C 233079,796 259330,17501 272055,43751 C 272851,45343 274442,47729 276033,49320 C 277625,51706 280807,55683 282399,58866 C 306263,59661 327740,72388 340465,92275 L 340465 93071 L 342852 105003 L 375469 137618 L 359561 153527 L 349217 143186 C 342852,176596 313418,201256 278420,201256 C 277625,201256 276033,201256 275237,201256 L 275237 292736 C 275237,304665 264104,313418 240240,318988 C 223531,323762 199666,326142 175006,326142 Z" fill="#FFFFFF" transform="translate(3966,3969)"/>
  <path d="M 204441 7955 C 233072,7955 258528,23864 271259,49319 C 272851,51706 273646,54092 276033,55683 C 277618,58070 280801,62843 283188,66025 C 307052,66025 328529,78752 340465,97843 L 343647 110571 L 374667 141595 L 364329 151936 L 350802 138413 C 348422,173414 318988,201255 283188,201255 C 280801,201255 278414,201255 276033,200460 L 276033 296712 C 276033,306261 265689,314211 244212,318985 C 226713,322964 203645,325351 178985,325351 C 154325,325351 131256,322964 113751,318985 C 92274,314211 81937,306261 81937,296712 L 81937 177391 L 8753 177391 L 9548 169437 C 11935,141595 27843,116935 52503,104208 C 58868,101821 63636,95457 65227,88298 C 69206,69206 81937,52501 100231,44546 C 108188,41365 116138,39774 124891,39774 C 126482,39774 128869,39774 130461,39774 C 131256,39774 132052,39774 132841,39774 C 139207,39774 145573,37387 150347,32614 C 163867,17501 182957,9546 202849,8750 L 202849 15909 L 202849 8750 C 202849,7955 203645,7955 204441,7955 Z M 210004 0 L 202054 0 L 194097 0 L 194097 796 C 175007,3182 156706,11932 143185,26251 C 140798,30228 136820,31819 132052,31819 C 131256,31819 131256,31819 130461,31819 C 128074,31819 126482,31819 124095,31819 C 114547,31819 105005,34206 96253,37387 C 75571,46138 61249,64433 56481,86707 C 55685,91480 52503,96253 47728,98639 C 20681,112958 3183,140004 796,170232 L 0 178187 L 0 186142 L 8753 186142 L 73980 186142 L 73980 297508 C 73980,318189 102618,325351 112160,327738 C 130461,331716 154325,334103 178985,334103 C 204441,334103 227509,331716 245804,327738 C 255345,325351 283984,318985 283984,297508 L 283984 210006 C 317396,210006 346830,186937 355576,155118 L 357964 157504 L 363533 163073 L 369103 157504 L 379441 147163 L 385011 141595 L 379441 136026 L 350007 106594 L 347626 96253 L 347626 94662 L 346830 93866 C 334099,73184 311826,59661 287167,58070 C 285575,55683 283188,52501 282392,50911 L 282392 50115 L 281597 49319 C 280801,49319 279210,47728 278414,46138 C 265689,19091 239438,2386 210004,0 Z" fill="#FFFFFF"/>
  <path d="M 15914 155118 L 62051 155118 L 62051 169436 L 0 169436 L 796 161482 C 3183,133640 19096,108980 43756,96253 C 50116,93071 54890,86707 56481,79548 C 60459,60456 73184,43751 91485,35796 C 100231,31024 110575,29433 120912,31024 C 128869,31819 136031,29433 140805,23864 C 154325,8750 173415,795 193301,0 C 194097,0 194892,0 194892,0 C 223531,0 248986,15909 261717,41365 C 263309,43751 264104,46138 266485,47728 C 260922,48524 255352,49319 250578,50911 C 249782,50115 249782,49319 248986,47728 C 238649,27046 217961,14319 194892,14319 C 194097,14319 194097,14319 193301,14319 C 177394,14319 161486,21478 150347,33410 C 142396,42160 130461,46933 118532,45342 C 110575,44546 103414,46138 95463,49319 C 81937,55683 71599,67616 69212,82729 C 66825,94661 59664,104207 48524,109775 C 31821,118525 19892,135231 15914,155118 Z M 267281 86707 L 281603 86707 L 301489 157504 L 285582 157504 L 283194 142390 L 265689 142390 L 261717 157504 L 246599 157504 L 267281 86707 Z M 268076 130458 L 280012 130458 L 273646 104207 L 268076 130458 Z M 206828 120912 L 193301 107389 L 182963 117730 L 213989 148754 L 245008 117730 L 234670 107389 L 221939 120117 C 224326,93071 247395,72388 274442,72388 C 294328,72388 311833,83525 321375,100230 L 331719 89888 C 319783,70797 298306,58070 274442,58070 C 238649,58070 209215,85911 206828,120912 Z M 365920 132845 L 334901 102616 L 303876 133640 L 314213 143981 L 326944 131253 C 324557,158300 301489,178982 274442,178982 C 254556,178982 237057,167845 227509,151140 L 217165 161482 C 229101,180573 250578,193300 274442,193300 C 310241,193300 339669,165459 342056,130458 L 355583 143981 L 365920 132845 Z M 252169 202846 C 256943,204437 261717,205232 266485,206028 L 266485 289556 C 266485,299097 256148,307054 234670,311828 C 217165,315807 194097,318187 169437,318187 C 144777,318187 121708,315807 104209,311828 C 82732,307054 72388,299097 72388,289556 L 72388 132845 C 72388,123299 82732,116140 104209,111366 C 120912,107389 143987,105798 169437,105798 C 170232,105798 171824,105798 173415,105798 L 173415 120117 C 172619,120117 171028,120117 169437,120117 C 116941,120117 90689,128867 87506,133640 L 87506 134435 C 90689,140004 120912,148754 169437,148754 C 179781,148754 188533,148754 197279,147958 C 198871,152731 200462,157504 202849,162277 C 192505,163072 181372,163868 169437,163868 C 144777,163868 121708,161482 104209,157504 C 97048,155913 91485,154322 86711,151936 L 86711 186141 C 89894,191710 120117,200460 168641,200460 C 195688,200460 217165,197278 231487,194096 C 238649,197278 245008,200460 252169,202846 C 247395,205232 241825,206824 234670,208415 C 217165,212392 194097,214778 169437,214778 C 144777,214778 121708,212392 104209,208415 C 97048,206824 91485,205232 86711,202846 L 86711 237052 C 89894,242620 120117,251370 168641,251370 C 217165,251370 247395,241824 250578,237052 L 252169 202846 Z M 252169 254552 C 247395,256939 241825,258529 234670,260121 C 217165,264100 194097,266487 169437,266487 C 144777,266487 121708,264100 104209,260121 C 97048,258529 91485,256939 86711,254552 L 86711 288760 C 89894,293528 116941,303076 168641,303076 C 220348,303076 248190,292738 250578,288760 L 252169 254552 Z" fill="#2D5967" transform="translate(8747,8748)"/>
</svg>