<svg xmlns="http://www.w3.org/2000/svg" viewBox="0 0 373230 385010" width="39" height="40">
  <path d="M 225327 351504 L 225327 304484 L 253908 288050 L 253908 279285 L 194559 279285 L 194559 288050 L 223139 304484 L 223139 351504 L 182418 374970 L 141607 351504 L 141607 304484 L 170188 288050 L 170188 279285 L 110838 279285 L 110838 288050 L 139419 304484 L 139419 351504 L 98697 374970 L 57886 351504 L 57886 304484 L 86461 288050 L 86461 279285 L 62449 279285 C 55692,279285 50308,273807 50308,267143 C 50308,262030 53504,257647 57886,255822 L 57886 194103 L 88289 190725 C 88469,190359 88565,189994 88745,189720 L 85825 186069 L 0 186069 L 1007 173013 C 3285,142519 20816,115676 48024,101434 C 53869,98421 57886,93034 59073,86735 C 63366,65096 77881,46928 98056,38072 C 106545,34328 115952,32411 125173,32411 C 127272,32411 129376,32503 131475,32685 C 132206,32777 132931,32777 133573,32777 C 139323,32777 144527,30494 148364,26477 C 163886,9586 185979,0 208804,0 C 240304,0 268603,17530 282668,45741 C 285588,51584 290972,55784 297459,57154 C 306950,59253 315901,62997 324204,68201 C 361640,91756 374602,140784 353606,179677 L 350135 186069 L 278831 186069 L 275911 189720 C 276091,190086 276181,190359 276367,190725 L 306770 194103 L 306770 255822 C 311243,257647 314348,262030 314348,267143 C 314348,269151 313893,271069 312885,272894 C 311788,274903 310235,276547 308323,277642 C 306404,278737 304306,279285 302201,279285 L 278189 279285 L 278189 288050 L 306770 304484 L 306770 351504 L 266049 374970 L 225327 351504 Z" fill="#FFFFFF" transform="translate(4928,4567)"/>
  <path d="M 213732 9130 C 243494,9130 270245,25655 283579,52315 C 287135,59436 293622,64458 301470,66192 C 310421,68201 318911,71670 326758,76600 C 362186,98878 374423,145257 354518,182052 L 352323 186069 L 281475 186069 L 275449 193555 C 276361,195472 277188,197481 277913,199489 L 306950 202685 L 306950 233544 L 306950 263947 C 311146,263947 314528,267325 314528,271525 C 314528,272803 314162,273990 313617,275086 C 312975,276364 311968,277368 310781,278099 C 309690,278738 308413,279194 306950,279194 L 278375 279194 L 278375 295172 L 306950 311606 L 306950 353331 L 303568 355249 L 270977 374327 L 238200 355429 L 234824 353510 L 234824 311788 L 263399 295354 L 263399 279377 L 194925 279377 L 194925 295354 L 223499 311788 L 223499 353510 L 203690 365016 L 187256 374327 L 171002 364926 L 151194 353420 L 151194 311697 L 179768 295263 L 179768 279285 L 111294 279285 L 111294 295263 L 139868 311697 L 139868 353420 L 136493 355339 L 103536 374327 L 70759 355429 L 67377 353510 L 67377 311788 L 95958 295354 L 95958 279377 L 67377 279377 C 63180,279377 59799,275999 59799,271799 C 59799,267599 63180,264221 67377,264221 L 67377 233818 L 67377 202959 L 96413 199763 C 97145,197755 97966,195746 98877,193829 L 92852 186343 L 9766 186343 L 10408 178126 C 12596,149184 29216,123802 54960,110290 C 61993,106638 66921,100064 68384,92487 C 72311,72309 85915,55327 104723,47111 C 112661,43641 121336,41815 130012,41815 C 131930,41815 133939,41906 135851,42089 C 136672,42180 137590,42180 138411,42180 C 145348,42180 151829,39441 156487,34420 C 171278,18260 192185,9130 213732,9130 Z M 213732 0 C 189541,0 166254,10134 149820,27847 C 146901,30950 142884,32685 138411,32685 C 137860,32685 137314,32685 136769,32594 C 134574,32411 132296,32320 130012,32320 C 120149,32320 110107,34420 101072,38437 C 79614,47933 64002,67288 59433,90386 C 58432,95317 55326,99517 50764,101890 C 22183,116864 3741,145075 1367,177122 L 732 185338 L 0 195198 L 9863 195198 L 58252 195198 L 58252 202777 L 58252 233636 L 58252 257648 C 53683,260660 50674,265773 50674,271708 C 50674,280929 58156,288415 67377,288415 L 86826 288415 L 86826 289968 L 62814 303845 L 58252 306493 L 58252 311788 L 58252 353510 L 58252 358811 L 62814 361454 L 66190 363373 L 98967 382271 L 103536 384921 L 108098 382271 L 140875 363373 L 144251 361454 L 145438 360819 L 146625 361454 L 166440 372960 L 182688 382360 L 187256 385011 L 191819 382360 L 208072 372960 L 227881 361454 L 229068 360819 L 230256 361454 L 233637 363373 L 266415 382271 L 270977 384921 L 275539 382271 L 308316 363373 L 311698 361454 L 316261 358811 L 316261 353510 L 316261 311788 L 316261 306493 L 311698 303845 L 287686 289968 L 287686 288415 L 307129 288415 C 310055,288415 312975,287594 315529,286133 C 318179,284581 320367,282299 321830,279559 C 323204,277095 323839,274446 323839,271708 C 323839,265865 320829,260660 316261,257648 L 316261 233636 L 316261 202777 L 316261 195198 L 352419 195198 L 357893 195198 L 360453 190360 L 362641 186343 C 384735,145257 371227,93674 331693,68840 C 322928,63362 313521,59436 303478,57245 C 298364,56149 294078,52863 291793,48206 C 276912,18443 246965,0 213732,0 Z M 203966 288415 L 254177 288415 L 254177 289968 L 230166 303845 L 228979 304484 L 227791 303845 L 203780 289968 L 203780 288415 L 203966 288415 Z M 120239 288415 L 170457 288415 L 170457 289968 L 146445 303845 L 145258 304484 L 144071 303845 L 120059 289968 L 120059 288415 L 120239 288415 Z" fill="#FFFFFF"/>
  <path d="M 316896 67471 C 309048,62540 300559,59071 291607,57062 C 283759,55328 277272,50306 273717,43185 C 260383,16525 233631,0 203870,0 C 182232,0 161416,9130 146715,24925 C 141511,30585 133932,33325 126085,32594 C 115490,31589 104716,33325 94950,37616 C 76142,45924 62539,62906 58611,83083 C 57148,90752 52220,97234 45194,100886 C 19443,114398 2734,139780 635,168722 L 0 176939 L 68474 176939 L 56327 161692 L 16889 161692 C 20816,141514 33599,124168 52220,114398 C 63360,108555 71118,98239 73492,86004 C 76508,70757 86826,57884 101065,51584 C 108464,48298 116588,47019 124622,47750 C 137314,48937 149365,44372 157854,35242 C 169726,22460 186525,15156 203870,15156 C 227792,15156 249339,28486 260017,49941 C 265587,61171 275905,69114 288232,71853 C 295444,73496 302381,76326 308682,80252 C 336069,97508 346298,132567 333150,161600 L 298364 161600 L 286223 176848 L 342371 176848 L 344565 172830 C 364554,136128 352323,89748 316896,67471 Z" fill="#2D5967" transform="translate(9863,9128)"/>
  <path d="M 0 88926 L 0 119785 L 0 135032 L 77971 135032 L 77971 121703 L 78067 121703 C 79068,99517 97421,81713 119879,81713 C 142338,81713 160691,99426 161692,121703 L 161788 121703 L 161788 135032 L 239759 135032 L 239759 119785 L 239759 88926 L 210723 85730 C 209991,83722 209170,81713 208259,79796 L 226514 56971 L 182784 13239 L 159959 31498 C 158040,30586 156032,29764 154023,29034 L 150828 0 L 89021 0 L 85825 29034 C 83817,29764 81808,30586 79890,31498 L 57065 13239 L 13244 56880 L 31500 79705 C 30589,81622 29768,83631 29036,85639 L 0 88926 Z M 33695 57976 L 58072 33599 L 77881 49485 L 82264 47202 C 86371,45102 90664,43276 95046,41906 L 99795 40446 L 102625 15247 L 137134 15247 L 139964 40446 L 144713 41906 C 149095,43276 153388,45102 157495,47202 L 161878 49485 L 181686 33599 L 206064 57976 L 190182 77788 L 192460 82170 C 194565,86278 196388,90569 197761,94952 L 199217 99699 L 224416 102530 L 224416 119785 L 213007 119785 L 176758 119785 C 174750,90113 150007,66466 119790,66466 C 89566,66466 64823,90022 62814,119785 L 26662 119785 L 15253 119785 L 15253 102530 L 40452 99699 L 41908 94952 C 43282,90569 45104,86278 47202,82170 L 49487 77788 L 33695 57976 Z" fill="#2D5967" transform="translate(67377,113850)"/>
  <path d="M 247331 34329 L 135030 34329 L 135030 7669 C 135030,7030 134940,6391 134754,5752 C 133932,2465 130923,0 127451,0 C 123890,0 120970,2465 120149,5752 C 119963,6391 119873,7030 119873,7669 L 119873 34329 L 7572 34329 C 3375,34329 0,37707 0,41906 C 0,46106 3375,49484 7572,49484 L 36153 49484 L 36153 65462 L 7572 81896 L 7572 123617 L 10954 125535 L 43731 144433 L 76508 125535 L 79883 123617 L 79883 81896 L 51309 65462 L 51309 49484 L 119783 49484 L 119783 65462 L 91202 81896 L 91202 123617 L 111018 135122 L 127272 144529 L 143519 135122 L 163334 123617 L 163334 81896 L 134754 65462 L 134754 49484 L 203228 49484 L 203228 65462 L 174654 81896 L 174654 123617 L 178029 125535 L 210806 144433 L 243583 125535 L 246965 123617 L 246965 81896 L 218384 65462 L 218384 49484 L 246965 49484 C 248332,49484 249609,49119 250796,48389 C 251983,47659 252990,46654 253626,45376 C 254177,44280 254543,43094 254543,41815 C 254903,37798 251527,34329 247331,34329 Z M 64637 90752 L 64637 114947 L 46105 125721 L 43731 127088 L 41357 125721 L 22728 114947 L 22728 90752 L 43641 78700 L 64637 90752 Z M 148357 90752 L 148357 114947 L 127451 126998 L 106545 114947 L 106545 90752 L 127451 78700 L 148357 90752 Z M 232078 90752 L 232078 114947 L 213456 125721 L 211082 127088 L 208708 125721 L 190086 114947 L 190086 90752 L 210992 78700 L 232078 90752 Z" fill="#2D5967" transform="translate(59805,229707)"/>
</svg>