<svg xmlns="http://www.w3.org/2000/svg" viewBox="0 0 385034 364694" width="40" height="38">
  <path d="M 133400 357141 C 120547,357122 108040,352932 97761,345206 C 87474,337474 79967,326616 76354,314257 C 72735,301899 73210,288699 77708,276629 C 82200,264565 90471,254279 101284,247311 L 101284 192960 L 0 192960 L 956 179831 C 2066,164373 7104,149460 15599,136505 C 24089,123549 35755,112993 49474,105832 C 52438,104286 55024,102091 57039,99415 C 59054,96733 60440,93640 61101,90355 C 64201,74531 72690,60272 85119,50025 C 97542,39777 113142,34175 129235,34175 C 131404,34047 133573,34047 135742,34175 L 137911 34175 C 140837,34220 143744,33643 146432,32488 C 149127,31339 151547,29632 153536,27482 C 162892,17312 174577,9573 187584,4940 C 200591,301 214528,-1098 228196,859 C 241857,2822 254845,8078 266030,16189 C 277214,24293 286268,35003 292403,47394 C 293859,50506 295996,53246 298659,55408 C 301316,57577 304428,59117 307765,59913 C 317550,62089 326893,65945 335363,71309 C 353992,83142 367467,101590 373082,122959 C 378703,144327 376046,167036 365657,186530 L 362186 192960 L 296740 192960 L 296740 342274 L 172632 342274 C 161781,351822 147844,357109 133400,357141 Z" fill="#FFFFFF" transform="translate(4684,3730)"/>
  <path d="M 220624 8695 C 235659,8650 250411,12821 263200,20733 C 275995,28645 286319,39990 293012,53485 C 294815,57123 297414,60306 300616,62808 C 303812,65305 307534,67050 311499,67916 C 320720,70027 329518,73672 337532,78703 C 355262,89939 368083,107489 373428,127811 C 378773,148133 376245,169732 366350,188271 L 364092 192358 L 297087 192358 L 297087 341665 L 175578 341665 C 169899,346901 163174,350886 155852,353357 C 148531,355827 140779,356726 133085,356000 C 125398,355269 117942,352933 111217,349128 C 104485,345329 98627,340157 94020,333946 C 89419,327728 86165,320618 84484,313065 C 82797,305513 82720,297684 84247,290100 C 85774,282515 88873,275334 93352,269027 C 97825,262719 103574,257425 110228,253485 L 110228 192615 L 9375 192615 L 9978 183920 C 11037,169206 15837,155012 23922,142685 C 32001,130352 43102,120303 56154,113482 C 59702,111628 62789,109003 65195,105801 C 67595,102593 69251,98890 70040,94963 C 72972,80134 80936,66781 92582,57175 C 104229,47568 118833,42300 133919,42262 C 135915,42262 138001,42262 139996,42262 L 142602 42262 C 146079,42339 149538,41723 152772,40433 C 156006,39150 158952,37231 161435,34786 C 168981,26598 178132,20053 188315,15568 C 198505,11076 209497,8740 220624,8695 Z M 220624 0 C 208310,20 196124,2574 184837,7508 C 173550,12449 163399,19662 155012,28697 C 153427,30403 151502,31751 149365,32669 C 147228,33580 144924,34035 142602,34003 L 140862 34003 C 138552,33875 136236,33875 133919,34003 C 116831,34023 100276,39977 87077,50854 C 73877,61730 64849,76861 61537,93654 C 60954,96247 59799,98679 58162,100771 C 56526,102856 54447,104557 52073,105744 C 37712,113238 25501,124295 16613,137853 C 7726,151419 2451,167037 1303,183227 L 693 191922 L 0 201053 L 101636 201053 L 101636 248704 C 94668,253671 88771,259992 84292,267288 C 79806,274584 76835,282707 75552,291178 C 74269,299648 74699,308291 76816,316588 C 78927,324892 82687,332682 87866,339496 C 93044,346311 99538,352016 106962,356264 C 114387,360518 122587,363232 131077,364246 C 139566,365260 148171,364548 156385,362167 C 164598,359780 172247,355763 178876,350360 L 305769 350360 L 305769 201053 L 369475 201053 L 371907 196529 L 374160 192358 C 385113,171895 387917,148037 382001,125591 C 376091,103145 361910,83779 342306,71394 C 333426,65786 323653,61724 313405,59395 C 310703,58817 308162,57643 305974,55962 C 303780,54274 301989,52125 300738,49654 C 293352,34703 281930,22126 267768,13348 C 253613,4569 237276,-51 220624,0 Z" fill="#FFFFFF"/>
  <path d="M 328331 70033 C 320316,65002 311518,61358 302297,59253 C 298325,58400 294604,56660 291402,54158 C 288200,51655 285601,48466 283811,44815 C 277965,33079 269360,22940 258740,15272 C 248120,7604 235800,2637 222838,802 C 209869,-1040 196657,301 184330,4716 C 171997,9124 160928,16472 152060,26123 C 149346,29017 145996,31243 142274,32617 C 138552,33990 134561,34478 130621,34035 C 114592,32559 98582,37070 85671,46695 C 72754,56327 63854,70399 60665,86210 C 59888,90144 58239,93853 55833,97061 C 53427,100263 50334,102887 46779,104729 C 33708,111531 22600,121573 14515,133906 C 6430,146240 1636,160446 603,175167 L 0 183862 L 89136 183862 L 89136 167948 L 17441 167948 C 19469,157508 23819,147651 30178,139130 C 36531,130608 44732,123633 54158,118731 C 59786,115792 64688,111627 68506,106539 C 72318,101456 74949,95579 76200,89341 C 78542,77252 85306,66478 95162,59124 C 105018,51777 117261,48376 129492,49602 C 135883,50295 142351,49486 148383,47241 C 154409,44988 159831,41363 164207,36640 C 171400,29068 180300,23338 190163,19930 C 200026,16529 210556,15548 220881,17069 C 231199,18596 240997,22587 249461,28702 C 257919,34817 264791,42877 269488,52207 C 272414,57886 276547,62846 281603,66741 C 286660,70630 292512,73357 298736,74730 C 308477,76880 317608,81186 325475,87320 C 333336,93461 339733,101290 344193,110222 C 348653,119161 351059,128978 351245,138963 C 351431,148954 349384,158855 345258,167948 L 299519 167948 L 299519 183688 L 355153 183688 L 357412 179601 C 367281,161037 369771,139418 364374,119090 C 358977,98761 346105,81237 328331,70033 Z" fill="#2D5967" transform="translate(9375,8663)"/>
  <path d="M 15792 15824 L 128626 15824 L 128626 59741 L 170630 59741 L 170630 226091 L 90086 226091 C 87898,231725 84978,237045 81410,241921 L 186775 241921 L 186775 42781 L 144161 0 L 0 0 L 0 140349 C 5024,137943 10331,136165 15792,135049 L 15792 15824 Z M 144770 22959 L 165683 43917 L 144770 43917 L 144770 22959 Z" fill="#2D5967" transform="translate(110318,99744)"/>
  <path d="M 45059 42788 L 42454 42788 L 42454 28959 L 61204 28959 L 61204 13135 L 42454 13135 L 42454 0 L 26656 0 L 26656 13135 L 23967 13135 C 20893,12943 17807,13386 14913,14431 C 12012,15477 9362,17107 7116,19225 C 4870,21336 3080,23890 1854,26726 C 635,29556 0,32610 0,35697 C 0,38783 635,41838 1854,44674 C 3080,47510 4870,50058 7116,52175 C 9362,54286 12012,55923 14913,56969 C 17807,58015 20893,58457 23967,58265 L 26656 58265 L 26656 72093 L 7912 72093 L 7912 87917 L 26656 87917 L 26656 101046 L 42454 101046 L 42454 87834 L 45059 87834 C 51065,87834 56828,85440 61076,81186 C 65323,76925 67711,71156 67711,65137 C 67711,59118 65323,53343 61076,49089 C 56828,44828 51065,42441 45059,42441 L 45059 42788 Z M 23967 42788 C 22177,42788 20457,42088 19180,40837 C 17897,39586 17159,37885 17107,36088 C 17152,34292 17897,32578 19173,31314 C 20450,30050 22170,29331 23967,29306 L 26656 29306 L 26656 42788 L 23967 42788 Z M 45059 72350 L 42454 72350 L 42454 58265 L 45059 58265 C 46875,58265 48620,58990 49904,60280 C 51194,61563 51912,63315 51912,65137 C 51912,66960 51194,68705 49904,69995 C 48620,71278 46875,72003 45059,72003 L 45059 72350 Z" fill="#2D5967" transform="translate(169494,157226)"/>
  <path d="M 110398 55309 C 110398,44368 107164,33678 101094,24579 C 95030,15486 86412,8395 76325,4212 C 66238,22 55136,-1069 44433,1061 C 33723,3198 23886,8466 16167,16198 C 8447,23931 3192,33787 1062,44516 C -1069,55245 22,66365 4199,76472 C 8377,86578 15455,95215 24534,101292 C 33608,107369 44279,110609 55201,110609 C 69831,110590 83858,104757 94208,94388 C 104552,84018 110379,69965 110398,55309 Z M 94600 55309 C 94619,63138 92316,70799 87984,77319 C 83653,83838 77486,88927 70267,91930 C 63048,94933 55098,95729 47430,94202 C 39762,92681 32716,88908 27191,83370 C 21660,77832 17899,70774 16379,63093 C 14858,55405 15647,47442 18644,40210 C 21647,32979 26723,26799 33229,22461 C 39736,18117 47378,15807 55201,15826 C 65647,15826 75670,19984 83062,27389 C 90455,34794 94600,44837 94600,55309 Z" fill="#2D5967" transform="translate(82890,245924)"/>
  <path d="M 42788 0 L 19616 23126 L 11197 14605 L 0 25821 L 19616 45476 L 53895 11127 L 42788 0 Z" fill="#2D5967" transform="translate(111095,281321)"/>
</svg>