<svg xmlns="http://www.w3.org/2000/svg" viewBox="0 0 384986 364694" width="40" height="38">
  <path d="M 250732 356352 C 246702,356352 242833,354755 239977,351905 C 237128,349056 235524,345193 235524,341170 C 235479,340471 235479,339778 235524,339084 L 230916 339084 C 230961,339778 230961,340471 230916,341170 C 230916,345193 229312,349056 226463,351905 C 223608,354755 219745,356352 215709,356352 C 211672,356352 207803,354755 204954,351905 C 202098,349056 200501,345193 200501,341170 C 200456,340471 200456,339778 200501,339084 C 196054,338809 191851,336954 188662,333848 C 185472,330743 183503,326597 183118,322163 L 181032 304812 C 159446,303401 138783,295540 121728,282251 C 104678,268955 92030,250847 85428,230281 L 82213 230281 L 82213 216914 C 80948,210459 80313,203888 80300,197304 C 80300,195572 80300,193923 80300,192274 L 0 192274 L 956 179170 C 2079,163776 7123,148921 15612,136011 C 24095,123106 35748,112576 49448,105422 C 52438,103901 55044,101719 57059,99043 C 59080,96368 60459,93268 61095,89976 C 64233,74236 72735,60061 85158,49878 C 97581,39687 113155,34111 129235,34098 L 135748 34098 L 137924 34098 C 140843,34137 143737,33566 146413,32411 C 149095,31262 151502,29562 153478,27419 C 162853,17273 174551,9554 187577,4928 C 200603,301 214554,-1098 228241,859 C 241928,2816 254928,8059 266126,16151 C 277329,24236 286390,34926 292538,47285 C 294013,50416 296189,53169 298903,55319 C 301617,57469 304794,58970 308182,59695 C 321356,62564 333682,68448 344180,76892 C 354685,85337 363071,96098 368686,108341 C 374301,120578 376989,133951 376534,147407 C 376078,160857 372491,174024 366062,185857 L 362584 192274 L 305750 192274 C 302843,195136 299699,197747 296362,200083 C 295842,218640 290548,236749 280974,252663 L 299487 252663 L 288450 294917 C 287821,299416 285614,303548 282226,306583 C 278838,309612 274487,311351 269937,311492 L 206667 311492 L 206667 314701 L 281154 314701 L 281154 329543 L 266203 337089 L 266203 338738 L 265336 338738 C 265413,339547 265413,340361 265336,341170 C 265317,345084 263790,348845 261069,351674 C 258355,354498 254652,356173 250732,356352 Z" fill="#FFFFFF" transform="translate(4697,3742)"/>
  <path d="M 220662 8683 C 235697,8644 250437,12809 263213,20708 C 275995,28607 286300,39920 292974,53363 C 294783,56982 297389,60152 300597,62629 C 303799,65106 307521,66832 311486,67679 C 320714,69803 329524,73435 337558,78440 C 355249,89669 368038,107149 373370,127388 C 378709,147627 376187,169129 366325,187591 L 364066 191672 L 308445 191672 C 304903,195400 300899,198666 296535,201387 C 296625,222588 290195,243302 278112,260736 L 298884 260736 L 289233 297524 C 288809,301072 287154,304351 284542,306796 C 281937,309241 278555,310691 274981,310890 L 206674 310890 L 207713 322774 L 281847 322774 L 281847 330583 L 266902 338393 L 264117 338393 C 265542,340234 266305,342493 266293,344816 C 266286,346523 265875,348211 265093,349731 C 264310,351259 263180,352574 261794,353575 C 260402,354576 258798,355237 257104,355500 C 255410,355763 253677,355622 252047,355089 C 250417,354557 248941,353646 247729,352433 C 246522,351227 245618,349744 245091,348114 C 244565,346484 244430,344758 244700,343064 C 244969,341377 245643,339779 246651,338393 L 229267 338393 C 230692,340234 231456,342493 231443,344816 C 231456,346536 231058,348236 230281,349776 C 229505,351316 228375,352645 226983,353659 C 225591,354679 223973,355346 222267,355616 C 220566,355879 218821,355744 217184,355205 C 215542,354666 214059,353748 212847,352523 C 211634,351297 210729,349795 210216,348153 C 209696,346510 209581,344771 209869,343071 C 210158,341377 210851,339772 211884,338393 L 205371 338393 C 201964,338175 198755,336737 196330,334344 C 193904,331957 192422,328774 192159,325379 L 189637 304294 C 167743,303581 146638,295971 129338,282554 C 112038,269136 99442,250591 93339,229589 L 91171 229589 L 91171 220913 C 89913,214452 89271,207881 89258,201303 C 89258,198088 89258,195053 89688,191928 L 9388 191928 L 9998 183253 C 10998,168545 15773,154345 23851,142012 C 31937,129672 43051,119617 56141,112802 C 59702,110961 62802,108343 65208,105141 C 67614,101945 69270,98242 70046,94315 C 72998,79557 80968,66261 92608,56693 C 104254,47126 118846,41877 133926,41826 C 135928,41826 138013,41826 140009,41826 L 142621 41826 C 146067,41980 149512,41428 152740,40209 C 155974,38983 158913,37109 161390,34709 C 168955,26541 178119,20015 188315,15536 C 198511,11063 209523,8728 220662,8683 Z M 220662 1 C 208348,13 196169,2555 184882,7463 C 173595,12379 163437,19553 155050,28549 C 153465,30256 151540,31610 149403,32521 C 147260,33432 144950,33881 142621,33843 L 140882 33843 C 138533,33843 136185,33843 133926,33843 C 116819,33843 100244,39785 87038,50642 C 73832,61500 64817,76605 61531,93366 C 60947,95926 59799,98326 58175,100398 C 56558,102465 54498,104152 52143,105340 C 37827,112783 25642,123749 16748,137199 C 7854,150649 2535,166139 1303,182213 L 693 190889 L 0 200347 L 80563 200347 L 80563 201040 C 80563,207881 81205,214708 82476,221433 L 82476 238354 L 86910 238354 C 94032,258439 106763,276079 123588,289195 C 140420,302305 160652,310345 181905,312366 L 183464 326246 C 183926,330994 185845,335480 188957,339099 C 192069,342718 196221,345291 200847,346465 C 201245,350662 202997,354627 205833,357752 C 208676,360877 212455,362995 216607,363797 C 220752,364599 225051,364041 228857,362193 C 232662,360351 235761,357329 237699,353575 C 239541,357425 242589,360569 246388,362527 C 250186,364477 254524,365138 258727,364400 C 262937,363662 266787,361564 269693,358439 C 272594,355308 274391,351316 274808,347068 L 275591 347068 L 275591 343424 L 285761 338393 L 290542 335961 L 290542 314099 L 289149 314099 C 293455,310197 296330,304980 297318,299263 L 306879 262905 L 309657 252061 L 293057 252061 C 300372,237777 304550,222100 305313,206071 C 307739,204332 310036,202420 312179,200347 L 369456 200347 L 371888 195836 L 374147 191672 C 385068,171285 387860,147530 381963,125174 C 376059,102818 361903,83516 342339,71151 C 333432,65568 323646,61519 313399,59177 C 310691,58599 308150,57431 305955,55750 C 303761,54069 301964,51919 300706,49462 C 293339,34562 281930,22030 267781,13290 C 253632,4544 237308,-57 220662,1 Z" fill="#FFFFFF"/>
  <path d="M 17377 0 L 0 0 C 7001,16113 17974,30191 31892,40933 C 45810,51675 62224,58727 79607,61428 L 77605 44860 C 64874,42287 52868,36929 42454,29171 C 32039,21419 23479,11454 17377,0 Z" fill="#2D5967" transform="translate(98037,241479)"/>
  <path d="M 0 16228 L 20425 16228 L 23903 19873 L 25205 21176 C 38552,16113 52971,14528 67094,16575 C 70271,11474 74070,6783 78395,2605 C 70874,854 63174,-19 55454,0 C 35800,26 16555,5653 0,16228 Z" fill="#2D5967" transform="translate(137577,97350)"/>
  <path d="M 0 33316 L 18249 33316 C 23807,22927 27509,11653 29203,0 C 23665,2554 17826,4389 11820,5461 C 9523,15362 5525,24782 0,33316 Z" fill="#2D5967" transform="translate(266293,215619)"/>
  <path d="M 328350 69516 C 320335,64472 311518,60834 302278,58754 C 298312,57907 294591,56181 291382,53704 C 288180,51221 285575,48058 283766,44439 C 277888,32766 269257,22698 258618,15094 C 247985,7484 235659,2575 222696,772 C 209741,-1031 196535,335 184221,4757 C 171907,9172 160857,16506 152009,26131 C 149307,29025 145970,31252 142261,32638 C 138552,34024 134568,34531 130628,34114 C 114656,32734 98729,37284 85902,46883 C 73081,56489 64245,70478 61101,86174 C 60216,90062 58470,93701 55987,96826 C 53504,99951 50353,102473 46759,104218 C 33708,111013 22606,121030 14528,133318 C 6455,145606 1662,159756 610,174412 L 0 183094 L 69963 183094 L 69963 167385 L 17820 167385 C 19854,156990 24204,147185 30557,138696 C 36903,130213 45085,123263 54498,118361 C 60139,115447 65047,111289 68853,106213 C 72658,101138 75269,95260 76482,89035 C 78876,77075 85613,66423 95399,59114 C 105185,51811 117332,48378 129498,49469 C 135896,50207 142377,49424 148415,47191 C 154453,44965 159882,41346 164265,36629 C 171445,29070 180345,23353 190208,19952 C 200071,16551 210607,15575 220925,17096 C 231250,18617 241055,22602 249506,28704 C 257963,34807 264823,42854 269507,52158 C 272350,57888 276450,62906 281507,66827 C 286563,70748 292447,73475 298710,74809 C 306231,76452 313405,79385 319918,83485 C 333586,92116 343680,105373 348338,120838 C 353003,136296 351919,152915 345297,167648 L 322697 167648 C 320496,173237 317576,178512 314008,183350 L 354421 183350 L 356680 179276 C 366767,160802 369450,139190 364188,118816 C 358933,98443 346118,80822 328350,69516 Z" fill="#2D5967" transform="translate(9382,8597)"/>
  <path d="M 15035 15446 L 20335 15446 L 28330 83125 C 28613,86500 30101,89664 32527,92038 C 34952,94412 38154,95836 41543,96055 L 48056 96055 C 47048,97434 46381,99039 46111,100726 C 45836,102414 45970,104146 46496,105770 C 47023,107400 47927,108882 49140,110095 C 50347,111307 51829,112219 53452,112751 C 55082,113284 56815,113419 58509,113156 C 60203,112893 61807,112232 63199,111231 C 64586,110229 65721,108914 66504,107393 C 67287,105866 67698,104185 67698,102472 C 67711,100149 66947,97890 65529,96055 L 82912 96055 C 81898,97434 81231,99039 80961,100726 C 80692,102414 80820,104146 81346,105770 C 81873,107400 82777,108882 83990,110095 C 85196,111307 86679,112219 88309,112751 C 89932,113284 91665,113419 93359,113156 C 95053,112893 96663,112232 98049,111231 C 99442,110229 100571,108914 101354,107393 C 102137,105866 102547,104185 102547,102472 C 102567,100149 101797,97890 100379,96055 L 103157 96055 L 118108 88502 L 118108 80693 L 43885 80693 L 42845 68809 L 110723 68809 C 114290,68610 117678,67160 120284,64715 C 122889,62270 124551,58991 124974,55443 L 134619 18655 L 36672 18655 L 35806 11975 C 35498,8677 33958,5616 31500,3396 C 29036,1175 25821,-37 22504,1 L 0 1 L 0 7810 L 15035 15356 L 15035 15446 Z M 115760 34100 L 109414 52670 L 41363 52670 L 38148 33927 L 115760 34100 Z" fill="#2D5967" transform="translate(163829,242344)"/>
  <path d="M 81873 104203 L 81873 21086 L 61794 0 L 0 0 L 0 104120 L 81873 104203 Z M 15817 15792 L 49628 15792 L 49628 33143 L 66228 33143 L 66228 88411 L 15734 88411 L 15734 15792 L 15817 15792 Z" fill="#2D5967" transform="translate(91164,125469)"/>
  <path d="M 0 59260 C -19,71009 3452,82495 9978,92268 C 16504,102041 25789,109658 36653,114162 C 47523,118667 59478,119847 71022,117563 C 82559,115272 93160,109619 101476,101316 C 109799,93012 115458,82424 117749,70906 C 120046,59388 118859,47446 114348,36595 C 109837,25751 102208,16478 92415,9965 C 82630,3452 71124,-19 59356,0 C 43622,26 28536,6276 17409,17383 C 6282,28491 19,43551 0,59260 Z M 59356 15882 C 67954,15882 76354,18423 83502,23191 C 90644,27958 96214,34734 99506,42659 C 102791,50590 103651,59311 101977,67724 C 100302,76142 96163,83875 90086,89939 C 84009,96009 76264,100141 67832,101810 C 59407,103485 50667,102625 42730,99346 C 34786,96060 28003,90497 23223,83368 C 18449,76232 15901,67845 15901,59260 C 15882,53549 16985,47889 19161,42608 C 21336,37320 24532,32521 28568,28472 C 32604,24429 37404,21214 42685,19026 C 47972,16832 53639,15708 59356,15708 L 59356 15882 Z" fill="#2D5967" transform="translate(205981,91883)"/>
  <path d="M 0 24641 C 90,28696 1732,32559 4601,35434 C 7463,38309 11326,39977 15381,40086 L 15381 44251 L 4088 44251 L 4088 58047 L 15124 58047 L 15124 65946 L 28940 65946 L 28940 58047 C 33053,57912 36955,56192 39823,53247 C 42691,50302 44302,46362 44327,42255 L 44327 41825 C 44193,37782 42537,33939 39682,31077 C 36826,28208 32989,26527 28940,26380 L 28940 22215 L 39977 22215 L 39977 8676 L 28940 8676 L 28940 0 L 15124 0 L 15124 8676 C 11037,8900 7187,10678 4370,13649 C 1559,16620 -6,20553 0,24641 Z M 13732 24641 C 13764,24172 13937,23717 14232,23344 C 14528,22972 14932,22703 15381,22562 L 15381 26553 C 14893,26495 14444,26277 14091,25931 C 13745,25584 13527,25128 13469,24641 L 13732 24641 Z M 31115 42518 C 31090,42961 30929,43384 30647,43724 C 30364,44071 29979,44315 29550,44424 L 29550 40522 C 29877,40741 30133,41036 30300,41389 C 30467,41742 30538,42127 30506,42518 L 31115 42518 Z" fill="#2D5967" transform="translate(243346,117660)"/>
</svg>