<svg xmlns="http://www.w3.org/2000/svg" viewBox="0 0 385011 368966" width="40" height="39">
  <path d="M 217146 335734 L 186088 335734 C 163629,335734 90093,333367 90093,303111 L 89451 191902 L 0 191902 L 963 178746 C 2054,163322 7123,148437 15593,135510 C 24063,122584 35742,112046 49474,104900 C 52426,103389 54993,101222 57046,98563 C 59035,95903 60383,92822 61024,89552 C 64168,73763 72639,59543 85087,49322 C 97536,39100 113129,33511 129235,33509 C 131288,33509 133535,33509 135588,33509 L 137898 33509 C 140722,33545 143545,33004 146176,31919 C 148807,30833 151181,29226 153170,27195 C 162538,17114 174217,9453 187180,4867 C 200142,282 214066,-1091 227669,866 C 241337,2823 254235,8051 265401,16104 C 276566,24156 285614,34793 291774,47103 C 293314,50174 295560,52852 298255,54933 C 301014,57016 304223,58447 307560,59119 C 320649,62134 332906,68115 343301,76601 C 353696,85087 362039,95851 367621,108062 C 373204,120273 375963,133606 375578,147033 C 375193,160459 371728,173619 365439,185499 L 361974 191902 L 281443 191902 L 281443 222686 L 344521 245927 L 344521 335471 L 278170 359939 L 217146 335734 Z" fill="#FFFFFF" transform="translate(4748,4375)"/>
  <path d="M 220547 8771 C 235562,8724 250321,12889 263091,20796 C 275860,28702 286191,40033 292865,53500 C 294662,57109 297292,60266 300500,62739 C 303709,65212 307367,66939 311345,67795 C 320649,69880 329569,73527 337654,78582 C 355365,89791 368134,107283 373460,127540 C 378786,147797 376284,169317 366337,187773 L 364156 191895 L 281764 191895 L 281764 231011 L 282983 230573 L 344841 253376 L 344841 336779 L 282983 359585 L 222728 335727 L 190837 335727 C 181404,335727 99204,334938 99204,307487 L 98627 191895 L 9497 191895 L 10074 183125 C 11165,168463 15914,154317 23999,142034 C 32084,129751 43185,119743 56212,112963 C 59805,111174 62885,108602 65324,105443 C 67698,102283 69366,98617 70200,94720 C 72254,84442 76681,74805 83290,66623 C 89836,58442 98242,51955 107803,47711 C 116145,44122 125064,42271 134112,42273 L 140208 42273 L 142839 42273 C 146369,42315 149833,41619 153042,40229 C 156314,38839 159202,36787 161576,34205 C 169148,26163 178324,19757 188463,15382 C 198601,11007 209510,8758 220547,8771 Z M 220547 0 C 208226,31 196035,2584 184805,7501 C 173512,12419 163308,19597 154903,28592 C 153363,30282 151437,31623 149320,32529 C 147202,33436 144956,33887 142646,33854 L 140785 33854 C 138539,33854 136229,33854 133984,33854 C 116915,33802 100295,39675 87076,50471 C 73858,61267 64810,76317 61409,93054 C 60896,95657 59805,98107 58137,100219 C 56533,102331 54479,104049 52105,105244 C 37731,112762 25539,123832 16619,137402 C 7764,150973 2438,166593 1347,182775 L 706 191545 L 0 200666 L 89836 200666 L 90477 307576 C 90477,340906 160614,344499 190837,344499 L 220996 344499 L 279774 367741 L 282854 368966 L 285998 367831 L 347408 345025 L 353183 342920 L 353183 247236 L 347857 245570 L 290555 224433 L 290555 200666 L 369546 200666 L 371984 196106 L 374166 191895 C 385139,171467 387898,147646 381931,125245 C 376027,102844 361782,83534 342146,71216 C 333290,65576 323473,61539 313206,59288 C 310511,58703 308008,57526 305827,55841 C 303645,54157 301913,52008 300629,49553 C 293249,34633 281828,22081 267710,13322 C 253530,4563 237230,-52 220547,0 Z" fill="#FFFFFF"/>
  <path d="M 328029 70300 C 319944,65244 311024,61597 301720,59513 C 297742,58607 294020,56820 290812,54285 C 287603,51750 285036,48531 283304,44866 C 277464,33147 268930,23015 258278,15343 C 247690,7671 235434,2688 222472,824 C 209510,-1040 196291,271 183971,4642 C 171651,9015 160550,16318 151694,25922 C 149063,28749 145790,30936 142133,32319 C 138539,33702 134689,34243 130775,33903 C 114669,32309 98498,36828 85473,46569 C 72511,56311 63591,70568 60639,86525 C 59869,90461 58265,94175 55826,97382 C 53452,100588 50308,103205 46779,105031 C 33688,111811 22652,121820 14566,134102 C 6481,146385 1668,160532 642,175194 L 0 183964 L 77195 183964 L 77195 167563 L 17389 167563 C 19379,157160 23679,147346 30031,138855 C 36384,130364 44533,123418 53966,118537 C 59613,115610 64554,111449 68340,106363 C 72189,101278 74821,95397 76039,89157 C 77579,81367 80916,74060 85922,67859 C 90863,61657 97215,56748 104466,53549 C 112166,50147 120508,48788 128850,49602 C 135203,50242 141620,49412 147587,47176 C 153555,44940 158881,41358 163245,36710 C 170432,28992 179350,23124 189233,19610 C 199179,16095 209767,15038 220162,16530 C 230622,18022 240503,22019 249038,28176 C 257572,34334 264438,42469 269123,51883 C 272010,57597 276117,62601 281186,66529 C 286255,70458 292095,73214 298383,74598 C 308073,76739 317249,81028 325077,87149 C 332970,93271 339387,101070 343814,109979 C 348306,118888 350681,128682 350873,138644 C 351065,148607 349076,158487 344970,167563 L 284010 167563 L 284010 183262 L 354146 183262 L 356327 179140 C 366210,160760 368712,139351 363450,119180 C 358252,99008 345547,81556 328029,70300 Z" fill="#2D5967" transform="translate(9561,8636)"/>
  <path d="M 111846 190317 C 105621,190754 98884,190933 91761,190933 C 47934,190933 20021,182598 15978,177689 L 15978 146553 C 40426,156989 84830,157340 91568,157340 C 94135,157340 102092,157340 112295,156726 L 112295 140940 C 105878,140940 98948,141642 91568,141642 C 47741,141642 19828,133309 15721,128398 L 15721 95773 C 40105,106297 84830,106647 91568,106647 C 113386,106758 135075,104374 156314,99544 L 177362 91563 L 183201 89370 L 183201 27977 C 183201,789 101001,0 91568,0 C 82199,0 0,789 0,27977 L 0 130152 L 642 178478 C 642,205929 82842,206719 92210,206719 C 94777,206719 102413,206719 112295,206013 L 112295 190317 L 111846 190317 Z M 15336 77705 L 15336 44992 C 39720,55517 84510,55868 91247,55868 C 97985,55868 142711,55868 167031,44992 L 167031 77705 C 162924,82617 135203,90948 91247,90948 C 47292,90948 19764,82617 15336,77705 Z M 166132 27890 C 160100,32626 134561,40168 91247,40168 C 47934,40168 22395,32626 16235,27890 C 22395,23154 47934,15612 91247,15612 C 134561,15612 160357,23154 166453,27890 L 166132 27890 Z" fill="#2D5967" transform="translate(98691,129015)"/>
  <path d="M 0 22803 L 0 106122 L 60318 129011 L 122113 106212 L 122113 22803 L 60318 0 L 0 22803 Z M 15722 95246 L 15722 40081 L 53003 55517 L 53003 109453 L 15722 95246 Z M 68340 109106 L 68340 54990 L 105878 39467 L 105878 95246 L 68340 109106 Z M 91312 28416 L 60318 41308 L 29261 28504 L 60318 16752 L 91312 28416 Z" fill="#2D5967" transform="translate(222728,230573)"/>
</svg>