<svg xmlns="http://www.w3.org/2000/svg" viewBox="0 0 385009 364687" width="40" height="38">
  <path d="M 192371 356833 C 181930,356859 171586,354799 161955,350776 C 152317,346746 143584,340836 136255,333393 L 65741 333393 L 65741 193070 L 0 193070 L 956 179959 C 2066,164513 7103,149607 15587,136659 C 24076,123710 35729,113149 49436,105979 C 52426,104451 55031,102268 57059,99592 C 59086,96915 60479,93815 61146,90523 C 63238,79458 67987,69069 74981,60250 C 81982,51431 91010,44448 101303,39900 C 110113,36045 119616,34035 129229,33996 C 131398,33996 133567,33996 135736,33996 L 137988 33996 C 140901,34030 143789,33453 146458,32302 C 149134,31150 151540,29449 153517,27310 C 162885,17194 174570,9504 187558,4898 C 200546,291 214464,-1094 228099,861 C 241742,2816 254710,8052 265889,16122 C 277067,24191 286127,34853 292287,47194 C 293667,50377 295765,53199 298415,55443 C 301059,57686 304184,59290 307553,60132 C 320714,63025 333034,68936 343532,77400 C 354030,85863 362424,96649 368057,108910 C 373685,121170 376399,134571 375988,148060 C 375571,161548 372036,174756 365657,186645 L 362192 193070 L 318827 193070 L 318827 333393 L 248402 333393 C 241100,340849 232379,346765 222754,350789 C 213129,354819 202798,356872 192371,356833 Z" fill="#FFFFFF" transform="translate(4684,3510)"/>
  <path d="M 220643 8684 C 235678,8634 250430,12805 263212,20726 C 276001,28645 286313,39996 292980,53489 C 294803,57126 297414,60308 300629,62802 C 303837,65296 307566,67039 311538,67903 C 320778,69931 329588,73577 337558,78670 C 355288,89881 368115,107401 373460,127702 C 378799,148002 376265,169575 366357,188077 L 364098 192245 L 319257 192245 L 319257 332564 L 251521 332564 C 244552,339963 236140,345854 226810,349883 C 217486,353913 207431,355992 197273,355992 C 187109,355992 177060,353913 167730,349883 C 158400,345854 149994,339963 143019,332564 L 74763 332564 L 74763 192245 L 9369 192245 L 9972 183561 C 11031,168871 15824,154695 23903,142385 C 31982,130073 43070,120036 56115,113228 C 59683,111373 62789,108741 65208,105525 C 67621,102309 69289,98592 70078,94646 C 73005,79842 80968,66509 92602,56915 C 104242,47322 118840,42061 133913,42027 C 135992,42027 137988,42027 139983,42027 L 142672 42027 C 146131,42161 149577,41582 152798,40328 C 156019,39073 158952,37169 161409,34733 C 168975,26562 178138,20033 188328,15552 C 198518,11072 209516,8733 220643,8684 Z M 220643 1 C 208335,17 196163,2569 184882,7499 C 173601,12428 163456,19630 155076,28655 C 153465,30322 151540,31650 149410,32559 C 147280,33469 144988,33942 142672,33951 L 140850 33951 C 138508,33951 136255,33951 133913,33951 C 116876,33936 100366,39827 87179,50623 C 73993,61419 64945,76453 61582,93171 C 61043,95843 59901,98357 58246,100523 C 56597,102689 54473,104451 52040,105674 C 37673,113164 25462,124216 16581,137777 C 7700,151337 2438,166951 1303,183128 L 693 191811 L 0 200928 L 66087 200928 L 66087 341246 L 139207 341246 C 154717,356281 175462,364687 197055,364687 C 218647,364687 239393,356281 254903,341246 L 327933 341246 L 327933 200928 L 369475 200928 L 371907 196412 L 374160 192245 C 385094,171786 387885,147943 381982,125506 C 376078,103069 361910,83700 342332,71289 C 333445,65660 323640,61634 313360,59393 C 310665,58802 308137,57614 305962,55916 C 303786,54218 302015,52053 300783,49582 C 293391,34644 281962,22080 267801,13316 C 253632,4552 237295,-60 220643,1 Z" fill="#FFFFFF"/>
  <path d="M 328369 69987 C 320393,64893 311589,61249 302349,59220 C 298377,58356 294649,56613 291434,54119 C 288225,51625 285614,48443 283785,44806 C 277105,31287 266767,19918 253947,11996 C 241132,4075 226348,-82 211281,1 C 200148,51 189149,2388 178960,6869 C 168770,11350 159606,17879 152041,26050 C 149314,28927 145964,31141 142255,32526 C 138540,33910 134561,34428 130621,34039 C 114592,32524 98576,37012 85665,46636 C 72754,56259 63861,70333 60716,86138 C 59921,90083 58259,93800 55840,97016 C 53420,100232 50314,102864 46747,104719 C 33701,111527 22613,121564 14541,133875 C 6462,146186 1668,160361 610,175053 L 0 183735 L 53600 183735 L 53600 167759 L 17435 167759 C 19488,157351 23845,147539 30198,139046 C 36551,130554 44726,123601 54120,118699 C 59780,115757 64695,111573 68513,106461 C 72324,101349 74936,95440 76149,89177 C 78491,77114 85254,66363 95104,59037 C 104960,51710 117197,48337 129402,49582 C 135793,50277 142255,49470 148281,47224 C 154306,44978 159722,41355 164098,36644 C 171285,29043 180191,23285 190067,19856 C 199942,16427 210498,15428 220842,16944 C 231186,18460 241010,22445 249494,28564 C 257970,34683 264855,42755 269565,52100 C 272408,57850 276521,62882 281578,66821 C 286641,70760 292525,73504 298794,74849 C 306295,76496 313456,79433 319957,83532 C 333624,92186 343718,105485 348383,120987 C 353055,136489 351983,153157 345367,167933 L 321689 167933 L 321689 183735 L 354909 183735 L 357162 179568 C 367121,161049 369687,139435 364342,119094 C 358997,98753 346144,81202 328369,69987 Z" fill="#2D5967" transform="translate(9362,8680)"/>
  <path d="M 230358 22489 L 100263 22489 L 87776 5644 C 86461,3889 84760,2465 82803,1485 C 80846,505 78690,-3 76495,0 L 14136 0 C 10402,0 6821,1479 4171,4114 C 1521,6750 26,10328 0,14066 L 0 195199 L 52560 195199 C 48903,190309 45797,185041 43282,179478 L 15786 179478 L 15786 60695 L 76495 60695 C 78683,60692 80840,60180 82797,59201 C 84754,58221 86461,56801 87776,55051 L 100347 38293 L 228799 38293 L 228799 179478 L 201219 179478 C 198698,185022 195617,190290 192024,195199 L 244494 195199 L 244494 36296 C 244405,32602 242877,29091 240234,26511 C 237596,23932 234048,22488 230358,22489 Z M 75199 44978 L 15786 44978 L 15786 15803 L 75199 15803 L 86127 30477 L 75199 44978 Z" fill="#2D5967" transform="translate(74762,137372)"/>
  <path d="M 149877 75022 C 149877,60180 145475,45672 137242,33333 C 129002,20994 117292,11378 103592,5702 C 89898,27 74825,-1454 60285,1448 C 45750,4350 32397,11503 21918,22004 C 11446,32505 4311,45881 1429,60439 C -1452,74998 43,90085 5728,103791 C 11414,117498 21033,129209 33366,137441 C 45706,145674 60201,150063 75024,150044 C 94878,149999 113904,142074 127931,128015 C 141958,113956 149851,94898 149877,75022 Z M 75024 134239 C 63326,134239 51891,130768 42164,124261 C 32436,117754 24851,108508 20378,97683 C 15899,86863 14725,74956 17010,63469 C 19294,51982 24928,41430 33199,33148 C 41470,24866 52013,19226 63487,16941 C 74960,14656 86850,15829 97663,20311 C 108469,24793 117709,32384 124209,42122 C 130710,51860 134175,63310 134175,75022 C 134155,90721 127912,105768 116824,116869 C 105735,127970 90707,134220 75024,134239 Z" fill="#2D5967" transform="translate(122030,205968)"/>
  <path d="M 38597 90823 L 38597 79972 L 40157 79972 C 43057,80158 45964,79747 48697,78765 C 51431,77777 53933,76244 56051,74254 C 58169,72265 59856,69865 61011,67196 C 62166,64526 62763,61649 62763,58741 C 62763,55833 62166,52956 61011,50287 C 59856,47618 58169,45215 56051,43225 C 53933,41236 51431,39702 48697,38719 C 45964,37736 43057,37325 40157,37511 L 38597 37511 L 38597 26657 L 57244 26657 L 57244 10941 L 38597 10941 L 38597 0 L 22812 0 L 22812 10941 L 21163 10941 C 15548,10941 10170,13173 6199,17146 C 2233,21119 0,26508 0,32127 C 0,37746 2233,43135 6199,47109 C 10170,51082 15548,53314 21163,53314 L 22812 53314 L 22812 64168 L 4075 64168 L 4075 79972 L 22812 79972 L 22812 90823 L 38597 90823 Z M 21253 37511 C 19841,37534 18474,37001 17454,36027 C 16427,35052 15830,33713 15785,32301 C 15805,30840 16382,29442 17396,28393 C 18416,27344 19789,26723 21253,26657 L 22895 26657 L 22895 37511 L 21253 37511 Z M 38597 53314 L 40157 53314 C 41600,53336 42973,53920 43994,54941 C 45014,55962 45598,57340 45624,58785 C 45598,60220 45014,61590 43987,62596 C 42967,63604 41594,64168 40157,64168 L 38597 64168 L 38597 53314 Z" fill="#2D5967" transform="translate(166350,235838)"/>
</svg>