<svg xmlns="http://www.w3.org/2000/svg" viewBox="0 0 385019 367904" width="40" height="39">
  <path d="M 167236 332336 L 65715 332336 L 65715 192147 L 0 192147 L 956 178960 C 2066,163541 7103,148660 15587,135737 C 24069,122820 35716,112283 49416,105141 C 52413,103601 55018,101406 57046,98718 C 59073,96029 60466,92917 61121,89612 C 63212,78556 67961,68180 74955,59370 C 81949,50559 90978,43578 101264,39041 C 110107,35210 119635,33234 129267,33228 C 131430,33228 133599,33228 135678,33228 L 137936 33228 C 140856,33266 143757,32695 146445,31546 C 149134,30391 151553,28691 153542,26548 C 161589,18103 171278,11391 182014,6829 C 192743,2266 204300,-57 215959,1 C 231802,-50 247337,4345 260813,12687 C 274282,21029 285145,32984 292165,47191 C 293660,50206 295804,52844 298441,54929 C 301085,57015 304146,58491 307424,59248 C 320573,62168 332867,68097 343339,76573 C 353812,85050 362180,95837 367781,108093 C 373383,120349 376072,133741 375636,147210 C 375193,160679 371638,173865 365247,185730 L 361782 192147 L 318430 192147 L 318430 332336 L 217345 332336 L 192293 357490 L 167236 332336 Z" fill="#FFFFFF" transform="translate(4678,4338)"/>
  <path d="M 220637 8677 C 235665,8632 250411,12796 263187,20708 C 275969,28620 286274,39959 292942,53440 C 294764,57072 297376,60255 300584,62745 C 303799,65235 307521,66980 311493,67840 C 323986,70612 335665,76246 345611,84299 C 355564,92346 363514,102593 368840,114234 C 374166,125880 376720,138598 376309,151394 C 375892,164189 372523,176714 366460,187989 L 364201 192153 L 319212 192153 L 319212 332336 L 220290 332336 L 196971 355674 L 173389 332336 L 74731 332336 L 74731 192153 L 9362 192153 L 9972 183478 C 11069,168790 15888,154621 23973,142314 C 32058,130006 43141,119964 56179,113123 C 59728,111282 62821,108670 65221,105468 C 67621,102273 69270,98570 70046,94649 C 72947,79826 80910,66473 92563,56886 C 104222,47293 118853,42057 133945,42076 L 140009 42076 L 142614 42076 C 146080,42166 149532,41557 152766,40292 C 155993,39028 158939,37129 161422,34703 C 168988,26541 178145,20015 188334,15543 C 198518,11064 209510,8728 220637,8677 Z M 220637 1 C 208323,20 196137,2568 184850,7489 C 173563,12418 163405,19611 155012,28633 C 153439,30340 151514,31700 149378,32611 C 147241,33523 144937,33972 142614,33920 L 140792 33920 C 138540,33920 136197,33920 133945,33920 C 116889,33837 100334,39696 87128,50489 C 73915,61288 64874,76349 61550,93084 C 61011,95753 59876,98268 58226,100431 C 56571,102593 54447,104352 52015,105577 C 37654,113079 25455,124141 16575,137700 C 7694,151259 2438,166871 1303,183041 L 693 191717 L 0 200829 L 66061 200829 L 66061 341011 L 170098 341011 L 190901 361827 L 196971 367904 L 203125 361827 L 223845 341011 L 327881 341011 L 327881 200829 L 369405 200829 L 371830 196228 L 374089 192063 C 380788,179615 384510,165780 384972,151644 C 385428,137508 382604,123461 376726,110602 C 370849,97742 362070,86423 351078,77529 C 340093,68636 327195,62411 313399,59338 C 310703,58760 308169,57579 305993,55879 C 303818,54185 302054,52016 300828,49539 C 293436,34601 281994,22043 267820,13284 C 253645,4525 237295,-76 220637,1 Z" fill="#FFFFFF"/>
  <path d="M 328748 69923 C 320759,64873 311961,61234 302740,59168 C 298768,58302 295040,56563 291832,54073 C 288623,51577 286012,48401 284189,44769 C 277477,31191 267076,19794 254178,11870 C 241280,3951 226406,-162 211274,5 C 200154,56 189156,2392 178972,6864 C 168782,11343 159626,17863 152066,26032 C 149339,28900 145990,31114 142281,32500 C 138572,33879 134594,34399 130653,34008 C 114618,32493 98601,36972 85678,46585 C 72754,56197 63854,70263 60691,86061 C 59914,89982 58259,93684 55859,96880 C 53459,100082 50366,102694 46817,104535 C 33779,111376 22696,121418 14611,133725 C 6526,146033 1707,160201 610,174890 L 0 183565 L 54357 183565 L 54357 167690 L 17428 167690 C 19475,157282 23839,147464 30185,138968 C 36531,130466 44706,123503 54101,118588 C 59741,115649 64656,111478 68481,106390 C 72305,101301 74949,95423 76207,89180 C 78562,77148 85306,66426 95130,59097 C 104954,51769 117152,48362 129351,49536 C 135736,50223 142197,49414 148216,47175 C 154235,44929 159645,41310 164027,36613 C 171201,29002 180102,23227 189977,19794 C 199853,16355 210409,15354 220759,16868 C 231103,18383 240927,22374 249403,28495 C 257880,34624 264759,42703 269450,52052 C 272370,57744 276508,62717 281578,66612 C 286641,70513 292506,73240 298749,74607 C 308490,76750 317621,81049 325488,87178 C 333355,93306 339753,101115 344212,110041 C 348672,118960 351085,128765 351277,138737 C 351464,148715 349429,158603 345303,167690 L 321208 167690 L 321208 183475 L 354755 183475 L 357007 179311 C 366966,160875 369585,139353 364342,119063 C 359106,98773 346388,81223 328748,69923 Z" fill="#2D5967" transform="translate(9362,8672)"/>
  <path d="M 230346 22555 L 100308 22555 L 87391 5724 C 86063,3966 84343,2535 82373,1540 C 80409,546 78234,19 76033,0 L 14130 0 C 10382,0 6789,1489 4139,4139 C 1489,6796 0,10389 0,14143 L 0 195098 L 80801 195098 L 65022 179396 L 15779 179396 L 15779 60723 L 76463 60723 C 78651,60716 80801,60203 82758,59221 C 84715,58246 86415,56828 87737,55089 L 100392 38341 L 228703 38341 L 228703 179396 L 179460 179396 L 163681 195098 L 244482 195098 L 244482 36262 C 244366,32585 242826,29100 240189,26540 C 237552,23986 234022,22555 230346,22555 Z M 75250 44937 L 15779 44937 L 15779 15786 L 75250 15786 L 86088 30448 L 75250 44937 Z" fill="#2D5967" transform="translate(74731,137238)"/>
  <path d="M 96233 110087 L 84009 122228 L 84009 106873 L 84009 84060 L 106808 84060 L 122157 84060 L 109933 96291 L 121118 107392 L 152323 76251 L 121118 44937 L 109933 56128 L 122157 68269 L 106032 68269 L 84009 68269 L 84009 46323 L 84009 30191 L 96233 42422 L 107328 31231 L 76123 0 L 44911 31231 L 56096 42422 L 68230 30191 L 68230 46323 L 68230 68269 L 46297 68269 L 30172 68269 L 42313 56128 L 31212 44937 L 0 76251 L 31212 107392 L 42313 96291 L 30172 84060 L 45431 84060 L 68230 84060 L 68230 106873 L 68230 122228 L 56096 110087 L 44911 121188 L 76123 152419 L 107328 121188 L 96233 110087 Z" fill="#2D5967" transform="translate(120848,203255)"/>
</svg>