<svg xmlns="http://www.w3.org/2000/svg" viewBox="0 0 385010 347581" width="40" height="36">
  <path d="M 18217 299583 C 8278,299583 0,291305 0,281379 L 0 18211 C 0,8278 8278,0 18217,0 L 180500 0 C 190433,0 198717,8278 198717,18211 L 198717 282206 C 198717,292133 190433,300411 180500,300411 L 18217 299583 Z" fill="#FFFFFF" transform="translate(92730,23993)"/>
  <path d="M 185472 8271 C 192922,8271 199544,14893 199544,22343 L 199544 286339 C 199544,293782 192922,300405 185472,300405 L 22356 300405 C 14906,300405 8284,293782 8284,286339 L 8284 22343 C 8284,14893 14906,8271 22356,8271 L 185472 8271 Z M 185472 0 L 22356 0 C 9939,0 0,9927 0,22343 L 0 286339 C 0,298749 9939,308682 22356,308682 L 184644 308682 C 197061,308682 207001,298749 207001,286339 L 207001 22343 C 207001,9927 197061,0 185472,0 Z" fill="#FFFFFF" transform="translate(88591,19873)"/>
  <path d="M 69552 339303 C 53818,339303 43057,335165 36435,328549 C 29806,321099 26495,309510 26495,292961 L 26495 196137 L 0 175449 L 0 163860 L 26495 143172 L 26495 47177 C 26495,30621 29806,19039 36435,11589 C 43057,4139 53818,0 68724,0 L 70380 0 C 75347,0 80313,0 86114,828 L 89425 1656 L 89425 20694 L 87769 20694 L 82803 20694 C 80313,20694 77830,20694 75347,19867 C 73691,19867 71208,19867 69552,19867 C 63758,19039 57963,20694 54646,23999 C 52162,26482 49679,31449 49679,46349 L 49679 152272 L 25667 169655 L 49679 187860 L 49679 293789 C 49679,307861 52162,313649 54646,315304 C 57963,318615 63758,320271 70380,320271 C 72035,320271 73691,320271 76174,320271 C 78658,320271 81141,320271 83630,319443 L 88597 319443 L 90253 319443 L 90253 338476 L 86941 338476 C 81141,339303 76174,339303 71208,339303 C 70380,339303 69552,339303 69552,339303 Z" fill="#FFFFFF" transform="translate(4139,4139)"/>
  <path d="M 74519 8278 C 79486,8278 84452,8278 89419,9105 L 89419 19860 C 88591,19860 88591,19860 87763,19860 C 85280,19860 82797,19860 80313,19032 C 77830,19032 76174,19032 74519,19032 C 66241,19032 60440,21516 55474,24827 C 51335,28966 49679,37243 49679,50481 L 49679 153927 L 22356 173787 L 49679 193654 L 49679 297100 C 49679,309510 52163,317788 56301,321927 C 60440,326066 66241,328542 74519,328542 C 76174,328542 77830,328542 80313,328542 C 82797,328542 85280,328542 87763,327721 C 88591,327721 88591,327721 89419,327721 L 89419 338476 C 83624,339303 78658,339303 74519,339303 L 73691 339303 L 72863 339303 C 58785,339303 49679,335992 43885,329370 C 38084,322754 35600,311993 35600,296272 L 35600 198614 L 8278 177926 L 8278 170483 L 34773 148961 L 34773 51309 C 34773,35588 37256,24827 43057,18205 C 49679,11589 58785,8278 72863,8278 L 73691 8278 C 73691,8278 73691,8278 74519,8278 Z M 74519 0 L 72863 0 C 56301,0 44713,4139 37256,12417 C 30634,20688 26495,33105 26495,51309 L 26495 144828 L 3311 163033 L 0 166344 L 0 170483 L 0 177926 L 0 182065 L 3311 184548 L 26495 202753 L 26495 296272 C 26495,314477 29806,326893 37256,335165 C 44713,343442 56301,347581 72863,347581 L 73691 347581 L 74519 347581 C 79486,347581 84452,347581 90253,346753 L 97703 345926 L 97703 338476 L 97703 327721 L 97703 318616 L 96047 318616 L 86935 319443 C 84452,319443 81969,319443 79486,320271 C 77830,320271 75347,320271 74519,320271 C 68725,320271 63751,318616 61268,316132 C 60440,315304 57129,311166 57129,297100 L 57129 193654 L 57129 189515 L 53818 187032 L 36428 173787 L 54646 160549 L 57957 158066 L 57957 153927 L 57957 50481 C 57957,35588 61268,32277 62096,31449 C 64586,28966 68725,27310 74519,27310 C 76174,27310 77830,27310 79486,27310 C 81969,27310 84452,27310 86935,28138 L 96047 28966 L 97703 28966 L 97703 19860 L 97703 9105 L 97703 1656 L 91080 828 C 84452,0 79486,0 74519,0 Z" fill="#FFFFFF"/>
  <path d="M 19045 339303 C 14078,339303 9112,339303 3311,338476 L 0 338476 L 0 318615 L 4145 318615 C 6629,318615 9112,318615 11595,319443 C 14078,319443 16562,319443 18217,319443 C 25667,319443 31468,317788 34779,314477 C 37263,311993 39746,307033 39746,292961 L 39746 187860 L 63758 169655 L 39746 151450 L 39746 46349 C 39746,32277 37263,26482 34779,23999 C 31468,20694 25667,19039 18217,19039 C 16562,19039 14078,19039 11595,19039 C 9112,19039 6629,19039 4145,19867 L 0 19867 L 0 1656 L 3311 828 C 9112,0 14078,0 19045,0 C 33952,0 44713,4139 51335,11589 C 57963,19039 61274,30621 61274,47177 L 61274 143172 L 87769 163860 L 87769 175449 L 61274 196137 L 61274 292133 C 61274,308682 57963,320271 51335,327721 C 44713,335165 33952,339303 19045,339303 Z" fill="#FFFFFF" transform="translate(293102,4139)"/>
  <path d="M 24012 8278 C 38090,8278 47196,11589 52990,18205 C 58785,24827 61274,35588 61274,51309 L 61274 148961 L 87769 169655 L 87769 177098 L 61274 198614 L 61274 296272 C 61274,311993 58785,322754 52990,329370 C 47196,335992 37263,339303 24012,339303 C 19873,339303 14078,339303 9112,338476 L 9112 327721 C 11595,327721 14078,327721 16562,328542 C 19045,328542 21528,328542 23184,328542 C 31462,328542 38090,326893 42229,322754 C 46368,318616 48851,310338 48851,297928 L 48851 193654 L 75347 173787 L 48851 153927 L 48851 50481 C 48851,38071 46368,28966 42229,25655 C 38090,21516 31462,19860 23184,19860 C 21528,19860 19045,19860 16562,19860 C 14078,19860 11595,19860 9112,20688 L 9112 9105 C 14078,8278 19045,8278 24012,8278 Z M 24012 0 C 19045,0 14078,0 7450,828 L 0 1656 L 0 9105 L 0 19860 L 0 28966 L 9112 28138 C 11595,28138 13251,28138 16562,27310 C 19045,27310 21528,27310 23184,27310 C 29806,27310 33951,28966 37263,31449 C 38090,32277 41401,35588 41401,50481 L 41401 153927 L 41401 158066 L 44712 160549 L 62930 173787 L 44712 187032 L 41401 189515 L 41401 193654 L 41401 297100 C 41401,311166 38090,315304 37263,316132 C 34779,318616 29806,320271 23184,320271 C 21528,320271 19045,320271 16562,320271 C 14078,320271 11595,320271 9112,319443 L 0 318616 L 0 327721 L 0 338476 L 0 345926 L 7450 346753 C 13251,347581 19045,347581 24012,347581 C 40574,347581 52162,343442 59619,335165 C 67069,326893 70380,314477 70380,296272 L 70380 202753 L 93564 184548 L 96875 182065 L 96875 177926 L 96875 170483 L 96875 166344 L 93564 163860 L 70380 145650 L 70380 51309 C 70380,33105 67069,20688 59619,12417 C 51335,4139 39746,0 24012,0 Z" fill="#FFFFFF" transform="translate(288136,0)"/>
  <path d="M 177189 0 L 14072 0 C 6622,0 0,6622 0,14072 L 0 278061 C 0,285511 6622,292133 14072,292133 L 176361 292133 C 183811,292133 190433,285511 190433,278061 L 190433 14072 C 190433,5794 184638,0 177189,0 Z M 178844 277233 C 178844,278061 178016,278889 177189,278889 L 14072 278889 C 13245,278889 12417,278061 12417,277233 L 12417 14072 C 12417,13244 13245,12417 14072,12417 L 176361 12417 C 177189,12417 178016,13244 178016,14072 L 178844 277233 Z" fill="#2D5967" transform="translate(96875,28151)"/>
  <path d="M 0 54620 L 147382 54620 L 147382 0 L 0 0 L 0 54620 Z M 11595 12417 L 134138 12417 L 134138 43038 L 11595 43038 L 11595 12417 Z" fill="#2D5967" transform="translate(119225,49654)"/>
  <path d="M 5795 11595 C 8996,11595 11589,8996 11589,5795 C 11589,2599 8996,0 5795,0 C 2592,0 0,2599 0,5795 C 0,8996 2592,11595 5795,11595 Z" fill="#2D5967" transform="translate(232662,71169)"/>
  <path d="M 0 55448 L 147382 55448 L 147382 0 L 0 0 L 0 55448 Z M 11595 12417 L 134138 12417 L 134138 43866 L 11595 43866 L 11595 12417 Z" fill="#2D5967" transform="translate(119225,113373)"/>
  <path d="M 5795 11595 C 8996,11595 11589,8996 11589,5795 C 11589,2599 8996,0 5795,0 C 2592,0 0,2599 0,5795 C 0,8996 2592,11595 5795,11595 Z" fill="#2D5967" transform="translate(232662,135723)"/>
  <path d="M 0 55448 L 147382 55448 L 147382 0 L 0 0 L 0 55448 Z M 11595 12417 L 134138 12417 L 134138 43038 L 11595 43038 L 11595 12417 Z" fill="#2D5967" transform="translate(119225,177926)"/>
  <path d="M 5795 11589 C 8996,11589 11589,8996 11589,5794 C 11589,2592 8996,0 5795,0 C 2592,0 0,2592 0,5794 C 0,8996 2592,11589 5795,11589 Z" fill="#2D5967" transform="translate(232662,200270)"/>
  <path d="M 0 55448 L 147382 55448 L 147382 0 L 0 0 L 0 55448 Z M 11595 12417 L 134138 12417 L 134138 43038 L 11595 43038 L 11595 12417 Z" fill="#2D5967" transform="translate(119225,242480)"/>
  <path d="M 5795 11589 C 8996,11589 11589,8996 11589,5794 C 11589,2592 8996,0 5795,0 C 2592,0 0,2592 0,5794 C 0,8996 2592,11589 5795,11589 Z" fill="#2D5967" transform="translate(232662,264823)"/>
  <path d="M 65413 0 C 64586,0 65413,0 65413,0 C 50507,0 41402,3311 35607,9933 C 29806,16555 27323,27310 27323,43038 L 27323 140689 L 0 161377 L 0 168827 L 26495 190343 L 26495 287994 C 26495,303722 28979,314477 34780,321099 C 41402,327721 50507,331032 64586,331032 L 65413 331032 L 66241 331032 C 71208,331032 76175,331032 81141,330204 L 81141 319443 C 80314,319443 80314,319443 79486,319443 C 77002,319443 74519,319443 72036,320271 C 69552,320271 67897,320271 66241,320271 C 57963,320271 51335,318616 47196,314477 C 43057,310338 40574,302067 40574,289650 L 40574 185376 L 14079 165516 L 41402 145656 L 41402 42210 C 41402,29793 43885,20694 48024,17383 C 52163,13244 57963,10761 66241,10761 C 67897,10761 69552,10761 72036,10761 C 74519,10761 77002,10761 79486,11589 C 80314,11589 80314,11589 81141,11589 L 81141 828 C 75347,0 70380,0 66241,0 C 65413,0 65413,0 65413,0 Z" fill="#2D5967" transform="translate(8278,8278)"/>
  <path d="M 52163 140689 L 52163 43038 C 52163,27310 49679,16555 43878,9933 C 38084,3311 28151,0 14900,0 C 10761,0 4967,0 0,828 L 0 11589 C 2483,11589 4967,11589 7450,10761 C 9933,10761 12417,10761 14072,10761 C 22350,10761 28978,12417 33117,16555 C 37256,20694 39739,28966 39739,41382 L 39739 144828 L 66235 164688 L 39739 184548 L 39739 287994 C 39739,300411 37256,308689 33117,312821 C 28978,316960 22350,318616 14072,318616 C 12417,318616 9933,318616 7450,318616 C 4967,318616 2483,318616 0,317788 L 0 328549 C 5795,329377 10761,329377 14900,329377 C 28978,329377 38084,326065 43878,319443 C 49679,312821 52163,302067 52163,286339 L 52163 190343 L 78658 169655 L 78658 162205 L 52163 140689 Z" fill="#2D5967" transform="translate(297247,8278)"/>
</svg>