<svg xmlns="http://www.w3.org/2000/svg" viewBox="0 0 384954 331417" width="40" height="35">
  <path d="M 322889 68667 C 314919,63616 306237,60064 297081,58091 C 289111,56355 282482,51145 278850,43963 C 265272,16811 238046,0 207732,0 C 185716,0 164483,9234 149487,25415 C 144751,30545 138123,33387 131019,33387 C 130146,33387 129280,33387 128414,33229 C 126438,33071 124468,32913 122491,32913 C 113655,32913 104890,34729 96683,38359 C 77503,46804 63694,64089 59664,84611 C 58169,92425 53119,99055 46015,102764 C 19732,116577 2759,142386 629,171905 L 0 180272 L 52721 180272 L 52721 164802 L 17204 164802 C 21227,144201 34253,126522 53273,116577 C 64637,110578 72530,100081 74981,87689 C 78054,72140 88552,59038 103080,52645 C 109234,49962 115863,48541 122575,48541 C 124070,48541 125571,48541 127073,48778 C 128414,48935 129755,48935 131096,48935 C 142544,48935 153196,44358 160934,36070 C 173005,23047 190138,15628 207816,15628 C 232206,15628 254145,29204 265035,51067 C 270720,62511 281218,70640 293770,73403 C 301187,75060 308130,77902 314605,82006 C 342544,99607 352965,135282 339547,164960 L 312475 164960 L 312475 180429 L 349019 180429 L 351226 176325 C 371433,138834 359042,91557 322973,68825 L 322889 68667 Z" fill="#2D5967" transform="translate(12552,11680)"/>
  <path d="M 341601 70562 C 332521,64800 322581,60775 312160,58407 C 307662,57381 303870,54460 301823,50435 C 286275,19337 255018,0 220290,0 C 195033,0 170720,10655 153517,29124 C 150988,31808 147440,33308 143570,33308 C 143096,33308 142544,33308 142069,33308 C 139701,33071 137333,32992 134965,32992 C 124551,32992 114053,35202 104498,39385 C 81847,49330 65510,69772 60697,94082 C 59824,98423 57065,102054 53042,104185 C 23364,119813 4023,149174 1579,182718 L 950 191085 L 0 203555 L 65195 203555 L 65195 207422 L 69064 207422 L 69064 220998 L 65195 220998 L 65195 269460 L 69064 269460 L 69064 284927 L 65195 284927 L 65195 331417 L 111685 331417 L 111685 327554 L 169854 327554 L 169854 331417 L 216344 331417 L 216344 327554 L 278382 327554 L 278382 331417 L 324865 331417 L 324865 284927 L 321003 284927 L 321003 269460 L 324865 269460 L 324865 220998 L 321003 220998 L 321003 207422 L 324865 207422 L 324865 203555 L 368359 203555 L 371670 197478 L 373884 193373 C 397010,150515 382803,96529 341524,70562 L 341601 70562 Z M 313341 176404 L 313341 195820 L 309478 195820 L 309478 232680 L 313341 232680 L 313341 257858 L 309478 257858 L 309478 296612 L 313341 296612 L 313341 319892 L 290061 319892 L 290061 316029 L 204742 316029 L 204742 319892 L 181455 319892 L 181455 316029 L 100160 316029 L 100160 319892 L 76874 319892 L 76874 296612 L 80743 296612 L 80743 257858 L 76874 257858 L 76874 232680 L 80743 232680 L 80743 195820 L 76874 195820 L 76874 172537 L 100160 172537 L 100160 176404 L 144751 176404 L 144751 191874 L 100160 191874 L 100160 195741 L 96291 195741 L 96291 232601 L 100160 232601 L 100160 257779 L 96291 257779 L 96291 296535 L 100160 296535 L 100160 300398 L 181616 300398 L 181616 296535 L 204896 296535 L 204896 300398 L 290221 300398 L 290221 296535 L 294084 296535 L 294084 257779 L 290221 257779 L 290221 232601 L 294084 232601 L 294084 195741 L 290221 195741 L 290221 191874 L 226919 191874 C 227945,191321 228889,190690 229838,190059 C 229838,190059 229999,189980 230076,189901 C 230865,189348 231654,188796 232444,188164 C 232681,188006 232919,187770 233156,187612 C 233785,187138 234414,186586 235049,186112 C 235286,185875 235524,185718 235838,185481 C 236544,184849 237333,184139 238046,183429 C 238046,183429 238206,183350 238206,183271 C 239149,182324 240022,181377 240888,180350 C 241049,180193 241203,180035 241280,179877 C 242152,178851 242942,177825 243648,176799 C 243648,176720 243808,176641 243808,176562 L 290061 176562 L 290061 172695 L 313341 172695 L 313341 176562 L 313341 176404 Z M 229838 174983 C 221394,183429 210184,188006 198345,188006 C 188636,188006 179479,184849 171907,179246 L 171907 191953 L 156436 191953 L 156436 153199 L 195188 153199 L 195188 168669 L 183900 168669 C 188244,171195 193217,172537 198345,172537 C 206083,172537 213424,169537 218949,164013 C 223999,158961 226919,152410 227394,145385 L 242858 145385 C 242390,156593 237892,167012 229915,174983 L 229838 174983 Z M 115632 211290 L 272620 211290 L 272620 281064 L 115632 281064 L 115632 211290 Z M 237731 133783 L 198980 133783 L 198980 118313 L 212789 118313 C 208451,115787 203478,114446 198345,114446 C 190612,114446 183271,117445 177824,122970 C 172613,128179 169854,134809 169379,141597 L 153908 141597 C 154383,130863 158644,120207 166851,111999 C 175302,103554 186506,98976 198345,98976 C 206950,98976 215157,101423 222260,106000 L 222260 95108 L 237731 95108 L 237731 133862 L 237731 133783 Z M 361493 191953 L 324949 191953 L 324949 176483 L 352022 176483 C 365439,146806 355018,111131 327079,93529 C 320605,89425 313578,86584 306237,84926 C 293692,82164 283194,74034 277509,62590 C 266620,40727 244674,27151 220290,27151 C 202528,27151 185479,34650 173402,47594 C 165670,55881 155012,60459 143570,60459 C 142229,60459 140888,60459 139547,60301 C 138046,60143 136544,60064 135049,60064 C 128337,60064 121708,61485 115548,64168 C 101027,70562 90529,83663 87455,99213 C 85004,111604 77111,122181 65747,128100 C 46804,138045 33701,155725 29678,176325 L 65195 176325 L 65195 191795 L 12551 191795 L 13180 183429 C 15394,153909 32360,128100 58567,114288 C 65747,110499 70720,103869 72222,96135 C 76245,75613 90137,58249 109234,49883 C 117364,46331 126206,44437 135049,44437 C 137019,44437 138995,44516 140965,44752 C 141831,44831 142704,44910 143570,44910 C 150674,44910 157303,42069 162038,36939 C 177034,20758 198268,11523 220290,11523 C 250597,11523 277824,28414 291402,55486 C 295034,62748 301662,67878 309632,69614 C 318789,71667 327471,75218 335447,80191 C 371516,102922 383984,150121 363700,187691 L 361493 191795 L 361493 191953 Z" fill="#FFFFFF"/>
  <path d="M 36858 0 L 0 0 L 0 15470 L 36858 15470 L 36858 0 Z" fill="#2D5967" transform="translate(142782,238445)"/>
  <path d="M 36858 0 L 0 0 L 0 15470 L 36858 15470 L 36858 0 Z" fill="#2D5967" transform="translate(185402,238445)"/>
  <path d="M 157065 0 L 0 0 L 0 69775 L 156982 69775 L 156982 0 L 157065 0 Z M 114444 54303 L 15548 54303 L 15548 15549 L 141517 15549 L 141517 54303 L 114361 54303 L 114444 54303 Z" fill="#2D5967" transform="translate(115632,211289)"/>
  <path d="M 213264 4025 L 167018 4025 C 167018,4025 166857,4183 166857,4262 C 166068,5288 165279,6314 164489,7340 C 164329,7498 164175,7656 164092,7814 C 163225,8840 162359,9787 161409,10734 C 161409,10734 161255,10813 161255,10892 C 160543,11602 159831,12313 159041,12944 C 158804,13181 158567,13339 158252,13575 C 157623,14128 156988,14602 156359,15075 C 156122,15233 155884,15470 155647,15628 C 154858,16259 154068,16812 153279,17364 C 153279,17364 153125,17443 153042,17522 C 152098,18153 151149,18785 150122,19337 L 213424 19337 L 213424 23205 L 217294 23205 L 217294 60064 L 213424 60064 L 213424 85242 L 217294 85242 L 217294 123994 L 213424 123994 L 213424 127863 L 128106 127863 L 128106 123994 L 104819 123994 L 104819 127863 L 23287 127863 L 23287 123994 L 19417 123994 L 19417 85242 L 23287 85242 L 23287 60064 L 19417 60064 L 19417 23205 L 23287 23205 L 23287 19337 L 67884 19337 L 67884 3867 L 23287 3867 L 23287 0 L 0 0 L 0 23284 L 3869 23284 L 3869 60143 L 0 60143 L 0 85321 L 3869 85321 L 3869 124077 L 0 124077 L 0 147358 L 23287 147358 L 23287 143488 L 104742 143488 L 104742 147358 L 128022 147358 L 128022 143488 L 213347 143488 L 213347 147358 L 236628 147358 L 236628 124077 L 232765 124077 L 232765 85321 L 236628 85321 L 236628 60143 L 232765 60143 L 232765 23284 L 236628 23284 L 236628 0 L 213347 0 L 213347 3867 L 213264 4025 Z" fill="#2D5967" transform="translate(76874,172381)"/>
  <path d="M 15471 0 L 0 0 L 0 15470 L 15471 15470 L 15471 0 Z" fill="#2D5967" transform="translate(229999,238445)"/>
  <path d="M 125969 27151 L 125969 0 L 0 0 L 0 38753 L 125969 38753 L 125969 27151 Z M 114367 27151 L 98896 27151 L 98896 11681 L 114367 11681 L 114367 27151 Z M 11602 27151 L 11602 11681 L 48460 11681 L 48460 27151 L 11602 27151 Z M 60062 11681 L 87211 11681 L 87211 27151 L 60062 27151 L 60062 11681 Z" fill="#FFFFFF" transform="translate(131180,226839)"/>
  <path d="M 86429 0 L 70957 0 C 70483,7024 67563,13575 62513,18627 C 56988,24152 49731,27152 41915,27152 C 36781,27152 31808,25810 27471,23284 L 38758 23284 L 38758 7814 L 0 7814 L 0 46568 L 15471 46568 L 15471 33860 C 23126,39543 32283,42621 41915,42621 C 53831,42621 65041,37965 73409,29598 C 81378,21627 85877,11208 86351,0 L 86429 0 Z" fill="#2D5967" transform="translate(156353,145388)"/>
  <path d="M 68352 10971 C 61249,6472 53042,3946 44437,3946 C 32521,3946 21310,8603 12943,16969 C 4736,25178 475,35833 0,46567 L 15471 46567 C 15946,39779 18705,33149 23916,27940 C 29440,22415 36704,19416 44437,19416 C 49570,19416 54537,20758 58881,23283 L 45065 23283 L 45065 38753 L 83823 38753 L 83823 0 L 68352 0 L 68352 10892 L 68352 10971 Z" fill="#2D5967" transform="translate(153908,94874)"/>
</svg>