<svg xmlns="http://www.w3.org/2000/svg" viewBox="0 0 385012 361483" width="40" height="38">
  <path d="M 61704 346064 L 30852 315224 L 24853 297238 L 39419 283532 L 66844 256121 C 76271,246699 85697,238133 96843,230424 L 129409 206439 C 126835,202156 124262,197016 121695,192734 L 0 192734 L 0 167036 L 112269 167036 C 109696,155900 107983,144764 107983,133629 L 0 133629 L 0 108787 L 110549 108787 C 113122,96795 116549,85660 121695,75381 L 0 75381 L 0 49682 L 137975 49682 C 141402,45400 143975,41973 147401,39403 C 173114,13706 206539,0 242531,0 C 278523,0 311948,13706 337661,39403 C 389939,91656 389939,176458 337661,228710 C 312808,254408 278523,268114 242531,268114 C 216819,268114 191966,261261 170540,247555 L 146548 280106 C 138835,290385 130262,300664 120836,310084 L 93410 337497 L 79697 352057 L 61704 346064 Z" fill="#FFFFFF" transform="translate(4280,4280)"/>
  <path d="M 246817 8566 C 280243,8566 313662,21415 338521,46256 C 389079,96795 389079,179028 338521,229567 C 312808,255265 280243,267257 246817,267257 C 221105,267257 196253,259548 173973,244986 L 167974 252695 L 147408 280106 C 139695,290385 131122,300664 121695,309231 L 94270 338357 L 82270 351204 L 67704 346064 L 38565 316938 L 33425 302378 L 46278 290385 L 73704 262974 C 83130,253552 92557,244986 102843,237276 L 130268 216718 L 137981 210722 C 133695,204726 130268,197873 127695,191877 L 8573 191877 L 8573 175601 L 122549 175601 C 118269,161896 116556,147334 117409,133629 L 8573 133629 L 8573 117353 L 119122 117353 C 121695,102791 126835,88229 133695,75381 L 8573 75381 L 8573 58248 L 144835 58248 C 148261,53966 151688,50539 155121,46256 C 179973,21415 213392,8566 246817,8566 Z M 246817 0 C 209966,0 174827,14562 149121,40260 C 146548,42830 143975,46256 140548,49682 L 8573 49682 L 0 49682 L 0 58248 L 0 74524 L 0 83090 L 8573 83090 L 119982 83090 C 116556,90799 113982,99365 112269,107931 L 8573 107931 L 0 107931 L 0 116497 L 0 132772 L 0 141338 L 8573 141338 L 108843 141338 C 108843,149904 109696,158470 111409,166179 L 8573 166179 L 0 166179 L 0 174745 L 0 191020 L 0 199586 L 8573 199586 L 123409 199586 C 125122,202156 126835,205582 127695,208152 L 125982 209009 L 98556 229567 C 88270,237276 77990,246699 68557,256121 L 41138 283532 L 28279 295525 L 23999 298951 L 25712 305804 L 30852 320364 L 31712 322077 L 33425 323791 L 62564 352917 L 64277 354630 L 65991 355484 L 79704 359770 L 84843 361483 L 88270 357197 L 100270 344350 L 128549 316938 C 137981,307518 146548,297238 155121,286959 L 175687 259548 L 176547 257835 C 197966,270684 221965,276680 246817,276680 C 283669,276680 318808,262118 344514,236420 C 398512,182455 398512,95082 344514,40260 C 318808,14562 283669,0 246817,0 Z" fill="#FFFFFF"/>
  <path d="M 0 0 L 0 16275 L 113982 16275 C 116556,11135 119982,5139 123409,0 C 123409,0 0,0 0,0 Z" fill="#2D5967" transform="translate(8573,58253)"/>
  <path d="M 0 0 L 0 16275 L 98556 16275 C 98556,11136 99410,5139 100270,0 L 0 0 Z" fill="#2D5967" transform="translate(8573,117358)"/>
  <path d="M 0 0 L 0 16276 L 109696 16276 C 107123,11136 105409,5997 104556,0 L 0 0 Z" fill="#2D5967" transform="translate(8573,175604)"/>
  <path d="M 31601 180741 C 52174,201299 79599,211578 106165,211578 C 133591,211578 160156,201299 180722,180741 C 221861,139625 221861,71953 180722,30837 C 139584,-10279 71886,-10279 30748,30837 C -10390,71953 -10390,139625 31601,180741 Z M 40174 40260 C 76166,4283 135304,4283 171296,40260 C 207288,76237 207288,135342 171296,171318 C 135304,207296 76166,207296 40174,171318 C 4182,135342 4182,76237 40174,40260 Z" fill="#2D5967" transform="translate(140659,32551)"/>
  <path d="M 126835 237065 C 148261,251627 173973,259336 199686,259336 C 233105,259336 266530,246488 291382,221646 C 341947,171107 341947,88874 291382,38335 C 240818,-12204 158547,-13060 107983,37479 C 63418,82021 58278,151405 91703,201944 L 83990 207941 L 56564 228499 C 46278,236208 35998,244774 27425,254197 L 0 281608 L 47992 329574 L 75417 302168 C 84843,292741 93416,283321 101129,273042 L 121695 245631 L 126835 237065 Z M 117409 46901 C 162834,1502 237391,1502 282816,46901 C 328234,92300 328234,166824 282816,212224 C 259677,235352 229678,246488 200539,246488 C 170547,246488 140548,235352 118269,212224 C 71131,166824 71131,92300 117409,46901 Z M 89990 264476 C 82277,273898 74564,283321 65991,292741 L 47138 311588 L 17999 281608 L 36852 262763 C 45425,254197 54851,245631 65131,238778 L 92557 218220 L 100270 212224 C 102843,215650 105416,218220 107983,220789 C 110556,223359 113982,225929 116556,228499 L 110556 236208 L 89990 264476 Z" fill="#2D5967" transform="translate(47132,8770)"/>
  <path d="M 4286 0 L 0 4286 L 4286 18846 L 33425 47972 L 47992 53112 L 53138 47972 L 4286 0 Z" fill="#2D5967" transform="translate(34286,298091)"/>
  <path d="M 22279 119066 C 31706,119066 39419,111357 39419,101935 L 39419 101078 L 61704 88229 L 61704 108787 C 53131,112214 47992,119923 47992,129346 C 47992,141338 58278,151617 70271,151617 C 82270,151617 92557,141338 92557,129346 C 92557,119923 86557,112214 78844,108787 L 78844 88229 L 101123 101078 L 101123 101935 C 101123,111357 108836,119066 118269,119066 C 127695,119066 135408,111357 135408,101935 C 135408,92512 127695,84803 118269,84803 C 114836,84803 112269,85660 109696,87372 L 86557 73667 L 103696 64245 C 107983,67671 112269,69384 118269,69384 C 130262,69384 140548,59105 140548,47112 C 140548,35121 130262,24842 118269,24842 C 106269,24842 95983,35121 95983,47112 C 95983,47969 95983,48826 95983,49682 L 78844 59105 L 78844 32551 C 83984,29981 87410,23985 87410,17132 C 87410,7709 79697,0 70271,0 C 60844,0 53131,7709 53131,17132 C 53131,23985 56558,29124 61704,32551 L 61704 59105 L 44565 49682 C 44565,48826 44565,47969 44565,47112 C 44565,35121 34279,24842 22279,24842 C 10280,24842 0,35121 0,47112 C 0,59105 10280,69384 22279,69384 C 27425,69384 32566,67671 36852,64245 L 53991 73667 L 30852 87372 C 28279,85660 25706,84803 22279,84803 C 12853,84803 5140,92512 5140,101935 C 5140,111357 12853,119066 22279,119066 Z M 79697 129346 C 79697,134486 75417,138768 70271,138768 C 65131,138768 60844,134486 60844,129346 C 60844,124206 65131,119923 70271,119923 C 75417,119923 79697,124206 79697,129346 Z M 108836 47112 C 108836,41973 113122,37690 118269,37690 C 123409,37690 127695,41973 127695,47112 C 127695,52252 123409,56536 118269,56536 C 113122,56536 108836,52252 108836,47112 Z M 22279 56536 C 17139,56536 12853,52252 12853,47112 C 12853,41973 17139,37690 22279,37690 C 27425,37690 31706,41973 31706,47112 C 31706,52252 27425,56536 22279,56536 Z" fill="#2D5967" transform="translate(178260,65960)"/>
</svg>