<svg xmlns="http://www.w3.org/2000/svg" viewBox="0 0 341166 385010" width="36" height="40">
  <path d="M 166956 377874 C 161399,377932 156002,376071 151652,372619 C 147301,369167 144266,364322 143053,358893 C 141834,353471 142520,347792 144978,342813 C 147442,337833 151536,333842 156580,331519 L 156580 308065 C 139139,306465 122256,301072 107112,292265 C 91969,283459 78923,271448 68894,257074 L 48430 268848 C 48693,271621 48443,274419 47686,277100 C 46332,282251 43303,286805 39081,290044 C 34852,293284 29674,295025 24354,294992 C 20081,294992 15884,293870 12182,291739 C 8473,289608 5392,286543 3243,282847 C 1619,280075 580,277002 182,273814 C -216,270627 41,267392 926,264305 C 1947,260576 3840,257146 6451,254301 C 9069,251457 12323,249280 15955,247955 C 19580,246629 23469,246193 27300,246683 C 31130,247173 34788,248574 37964,250770 L 58428 238903 C 51138,223225 47378,206133 47410,188839 C 47352,171502 51145,154368 58524,138682 L 38061 127000 C 34044,129827 29257,131349 24354,131358 C 20126,131349 15974,130230 12317,128113 C 9538,126550 7106,124450 5149,121935 C 3192,119421 1761,116541 926,113465 C 41,110378 -216,107143 182,103956 C 580,100769 1619,97696 3243,94922 C 5405,91245 8492,88198 12194,86083 C 15897,83969 20087,82861 24354,82870 C 28545,82836 32671,83925 36296,86022 C 39081,87596 41526,89710 43476,92241 C 45434,94773 46865,97670 47686,100763 C 48443,103444 48693,106242 48430,109014 L 68984 120696 C 79019,106350 92052,94365 107176,85574 C 122308,76785 139165,71401 156580,69798 L 156580 46249 C 151600,43891 147571,39904 145151,34945 C 142732,29987 142078,24353 143284,18969 C 144490,13586 147494,8774 151793,5327 C 156099,1879 161444,0 166956,0 C 172461,0 177813,1879 182113,5327 C 186418,8774 189421,13586 190627,18969 C 191834,24353 191173,29987 188754,34945 C 186341,39904 182305,43891 177325,46249 L 177325 69798 C 194773,71375 211668,76746 226831,85537 C 241988,94328 255078,106327 265089,120696 L 285558 109014 C 285366,106242 285623,103452 286328,100763 C 287163,97677 288574,94785 290564,92256 C 292489,89726 294927,87608 297686,86022 C 301344,83913 305515,82824 309750,82870 C 313985,82868 318156,83990 321878,86122 C 325535,88254 328615,91321 330733,95015 C 333556,99788 334647,105375 333813,110846 C 332979,116318 330348,121342 326241,125083 C 322199,128823 316937,131054 311418,131403 C 305900,131752 300445,130198 295954,127000 L 275484 138775 C 282735,154496 286521,171610 286521,188932 C 286521,206253 282735,223366 275484,239088 L 295954 250863 C 300060,248042 304873,246524 309814,246505 C 314049,246529 318220,247664 321878,249797 C 325535,251930 328615,254987 330733,258662 C 332850,262338 333941,266506 333941,270749 C 333941,274992 332850,279163 330733,282847 C 328615,286542 325535,289609 321878,291740 C 318156,293873 313985,294994 309750,294992 C 305515,295039 301344,293950 297686,291841 C 293708,289577 290435,286219 288317,282162 C 286136,278105 285173,273519 285558,268941 L 265089 257166 C 255078,271524 241988,283517 226876,292307 C 211726,301097 194850,306475 177415,308065 L 177415 331615 C 182459,333938 186559,337923 189017,342903 C 191481,347888 192161,353567 190948,358990 C 189736,364412 186700,369257 182350,372709 C 177999,376167 172596,378022 167046,377971 L 166956 377874 Z" fill="#FFFFFF" transform="translate(3372,3446)"/>
  <path d="M 170328 6953 C 175192,7020 179876,8788 183572,11952 C 187275,15116 189751,19475 190573,24275 C 191401,29075 190521,34012 188090,38232 C 185657,42451 181833,45685 177271,47376 L 177271 76486 C 195302,77585 212833,82884 228458,91962 C 244083,101040 257359,113645 267305,128775 L 292524 114220 C 291882,111166 291882,108003 292524,104949 C 293871,99689 297208,95158 301828,92340 C 304202,90983 306769,90105 309464,89757 C 312223,89409 314918,89598 317549,90312 C 320180,91027 322683,92253 324800,93921 C 326982,95590 328779,97667 330126,100035 C 331474,102403 332372,105015 332757,107723 C 333078,110430 332885,113179 332180,115814 C 331474,118448 330255,120916 328586,123076 C 326918,125236 324800,127047 322490,128405 C 319346,130215 315817,131174 312159,131186 C 307218,131147 302405,129339 298684,126087 L 273401 140642 C 281294,156669 285401,174309 285401,192190 C 285401,210070 281294,227710 273401,243737 L 298684 258293 C 302470,255053 307282,253277 312287,253286 C 315881,253277 319346,254204 322490,255975 C 324800,257332 326918,259143 328586,261303 C 330255,263464 331474,265931 332180,268566 C 332885,271200 333078,273950 332757,276657 C 332372,279364 331474,281977 330126,284344 C 328779,286712 326982,288790 324800,290458 C 322683,292126 320180,293353 317549,294067 C 314918,294782 312223,294971 309464,294623 C 306769,294274 304202,293397 301828,292039 C 297208,289221 293871,284690 292524,279430 C 291882,276377 291882,273213 292524,270159 L 267305 255604 C 257359,270734 244083,283340 228458,292417 C 212833,301495 195302,306794 177271,307893 L 177271 337006 C 181878,338642 185760,341857 188231,346086 C 190701,350315 191600,355275 190765,360100 C 189937,364926 187429,369302 183687,372453 C 179946,375610 175217,377342 170328,377342 C 165438,377342 160703,375610 156961,372453 C 153220,369302 150718,364926 149883,360100 C 149056,355275 149954,350315 152425,346086 C 154889,341857 158771,338642 163378,337006 L 163378 308264 C 145321,307176 127771,301873 112120,292777 C 96476,283682 83174,271046 73286,255882 L 48093 270438 C 48876,274668 48324,279037 46515,282940 C 44705,286843 41734,290087 38006,292225 C 35240,293787 32160,294695 28997,294878 C 25833,295062 22663,294517 19743,293285 C 16824,292052 14219,290166 12140,287770 C 10061,285374 8559,282533 7744,279464 C 6936,276396 6833,273182 7455,270069 C 8078,266956 9406,264028 11337,261509 C 13269,258990 15746,256947 18588,255538 C 21431,254128 24556,253390 27726,253379 C 32693,253418 37486,255225 41246,258478 L 66432 243830 C 58489,227827 54350,210199 54350,192329 C 54350,174458 58489,156830 66432,140828 L 41150 126273 C 37416,129504 32661,131310 27726,131371 C 22451,131018 17511,128672 13898,124808 C 10285,120943 8277,115850 8277,110558 C 8277,105266 10285,100172 13898,96307 C 17511,92443 22451,90097 27726,89744 C 31332,89768 34875,90726 38006,92526 C 42626,95343 45956,99874 47265,105134 C 47984,108182 47984,111357 47265,114405 L 72541 128961 C 82442,113831 95738,101225 111363,92147 C 126988,83069 144513,77770 162544,76672 L 162544 47376 C 157911,45663 154042,42359 151616,38052 C 149184,33745 148369,28715 149300,23859 C 150236,19004 152861,14639 156711,11542 C 160568,8446 165387,6819 170328,6953 Z M 170328 0 C 164264,62 158386,2108 153592,5826 C 148799,9544 145353,14729 143781,20592 C 142209,26453 142594,32670 144879,38293 C 147163,43916 151218,48636 156435,51733 L 156435 70275 C 139636,72241 123421,77632 108784,86115 C 94153,94598 81403,105993 71341,119597 L 55505 110418 C 55492,108004 55145,105602 54484,103280 C 53560,99755 51937,96453 49710,93570 C 47477,90687 44699,88282 41523,86499 C 37326,84080 32571,82802 27726,82791 C 22836,82797 18037,84095 13808,86553 C 9579,89011 6076,92542 3650,96790 C 25,103176 -925,110738 1000,117824 C 2925,124911 7571,130947 13930,134616 C 18101,137020 22817,138298 27630,138325 C 32513,138302 37306,136991 41523,134523 L 57539 143794 C 50910,159163 47490,175727 47490,192468 C 47490,209209 50910,225773 57539,241141 L 41523 250320 C 37345,247835 32584,246493 27726,246425 C 21637,246434 15720,248443 10888,252145 C 6056,255847 2566,261036 961,266915 C -951,274009 12,281576 3650,287960 C 6076,292208 9579,295739 13808,298198 C 18037,300655 22836,301953 27726,301959 C 32539,301932 37262,300655 41426,298251 C 44602,296468 47388,294063 49614,291180 C 51841,288297 53464,284995 54395,281470 C 55094,279122 55466,276689 55505,274239 L 71341 264967 C 81384,278638 94134,290095 108790,298628 C 123440,307160 139693,312586 156531,314568 L 156531 333111 C 151231,336172 147092,340895 144750,346554 C 142414,352208 142004,358483 143582,364393 C 145167,370310 148658,375533 153509,379261 C 158360,382989 164302,385011 170417,385011 C 176533,385011 182475,382989 187326,379261 C 192184,375533 195668,370310 197253,364393 C 198831,358483 198421,352208 196085,346554 C 193743,340895 189604,336172 184310,333111 L 184310 314568 C 201122,312579 217344,307160 231981,298645 C 246643,290129 259349,278699 269423,265060 L 285401 274332 C 285401,276742 285722,279144 286363,281470 C 288289,288559 292973,294592 299325,298251 C 303561,300721 308309,302032 313250,302052 C 318127,302072 322939,300799 327175,298363 C 331410,295927 334939,292414 337377,288178 C 339816,283942 341099,279134 341099,274239 C 341099,269344 339816,264536 337377,260300 C 334939,256064 331410,252551 327175,250114 C 322939,247679 318127,246406 313250,246426 C 308309,246445 303561,247757 299325,250227 L 283412 240956 C 289957,225546 293358,208955 293358,192190 C 293358,175424 289957,158833 283412,143423 L 299325 134152 C 303561,136594 308309,137879 313186,137879 C 318062,137879 322875,136594 327110,134152 C 331089,131890 334426,128676 336864,124798 C 339302,120920 340778,116496 341099,111923 C 341420,107350 340586,102767 338725,98584 C 336864,94400 333976,90745 330383,87944 C 326725,85143 322490,83283 317934,82529 C 313442,81775 308822,82150 304459,83622 C 300095,85094 296245,87617 293101,90966 C 289957,94315 287711,98386 286556,102816 C 285914,105143 285593,107544 285593,109955 L 269615 119226 C 259477,105624 246707,94245 231994,85793 C 217305,77342 201045,71996 184214,70089 L 184214 51547 C 189341,48414 193319,43701 195546,38114 C 197772,32528 198125,26369 196560,20563 C 195000,14756 191593,9613 186864,5906 C 182135,2198 176334,126 170328,0 L 170328 0 Z" fill="#FFFFFF"/>
  <path d="M 316421 249121 C 312699,247014 308400,246107 304165,246522 C 299866,246936 295823,248653 292614,251439 L 267332 236883 C 275225,220856 279332,203216 279332,185336 C 279332,167455 275225,149815 267332,133789 L 292614 119233 C 296336,122485 301149,124293 306090,124332 C 310004,124317 313790,123221 317063,121168 C 320335,119116 322966,116188 324634,112716 C 326367,109243 327073,105363 326688,101514 C 326303,97664 324827,93998 322517,90929 C 320143,87859 316998,85507 313341,84140 C 309747,82771 305833,82442 302047,83187 C 298261,83932 294732,85722 291908,88356 C 289085,90990 287032,94363 286005,98095 C 285363,101149 285363,104312 286005,107366 L 260723 121921 C 250841,106792 237552,94186 221927,85108 C 206301,76030 188777,70731 170739,69632 L 170739 40336 C 175346,38697 179229,35480 181699,31254 C 184170,27028 185068,22064 184240,17239 C 183406,12415 180897,8038 177163,4884 C 173422,1730 168686,0 163796,0 C 158906,0 154171,1730 150436,4884 C 146696,8038 144186,12415 143359,17239 C 142524,22064 143423,27028 145893,31254 C 148364,35480 152246,38697 156853,40336 L 156853 69447 C 138822,70545 121291,75845 105666,84922 C 90041,94000 76746,106606 66844,121736 L 41196 107180 C 41921,104132 41921,100957 41196,97909 C 39887,92650 36563,88119 31936,85301 C 28632,83363 24852,82376 21022,82449 C 17191,82522 13456,83651 10222,85713 C 6988,87774 4389,90689 2702,94134 C 1020,97581 314,101425 674,105245 C 1026,109066 2432,112713 4723,115787 C 7014,118862 10113,121243 13668,122669 C 17229,124096 21105,124513 24884,123874 C 28664,123235 32193,121565 35087,119048 L 60459 133603 C 52516,149606 48377,167234 48377,185104 C 48377,202975 52516,220602 60459,236605 L 34253 251439 C 31365,248958 27855,247319 24101,246703 C 20348,246086 16498,246515 12968,247942 C 9439,249369 6372,251740 4100,254795 C 1829,257851 443,261472 90,265265 C -263,269057 430,272873 2098,276296 C 3766,279720 6340,282619 9542,284676 C 12744,286732 16446,287867 20252,287957 C 24057,288048 27810,287088 31102,285186 C 34830,283048 37808,279804 39618,275901 C 41421,271998 41979,267629 41196,263399 L 66382 248843 C 76277,264007 89579,276642 105223,285738 C 120868,294833 138424,300138 156481,301225 L 156481 330333 C 151874,331976 147991,335191 145521,339419 C 143057,343642 142152,348608 142987,353434 C 143814,358259 146323,362636 150064,365786 C 153805,368943 158534,370670 163424,370670 C 168314,370670 173049,368943 176790,365786 C 180531,362636 183034,358259 183868,353434 C 184696,348608 183798,343642 181327,339419 C 178863,335191 174981,331976 170373,330333 L 170373 301225 C 188405,300126 205929,294827 221554,285749 C 237186,276671 250456,264065 260402,248936 L 285684 263491 C 284978,266545 284978,269709 285684,272762 C 286968,278022 290304,282553 294924,285371 C 297299,286728 299866,287606 302625,287955 C 305320,288302 308015,288114 310646,287399 C 313276,286685 315779,285458 317897,283790 C 320078,282122 321875,280044 323223,277676 C 324634,275308 325469,272696 325854,269989 C 326174,267281 325982,264532 325276,261898 C 324570,259263 323351,256796 321683,254635 C 320014,252474 317961,250664 315586,249306 L 316421 249121 Z M 78420 241889 L 102772 227797 C 107488,233241 113610,237281 120463,239479 C 129607,241851 139322,240519 147498,235771 L 171387 221864 L 163520 208328 L 144071 219732 L 137128 207679 L 156667 196925 L 149724 184965 L 130275 196276 L 122684 182462 L 142126 171151 L 135184 159099 L 111108 173191 C 104287,177590 99101,184109 96342,191746 C 93583,199384 93403,207718 95829,215467 L 71567 229837 C 64791,215984 61274,200761 61294,185336 C 61108,163308 68057,141814 81096,124069 C 94129,106324 112558,93282 133612,86894 C 154665,80508 177227,81118 197902,88635 C 218583,96153 236281,110172 248338,128597 L 228061 140279 L 227503 139258 C 222119,132960 214727,128716 206577,127247 C 198428,125777 190022,127171 182777,131193 L 161852 143431 L 168981 155390 L 150462 165866 L 158335 179310 L 176668 169111 L 183612 181071 L 165651 191362 L 172594 203321 L 190561 192845 L 198428 206196 L 219353 193958 C 226091,189615 231244,183201 234035,175678 C 236820,168156 237096,159931 234818,152238 L 255268 140464 C 268744,163946 272273,191809 265214,217924 C 258092,244038 240959,266266 217505,279715 C 194051,293166 166222,296737 140137,289643 C 114053,282549 91857,265372 78420,241889 Z M 299481 101989 C 299673,101090 300058,100246 300636,99511 C 301149,98776 301855,98167 302689,97724 C 303459,97190 304357,96826 305320,96654 C 306282,96483 307245,96507 308143,96726 C 309106,96945 309940,97353 310710,97926 C 311480,98499 312122,99224 312635,100055 C 313084,100886 313341,101806 313469,102758 C 313597,103709 313469,104671 313212,105583 C 312891,106496 312442,107339 311801,108061 C 311159,108782 310389,109366 309555,109777 C 307950,110648 306090,110864 304357,110378 C 302625,109892 301149,108744 300314,107180 C 299801,106379 299416,105477 299288,104535 C 299159,103592 299224,102630 299481,101711 L 299481 101989 Z M 163424 13821 C 164804,13821 166151,14231 167293,14999 C 168436,15767 169328,16859 169854,18135 C 170373,19411 170508,20814 170232,22165 C 169957,23516 169283,24755 168301,25724 C 167325,26692 166074,27347 164727,27605 C 163373,27863 161974,27712 160703,27171 C 159439,26631 158361,25725 157604,24569 C 156853,23414 156462,22060 156481,20681 C 156507,18853 157251,17109 158547,15825 C 159850,14541 161602,13821 163424,13821 Z M 26752 106532 C 25860,108095 24384,109243 22651,109729 C 20919,110214 19064,109999 17492,109127 C 15946,108216 14817,106742 14335,105014 C 13854,103286 14053,101438 14900,99856 C 15535,98861 16414,98042 17447,97476 C 18487,96908 19648,96611 20829,96611 C 22048,96613 23255,96898 24345,97446 C 25930,98400 27092,99926 27586,101711 C 27798,102588 27836,103499 27695,104391 C 27547,105282 27233,106136 26752,106903 L 26752 106532 Z M 27496 268590 C 26995,270375 25840,271901 24249,272855 C 22671,273679 20829,273870 19109,273388 C 17390,272905 15920,271787 14990,270259 C 14149,268677 13944,266830 14425,265102 C 14913,263374 16042,261900 17582,260988 C 19161,260117 21015,259901 22748,260386 C 24480,260872 25950,262021 26841,263584 C 27317,264387 27618,265279 27727,266205 C 27843,267130 27759,268069 27496,268961 L 27496 268590 Z M 163424 356854 C 162051,356854 160703,356443 159561,355673 C 158413,354903 157527,353812 157001,352536 C 156481,351259 156346,349860 156622,348506 C 156898,347158 157572,345920 158547,344951 C 159529,343982 160774,343327 162128,343064 C 163482,342808 164881,342962 166151,343501 C 167415,344040 168493,344944 169244,346099 C 170001,347261 170393,348608 170373,349988 C 170348,351817 169603,353562 168307,354846 C 167005,356129 165253,356854 163424,356854 Z M 312122 271094 C 311223,272639 309747,273772 308015,274255 C 306282,274739 304485,274536 302881,273689 C 302047,273246 301341,272637 300828,271902 C 300251,271167 299866,270324 299609,269425 C 299352,268400 299352,267328 299544,266290 C 299737,265252 300186,264276 300828,263435 C 301470,262595 302304,261912 303266,261439 C 304229,260967 305255,260718 306282,260710 C 307502,260698 308721,261019 309747,261637 C 311287,262581 312442,264102 312891,265872 C 313341,267641 313084,269516 312122,271094 Z" fill="#2D5967" transform="translate(6904,7038)"/>
</svg>