<svg xmlns="http://www.w3.org/2000/svg" viewBox="0 0 385010 385010" width="40" height="40">
  <path d="M 187032 374950 C 176996,374950 167871,368552 163309,359402 C 161486,359402 159657,358490 157835,358490 C 153273,364894 145977,367634 137763,367634 C 124076,367634 113129,356662 112218,343860 C 76636,326483 48351,298132 31019,262466 C 17332,261551 7296,250577 7296,236859 C 7296,228628 10947,222227 16421,216740 C 16421,214911 15509,213082 15509,211253 C 6385,207595 0,197535 0,187475 C 0,177415 6385,168271 15509,163698 C 15509,161869 16421,160040 16421,158211 C 10036,153638 7296,146322 7296,138092 C 7296,124374 18243,113400 31019,112485 C 48351,76819 76636,48469 112218,31093 C 113129,17376 124076,7316 137763,7316 C 145977,7316 152362,10974 157835,16461 C 159657,16461 161486,15547 163309,15547 C 166960,6401 176996,0 187032,0 C 197068,0 206192,6401 210748,15547 C 212577,15547 214399,16461 216228,16461 C 220784,10060 228087,7316 236300,7316 C 249981,7316 260928,18290 261846,31093 C 297427,48469 325706,76819 343045,112485 C 356725,113400 366761,124374 366761,138092 C 366761,146322 363116,152724 357636,158211 C 357636,160040 358554,161869 358554,163698 C 367672,167356 374063,177415 374063,187475 C 374063,197535 367672,206680 358554,211253 C 358554,213082 357636,214911 357636,216740 C 364027,221312 366761,228628 366761,236859 C 366761,250577 355814,261551 343045,262466 C 325706,298132 297427,326483 261846,343860 C 260928,357573 249981,367634 236300,367634 C 228087,367634 221702,363977 216228,358490 C 214399,358490 212577,359402 210748,359402 C 206192,368552 197068,374950 187032,374950 Z" fill="#FFFFFF" transform="translate(4562,4574)"/>
  <path d="M 191594 9145 C 201630,9145 208926,15547 211666,24692 C 215317,24692 218962,25606 222613,26521 C 226264,20119 232649,16461 240863,16461 C 252721,16461 261846,25606 261846,37495 L 261846 38409 C 298338,54871 328446,85050 344867,121631 L 345778 121631 C 357643,121631 366761,130775 366761,142664 C 366761,149980 363116,156382 356725,160954 C 357643,164613 357643,168271 358554,171928 C 367679,174672 374063,182903 374063,192048 C 374063,201193 367679,209424 358554,212167 C 358554,215825 357643,219484 356725,223141 C 363116,226799 366761,233201 366761,241432 C 366761,253320 357643,262466 345778,262466 L 344867 262466 C 328446,299046 298338,329223 261846,345688 L 261846 346599 C 261846,358490 252721,367634 240863,367634 C 233560,367634 227176,363976 222613,357572 C 218962,358490 215317,358490 211666,359407 C 208926,368551 200719,374949 191594,374949 C 182469,374949 174256,368551 171522,359407 C 167871,359407 164220,358490 160575,357572 C 156924,363976 150539,367634 142326,367634 C 130467,367634 121342,358490 121342,346599 L 121342 345688 C 84850,329223 54742,299046 38321,262466 L 37404 262466 C 25546,262466 16421,253320 16421,241432 C 16421,234116 20072,227714 26457,223141 C 25546,219484 25546,215825 24634,212167 C 15509,209424 9125,202107 9125,192048 C 9125,181988 15509,174672 24634,171928 C 24634,168271 25546,164613 26457,160954 C 20072,157297 16421,150895 16421,142664 C 16421,130775 25546,121631 37404,121631 L 38321 121631 C 54742,85050 84850,54871 121342,38409 L 121342 37495 C 121342,25606 130467,16461 142326,16461 C 149628,16461 156013,20119 160575,26521 C 164220,25606 167871,25606 171522,24692 C 174256,15547 181558,9145 191594,9145 Z M 191594 0 C 180647,0 169693,6401 165137,16461 L 164220 16461 C 158746,10974 150539,7316 142326,7316 C 126816,7316 114958,18291 112218,32922 C 77548,50298 49268,78648 31930,113400 C 18249,115229 7296,128032 7296,142664 C 7296,150895 10947,159126 16421,164613 L 16421 165527 C 6385,170100 0,181074 0,192048 C 0,203023 6385,213997 16421,218569 L 16421 219484 C 10947,224971 7296,233201 7296,241432 C 7296,256979 18249,268867 32841,271611 C 50180,306363 78459,334715 113129,352086 C 114958,366723 127727,377695 143237,377695 C 151450,377695 159664,374038 165137,368551 L 166049 368551 C 171522,378607 181558,385011 192505,385011 C 203452,385011 214399,378607 218962,368551 L 219873 368551 C 225347,374038 233560,377695 241774,377695 C 257283,377695 269142,366723 271882,352086 C 306552,334715 334831,306363 352169,271611 C 366761,269782 377714,256979 377714,241432 C 377714,233201 374063,224971 368590,219484 L 368590 218569 C 378626,213082 385011,203023 385011,192048 C 385011,181074 378626,170100 368590,165527 L 368590 164613 C 374063,159126 377714,150895 377714,142664 C 377714,127118 366761,115229 352169,112485 C 334831,77734 306552,49384 271882,32008 C 268231,18291 255454,7316 240863,7316 C 232649,7316 224436,10974 218962,16461 L 218051 16461 C 213488,6401 202541,0 191594,0 Z" fill="#FFFFFF"/>
  <path d="M 49262 14632 L 56564 14632 L 63860 14632 L 63860 0 L 56564 0 L 49262 0 L 14592 0 L 7296 0 L 0 0 L 0 14632 L 7296 14632 L 14592 14632 L 49262 14632 Z" fill="#2C5967" transform="translate(159664,135347)"/>
  <path d="M 14598 14632 L 14598 5487 L 14598 0 L 0 0 L 0 5487 L 7302 5487 L 0 5487 L 0 14632 L 0 49384 L 0 56700 L 0 64016 L 14598 64016 L 14598 56700 L 14598 49384 L 14598 14632 Z" fill="#2C5967" transform="translate(184291,160038)"/>
  <path d="M 14592 0 L 7296 0 L 0 0 L 0 14632 L 7296 14632 L 14592 14632 L 49262 14632 L 56564 14632 L 63860 14632 L 63860 0 L 56564 0 L 49262 0 L 14592 0 Z" fill="#2C5967" transform="translate(159664,234116)"/>
  <path d="M 364939 182903 C 364939,172843 358554,165528 349429,162784 C 349429,159126 348518,155468 347607,151810 C 353992,148151 357643,141750 357643,133520 C 357643,121631 348518,112485 336660,112485 L 335742 112485 C 319321,75905 289213,45726 252721,29265 L 252721 28350 C 252721,16462 243596,7316 231738,7316 C 224436,7316 218051,10975 213488,17376 C 209844,16462 206192,16462 202541,15547 C 199808,6402 192505,0 182469,0 C 172433,0 165137,6402 162397,15547 C 158746,15547 155102,16462 151450,17376 C 147799,10975 141415,7316 133201,7316 C 121342,7316 112218,16462 112218,28350 L 112218 29265 C 75725,45726 45617,75905 29197,112485 L 28286 112485 C 16421,112485 7302,121631 7302,133520 C 7302,140836 10947,147237 17338,151810 C 16421,155468 16421,159126 15509,162784 C 6385,165528 0,172843 0,182903 C 0,192963 6385,200279 15509,203023 C 15509,206681 16421,210338 17338,213997 C 10947,217655 7302,224056 7302,232287 C 7302,244176 16421,253321 28286,253321 L 29197 253321 C 45617,289901 75725,320079 112218,336544 L 112218 337455 C 112218,349346 121342,358490 133201,358490 C 140503,358490 146888,354832 151450,348428 C 155102,349346 158746,349346 162397,350257 C 165137,359407 173344,365805 182469,365805 C 191594,365805 199808,359407 202541,350257 C 206192,350257 209844,349346 213488,348428 C 217139,354832 223524,358490 231738,358490 C 243596,358490 252721,349346 252721,337455 L 252721 336544 C 289213,320079 319321,289901 335742,253321 L 336660 253321 C 348518,253321 357643,244176 357643,232287 C 357643,224971 353992,218569 347607,213997 C 348518,210338 348518,206681 349429,203023 C 358554,200279 364939,192963 364939,182903 Z M 336660 182903 C 336660,179245 339393,175587 343956,175587 C 347607,175587 351252,178331 351252,182903 C 351252,187476 348518,190220 343956,190220 C 340305,190220 336660,186561 336660,182903 Z M 343956 133520 C 343956,137177 341216,140836 336660,140836 C 332097,140836 329357,138092 329357,133520 C 329357,129861 332097,126203 336660,126203 C 341216,126203 343956,129861 343956,133520 Z M 231738 21034 C 235389,21034 239034,23778 239034,28350 C 239034,32009 236300,35666 231738,35666 C 228087,35666 224436,32923 224436,28350 C 224436,24692 228087,21034 231738,21034 Z M 182469 13718 C 186121,13718 189772,16462 189772,21034 C 189772,25606 186121,28350 182469,28350 C 178818,28350 175173,25606 175173,21034 C 175173,16462 178818,13718 182469,13718 Z M 140503 28350 C 140503,32009 137763,35666 133201,35666 C 129556,35666 125905,32923 125905,28350 C 125905,24692 128645,21034 133201,21034 C 136852,21034 140503,24692 140503,28350 Z M 20983 133520 C 20983,129861 23723,126203 28286,126203 C 31930,126203 35581,128947 35581,133520 C 35581,137177 32848,140836 28286,140836 C 24634,140836 20983,137177 20983,133520 Z M 20983 175587 C 24634,175587 28286,178331 28286,182903 C 28286,187476 25546,190220 20983,190220 C 16421,190220 13687,186561 13687,182903 C 13687,179245 17338,175587 20983,175587 Z M 20983 232287 C 20983,228629 23723,224971 28286,224971 C 31930,224971 35581,227715 35581,232287 C 35581,235945 32848,239603 28286,239603 C 24634,239603 20983,235945 20983,232287 Z M 125905 337455 C 125905,333798 128645,330140 133201,330140 C 136852,330140 140503,332887 140503,337455 C 140503,342031 137763,344771 133201,344771 C 129556,344771 125905,341113 125905,337455 Z M 182469 352086 C 178818,352086 175173,349346 175173,344771 C 175173,341113 177907,337455 182469,337455 C 187032,337455 189772,340202 189772,344771 C 189772,348428 186121,352086 182469,352086 Z M 224436 337455 C 224436,333798 227176,330140 231738,330140 C 235389,330140 239034,332887 239034,337455 C 239034,342031 236300,344771 231738,344771 C 228087,344771 224436,341113 224436,337455 Z M 247247 323736 C 244507,320996 241774,319167 239034,318250 L 239034 250577 L 239034 215826 L 239034 206681 L 239034 201194 L 225353 201194 L 225353 206681 L 225353 215826 L 225353 250577 L 225353 318250 C 218051,320996 212577,327394 211666,335627 C 208926,336544 206192,336544 202541,337455 C 199808,331969 196157,327394 189772,325565 L 189772 250577 L 176084 250577 L 176084 325565 C 170611,327394 166049,331969 163309,337455 C 160575,337455 156924,336544 154190,335627 C 153273,327394 147799,320996 140503,318250 L 140503 250577 L 140503 215826 L 140503 208510 L 140503 201194 L 126816 201194 L 126816 208510 L 126816 215826 L 126816 250577 L 126816 318250 C 123165,319167 120431,320996 118609,323736 C 85761,308192 58393,281671 42884,247834 C 45617,245090 47440,242347 48357,239603 L 115869 239603 L 115869 225885 L 48357 225885 C 45617,218569 39233,213082 31019,212168 C 30108,209424 30108,206681 29197,203023 C 34670,200279 39233,196621 41055,190220 L 115869 190220 L 150539 190220 L 157835 190220 L 165137 190220 L 165137 176502 L 157835 176502 L 150539 176502 L 115869 176502 L 41055 176502 C 39233,171015 34670,166442 29197,163698 C 29197,160955 30108,157297 31019,154554 C 39233,153638 45617,148151 48357,140836 L 115869 140836 L 115869 127118 L 48357 127118 C 47440,123460 45617,120716 42884,118887 C 58393,85965 84850,58529 118609,42983 C 121342,45726 124082,47555 127727,48470 L 127727 116144 L 127727 150895 L 127727 154554 L 135030 154554 L 127727 154554 L 127727 165528 L 141415 165528 L 141415 154554 L 141415 150895 L 141415 116144 L 141415 47555 C 148710,44811 154190,38410 155102,30179 C 157835,29265 160575,29265 164226,28350 C 166960,33837 171522,38410 176996,40239 L 176996 115229 L 190683 115229 L 190683 40239 C 196157,38410 200719,33837 202541,28350 C 205281,28350 208926,29265 211666,30179 C 212577,38410 218051,44811 225353,47555 L 225353 115229 L 225353 149981 L 225353 155468 L 225353 164613 L 239034 164613 L 239034 155468 L 239034 149981 L 239034 115229 L 239034 47555 C 242685,46641 245425,44811 247247,42068 C 280089,57615 307463,84136 322973,117972 C 320233,120716 318410,123460 317499,126203 L 249981 126203 L 249981 139921 L 317499 139921 C 320233,147237 326624,152724 334831,153638 C 335742,156382 335742,159126 336660,162784 C 331180,165528 326624,169185 324795,175587 L 249981 175587 L 215317 175587 L 208015 175587 L 200719 175587 L 200719 189305 L 208015 189305 L 215317 189305 L 249981 189305 L 324795 189305 C 326624,194792 331180,199364 336660,202108 C 336660,204851 335742,208510 334831,211253 C 326624,212168 320233,217655 317499,224971 L 249981 224971 L 249981 238689 L 317499 238689 C 318410,242347 320233,245090 322973,246919 C 307463,280756 280089,308192 247247,323736 Z M 343956 232287 C 343956,235945 341216,239603 336660,239603 C 332097,239603 329357,236860 329357,232287 C 329357,228629 332097,224971 336660,224971 C 341216,224971 343956,228629 343956,232287 Z" fill="#2C5967" transform="translate(9124,9144)"/>
</svg>