<svg xmlns="http://www.w3.org/2000/svg" viewBox="0 0 385010 335812" width="40" height="35">
  <path d="M 18397 128728 C 7200,128728 0,122331 0,114335 L 0 0 L 308701 0 L 308701 113533 C 308701,122331 300706,127926 290311,127926 L 18397 127926 L 18397 128728 Z" fill="#FFFFFF" transform="translate(38392,203086)"/>
  <path d="M 308701 7995 L 308701 117537 C 308701,123935 303106,127933 294308,127933 L 23197 127933 C 14399,127933 8798,123935 8798,117537 L 8798 7995 L 308701 7995 Z M 316703 0 L 308701 0 L 8002 0 L 0 0 L 0 7995 L 0 117537 C 0,128728 9600,136724 23197,136724 L 295104 136724 C 308701,136724 317499,128728 317499,118333 L 317499 7995 L 316703 0 Z" fill="#FFFFFF" transform="translate(33586,199089)"/>
  <path d="M 0 191094 L 802 178298 C 3202,147119 20797,119135 49583,104742 C 55981,101540 59985,95945 61583,88751 C 66382,66363 80775,47972 101566,39175 C 110363,35177 119963,33579 129563,33579 C 131956,33579 133560,33579 135960,33579 C 136756,33579 137558,33579 138354,33579 C 144758,33579 150353,31179 154351,27182 C 170348,9593 192736,0 216729,0 C 248723,0 278311,17589 292704,47170 C 295906,53568 301502,57565 308701,59163 C 318301,61563 327894,64765 335890,70361 C 374282,94347 387879,144719 366286,185498 L 363084 191896 L 0 191094 Z" fill="#FFFFFF" transform="translate(3997,4800)"/>
  <path d="M 219931 7995 C 251117,7995 278311,25584 292704,52766 C 296702,59965 303099,65561 311101,67159 C 320694,69559 329492,72761 337494,78356 C 374282,101540 387077,149519 366280,187898 L 363880 191896 L 8798 191896 L 9600 183098 C 11993,152715 28792,126328 55981,112738 C 63180,108740 68776,102342 69578,94347 C 73576,73556 87969,55968 107168,47170 C 115163,43173 124763,41575 133554,41575 C 135158,41575 137558,41575 139958,41575 C 140753,41575 141556,41575 142351,41575 C 149551,41575 156751,38379 161550,33579 C 175943,17589 197536,7995 219931,7995 Z M 219931 0 C 195136,0 171946,10389 155153,28780 C 151951,31982 147151,34381 142351,34381 C 141556,34381 140753,34381 140753,34381 C 138354,34381 135954,34381 133554,34381 C 123158,34381 113565,36775 103966,40773 C 82373,50372 66376,70361 61582,93545 C 60780,99140 56783,103940 51983,106340 C 22395,121529 3998,150315 1598,183098 L 802 191896 L 0 199891 L 8798 199891 L 364682 199891 L 369482 199891 L 371882 195893 L 374282 191896 C 396670,150315 383079,97543 342287,71959 C 333490,66363 323897,62365 313501,59965 C 307899,58368 303099,55166 300706,49570 C 284709,19186 254319,0 219931,0 Z" fill="#FFFFFF"/>
  <path d="M 0 110338 C 0,116735 6397,120733 15195,120733 L 287109 120733 C 295906,120733 301502,116735 301502,110338 L 301502 0 L 0 0 L 0 110338 Z M 15997 15991 L 285511 15991 L 285511 104742 L 15997 104742 L 15997 15991 Z" fill="#2D5967" transform="translate(41581,207078)"/>
  <path d="M 13591 27194 C 21099,27194 27188,21105 27188,13597 C 27188,6089 21099,0 13591,0 C 6083,0 0,6089 0,13597 C 0,21105 6083,27194 13591,27194 Z" fill="#2D5967" transform="translate(273518,252650)"/>
  <path d="M 328696 70361 C 320701,65561 311903,61563 302304,59163 C 294308,57566 287109,51970 283913,44777 C 270316,17589 242326,0 211133,0 C 188739,0 167146,9593 151951,25584 C 146355,31179 138360,34381 130358,33579 C 119161,32777 107970,34381 98370,39175 C 79177,47972 64778,65561 60780,86351 C 59182,94347 54383,100745 47189,104742 C 20797,119135 3202,145521 802,175103 L 0 183900 L 51983 183900 L 152753 183900 C 146355,179903 141556,174301 136756,167909 L 49583 167909 L 17595 167909 C 21593,147119 35190,128728 54383,119135 C 65580,112738 74378,102342 76777,89547 C 79973,73556 90375,60768 105570,53568 C 113565,50372 121561,48775 130358,49570 C 143153,51168 155949,46374 164746,36775 C 176746,23184 194341,15991 212731,15991 C 237526,15991 259921,29582 271112,51970 C 276713,63963 287911,71958 300706,74358 C 307899,75956 315099,79152 322299,83150 C 351091,100745 361486,137526 347889,167909 L 189541 167909 C 169546,167909 152753,151117 152753,130326 L 136756 130326 C 136756,159908 160748,183900 189541,183900 L 355089 183900 L 357489 179903 C 378279,141523 365484,92749 328696,70361 Z" fill="#2D5967" transform="translate(8797,7995)"/>
</svg>