<svg xmlns="http://www.w3.org/2000/svg" viewBox="0 0 385010 363620" width="40" height="38">
  <path d="M 265850 355770 C 262429,355770 259112,354641 256404,352555 C 253690,350464 251746,347537 250866,344233 L 228356 344233 C 227509,347544 225584,350470 222883,352562 C 220188,354654 216870,355783 213463,355770 C 210049,355757 206731,354622 204023,352536 C 201316,350451 199371,347531 198479,344233 L 197267 344233 C 196419,347557 194494,350508 191787,352613 C 189085,354724 185755,355867 182328,355867 C 178902,355867 175571,354724 172870,352613 C 170162,350508 168237,347557 167390,344233 L 155442 344233 L 155442 299366 L 152239 298327 L 146175 295901 C 143859,294910 141601,293780 139419,292514 L 136473 291039 C 134311,289824 132232,288522 130243,287221 C 128247,285919 127297,285312 125911,284271 C 124525,283229 122619,281928 121060,280626 C 119501,279324 116908,277155 114830,275246 L 113873 274378 L 112314 273337 C 109426,270617 106705,267719 104177,264660 L 98460 257631 L 99243 257631 L 96901 253986 L 63738 253986 L 63738 192378 L 0 192378 L 956 179188 C 2047,163736 7078,148824 15574,135880 C 24063,122936 35729,112392 49448,105257 C 52419,103691 55005,101487 57027,98801 C 59048,96116 60453,93017 61140,89724 C 64213,73903 72690,59648 85107,49404 C 97529,39161 113116,33566 129203,33582 C 131398,33582 133560,33582 135697,33582 L 137949 33582 C 140863,33600 143744,33007 146413,31841 C 149082,30676 151482,28963 153446,26813 C 161493,18326 171176,11570 181911,6960 C 192646,2350 204203,-18 215882,1 C 231719,-57 247254,4335 260723,12679 C 274198,21023 285062,32984 292088,47205 C 293622,50265 295816,52943 298512,55046 C 301207,57147 304338,58619 307675,59354 C 317441,61521 326758,65366 335216,70721 C 353844,82532 367319,100969 372941,122329 C 378568,143688 375911,166388 365523,185870 L 362057 192378 L 313739 192378 L 313739 195241 L 328202 202443 L 328202 216934 L 293558 216934 C 293558,217976 293558,219104 292954,220145 L 291915 225612 C 288116,239541 281552,252559 272607,263878 L 271304 265528 L 270701 265528 C 267563,269364 264149,272961 260479,276287 L 260479 291907 L 274942 291907 L 290792 313169 L 290792 344233 L 281090 344233 C 280204,347582 278215,350541 275456,352632 C 272697,354724 269315,355828 265850,355770 Z" fill="#FFFFFF" transform="translate(4678,4336)"/>
  <path d="M 220560 8678 C 235582,8632 250314,12802 263097,20715 C 275873,28629 286191,39969 292865,53454 C 294693,57147 297350,60369 300623,62867 C 303902,65365 307707,67073 311743,67858 C 324224,70661 335889,76318 345823,84387 C 355763,92455 363700,102717 369026,114369 C 374352,126022 376912,138751 376515,151561 C 376117,164371 372767,176914 366735,188213 L 364483 192378 L 314085 192378 L 314085 201836 L 319103 204353 L 328542 209038 L 328542 216935 L 294424 216935 C 293853,220949 293019,224921 291915,228823 L 292435 228823 C 288745,242184 282412,254666 273813,265528 L 273640 265528 C 269899,270274 265760,274687 261262,278717 L 261262 300583 L 277798 300583 L 291479 318980 L 291479 344230 L 281693 344230 C 281693,347201 280519,350050 278427,352149 C 276328,354247 273486,355428 270528,355428 C 267563,355428 264721,354247 262628,352149 C 260530,350050 259356,347201 259356,344230 L 229306 344230 C 229440,345777 229254,347336 228761,348805 C 228260,350281 227464,351629 226418,352777 C 225372,353920 224095,354837 222677,355460 C 221259,356089 219726,356409 218179,356409 C 216626,356409 215093,356089 213675,355460 C 212256,354837 210986,353920 209940,352777 C 208894,351629 208092,350281 207598,348805 C 207097,347336 206911,345777 207052,344230 L 198389 344230 C 198389,345700 198101,347156 197542,348517 C 196978,349871 196156,351109 195117,352149 C 194084,353188 192852,354009 191498,354574 C 190137,355139 188687,355428 187218,355428 C 185755,355428 184298,355139 182944,354574 C 181590,354009 180358,353188 179319,352149 C 178286,351109 177458,349871 176899,348517 C 176335,347156 176046,345700 176046,344230 L 164534 344230 L 164534 300846 C 160492,299761 156526,298397 152669,296767 C 150032,295605 147459,294301 144963,292861 L 143314 292081 C 141235,290952 139246,289651 137340,288436 L 133098 285573 C 131539,284445 129979,283316 128510,282102 C 127034,280887 124525,278717 122619,276982 L 120111 274726 C 117351,271978 114752,269082 112314,266049 L 111884 265615 C 108971,261830 106308,257858 103914,253727 L 72741 253727 L 72741 192378 L 9349 192378 L 9959 183701 C 11043,168994 15849,154806 23928,142478 C 32001,130150 43083,120087 56115,113241 C 59670,111400 62769,108785 65182,105586 C 67595,102387 69257,98687 70059,94757 C 72914,79909 80859,66525 92505,56911 C 104152,47297 118782,42054 133874,42086 C 135870,42086 137949,42086 139938,42086 L 142621 42086 C 146080,42198 149519,41602 152734,40334 C 155955,39065 158874,37152 161326,34711 C 168898,26537 178054,20010 188244,15532 C 198435,11054 209433,8721 220560,8678 Z M 220560 1 C 208259,15 196092,2565 184812,7491 C 173537,12417 163392,19614 155005,28636 C 153427,30346 151514,31708 149378,32635 C 147247,33561 144950,34032 142621,34016 L 140805 34016 C 138495,33889 136185,33889 133874,34016 C 123595,33863 113398,35843 103914,39830 C 93050,44627 83496,51985 76078,61277 C 68660,70569 63597,81519 61307,93196 C 60774,95843 59657,98337 58040,100499 C 56417,102659 54344,104433 51957,105691 C 37641,113235 25481,124308 16620,137865 C 7758,151421 2483,167016 1296,183180 L 693 191857 L 0 201055 L 64079 201055 L 64079 262404 L 98287 262404 L 105044 271081 C 107810,274466 110498,277503 113700,280367 L 115516 282015 L 116299 282796 C 118725,285052 120803,286787 122793,288350 C 124782,289912 126084,290866 127727,292081 C 129376,293296 130762,294250 132315,295205 C 133874,296159 136563,297895 138816,299110 L 140112 299806 L 140542 299806 L 141844 300410 C 144129,301751 146503,302938 148941,303971 L 155525 306833 L 155525 352040 L 168776 352040 C 170194,355132 172382,357808 175128,359810 C 177875,361812 181083,363076 184458,363474 C 187827,363872 191248,363404 194386,362101 C 197523,360792 200276,358707 202375,356031 C 204466,358707 207206,360798 210338,362108 C 213469,363410 216883,363885 220252,363481 C 223621,363083 226823,361819 229563,359817 C 232303,357808 234478,355132 235889,352040 L 252252 352040 C 253837,355492 256378,358411 259568,360465 C 262763,362512 266472,363603 270264,363603 C 274057,363603 277766,362512 280961,360465 C 284151,358411 286692,355492 288277,352040 L 299878 352040 L 299878 316118 L 298146 313776 L 284728 295031 L 282129 291560 L 269918 291560 L 269918 282535 C 272690,279817 275289,276924 277714,273858 L 278408 273858 L 281000 270561 C 290311,258776 297145,245229 301091,230732 L 302567 225265 L 337205 225265 L 337205 203658 L 332354 201316 L 331834 201316 L 369328 201316 L 371753 196717 L 374005 192551 C 380737,180096 384485,166246 384959,152091 C 385434,137937 382623,123866 376745,110985 C 370868,98105 362089,86769 351091,77869 C 340099,68969 327195,62750 313392,59701 C 310691,59110 308149,57924 305962,56228 C 303780,54532 301996,52368 300744,49895 C 293397,34877 281982,22232 267807,13409 C 253626,4585 237250,-61 220560,1 Z" fill="#FFFFFF"/>
  <path d="M 21394 0 L 0 0 C 10774,13667 24801,24408 40792,31238 L 40792 13884 C 33740,10133 27220,5465 21394,0 Z" fill="#2D5967" transform="translate(111794,265612)"/>
  <path d="M 0 36706 L 21297 36706 C 29896,25843 36229,13361 39919,0 L 23466 0 C 18827,14009 10761,26629 0,36706 Z" fill="#2D5967" transform="translate(252862,228817)"/>
  <path d="M 20874 41479 C 31673,30614 45136,22793 59914,18802 C 74692,14811 90259,14791 105044,18744 L 141844 18744 C 119892,3311 92807,-2947 66324,1298 C 39842,5542 16055,19954 0,41479 L 20874 41479 Z" fill="#2D5967" transform="translate(110319,97362)"/>
  <path d="M 328369 70142 C 320393,65061 311608,61392 302394,59296 C 298415,58462 294680,56732 291466,54236 C 288257,51741 285652,48545 283862,44891 C 278016,33137 269405,22984 258772,15304 C 248139,7623 235806,2647 222831,803 C 209856,-1041 196625,302 184285,4717 C 171939,9133 160851,16487 151977,26148 C 149275,29055 145938,31290 142223,32676 C 138508,34062 134523,34560 130589,34131 C 114573,32595 98556,37070 85645,46689 C 72735,56307 63848,70385 60703,86196 C 59908,90125 58239,93825 55827,97024 C 53414,100222 50314,102838 46759,104678 C 33727,111525 22651,121587 14573,133916 C 6500,146244 1688,160432 603,175138 L 0 183816 L 51264 183816 L 51264 167936 L 17492 167936 C 19514,157513 23851,147682 30198,139177 C 36537,130673 44719,123714 54120,118822 C 59760,115890 64662,111723 68474,106630 C 72279,101538 74891,95650 76117,89406 C 78485,77373 85228,66648 95033,59307 C 104838,51965 117011,48530 129203,49664 C 135581,50353 142030,49543 148043,47298 C 154056,45054 159465,41437 163841,36735 C 171009,29083 179922,23281 189810,19822 C 199698,16363 210273,15348 220643,16864 C 231006,18381 240850,22384 249339,28533 C 257829,34681 264714,42794 269398,52180 C 272280,57900 276399,62898 281468,66803 C 286531,70709 292416,73422 298666,74741 C 306167,76371 313315,79308 319796,83419 C 333464,92070 343558,105374 348223,120886 C 352881,136397 351797,153074 345168,167849 L 315554 167849 L 315554 183642 L 354781 183642 L 357033 179564 C 366896,161062 369424,139511 364111,119222 C 358798,98933 346034,81404 328369,70142 Z" fill="#2D5967" transform="translate(9356,8573)"/>
  <path d="M 108849 0 L 18705 0 L 10042 17789 C 9368,18806 8842,19917 8483,21086 C 7707,23162 7379,25378 7514,27590 C 7649,29803 8245,31962 9266,33928 C 10466,36310 12250,38342 14463,39829 L 14463 73497 L 2772 79311 L 0 80700 L 0 88596 L 128074 88596 L 128074 80700 L 118634 76014 L 113610 73497 L 113610 39829 C 115824,38342 117614,36310 118808,33928 C 119886,31987 120546,29841 120739,27628 C 120931,25415 120656,23185 119937,21086 C 119545,19914 118994,18804 118288,17789 L 108849 0 Z M 71701 72803 L 71701 55449 L 55942 55449 L 55942 72803 L 29960 72803 L 29960 42693 L 98024 42693 L 98024 72803 L 71701 72803 Z M 22863 26379 L 28401 15793 L 99236 15793 L 104177 25425 L 104780 26379 L 23383 26379 C 23383,26379 22773,26466 22863,26379 Z" fill="#2D5967" transform="translate(200469,128336)"/>
  <path d="M 96728 0 L 0 0 L 0 66552 L 11518 66552 C 11518,68028 11807,69478 12365,70839 C 12930,72199 13751,73431 14791,74471 C 15824,75510 17056,76332 18410,76896 C 19770,77461 21221,77750 22690,77750 C 24153,77750 25610,77461 26964,76896 C 28318,76332 29549,75510 30589,74471 C 31622,73431 32444,72199 33008,70839 C 33567,69478 33855,68028 33855,66552 L 42518 66552 C 42383,68105 42570,69658 43063,71134 C 43564,72603 44360,73951 45406,75100 C 46452,76242 47728,77159 49147,77782 C 50565,78411 52098,78731 53645,78731 C 55198,78731 56725,78411 58150,77782 C 59568,77159 60838,76242 61884,75100 C 62930,73951 63726,72603 64226,71134 C 64720,69658 64906,68105 64772,66552 L 95252 66552 C 95252,68028 95541,69478 96105,70839 C 96663,72199 97491,73431 98524,74471 C 99564,75510 100796,76332 102150,76896 C 103504,77461 104960,77750 106423,77750 C 107893,77750 109343,77461 110697,76896 C 112057,76332 113290,75510 114322,74471 C 115362,73431 116183,72199 116748,70839 C 117306,69478 117595,68028 117595,66552 L 127381 66552 L 127381 41302 L 113700 22905 L 96728 22905 L 96728 0 Z M 15670 50760 L 15670 16053 L 80878 16053 L 80878 50760 L 15670 50760 Z M 110928 50760 L 96728 50760 L 96728 38703 L 105384 38703 L 111274 46596 L 110928 50760 Z" fill="#2D5967" transform="translate(164534,277672)"/>
  <path d="M 107463 102740 L 107463 19437 L 75424 32540 L 75424 19524 L 42691 32626 L 42691 0 L 0 0 L 0 102740 L 107463 102740 Z M 26842 55969 L 59664 42866 L 59664 56056 L 91793 42953 L 91793 86947 L 81571 86947 L 81571 71762 L 65811 71762 L 65811 86947 L 43121 86947 L 43121 71762 L 27361 71762 L 27361 86947 L 15760 86947 L 15760 15793 L 26842 15793 L 26842 55969 Z" fill="#2D5967" transform="translate(72741,150989)"/>
</svg>