<svg xmlns="http://www.w3.org/2000/svg" viewBox="0 0 290990 385010" width="31" height="40">
  <path d="M 0 58862 L 0 196901 C 4209,270977 57533,340773 142614,383535 L 145496 385011 L 148377 383535 C 233457,340696 286781,270906 290991,196901 L 290991 58862 L 145496 0 L 0 58862 Z M 278138 196310 C 274153,264849 224666,329768 145496,370534 C 66324,329768 16767,264849 12853,196310 L 12853 67576 L 145496 13886 L 278138 67576 L 278138 196310 Z" fill="#2D5967"/>
  <path d="M 91581 0 C 91215,0 90843,0 90471,0 C 85158,0 79838,956 74666,2881 C 64919,6500 56648,13296 51110,22157 C 28658,25552 11525,45200 11525,68314 C 11525,69571 11525,70829 11672,72157 C 4139,80724 0,91581 0,103100 C 0,114624 4139,125481 11672,134048 C 11525,135306 11525,136557 11525,137737 C 11525,160780 28510,180352 50815,183900 C 59234,197709 74153,206205 90400,206205 C 90920,206205 91434,206205 91953,206205 C 98300,205981 103549,202143 105981,196676 C 105390,194533 105095,192242 105095,189881 L 105095 16318 C 105095,13957 105390,11743 105981,9600 C 103472,4062 98004,218 91511,0 L 91581 0 Z M 50815 43795 C 40914,43795 32938,51848 32938,61813 C 32938,71785 40991,79838 50815,79838 C 53401,79838 55833,79248 58053,78286 L 62853 83085 L 94687 83085 L 94687 96747 L 54582 96747 C 51996,90028 45495,85229 37891,85229 C 27990,85229 20014,93282 20014,103247 C 20014,113219 28067,121272 37891,121272 C 45495,121272 51996,116472 54582,109677 L 94687 109677 L 94687 122671 L 62853 122671 L 58053 127477 C 55833,126438 53401,125924 50815,125924 C 40914,125924 32938,133971 32938,143943 C 32938,153914 40991,161967 50815,161967 C 60639,161967 68686,153914 68686,143943 C 68686,141357 68096,138848 67133,136634 L 68172 135601 L 94687 135601 L 94687 189958 C 94687,191800 93282,193352 91511,193429 C 91138,193429 90773,193429 90400,193429 C 77772,193429 66324,186409 60492,175039 L 58862 171862 L 55320 171567 C 37962,170162 24301,155390 24301,137885 C 24301,136409 24448,134786 24743,132867 L 25186 129614 L 22895 127323 C 16395,120900 12853,112333 12853,103176 C 12853,94020 16472,85447 22972,79023 L 25334 76733 L 24814 73486 C 24519,71567 24371,69937 24371,68391 C 24371,50809 38039,35966 55538,34709 L 59086 34414 L 60787 31314 C 64772,23781 71342,18019 79248,15067 C 82938,13661 86781,12994 90548,12994 C 90843,12994 91068,12994 91363,12994 C 93282,12994 94758,14547 94758,16466 L 94758 70232 L 68243 70232 L 67210 69199 C 68172,66985 68763,64476 68763,61891 C 68763,51996 60710,43872 50886,43872 L 50815 43795 Z M 55910 61813 C 55910,64624 53619,66915 50815,66915 C 48004,66915 45720,64624 45720,61813 C 45720,59009 48004,56719 50815,56719 C 53619,56719 55910,59009 55910,61813 Z M 42986 103176 C 42986,105981 40695,108271 37891,108271 C 35081,108271 32790,105981 32790,103176 C 32790,100366 35081,98081 37891,98081 C 40695,98081 42986,100366 42986,103176 Z M 55910 143872 C 55910,146676 53619,148967 50815,148967 C 48004,148967 45720,146676 45720,143872 C 45720,141061 48004,138771 50815,138771 C 53619,138771 55910,141061 55910,143872 Z" fill="#2D5967" transform="translate(34330,77329)"/>
  <path d="M 15586 206205 C 16100,206205 16620,206205 17133,206205 C 33380,206205 48299,197709 56725,183900 C 79023,180429 96015,160787 96015,137744 C 96015,136557 96015,135306 95867,134048 C 103401,125481 107533,114624 107533,103106 C 107533,91581 103401,80724 95867,72157 C 96015,70829 96015,69571 96015,68320 C 96015,45200 78876,25552 56423,22157 C 50886,13296 42614,6571 32867,2881 C 27695,962 22382,0 16985,0 C 16620,0 16247,0 15882,0 C 6943,225 0,7386 0,16324 L 0 189810 C 0,198672 6795,205839 15509,206135 L 15586 206205 Z M 84638 79023 C 91138,85453 94758,94020 94758,103176 C 94758,112333 91215,120900 84715,127329 L 82424 129620 L 82867 132867 C 83162,134786 83310,136409 83310,137892 C 83310,155390 69719,170239 52291,171567 L 48742 171862 L 47119 175039 C 41286,186416 29838,193429 17210,193429 C 16838,193429 16472,193429 16100,193429 C 14399,193429 12923,191806 12923,189958 L 12923 135601 L 39438 135601 L 40471 136634 C 39515,138848 38924,141363 38924,143943 C 38924,153844 46971,161967 56795,161967 C 66620,161967 74666,153914 74666,143943 C 74666,133977 66620,125924 56795,125924 C 54209,125924 51771,126514 49557,127477 L 44757 122677 L 12923 122677 L 12923 109677 L 53029 109677 C 55615,116472 62115,121272 69719,121272 C 79620,121272 87596,113219 87596,103253 C 87596,93282 79543,85229 69719,85229 C 62115,85229 55615,90028 53029,96753 L 12923 96753 L 12923 83085 L 44757 83085 L 49557 78286 C 51771,79319 54209,79838 56795,79838 C 66690,79838 74666,71785 74666,61820 C 74666,51848 66620,43795 56795,43795 C 46971,43795 38924,51848 38924,61820 C 38924,64406 39515,66915 40471,69129 L 39438 70162 L 12923 70162 L 12923 16395 C 12923,14547 14399,13001 16324,12924 C 16324,12924 16838,12924 17133,12924 C 20900,12924 24743,13591 28433,14996 C 36339,17948 42909,23710 46901,31244 L 48595 34343 L 52143 34638 C 69571,35966 83310,50738 83310,68320 C 83310,69867 83162,71490 82867,73415 L 82347 76662 L 84715 78953 L 84638 79023 Z M 51623 143872 C 51623,141068 53914,138777 56725,138777 C 59529,138777 61820,141068 61820,143872 C 61820,146676 59529,148967 56725,148967 C 53914,148967 51623,146676 51623,143872 Z M 64553 103176 C 64553,100372 66838,98081 69648,98081 C 72452,98081 74743,100372 74743,103176 C 74743,105981 72452,108271 69648,108271 C 66838,108271 64553,105981 64553,103176 Z M 51623 61820 C 51623,59009 53914,56725 56725,56725 C 59529,56725 61820,59009 61820,61820 C 61820,64624 59529,66915 56725,66915 C 53914,66915 51623,64624 51623,61820 Z" fill="#2D5967" transform="translate(149038,77252)"/>
</svg>