<svg xmlns="http://www.w3.org/2000/svg" viewBox="0 0 385010 354305" width="40" height="37">
  <path d="M 186685 341684 C 181571,339124 61403,283085 61403,222754 L 61403 217223 L 0 217223 L 0 196676 L 61403 196676 L 61403 174063 L 0 174063 L 0 153677 L 61403 153677 L 61403 131231 L 0 131231 L 0 110678 L 61403 110678 L 61403 88232 L 0 88232 L 0 67678 L 61403 67678 L 61403 46715 L 65529 46715 C 151944,46715 178767,15272 184869,5448 L 188418 0 L 191889 5448 C 201624,20803 230179,46715 311230,46715 L 315356 46715 L 315356 67678 L 376758 67678 L 376758 88232 L 315356 88232 L 315356 110678 L 376758 110678 L 376758 131231 L 315356 131231 L 315356 153677 L 376758 153677 L 376758 174063 L 315356 174063 L 315356 196509 L 376758 196509 L 376758 217062 L 315356 217062 L 315356 222587 C 315356,282919 195271,339124 190157,341517 L 188418 342345 L 186685 341684 Z" fill="#FFFFFF" transform="translate(4126,7507)"/>
  <path d="M 192544 15349 C 200225,27316 226303,58348 315356,58348 L 315356 79312 L 376758 79312 L 376758 91613 L 315356 91613 L 315356 122311 L 376758 122311 L 376758 134606 L 315356 134606 L 315356 165060 L 376758 165060 L 376758 177361 L 315356 177361 L 315356 208060 L 376758 208060 L 376758 220361 L 315356 220361 L 315356 230262 C 315356,288610 192544,345810 192544,345810 C 192544,345810 69655,288861 69655,230262 L 69655 220605 L 8252 220605 L 8252 208310 L 69655 208310 L 69655 177605 L 8252 177605 L 8252 165060 L 69655 165060 L 69655 134606 L 8252 134606 L 8252 122311 L 69655 122311 L 69655 91613 L 8252 91613 L 8252 79312 L 69655 79312 L 69655 58348 C 155653,58348 185203,27316 192544,15349 Z M 192544 0 L 185530 10896 C 179672,20053 154004,50096 69989,50096 L 61736 50096 L 61736 71060 L 0 71060 L 0 99865 L 61403 99865 L 61403 114059 L 0 114059 L 0 142864 L 61403 142864 L 61403 156808 L 0 156808 L 0 185614 L 61403 185614 L 61403 199807 L 0 199807 L 0 228613 L 61403 228613 L 61403 230018 C 61403,292987 183798,350263 189079,352740 L 192544 354306 L 196015 352740 C 201213,350263 323608,292987 323608,230018 L 323608 228613 L 385011 228613 L 385011 200058 L 323608 200058 L 323608 185864 L 385011 185864 L 385011 156808 L 323608 156808 L 323608 142864 L 385011 142864 L 385011 114059 L 323608 114059 L 323608 99865 L 385011 99865 L 385011 71060 L 323608 71060 L 323608 50096 L 315356 50096 C 236287,50096 208804,25340 199808,10896 L 192544 0 L 192544 0 Z" fill="#FFFFFF"/>
  <path d="M 52246 0 L 0 0 L 0 12295 L 52246 12295 L 52246 0 Z" fill="#2C5967" transform="translate(8252,79312)"/>
  <path d="M 52246 0 L 0 0 L 0 12295 L 52246 12295 L 52246 0 Z" fill="#2C5967" transform="translate(324596,79312)"/>
  <path d="M 52246 0 L 0 0 L 0 12295 L 52246 12295 L 52246 0 Z" fill="#2C5967" transform="translate(324596,122311)"/>
  <path d="M 52246 0 L 0 0 L 0 12295 L 52246 12295 L 52246 0 Z" fill="#2C5967" transform="translate(8252,122311)"/>
  <path d="M 52246 0 L 0 0 L 0 12295 L 52246 12295 L 52246 0 Z" fill="#2C5967" transform="translate(324596,165310)"/>
  <path d="M 52246 0 L 0 0 L 0 12295 L 52246 12295 L 52246 0 Z" fill="#2C5967" transform="translate(8252,165310)"/>
  <path d="M 52246 0 L 0 0 L 0 12301 L 52246 12301 L 52246 0 Z" fill="#2C5967" transform="translate(8252,208309)"/>
  <path d="M 52246 0 L 0 0 L 0 12301 L 52246 12301 L 52246 0 Z" fill="#2C5967" transform="translate(324596,208309)"/>
  <path d="M 122889 330127 C 122889,330127 245701,273511 245701,214913 L 245701 42999 C 156648,42999 130563,11967 122889,0 C 115214,11967 85998,42999 0,42999 L 0 214913 C 0,273511 122889,330127 122889,330127 Z M 122889 316260 L 123550 316260 L 122889 316260 Z M 233400 214913 C 233400,234311 213514,258900 177528,284157 C 162000,294905 145784,304639 128998,313289 L 128998 168859 L 233400 168859 L 233400 214913 Z M 148312 36974 C 175077,48941 204081,55101 233400,55050 L 233400 156564 L 128998 156564 L 128998 24512 C 134965,29357 141440,33534 148312,36974 Z M 12301 55050 C 41196,54928 69751,48800 96150,37057 C 103439,33541 110331,29254 116703,24262 L 116703 156314 L 12301 156314 L 12301 55050 Z M 12301 168859 L 116703 168859 L 116703 313289 C 99929,304652 83746,294918 68256,284157 C 32187,258900 12301,234638 12301,214913 L 12301 168859 Z" fill="#2C5967" transform="translate(69655,15349)"/>
</svg>