<svg xmlns="http://www.w3.org/2000/svg" viewBox="0 0 385010 370033" width="40" height="39">
  <path d="M 0 361223 L 0 346862 L 17903 337879 L 20021 337879 L 20021 284927 L 5467 284927 L 5467 185280 L 20021 185280 L 20021 150481 L 5467 150481 L 5467 50834 L 20021 50834 L 20021 0 L 356167 0 L 356167 337879 L 358284 337879 L 376187 346862 L 376187 361223 L 0 361223 Z" fill="#FFFFFF" transform="translate(4409,4408)"/>
  <path d="M 356167 8810 L 356167 346689 L 361634 346689 L 376187 353998 L 376187 361223 L 8823 361223 L 8823 353998 L 23377 346689 L 28844 346689 L 28844 285017 L 14290 285017 L 14290 193827 L 28844 193827 L 28844 149776 L 14290 149776 L 14290 59645 L 28844 59645 L 28844 8810 L 356167 8810 Z M 364990 0 L 20021 0 L 20021 50834 L 5467 50834 L 5467 159292 L 20021 159292 L 20021 185723 L 5467 185723 L 5467 293737 L 20021 293737 L 20021 338495 L 19404 338495 L 4851 345720 L 0 348537 L 0 370034 L 385011 370034 L 385011 348537 L 380160 346073 L 365606 338848 L 364990 338848 L 364990 0 Z" fill="#FFFFFF"/>
  <path d="M 14553 0 L 0 0 L 0 21766 L 14553 21766 L 14553 0 Z" fill="#2D5967" transform="translate(28844,161396)"/>
  <path d="M 14553 40003 L 14553 32687 L 14553 14541 L 32726 14541 L 294604 14541 L 312776 14541 L 312776 32687 L 312776 294270 L 312776 312417 L 294604 312417 L 32726 312417 L 14553 312417 L 14553 294270 L 14553 287045 L 0 287045 L 0 326957 L 327329 326957 L 327329 0 L 0 0 L 0 40003 L 14553 40003 Z" fill="#2D5967" transform="translate(28844,8823)"/>
  <path d="M 39951 250661 L 39951 276123 L 316382 276123 L 316382 0 L 39951 0 L 39951 25379 L 0 25379 L 0 116209 L 39951 116209 L 39951 160261 L 0 160261 L 0 250661 L 39951 250661 Z M 14553 225199 L 29107 225199 L 29107 210659 L 14553 210659 L 14553 199820 L 29107 199820 L 29107 185286 L 14553 185286 L 14553 174358 L 54505 174358 L 54505 101675 L 14553 101675 L 14553 90837 L 29107 90837 L 29107 76303 L 14553 76303 L 14553 65375 L 29107 65375 L 29107 50841 L 14553 50841 L 14553 39913 L 54505 39913 L 54505 14541 L 301919 14541 L 301919 261230 L 54505 261230 L 54505 236121 L 14553 236121 L 14553 225199 Z" fill="#2D5967" transform="translate(14291,34272)"/>
  <path d="M 352817 0 L 14553 0 L 0 7225 L 0 14534 L 14553 14534 L 352817 14534 L 367370 14534 L 367370 7225 L 352817 0 Z" fill="#2D5967" transform="translate(8824,346689)"/>
  <path d="M 45072 75590 C 44950,80403 44296,85190 43128,89861 L 56186 97440 C 58278,90253 59343,82809 59356,75327 C 59356,57944 53497,41061 42730,27400 C 31962,13739 16915,4088 0,0 L 0 15067 C 13026,18968 24455,26964 32572,37872 C 40689,48775 45072,62000 45072,75590 Z" fill="#2D5967" transform="translate(210723,103959)"/>
  <path d="M 14823 75327 C 14842,61813 19205,48665 27272,37814 C 35344,26970 46682,18994 59625,15067 L 59625 0 C 42659,4042 27554,13668 16735,27336 C 5916,41004 25,57905 0,75327 C 19,82816 1084,90259 3176,97446 L 16498 89605 C 15419,84920 14855,80133 14823,75327 Z" fill="#2D5967" transform="translate(114663,104229)"/>
  <path d="M 55570 17088 C 39739,16979 24545,10870 13052,0 L 0 7578 C 7219,15176 15914,21227 25552,25366 C 35183,29505 45566,31635 56051,31635 C 66543,31635 76919,29505 86557,25366 C 96195,21227 104890,15176 112109,7578 L 98614 90 C 86948,11018 71560,17094 55570,17088 Z" fill="#2D5967" transform="translate(136891,225455)"/>
  <path d="M 88206 59914 C 84458,60524 80788,61557 77272,62994 C 67813,66953 59908,73890 54768,82752 C 49622,91613 47523,101906 48781,112070 C 49300,115805 50250,119475 51604,122998 L 0 152952 C 2169,157277 4614,161454 7322,165465 L 59009 135504 C 61467,138431 64246,141061 67300,143346 C 75468,149352 85344,152592 95483,152592 C 105621,152592 115497,149352 123666,143346 C 126720,141061 129498,138431 131956,135504 L 183644 165465 C 186358,161454 188803,157277 190965,152952 L 139278 122998 C 140696,119488 141677,115818 142185,112070 C 143448,101906 141344,91613 136197,82752 C 131058,73890 123152,66953 113700,62994 C 110177,61557 106513,60524 102759,59914 L 102759 0 C 100379,0 97908,0 95438,0 C 92967,0 90587,0 88206,0 L 88206 59914 Z M 127984 105993 C 128074,112442 126239,118769 122716,124172 C 119193,129575 114143,133810 108201,136339 C 102265,138867 95707,139573 89361,138373 C 83021,137166 77182,134106 72587,129575 C 67987,125051 64842,119257 63552,112936 C 62263,106622 62879,100064 65330,94097 C 67781,88129 71952,83027 77310,79434 C 82675,75841 88982,73922 95438,73922 C 99686,73890 103895,74692 107835,76283 C 111769,77875 115349,80230 118378,83214 C 121400,86191 123807,89733 125456,93648 C 127105,97555 127965,101752 127984,105993 Z" fill="#2D5967" transform="translate(97023,73562)"/>
  <path d="M 20194 40002 C 31353,40002 40394,31045 40394,20001 C 40394,8958 31353,0 20194,0 C 9041,0 0,8958 0,20001 C 0,31045 9041,40002 20194,40002 Z" fill="#2D5967" transform="translate(172267,159548)"/>
</svg>