<svg xmlns="http://www.w3.org/2000/svg" viewBox="0 0 385009 365715" width="40" height="38">
  <path d="M 48967 81481 L 45219 81481 C 43667,81616 42101,81616 40548,81481 L 35151 91177 L 19225 84317 L 22517 73710 C 20341,71958 18378,69963 16658,67762 L 6045 70784 L 0 54415 L 9157 49288 C 8836,46529 8836,43731 9157,40965 L 0 35575 L 6866 19571 L 17576 22953 C 19328,20778 21323,18814 23524,17101 L 20412 6398 L 36615 0 L 41742 9786 L 45309 9786 C 46894,9644 48486,9644 50071,9786 L 55557 90 L 71484 6949 L 68192 17556 C 70361,19283 72299,21278 73954,23498 L 84664 20482 L 91164 36672 L 81096 42159 C 81410,44924 81410,47716 81096,50481 L 90798 55878 L 83932 71881 L 73223 68314 C 71445,70489 69417,72452 67184,74166 L 70297 84863 L 54094 91267 L 48967 81481 Z" fill="#FFFFFF" transform="translate(201354,268782)"/>
  <path d="M 40182 11339 L 41921 14637 L 44937 20393 L 46772 20393 L 50982 20393 C 53414,20393 55839,20669 58214,21220 L 63155 12070 L 71573 15734 L 68461 25520 C 72125,27881 75244,31000 77612,34664 L 87500 31827 L 90888 40330 L 81731 45085 C 81731,45726 81731,46368 81731,47010 C 82283,50789 82097,54639 81186,58348 L 90336 63379 L 86769 71792 L 76880 68679 C 76598,69231 76264,69751 75873,70239 C 73550,73280 70701,75886 67454,77920 L 70200 87795 L 61692 91177 L 56930 82033 L 55101 82033 C 53638,82168 52169,82168 50706,82033 C 48332,82033 45970,81757 43660,81211 L 38719 90356 L 30294 86788 L 33316 77554 L 31757 76457 C 28747,74127 26174,71278 24166,68044 L 15009 70784 L 11627 62372 L 20778 57617 C 20778,56975 20778,56333 20778,55698 C 20264,51912 20450,48069 21323,44353 L 12173 39329 L 15741 30910 L 25629 34022 C 28009,30371 31128,27252 34779,24878 L 33316 19392 L 32033 14906 L 33868 14175 L 38899 12166 L 40548 11525 L 40182 11339 Z M 44847 0 L 37160 3022 L 35511 3657 L 30480 5672 L 28651 6404 L 20957 9420 L 23248 17377 L 24345 21220 C 23569,21901 22837,22639 22151,23415 L 18217 22221 L 10344 19757 L 7142 27349 L 3478 35665 L 186 43256 L 7411 47279 L 10889 49294 L 10889 52406 L 7322 54235 L 0 58072 L 3112 65753 L 6410 74262 L 9516 81853 L 17479 79659 L 21323 78561 L 23524 80756 L 22241 84593 L 19770 92460 L 27368 95752 L 35787 99320 L 43384 102612 L 47414 95386 L 49333 91908 L 52445 91908 L 54370 95386 L 58117 102701 L 65805 99685 L 74320 96297 L 82007 93282 L 79081 85414 L 77984 81577 L 80268 79383 L 84112 80570 L 91985 83040 L 95187 75449 L 98851 67037 L 102143 59535 L 94912 55512 L 91434 53504 L 91434 50391 L 95008 48563 L 102329 44719 L 99217 37038 L 95919 28536 L 93083 20489 L 85119 22773 L 81276 23871 L 79081 22042 L 80358 18198 L 82829 10337 L 75237 7046 L 66812 3478 L 59221 186 L 55191 7411 L 53266 10883 L 50154 10883 L 48415 7591 L 44668 276 L 44847 0 Z" fill="#FFFFFF" transform="translate(195495,263014)"/>
  <path d="M 74224 315324 C 71439,315356 68667,314843 66074,313810 C 63482,312770 61120,311237 59125,309286 C 55101,305186 52843,299667 52843,293924 C 52843,288181 55101,282663 59125,278562 C 61120,276470 63520,274808 66177,273673 C 68840,272543 71702,271966 74596,271978 L 76514 271978 L 81276 267127 C 90978,257252 110652,237404 124750,222684 C 122921,219572 121086,216280 120264,214451 C 119443,212623 119167,212167 118705,210980 L 95733 208509 L 95733 192506 L 0 192506 L 1007 178973 C 2239,163611 7386,148826 15959,136025 C 24532,123217 36242,112815 49974,105808 C 52888,104204 55397,101951 57302,99224 C 59202,96497 60453,93366 60954,90080 C 64059,74269 72568,60030 85023,49802 C 97478,39573 113110,33997 129235,34016 C 131366,33881 133509,33881 135639,34016 L 137840 34016 C 140715,34055 143570,33484 146221,32348 C 148871,31218 151251,29544 153215,27433 C 161198,18828 170868,11955 181622,7232 C 192370,2516 203979,52 215728,1 C 231571,-57 247113,4325 260588,12655 C 274063,20977 284933,32913 291966,47094 C 293320,50321 295419,53177 298094,55436 C 300764,57694 303934,59286 307341,60081 C 320476,63040 332745,68994 343198,77471 C 353651,85948 362006,96722 367602,108959 C 373203,121189 375899,134549 375475,147999 C 375058,161442 371535,174609 365189,186468 L 361711 192961 L 281443 192961 L 281443 208965 L 262224 211160 L 274301 226252 L 234125 266492 L 218930 254326 L 216825 273621 L 159805 273621 L 157238 250668 L 152939 248563 L 150648 246921 C 148088,245586 145611,244091 143237,242435 C 129235,257072 109465,277003 100314,286243 L 95367 291274 C 95733,294437 95393,297639 94379,300655 C 93371,303671 91709,306430 89508,308741 C 87539,310807 85171,312462 82540,313592 C 79915,314721 77086,315311 74224,315324 Z" fill="#FFFFFF" transform="translate(4941,3939)"/>
  <path d="M 220669 9144 C 235678,9086 250404,13238 263174,21124 C 275944,29017 286236,40330 292884,53773 C 294674,57367 297247,60511 300417,62981 C 303587,65452 307264,67178 311191,68044 C 320463,70130 329312,73781 337365,78831 C 355114,89939 367961,107379 373300,127612 C 378639,147844 376065,169347 366107,187751 L 363906 191864 L 281533 191864 L 281533 208419 L 260023 210800 L 259292 212443 L 272838 229454 L 238424 263841 L 221490 250212 L 219751 250944 L 217377 272530 L 168955 272530 L 166575 250944 C 164387,250103 162243,249121 160171,248018 L 157880 246920 C 154370,245014 151001,242846 147812,240426 C 133534,255333 111204,277830 102054,287436 L 96926 292647 L 95919 293744 L 95919 295117 C 96336,297684 96156,300315 95393,302805 C 94629,305294 93307,307579 91523,309472 C 89958,311044 88097,312295 86050,313148 C 84003,314002 81802,314438 79582,314438 C 77361,314438 75160,314002 73113,313148 C 71067,312295 69206,311044 67640,309472 C 64476,306231 62712,301880 62712,297357 C 62712,292833 64476,288482 67640,285242 C 69199,283580 71086,282258 73178,281366 C 75276,280468 77535,280012 79813,280025 L 81917 280025 L 83380 280025 L 84478 279017 L 89053 274359 C 99397,263931 120816,242345 134818,227349 C 132527,223512 129691,218757 128780,216556 C 127862,214361 126944,212718 126123,210800 L 104524 208419 L 104524 192050 L 9882 192050 L 10524 183637 C 11538,169013 16273,154896 24281,142621 C 32290,130345 43307,120316 56289,113495 C 59824,111679 62917,109093 65323,105923 C 67730,102759 69398,99095 70200,95200 C 72202,84940 76662,75315 83201,67139 C 89733,58971 98146,52503 107726,48287 C 115984,44693 124891,42826 133900,42800 L 139945 42800 L 142595 42800 C 146034,42755 149423,42018 152567,40638 C 155711,39252 158547,37250 160902,34754 C 168551,26591 177817,20104 188103,15696 C 198390,11287 209478,9061 220669,9144 Z M 220669 0 C 208316,13 196092,2567 184773,7508 C 173447,12449 163264,19668 154864,28715 C 153324,30352 151463,31648 149403,32527 C 147337,33413 145117,33855 142871,33836 L 141042 33836 C 138758,33701 136461,33701 134176,33836 C 116998,33868 100366,39849 87096,50751 C 73832,61653 64759,76810 61416,93647 C 60896,96214 59799,98640 58214,100725 C 56629,102817 54594,104524 52259,105718 C 37911,113200 25706,124217 16806,137718 C 7899,151226 2586,166780 1373,182906 L 732 191408 L 0 201194 L 95643 201194 L 95643 216742 L 103792 217653 L 120175 219488 L 120906 220855 C 121458,222228 122555,224243 123653,226252 C 109831,240702 90978,259452 82373,267955 L 79081 271336 C 75565,271323 72087,272029 68859,273415 C 65631,274801 62725,276829 60318,279383 C 55538,284427 52926,291139 53048,298082 C 53170,305025 56006,311640 60954,316517 C 65856,321272 72433,323897 79261,323833 C 82752,323820 86197,323114 89412,321747 C 92621,320380 95521,318385 97947,315876 C 100366,313367 102265,310402 103517,307149 C 104774,303895 105365,300430 105255,296946 L 108368 293834 C 116876,285242 135094,266402 149095,252227 C 150623,253260 152175,254178 153767,254967 L 155596 256064 L 157700 257072 L 159529 273441 L 160447 281577 L 225520 281577 L 226437 273441 L 227169 266492 L 232662 270881 L 238976 276001 L 244835 270149 L 279248 235761 L 285010 229999 L 279883 223601 L 275494 218205 L 282450 217383 L 290593 216466 L 290593 201194 L 369033 201194 L 371593 196439 L 373794 192326 C 380602,179877 384420,166017 384946,151842 C 385473,137667 382694,123569 376823,110652 C 370958,97735 362160,86358 351136,77426 C 340105,68487 327156,62243 313296,59170 C 310691,58631 308239,57534 306109,55955 C 303972,54376 302208,52355 300937,50026 C 293603,35004 282187,22344 267993,13495 C 253799,4652 237398,-26 220669,0 Z" fill="#FFFFFF"/>
  <path d="M 154768 59811 L 168314 42897 L 133900 8509 L 116973 22042 L 114868 21586 L 112487 0 L 64162 0 L 61781 21586 L 60132 22228 L 43198 8688 L 8785 43076 L 22331 59811 C 22331,60363 21875,60999 21599,61550 L 0 63925 L 0 112577 L 21599 114958 C 22427,116877 23248,118891 24256,120720 L 27913 116877 C 30878,112635 32957,107848 34048,102791 L 33316 100417 L 15741 98499 L 15741 78100 L 33316 76181 L 34869 71246 C 35800,68089 37025,65028 38533,62096 L 40824 57527 L 29838 43808 L 44302 29357 L 58117 40330 L 62693 37956 C 65638,36473 68699,35254 71849,34298 L 76701 32745 L 78253 15734 L 98755 15734 L 100770 33201 L 105621 34754 C 108765,35729 111826,36948 114772,38411 L 119353 40792 L 133079 29819 L 147632 44263 L 136557 57983 L 138937 62558 C 140401,65503 141626,68558 142595,71702 L 144154 76637 L 161634 78561 L 161634 99044 L 144154 100963 L 142326 105538 C 141344,108676 140125,111737 138662,114682 L 136281 119167 L 147267 132976 L 133169 147055 L 119443 136082 L 114868 138367 C 111935,139874 108875,141100 105711,142024 L 100860 143583 L 98851 161140 L 78253 161140 L 76335 143583 L 71484 142120 C 70425,141806 69385,141440 68371,141023 C 64123,142063 60222,144174 57020,147151 L 53087 151264 L 55371 152451 C 57450,153555 59587,154537 61781,155378 L 64162 176964 L 112853 176964 L 114868 155288 L 116607 154556 L 133534 168179 L 167948 133798 L 154402 116787 L 155140 115138 L 176643 112763 L 176643 64111 L 155140 61730 C 155230,61185 155044,60543 154768,59811 Z" fill="#2D5967" transform="translate(104800,95656)"/>
  <path d="M 86204 78043 L 91145 72923 C 100225,65203 111801,61039 123730,61218 C 130692,60519 137211,57458 142204,52556 C 147196,47647 150366,41185 151187,34242 L 132880 46588 C 131103,47801 128991,48442 126835,48417 C 125385,48391 123954,48083 122626,47499 C 118108,44830 114476,40883 112192,36161 C 109510,32477 107726,28217 106975,23725 C 106988,21909 107444,20131 108310,18534 C 109170,16942 110408,15582 111923,14574 L 131507 1497 C 128375,470 125096,-24 121804,34 C 113642,-338 105634,2369 99378,7625 C 93878,13952 90657,21935 90227,30308 C 89534,40903 85787,51067 79428,59569 L 75032 64234 L 73845 65518 C 59567,80514 37237,102556 27259,113073 L 22042 118463 L 20303 119015 L 18840 119015 L 17101 119015 C 14823,119002 12564,119458 10466,120356 C 8374,121248 6487,122570 4928,124225 C 1765,127472 0,131816 0,136347 C 0,140871 1765,145221 4928,148462 C 6494,150034 8355,151285 10402,152139 C 12449,152986 14650,153428 16870,153428 C 19090,153428 21291,152986 23338,152139 C 25385,151285 27246,150034 28812,148462 C 30628,146562 31975,144272 32751,141763 C 33528,139254 33720,136603 33297,134011 L 33297 132644 L 34304 131541 L 39431 126330 C 49410,115813 72016,92950 86204,78043 Z M 23691 140960 L 16459 143983 L 10145 139228 L 11152 131451 L 18474 128345 L 24698 133190 L 23691 140960 Z" fill="#2D5967" transform="translate(62070,161748)"/>
  <path d="M 11980 1194 L 9882 0 L 0 5583 L 0 9240 L 0 14547 L 0 16921 L 2105 18205 L 7957 21586 L 9786 22684 L 19578 17011 L 19668 13719 L 19668 5673 L 11980 1194 Z" fill="#2D5967" transform="translate(183515,174852)"/>
  <path d="M 27644 821 L 22607 2836 L 20778 3568 L 22061 8047 L 23524 13443 C 19866,15817 16748,18936 14374,22587 L 4120 19571 L 552 27984 L 9702 33015 C 8830,36730 8643,40574 9157,44353 C 9157,44995 9157,45630 9157,46272 L 0 51027 L 3388 59536 L 13270 56699 C 15311,59940 17916,62789 20964,65112 L 22517 66209 L 19494 75995 L 27920 79563 L 32861 70418 C 35171,70964 37532,71240 39906,71240 C 41369,71375 42839,71375 44302,71240 L 46131 71240 L 50892 80384 L 59401 77002 L 56654 67127 C 59901,65086 62757,62487 65080,59439 C 65465,58958 65798,58438 66081,57887 L 75969 60999 L 79537 52586 L 70386 47555 C 71297,43846 71484,39996 70932,36217 C 70932,35575 70932,34933 70932,34292 L 80089 29537 L 76701 21035 L 66819 23871 C 64444,20207 61326,17088 57662,14720 L 60774 4935 L 52355 1277 L 47414 10427 C 43679,9298 39772,8862 35883,9144 L 34048 9144 L 31032 3382 L 29293 0 L 27644 821 Z M 38078 24506 C 42204,23935 46387,25019 49718,27522 C 53042,30025 55243,33740 55833,37860 C 56115,39907 55987,41985 55454,43981 C 54922,45977 53991,47844 52721,49474 C 51508,51149 49968,52554 48184,53613 C 46407,54665 44430,55345 42377,55602 C 40266,56038 38090,56038 35979,55596 C 33868,55159 31872,54293 30108,53048 C 28350,51810 26861,50218 25738,48377 C 24621,46535 23890,44488 23595,42351 C 23300,40221 23441,38046 24025,35973 C 24602,33900 25603,31962 26957,30288 C 28317,28619 30005,27240 31917,26245 C 33830,25250 35928,24660 38078,24506 Z" fill="#2D5967" transform="translate(206391,274358)"/>
  <path d="M 12070 13899 L 16100 6949 L 12070 0 L 4023 0 L 0 6949 L 4023 13899 L 12070 13899 Z" fill="#2D5967" transform="translate(238424,307829)"/>
  <path d="M 327567 69688 C 319495,64625 310607,60973 301303,58895 C 297376,58035 293699,56308 290529,53838 C 287365,51368 284786,48223 282996,44630 C 276348,31180 266055,19867 253286,11981 C 240523,4088 225796,-63 210780,1 C 199686,26 188713,2324 178542,6758 C 168372,11198 159221,17673 151656,25790 C 148954,28665 145624,30872 141921,32233 C 138219,33599 134253,34087 130333,33657 C 119328,32669 108246,34466 98114,38868 C 88533,43083 80121,49551 73588,57720 C 67056,65889 62596,75521 60588,85781 C 59786,89676 58117,93340 55711,96504 C 53305,99667 50218,102253 46676,104075 C 33695,110897 22677,120926 14669,133202 C 6661,145477 1925,159594 911,174218 L 0 182906 L 83194 182906 L 83194 166993 L 17569 166993 C 19616,156629 23973,146863 30307,138406 C 36647,129955 44802,123031 54184,118154 C 59824,115234 64727,111076 68532,105994 C 72337,100912 74942,95034 76149,88803 C 77676,81033 81064,73750 86024,67570 C 90978,61391 97356,56501 104614,53318 C 112256,49949 120630,48563 128959,49295 C 135261,49956 141626,49154 147562,46946 C 153504,44739 158849,41197 163187,36583 C 169276,30044 176636,24834 184824,21260 C 193012,17692 201848,15838 210780,15825 C 222851,15728 234702,19046 244969,25386 C 255236,31732 263501,40844 268808,51669 C 271683,57380 275796,62385 280846,66306 C 285896,70233 291761,72979 298005,74353 C 305538,76137 312693,79229 319148,83497 C 332784,92121 342845,105365 347485,120804 C 352124,136243 351033,152837 344411,167538 L 283727 167538 L 283727 182906 L 354024 182906 L 356218 178787 C 366241,160377 368859,138835 363540,118565 C 358214,98287 345348,80808 327567,69688 Z" fill="#2D5967" transform="translate(9882,9150)"/>
</svg>