<svg xmlns="http://www.w3.org/2000/svg" viewBox="0 0 385017 374364" width="40" height="39">
  <path d="M 244848 362834 C 188071,334446 154357,290093 150809,241299 L 150809 191620 L 0 191620 L 886 180089 C 3549,149038 21291,121535 48794,106455 C 55005,102907 59439,96695 61210,89598 C 66536,67422 80730,48794 101136,39919 C 110004,36371 119764,33714 128632,33714 C 130409,33714 133066,33714 134844,33714 C 135729,33714 136615,33714 137507,33714 C 143712,33714 149923,31051 154357,26617 C 170329,9760 192505,0 216460,0 C 248396,0 277670,17743 291864,47016 C 295412,53228 300738,57662 308721,59439 C 318481,61210 327349,65651 336217,70970 C 374365,94924 387674,145489 366383,185408 L 362834 191620 L 348640 191620 L 348640 240413 C 345977,289201 311384,333560 254608,362834 L 250167 365497 L 244848 362834 Z" fill="#FFFFFF" transform="translate(4434,3542)"/>
  <path d="M 220893 8868 C 251053,8868 278555,25725 292749,53221 C 296298,61210 303395,66530 312269,68307 C 321137,70078 330012,73627 337994,78953 C 374365,102015 386782,149031 366382,187179 L 364605 190728 L 348640 190728 L 348640 243955 C 345977,290972 313155,334439 257264,361942 L 254601 363719 L 251944 361942 C 196939,334439 163232,290972 160569,243955 L 160569 190728 L 9760 190728 L 10646 183631 C 12417,153472 30159,127740 56776,113546 C 64759,109997 70085,102015 71856,94032 C 76290,73627 89598,56770 109118,47902 C 116216,44353 124198,42576 133066,42576 C 134843,42576 136614,42576 139278,42576 C 140163,42576 141055,42576 141941,42576 C 149923,42576 157020,39919 161454,33708 C 177426,17736 198717,8868 220893,8868 Z M 220893 0 C 196054,0 172100,10639 155249,28382 C 151701,31930 147260,33708 141941,33708 C 141055,33708 141055,33708 140163,33708 C 138392,33708 135729,33708 133066,33708 C 123312,33708 112667,35479 103792,39919 C 82501,49673 66536,69193 62096,92255 C 61210,98466 56776,102900 51450,106449 C 22177,121535 3548,150809 886,183631 L 0 190728 L 0 199596 L 9760 199596 L 151701 199596 L 151701 243955 L 151701 244841 C 154357,295406 189842,341536 247504,370816 L 250167 372587 L 254601 374365 L 259042 372587 L 261698 370816 C 319366,340651 354851,295406 357508,244841 L 357508 200488 L 364605 200488 L 369931 200488 L 372594 195162 L 374365 191613 C 396542,149923 383233,97581 342428,71856 C 333560,66530 323800,62096 314040,60318 C 307829,58547 303395,54999 300732,49673 C 284767,18628 254601,0 220893,0 Z" fill="#FFFFFF"/>
  <path d="M 329120 70078 C 321137,64759 312263,61210 303395,59433 C 294520,57662 287423,52342 283875,44353 C 270566,16857 243070,0 212019,0 C 189842,0 168551,8868 153472,25725 C 148145,31937 139278,34600 130403,33708 C 119758,32822 108227,34600 98467,39034 C 79838,47902 65644,64759 62096,85164 C 60318,94032 54999,101129 47016,104678 C 20399,118872 3548,144597 886,174763 L 0 181860 L 141934 181860 L 141934 168551 L 64759 168551 L 64759 137500 L 145483 137500 L 145483 139278 L 180082 124198 L 110889 124198 L 110889 91369 L 191613 91369 L 191613 118872 L 204922 113552 L 204922 91369 L 282104 91369 L 282104 110889 L 295406 116209 L 295406 91369 L 336217 91369 C 345085,100244 351297,111775 353960,124198 L 314040 124198 L 345085 137500 L 356622 137500 C 356622,146375 355731,155243 352182,164117 L 352182 181860 L 358393 181860 L 360171 178311 C 377913,140163 365491,93147 329120,70078 Z M 51450 168551 L 15079 168551 C 16850,157020 21291,146375 28388,137500 L 51450 137500 L 51450 168551 Z M 97581 124198 L 41690 124198 C 45239,121535 48787,118872 53228,116209 C 62981,110889 70964,102015 73627,91369 L 97581 91369 L 97581 124198 Z M 144597 78953 L 77175 78953 C 82501,66530 91370,56776 103792,51450 C 111775,47902 120643,46131 128632,47016 C 133952,47902 139278,47016 143712,45245 L 144597 78953 Z M 204036 13309 C 206699,13309 209356,12417 212019,12417 C 229762,12417 246618,19514 259035,31937 L 204036 31937 L 204036 13309 Z M 190728 16857 L 190728 32822 L 165003 32822 C 172100,24840 180968,19514 190728,16857 Z M 236858 78953 L 157906 78953 L 157906 46131 L 236858 46131 L 236858 78953 Z M 249282 78953 L 249282 46131 L 268795 46131 C 269680,47902 270566,48794 271458,50565 C 276778,62096 287423,70078 299846,72741 C 306051,73627 311377,76290 316697,78953 L 249282 78953 Z" fill="#2D5967" transform="translate(8875,8868)"/>
  <path d="M 0 40805 L 0 128632 C 2663,175648 35485,219116 91376,246618 L 94039 248389 L 96695 246618 C 151701,219116 185408,175648 188071,128632 L 188071 39919 L 94039 0 L 0 40805 Z M 174763 128632 C 172100,168551 145489,205807 99358,230647 L 99358 101129 L 86050 101129 L 86050 228876 C 41697,203151 15079,166774 12423,127746 L 12423 48787 L 86050 16851 L 86050 84272 L 99358 84272 L 99358 15965 L 174763 47902 L 174763 128632 Z" fill="#2D5967" transform="translate(160569,115323)"/>
</svg>