<svg xmlns="http://www.w3.org/2000/svg" viewBox="0 0 235562 385010" width="25" height="40">
  <path d="M 0 375845 L 0 359341 L 18352 350177 L 18352 0 L 208996 0 L 208996 350177 L 227349 359341 L 227349 375845 L 0 375845 Z" fill="#FFFFFF" transform="translate(4556,4584)"/>
  <path d="M 208996 9167 L 208996 357508 L 227348 366678 L 227348 375841 L 208996 375841 L 27463 375841 L 9176 375841 L 9176 366678 L 27463 357508 L 27463 9167 L 208996 9167 Z M 218173 0 L 208996 0 L 27463 0 L 18288 0 L 18288 9167 L 18288 352009 L 4556 358426 L 0 361178 L 0 366678 L 0 375841 L 0 385011 L 9176 385011 L 27463 385011 L 208098 385011 L 226386 385011 L 235562 385011 L 235562 375841 L 235562 366678 L 235562 361178 L 230044 358426 L 216312 352009 L 216312 9167 L 216312 0 L 218173 0 Z" fill="#FFFFFF"/>
  <path d="M 199821 348341 L 199821 0 L 18288 0 L 18288 348341 L 0 357511 L 0 366674 L 18288 366674 L 198922 366674 L 217210 366674 L 217210 357511 L 199821 348341 Z M 37538 348341 L 37538 18334 L 181468 18334 L 181468 348341 L 37538 348341 Z" fill="#2C5967" transform="translate(9175,9166)"/>
  <path d="M 116402 0 L 0 0 L 0 18334 L 116402 18334 L 116402 0 Z" fill="#2C5967" transform="translate(60510,41250)"/>
  <path d="M 101707 0 L 13732 0 L 13732 16500 L 0 16500 L 0 34834 L 13732 34834 L 13732 51335 L 101707 51335 L 101707 34834 L 115503 34834 L 115503 16500 L 101707 16500 L 101707 0 Z M 83419 32084 L 32084 32084 L 32084 18334 L 83419 18334 L 83419 32084 Z" fill="#2C5967" transform="translate(60510,74251)"/>
  <path d="M 18288 0 L 0 0 L 0 18334 L 18288 18334 L 18288 0 Z" fill="#2C5967" transform="translate(60510,139336)"/>
  <path d="M 18288 0 L 0 0 L 0 18334 L 18288 18334 L 18288 0 Z" fill="#2C5967" transform="translate(92594,139336)"/>
  <path d="M 18352 0 L 0 0 L 0 18334 L 18352 18334 L 18352 0 Z" fill="#2C5967" transform="translate(125577,139336)"/>
  <path d="M 18352 0 L 0 0 L 0 18334 L 18352 18334 L 18352 0 Z" fill="#2C5967" transform="translate(157661,139336)"/>
  <path d="M 18288 0 L 0 0 L 0 18334 L 18288 18334 L 18288 0 Z" fill="#2C5967" transform="translate(60510,171420)"/>
  <path d="M 18288 0 L 0 0 L 0 18334 L 18288 18334 L 18288 0 Z" fill="#2C5967" transform="translate(92594,171420)"/>
  <path d="M 18352 0 L 0 0 L 0 18334 L 18352 18334 L 18352 0 Z" fill="#2C5967" transform="translate(125577,171420)"/>
  <path d="M 18352 0 L 0 0 L 0 18334 L 18352 18334 L 18352 0 Z" fill="#2C5967" transform="translate(157661,171420)"/>
  <path d="M 0 104502 L 0 0 L 29325 0 C 41261,0 50436,2750 56853,8250 C 62307,13750 65965,22000 65965,32084 C 65965,38501 64168,44918 61410,49501 C 58650,54084 54094,57752 47677,60501 L 69687 104502 L 45816 104502 L 28427 64168 L 21047 62334 L 21047 104502 L 0 104502 Z M 21047 49501 L 28427 49501 C 38501,49501 44019,44001 44019,33001 C 44019,22000 38501,16500 28427,16500 L 21047 16500 L 21047 49501 Z" fill="#2C5967" transform="translate(87076,222756)"/>
</svg>