<svg xmlns="http://www.w3.org/2000/svg" viewBox="0 0 385927 385010" width="41" height="40">
  <path d="M 20168 375845 C 9169,375845 0,366675 0,355677 L 0 20167 C 0,9166 9169,0 20168,0 L 356597 0 C 367595,0 376758,9166 376758,20167 L 376758 356594 C 376758,367593 367595,376762 356597,376762 L 20168 375845 Z" fill="#FFFFFF" transform="translate(4582,4584)"/>
  <path d="M 360260 9167 C 368513,9167 375841,16500 375841,24750 L 375841 361179 C 375841,369424 368513,376759 360260,376759 L 24750 376759 C 16498,375841 9169,368513 9169,360261 L 9169 24750 C 9169,16500 16498,9167 24750,9167 L 360260 9167 Z M 360260 0 L 24750 0 C 10998,0 0,11000 0,24750 L 0 361179 C 0,374012 10998,385011 24750,385011 L 361178 385011 C 374929,385011 385928,374012 385928,360261 L 385928 24750 C 385011,11000 374012,0 360260,0 Z" fill="#FFFFFF"/>
  <path d="M 351091 0 L 15580 0 C 7328,0 0,7334 0,15584 L 0 352011 C 0,359345 7328,366680 15580,366680 L 352009 366680 C 360255,366680 367589,359345 367589,351093 L 367589 15584 C 366671,7334 359343,0 351091,0 Z M 352926 351093 C 352926,352011 352009,352928 351091,352928 L 15580 352928 C 14663,352928 13745,352011 13745,351093 L 13745 15584 C 13745,14667 14663,13751 15580,13751 L 352009 13751 C 352926,13751 353838,14667 353838,15584 L 352926 351093 Z" fill="#2D5967" transform="translate(9170,9167)"/>
  <path d="M 0 211758 L 212673 211758 L 212673 0 L 0 0 L 0 211758 Z M 12834 13751 L 198004 13751 L 198004 198925 L 12834 198925 L 12834 13751 Z" fill="#2D5967" transform="translate(36666,136586)"/>
  <path d="M 13751 0 L 0 0 L 0 13750 L 13751 13750 L 13751 0 Z" fill="#2D5967" transform="translate(63251,36668)"/>
  <path d="M 13751 0 L 0 0 L 0 13750 L 13751 13750 L 13751 0 Z" fill="#2D5967" transform="translate(36666,36668)"/>
  <path d="M 13751 0 L 0 0 L 0 13750 L 13751 13750 L 13751 0 Z" fill="#2D5967" transform="translate(90753,36668)"/>
  <path d="M 13751 0 L 0 0 L 0 13750 L 13751 13750 L 13751 0 Z" fill="#2D5967" transform="translate(118250,36668)"/>
  <path d="M 13751 0 L 0 0 L 0 13750 L 13751 13750 L 13751 0 Z" fill="#2D5967" transform="translate(144835,36668)"/>
  <path d="M 13751 0 L 0 0 L 0 13750 L 13751 13750 L 13751 0 Z" fill="#2D5967" transform="translate(172337,36668)"/>
  <path d="M 13751 0 L 0 0 L 0 13750 L 13751 13750 L 13751 0 Z" fill="#2D5967" transform="translate(198922,36668)"/>
  <path d="M 13751 0 L 0 0 L 0 13750 L 13751 13750 L 13751 0 Z" fill="#2D5967" transform="translate(226425,36668)"/>
  <path d="M 13745 0 L 0 0 L 0 13750 L 13745 13750 L 13745 0 Z" fill="#2D5967" transform="translate(253927,36668)"/>
  <path d="M 13751 0 L 0 0 L 0 13750 L 13751 13750 L 13751 0 Z" fill="#2D5967" transform="translate(280506,36668)"/>
  <path d="M 13751 0 L 0 0 L 0 13750 L 13751 13750 L 13751 0 Z" fill="#2D5967" transform="translate(308009,36668)"/>
  <path d="M 13751 0 L 0 0 L 0 13750 L 13751 13750 L 13751 0 Z" fill="#2D5967" transform="translate(335511,36668)"/>
  <path d="M 13751 0 L 0 0 L 0 13751 L 13751 13751 L 13751 0 Z" fill="#2D5967" transform="translate(335511,63253)"/>
  <path d="M 13751 0 L 0 0 L 0 13750 L 13751 13750 L 13751 0 Z" fill="#2D5967" transform="translate(335511,90754)"/>
  <path d="M 13751 0 L 0 0 L 0 13751 L 13751 13751 L 13751 0 Z" fill="#2D5967" transform="translate(335511,118254)"/>
  <path d="M 13751 0 L 0 0 L 0 13750 L 13751 13750 L 13751 0 Z" fill="#2D5967" transform="translate(335511,144839)"/>
  <path d="M 13751 0 L 0 0 L 0 13751 L 13751 13751 L 13751 0 Z" fill="#2D5967" transform="translate(335511,172339)"/>
  <path d="M 13751 0 L 0 0 L 0 13751 L 13751 13751 L 13751 0 Z" fill="#2D5967" transform="translate(335511,198922)"/>
  <path d="M 13751 0 L 0 0 L 0 13751 L 13751 13751 L 13751 0 Z" fill="#2D5967" transform="translate(335511,226422)"/>
  <path d="M 13751 0 L 0 0 L 0 13750 L 13751 13750 L 13751 0 Z" fill="#2D5967" transform="translate(335511,253926)"/>
  <path d="M 13751 0 L 0 0 L 0 13750 L 13751 13750 L 13751 0 Z" fill="#2D5967" transform="translate(335511,280508)"/>
  <path d="M 13751 0 L 0 0 L 0 13751 L 13751 13751 L 13751 0 Z" fill="#2D5967" transform="translate(335511,308008)"/>
  <path d="M 13751 0 L 0 0 L 0 13751 L 13751 13751 L 13751 0 Z" fill="#2D5967" transform="translate(335511,335511)"/>
  <path d="M 29331 13751 L 41254 13751 L 13751 41251 L 13751 29334 L 0 29334 L 0 65085 L 35748 65085 L 35748 51335 L 23832 51335 L 51335 23834 L 51335 35751 L 65086 35751 L 65086 0 L 29331 0 L 29331 13751 Z" fill="#2D5967" transform="translate(256674,63253)"/>
  <path d="M 0 50415 L 165003 50415 L 165003 0 L 0 0 L 0 50415 Z M 12834 13750 L 150334 13750 L 150334 37584 L 12834 37584 L 12834 13750 Z" fill="#2D5967" transform="translate(60504,274091)"/>
  <path d="M 46747 0 L 0 0 L 0 47668 L 47665 47668 L 46747 0 Z M 33913 33918 L 12834 33918 L 12834 13751 L 32996 13751 L 32996 33918 L 33913 33918 Z" fill="#2D5967" transform="translate(60504,218172)"/>
  <path d="M 47671 0 L 0 0 L 0 47668 L 47671 47668 L 47671 0 Z M 33919 33918 L 13751 33918 L 13751 13751 L 33919 13751 L 33919 33918 Z" fill="#2D5967" transform="translate(118250,218172)"/>
  <path d="M 0 47668 L 47671 47668 L 47671 0 L 0 0 L 0 47668 Z M 13751 13751 L 33919 13751 L 33919 33918 L 13751 33918 L 13751 13751 Z" fill="#2D5967" transform="translate(176919,218172)"/>
  <path d="M 46747 0 L 0 0 L 0 47668 L 47665 47668 L 46747 0 Z M 33913 33918 L 12834 33918 L 12834 13751 L 32996 13751 L 32996 33918 L 33913 33918 Z" fill="#2D5967" transform="translate(60504,160421)"/>
  <path d="M 47671 0 L 0 0 L 0 47668 L 47671 47668 L 47671 0 Z M 33919 33918 L 13751 33918 L 13751 13751 L 33919 13751 L 33919 33918 Z" fill="#2D5967" transform="translate(118250,160421)"/>
  <path d="M 0 47668 L 47671 47668 L 47671 0 L 0 0 L 0 47668 Z M 13751 13751 L 33919 13751 L 33919 33918 L 13751 33918 L 13751 13751 Z" fill="#2D5967" transform="translate(176919,160421)"/>
</svg>