<svg xmlns="http://www.w3.org/2000/svg" viewBox="0 0 385009 318279" width="40" height="33">
  <path d="M 16677 310699 C 7578,310699 0,303121 0,294028 L 0 16672 C 0,7578 7578,0 16677,0 L 362237 0 C 371330,0 378908,7578 378908,16672 L 378908 294785 C 378908,303884 371330,311456 362237,311456 L 16677 311456 L 16677 310699 Z" fill="#FFFFFF" transform="translate(3786,3788)"/>
  <path d="M 365266 7578 C 372081,7578 378144,12883 378144,20461 L 378144 37890 L 378144 49258 L 378144 298580 C 378144,305394 372844,311458 365266,311458 L 331918 311458 L 298576 311458 L 97754 311458 L 87904 311458 L 70476 311458 L 53805 311458 L 20463 311458 C 12885,310701 7578,305394 7578,297816 L 7578 41679 L 7578 37890 L 7578 20461 C 7578,12883 12885,7578 20463,7578 L 53805 7578 L 70476 7578 L 87147 7578 L 91697 7578 L 297061 7578 L 330403 7578 L 365266 7578 Z M 365266 0 L 331918 0 L 298576 0 L 92454 0 L 87904 0 L 70476 0 L 53805 0 L 20463 0 C 9093,0 0,9094 0,20461 L 0 37890 L 0 41679 L 0 297816 C 0,309187 9093,318279 20463,318279 L 53805 318279 L 70476 318279 L 87147 318279 L 96997 318279 L 297818 318279 L 331160 318279 L 364509 318279 C 375873,318279 384966,309187 384966,297816 L 384966 49258 L 384966 37890 L 384966 20461 C 385723,9094 376630,0 365266,0 Z" fill="#FFFFFF"/>
  <path d="M 25006 261443 L 12885 261443 C 12128,261443 11371,260686 11371,259929 L 11371 11367 L 25764 11367 L 25764 0 L 0 0 L 0 259929 C 0,267507 5307,272808 12885,272808 L 29556 272808 C 27285,269779 25764,265993 25006,261443 Z" fill="#2D5967" transform="translate(7578,37893)"/>
  <path d="M 25006 12882 C 25006,7578 26521,3789 29556,0 L 12885 0 C 5307,0 0,5304 0,12882 L 0 21976 L 25006 21976 L 25006 12882 Z" fill="#2D5967" transform="translate(7578,7580)"/>
  <path d="M 25770 261443 L 12885 261443 C 12128,261443 11370,260686 11370,259929 L 11370 11367 L 25770 11367 L 25770 0 L 0 0 L 0 259929 C 0,266750 5307,272808 12885,272808 L 29556 272808 C 27284,269779 25770,265993 25770,261443 Z" fill="#2D5967" transform="translate(40920,37893)"/>
  <path d="M 0 12882 L 0 21976 L 25006 21976 L 25006 12882 C 25770,7578 27284,3789 29556,0 L 12885 0 C 6064,0 0,5304 0,12882 Z" fill="#2D5967" transform="translate(40920,7580)"/>
  <path d="M 269020 0 L 244013 0 L 235678 0 L 0 0 L 0 259929 C 0,266750 5300,272808 12879,272808 L 223550 272808 L 256892 272808 L 290240 272808 C 297061,272808 303119,267507 303119,259929 L 303119 0 L 278112 0 L 269020 0 Z M 291755 259929 C 291755,260686 290997,261443 290240,261443 L 256892 261443 L 223550 261443 L 12879 261443 C 12121,261443 11364,260686 11364,259929 L 11364 11367 L 224307 11367 L 258413 11367 L 291755 11367 L 291755 259929 Z" fill="#2D5967" transform="translate(75025,37893)"/>
  <path d="M 93968 92453 L 93968 0 L 0 0 L 0 92453 L 93968 92453 Z M 11364 10610 L 83361 10610 L 83361 81086 L 11364 81086 L 11364 10610 Z" fill="#2D5967" transform="translate(123524,71995)"/>
  <path d="M 93968 92453 L 93968 0 L 0 0 L 0 92453 L 93968 92453 Z M 11371 10610 L 83361 10610 L 83361 81086 L 11371 81086 L 11371 10610 Z" fill="#2D5967" transform="translate(235678,71995)"/>
  <path d="M 93968 0 L 0 0 L 0 92453 L 93968 92453 L 93968 0 Z M 83361 81088 L 11364 81088 L 11364 10609 L 83361 10609 L 83361 81088 Z" fill="#2D5967" transform="translate(123524,181878)"/>
  <path d="M 93968 92453 L 93968 0 L 0 0 L 0 92453 L 93968 92453 Z M 83361 81088 L 11371 81088 L 11371 10609 L 83361 10609 L 83361 81088 Z" fill="#2D5967" transform="translate(235678,181878)"/>
  <path d="M 290240 0 L 256892 0 L 223550 0 L 12879 0 C 6058,0 0,5304 0,12882 L 0 21976 L 235678 21976 L 244013 21976 L 269020 21976 L 277355 21976 L 302362 21976 L 302362 12882 C 303119,5304 297061,0 290240,0 Z" fill="#2D5967" transform="translate(75025,7580)"/>
</svg>