<svg xmlns="http://www.w3.org/2000/svg" viewBox="0 0 385010 385010" width="40" height="40">
  <path d="M 20123 375845 C 9144,375845 0,366675 0,355677 L 0 20167 C 0,9166 9144,0 20123,0 L 355750 0 C 366723,0 375867,9166 375867,20167 L 375867 356594 C 375867,367593 366723,376762 355750,376762 L 20123 375845 Z" fill="#FFFFFF" transform="translate(4563,4584)"/>
  <path d="M 359407 9167 C 367634,9167 374949,16500 374949,24750 L 374949 361179 C 374949,369424 367634,376759 359407,376759 L 24692 376759 C 16459,375841 9144,368513 9144,360261 L 9144 24750 C 9144,16500 16459,9167 24692,9167 L 359407 9167 Z M 359407 0 L 24692 0 C 10973,0 0,11000 0,24750 L 0 361179 C 0,374012 10973,385011 24692,385011 L 360319 385011 C 374038,385011 385011,374012 385011,360261 L 385011 24750 C 384093,11000 373120,0 359407,0 Z" fill="#FFFFFF"/>
  <path d="M 350257 0 L 15542 0 C 7315,0 0,7334 0,15584 L 0 352008 C 0,359342 7315,366676 15542,366676 L 351168 366676 C 359401,366676 366716,359342 366716,351090 L 366716 15584 C 365805,7334 358490,0 350257,0 Z M 352086 351090 C 352086,352008 351168,352925 350257,352925 L 15542 352925 C 14630,352925 13713,352008 13713,351090 L 13713 15584 C 13713,14667 14630,13751 15542,13751 L 351168 13751 C 352086,13751 353003,14667 353003,15584 L 352086 351090 Z" fill="#2D5967" transform="translate(9151,9171)"/>
  <path d="M 126206 0 L 0 0 L 0 67835 L 127118 67835 L 126206 0 Z M 113398 54085 L 12802 54085 L 12802 13751 L 112487 13751 L 113398 54085 Z" fill="#2D5967" transform="translate(128947,79753)"/>
  <path d="M 6404 12834 C 9940,12834 12802,9961 12802,6417 C 12802,2873 9940,0 6404,0 C 2868,0 0,2873 0,6417 C 0,9961 2868,12834 6404,12834 Z" fill="#2D5967" transform="translate(214907,107262)"/>
  <path d="M 0 67835 L 127118 67835 L 127118 0 L 0 0 L 0 67835 Z M 12802 13750 L 113398 13750 L 113398 54084 L 12802 54084 L 12802 13750 Z" fill="#2D5967" transform="translate(197530,157676)"/>
  <path d="M 6397 12834 C 9933,12834 12802,9961 12802,6417 C 12802,2873 9933,0 6397,0 C 2862,0 0,2873 0,6417 C 0,9961 2862,12834 6397,12834 Z" fill="#2D5967" transform="translate(283509,185173)"/>
  <path d="M 126200 0 L 0 0 L 0 67835 L 127118 67835 L 126200 0 Z M 113398 54084 L 12802 54084 L 12802 13750 L 113398 13750 L 113398 54084 Z" fill="#2D5967" transform="translate(60370,157676)"/>
  <path d="M 6398 12834 C 9933,12834 12802,9961 12802,6417 C 12802,2873 9933,0 6398,0 C 2862,0 0,2873 0,6417 C 0,9961 2862,12834 6398,12834 Z" fill="#2D5967" transform="translate(146330,185173)"/>
  <path d="M 298133 37585 C 282585,45835 237776,66002 156385,66002 C 63103,66002 25610,47668 13719,39418 L 13719 0 L 0 0 L 0 46751 L 2746 48585 C 14637,57752 53959,79752 156385,79752 C 247838,79752 295393,55001 308194,47668 L 311852 45835 L 311852 0 L 298133 0 L 298133 37585 Z" fill="#2D5967" transform="translate(36589,226428)"/>
</svg>