<svg xmlns="http://www.w3.org/2000/svg" viewBox="0 0 385010 269507" width="40" height="28">
  <path d="M 261262 261260 L 261262 238339 L 97170 238339 L 93506 235592 L 82501 227340 L 96253 209925 L 0 209925 L 0 0 L 266761 0 L 267679 916 L 281423 11917 L 267679 28418 L 353844 28418 L 353844 140254 L 375847 140254 L 375847 261260 L 261262 261260 Z" fill="#FFFFFF" transform="translate(4582,4585)"/>
  <path d="M 269507 9167 L 279588 16501 L 263091 37585 L 352926 37585 L 352926 149421 L 375841 149421 L 375841 261256 L 270425 261256 L 270425 238341 L 158586 238341 L 128337 238341 L 106333 238341 L 103587 238341 L 100834 236506 L 93500 231007 L 110004 209921 L 98088 209921 L 85254 209921 L 73338 209921 L 64168 209921 L 41254 209921 L 9170 209921 L 9170 9167 L 41254 9167 L 63251 9167 L 72421 9167 L 85254 9167 L 244758 9167 L 256674 9167 L 269507 9167 Z M 273171 0 L 270425 0 L 258509 0 L 246593 0 L 85254 0 L 73338 0 L 64168 0 L 41254 0 L 9170 0 L 0 0 L 0 9167 L 0 209921 L 0 219091 L 9170 219091 L 41254 219091 L 63251 219091 L 72421 219091 L 85254 219091 L 90753 219091 L 86172 224590 L 80666 231925 L 88001 238341 L 95335 243841 L 98088 245676 L 100834 247505 L 104505 247505 L 107251 247505 L 128337 247505 L 158586 247505 L 261255 247505 L 261255 260338 L 261255 269508 L 270425 269508 L 375841 269508 L 385011 269508 L 385011 260338 L 385011 149421 L 385011 140254 L 375841 140254 L 363007 140254 L 363007 37585 L 363007 28418 L 353844 28418 L 282341 28418 L 286923 22001 L 292422 14667 L 285094 9167 L 275007 1833 L 273171 0 Z" fill="#FFFFFF"/>
  <path d="M 12834 187922 L 12834 12834 L 21997 12834 L 21997 0 L 0 0 L 0 200753 L 21997 200753 L 21997 187922 L 12834 187922 Z" fill="#2C5967" transform="translate(9170,9168)"/>
  <path d="M 12834 187922 L 12834 12834 L 21997 12834 L 21997 0 L 0 0 L 0 200753 L 21997 200753 L 21997 187922 L 12834 187922 Z" fill="#2C5967" transform="translate(41254,9168)"/>
  <path d="M 24750 200753 L 34830 187922 L 21997 187922 L 11916 187922 L 11916 178755 L 11916 12834 L 174166 12834 L 184253 0 L 171419 0 L 11916 0 L 0 0 L 0 12834 L 0 187922 L 0 200753 L 11916 200753 L 24750 200753 Z" fill="#2C5967" transform="translate(73338,9168)"/>
  <path d="M 82501 0 L 0 0 L 0 12834 L 82501 12834 L 82501 0 Z" fill="#2C5967" transform="translate(98088,34835)"/>
  <path d="M 82501 0 L 0 0 L 0 12834 L 82501 12834 L 82501 0 Z" fill="#2C5967" transform="translate(98088,56838)"/>
  <path d="M 82501 0 L 0 0 L 0 12834 L 82501 12834 L 82501 0 Z" fill="#2C5967" transform="translate(98088,79753)"/>
  <path d="M 10081 0 L 0 12834 L 13751 12834 L 76084 12834 L 76084 102669 L 88918 102669 L 88918 0 L 10081 0 Z" fill="#2C5967" transform="translate(264926,37587)"/>
  <path d="M 10081 0 L 0 11916 L 12834 11916 L 145752 11916 L 145752 0 L 10081 0 Z" fill="#2C5967" transform="translate(115503,226426)"/>
  <path d="M 10087 229174 L 186088 7334 L 176008 0 L 0 221839 L 10087 229174 Z" fill="#2C5967" transform="translate(93500,9168)"/>
  <path d="M 38501 0 L 0 0 L 0 12834 L 38501 12834 L 38501 0 Z" fill="#2C5967" transform="translate(222754,177839)"/>
  <path d="M 38501 0 L 0 0 L 0 12836 L 38501 12836 L 38501 0 Z" fill="#2C5967" transform="translate(222754,200756)"/>
  <path d="M 0 0 L 0 111835 L 105416 111835 L 105416 0 L 0 0 Z M 92582 99002 L 12834 99002 L 12834 12834 L 92582 12834 L 92582 99002 Z" fill="#2C5967" transform="translate(270425,149421)"/>
  <path d="M 9170 0 L 0 0 L 0 43083 L 9170 43083 L 9170 0 Z" fill="#2C5967" transform="translate(298839,186089)"/>
  <path d="M 15580 0 L 0 0 L 0 43083 L 9163 43083 L 9163 29332 L 15580 29332 C 21079,29332 24750,28421 27496,25668 C 30249,22915 31167,19251 31167,14667 C 31167,10084 30249,6417 27496,3667 C 24750,1833 21079,0 15580,0 Z M 20168 20169 C 19251,21086 16498,22004 13751,22004 L 9163 22004 L 9163 8250 L 13751 8250 C 16498,8250 19251,9167 20168,10084 C 21079,11000 21997,12834 21997,15584 C 21997,17417 21997,19251 20168,20169 Z" fill="#2C5967" transform="translate(316261,186089)"/>
  <path d="M 0 0 L 0 57751 L 57752 57751 L 57752 0 L 0 0 Z M 44918 44918 L 12834 44918 L 12834 12834 L 44918 12834 L 44918 44918 Z" fill="#2C5967" transform="translate(270425,63254)"/>
</svg>