<svg xmlns="http://www.w3.org/2000/svg" viewBox="0 0 385010 317068" width="40" height="33">
  <path d="M 16607 309521 C 7553,309521 0,301968 0,292908 L 0 16608 C 0,7549 7553,0 16607,0 L 360857 0 C 369912,0 377464,7549 377464,16608 L 377464 293665 C 377464,302725 369912,310272 360857,310272 L 16607 310272 L 16607 309521 Z" fill="#FFFFFF" transform="translate(3774,3774)"/>
  <path d="M 363873 7549 C 370669,7549 376707,12834 376707,20383 L 376707 297439 C 376707,304235 371420,310273 363873,310273 L 20380 310273 C 12834,309516 7546,304235 7546,296682 L 7546 20383 C 7546,12834 12834,7549 20380,7549 L 363873 7549 Z M 363873 0 L 20380 0 C 9061,0 0,9059 0,20383 L 0 297439 C 0,308008 9061,317068 20380,317068 L 364630 317068 C 375950,317068 385011,308008 385011,296682 L 385011 20383 C 384253,9059 375199,0 363873,0 Z" fill="#FFFFFF"/>
  <path d="M 24917 290647 L 12834 290647 C 12083,290647 11325,289890 11325,289133 L 11325 12834 C 11325,12079 12083,11324 12834,11324 L 25667 11324 C 25667,6795 27181,3020 30198,0 L 12834 0 C 5287,0 0,5285 0,12834 L 0 289890 C 0,296685 5287,301966 12834,301966 L 29447 301966 C 27181,298950 25667,295177 24917,290647 Z" fill="#2D5967" transform="translate(7547,7549)"/>
  <path d="M 25667 290648 L 12834 290648 C 12076,290648 11325,289891 11325,289134 L 11325 12834 C 11325,12079 12076,11324 12834,11324 L 25667 11324 C 25667,6794 27175,3020 29440,0 L 12834 0 C 6038,0 0,5284 0,12834 L 0 289891 C 0,296687 5281,302725 12834,302725 L 29440 302725 C 27175,298952 25667,295172 25667,290648 Z" fill="#2D5967" transform="translate(40767,7548)"/>
  <path d="M 289137 0 L 12834 0 C 6039,0 0,5284 0,12834 L 0 289891 C 0,296687 5288,302725 12834,302725 L 289894 302725 C 296683,302725 302721,297437 302721,289891 L 302721 12834 C 301970,5284 295932,0 289137,0 Z M 290645 289134 C 290645,289891 289894,290648 289137,290648 L 12834 290648 C 12077,290648 11326,289891 11326,289134 L 11326 12834 C 11326,12079 12077,11324 12834,11324 L 289894 11324 C 290645,11324 291402,12079 291402,12834 L 291402 289134 L 290645 289134 Z" fill="#2D5967" transform="translate(74737,7548)"/>
  <path d="M 0 0 L 0 67191 L 234780 67191 L 234780 0 L 0 0 Z M 224211 55866 L 11320 55866 L 11320 11324 L 224211 11324 L 224211 55866 Z" fill="#2D5967" transform="translate(107957,207603)"/>
  <path d="M 8303 16608 C 12891,16608 16607,12890 16607,8304 C 16607,3718 12891,0 8303,0 C 3715,0 0,3718 0,8304 C 0,12890 3715,16608 8303,16608 Z" fill="#2D5967" transform="translate(298198,232513)"/>
  <path d="M 109459 67188 L 109459 0 L 0 0 L 0 67188 L 109459 67188 Z M 11320 11324 L 19623 11324 L 19623 55864 L 11320 55864 L 11320 11324 Z M 30948 11324 L 39252 11324 L 39252 55864 L 30948 55864 L 30948 11324 Z M 50578 56619 L 50578 11324 L 58881 11324 L 58881 55864 L 50578 55864 L 50578 56619 Z M 98139 11324 L 98139 55864 L 89836 55864 L 89836 11324 L 98139 11324 Z M 78510 11324 L 78510 55864 L 70207 55864 L 70207 11324 L 78510 11324 Z" fill="#2D5967" transform="translate(107957,40763)"/>
  <path d="M 0 0 L 0 67188 L 108708 67188 L 108708 0 L 0 0 Z M 11319 11324 L 19629 11324 L 19629 55864 L 11319 55864 L 11319 11324 Z M 30948 11324 L 39252 11324 L 39252 55864 L 30948 55864 L 30948 11324 Z M 50578 11324 L 58881 11324 L 58881 55864 L 50578 55864 L 50578 11324 Z M 70207 56619 L 70207 11324 L 78510 11324 L 78510 55864 L 70207 55864 L 70207 56619 Z M 98139 56619 L 89836 56619 L 89836 11324 L 98139 11324 L 98139 56619 Z" fill="#2D5967" transform="translate(234029,40763)"/>
  <path d="M 109459 67188 L 109459 0 L 0 0 L 0 67188 L 109459 67188 Z M 11320 11324 L 19623 11324 L 19623 56619 L 11320 56619 L 11320 11324 Z M 30948 11324 L 39252 11324 L 39252 56619 L 30948 56619 L 30948 11324 Z M 50578 56619 L 50578 11324 L 58881 11324 L 58881 56619 L 50578 56619 Z M 98139 11324 L 98139 56619 L 89836 56619 L 89836 11324 L 98139 11324 Z M 78510 11324 L 78510 56619 L 70207 56619 L 70207 11324 L 78510 11324 Z" fill="#2D5967" transform="translate(107957,124562)"/>
  <path d="M 0 0 L 0 67188 L 108708 67188 L 108708 0 L 0 0 Z M 11319 10569 L 19629 10569 L 19629 55864 L 11319 55864 L 11319 10569 Z M 30948 10569 L 39252 10569 L 39252 55864 L 30948 55864 L 30948 10569 Z M 50578 10569 L 58881 10569 L 58881 55864 L 50578 55864 L 50578 10569 Z M 70207 55864 L 70207 10569 L 78510 10569 L 78510 55864 L 70207 55864 Z M 98139 55864 L 89836 55864 L 89836 10569 L 98139 10569 L 98139 55864 Z" fill="#2D5967" transform="translate(234029,125316)"/>
</svg>