<svg xmlns="http://www.w3.org/2000/svg" viewBox="0 0 385010 284040" width="40" height="30">
  <path d="M 0 277322 L 0 174593 C 90,165050 3940,155926 10716,149203 C 17486,142480 26643,138699 36185,138682 L 50725 138682 L 50725 136586 C 41235,131065 33811,122592 29588,112459 C 25366,102326 24570,91090 27323,80463 C 30082,69836 36236,60403 44854,53601 C 53472,46799 64079,43002 75052,42789 C 86031,42576 96772,45959 105647,52422 C 114522,58884 121041,68072 124205,78583 C 127375,89095 127015,100354 123184,110642 C 119360,120932 112269,129686 103003,135571 L 106385 135571 C 110370,130403 115497,126221 121362,123348 C 127221,120476 133669,118988 140195,119002 L 157777 119002 L 157777 111631 C 146522,104853 137795,94574 132931,82366 C 128067,70157 127342,56692 130859,44031 C 134375,31369 141947,20209 152407,12257 C 162866,4305 175649,0 188790,0 C 201932,0 214708,4305 225167,12257 C 235633,20209 243198,31369 246715,44031 C 250231,56692 249506,70157 244642,82366 C 239785,94574 231051,104853 219796,111631 L 219796 118393 L 237783 118393 C 244302,118449 250725,119967 256578,122834 C 262430,125702 267563,129847 271600,134962 L 274981 134962 C 265735,129089 258657,120357 254826,110095 C 250995,99833 250610,88600 253748,78103 C 256879,67605 263354,58418 272183,51934 C 281013,45450 291716,42026 302670,42180 C 313623,42335 324230,46060 332874,52790 C 341517,59520 347729,68887 350559,79468 C 353395,90049 352702,101267 348582,111418 C 344463,121568 337141,130096 327734,135707 L 327734 138682 L 341254 138682 C 350847,138700 360043,142517 366819,149299 C 373602,156081 377420,165273 377439,174863 L 377439 277322 L 0 277322 Z" fill="#FFFFFF" transform="translate(3382,3343)"/>
  <path d="M 192204 6763 C 204774,6736 217005,10887 226964,18566 C 236923,26244 244052,37014 247228,49183 C 250398,61352 249442,74231 244501,85796 C 239560,97361 230917,106957 219931,113075 L 219931 125451 L 241299 125451 C 247626,125490 253857,127009 259497,129886 C 265131,132763 270014,136918 273762,142020 L 295605 142020 C 284317,139521 274346,132941 267608,123542 C 260870,114144 257835,102589 259093,91093 C 260351,79597 265805,68970 274416,61250 C 283028,53530 294187,49261 305750,49261 C 317313,49261 328472,53530 337083,61250 C 345694,68970 351149,79597 352407,91093 C 353664,102589 350629,114144 343891,123542 C 337154,132941 327182,139521 315895,142020 L 328067 142020 L 328067 145131 L 345309 145131 C 354005,145149 362340,148610 368487,154758 C 374634,160905 378093,169237 378112,177931 L 378112 277278 L 6763 277278 L 6763 177931 C 6783,169237 10241,160905 16389,154758 C 22536,148610 30871,145149 39560,145131 L 57283 145131 L 57283 142020 L 68981 142020 C 57687,139521 47722,132941 40985,123542 C 34240,114144 31212,102589 32469,91093 C 33727,79597 39181,68970 47793,61250 C 56404,53530 67563,49261 79126,49261 C 90689,49261 101848,53530 110459,61250 C 119064,68970 124525,79597 125783,91093 C 127040,102589 124006,114144 117268,123542 C 110530,132941 100558,139521 89271,142020 L 111114 142020 C 114720,136905 119501,132730 125058,129847 C 130608,126963 136775,125456 143038,125451 L 164002 125451 L 164002 112804 C 153112,106603 144584,96973 139746,85417 C 134908,73860 134029,61027 137250,48920 C 140471,36813 147607,26111 157546,18485 C 167486,10859 179672,6737 192204,6763 Z M 192204 0 C 178536,4 165234,4416 154274,12582 C 143314,20748 135286,32232 131372,45327 C 127458,58422 127875,72429 132559,85268 C 137243,98107 145945,109092 157373,116591 L 157373 118688 L 143173 118688 C 137372,118690 131629,119815 126264,122002 C 130204,114822 132450,106835 132835,98653 C 133214,90471 131718,82310 128459,74795 C 125199,67281 120264,60611 114034,55297 C 107797,49983 100430,46165 92499,44136 C 84561,42107 76264,41920 68249,43590 C 60228,45260 52695,48742 46233,53770 C 39765,58798 34536,65239 30942,72599 C 27349,79960 25481,88044 25494,96235 C 25513,104329 27342,112315 30852,119607 C 34362,126899 39470,133310 45784,138368 L 39021 138368 C 28626,138528 18712,142764 11416,150164 C 4113,157565 19,167537 0,177931 L 0 284041 L 385011 284041 L 385011 177931 C 384991,167444 380820,157391 373402,149976 C 365984,142560 355936,138386 345451,138368 L 338687 138368 C 345855,132747 351470,125394 355018,117003 C 358560,108611 359908,99456 358939,90399 C 357970,81341 354710,72680 349474,65228 C 344232,57777 337180,51781 328985,47805 C 320791,43829 311717,42003 302625,42498 C 293526,42994 284709,45796 276996,50639 C 269283,55483 262924,62209 258528,70185 C 254126,78162 251829,87127 251848,96235 C 251861,105305 254190,114220 258612,122138 C 253023,119879 247055,118708 241030,118688 L 226694 118688 L 226694 116930 C 238199,109477 246991,98504 251752,85646 C 256513,72788 256988,58736 253112,45585 C 249230,32435 241203,20891 230230,12675 C 219251,4460 205910,13 192204,0 L 192204 0 Z" fill="#FFFFFF"/>
  <path d="M 46933 94004 C 56237,94017 65330,91270 73075,86111 C 80814,80951 86846,73611 90414,65020 C 93981,56429 94918,46973 93102,37849 C 91293,28725 86814,20344 80236,13766 C 73659,7189 65279,2711 56154,900 C 47029,-912 37577,25 28985,3591 C 20393,7156 13052,13191 7893,20931 C 2734,28671 -12,37768 0,47070 C 103,59484 5083,71361 13867,80140 C 22645,88919 34516,93898 46933,94004 Z M 46933 11700 C 54011,11633 60941,13673 66857,17560 C 72767,21447 77388,27006 80127,33528 C 82867,40050 83605,47240 82251,54184 C 80891,61127 77496,67509 72498,72516 C 67499,77523 61127,80930 54184,82302 C 47241,83674 40054,82950 33522,80221 C 26996,77492 21432,72882 17531,66979 C 13630,61075 11576,54144 11634,47070 C 11718,37728 15465,28793 22068,22180 C 28664,15568 37590,11805 46933,11700 Z" fill="#2D5967" transform="translate(258888,49169)"/>
  <path d="M 338681 19680 L 329011 19680 L 327323 21912 C 323993,26247 319713,29758 314810,32174 C 309908,34591 304518,35847 299051,35847 C 293590,35847 288193,34591 283291,32174 C 278395,29758 274115,26247 270785,21912 L 269090 19680 L 268551 19680 C 265118,13737 260197,8794 254261,5341 C 248332,1889 241601,48 234734,0 L 223171 0 L 221484 2232 C 217236,7759 211782,12236 205532,15317 C 199282,18398 192403,20001 185434,20001 C 178465,20001 171593,18398 165343,15317 C 159093,12236 153632,7759 149391,2232 L 147697 0 L 136403 0 C 129543,41 122806,1879 116876,5332 C 110941,8785 106019,13732 102593,19680 L 100898 21912 C 97574,26247 93294,29758 88392,32174 C 83489,34591 78100,35847 72632,35847 C 67165,35847 61775,34591 56873,32174 C 51970,29758 47690,26247 44360,21912 L 42672 19680 L 32797 19680 C 24102,19698 15773,23160 9625,29307 C 3478,35454 13,43787 0,52480 L 0 151824 L 11358 151824 L 11358 52480 C 11358,46788 13617,41328 17633,37297 C 21651,33266 27105,30992 32797,30974 L 36993 30974 C 44334,39325 54389,44824 65381,46505 C 76373,48187 87609,45945 97113,40172 L 97113 151824 L 108207 151824 L 108207 39293 C 108207,31885 111146,24781 116382,19543 C 121625,14304 128728,11362 136133,11362 L 142018 11362 C 147356,17614 153991,22633 161454,26075 C 168923,29517 177047,31299 185267,31299 C 193487,31299 201611,29517 209080,26075 C 216543,22633 223178,17614 228517,11362 L 234330 11362 C 241742,11362 248845,14304 254081,19543 C 259317,24781 262263,31885 262263,39293 L 262263 151824 L 273627 151824 L 273627 39766 C 283124,45885 294514,48365 305698,46749 C 316883,45133 327111,39532 334491,30974 L 338681 30974 C 344379,30992 349840,33264 353870,37293 C 357900,41322 360171,46782 360190,52480 L 360190 151824 L 371484 151824 L 371484 52480 C 371464,43787 368006,35454 361859,29307 C 355711,23160 347376,19698 338681,19680 Z" fill="#2D5967" transform="translate(6770,125453)"/>
  <path d="M 46933 94004 C 56237,94017 65336,91270 73075,86111 C 80814,80951 86846,73611 90414,65020 C 93981,56429 94918,46973 93102,37849 C 91292,28725 86813,20344 80236,13766 C 73659,7189 65278,2711 56154,900 C 47029,-912 37577,25 28985,3591 C 20393,7156 13052,13191 7893,20931 C 2734,28671 -13,37768 0,47070 C 109,59484 5088,71361 13867,80140 C 22645,88919 34523,93898 46933,94004 Z M 46933 11700 C 53985,11700 60877,13790 66735,17706 C 72600,21622 77163,27188 79864,33701 C 82559,40213 83265,47380 81892,54293 C 80518,61207 77124,67557 72138,72541 C 67152,77526 60799,80921 53889,82296 C 46978,83671 39810,82965 33297,80267 C 26784,77570 21221,73002 17300,67141 C 13386,61280 11294,54389 11294,47340 C 11294,37888 15047,28822 21734,22138 C 28420,15455 37481,11700 46933,11700 Z" fill="#2D5967" transform="translate(32251,49169)"/>
  <path d="M 56943 113616 C 68179,113590 79152,110234 88475,103972 C 97805,97710 105063,88825 109337,78438 C 113617,68052 114720,56630 112506,45618 C 110293,34605 104864,24496 96907,16567 C 88950,8639 78825,3247 67800,1073 C 56783,-1100 45367,43 34991,4357 C 24621,8671 15760,15962 9535,25311 C 3304,34659 -13,45643 0,56876 C 13,64342 1489,71732 4357,78625 C 7225,85519 11422,91779 16716,97050 C 22003,102319 28279,106494 35183,109337 C 42082,112180 49480,113634 56943,113616 Z M 56943 11429 C 65933,11429 74724,14094 82193,19088 C 89669,24082 95495,31180 98935,39484 C 102374,47788 103273,56926 101521,65742 C 99763,74558 95438,82655 89078,89011 C 82726,95367 74628,99695 65811,101449 C 56994,103203 47857,102302 39553,98863 C 31250,95423 24153,89598 19160,82125 C 14162,74651 11499,65864 11499,56876 C 11518,44828 16312,33279 24833,24760 C 33348,16241 44898,11447 56943,11429 Z" fill="#2D5967" transform="translate(135248,6695)"/>
  <path d="M 5679 0 L 0 0 L 0 70062 L 2836 70062 L 11358 70062 L 11358 11362 L 5679 0 Z" fill="#2D5967" transform="translate(137488,207221)"/>
  <path d="M 5679 0 L 0 11362 L 0 70062 L 9465 70062 L 11364 70062 L 11364 0 L 5679 0 Z" fill="#2D5967" transform="translate(235223,207221)"/>
  <path d="M 0 11296 L 0 58704 L 11364 58704 L 11364 0 L 5685 0 L 0 11296 Z" fill="#2D5967" transform="translate(338617,218573)"/>
  <path d="M 0 0 L 0 58704 L 11294 58704 L 11294 11296 L 5615 0 L 0 0 Z" fill="#2D5967" transform="translate(35030,218573)"/>
</svg>