<svg fill="#000000" version="1.1" id="storage-outline" xmlns="http://www.w3.org/2000/svg" 
     viewBox="0 0 128 128" xml:space="preserve">
<g transform="translate(64, 64) scale(0.4223) translate(-151.501, -139.872)">
    <g>
        <path transform="scale(1, 0.8)" fill="none" stroke="#000000" stroke-width="15" 
              d="M151.501,0c66.75,0,123.194,27.559,125.104,60.549c-1.91,32.987-58.354,60.553-125.104,60.553
              c-66.752,0-123.191-27.56-125.104-60.553C28.31,27.559,84.749,0,151.501,0z"/>
        <path transform="scale(1, 0.8) translate(0, 19.5)" fill="none" stroke="#000000" stroke-width="15" 
              d="M276.785,240.744c0,33.747-57.369,62.258-125.284,62.258S26.217,274.491,26.217,240.744v-29.771
              c21.449,25.754,68.887,43.27,125.284,43.27s103.834-17.521,125.284-43.27V240.744z"/>
        <path transform="scale(1, 0.8) translate(0, 13)" fill="none" stroke="#000000" stroke-width="15" 
              d="M276.785,179.688c0,33.746-57.369,62.258-125.284,62.258S26.217,213.434,26.217,179.688v-31.009
              c21.449,25.748,68.887,43.259,125.284,43.259s103.834-17.522,125.284-43.259V179.688z"/>
        <path transform="scale(1, 0.8) translate(0, 6.5)" fill="none" stroke="#000000" stroke-width="15" 
              d="M276.785,117.381c0,33.748-57.369,62.257-125.284,62.257s-125.284-28.51-125.284-62.257V90.135
              c21.449,25.754,68.887,43.258,125.284,43.258s103.834-17.51,125.284-43.258V117.381z"/>
        <circle transform="scale(1, 0.8) translate(0, 19.5)" cx="90" cy="270" r="10" fill="#000000"/>
        <circle transform="scale(1, 0.8) translate(0, 13)" cx="90" cy="208" r="10" fill="#000000"/>
        <circle transform="scale(1, 0.8) translate(0, 6.5)" cx="90" cy="147" r="10" fill="#000000"/>
    </g>
</g>
</svg>